<?xml version="1.0" encoding="utf-8"?>
<!-- Generator: Adobe Illustrator 27.9.0, SVG Export Plug-In . SVG Version: 6.00 Build 0)  -->
<svg version="1.1" id="Layer_1" xmlns="http://www.w3.org/2000/svg" xmlns:xlink="http://www.w3.org/1999/xlink" x="0px" y="0px"
	 viewBox="0 0 356.3 121.2" style="enable-background:new 0 0 356.3 121.2;" xml:space="preserve">
<g>
	<g>
		<path d="M21.8,12.7c-1.2-1.2-2.5-2.1-4.1-2.7c-1.6-0.6-3.3-1-5.2-1H3.6v28.3h8.8c1.9,0,3.7-0.3,5.3-1c1.6-0.6,3-1.6,4.1-2.7
			c1.2-1.2,2.1-2.6,2.7-4.3c0.6-1.7,1-3.5,1-5.5v-1.3c0-2-0.3-3.8-1-5.5C23.8,15.3,22.9,13.9,21.8,12.7L21.8,12.7z M19.4,23.8
			c0,1.9-0.3,3.5-0.8,4.8c-0.5,1.3-1.3,2.4-2.4,3c-1.1,0.7-2.4,1-3.9,1H9.5V13.5h2.9c1.1,0,2.1,0.2,3,0.6c0.9,0.4,1.6,0.9,2.2,1.7
			c0.6,0.8,1.1,1.7,1.4,2.8c0.3,1.1,0.5,2.4,0.5,3.8L19.4,23.8L19.4,23.8z"/>
		<path d="M41.9,9h-5.9v28.3h5.9V9z"/>
		<path d="M76.1,33.7V22.5H64.8v4.2h5.4v5c-0.2,0.2-0.5,0.4-0.9,0.7c-0.4,0.2-0.9,0.4-1.5,0.6c-0.6,0.2-1.4,0.2-2.3,0.2
			c-1.1,0-2.1-0.2-2.9-0.6c-0.8-0.4-1.5-1-2.1-1.7c-0.6-0.8-1-1.7-1.3-2.9c-0.3-1.1-0.4-2.4-0.4-3.9v-1.8c0-1.5,0.1-2.8,0.4-3.9
			c0.3-1.1,0.7-2.1,1.2-2.8c0.5-0.8,1.2-1.3,1.9-1.7c0.8-0.4,1.6-0.6,2.6-0.6c1.2,0,2.2,0.2,2.9,0.6c0.8,0.4,1.3,1,1.7,1.7
			c0.4,0.7,0.7,1.5,0.8,2.5H76c-0.2-1.8-0.7-3.4-1.6-4.8c-0.8-1.4-2.1-2.5-3.6-3.3c-1.6-0.8-3.6-1.2-6.1-1.2c-1.8,0-3.4,0.3-4.9,0.9
			c-1.5,0.6-2.7,1.5-3.8,2.7c-1.1,1.2-1.9,2.6-2.4,4.3c-0.6,1.7-0.8,3.6-0.8,5.8V24c0,2.2,0.3,4.1,0.9,5.8c0.6,1.7,1.4,3.1,2.5,4.3
			c1.1,1.2,2.4,2.1,3.9,2.7c1.5,0.6,3.2,0.9,5,0.9c2.1,0,3.8-0.2,5.3-0.7c1.5-0.4,2.7-1,3.6-1.6C74.9,34.8,75.6,34.2,76.1,33.7
			L76.1,33.7z"/>
		<path d="M93.1,9h-5.9v28.3h5.9V9z"/>
		<path d="M110.9,37.2h5.9V13.5h8.8V9h-8.8h-5.9h-8.6v4.6h8.6V37.2z"/>
		<path d="M144.9,9h-4l-10.6,28.3h6.2l2-6h10.3l2,6h6.3L146.4,9H144.9z M140.1,26.7l3.6-10.9l3.6,10.9H140.1z"/>
		<path d="M171.6,37.2h12.5v-4.5h-12.5V9h-5.9v28.3h4H171.6z"/>
		<path d="M233.8,37.2L223.1,9h-5.5l-10.6,28.3h6.2l2-6h10.2l2,6H233.8z M216.8,26.7l3.6-10.9l3.6,10.9H216.8z"/>
		<path d="M261.5,13.5V9h-8.8h-5.9h-8.6v4.6h8.6v23.7h5.9V13.5H261.5z"/>
		<path d="M276.8,9h-5.9v28.3h4h1.9h12.5v-4.5h-12.5V9z"/>
		<path d="M311.2,9h-4l-10.6,28.3h6.2l2-6h10.2l2,6h6.3L312.7,9H311.2z M306.3,26.7l3.6-10.9l3.6,10.9H306.3z"/>
		<path d="M352.1,26.7c-0.4-0.9-1-1.7-1.8-2.5c-0.8-0.7-1.8-1.4-3-2c-1.2-0.6-2.5-1.1-4.1-1.6c-0.9-0.3-1.7-0.6-2.4-0.9
			c-0.7-0.3-1.3-0.6-1.8-1c-0.5-0.3-0.8-0.7-1.1-1.1c-0.2-0.4-0.4-0.8-0.4-1.3c0-0.6,0.2-1.2,0.5-1.7c0.3-0.5,0.8-0.9,1.5-1.2
			c0.7-0.3,1.5-0.5,2.5-0.5c1,0,1.9,0.2,2.6,0.5c0.7,0.4,1.2,0.9,1.6,1.5c0.4,0.6,0.5,1.3,0.5,2.2h5.8c0-1.7-0.4-3.2-1.3-4.5
			c-0.9-1.3-2.1-2.3-3.6-3.1c-1.6-0.8-3.4-1.1-5.5-1.1c-1.5,0-3,0.2-4.3,0.6c-1.3,0.4-2.4,0.9-3.3,1.6c-0.9,0.7-1.7,1.5-2.2,2.5
			c-0.5,1-0.8,2-0.8,3.2s0.2,2.3,0.7,3.2c0.5,0.9,1.2,1.7,2.1,2.4c0.9,0.7,1.9,1.3,3.1,1.8c1.2,0.5,2.4,1,3.7,1.4
			c1.2,0.4,2.1,0.7,2.8,1c0.7,0.3,1.3,0.7,1.7,1c0.4,0.3,0.7,0.7,0.8,1.1c0.2,0.4,0.2,0.9,0.2,1.4c0,0.6-0.2,1.2-0.5,1.7
			c-0.3,0.5-0.8,0.9-1.5,1.2c-0.7,0.3-1.5,0.4-2.5,0.4c-0.8,0-1.6-0.1-2.3-0.3c-0.7-0.2-1.3-0.4-1.8-0.8c-0.5-0.4-0.9-0.9-1.2-1.5
			c-0.3-0.6-0.4-1.4-0.4-2.2h-5.9c0,1.6,0.3,3,1,4.1c0.7,1.2,1.6,2.1,2.7,2.9c1.1,0.8,2.4,1.3,3.7,1.7c1.4,0.4,2.8,0.5,4.2,0.5
			c1.6,0,3-0.2,4.2-0.5c1.3-0.3,2.4-0.9,3.3-1.5c0.9-0.7,1.6-1.5,2.1-2.5c0.5-1,0.7-2.1,0.7-3.3C352.7,28.6,352.5,27.6,352.1,26.7z"
			/>
		<path d="M62.6,52.1c-0.7-0.8-1.5-1.4-2.5-1.9c-1-0.4-2.1-0.6-3.3-0.6c-1.2,0-2.3,0.2-3.2,0.6c-1,0.4-1.8,1.1-2.5,1.9
			c-0.7,0.8-1.2,1.8-1.6,2.9c-0.4,1.1-0.6,2.4-0.6,3.8V61c0,1.4,0.2,2.7,0.6,3.8c0.4,1.1,0.9,2.1,1.6,2.9c0.7,0.8,1.5,1.4,2.5,1.9
			c1,0.4,2.1,0.6,3.2,0.6c1.2,0,2.3-0.2,3.3-0.6s1.8-1.1,2.5-1.9c0.7-0.8,1.2-1.8,1.6-2.9c0.4-1.1,0.6-2.4,0.6-3.8v-2.2
			c0-1.4-0.2-2.7-0.6-3.8C63.8,53.9,63.3,52.9,62.6,52.1L62.6,52.1z M63,61c0,1.2-0.1,2.3-0.4,3.2c-0.3,0.9-0.7,1.8-1.2,2.4
			c-0.5,0.7-1.2,1.2-1.9,1.5c-0.8,0.4-1.6,0.5-2.6,0.5c-1,0-1.8-0.2-2.6-0.5c-0.8-0.4-1.4-0.9-1.9-1.5c-0.5-0.7-1-1.5-1.2-2.4
			c-0.3-1-0.4-2-0.4-3.2v-2.2c0-1.2,0.1-2.3,0.4-3.2c0.3-0.9,0.7-1.8,1.2-2.4c0.5-0.7,1.2-1.2,1.9-1.5c0.8-0.4,1.6-0.5,2.6-0.5
			c1,0,1.9,0.2,2.6,0.5c0.8,0.4,1.4,0.9,1.9,1.5c0.5,0.7,0.9,1.5,1.2,2.4c0.3,0.9,0.4,2,0.4,3.2V61z"/>
		<path d="M76.6,49.8h-1.1v20.1h1.7v-9.4h9.4v-1.5h-9.4v-7.8h10.8v-1.5H77.2H76.6z"/>
		<path d="M118.1,49.8h-1.2l-7.7,20.1h1.8l2.1-5.6h9.2l2.1,5.6h1.8l-7.7-20.1H118.1L118.1,49.8z M113.6,62.8l4.1-10.9l4.1,10.9
			H113.6L113.6,62.8z"/>
		<path d="M147.6,63.4c0,1.2-0.2,2.1-0.7,2.9c-0.5,0.8-1.1,1.4-1.9,1.8c-0.8,0.4-1.8,0.6-2.8,0.6c-1,0-2-0.2-2.8-0.6
			c-0.8-0.4-1.5-1-1.9-1.8c-0.5-0.8-0.7-1.8-0.7-2.9V49.8H135v13.6c0,1.5,0.3,2.8,0.9,3.8c0.6,1,1.5,1.8,2.6,2.2
			c1.1,0.5,2.3,0.7,3.6,0.7c1.3,0,2.5-0.2,3.6-0.7c1.1-0.5,1.9-1.2,2.6-2.2c0.6-1,1-2.3,1-3.8V49.8h-1.7L147.6,63.4L147.6,63.4z"/>
		<path d="M172,61.2c-0.6-0.5-1.3-0.9-2.1-1.2c-0.8-0.4-1.8-0.7-2.9-1c-1-0.3-1.9-0.5-2.6-0.8c-0.7-0.3-1.3-0.6-1.7-1
			c-0.4-0.3-0.7-0.7-0.9-1.1c-0.2-0.4-0.3-0.8-0.3-1.3c0-0.7,0.2-1.3,0.6-1.9c0.4-0.6,1-1,1.7-1.3c0.8-0.3,1.7-0.5,2.8-0.5
			c1.1,0,2.1,0.2,2.8,0.6c0.8,0.4,1.4,0.9,1.8,1.6c0.4,0.7,0.6,1.5,0.6,2.3h1.7c0-1.1-0.3-2.1-0.9-3c-0.6-0.9-1.4-1.6-2.4-2.2
			c-1-0.5-2.3-0.8-3.7-0.8c-1,0-1.9,0.1-2.7,0.4c-0.8,0.2-1.5,0.6-2.2,1.1c-0.6,0.5-1.1,1-1.4,1.6c-0.3,0.6-0.5,1.3-0.5,2.1
			c0,0.8,0.2,1.5,0.5,2.1c0.3,0.6,0.7,1.1,1.3,1.5c0.6,0.4,1.3,0.8,2.1,1.2c0.8,0.3,1.7,0.7,2.7,0.9c1.1,0.3,1.9,0.6,2.6,0.9
			c0.7,0.3,1.3,0.6,1.7,1c0.4,0.3,0.7,0.7,0.9,1.2c0.2,0.4,0.3,0.9,0.3,1.5c0,0.8-0.2,1.4-0.7,2c-0.4,0.6-1,1-1.8,1.3
			c-0.8,0.3-1.7,0.5-2.8,0.5c-0.7,0-1.4-0.1-2.1-0.2c-0.7-0.2-1.3-0.4-1.9-0.8c-0.6-0.4-1-0.8-1.4-1.4c-0.3-0.6-0.5-1.3-0.5-2.1
			h-1.7c0,1.1,0.2,2,0.7,2.7c0.4,0.8,1,1.4,1.8,1.9c0.7,0.5,1.6,0.8,2.5,1.1c0.9,0.2,1.8,0.3,2.7,0.3c1,0,1.9-0.1,2.8-0.4
			c0.9-0.2,1.6-0.6,2.2-1c0.6-0.4,1.1-1,1.5-1.6c0.4-0.7,0.5-1.4,0.5-2.2c0-0.8-0.1-1.5-0.4-2.2C173,62.2,172.5,61.7,172,61.2
			L172,61.2z"/>
		<path d="M188.9,49.8H182v1.5h6.9v18.6h1.7V51.3h7v-1.5h-7H188.9z"/>
		<path d="M218.5,60.3c0.7-0.5,1.3-1.2,1.7-1.9c0.4-0.8,0.6-1.6,0.6-2.6c0-1.3-0.3-2.4-0.8-3.2c-0.6-0.9-1.4-1.6-2.4-2
			c-1-0.4-2.2-0.7-3.6-0.7h-6.6v20.1h1.7v-8.4h5.9l4.9,8.4h1.8v-0.2l-5.1-8.6C217.3,61,217.9,60.7,218.5,60.3L218.5,60.3z M209,60.1
			v-8.8h4.9c1.1,0,2.1,0.2,2.8,0.5c0.8,0.4,1.3,0.9,1.7,1.5c0.4,0.7,0.6,1.4,0.6,2.4c0,0.8-0.2,1.5-0.5,2.2
			c-0.4,0.7-0.9,1.2-1.6,1.6c-0.7,0.4-1.6,0.6-2.6,0.6H209z"/>
		<path d="M238.6,49.8h-1.2l-7.7,20.1h1.8l2.1-5.6h9.2l2.1,5.6h1.8L239,49.8H238.6z M234.1,62.8l4.1-10.9l4.1,10.9H234.1z"/>
		<path d="M257.8,49.8h-1.7v20.1h1.2h0.5h10v-1.4h-10V49.8z"/>
		<path d="M279.7,49.8H278v20.1h1.7V49.8z"/>
		<path d="M298.6,49.8h-1.2l-7.7,20.1h1.8l2.1-5.6h9.2l2.1,5.6h1.8L299,49.8H298.6z M294.1,62.8l4.1-10.9l4.1,10.9H294.1z"/>
	</g>
</g>
<g>
	<path d="M208.8,98.8c-0.2-0.3-0.4-0.5-0.7-0.7c-0.3-0.2-0.6-0.2-1-0.2c-0.4,0-0.7,0.1-1,0.2c-0.3,0.1-0.5,0.4-0.7,0.7
		c-0.2,0.3-0.3,0.7-0.4,1.1c-0.1,0.4-0.1,0.9-0.1,1.5v0.5c0,0.6,0,1.1,0.1,1.5c0.1,0.4,0.2,0.8,0.4,1.1c0.2,0.3,0.4,0.5,0.7,0.7
		c0.3,0.2,0.6,0.2,1,0.2c0.4,0,0.7-0.1,1-0.2c0.3-0.2,0.5-0.4,0.7-0.7c0.2-0.3,0.3-0.7,0.4-1.1c0.1-0.4,0.2-1,0.2-1.5v-0.5
		c0-0.6-0.1-1.1-0.2-1.5C209.2,99.4,209,99.1,208.8,98.8z"/>
	<path d="M296,85.7H182v19.2c0,7.1,5.7,12.8,12.8,12.8h114.1V98.5C308.8,91.4,303.1,85.7,296,85.7z M212.3,101.9
		c0,0.9-0.1,1.7-0.4,2.4c-0.2,0.7-0.6,1.3-1.1,1.8c-0.5,0.5-1,0.9-1.6,1.1c-0.6,0.3-1.3,0.4-2.1,0.4c-0.8,0-1.4-0.1-2.1-0.4
		c-0.6-0.3-1.2-0.6-1.6-1.1c-0.5-0.5-0.8-1.1-1.1-1.8c-0.2-0.7-0.4-1.5-0.4-2.4v-0.5c0-0.9,0.1-1.7,0.4-2.4c0.3-0.7,0.6-1.3,1.1-1.8
		c0.5-0.5,1-0.9,1.6-1.1c0.6-0.3,1.3-0.4,2.1-0.4c0.7,0,1.4,0.1,2.1,0.4c0.6,0.3,1.2,0.6,1.6,1.1c0.5,0.5,0.8,1.1,1.1,1.8
		c0.3,0.7,0.4,1.5,0.4,2.4V101.9z M224,98h-5v2.7h4.5v2.2H219v4.7h-2.8V95.8h2h0.8h5V98z M235.4,98h-5v2.7h4.5v2.2h-4.5v4.7h-2.8
		V95.8h2h0.8h5V98z M242.1,107.5h-2.8V95.8h2.8V107.5z M249.2,103.6c0.1,0.4,0.2,0.8,0.4,1.1c0.2,0.3,0.4,0.5,0.6,0.6
		c0.3,0.1,0.6,0.2,1,0.2c0.4,0,0.8-0.1,1.1-0.2c0.3-0.1,0.5-0.3,0.7-0.6c0.2-0.3,0.2-0.6,0.3-1.1h2.8c0,0.8-0.3,1.5-0.7,2.1
		c-0.4,0.6-1,1.1-1.7,1.5c-0.7,0.3-1.5,0.5-2.5,0.5c-0.8,0-1.5-0.1-2.1-0.4c-0.6-0.3-1.1-0.6-1.6-1.1c-0.4-0.5-0.7-1.1-1-1.8
		c-0.2-0.7-0.3-1.5-0.3-2.4v-0.6c0-0.9,0.1-1.7,0.3-2.4c0.2-0.7,0.6-1.3,1-1.8c0.4-0.5,1-0.9,1.6-1.1c0.6-0.3,1.3-0.4,2-0.4
		c1,0,1.9,0.2,2.6,0.5c0.7,0.4,1.2,0.9,1.6,1.5c0.4,0.6,0.6,1.4,0.7,2.2h-2.8c0-0.4-0.1-0.8-0.2-1.1c-0.1-0.3-0.4-0.5-0.7-0.7
		c-0.3-0.1-0.7-0.2-1.2-0.2c-0.3,0-0.6,0.1-0.9,0.2c-0.3,0.1-0.5,0.3-0.6,0.6c-0.2,0.3-0.3,0.6-0.4,1.1c-0.1,0.4-0.1,1-0.1,1.6v0.6
		C249,102.6,249.1,103.1,249.2,103.6z M262.8,107.5h-2.8V95.8h2.8V107.5z M274.6,107.5l-0.7-2.2h-3.9l-0.7,2.2h-3l4.3-11.7h0.7h1.2
		h0.7l4.3,11.7H274.6z M288.7,107.5h-4.9h-1H281V95.8h2.8v9.5h4.9V107.5z"/>
	<polygon points="270.8,103.1 273.3,103.1 272,99.1 	"/>
</g>
</svg>
