<?xml version="1.0" encoding="UTF-8"?>
<svg id="Layer_2" xmlns="http://www.w3.org/2000/svg" version="1.1" viewBox="0 0 408.51 318.61">
  <!-- Generator: Adobe Illustrator 29.3.1, SVG Export Plug-In . SVG Version: 2.1.0 Build 151)  -->
  <defs>
    <style>
      .st0 {
        fill: #fff;
      }

      .st1, .st2 {
        stroke-linecap: round;
      }

      .st1, .st2, .st3 {
        fill: none;
        stroke-miterlimit: 10;
        stroke-width: 5px;
      }

      .st1, .st3 {
        stroke: #231f20;
      }

      .st2 {
        stroke: #275cff;
      }

      .st4 {
        fill: #f2541a;
      }
    </style>
  </defs>
  <path class="st3" d="M246.89,235.91H31.62c-7.43,0-13.45-6.02-13.45-13.45V39.49c0-7.43,6.02-13.45,13.45-13.45h303.49c7.43,0,13.45,6.02,13.45,13.45v107.02"/>
  <circle class="st4" cx="183.36" cy="115.1" r="51.06"/>
  <polygon class="st0" points="204.1 115.1 170.57 134.46 170.57 95.75 204.1 115.1"/>
  <line class="st2" x1="84.04" y1="191.83" x2="100.04" y2="191.83"/>
  <line class="st1" x1="114.51" y1="182.77" x2="114.51" y2="201.91"/>
  <line class="st2" x1="127.96" y1="191.83" x2="243.28" y2="191.83"/>
  <line class="st1" x1="129.38" y1="297.06" x2="237.34" y2="297.06"/>
  <line class="st1" x1="198.62" y1="248.04" x2="212.57" y2="284.47"/>
  <line class="st1" x1="154.15" y1="284.47" x2="168.11" y2="248.04"/>
  <path class="st1" d="M319.73,255.37c-1.45.14-2.91.21-4.4.21-25.57,0-46.3-20.73-46.3-46.3s20.73-46.3,46.3-46.3,46.3,20.73,46.3,46.3c0,3.92-.49,7.72-1.4,11.35"/>
  <path class="st2" d="M309.57,237.25c-13.01-2.66-22.8-14.17-22.8-27.97,0-15.77,12.78-28.55,28.55-28.55s28.55,12.78,28.55,28.55"/>
  <path class="st1" d="M317.37,215.44l26.4,79.7c.73,2.22,3.82,2.35,4.74.2l13.12-30.61,31.05-7.61c2.24-.55,2.65-3.57.62-4.68l-72.3-40.02c-2.02-1.12-4.36.83-3.64,3.02Z"/>
  <path class="st4" d="M352.55,252.53l13.61-3.33c.98-.24,1.16-1.56.27-2.05l-31.69-17.54c-.89-.49-1.91.36-1.59,1.32l11.57,34.93c.32.97,1.67,1.03,2.08.09l5.75-13.42"/>
</svg>