<svg width="102" height="33" viewBox="0 0 102 33" fill="none" xmlns="http://www.w3.org/2000/svg">
<rect x="1" y="1" width="100" height="31" rx="15.5" stroke="white" stroke-width="2"/>
<path d="M35.8772 17.0078H32.9553L32.9397 15.3984H35.3928C35.8251 15.3984 36.1793 15.3438 36.4553 15.2344C36.7314 15.1198 36.9371 14.9557 37.0725 14.7422C37.2131 14.5234 37.2834 14.2578 37.2834 13.9453C37.2834 13.5911 37.2157 13.3047 37.0803 13.0859C36.9501 12.8672 36.7444 12.7083 36.4631 12.6094C36.1871 12.5104 35.8303 12.4609 35.3928 12.4609H33.7678V22H31.4241V10.625H35.3928C36.0543 10.625 36.6454 10.6875 37.1663 10.8125C37.6923 10.9375 38.1376 11.1276 38.5022 11.3828C38.8668 11.638 39.1454 11.9609 39.3381 12.3516C39.5308 12.737 39.6272 13.1953 39.6272 13.7266C39.6272 14.1953 39.5204 14.6276 39.3069 15.0234C39.0985 15.4193 38.7678 15.7422 38.3147 15.9922C37.8668 16.2422 37.2808 16.3802 36.5569 16.4062L35.8772 17.0078ZM35.7756 22H32.3147L33.2288 20.1719H35.7756C36.1871 20.1719 36.523 20.1068 36.7834 19.9766C37.0439 19.8411 37.2366 19.6589 37.3616 19.4297C37.4866 19.2005 37.5491 18.9375 37.5491 18.6406C37.5491 18.3073 37.4918 18.0182 37.3772 17.7734C37.2678 17.5286 37.0907 17.3411 36.8459 17.2109C36.6011 17.0755 36.2782 17.0078 35.8772 17.0078H33.6194L33.635 15.3984H36.4475L36.9866 16.0312C37.6793 16.0208 38.2366 16.1432 38.6584 16.3984C39.0855 16.6484 39.3954 16.974 39.5881 17.375C39.786 17.776 39.885 18.2057 39.885 18.6641C39.885 19.3932 39.7261 20.0078 39.4084 20.5078C39.0907 21.0026 38.6246 21.375 38.01 21.625C37.4006 21.875 36.6558 22 35.7756 22ZM49.9356 20.1719V22H43.8809V20.1719H49.9356ZM44.6466 10.625V22H42.3028V10.625H44.6466ZM49.1466 15.2578V17.0391H43.8809V15.2578H49.1466ZM49.9278 10.625V12.4609H43.8809V10.625H49.9278ZM57.205 10.625V22H54.8691V10.625H57.205ZM60.705 10.625V12.4609H51.4237V10.625H60.705ZM66.4822 12.5703L63.3884 22H60.8962L65.1228 10.625H66.7087L66.4822 12.5703ZM69.0525 22L65.9509 12.5703L65.7009 10.625H67.3025L71.5525 22H69.0525ZM68.9119 17.7656V19.6016H62.9041V17.7656H68.9119Z" fill="white"/>
<rect x="1" y="1" width="100" height="31" rx="15.5" stroke="white" stroke-width="2"/>
<path d="M35.8772 17.0078H32.9553L32.9397 15.3984H35.3928C35.8251 15.3984 36.1793 15.3438 36.4553 15.2344C36.7314 15.1198 36.9371 14.9557 37.0725 14.7422C37.2131 14.5234 37.2834 14.2578 37.2834 13.9453C37.2834 13.5911 37.2157 13.3047 37.0803 13.0859C36.9501 12.8672 36.7444 12.7083 36.4631 12.6094C36.1871 12.5104 35.8303 12.4609 35.3928 12.4609H33.7678V22H31.4241V10.625H35.3928C36.0543 10.625 36.6454 10.6875 37.1663 10.8125C37.6923 10.9375 38.1376 11.1276 38.5022 11.3828C38.8668 11.638 39.1454 11.9609 39.3381 12.3516C39.5308 12.737 39.6272 13.1953 39.6272 13.7266C39.6272 14.1953 39.5204 14.6276 39.3069 15.0234C39.0985 15.4193 38.7678 15.7422 38.3147 15.9922C37.8668 16.2422 37.2808 16.3802 36.5569 16.4062L35.8772 17.0078ZM35.7756 22H32.3147L33.2288 20.1719H35.7756C36.1871 20.1719 36.523 20.1068 36.7834 19.9766C37.0439 19.8411 37.2366 19.6589 37.3616 19.4297C37.4866 19.2005 37.5491 18.9375 37.5491 18.6406C37.5491 18.3073 37.4918 18.0182 37.3772 17.7734C37.2678 17.5286 37.0907 17.3411 36.8459 17.2109C36.6011 17.0755 36.2782 17.0078 35.8772 17.0078H33.6194L33.635 15.3984H36.4475L36.9866 16.0312C37.6793 16.0208 38.2366 16.1432 38.6584 16.3984C39.0855 16.6484 39.3954 16.974 39.5881 17.375C39.786 17.776 39.885 18.2057 39.885 18.6641C39.885 19.3932 39.7261 20.0078 39.4084 20.5078C39.0907 21.0026 38.6246 21.375 38.01 21.625C37.4006 21.875 36.6558 22 35.7756 22ZM49.9356 20.1719V22H43.8809V20.1719H49.9356ZM44.6466 10.625V22H42.3028V10.625H44.6466ZM49.1466 15.2578V17.0391H43.8809V15.2578H49.1466ZM49.9278 10.625V12.4609H43.8809V10.625H49.9278ZM57.205 10.625V22H54.8691V10.625H57.205ZM60.705 10.625V12.4609H51.4237V10.625H60.705ZM66.4822 12.5703L63.3884 22H60.8962L65.1228 10.625H66.7087L66.4822 12.5703ZM69.0525 22L65.9509 12.5703L65.7009 10.625H67.3025L71.5525 22H69.0525ZM68.9119 17.7656V19.6016H62.9041V17.7656H68.9119Z" fill="white"/>
</svg>
