<?xml version="1.0" encoding="UTF-8"?>
<svg id="Layer_1" data-name="Layer 1" xmlns="http://www.w3.org/2000/svg" xmlns:xlink="http://www.w3.org/1999/xlink" viewBox="0 0 1280 283.74">
  <defs>
    <style>
      .cls-1, .cls-2 {
        fill: none;
      }

      .cls-2 {
        stroke: #fff;
        stroke-miterlimit: 10;
        stroke-width: 3px;
      }

      .cls-3 {
        clip-path: url(#clippath);
      }

      .cls-4, .cls-5 {
        fill: #fff;
      }

      .cls-6 {
        clip-path: url(#clippath-1);
      }

      .cls-5 {
        fill-rule: evenodd;
      }
    </style>
    <clipPath id="clippath">
      <rect class="cls-1" x="69.2" y="67.33" width="464.55" height="149.08"/>
    </clipPath>
    <clipPath id="clippath-1">
      <rect class="cls-1" x="69.2" y="67.33" width="464.55" height="149.08"/>
    </clipPath>
  </defs>
  <g class="cls-3">
    <g class="cls-6">
      <path class="cls-5" d="m82.08,209.97h-7.38l-.88,2.03c-.29.68-.43,1.24-.43,1.68,0,.59.24,1.02.71,1.29.28.16.96.29,2.05.37v.57h-6.95v-.57c.75-.11,1.37-.42,1.85-.92.48-.51,1.08-1.57,1.79-3.16l7.47-16.67h.29l7.53,17.13c.72,1.62,1.31,2.65,1.77,3.07.35.32.84.5,1.48.55v.57h-10.11v-.57h.42c.81,0,1.38-.11,1.71-.34.23-.16.34-.4.34-.71,0-.19-.03-.37-.09-.57-.02-.09-.17-.48-.46-1.16l-1.11-2.6Zm-.52-1.14l-3.11-7.19-3.2,7.19h6.32Z"/>
      <path class="cls-4" d="m98.06,201.52v1.86c.74-.8,1.45-1.38,2.13-1.74.68-.37,1.41-.55,2.19-.55.93,0,1.71.26,2.33.79.62.51,1.03,1.16,1.23,1.93.16.59.25,1.71.25,3.37v5.61c0,1.11.1,1.8.29,2.08.21.27.63.44,1.26.51v.55h-7.29v-.55c.54-.07.93-.3,1.17-.68.16-.26.25-.89.25-1.91v-6.41c0-1.18-.05-1.93-.14-2.23-.09-.31-.25-.54-.48-.71-.22-.17-.46-.26-.72-.26-.88,0-1.71.63-2.47,1.9v7.72c0,1.08.1,1.76.29,2.05.21.29.58.47,1.12.54v.55h-7.29v-.55c.61-.06,1.04-.26,1.29-.59.17-.23.26-.89.26-2v-8.13c0-1.09-.1-1.77-.31-2.03-.2-.27-.61-.44-1.25-.52v-.57h5.87Z"/>
      <path class="cls-5" d="m128.09,209.97h-7.38l-.88,2.03c-.29.68-.43,1.24-.43,1.68,0,.59.24,1.02.71,1.29.28.16.96.29,2.05.37v.57h-6.95v-.57c.75-.11,1.37-.42,1.85-.92.48-.51,1.08-1.57,1.79-3.16l7.47-16.67h.29l7.53,17.13c.72,1.62,1.31,2.65,1.77,3.07.35.32.84.5,1.48.55v.57h-10.11v-.57h.42c.81,0,1.38-.11,1.71-.34.23-.16.34-.4.34-.71,0-.19-.03-.37-.09-.57-.02-.09-.17-.48-.46-1.16l-1.11-2.6Zm-.52-1.14l-3.11-7.19-3.2,7.19h6.32Z"/>
      <path class="cls-4" d="m150.2,201.52v11.28c0,1.1.1,1.79.31,2.06.2.27.62.44,1.25.51v.55h-5.87v-1.93c-.69.82-1.38,1.42-2.07,1.8-.69.37-1.46.55-2.31.55s-1.54-.25-2.17-.74c-.63-.5-1.05-1.09-1.26-1.76-.22-.67-.32-1.83-.32-3.5v-5.71c0-1.09-.1-1.77-.31-2.03-.2-.27-.61-.44-1.25-.52v-.57h5.87v9.84c0,1.03.05,1.69.14,1.99.1.3.26.52.46.68.22.15.46.23.74.23.37,0,.7-.1,1-.29.41-.27.9-.81,1.48-1.62v-7.7c0-1.09-.1-1.77-.31-2.03-.2-.27-.61-.44-1.25-.52v-.57h5.87Z"/>
      <path class="cls-4" d="m161.84,201.11l.23,4.91h-.52c-.63-1.46-1.28-2.45-1.96-2.99-.67-.53-1.33-.8-2-.8-.42,0-.78.14-1.08.43-.3.28-.45.6-.45.97,0,.28.1.54.31.8.33.42,1.25,1.15,2.76,2.17,1.51,1.02,2.5,1.88,2.97,2.6.48.71.72,1.51.72,2.39,0,.8-.2,1.59-.6,2.36-.4.77-.97,1.36-1.69,1.77s-1.54.62-2.42.62c-.69,0-1.61-.22-2.76-.65-.31-.11-.52-.17-.63-.17-.34,0-.62.26-.85.77h-.51l-.25-5.18h.52c.46,1.36,1.09,2.37,1.9,3.05.81.68,1.58,1.02,2.29,1.02.49,0,.89-.15,1.2-.45.32-.31.48-.68.48-1.11,0-.49-.15-.92-.46-1.28-.31-.36-1-.9-2.07-1.63-1.57-1.09-2.59-1.92-3.05-2.5-.68-.84-1.02-1.77-1.02-2.79,0-1.11.38-2.11,1.14-3,.77-.9,1.88-1.36,3.33-1.36.78,0,1.53.19,2.26.57.28.15.5.23.68.23s.33-.04.45-.11c.11-.08.29-.3.54-.66h.52Z"/>
      <path class="cls-4" d="m169.46,196.25v5.27h3.42v1.52h-3.42v8.89c0,.83.04,1.37.11,1.62.08.24.22.43.42.59.19.14.38.22.54.22.67,0,1.3-.51,1.9-1.52l.46.34c-.83,1.97-2.18,2.96-4.05,2.96-.91,0-1.69-.25-2.33-.76-.63-.51-1.03-1.08-1.2-1.71-.1-.35-.15-1.29-.15-2.83v-7.78h-1.88v-.54c1.29-.91,2.39-1.88,3.3-2.88.91-1.01,1.71-2.13,2.39-3.37h.51Z"/>
      <path class="cls-4" d="m179.92,201.52v3.27c.95-1.49,1.79-2.47,2.51-2.96.72-.49,1.41-.74,2.08-.74.57,0,1.03.18,1.37.54.35.35.52.85.52,1.49,0,.69-.17,1.22-.51,1.6-.33.38-.73.57-1.2.57-.54,0-1.02-.17-1.42-.52-.4-.35-.64-.54-.71-.59-.1-.06-.22-.09-.35-.09-.3,0-.58.11-.85.34-.42.35-.74.85-.95,1.49-.33,1-.49,2.09-.49,3.3v3.31l.02.86c0,.59.04.96.11,1.12.12.28.3.48.54.62.25.12.66.2,1.23.23v.55h-7.78v-.55c.63-.05,1.05-.22,1.26-.51.23-.3.34-1.07.34-2.33v-7.96c0-.82-.04-1.34-.12-1.57-.1-.29-.25-.5-.45-.63-.19-.13-.54-.23-1.03-.28v-.57h5.88Z"/>
      <path class="cls-5" d="m194.31,213.79c-1.76,1.55-3.33,2.33-4.73,2.33-.82,0-1.5-.27-2.05-.8-.54-.54-.82-1.22-.82-2.03,0-1.1.47-2.09,1.42-2.96.94-.88,3-2.05,6.18-3.51v-1.45c0-1.09-.06-1.77-.19-2.05-.11-.29-.33-.53-.66-.74-.33-.22-.7-.32-1.11-.32-.67,0-1.22.15-1.65.45-.27.18-.4.4-.4.65,0,.22.14.48.43.8.39.44.59.87.59,1.28,0,.5-.19.94-.57,1.29-.37.35-.86.52-1.46.52-.65,0-1.19-.19-1.63-.58-.43-.39-.65-.85-.65-1.37,0-.74.29-1.44.88-2.11.58-.68,1.4-1.2,2.45-1.56,1.05-.36,2.14-.54,3.27-.54,1.37,0,2.44.29,3.23.88.8.57,1.32,1.2,1.56,1.88.14.43.22,1.42.22,2.97v5.59c0,.66.03,1.07.08,1.25.05.16.13.29.23.37.1.08.22.12.35.12.27,0,.54-.19.82-.57l.46.37c-.51.76-1.05,1.31-1.6,1.66-.54.34-1.17.51-1.86.51-.82,0-1.46-.19-1.93-.57-.46-.39-.74-.98-.85-1.76m0-1.12v-4.82c-1.24.73-2.17,1.51-2.77,2.34-.4.56-.6,1.11-.6,1.68,0,.47.17.89.51,1.25.26.28.62.42,1.08.42.51,0,1.11-.29,1.79-.86"/>
      <path class="cls-4" d="m206.83,195.03v17.9c0,1.02.12,1.67.35,1.96.24.28.7.44,1.39.48v.55h-7.78v-.55c.64-.02,1.11-.21,1.42-.56.2-.24.31-.86.31-1.88v-14.91c0-1.01-.12-1.65-.35-1.93-.24-.29-.69-.45-1.37-.49v-.57h6.04Z"/>
      <path class="cls-5" d="m213.42,194.54c.67,0,1.23.24,1.7.71.46.46.69,1.02.69,1.68s-.24,1.22-.71,1.68c-.46.46-1.02.69-1.68.69s-1.22-.23-1.68-.69c-.46-.46-.69-1.02-.69-1.68s.23-1.22.69-1.68c.46-.47,1.02-.71,1.68-.71m2.16,6.98v11.42c0,1.02.12,1.67.35,1.96.24.28.7.44,1.39.48v.55h-7.78v-.55c.64-.02,1.11-.21,1.42-.55.21-.24.31-.86.31-1.88v-8.41c0-1.02-.12-1.66-.35-1.94-.24-.29-.69-.45-1.37-.49v-.57h6.04Z"/>
      <path class="cls-5" d="m225.73,213.79c-1.76,1.55-3.33,2.33-4.73,2.33-.82,0-1.5-.27-2.05-.8-.54-.54-.82-1.22-.82-2.03,0-1.1.47-2.09,1.42-2.96.94-.88,3-2.05,6.18-3.51v-1.45c0-1.09-.06-1.77-.18-2.05-.11-.29-.33-.53-.66-.74-.33-.22-.7-.32-1.11-.32-.67,0-1.22.15-1.65.45-.27.18-.4.4-.4.65,0,.22.14.48.43.8.39.44.59.87.59,1.28,0,.5-.19.94-.57,1.29-.37.35-.86.52-1.46.52-.65,0-1.19-.19-1.63-.58-.43-.39-.65-.85-.65-1.37,0-.74.29-1.44.88-2.11.58-.68,1.4-1.2,2.45-1.56,1.05-.36,2.14-.54,3.27-.54,1.37,0,2.44.29,3.23.88.8.57,1.32,1.2,1.56,1.88.14.43.22,1.42.22,2.97v5.59c0,.66.03,1.07.08,1.25.05.16.13.29.23.37.1.08.22.12.35.12.27,0,.54-.19.82-.57l.46.37c-.51.76-1.05,1.31-1.6,1.66-.54.34-1.17.51-1.86.51-.82,0-1.46-.19-1.93-.57-.46-.39-.74-.98-.85-1.76m0-1.12v-4.82c-1.24.73-2.17,1.51-2.77,2.34-.4.56-.6,1.11-.6,1.68,0,.47.17.89.51,1.25.26.28.62.42,1.08.42.51,0,1.11-.29,1.79-.86"/>
      <path class="cls-4" d="m238.17,201.52v1.86c.74-.8,1.45-1.38,2.13-1.74.68-.37,1.41-.55,2.19-.55.93,0,1.71.26,2.33.79.62.51,1.03,1.16,1.23,1.93.16.59.25,1.71.25,3.37v5.61c0,1.11.1,1.8.29,2.08.21.27.63.44,1.26.51v.55h-7.29v-.55c.54-.07.93-.3,1.17-.68.16-.26.24-.89.25-1.91v-6.41c0-1.18-.05-1.93-.14-2.23-.09-.31-.25-.54-.48-.71-.22-.17-.46-.26-.72-.26-.88,0-1.71.63-2.47,1.9v7.72c0,1.08.1,1.76.29,2.05.2.29.58.47,1.12.54v.55h-7.29v-.55c.6-.06,1.04-.26,1.29-.59.17-.23.26-.89.26-2v-8.13c0-1.09-.1-1.77-.31-2.03-.2-.27-.61-.44-1.25-.52v-.57h5.87Z"/>
      <path class="cls-4" d="m276.22,194.55v7.36h-.57c-.69-2.01-1.72-3.54-3.1-4.59-1.38-1.05-2.88-1.57-4.51-1.57s-2.86.44-3.9,1.33c-1.04.87-1.77,2.09-2.2,3.67-.43,1.57-.65,3.18-.65,4.84,0,2,.24,3.76.71,5.27.47,1.51,1.23,2.62,2.28,3.33,1.06.71,2.31,1.06,3.76,1.06.5,0,1.02-.05,1.54-.15.53-.11,1.08-.27,1.63-.48v-4.35c0-.82-.06-1.35-.17-1.59-.11-.25-.35-.47-.71-.66-.35-.19-.78-.29-1.28-.29h-.54v-.57h10.15v.57c-.77.05-1.31.16-1.62.32-.3.15-.53.42-.69.79-.09.19-.14.67-.14,1.43v4.35c-1.33.6-2.73,1.04-4.17,1.34-1.44.31-2.93.46-4.48.46-1.98,0-3.63-.27-4.95-.8-1.3-.54-2.46-1.25-3.47-2.13-1-.88-1.78-1.87-2.34-2.97-.72-1.42-1.08-3-1.08-4.76,0-3.14,1.1-5.8,3.31-7.96,2.21-2.17,4.99-3.25,8.33-3.25,1.04,0,1.97.08,2.8.25.45.08,1.18.32,2.19.71,1.02.38,1.62.57,1.8.57.29,0,.55-.1.8-.31.25-.22.47-.62.68-1.2h.57Z"/>
      <path class="cls-5" d="m286.22,201.08c1.25,0,2.42.32,3.5.97,1.08.65,1.89,1.57,2.45,2.76.57,1.19.85,2.5.85,3.91,0,2.04-.52,3.75-1.56,5.13-1.25,1.66-2.98,2.5-5.19,2.5s-3.84-.76-5.01-2.28c-1.17-1.52-1.76-3.28-1.76-5.28s.6-3.86,1.79-5.39c1.2-1.54,2.85-2.31,4.93-2.31m.06,1.09c-.52,0-.98.2-1.36.6-.37.39-.62,1.17-.74,2.34-.11,1.16-.17,2.78-.17,4.85,0,1.1.07,2.13.22,3.08.11.73.35,1.28.72,1.66.37.38.79.57,1.26.57s.85-.13,1.16-.38c.4-.35.67-.84.8-1.46.2-.98.31-2.95.31-5.92,0-1.74-.1-2.94-.29-3.59-.2-.66-.48-1.14-.86-1.43-.27-.22-.62-.32-1.05-.32"/>
      <path class="cls-4" d="m299.81,216.35l-4.85-11.17c-.58-1.34-1.04-2.2-1.37-2.56-.24-.27-.59-.45-1.05-.54v-.57h7.66v.57c-.48,0-.81.09-.99.26-.25.23-.37.49-.37.8,0,.38.23,1.09.68,2.14l2.37,5.41,1.9-4.67c.54-1.33.82-2.28.82-2.83,0-.32-.12-.57-.35-.77-.23-.21-.63-.32-1.22-.34v-.57h4.71v.57c-.45.06-.82.23-1.11.51-.29.28-.72,1.09-1.29,2.45l-4.81,11.31h-.72Z"/>
      <path class="cls-5" d="m319.07,208.2h-7.9c.09,1.91.6,3.42,1.52,4.53.71.85,1.56,1.28,2.56,1.28.62,0,1.18-.17,1.68-.51.5-.35,1.04-.97,1.62-1.86l.52.34c-.78,1.59-1.64,2.72-2.59,3.39-.94.66-2.04.98-3.28.99-2.14,0-3.75-.82-4.85-2.47-.88-1.32-1.32-2.97-1.32-4.93,0-2.4.65-4.31,1.94-5.73,1.3-1.43,2.83-2.14,4.57-2.14,1.46,0,2.72.6,3.79,1.8,1.08,1.19,1.66,2.96,1.74,5.32m-3.79-1.03c0-1.65-.09-2.79-.28-3.4-.17-.62-.45-1.08-.83-1.4-.22-.19-.5-.28-.86-.28-.53,0-.97.26-1.31.79-.61.92-.91,2.17-.91,3.76v.54h4.19Z"/>
      <path class="cls-4" d="m325.91,201.52v3.27c.95-1.49,1.79-2.47,2.51-2.96.72-.49,1.41-.74,2.08-.74.57,0,1.03.18,1.37.54.35.35.52.85.52,1.49,0,.69-.17,1.22-.51,1.6-.33.38-.73.57-1.2.57-.54,0-1.02-.17-1.42-.52-.4-.35-.64-.54-.71-.59-.1-.06-.22-.09-.35-.09-.3,0-.58.11-.85.34-.42.35-.74.85-.96,1.49-.33,1-.49,2.09-.49,3.3v3.31l.02.86c0,.59.04.96.11,1.12.12.28.3.48.54.62.25.12.66.2,1.23.23v.55h-7.78v-.55c.63-.05,1.05-.22,1.26-.51.23-.3.34-1.07.34-2.33v-7.96c0-.82-.04-1.34-.12-1.57-.1-.29-.25-.5-.45-.63-.19-.13-.54-.23-1.03-.28v-.57h5.88Z"/>
      <path class="cls-4" d="m339.19,201.52v1.86c.74-.8,1.45-1.38,2.13-1.74.68-.37,1.41-.55,2.19-.55.93,0,1.71.26,2.33.79.62.51,1.03,1.16,1.23,1.93.16.59.25,1.71.25,3.37v5.61c0,1.11.1,1.8.29,2.08.21.27.63.44,1.26.51v.55h-7.29v-.55c.54-.07.93-.3,1.17-.68.16-.26.25-.89.25-1.91v-6.41c0-1.18-.05-1.93-.14-2.23-.09-.31-.25-.54-.48-.71-.22-.17-.46-.26-.72-.26-.88,0-1.71.63-2.47,1.9v7.72c0,1.08.1,1.76.29,2.05.2.29.58.47,1.12.54v.55h-7.29v-.55c.61-.06,1.04-.26,1.29-.59.17-.23.26-.89.26-2v-8.13c0-1.09-.1-1.77-.31-2.03-.2-.27-.61-.44-1.25-.52v-.57h5.87Z"/>
      <path class="cls-4" d="m355.88,201.52v1.9c.79-.86,1.52-1.46,2.19-1.8.68-.35,1.42-.52,2.22-.52.92,0,1.7.22,2.33.65.63.43,1.11,1.09,1.45,1.97.82-.92,1.61-1.59,2.36-2,.76-.41,1.55-.62,2.37-.62,1,0,1.79.23,2.37.69.6.45,1.01,1.03,1.23,1.74.24.7.35,1.82.35,3.36v5.9c0,1.11.1,1.8.29,2.06.21.27.63.44,1.26.52v.55h-7.44v-.55c.59-.05,1.02-.28,1.29-.68.19-.28.28-.91.28-1.91v-6.19c0-1.28-.05-2.1-.15-2.45-.1-.35-.27-.6-.49-.77-.22-.17-.47-.26-.77-.26-.44,0-.89.16-1.34.49-.45.32-.91.8-1.37,1.45v7.73c0,1.04.09,1.69.26,1.96.24.38.69.59,1.36.63v.55h-7.46v-.55c.4-.02.71-.12.94-.29.24-.19.39-.4.46-.65.08-.26.12-.81.12-1.65v-6.19c0-1.3-.05-2.12-.15-2.45-.1-.33-.28-.58-.52-.77-.24-.19-.49-.28-.77-.28-.41,0-.79.11-1.12.32-.48.32-1,.86-1.54,1.63v7.73c0,1.02.1,1.69.29,2.02.2.32.63.51,1.26.57v.55h-7.42v-.55c.6-.06,1.04-.26,1.29-.59.17-.23.26-.89.26-2v-8.13c0-1.09-.1-1.77-.31-2.03-.2-.27-.61-.44-1.25-.52v-.57h5.87Z"/>
      <path class="cls-5" d="m387.12,208.2h-7.9c.09,1.91.6,3.42,1.52,4.53.71.85,1.56,1.28,2.56,1.28.62,0,1.18-.17,1.68-.51.5-.35,1.04-.97,1.62-1.86l.52.34c-.78,1.59-1.64,2.72-2.59,3.39-.95.66-2.04.98-3.28.99-2.14,0-3.75-.82-4.85-2.47-.88-1.32-1.32-2.97-1.32-4.93,0-2.4.65-4.31,1.94-5.73,1.3-1.43,2.83-2.14,4.57-2.14,1.46,0,2.72.6,3.79,1.8,1.08,1.19,1.66,2.96,1.74,5.32m-3.79-1.03c0-1.65-.09-2.79-.28-3.4-.17-.62-.45-1.08-.83-1.4-.22-.19-.5-.28-.86-.28-.53,0-.97.26-1.31.79-.61.92-.91,2.17-.91,3.76v.54h4.19Z"/>
      <path class="cls-4" d="m393.54,201.52v1.86c.74-.8,1.45-1.38,2.13-1.74.68-.37,1.41-.55,2.19-.55.93,0,1.71.26,2.33.79.62.51,1.03,1.16,1.23,1.93.16.59.25,1.71.25,3.37v5.61c0,1.11.1,1.8.29,2.08.21.27.63.44,1.26.51v.55h-7.29v-.55c.54-.07.93-.3,1.17-.68.16-.26.25-.89.25-1.91v-6.41c0-1.18-.05-1.93-.14-2.23-.09-.31-.25-.54-.48-.71-.22-.17-.46-.26-.72-.26-.88,0-1.71.63-2.47,1.9v7.72c0,1.08.1,1.76.29,2.05.21.29.58.47,1.12.54v.55h-7.29v-.55c.6-.06,1.04-.26,1.29-.59.17-.23.26-.89.26-2v-8.13c0-1.09-.1-1.77-.31-2.03-.2-.27-.61-.44-1.25-.52v-.57h5.87Z"/>
      <path class="cls-4" d="m409.34,196.25v5.27h3.42v1.52h-3.42v8.89c0,.83.04,1.37.11,1.62.08.24.22.43.42.59.19.14.37.22.54.22.67,0,1.3-.51,1.9-1.52l.46.34c-.83,1.97-2.18,2.96-4.05,2.96-.92,0-1.69-.25-2.33-.76-.63-.51-1.03-1.08-1.2-1.71-.1-.35-.15-1.29-.15-2.83v-7.78h-1.88v-.54c1.29-.91,2.39-1.88,3.3-2.88.91-1.01,1.71-2.13,2.39-3.37h.51Z"/>
      <path class="cls-4" d="m430.3,215.35v.57h-10.92v-.57h.69c.61,0,1.09-.11,1.46-.32.27-.14.47-.39.62-.74.11-.25.17-.89.17-1.94v-13.74c0-1.07-.06-1.74-.17-2-.11-.27-.34-.5-.69-.69-.34-.21-.8-.31-1.39-.31h-.69v-.57h10.92v.57h-.69c-.61,0-1.09.11-1.46.32-.27.14-.48.39-.63.74-.11.25-.17.89-.17,1.94v13.74c0,1.07.06,1.74.17,2,.12.27.35.5.69.71.35.2.82.29,1.4.29h.69Z"/>
      <path class="cls-4" d="m437.35,201.52v1.86c.74-.8,1.45-1.38,2.13-1.74.68-.37,1.41-.55,2.19-.55.93,0,1.71.26,2.33.79.62.51,1.03,1.16,1.23,1.93.16.59.25,1.71.25,3.37v5.61c0,1.11.1,1.8.29,2.08.21.27.63.44,1.26.51v.55h-7.29v-.55c.54-.07.93-.3,1.17-.68.16-.26.25-.89.25-1.91v-6.41c0-1.18-.05-1.93-.14-2.23-.09-.31-.25-.54-.48-.71-.22-.17-.46-.26-.72-.26-.88,0-1.71.63-2.47,1.9v7.72c0,1.08.1,1.76.29,2.05.21.29.58.47,1.12.54v.55h-7.29v-.55c.6-.06,1.04-.26,1.29-.59.17-.23.26-.89.26-2v-8.13c0-1.09-.1-1.77-.31-2.03-.2-.27-.61-.44-1.25-.52v-.57h5.87Z"/>
      <path class="cls-5" d="m451.84,194.54c.67,0,1.23.24,1.69.71.46.46.69,1.02.69,1.68s-.24,1.22-.71,1.68c-.46.46-1.02.69-1.68.69s-1.22-.23-1.68-.69c-.46-.46-.69-1.02-.69-1.68s.23-1.22.69-1.68c.46-.47,1.02-.71,1.68-.71m2.16,6.98v11.42c0,1.02.12,1.67.35,1.96.24.28.7.44,1.39.48v.55h-7.78v-.55c.64-.02,1.11-.21,1.42-.55.21-.24.31-.86.31-1.88v-8.41c0-1.02-.12-1.66-.35-1.94-.24-.29-.69-.45-1.37-.49v-.57h6.04Z"/>
      <path class="cls-4" d="m462.23,196.25v5.27h3.42v1.52h-3.42v8.89c0,.83.04,1.37.11,1.62.08.24.22.43.42.59.19.14.38.22.54.22.67,0,1.3-.51,1.9-1.52l.46.34c-.83,1.97-2.18,2.96-4.05,2.96-.91,0-1.69-.25-2.33-.76-.63-.51-1.03-1.08-1.2-1.71-.1-.35-.15-1.29-.15-2.83v-7.78h-1.88v-.54c1.29-.91,2.39-1.88,3.3-2.88.91-1.01,1.71-2.13,2.39-3.37h.51Z"/>
      <path class="cls-5" d="m470.48,194.54c.67,0,1.23.24,1.69.71.46.46.69,1.02.69,1.68s-.24,1.22-.71,1.68c-.46.46-1.02.69-1.68.69s-1.22-.23-1.68-.69c-.46-.46-.69-1.02-.69-1.68s.23-1.22.69-1.68c.46-.47,1.02-.71,1.68-.71m2.16,6.98v11.42c0,1.02.12,1.67.35,1.96.24.28.7.44,1.39.48v.55h-7.78v-.55c.64-.02,1.11-.21,1.42-.55.2-.24.31-.86.31-1.88v-8.41c0-1.02-.12-1.66-.35-1.94-.24-.29-.69-.45-1.37-.49v-.57h6.04Z"/>
      <path class="cls-5" d="m483.42,213.79c-1.76,1.55-3.33,2.33-4.73,2.33-.82,0-1.5-.27-2.05-.8-.54-.54-.82-1.22-.82-2.03,0-1.1.47-2.09,1.42-2.96.94-.88,3-2.05,6.18-3.51v-1.45c0-1.09-.06-1.77-.19-2.05-.11-.29-.33-.53-.66-.74-.33-.22-.7-.32-1.11-.32-.67,0-1.22.15-1.65.45-.27.18-.4.4-.4.65,0,.22.14.48.43.8.39.44.59.87.59,1.28,0,.5-.19.94-.57,1.29-.37.35-.86.52-1.46.52-.65,0-1.19-.19-1.63-.58-.43-.39-.65-.85-.65-1.37,0-.74.29-1.44.88-2.11.59-.68,1.4-1.2,2.45-1.56,1.05-.36,2.14-.54,3.27-.54,1.37,0,2.44.29,3.23.88.8.57,1.32,1.2,1.56,1.88.14.43.22,1.42.22,2.97v5.59c0,.66.03,1.07.08,1.25.05.16.13.29.23.37.1.08.22.12.35.12.27,0,.54-.19.82-.57l.46.37c-.51.76-1.05,1.31-1.6,1.66-.54.34-1.17.51-1.86.51-.82,0-1.46-.19-1.93-.57-.46-.39-.74-.98-.85-1.76m0-1.12v-4.82c-1.24.73-2.17,1.51-2.77,2.34-.4.56-.6,1.11-.6,1.68,0,.47.17.89.51,1.25.26.28.62.42,1.08.42.51,0,1.11-.29,1.79-.86"/>
      <path class="cls-4" d="m495.7,196.25v5.27h3.42v1.52h-3.42v8.89c0,.83.04,1.37.11,1.62.08.24.22.43.42.59.19.14.37.22.54.22.67,0,1.3-.51,1.89-1.52l.46.34c-.83,1.97-2.18,2.96-4.05,2.96-.91,0-1.69-.25-2.33-.76-.63-.51-1.03-1.08-1.2-1.71-.1-.35-.15-1.29-.15-2.83v-7.78h-1.88v-.54c1.29-.91,2.39-1.88,3.3-2.88.91-1.01,1.71-2.13,2.39-3.37h.51Z"/>
      <path class="cls-5" d="m503.95,194.54c.67,0,1.23.24,1.69.71.46.46.69,1.02.69,1.68s-.24,1.22-.71,1.68c-.46.46-1.02.69-1.68.69s-1.22-.23-1.68-.69c-.46-.46-.69-1.02-.69-1.68s.23-1.22.69-1.68c.46-.47,1.02-.71,1.68-.71m2.16,6.98v11.42c0,1.02.12,1.67.35,1.96.24.28.7.44,1.39.48v.55h-7.78v-.55c.64-.02,1.11-.21,1.42-.55.21-.24.31-.86.31-1.88v-8.41c0-1.02-.12-1.66-.35-1.94-.24-.29-.69-.45-1.37-.49v-.57h6.04Z"/>
      <path class="cls-4" d="m514.81,216.35l-4.85-11.17c-.58-1.34-1.04-2.2-1.37-2.56-.24-.27-.58-.45-1.05-.54v-.57h7.66v.57c-.48,0-.81.09-.99.26-.25.23-.37.49-.37.8,0,.38.23,1.09.68,2.14l2.37,5.41,1.89-4.67c.54-1.33.82-2.28.82-2.83,0-.32-.12-.57-.35-.77-.23-.21-.63-.32-1.22-.34v-.57h4.71v.57c-.45.06-.82.23-1.11.51-.29.28-.72,1.09-1.29,2.45l-4.81,11.31h-.72Z"/>
      <path class="cls-5" d="m533.76,208.2h-7.9c.09,1.91.6,3.42,1.52,4.53.71.85,1.56,1.28,2.56,1.28.62,0,1.18-.17,1.68-.51.5-.35,1.04-.97,1.62-1.86l.52.34c-.78,1.59-1.64,2.72-2.59,3.39-.94.66-2.04.98-3.28.99-2.14,0-3.75-.82-4.85-2.47-.88-1.32-1.32-2.97-1.32-4.93,0-2.4.65-4.31,1.94-5.73,1.3-1.43,2.83-2.14,4.57-2.14,1.46,0,2.72.6,3.79,1.8,1.08,1.19,1.66,2.96,1.74,5.32m-3.79-1.03c0-1.65-.09-2.79-.28-3.4-.17-.62-.45-1.08-.83-1.4-.22-.19-.5-.28-.86-.28-.53,0-.97.26-1.31.79-.61.92-.91,2.17-.91,3.76v.54h4.19Z"/>
      <path class="cls-4" d="m277.07,157.85c-.1.17-.23.31-.4.4"/>
      <path class="cls-4" d="m280.68,129.64c.42,0,.75-.34.75-.76s-.34-.76-.75-.76-.75.34-.75.76.34.76.75.76"/>
      <path class="cls-4" d="m315.63,97.78h0s-27.18-.01-27.18-.01h0s0,.01,0,.01l.02,21.95c0,2.12.9,3.97,2.14,4.54l10.45,6.24c.23.26.57.43.95.43.33,0,.63-.13.85-.33l10.61-6.34c1.24-.57,2.14-2.42,2.14-4.54l.02-21.95h0Zm-18.15,6.35h-2.35v-5.62h2.35v5.62Zm-1.71,1.96l.33-.35-.21-.38.44.05.26-.46.26.46.44-.04-.21.38.33.35-.43.08v.48l-.41-.3-.4.3v-.48l-.43-.08Zm-6.56,1.66h2.85v5.33h-2.85v-5.33Zm.47-2.39l.44.05.27-.46.26.46.44-.04-.21.38.33.35-.43.08v.48l-.4-.3-.4.3v-.48l-.43-.08.33-.35-.21-.38Zm3.22,5.42l.44.05.26-.46.26.46.45-.04-.21.38.33.35-.43.08v.48l-.4-.3-.4.3v-.48l-.43-.08.33-.35-.21-.38Zm1.89-4.29c-.02-.14-.21-.18-.29-.18-.25,0-.36.42-.57.43-.16,0-.27.02-.27-.17,0-.14.32-.25.45-.38-1.76,0-1.8.81-2.07.81-.46,0,.39-.85.63-1.1-.36-.06-.56-.5-.95-.72.18-.26.29-.15.52.04,0-.19.14-.4.55-.4.79,0,.57.76.69.76s0-.76.52-.76c.78,0,1.76,2.01.87,2.01-.38,0-.07-.29-.08-.34m-2.02-5.87l.33-.35-.21-.38.44.05.26-.46.26.46.45-.04-.21.38.33.35-.43.08v.48l-.4-.3-.4.3v-.48l-.43-.08Zm-.71,3.51h-2.85v-5.62h2.85v5.62Zm5.41,23.38l-6.5-3.89c-1.09-.74-1.62-2.05-1.76-3.62v-6.18h8.27v13.68Zm-2.35-19.76h2.35v5.33h-2.35v-5.33Zm10.72,20.2l-3,1.79h-.05c-.22.17-.49.28-.79.28s-.58-.11-.8-.29l-2.99-1.78v-14.13h7.64v14.13Zm0-14.87h-7.64v-14.57h7.64v14.57Zm9.01,6.92c-.14,1.57-.68,2.88-1.76,3.62l-6.5,3.89v-13.68h8.27v6.18Zm0-6.92h-8.27v-14.57h8.27v14.57Z"/>
      <path class="cls-4" d="m297.04,118.86c-.04-.09-1.04.33-.75.3.03-.29.58-.89.83-1.11-.05-.35-.49-.03-.96.21,1.55-2.22.55-1.31-.31-1.15,1.38-1.49,1.02-1.46,0-1,.8-.64.97-1.39.85-1.61-.75,1-1.44.84-1.44,1.77,0,.61-.22,1.61-.53,1.95-.4.44-.09-1.64-1.15-1.64-.34,0-1.14-.03-1.38.39.22,0,.54.55.54.77s.2.82-.16.82-.78-.76-.78-1.13-.02-.28-.02-.8c0-.88-1.43-2.11-2.01-2.11,0,.61.8.76.8,1.54-.34,0-.82-.63-.82-.24s.51.46.51.81-.58-.12-.58.24c0,.32.32.27.39.58-.24-.07-.45-.04-.49.08-.04.11.07.24.25.34-.08.08-.15.26-.15.77,0,1.73,1.09,2.54,1.89,2.54.57,0,.48-.4.55-.59.02.29.3-.15.3.37s-.55.3-.55.76c0,.62.87-.02.87.66,0,.83-.1.81-.1,1.13,0,.22.91-.3.85-.4.22.08.21.72.62.71.26-.01.32-.66.53-.72-.12.03.82.62.82.32,0-.81-.33-.46-.33-1.02,0-.51,1.12-.41.94-.67-.15-.22-.25-.08-.37-.47.02.07-.88-1.28.19-.59,1.12.73,1.25-1.7,1.19-1.83"/>
      <path class="cls-4" d="m326.04,124.6c.49,0,.89-.35.89-.79s-.4-.79-.89-.79-.89.35-.89.79.4.79.89.79"/>
      <path class="cls-4" d="m322.42,126.74c.49,0,.89-.35.89-.79s-.4-.79-.89-.79-.89.35-.89.79.4.79.89.79"/>
      <path class="cls-4" d="m279.47,131.7c.49,0,.89-.35.89-.79s-.4-.79-.89-.79-.9.35-.9.79.4.79.9.79"/>
      <path class="cls-4" d="m282.25,131.94c.49,0,.89-.35.89-.79s-.4-.79-.89-.79-.89.35-.89.79.4.79.89.79"/>
      <path class="cls-4" d="m359.59,94.45c1.33,1.58,1.61,4.11.66,5.92-.52-.05-.43-.72-.52-1.1-.95-1.77-1.71-4.01-.85-6.01.62.1.38.86.71,1.19"/>
      <path class="cls-4" d="m246.11,96.6c-.28,1.15-.28,2.72,0,3.77-.24.24-.19-.24-.43-.19-1.85-1.34-1-3.96-1.47-5.82.09-.14.33-.19.47-.09.85.57,1.23,1.38,1.42,2.34"/>
      <path class="cls-4" d="m363.66,96.75c.28.52-.24,1.05-.62,1.29-.43.1-.9-.14-1.18-.52-.14-.52.14-1,.57-1.24.47-.05.95.05,1.23.48"/>
      <path class="cls-4" d="m243.21,98.85c-.09.43-.24.86-.62,1.05-.28,0-.71,0-.9-.24-.29-.24-.33-.67-.19-1,.19-.33.57-.38.9-.43.33.14.66.24.81.62"/>
      <path class="cls-4" d="m365.51,99.66c.09.29.09.48,0,.76-.33.43-.81.62-1.28.43-.33-.19-.43-.53-.52-.81.09-.38.47-.72.81-.86.43,0,.71.24,1,.48"/>
      <path class="cls-4" d="m362.81,99.71c.38.19.1.67.05.95-.24.24-.57.62-1,.48-.24-.24-.52-.24-.62-.57,0-.48.19-.95.66-1.1.38-.1.62.1.9.24"/>
      <path class="cls-4" d="m359.35,100.42c0,.53.05,1.19-.57,1.29-.57.19-.95-.29-1.09-.67-.05-.48.23-.95.71-1.15.38,0,.71.24.95.53"/>
      <path class="cls-4" d="m248.38,100.66c.14.48-.33.76-.61,1-.33.1-.76-.19-.95-.53-.33-.33.1-.62.19-.91.47-.43,1.18-.1,1.37.43"/>
      <path class="cls-4" d="m245.54,100.8c0,.38-.19.76-.52.91-.38.14-.76-.14-.95-.43-.24-.48.05-.91.43-1.1.52-.19.85.29,1.04.62"/>
      <path class="cls-4" d="m347.88,100.99c.47,1,.85,2.2.95,3.44-.19.91.14,2.1-.52,2.72-.66-.24-.71-1.05-1.14-1.48-.85-1.67-.09-3.63.19-5.25.38-.14.38.33.52.57"/>
      <path class="cls-4" d="m243.31,101.57c.14.57-.28.86-.62,1.19-.57.14-.95-.29-1.19-.67-.05-.48.24-.95.62-1.14.48-.05.95.19,1.19.62"/>
      <path class="cls-4" d="m355.37,102.95c.62,1.39.66,3.06.24,4.58l-.28.24c-.66-1.29-1.61-2.48-1.94-3.87,0-1,.19-1.91.57-2.72.33-.24.52.05.66.33.05.52.28,1.15.76,1.43"/>
      <path class="cls-4" d="m361.34,102.09c-.05.48-.24,1-.71,1.15-.47.1-.95-.05-1.09-.57-.14-.48.14-.91.52-1.15.52-.29,1.04.19,1.28.57"/>
      <path class="cls-4" d="m245.58,103.57c0,.38-.33.81-.71.91-.38.29-.66-.19-1-.33-.14-.38-.24-.72,0-1.1.14-.29.48-.29.76-.38.43.24.85.43.95.91"/>
      <path class="cls-4" d="m247.67,103.33c.19.48-.33.72-.52.95-.57.19-.85-.24-1.09-.57-.1-.48.19-.76.52-1.05.57-.14.85.24,1.09.67"/>
      <path class="cls-4" d="m362.67,103.19c-.05.62-1,1.24-1.09,1.86-.52,1.29-1.66,2.24-2.94,2.67-.29.24-.66.57-1.09.62-.09-.95.76-1.81,1.28-2.67,1-1.29,2.37-2.1,3.84-2.48"/>
      <path class="cls-4" d="m244.64,105.2c.71.81,1.09,1.53,1.94,2.24.05.19-.1.48-.33.48-2.32-.14-3.89-2.53-5.03-4.2.14-.53.76-.1,1.09-.14.81.62,1.71.81,2.32,1.62"/>
      <path class="cls-4" d="m363.33,105.86c-.1,2.05-1.09,4.15-2.94,5.16-.52.19-1.09.72-1.61.38,1-2.05,2.51-3.72,4.17-5.54h.38Z"/>
      <path class="cls-4" d="m354.23,107.25c.14.72-.24,1.15-.81,1.39-.52.05-.85-.38-1.09-.76-.05-.48.24-.91.66-1.05.14-.14.38-.14.57-.14.29.1.43.33.66.57"/>
      <path class="cls-4" d="m242.03,107.68c.9.62,1.71,1.48,2.56,2.24-.61.43-1.37.05-2.09.05-1.61-.57-2.7-1.96-4.36-2.43.05-.53.66-.33,1-.48,1.04-.1,1.9.38,2.89.62"/>
      <path class="cls-4" d="m292.8,93.55c-2.65-1.05-4.41,1.72-7.11,1.38-.33.19-.24.53-.43.76-.14.14-.38.05-.52-.05-.14-1.15-.52-2.2-.66-3.3-.29-.48-.14-1.14-.38-1.62-1.52-4.15,3.7-1,4.74-3.44.9-2.1-1.75-2.34-2.56-3.82v-.62c-.76-.76-1.56-1-2.04-2.01.33-1.19.47-2.48.14-3.68-.05-.29-.24-.67-.66-.52-.9,1.24-1.57,2.24-2.42,3.44-.9-.67-1.75-1.53-2.8-2.1-.71-.09-1.38-.81-2.18-.52-.14.29,0,.52.14.72.05,1.86,1,3.34,2.32,4.68l.14.72c-.85,1.96-.62,4.2-.85,6.3-2.13,5.44-5.59,10.69-10.29,14.46-2.7,3.06-5.93,6.02-6.35,10.22-.14.67.1,1.48-.43,1.96-1.57-.57-3.13-1.34-4.41-2.34-2.18-1.53-5.31-1.34-6.73-4.11-.57-1.1.14-2.2.66-3.01,1.61-1.53,1.37-4.25.52-6.11-.19-.05-.24.19-.38.24-.14,2.82-2.37,4.77-1.52,7.88.19.91.66,1.48.9,2.34-.33-.1-.81-.1-1.09-.24-1.04-.14-2.09-.57-3.18-.43-2.18,1-5.16-.24-6.92,1.77-.28.05-.66.1-.57.52,1.04,0,2.04.29,3.08.24,1.66.29,2.75-1.1,3.89-1.72h.28c.47-.48,1.28-.19,1.9-.29,2.99.33,5.31,1.77,7.77,3.25v.19c-.95.43-2.04.72-2.99,1.24-1.09.81-2.32,1.86-2.65,3.2-.76,1.19.24,2.24.71,3.24.05.48.09,1.05.52,1.24,1.52-1.62.09-3.63.33-5.49.38-1.43,1.71-2.1,3.08-2.48,2.7-1.15,4.65,1.05,6.82,2.29-.05,2.2.24,4.3-.24,6.44-.66.24-1.52.38-2.23.34-3.74.29-6.68,2.34-10.05,3.48-1.52.53-3.32.48-4.83,1.05,1.18.33,2.42-.09,3.65-.14,4.65-.67,8.2-4.25,13.22-3.63l.09.14c-.57,1.19-1.33,2.2-2.23,3.1-.14-.53-.19-.95-.66-1.24-.38-.19-.81,0-1.09.38-.14.24-.14.52,0,.72.24.43.62.53,1.04.67-.1.43-.62.62-.9,1-1.33,2.24-4.03,1.34-5.59,2.91-.24.34-1.09.53-.71,1.05,1.8.19,3.56-.29,4.88-1.24,1.75-1.96,3.6-3.82,5.36-5.68.28,1.53-.14,3.1-1.04,4.34-.43-.24-.76-.57-1.28-.72-.47.1-.81.57-.85.96.19.33.38.72.71.96-1.61,1.14-3.65,1.24-5.5,1.77-3.46.43-6.82.72-10.33.76-1.66-.1-3.56.48-5.12,0-1.8.33-3.75-.24-5.22.76-.19.24.05.48.05.71,2.18,1.43,5.17.29,7.64.72h18.67c1.38-.05,2.75-.1,3.84-.72,2.42-1.38,3.75-3.87,4.98-6.3.47-.86.81-1.86.99-2.86.47-1.62,1.94-2.77,3.55-2.91.24,2.48-.24,4.97-.81,7.26-.28,1.53-1.28,3.01-.66,4.63.14.76.95.76,1.56.86,5.74-.1,11.47-.34,17.54.09,1.09.19,2.04.52,3.22.48.1-.14.43-.19.29-.48-.14-.53-.52-1.19-1.14-1.34-.09-.29-.52-.19-.66-.38-3.03-1.72-6.68-.81-10.24-.76-1.85.19-3.7.52-5.26-.52-.71-.86-.19-3.58-.19-3.58,0-1.08,2.61-8.59,2.94-9.21.09-.72.38-1.38.29-2.2.38-.95.28-2.2.28-3.25.19-1.53.95-2.96,1.47-4.44.28-.72.52-1.48.81-2.2.28-.91.38-1.77.95-2.48,1.55.98,3.06.95,3.8,2.71l.65,3.98c0,.24.19.72.52.43,1.23-.81.85-2.63.85-3.87.28-1.48-.76-2.2-1.19-3.49-.33-.24-.88-1.38-.88-1.38-.19-1.05-2.49-1.77-1.97-3.06.28-1.1.57-2.1,1.61-2.72.15.11.22.22.24.34l.57-.4.06-3.99c1.54,0,3.83.19,5.39.19.43.14.76.48,1.23.53l.38-.53,3.84-.75c-1.63.18-2.62-1.69-4.17-1.69"/>
      <path class="cls-4" d="m296.97,95.24c.12-.01.23-.03.35-.07l-.35.07Z"/>
      <path class="cls-4" d="m255.68,108.54c.05.57-.29.91-.71,1.1-.38-.14-.66-.19-.9-.57-.19-.52.28-.91.66-1.1.38.1.85.14.95.57"/>
      <path class="cls-4" d="m252.6,108.54c.28.29.33.76.19,1.1-.33.29-.85.53-1.14.14-.28-.29-.57-.62-.33-1,.33-.33.9-.62,1.28-.24"/>
      <path class="cls-4" d="m318.58,109.06s.03.05.04.07"/>
      <path class="cls-4" d="m354.7,109.87c.19.53-.24.91-.62,1.1-.47-.14-1.09-.24-1.09-.86.05-.38.38-.62.71-.72.43-.14.81.19,1,.48"/>
      <path class="cls-4" d="m357.22,109.78c.14.24.47.62.09.86-.19.14-.33.19-.48.38-.52.1-.99-.1-1.14-.57-.1-.53.33-.76.71-1,.33-.1.57.14.81.33"/>
      <path class="cls-4" d="m240.7,110.35c-.19.57-.66.81-1.28.62-.14-.14-.28-.38-.38-.62.05-.34.14-.67.52-.81.57.05,1,.29,1.14.81"/>
      <path class="cls-4" d="m256.68,111.16c-.05.38-.47.72-.81.91-.48.05-.81-.33-1.04-.67,0-.38.19-.86.57-.95.52-.19,1.09.19,1.28.72"/>
      <path class="cls-4" d="m253.88,110.83c.14.14.28.52.14.76-.28.24-.71.67-1.18.38-.29-.24-.62-.43-.52-.91.19-.19.43-.48.71-.57.38-.09.57.14.85.33"/>
      <path class="cls-4" d="m364.47,111.4c0,.38-.38.76-.62.91-.38.14-.81.05-1.04-.24-.28-.09-.19-.48-.19-.72.24-.33.57-.53.9-.62.43.1.71.38.95.67"/>
      <path class="cls-4" d="m367.5,111.83c-.14.43-.47.81-.9.86-.28-.05-.81-.14-.71-.57,0-.33.19-.67.43-.76.47-.24,1.04,0,1.18.48"/>
      <path class="cls-4" d="m246.11,112.5c.1.57-.09.95-.57,1.14-.33.19-.66-.05-.9-.24-.24-.24-.43-.62-.24-.95.09-.43.52-.33.81-.53.43.05.66.24.9.57"/>
      <path class="cls-4" d="m248.43,112.93c.14.38-.28.52-.38.81-.24.14-.57.29-.85.1-.33-.29-.71-.72-.38-1.14.38-.72,1.37-.33,1.61.24"/>
      <path class="cls-4" d="m361.67,112.69c.05.48-.38.81-.66,1.1-.43.09-.85-.19-.95-.57-.05-.38.19-.67.52-.91.43-.05.85,0,1.09.38"/>
      <path class="cls-4" d="m365.56,113.45c-.1.43-.05.91-.52,1.19-.38.1-.85.05-1.14-.19-.29-.24-.33-.67-.19-1,.24-.38.66-.67,1.14-.57.33.19.43.43.71.57"/>
      <path class="cls-4" d="m244.31,114.46c.19.38-.24.48-.38.67-.33.19-.66.05-.95-.1-.33-.19-.19-.67-.14-.91.43-.81,1.28-.24,1.47.33"/>
      <path class="cls-4" d="m362.57,115.36c.19.05.1.33.05.43-1.14.57-2.84.72-3.84-.19-.57-.48-1.28-.67-1.9-1.05.24-.62,1.09-.57,1.71-.72,1.37.19,2.47,1.48,3.98,1.53"/>
      <path class="cls-4" d="m246.58,114.93c.1.38-.19.53-.28.81-.19.29-.57.19-.81.1-.43-.29-.62-.81-.33-1.19.52-.52,1.14-.24,1.42.29"/>
      <path class="cls-4" d="m250.75,115.22c.19.43-.09.81-.47,1.05-.33.19-.62-.09-.9-.14-.24-.33-.66-.72-.24-1.1.43-.71,1.28-.33,1.61.19"/>
      <path class="cls-4" d="m305.55,117.24c-.09.95-1.67-.14-1.44,1.13.23.91.41,2,.95,2.68.45.64.22,1.63.18,2.4-.41.68-1.08,1.18-1.8,1.54-1.35-.14-3.33.68-3.96-1-.27-.73-.77-1.45-.77-2.27.14-.09.32-.09.45-.23,0-.32-.36-.5-.32-.82,1.53-.27-.63-1.63.68-1.72,1.08,1.13,2.84.77,3.78,2,.22.18.41.45.68.59-.18-1.13-.72-2.27-.9-3.49-.14-.63.09-1.22.54-1.59.81-.63,1.49.27,1.94.77"/>
      <path class="cls-4" d="m254.92,116.94c.14.48-.24.76-.52,1-.43.19-.66-.29-.85-.53-.14-.48.19-.72.47-.95.33,0,.71.14.9.48"/>
      <path class="cls-4" d="m284.17,117.42c.57,1.86.38,3.77-.57,5.35-.05.38.1,1-.43.95-1.28-1.77-.33-4.25.19-6.11.09-.48.66-.67.81-.19"/>
      <path class="cls-4" d="m324.75,118.32c.66,1.34.71,3.1.1,4.44l-.38.38c-.52-1.1-.95-2.2-1.09-3.39.24-.86.52-1.62.57-2.53.66-.14.62.72.81,1.1"/>
      <path class="cls-4" d="m258.62,118.85c-.28.57-1.09.72-1.61,1.1-1.14.86-2.8,1.05-4.22.81,1.23-1.72,3.13-2.72,5.4-2.25.1.19.33.1.43.33"/>
      <path class="cls-4" d="m239.14,120.57c1.75,1.24,2.23,2.96,3.27,4.68.14.19.62.24.43.62-.38.29-.76-.29-1.28-.19-1.8-.81-2.94-2.82-2.89-4.92,0-.19.28-.19.47-.19"/>
      <path class="cls-4" d="m322.9,122.05c.05.48-.05.95-.43,1.1-.52.14-.95-.14-1.09-.57-.14-.33.14-.52.24-.76.38-.38,1.04-.19,1.28.24"/>
      <path class="cls-4" d="m342.9,124.58c0-.91.24-1.77.33-2.63.14-.29.24-.62.19-1,1.14-1.53,3.46-1.05,5.26-.91.71.38,1.61.33,2.37.53.33-.24.81-.29,1.19-.24,1.52-.81.52-2.58.62-3.96l-.57-1.43c-.14-.29-.29-.62-.38-.95-.28-.33-.47-.95-.76-1.29-.81-2.1-2.37-3.29-3.7-4.97-2.42-3.15-6.21-4.92-10-6.16-3.74-1.29-7.54.38-10.9,1.58-1.04-.29-1.56-1.1-1.85-2.01-.19-1.81.19-3.58.9-5.06.14-1.19.95-2.1,1.28-3.2.85-2.67,1.75-5.3,1.94-8.21.09-1.77-1.23-3.01-2.56-3.77-.9-.24-1.94-.19-2.61.53-.62,1.29-1.94,2.15-3.08,2.77-.1.81.9.29,1.23.57,1.04.19,2.23-.14,3.08.52.1,1.91-1,3.49-1.99,4.92-1.61,2.39-3.32,4.82-4.31,7.45l-.19-.19.23,11.67c1.51,2.51,3.4,5.38,6.22,6.33,1.52,1.24,3.41,2.72,5.45,1.62,1.09-.33,1.19,1.19,1.71,1.81.57,1.77-.71,3.01-.81,4.63l-1.23,2.63c-1.42,2.77-2.7,5.73-4.88,8.07-.71,0-1.14.76-1.85.81-.38.53-1.14.14-1.61.33-1.47.62-3.56.24-4.55,1.62.09.14.24.19.38.24,2.89.05,6.12.24,9.2.1.38-.14.71-.48.76-.91-.43-.81.14-1.53.52-2.15.24-1.15,1-1.86,1.33-2.96.99-1.96,2.13-3.87,3.22-5.82l1.47-2.39c.33-.81.9-1.82,1.47-2.67.38-.38.57-.81.85-1.29.05-.48-.19-.67-.47-1,.33-.33.85-.24,1.28-.33,1.19.72,2.42,1.86,2.65,3.15l.43,1.24.19.57-.1,1.58.19,1.48c.24,2.29-.19,4.63-.43,6.92-.81,2.77-3.98,2.48-6.26,3.1-.57.38-1.66.19-1.66,1.15,2.75.57,5.97.24,8.91.19.47-.19.57-.62.81-1.05.1-.62.71-1.15.52-1.81-.52-.67-.05-1.72-.19-2.63.1-.24.1-.57,0-.91.38-1.38.28-3.06.57-4.39l.19-1.81Z"/>
      <path class="cls-4" d="m366.22,122.72c-1.52,2.15-3.13,4.58-5.78,5.35-.19,0-.38.09-.48-.14,1.61-1.72,2.47-4.39,4.98-5.01.38-.19.9-.38,1.28-.19"/>
      <path class="cls-4" d="m236.81,125.06c-.24.19-.05.62-.47.67-.38.19-.8-.05-.99-.43-.19-.48.24-.96.62-1.05.38.19.76.33.85.81"/>
      <path class="cls-4" d="m250.47,125.72c.14.43-.33.43-.57.52-1.99.72-4.03.05-5.45-1.39,0-.19,0-.38.19-.43,1.94.48,4.22.1,5.83,1.29"/>
      <path class="cls-4" d="m239.42,125.1c.09.19.14.53.09.72-.28.43-.71.52-1.18.43-.29-.14-.43-.33-.62-.62.05-.48.43-.76.81-.91.38.05.66.14.9.38"/>
      <path class="cls-4" d="m283.84,125.34c.1.43-.28.72-.57.91-.43.1-.81-.09-1-.38-.14-.33,0-.81.33-.91.43-.09,1.09-.05,1.23.38"/>
      <path class="cls-4" d="m368.02,125.53c.14.48-.28.72-.62,1-.28.14-.62,0-.9-.14-.05-.24-.33-.43-.24-.76.19-.43.61-.62,1.09-.57.24.19.43.24.66.48"/>
      <path class="cls-4" d="m371.15,125.34c.28.43.05.76-.19,1.1-.19.33-.57.43-.85.29-.28-.29-.66-.43-.71-.86,0-.38.43-.67.71-.81.48-.19.66.29,1.04.29"/>
      <path class="cls-4" d="m234.82,126.73c.05.33-.24.52-.33.81-.24.1-.47.29-.76.19-.33-.14-.57-.43-.71-.76.1-.43.38-.81.85-.95.38.1.81.29.95.72"/>
      <path class="cls-4" d="m334.65,126.73c.1.19.05.43.05.62-.28.38-.66.72-1.14.48-.28-.29-.62-.57-.47-1,.38-.52,1.19-.71,1.56-.09"/>
      <path class="cls-4" d="m242.46,127.44c-.09.33-.24.67-.66.71-.43.05-.57-.33-.81-.52,0-.43-.05-.86.38-1.1.57-.19,1.09.29,1.09.91"/>
      <path class="cls-4" d="m237.91,127.54c.14.48-.19.81-.47,1.05-.57.19-1.04-.24-1.28-.67.05-.43.38-.96.85-1.1.43,0,.66.48.9.72"/>
      <path class="cls-4" d="m337.78,127.44c.1.48-.05.95-.52,1.15-.57.19-1.04-.29-1.28-.67.24-.38.29-.91.85-1,.43,0,.71.19.95.52"/>
      <path class="cls-4" d="m240.13,127.63c.14.33-.14.48-.24.72-.24,0-.38.29-.66.19-.19-.24-.57-.33-.62-.67-.05-.48.28-.72.62-.91.47-.05.76.29.9.67"/>
      <path class="cls-4" d="m365.42,128.02c-.14.38-.43.57-.81.76-.38.1-.62-.24-.9-.38-.24-.19-.14-.62-.05-.86.47-.81,1.75-.43,1.75.48"/>
      <path class="cls-4" d="m369.02,128.21c-.14.53-.66.76-1.14.81-.43-.19-.9-.52-.57-1.1.19-.19.28-.38.57-.43.57-.19,1,.24,1.14.72"/>
      <path class="cls-4" d="m346.5,128.54c.24.62-.33.81-.71,1.1-.33-.05-.62-.19-.9-.38-.09-.52.14-1,.67-1.24.43,0,.66.19.95.52"/>
      <path class="cls-4" d="m333.47,129.11c.24.1.14.43.09.57-.28.19-.66.67-1.09.38-.33-.19-.57-.48-.47-.91.24-.52,1.23-.57,1.47-.05"/>
      <path class="cls-4" d="m336.12,129.45c.05.38-.05.57-.38.76-.33.33-.71-.05-1.04-.14-.09-.19-.19-.48-.05-.72.14-.19.38-.33.62-.38.33.1.71.1.85.48"/>
      <path class="cls-4" d="m255.68,129.5c.28.29-.05.62-.1.91-.24.29-.76.52-1.19.24-.47-.19-.43-.81-.33-1.19.28-.1.28-.43.66-.43.43.05.66.24.95.48"/>
      <path class="cls-4" d="m351.57,129.69c.1.48-.38.67-.71.76-.57.19-.85-.24-1.09-.62,0-.29.28-.48.38-.72.66-.29,1.09.19,1.42.57"/>
      <path class="cls-4" d="m349.02,129.69c.19.48-.33.72-.52.95-.33.14-.76.09-1.04-.19-.24-.14-.24-.43-.24-.72.28-.24.43-.52.76-.62.43,0,.85.24,1.04.57"/>
      <path class="cls-4" d="m370.39,130.26c.09.67-.76.33-1.09.53-1.99,1.19-4.55.29-6.45-.43.14-.62.85-.38,1.23-.62,2.04-1.29,4.12.29,6.16.38l.14.14Z"/>
      <path class="cls-4" d="m240.65,129.69l-.19.33c-1.75,1.05-4.03,1.77-6.11,1.1l-.19-.29c1.75-1.29,4.08-1.62,6.35-1.29l.14.14Z"/>
      <path class="cls-4" d="m356.41,130.02c0,.38-.19.72-.47.91-.47.14-1.09,0-1.23-.52-.14-.38.24-.76.62-.91.33,0,.9.05,1.09.53"/>
      <path class="cls-4" d="m249.14,130.21c-.19.38-.09.76-.57.95-.47.19-1.04-.24-1.18-.62-.14-.52.24-.67.47-.91.57-.29,1,.14,1.28.57"/>
      <path class="cls-4" d="m245.78,130.45c.14.33-.14.52-.24.76-.24.29-.66.24-.95.14-.33-.29-.66-.62-.52-1.14.29-.24.43-.38.76-.53.43.09.85.29.95.76"/>
      <path class="cls-4" d="m359.73,131.55c-.05.43-.38.76-.76.86-.38.05-.71-.24-.9-.48-.14-.29-.1-.67.19-.91.09-.14.43-.14.62-.24.43.05.76.38.85.76"/>
      <path class="cls-4" d="m242.27,131.02c.14.38-.19.52-.24.81-.14.81-.66,1.34-1.04,2.05-.9,1.1-2.18,1.1-3.46,1.43l-.19-.38c1.37-1.77,2.84-3.15,4.79-4.01l.14.1Z"/>
      <path class="cls-4" d="m357.36,132.07c.1.57-.38.67-.71.91-.43,0-.76-.24-.95-.57-.14-.53.33-.72.62-.95.47-.1.9.24,1.04.62"/>
      <path class="cls-4" d="m247.72,132.07c-.05.09.05.19.14.24-.05.53-.43.67-.71.91-.43,0-.76-.14-1.04-.48-.19-.43,0-.96.47-1.1.43-.05,1,0,1.14.43"/>
      <path class="cls-4" d="m366.08,133.51c.47-.05.57-.62,1.09-.72.47-.1.9.19,1.14.52.19.57-.24.86-.62,1.1-.33.24-1.04-.29-1,.33.33.24.62.57.66.95-.09.19-.43.14-.57.05-1.38-.57-2.84-1.53-3.41-2.96-.19-.43-1.09-.76-.57-1.15,1.38-.1,2.51,1,3.27,1.86"/>
      <path class="cls-4" d="m370.63,132.03c.24.24.14.67-.05.91-.24.48-.95.29-1.38.24-.24-.24-.47-.48-.38-.86.19-.29.38-.48.71-.62.43-.1.76.1,1.09.33"/>
      <path class="cls-4" d="m353.42,134.6c.43.52.85,1.34,1.04,1.91-.1.14-.33.1-.43.1-1.61-.91-3.7-1.91-4.32-3.82-.14-.19-.52-.43-.47-.76,1.23-.24,2.42.67,3.27,1.34.33.48.71.72.9,1.24"/>
      <path class="cls-4" d="m245.06,132.79c.19.43-.19.76-.43.95-.52.1-.81-.1-1.09-.38-.33-.52.28-.95.67-1.15.38-.05.61.33.85.57"/>
      <path class="cls-4" d="m359.35,133.89c.05.29-.33.48-.47.67-.38.05-.76.19-1.09-.14-.09-.24-.33-.62-.05-.86.52-.67,1.28-.14,1.61.33"/>
      <path class="cls-4" d="m371.15,134.56c.14.57-.29.95-.67,1.19-.47.14-.85-.19-1.14-.43-.24-.29-.05-.57,0-.91.33-.29.76-.53,1.23-.33.19.14.38.24.57.48"/>
      <path class="cls-4" d="m338.35,141.14c0,.57-1.04.43-1.47.86-1.47.76-3.22.76-4.98.72v-.29c1.71-1.43,4.17-1.96,6.45-1.29"/>
      <path class="cls-4" d="m269.19,143.2c-.05.43-.29.67-.71.81-.33,0-.66-.19-.81-.48-.19-.57.28-.81.62-1.05.43.05.81.38.9.72"/>
      <path class="cls-4" d="m337.54,143.72c-.1.43-.24.91-.71,1.1-.43.1-.71-.14-1.04-.33-.24-.19-.09-.53-.14-.76.33-.86,1.56-.86,1.9,0"/>
      <path class="cls-4" d="m346.98,143.91c-1.19.76-2.51,1.67-4.08,1.67l-2.56-.05-.24-.19c1.56-1.91,4.41-1.91,6.88-1.72v.29Z"/>
      <path class="cls-4" d="m256.2,145.06c0,.43-.19.76-.62.91-.47.1-.81-.1-1-.43-.19-.43,0-.86.38-1.1.52-.33,1.04.24,1.23.62"/>
      <path class="cls-4" d="m258.57,145.54c.14.24-.09.38-.19.62-.29.14-.66.24-.9,0-.33-.19-.43-.53-.28-.81.14-.29.43-.24.57-.43.33.14.66.29.8.62"/>
      <path class="cls-4" d="m240.42,150.36c-.48.57-1.23-.14-1.75-.43-1.66-.95-1.61-2.82-3.27-3.91.19-.57.62.05.95-.05.28.19.66.38,1,.53,1.61.91,1.99,2.43,3.08,3.87"/>
      <path class="cls-4" d="m378.59,131.84c-.76-1.39-2.04-1.96-3.56-1.96-1.23.1-2.13.91-2.65,1.96-.28,1.05.1,2.01.9,2.63.33.14.76.1.95-.24.24-.62-.43-.62-.52-1.1-.19-.67.05-1.24.52-1.67.47-.48,1.28-.24,1.85-.24.57.38,1.14.72,1.42,1.39.29.81.29,1.72,0,2.53-.52,1.19-1.71,2.15-2.94,2.39-3.93.57-47.12.38-47.12.38-5.07.48-10.85-.95-15.21,1.72-1.99.95-2.99,3.15-3.51,5.11-1.28,1.15-2.66,2.48-3.7,3.77l-.14-.14c.24-1.15.76-2.15,1-3.3.71-.95.71-2.24,1.23-3.29,1.8-2.91,3.51-5.87,6.3-7.92,1.19-1.58,3.27-1.29,5.07-1.29,1.94.91,4.22,1.19,6.59.95.09-.1.14-.19.14-.33-.66-.62-1.75-.86-2.51-1.48-1.9-.91-3.7.29-5.69.14-.09-.1-.19-.14-.14-.29,1.8-1.34,3.84-2.29,5.88-3.15,1.66-.91,3.41-1.38,5.17-2.05.71,0,1.38-.62,2.04-.19l2.51-.67c.1.05.19.19.38.14,2.13-.72,4.84-.05,7.25-.09l.33.29,2.27.57c.85.1,1.23,1.1,2.13,1.15.47-.67-.52-.95-.76-1.39,1.04-.24,2.23.05,3.17.48l-.47.52c-.29.53.14.91.57,1.1.33.1.57-.14.8-.24.62-.43-.05-.86.14-1.24,3.51.62,6.88,1.48,10.1,2.86.9.29,1.75.95,2.75.91-1-.91-2.37-1.38-3.6-1.91-.81-.48-1.94-.53-2.56-1.19.14-.24.47-.14.62-.33,1.61-.19,2.99-1.38,4.13-2.67.09-.29.62-.19.57-.57-.43-.48-1.14.14-1.71.1-1.99.38-2.84,2.72-4.84,3.15-2.42-.57-4.88-1.14-7.3-1.77-1.19-.19-2.46-.29-3.55-.76l-2.66-.24h-4.84c-.05-.1-.19-.14-.14-.29,1.71-.43,3.18-1.43,4.88-1.86l12.7-5.82c1.33-1.19,2.51-2.53,3.6-3.91.05-.38-.19-.76-.52-.91-.33-.14-.71-.09-.95.19-.57.43,0,.96,0,1.48-.57.76-1.47,1.43-2.18,1.86-.19-.05-13.08,5.87-13.08,5.87-1.9.81-3.79,1.72-5.78,2.15l-2.75.43c-.19.57-.66.91-1.19,1.1-.76.14-1.37.62-2.18.62-6.16,2.39-12.56,4.92-17.44,9.79.28-.57.43-1.29.47-2.01-.09-.72-.05-1.53-.52-2.1-.11-.26-.46-1.03-.35-1.31l-.7.45c-.43,1.05-.81,2.96-.38,4.06.14.86.85,1.86.19,2.63-2.28,2.77-3.56,6.11-5.07,9.26-.57-.1-.85-.62-1.09-1.15,1.61-2.05,2.89-4.35,3.37-6.97.33-.24.09-.86.43-1.15-.09-.76.43-1.53.05-2.15.3-1.04-1.39-2-.31-2.67l-.89.43c-2.04,2.67,1.06,6.68-1.27,9.26v.19c-.66.86-1,1.72-1.9,2.29-1.14-.48-1.56-1.77-2.23-2.72-1.04-1-1.04-3.06-.43-4.44.43-1.38-.28-2.58-.43-3.82l-.47-.28c-1.14,1.48-1.56,3.82-.66,5.58.47.86.52,2.05,1.23,2.77.43,1.38,1.28,2.29,2.04,3.53.19.48-.28.57-.52.81-.52-.33-.43-1.1-.9-1.43-1.57-3.34-3.6-6.01-6.07-8.74-.1-.43-.52-.81-.29-1.29.9-.86,1.09-2.53.62-3.63-.09-.24-.38-.52-.33-.76l-.71-.57c.1,1.67-.99,3.15-.52,4.92v.1c-4.88-3.68-10.28-6.96-15.78-9.54l-.44,1.21c1.39.35,5.08,2.59,5.08,2.59,1.66.62,3.18,1.63,4.74,2.53,6.45,3.58,10.71,9.5,13.6,16.09.05.53.52,1.1.19,1.62-1-1.53-2.42-2.39-3.6-3.63-.33-2.24-1.66-4.39-3.6-5.3-.71-1.05-2.23-1.14-3.41-1.48l-17.25-.1c-14.03-.19-26.83.43-40.77.19-1.94-.19-4.31-.86-4.88-2.91-.38-.72-.38-1.96,0-2.63.52-.91,1.47-1.19,2.42-1.29.76.1,1.28.81,1.61,1.34,0,.62-.52,1.19-.76,1.72.05.19.24.57.57.43.62-.24,1.09-.9,1.23-1.53.05-.33.19-.81-.14-1.05-.28-1-1.33-1.72-2.23-1.96-1.19-.1-2.42.24-3.23,1.1-1.14.96-1.09,2.67-.76,4.01.76,2.1,2.99,3.53,5.12,3.82l46.12.19c4.5.24,9.57-.53,14.13.38,1.66.52,3.41,1.77,3.84,3.63-.05.09-.19.05-.33.05-3.75-2.43-8.67-3.34-13.46-2.77-1.9-.1-3.6.62-5.31,1.1-.9.19-1.76-.24-2.32-.76-1.71-1.53-4.69-1.43-6.87-.86,0,.14-.05.29.05.34,2.32-.19,3.7,1.81,5.78,2.05.47.1.85-.43,1.28-.05-2.18,1.05-4.27,2.29-6.59,2.96-.71-.14-1.09-.81-1.66-1.19-.9-1-2.56-.57-3.79-.67-.43.1-.81-.19-1.09,0,.38.76,1.23,1.19,2.04,1.58,1.18.52,2.56-.05,3.65.67-.29.33-.66.43-1,.67-2.23.86-4.08,2.86-6.54,2.72-2.61.29-5.26-.48-7.02-2.29-.76-1.86-2.7-2.86-4.79-2.77-.14.09-.33.09-.28.33,1.04.62,1.85,1.86,2.89,2.58.66.81,1.94,0,2.56.91.9.62,2.04,1.15,3.08,1.34.76.33,1.61.48,2.46.67l-.33.19c-4.31,1.43-9.29,1.58-14.13,1.39-1.42-.05-2.8-.48-4.22-.43.24.29.71.52,1.14.67-.38.24-.81.33-1.28.38-.57.14-1.23.19-1.8.48-.76-.05-1.42.24-2.04.48-.81.86-1.75,1.77-2.7,2.2,0,.19-.05.48.19.48.9-.38,2.04-.1,2.94-.48,1.56-.14,2.46-1.86,3.7-2.58,1.33-1.05,3.22-.81,4.84-.57.95.24-.1.62.19,1.24.38.33.71.72,1.23.57.09-.1.19-.19.33-.24.28-.38.24-.81.05-1.19.66-.43,1.57.05,2.28-.24,1.8-.05,3.6-.43,5.36-.48.28-.05.62-.33.9-.05-.14.38-.62.43-.43.95.09.43.57.62.95.72.48-.19.9-.53.71-1.15-.09-.33-.47-.38-.71-.52,1-.48,2.13-.62,3.13-1.1.71-.14,1.37-.38,1.99-.67.62-.05,1.14-.62,1.71-.38-.24.81-.57,1.58-1,2.29-.76,2.53-1.33,5.87,0,8.31.14.05.19-.05.29-.1-1-2.53-.43-5.44.43-7.83.66-4.06,4.84-5.25,7.82-6.78l.14.19c-.81,2.1-1.99,4.11-1.8,6.64.09.43-.19.86,0,1.15.81-.43,1.33-1.39,1.75-2.2.33-2.15-.9-4.82,1.28-6.4,3.89-1.53,7.54-3.53,12.04-3.58.14.14.48-.1.52.19-.95,1.05-2.32,2.05-2.75,3.34-1.52,2.1-1.47,5.68-.81,8.26.43,1.48-.85,2.29-1.47,3.44-.3.41-.38,1.1-.65,1.57l.94.1c.81-.86,1.56-1.91,1.61-3.15.09.48.52.86.9.96.33-.53-.29-.91-.33-1.43.76-.43,1.09.52,1.71.72,1,.24,1.85.67,2.89.67l.33-.33c-1.04-1.62-3.13-1.91-4.93-2.01-.95-1.58-.95-3.53-.85-5.44.19-1,.38-2.05.95-2.96.24-.67.9-1.29,1.33-1.81.85-.81,1.94-1.39,2.99-1.62h.14c0,.1.05.14.05.14-1.28,1-1.42,2.39-2.18,3.63-.81,1.19-1.19,2.82-.43,4.15.28.62.14,1.58.81,2.01.62-.86.66-1.96,1-2.91-.14-1.58-1.09-3.06-.19-4.58.48-1.19,1.47-1.67,2.56-2.1,2.61-.24,4.88,1.1,7.16,2.1.48.33,1.28.62,1.38,1.29-.05,1.29-.76,2.58-1.75,3.2-1.28.76-3.13.86-4.31-.05-.71-.72-.99-1.96-.76-2.91.52-.57,1.23-1.05,2.09-.76.47.24.9.72,1.52.43.24-.14.33-.53.19-.76-.52-.29-.71-1-1.42-1.1-.9-.14-1.99-.1-2.61.53-1,.86-1.38,2.15-1.09,3.34.33,1.53,1.47,2.63,2.94,3.06,2.18.52,4.46-.14,5.83-2.01.57-.62.71-1.29,1.04-2.05,2.28,1.39,3.98,3.82,4.88,6.3,0,.81.24,1.67.05,2.39l1.66.14c-.14-.38,0-.81.14-1.14.62-3.15,2.56-5.78,4.88-7.83.81-.48.62.62.81.95.71,1.82,2.37,3.1,4.12,3.63,1.99.33,3.89-.14,5.12-1.67.62-1.15,1.38-2.82.33-4.01-.66-.81-1.56-1.24-2.61-1.24-1.23,0-1.99.86-2.61,1.77,0,.38-.05.81.28,1,.19,0,.57.05.71-.24.1-.72.71-1.05,1.28-1.43.52-.29,1.09,0,1.52.29.52.43.62,1.15.66,1.86-.09.91-.71,1.86-1.56,2.24-1.38.71-3.37.38-4.55-.43-.57-.62-.9-1.34-1.33-2.1-.09-.76-.38-1.43,0-2.2,2.09-1.24,4.27-2.15,6.78-2.39,1,.19,1.85.86,2.51,1.58,2.18,2.25-.47,5.44,1.04,7.93.57-.09.57-.86.81-1.34.71-1.72-.19-3.58-.62-5.25-.57-1.05-.9-1.96-1.8-2.82.24-.1.33-.1.57-.1,1,.67,2.09,1.43,2.89,2.48,1.37,2.25,2.09,4.92,1.85,7.83-.38,1.43-1.9,2.1-3.08,2.62-.47.38-1.04.95-1.28,1.53.57.33,1.37,0,1.94-.24.9-.34,1.42-1.48,2.04-2.01.09.05.05.19.09.29.05.52-.24,1.24.24,1.38.24-.67.29-1.62.43-2.43.62.67.71,1.53.9,2.39.43.86,1.14,2.01,2.27,2.15.28-.43-.05-.86-.14-1.24-.14-1.19-1.14-1.82-1.8-2.67-1.66-2.29-.9-5.87-2.18-8.45-.47-1.39-1.47-2.39-2.56-3.53l.19-.19c2.32-.05,4.27.72,6.4,1.15,2.61,1.29,6.4,1,7.63,4.39.52,1.91,1.37,3.68,2.7,5.16l.14-.1c.28-.48.28-1.29,0-1.77-.28-2.39-2.37-2.96-3.46-4.97l.14-.19c1.14.33,2.32.62,3.46,1.1,3.79,1.05,6.45,4.78,6.92,8.64,0,3.05-.57,5.58-1.75,8.16-.14.38-.81.81-.38,1.15.52-.38.62-1,.9-1.43,1.56-2.62,2.37-6.25,1.56-9.6-.05-.62-.76-1.1-.43-1.72.24.29.52.33.81.43.29-.19.71-.19.9-.53.05-.29.24-.62,0-.86-.29-.43-.9-.43-1.37-.33-.24.29-.52.67-.57,1.05-.47-.81-.95-1.86-1.71-2.53l.1-.14c2.13.72,4.08,1.77,6.26,2.34.47.29,1,.53,1.66.53,1.85.72,3.89,1,5.83,1.48,1.42-.14,2.61.53,4.03.19v-.09l-.05.05c-.52-.67-1.66-.05-2.28-.52-3.27-.33-6.4-1.19-9.34-2.34.05-.14.24-.1.38-.1.47-.24.81-.67.76-1.2-.24-.33-.62-.52-1.09-.52-.28.14-.66.48-.71.81.05.38.38.81.71.91-.09.1-.28.05-.43.05-1.47-.67-2.89-1.29-4.32-1.96-.52-.1-.95-.52-1.47-.62-1.09-.52-2.18-1.05-3.27-1.48-3.03-1.58-6.4-2.43-9.62-3.58-.71-.19-1.38-.38-2.04-.57-1.18-.34-2.37-.62-3.55-.96-4.03-1-9.43-1.1-12.94,1.1-.57-.19-.9.72-1.18.14,1-2.63,3.89-3.49,6.49-3.58,19.01-.19,36.83-.33,55.56-.62,2.18,0,4.31-.76,5.45-2.72.81-1.15.95-3.1.33-4.39m-75.37,17.62c-.19.57-.57,1.05-.52,1.67l-.19.09c.14-.72-.57-1.14-.38-1.91-.38-.57-.38-1.29-.71-1.91-.43-.77.38-1.1.71-1.62.66.29.9.91,1.37,1.48.28.81-.33,1.43-.28,2.2"/>
      <path class="cls-4" d="m354.66,146.44c0,.14.28.19.19.43-1.66,1.48-3.98,1.91-6.35,2.01-.19.05-.38.19-.62.14-.14-.09-.19-.24-.09-.33,1.71-1.86,4.31-2.82,6.87-2.24"/>
      <path class="cls-4" d="m347.02,147.21c.19.67-.24,1.05-.76,1.29-.52-.05-.8-.38-1.04-.76-.14-.38.19-.57.33-.81.38-.38,1.28-.38,1.47.29"/>
      <path class="cls-4" d="m256.91,147.3c.09.33.05.76-.24,1-.19.24-.62.29-.85.24-.33-.05-.52-.43-.62-.72,0-.43.24-.67.62-.91.38,0,.81-.05,1.09.38"/>
      <path class="cls-4" d="m248.43,150.41v.33c-1.14.24-2.23-.05-3.08-.72-.66-.95-1.42-1.91-2.51-2.39,0-.14-.29-.33,0-.43,2.37,0,3.79,1.91,5.59,3.2"/>
      <path class="cls-4" d="m361.86,147.26c-1.09,1.62-2.04,3.63-3.98,4.34-.33,0-.62.48-.9.14.76-1.82,2.37-3.77,4.22-4.54.19,0,.47-.05.66.05"/>
      <path class="cls-4" d="m259.66,147.83c.05.53-.33.62-.66.91-.38.05-.57-.24-.81-.52-.19-.48.24-.67.48-.91.38-.1.81.19,1,.52"/>
      <path class="cls-4" d="m367.83,148.12c-.43.62-.24,1.53-.66,2.2-.95,1.1-1.76,2.34-3.27,2.58-.24-.48.33-.95.57-1.39.66-1.43,1.61-3.05,3.13-3.68l.24.29Z"/>
      <path class="cls-4" d="m233.73,148.54c.14.33.28.67,0,1.05-.28.24-.71.33-1.09.19-.43-.24-.57-.76-.38-1.15.28-.43,1.14-.67,1.47-.1"/>
      <path class="cls-4" d="m231.03,149.12c.05.24.19.43.14.67-.14.24-.38.53-.66.57-.52.1-.85-.19-1.09-.62-.05-.43.09-.81.47-1,.43-.19.9.05,1.14.38"/>
      <path class="cls-4" d="m236.62,149.4c.1.38.19,1.05-.38,1.14-.66.29-1.04-.19-1.42-.57,0-.43.24-.76.57-.95.47-.05.9,0,1.23.38"/>
      <path class="cls-4" d="m244.4,150.03c-.05.33.05.81-.33.91-.24.24-.66.14-.9.1-.1-.29-.62-.53-.33-.86.19-.24.38-.38.66-.52.28.14.71,0,.9.38"/>
      <path class="cls-4" d="m372.38,150.36c-.14.33-.33.76-.71.76-.43-.05-.85-.1-1.09-.53-.19-.52.24-.81.62-.95.47,0,1.09.19,1.18.72"/>
      <path class="cls-4" d="m363.71,150.6c.05.38-.38.67-.57.81-.66.29-1.23-.19-1.47-.72.09-.43.43-.72.81-.86.61-.05.95.29,1.23.76"/>
      <path class="cls-4" d="m369.59,150.5c0,.33-.19.67-.43.81-.38.14-.85.1-1.14-.19-.43-.38-.09-.72.19-1,.43-.24,1.23-.19,1.37.38"/>
      <path class="cls-4" d="m232.5,151.31c.1.52-.09,1-.57,1.19-.43,0-.9-.24-1.04-.67-.05-.43.09-.86.47-1,.47-.14.85.14,1.14.48"/>
      <path class="cls-4" d="m361.34,151.84c.14.53-.14,1-.66,1.24-.38.09-.62-.1-.9-.33-.19-.24-.43-.76-.05-1,.38-.72,1.33-.43,1.61.09"/>
      <path class="cls-4" d="m258,152.36c.19.52-.38.62-.52.91-.19.09-.57.14-.71-.05-.24-.29-.52-.57-.38-1,.24-.19.33-.38.62-.48.52-.14.71.33,1,.62"/>
      <path class="cls-4" d="m371.53,152.7c.1.33-.19.48-.24.72-.28.24-.76.29-1.09.19-.43-.24-.43-.62-.43-1.05.28-.19.33-.43.66-.53.43,0,.95.19,1.09.67"/>
      <path class="cls-4" d="m368.59,152.84c.19.57-.33.86-.71,1-.19.05-.47-.1-.52.19,1.23.62,1.99,1.62,2.94,2.53v.38c-1.71-.05-3.46-.48-4.69-1.81-.33-.24-.9-.24-1.28-.57.62-.62,1.75-.38,2.61-.43.62-.67-.71-1.15.09-1.72.28-.05.47-.33.85-.24.33.14.52.38.71.67"/>
      <path class="cls-4" d="m349.2,152.89c.1.24-.19.52-.24.76-.29.29-.71.33-1.04.19-.24-.33-.62-.62-.47-1.1.38-.72,1.61-.57,1.75.14"/>
      <path class="cls-4" d="m243.21,154.56c-.14.43-.33.72-.81.76-.38-.05-.71-.19-.85-.57-.05-.33.19-.52.24-.76.52-.43,1.47-.14,1.42.57"/>
      <path class="cls-4" d="m247.05,153.94c0,.67-.71,1.05-.95,1.72-.71,1.58-1.99,3.01-3.79,3.15-.19-.43.62-.95.81-1.38.76-1.62,2.27-2.48,3.65-3.49h.28Z"/>
      <path class="cls-4" d="m348.07,154.61c.05.53-.43.91-.81,1.1-.43.14-.76-.19-1-.38-.38-.38-.14-.76.05-1.14.57-.57,1.37-.1,1.75.43"/>
      <path class="cls-4" d="m351.01,154.94c-.05.52-.38.91-.85,1.05-.1-.14-.33-.05-.47-.1-.33-.19-.62-.48-.62-.86.24-.24.33-.62.66-.67.43-.05,1.14,0,1.28.57"/>
      <path class="cls-4" d="m254.4,154.89c.05.52-.33.81-.71,1-.43.05-.71-.24-.9-.57-.09-.43.33-.72.57-.95.57-.19.71.24,1.04.52"/>
      <path class="cls-4" d="m257.67,155.09c-.14.43-.43.72-.9.81-.33-.09-.71-.19-.85-.57-.05-.48.33-.72.66-.95.47,0,1,.19,1.09.72"/>
      <path class="cls-4" d="m361.2,158.43c.24.19.66.43.57.76-.76.33-1.37-.53-2.08-.67-1.14-1.15-1.99-2.39-2.47-3.82.43-.43.9.09,1.28.24,1.09.91,2.13,2.1,2.7,3.48"/>
      <path class="cls-4" d="m362.95,155.09c.14.33.09.72-.1,1.05-.28.48-.9.38-1.33.29-.24-.29-.66-.67-.38-1.1.14-.38.57-.48.9-.62.33-.05.57.24.9.38"/>
      <path class="cls-4" d="m262.03,156.33c.05.38.14.95-.33,1.19-.43.1-.99-.05-1.14-.57-.24-.57.28-.67.57-.95.38-.1.62.09.9.33"/>
      <path class="cls-4" d="m350.86,159.43c.66.95,1.14,2.15,1.23,3.39-.14.33.24.67-.05.91h-.19c-2.13-1.53-2.61-3.68-3.41-5.82-.19-.1-.24-.29-.19-.48.47-.43.81.43,1.28.57l1.33,1.43Z"/>
      <path class="cls-4" d="m268.19,157.81s0,.09.05.09c-1.89,1.34-4.55,2.15-6.73.86-.05-.14.05-.38.24-.43,1.38-.43,2.7-1.1,4.17-.91l2.27.38Z"/>
      <path class="cls-4" d="m257.39,158.05c-1.61,1-3.08,2.96-5.07,3.44-.38.14-.62.67-1.09.38.85-2.58,3.65-3.96,6.16-4.2v.38Z"/>
      <path class="cls-4" d="m348.07,160.19c.14.38,0,.91-.38,1-.24.24-.71.24-.9,0-.43-.19-.43-.62-.43-.95.14-.33.47-.38.71-.52.43.09.76.09.99.48"/>
      <path class="cls-4" d="m344.13,160.43c-.29.67-1.09,1.05-1.71,1.24-1.61.57-3.08-.19-4.5-.57.05-.38.52-.24.76-.48,1.56-.33,3.18-.67,4.83-.24.14-.1.48-.14.62.05"/>
      <path class="cls-4" d="m257.39,161.82c-.14.19-.19.62-.57.76-.33.14-.66,0-.95-.19-.09-.29-.43-.53-.19-.86.1-.33.47-.43.76-.52.47.05.85.33.95.81"/>
      <path class="cls-4" d="m260.18,162.25c-.14.29-.28.72-.66.91-.38.1-.67-.1-.95-.33-.14-.29-.28-.62-.14-.96.09-.24.43-.29.66-.43.47-.05.9.43,1.09.81"/>
      <path class="cls-4" d="m347.17,162.72c.05.38-.14.62-.33.91-.24.33-.71.38-1.04.19-.33-.05-.43-.43-.57-.67-.28-.38.19-.62.33-.95.52-.43,1.37-.19,1.61.52"/>
      <path class="cls-4" d="m349.25,162.63c.05.24.19.48.1.67-.29.24-.48.86-1.04.62-.28.09-.42-.29-.57-.38-.19-.48-.05-1.19.57-1.29.43-.14.71.24.95.38"/>
      <path class="cls-4" d="m258.48,164.01c.09.53-.1,1-.48,1.29-.52.1-1.19.1-1.38-.52-.05-.48,0-1.1.57-1.39.48-.05,1.04.05,1.28.62"/>
      <path class="cls-4" d="m261.18,163.82c-.09,1.33-.38,2.96-1.71,3.72-.76.14-1.52.86-2.28.38v-.24c.99-1.43,2.8-2.53,3.98-3.87"/>
      <path class="cls-4" d="m339.72,164.92c.19.29-.14.53-.28.76-.28.33-.81.19-1.14.05-.33-.14-.38-.62-.24-.95.09-.29.38-.43.62-.53.43-.05.81.34,1.04.67"/>
      <path class="cls-4" d="m265.92,167.12c.66,1.1.28,2.58.66,3.77-.8.1-1.14-.81-1.66-1.29-1.04-1.43-.9-3.34-1.38-5.01.1-.14.24-.14.33-.1.71.48,1.23,1.38,1.8,2-.09.33.28.33.24.62"/>
      <path class="cls-4" d="m342.09,165.3c0,.38-.43.48-.66.72-.33-.05-.62-.19-.9-.43-.14-.48.24-.62.47-.86.47-.19.95.05,1.09.57"/>
      <path class="cls-4" d="m347.74,169.55c0,.14-.05.43-.29.33h-.19c-1.37-1.24-2.75-2.63-2.56-4.54l.28-.05c1.28,1.1,2.7,2.29,2.75,4.25"/>
      <path class="cls-4" d="m344.18,168.02c.05.38-.19.67-.43.91-.52.14-1.33.1-1.42-.62-.05-.48.48-.72.71-.95.57-.14.95.24,1.14.67"/>
      <path class="cls-4" d="m341.05,169.03c-.66,1.77-2.47,2.67-3.7,4.01-.24-.14-.14-.53-.09-.72.47-1.81,1.9-3.58,3.65-4.3.76.1,0,.62.14,1"/>
      <path class="cls-4" d="m344.61,170.46c0,.43-.43.62-.66.86-.38-.05-.76-.14-1.04-.53-.05-.48.33-.62.62-.86.47-.09.9.14,1.09.53"/>
      <path class="cls-4" d="m309.34,83.78c.65,0,1.17.53,1.17,1.18s-.52,1.18-1.17,1.18h-14.06c-.65,0-1.17-.53-1.17-1.18s.53-1.18,1.17-1.18h14.06Zm-9.94,2.04c1.37,0,.07-1.67-.66-1.67h-1.37c-1.37,0-.07,1.67.66,1.67h1.37Zm5.76,0c1.37,0,.08-1.67-.66-1.67h-1.37c-1.37,0-.07,1.67.66,1.67h1.37Zm4.24-1.67h-.52c-1.37,0-.21,1.67.53,1.67.92,0,.98-1.67,0-1.67"/>
      <path class="cls-4" d="m308.1,99.91l2.69,1.03,2.64-1.03-1.05,3.95,2.09-.43-.71,2.4.71,2.3-1.86-.5.81,4.26-2.64-1.03-2.69,1.03,1.09-4.26-2.14.6.57-2.4-.57-2.3,2.05.34-1-3.95Zm3.96,7.13c.6,0,.66-.83.66-1.55,0-1.63-1.29,0-1.95-1.53-.48,1.29-1.81.1-1.81,1.49,0,.96,0,1.6.95,1.6h2.16Zm-2.63-1.47c0,.62.83.21,1.45.21s1.45.42,1.45-.21c0-.88-.83-.57-1.45-.57s-1.45-.31-1.45.57"/>
      <polygon class="cls-4" points="301.82 105.73 301.82 105.22 301.37 105.14 301.72 104.77 301.5 104.37 301.96 104.42 302.24 103.93 302.51 104.41 302.98 104.37 302.76 104.77 303.12 105.14 302.67 105.22 302.67 105.73 302.24 105.41 301.82 105.73"/>
      <polygon class="cls-4" points="299.73 108.41 299.73 107.91 299.28 107.82 299.63 107.46 299.42 107.05 299.88 107.1 300.16 106.61 300.43 107.1 300.9 107.05 300.68 107.46 301.03 107.82 300.58 107.91 300.58 108.41 300.16 108.09 299.73 108.41"/>
      <polygon class="cls-4" points="303.27 108.07 303.27 107.57 302.82 107.48 303.17 107.11 302.95 106.71 303.42 106.76 303.69 106.27 303.97 106.75 304.43 106.71 304.22 107.11 304.57 107.48 304.12 107.57 304.12 108.07 303.69 107.75 303.27 108.07"/>
      <polygon class="cls-4" points="303.69 110.07 303.69 109.79 303.43 109.74 303.63 109.53 303.51 109.31 303.77 109.33 303.93 109.06 304.08 109.33 304.34 109.31 304.22 109.53 304.42 109.74 304.17 109.79 304.17 110.07 303.93 109.89 303.69 110.07"/>
      <polygon class="cls-4" points="300.4 112.37 300.4 111.51 299.63 111.36 300.23 110.73 299.86 110.04 300.65 110.13 301.13 109.29 301.6 110.11 302.4 110.04 302.02 110.73 302.63 111.36 301.86 111.51 301.86 112.37 301.13 111.82 300.4 112.37"/>
      <polygon class="cls-4" points="302.07 67.33 303.74 71.44 307.97 70.19 305.83 74.07 309.43 76.62 305.08 77.35 305.35 81.78 302.07 78.81 298.8 81.78 299.06 77.35 294.72 76.62 298.32 74.07 296.18 70.19 300.4 71.44 302.07 67.33"/>
      <path class="cls-4" d="m286.78,159.4c-.5.19-.7.33-.57.85l.6,2.52c.11.47.14,1.2-.17,1.65-.37.54-1.15.89-1.72,1.02-.41.1-1.31.27-2.03-.04-.48-.2-.78-.42-.99-1.27l-.62-2.64c-.16-.66-.41-.62-.94-.54l-.05-.2,3.18-.76.05.2c-.62.17-.91.25-.74.94l.62,2.64c.11.45.36,1.54,1.72,1.21,1.65-.4,1.39-1.61,1.27-2.11l-.57-2.41c-.11-.48-.29-.72-1.11-.56l-.05-.2,2.07-.5.05.2Z"/>
      <path class="cls-4" d="m291.49,159.93c-.29-.52-1.06-1.3-2.17-1.05-.49.11-.96.46-.84.98.09.43.31.56,1.18.72l1.51.27c.35.06,1.17.36,1.36,1.23.15.7-.24,1.79-1.98,2.17-.9.2-1.38.03-1.67.09-.2.04-.21.2-.22.33l-.27.06-.43-1.96.27-.06c.37.76,1.11,1.53,2.31,1.26,1.13-.25,1.01-1.05.98-1.15-.12-.53-.6-.62-1.27-.73l-.69-.11c-1.76-.29-1.91-.97-1.99-1.33-.11-.48-.05-1.63,1.74-2.03.76-.17,1.26,0,1.53-.07.22-.05.24-.18.25-.34l.28-.06.38,1.72-.27.06Z"/>
      <path class="cls-4" d="m297.74,163.06l-3.44.33-.02-.2c.7-.12.93-.16.86-.83l-.41-4.26c-.67.1-1.66.23-1.73,1.55l-.28.03-.12-1.63,5.78-.56.17,1.62-.28.03c-.32-1.27-1.31-1.22-1.98-1.19l.4,4.26c.07.69.3.68,1.01.65l.02.2Z"/>
      <path class="cls-4" d="m305.78,163.06l-1.98-.04-1.95-2.58h-.26s-.03,1.59-.03,1.59c-.01.65.2.68.84.76v.2s-3.27-.06-3.27-.06v-.2c.66-.05.85-.07.87-.73l.07-3.59c.01-.7-.29-.72-.84-.76v-.2s3.12.06,3.12.06c.68.01,2.72.12,2.7,1.48-.02,1-1.02,1.23-1.54,1.36l1.9,2.35c.13.15.28.16.39.16v.2Zm-4.19-2.88c1.26.02,1.77-.15,1.79-1.21.02-.82-.37-1.18-1.15-1.19-.53,0-.55.08-.6.33l-.04,2.07Z"/>
      <path class="cls-4" d="m312.13,163.87l-3.11-.39.03-.2c.6.03.77.05.81-.22.03-.22-.21-.85-.31-1.13l-2.16-.27c-.34.55-.54.86-.55.99-.04.31.42.39.74.44l-.03.2-1.95-.24.03-.2c.52,0,.69-.26,1.06-.82l2.68-4.14.27.03,1.61,4.5c.33.92.44,1.21.91,1.25l-.03.2Zm-2.69-2.27l-.73-2.08-1.14,1.84,1.87.23Z"/>
      <path class="cls-4" d="m317.76,165.02l-5.5-1.01.04-.2c.54.04.83.07.92-.42l.7-3.86c.09-.53-.29-.61-.71-.72l.04-.2,3.32.61-.04.2c-.67-.1-.97-.14-1.09.56l-.68,3.77c-.07.38.13.49.76.6,1.44.26,2.09-.3,2.69-1.12l.28.05-.72,1.74Z"/>
      <path class="cls-4" d="m321.4,165.83l-3.31-.7.04-.2c.52.07.89.11,1-.38l.79-3.84c.11-.52-.33-.63-.76-.75l.04-.2,3.31.69-.04.2c-.45-.08-.9-.16-1.01.38l-.8,3.84c-.11.51.27.61.78.75l-.04.2Z"/>
      <path class="cls-4" d="m328.13,166.7l-3.12-.32.02-.2c.6.02.78.03.8-.24.02-.22-.22-.85-.33-1.12l-2.16-.22c-.33.55-.52.87-.53,1-.03.31.43.38.75.43l-.02.2-1.95-.2.02-.2c.53-.01.69-.27,1.04-.85l2.59-4.2.27.03,1.71,4.47c.34.91.47,1.2.93,1.23l-.02.2Zm-2.74-2.21l-.77-2.06-1.1,1.87,1.88.19Z"/>
      <path class="cls-4" d="m303.41,101.22c0-1.95-1.09-.12-1.7-1.78-.44,1.4-1.76.22-1.76,1.73,0,.58.15.91.43,1.09v.58c0,.15.12.27.27.27h2.07c.15,0,.27-.12.27-.27v-.62c.25-.21.42-.55.42-.99m-1.69.37c-.57,0-1.34.39-1.34-.28,0-.96.65-.74,1.22-.74s1.45-.21,1.45.74c0,.68-.77.28-1.33.28"/>
      <path class="cls-4" d="m320.37,125.14c.49,0,.89-.35.89-.79s-.4-.79-.89-.79-.89.35-.89.79.4.79.89.79"/>
      <path class="cls-4" d="m316.17,96.27s-.42.71-.42.84c0,.26.19.47.43.47s.42-.21.42-.47c0-.01-.43-.84-.43-.84"/>
      <path class="cls-4" d="m287.54,96.27s-.42.71-.42.84c0,.26.19.47.43.47s.42-.21.42-.47c0-.01-.43-.84-.43-.84"/>
      <path class="cls-4" d="m294.69,96.27s-.42.71-.42.84c0,.26.19.47.43.47s.42-.21.42-.47c0-.01-.43-.84-.43-.84"/>
      <path class="cls-4" d="m301.85,96.27s-.42.71-.42.84c0,.26.19.47.43.47s.43-.21.43-.47c0-.01-.43-.84-.43-.84"/>
      <path class="cls-4" d="m309.01,96.27s-.42.71-.42.84c0,.26.19.47.43.47s.43-.21.43-.47c0-.01-.43-.84-.43-.84"/>
      <path class="cls-4" d="m287.55,106.1s.42.71.42.84c0,.26-.19.47-.43.47s-.43-.21-.43-.47c0-.01.43-.84.43-.84"/>
      <path class="cls-4" d="m287.55,115.65s.42.71.42.84c0,.26-.19.47-.43.47s-.43-.21-.43-.47c0-.01.43-.84.43-.84"/>
      <path class="cls-4" d="m288.69,123.21s.42.71.42.84c0,.26-.19.47-.43.47s-.42-.21-.42-.47c0-.01.43-.84.43-.84"/>
      <path class="cls-4" d="m294.7,127.22s.42.71.42.84c0,.26-.19.47-.43.47s-.43-.21-.43-.47c0-.01.43-.84.43-.84"/>
      <path class="cls-4" d="m316.53,106.1s-.42.71-.42.84c0,.26.19.47.42.47s.42-.21.42-.47c0-.01-.43-.84-.43-.84"/>
      <path class="cls-4" d="m316.53,115.65s-.42.71-.42.84c0,.26.19.47.42.47s.42-.21.42-.47c0-.01-.43-.84-.43-.84"/>
      <path class="cls-4" d="m315.38,123.21s-.42.71-.42.84c0,.26.19.47.43.47s.42-.21.42-.47c0-.01-.43-.84-.43-.84"/>
      <path class="cls-4" d="m309.38,127.22s-.42.71-.42.84c0,.26.19.47.43.47s.43-.21.43-.47c0-.01-.43-.84-.43-.84"/>
      <path class="cls-4" d="m302.07,131.48s-.42.71-.42.84c0,.26.19.47.43.47s.42-.21.42-.47c0-.01-.43-.84-.43-.84"/>
      <path class="cls-4" d="m313.72,117.24c.09.14.31.18.6.08l.27-.77c.02-.05-.31-.36-.51-.31-.76.18-1.58.27-2.03,1,0,.5.36.95.72,1.18.27-.09.31.18.49.32.05.23-.09.41-.31.41-.54-.54-1.49.18-1.89-.5.18-.68.54-1.45-.05-2.09.05-.14.27-.27.14-.41-.22-.63-.9-.14-1.31-.14-.67-.09-1.22.27-1.62.82.05.23.14.45.36.68.18-.05.27,0,.32.18l-.45.27c.13.14.13.32.18.5-.32.14-.63-.32-.77-.54,0-.36.05-1-.45-1.09-.09,0-.39.13-.39.13-.11.14-.18.42-.18.75s.18.81.18.81c0,0,1.39,1.03,1.7,1.66-.41.82-.41,1.95-1.35,2.4-.27.18-.27.45-.27.73l.23.18c.59-.32,1.71-.41,1.62-1.41.23-.41.45-.86.85-1.18.45-.09.86.14,1.04.5-.14.68-.59,1.13-1.22,1.36-.09.09-.05.23-.05.36.18.32.68.18.95.14.77-.5,1.08-1.41,1.76-1.68.09.45-.9.59-.27,1.04.41-.09.95.05,1.22-.5-.32-.77,1.08-1.13.22-1.81,0-.68.72-.95.67-1.68-.27-.73-1.13-.73-1.35-1.41.27-.18.68-.14.95,0"/>
      <path class="cls-4" d="m280.83,125.49c.49,0,.89-.35.89-.79s-.4-.79-.89-.79-.89.35-.89.79.4.79.89.79"/>
      <path class="cls-4" d="m234.4,152.61c.49,0,.88-.38.88-.84s-.39-.84-.88-.84-.88.38-.88.84.39.84.88.84"/>
      <path class="cls-4" d="m263.95,159.2h-.06l-.06-.07h0v.05s0,.02.02.02h0s-.09,0-.09,0h0s.03,0,.03-.03v-.1s0-.02-.03-.02h0s.09,0,.09,0c.02,0,.08,0,.08.04,0,.03-.03.04-.04.04l.06.07s0,0,.01,0h0Zm-.12-.08s.05,0,.05-.04c0-.02-.01-.03-.03-.03-.02,0-.02,0-.02.01v.06Z"/>
      <path class="cls-4" d="m264.07,159.09s-.02-.04-.06-.04c-.01,0-.03,0-.03.02,0,.01,0,.02.03.03l.04.02s.03.02.03.04c0,.02-.02.05-.07.05-.03,0-.04,0-.05,0s0,0,0,0h0v-.06h0s.02.05.06.05c.03,0,.04-.02.04-.03,0-.02-.01-.02-.03-.03h-.02s-.05-.05-.05-.06c0-.01,0-.05.06-.05.02,0,.04,0,.05,0,0,0,0,0,0,0h0v.05h0Z"/>
      <path class="cls-4" d="m264.37,159.04s-.02,0-.02.02l-.06.14h0l-.05-.11h0l-.05.11h0l-.06-.14s0-.01-.02-.02h0s.08,0,.08,0h0s-.02,0-.02.02c0,0,0,0,0,0l.03.09h0l.03-.07v-.02s-.02,0-.03,0h0s.09,0,.09,0h0s-.02,0-.02.02c0,0,0,0,0,.01l.03.08h0l.03-.08s0,0,0,0c0-.01-.01-.01-.02-.01h0s.05,0,.05,0h0Z"/>
      <path class="cls-4" d="m264.38,159.19s.06-.02.08-.06c0,0,0,0-.01,0s0,0-.01,0c-.02,0-.05,0-.05-.05,0-.01,0-.05.06-.05.03,0,.07.01.07.07,0,.04-.04.09-.13.1h0Zm.07-.07s.01,0,.01,0c0,0,0-.02,0-.02,0-.05,0-.06-.02-.06-.02,0-.02.01-.02.03,0,.03,0,.05.03.05"/>
      <path class="cls-4" d="m264.54,159.09s.04,0,.06.01c.01,0,.03.02.03.05,0,.03-.03.06-.08.06-.02,0-.04,0-.04-.02,0,0,0-.02.02-.02.02,0,.04.02.05.02,0,0,.03,0,.03-.03,0-.01-.02-.03-.03-.03-.02,0-.04,0-.06,0l.03-.08h.09v.03h-.09v.02Z"/>
      <path class="cls-4" d="m318.54,95.14v-.02h-33.03v.02h0l.03,25.25c0,2.58,1.09,4.83,2.6,5.52l12.7,8.07c.28.32.69.52,1.16.52.4,0,.76-.16,1.03-.4l12.9-8.19c1.51-.69,2.6-2.94,2.6-5.52l.03-25.25h0Zm-.93,25.58c-.17,1.91-.82,3.5-2.14,4.4l-12.45,7.92h-.07c-.26.21-.59.34-.96.34s-.71-.14-.98-.35l-12.43-7.9c-1.32-.9-1.97-2.49-2.14-4.4v-24.7h31.18v24.7Z"/>
      <path class="cls-4" d="m306.47,131.93l.4-.19c-.17.06-.29.13-.4.19"/>
      <path class="cls-4" d="m281.55,166.44l-3.11.36-.02-.2c.59-.11.76-.14.73-.4-.02-.22-.4-.78-.57-1.02l-2.16.25c-.2.61-.32.96-.3,1.09.04.31.5.28.83.26l.02.2-1.95.23-.02-.2c.51-.13.61-.41.84-1.05l1.62-4.66.27-.03,2.63,3.99c.53.81.72,1.07,1.18,1l.02.2Zm-3.15-1.56l-1.2-1.84-.68,2.06,1.87-.22Z"/>
      <path class="cls-4" d="m336.26,154.61c-.57-1.48-1.75-2.48-3.22-2.96-1.52-.33-3.13-.1-4.12,1.05-1.71,1.39-.52,3.68-.47,5.54,0,.38.05.67-.33.86-6.87-.62-13.27-2.34-20.1-3.06-1.57-.27-3.14-.2-4.63-.52l-1.91-.2c-5.93.19-11.85.53-17.4,1.96-1.18.38-2.51.48-3.7.91-.85-.14-1.56.48-2.37.24l-1.56.37c-.15.03-.32.02-.53-.03-.76-1.96,1.52-3.15.81-5.06-.62-1.1-1.85-2.15-3.27-1.96-1.61-.19-3.03.72-3.79,1.96-1.09,2.39.29,4.87.71,7.21-.1.76.76,1.62,0,2.24-1.52-1.05-3.51-1.62-5.36-1.1-.57.29-1.61-.09-1.9.57,2.04,1.1,4.65.95,6.92.86.29-.1.47-.14.71.05.19,1.24-.24,2.91.52,4.01.85,1.15,2.28,1.43,3.65,1.58,4.36-.14,8.25-1.43,12.23-2.44.62-.05,1.09-.38,1.75-.38,2.13-.48,4.46-.86,6.73-.91-1,1.29-1.56,2.72-1.99,4.3-.57,1.29,1,1.48,1.47,2.2-1.47.43-2.51,1.43-3.89,2-3.03-.1-5.59,1.05-8.44,1.38-.05.62,1,.43,1.09,1.05-.14.43-.57.48-.9.72-.05.29,0,.33.29.38.28-.33.9-.1,1.18-.43.95,0,1.75-.29,2.65-.33.81-.33,1.71-.38,2.42-.96.99-.29,1.61-.95,2.61-1.24,1.42,0,2.7-.48,4.03-.57v.29c-1.09,1.77-2.23,3.58-3.37,5.25-.19.33.05.67.33.76.66.19,1.33,0,1.85-.29,1-1.72,1.9-3.34,2.7-5.11.33-1.62,1.52-2.48,2.7-3.58.19-.1.47-.38.66-.1-.95,1.1-1.56,2.15-2.27,3.34-.38,1.34-.48,3.05.71,4.15.57.48,1.42.33,2.18.38,1.85-.95,4.22.57,5.64-1.24.85-.14.99.86,1.47,1.34.81.24,1.66,1.05,2.47.48-.05-.52-.62-1-.9-1.48-.57-1-1.28-1.81-1.8-2.72-.24-.67-.66-1.1-.76-1.77.85.29,1.61.86,2.56,1,.81.33,1.8.29,2.56.76.62.81,1.56,1.29,2.37,1.81,1.18.57,2.51.67,3.74,1.15.47.05,1.19.43,1.52,0-.19-.24-.43-.38-.71-.53-.14-.62.85-.29,1.19-.76-.12-.24-.32-.33-.55-.36-.68-.36-2.37-.49-2.82-.74-.57-.09-1.09-.33-1.66-.52-2.84,0-4.41-2.58-6.68-3.53.52-.48,1.33-.86,1.66-1.58.43-.67.57-1.77.14-2.53-.43-1.48-2.32-1.29-3.41-2.1l.14-.14c1.85-.1,3.46.33,5.12.67,4.55.62,8.77,2.34,13.51,2.44,2.61,0,5.88.14,7.16-2.39.24-1.48.52-2.96.76-4.44.57-2.39,2.13-4.58,1.9-7.21m-51.19,21.77l-.66-.62c.33-.43,1.04-.19,1.56-.48,1.23-.38,2.66-.86,4.03-.57-1.42,1.15-3.27,1.29-4.93,1.67m29.59-.76c1.13.51,3.41,1.01,5.06,1.2-.15.65-1.3.04-1.17.95-1.47-.57-3.18-.86-4.27-2.01.09-.05.19-.19.38-.14m-44.48-20.29c.14-.86.33-1.77,1.14-2.39,1.14-.62,2.7-.48,3.75.14.33.19.57.48.76.91.24.81-.14,1.67-.71,2.15h-.47c0-.76,0-1.53.28-2.15-.05-.57-.52-.62-.9-.86-.81-.24-1.52.14-2.13.48-.47.57-.9,1.29-.61,2.1.33.53.05,1.24.23,1.81l-.14.19c-.57-.62-1.33-1.29-1.18-2.39m2.23,1.37c.71.52,1.71.29,2.56.43.14.52.14,1.19-.24,1.62-.81-.19-1.85-.1-2.28-.86.09-.34-.14-.81-.05-1.19m-.14-1.6c.14-.38,0-.95.52-1.05.33-.1.85-.1.9.29-.05.57-.09,1.14-.24,1.67-.66.05-1-.33-1.19-.91m22.23,15.33c-.24-1.67.43-3.1,1.52-4.3.66-.14,1.42-.29,2.04.1-1.23.33-2.8.62-3.08,2.2.05.62-.14.95.14,1.48.52.91,1.71.53,2.37,1.24,0,.24-.19.52-.43.57-.81-.48-1.8-.67-2.56-1.29m-1.71,3.29c1.14-.48,2.32-1.48,3.6-1.05-.9.72-2.37,1-3.6,1.05m4.5.48c-.66,1.53-1.42,3.01-2.32,4.49-.09.24-.47.29-.76.33,0-.67.66-1.19.95-1.77.99-1.29,1.28-2.67,2.42-3.91.28.29-.28.48-.28.86m1.18-2.77v.19h-.1v-.24h.19s-.14,0-.19.05h.1Zm-.43-1.29c-.81-.09-1.57-.33-2.28-.57-.48-.48,0-1,0-1.53.66-1.05,2.56-1.58,3.46-.62-.14,1.05-.52,1.96-1.18,2.72m1.04,0c.14-.62.43-1.43.76-2-.05.62-.33,1.48-.76,2m.52-3.87c-.62-.14-.95-.86-1.61-.86.57-.19,1.14-.14,1.8-.05.24.33-.14.62-.19.91m.57,1.43h-.05v-.52h.05v.52Zm.05,2.2c-.05-.19.09-.43.14-.67.24-.24.47.19.57.33-.14.24-.43.38-.71.33m.71-2.96c.24-.67.28-1.24.71-1.77.47,0,.9,0,1.28.19.1.96,1.28,2.24,0,3.06-.43.19-1.04.62-1.52.19-.62-.53-.71-1-.47-1.67m3.46-1.34c-.09-.43.43-.1.62-.29l1.47.1c-.76-.1-1.71,1.67-2.09.19m2.37.62c-.57.19-1,.86-1.56,1,.28-.53,1-1.05,1.56-1m-1.99,3.1h-.05v-.14h.05v.14Zm.1,2.77c-.05.09.05.24-.1.33l-1.09-.86c.52-.1.9.14,1.19.53m-1.28-1.48c.09-.1.33-.1.43,0h-.43Zm-.66-.72c.19-.29.43-.72.76-.72,0,.05.05.1.1.14-.29.24-.52.48-.85.57m-1.09-.09h-.19l.28-.29c.14.1-.05.19-.09.29m.14,1.81c.62-.67,1.19.38,1.42.91.71,1.05,2.56,2.01,1.85,3.44-.9.81-2.32.05-3.32.67-.52-.05-1.42.1-1.71-.43.52-1.53,1-3.25,1.75-4.58m-1.33.91l.24-.38c-.38,1.15-.95,2.34-1.57,3.44-.28-1.14.9-2.05,1.33-3.06m2.09,5.68c-.9.05-2.28.57-3.13-.19.05-.38-.38-.57-.33-.95.76-.29,1.42.62,2.13-.05,1.09.05,2.23-.14,3.32.1.52.14,1.33-.86,1.42.14-.38,1.58-2.27.48-3.41.95m2.75-7.02h.09v.14h-.09v-.14Zm.28,3.15c.05.48.52.67.24,1.1-.09-.19-.38-.62-.24-1.1m1.33,2.86l-.24.1c-.24-.19-.14-.72-.09-1,.28.24.52.57.33.91m2.37,1.15c-.05.14-.29.14-.38.05-1.42-1.81-2.09-3.72-2.99-5.73l.19-.05c1.14,1.86,2.04,3.91,3.18,5.73m1.75-4.39c-.09.05-.09.14-.09.19-1.38.05-2.28-.76-3.32-1.48l-.05-.24c1.28.09,2.32.91,3.46,1.53m-1.23-6.35c.57.14.62.76.66,1.24-.05,1.05-.62,1.96-1.61,2.34-.52.29-1.33.38-1.85.19,1.14-.05,2.37-.48,2.85-1.62l-.05-2.15Zm-1.04-.19c.24.67.66,1.29.43,2.1-.47.91-1.42.91-2.28,1.1-.43.05-.76-.1-1.09-.33.05-.19-.05-.33-.19-.48.14-.62-1.09-1.24-.24-1.77.76-.72,2.56-2.34,3.37-.62m24.08-3.48c-.38.48-.05,1.24-.52,1.67,0,.86-.71,1.29-1.33,1.62-5.64,1.24-11.19-.67-16.64-1.62-7.63-1.67-16.54-2.15-24.32-.38-3.65.67-7.2,1.53-10.71,2.53-2.18.29-4.55.62-6.64-.05-1.71-.81-1-3.01-1.52-4.54.1-1.19-.33-2.15-.38-3.29-.14-.38-.24-.86-.19-1.24.71.1,1.42.62,2.18.81,3.98.76,7.54-.52,11.23-1.19,3.56-.76,7.2-1.38,10.95-1.67,4.27-.05,8.63-.29,12.7.43,1.33.05,2.47.38,3.74.48,2.66.33,5.12,1.05,7.82,1.24.43.14.95.14,1.42.24,4.27.67,9.05,1.86,13.13,0,0,1.72-.71,3.29-.95,4.97m-1.33-5.82c.05.76-.66.57-1.04.86h-1.14c-.24-.38-.14-.95-.14-1.34.76.14,1.61.14,2.32.48m-.52-1.19c.52-.53-.14-3.53,1.33-1.58,0,.38.05.95-.33,1.24-.24.19-.62.57-1,.33m3.84-.48c-.43.86-1.09,1.48-2.04,1.62.05-1.15,1.09-1.96.71-3.25-.62-.91-1.85-1.19-2.99-.95-.43.29-.24.76-.38,1.19l-.19,1.58c-.95,0-1-.86-1.28-1.53.05-1,.47-2.01,1.47-2.48.76-.38,1.99-.33,2.75.1.62.14,1.33.43,1.56,1,.71.67.52,1.86.38,2.72"/>
    </g>
  </g>
  <g>
    <path class="cls-4" d="m673.95,136.39v-45.27h13.93c3.98,0,7.54.9,10.68,2.69,3.14,1.79,5.59,4.34,7.35,7.65,1.76,3.31,2.64,7.06,2.64,11.27v2.08c0,4.21-.87,7.95-2.6,11.22-1.73,3.28-4.17,5.81-7.32,7.62s-6.7,2.72-10.66,2.74h-14.02Zm9.33-37.71v30.22h4.51c3.65,0,6.44-1.19,8.36-3.58,1.93-2.38,2.91-5.79,2.95-10.23v-2.39c0-4.6-.95-8.09-2.86-10.46-1.91-2.37-4.69-3.56-8.36-3.56h-4.6Z"/>
    <path class="cls-4" d="m733.39,136.39h-9.33v-45.27h9.33v45.27Z"/>
    <path class="cls-4" d="m786,130.67c-1.68,2.01-4.05,3.57-7.12,4.68-3.07,1.11-6.47,1.66-10.2,1.66-3.92,0-7.35-.85-10.31-2.56-2.95-1.71-5.23-4.19-6.84-7.45-1.61-3.25-2.43-7.08-2.47-11.47v-3.08c0-4.52.76-8.43,2.29-11.74,1.52-3.3,3.72-5.83,6.59-7.59,2.87-1.75,6.23-2.63,10.09-2.63,5.37,0,9.57,1.28,12.59,3.84s4.82,6.28,5.38,11.18h-9.08c-.42-2.59-1.33-4.49-2.75-5.69-1.42-1.2-3.37-1.8-5.86-1.8-3.17,0-5.59,1.19-7.24,3.58s-2.5,5.93-2.52,10.63v2.89c0,4.75.9,8.33,2.71,10.76,1.8,2.43,4.44,3.64,7.93,3.64s6-.75,7.49-2.24v-7.8h-8.49v-6.87h17.81v18.06Z"/>
    <path class="cls-4" d="m811.63,136.39h-9.33v-45.27h9.33v45.27Z"/>
    <path class="cls-4" d="m861.59,98.68h-13.87v37.71h-9.33v-37.71h-13.68v-7.55h36.87v7.55Z"/>
    <path class="cls-4" d="m896.88,127.06h-16.35l-3.11,9.33h-9.92l16.85-45.27h8.64l16.94,45.27h-9.92l-3.14-9.33Zm-13.84-7.56h11.32l-5.69-16.94-5.63,16.94Z"/>
    <path class="cls-4" d="m931.64,128.9h19.8v7.49h-29.13v-45.27h9.33v37.77Z"/>
    <path class="cls-4" d="m1014.51,127.06h-16.35l-3.11,9.33h-9.92l16.85-45.27h8.64l16.94,45.27h-9.92l-3.14-9.33Zm-13.84-7.56h11.32l-5.69-16.94-5.63,16.94Z"/>
    <path class="cls-4" d="m1070.29,98.68h-13.87v37.71h-9.33v-37.71h-13.68v-7.55h36.87v7.55Z"/>
    <path class="cls-4" d="m1093.08,128.9h19.8v7.49h-29.13v-45.27h9.33v37.77Z"/>
    <path class="cls-4" d="m1152.53,127.06h-16.35l-3.11,9.33h-9.92l16.85-45.27h8.64l16.94,45.27h-9.92l-3.14-9.33Zm-13.84-7.56h11.32l-5.69-16.94-5.63,16.94Z"/>
    <path class="cls-4" d="m1201.44,124.51c0-1.76-.62-3.11-1.86-4.06-1.24-.94-3.48-1.94-6.72-2.98-3.23-1.05-5.79-2.08-7.68-3.09-5.14-2.78-7.71-6.52-7.71-11.22,0-2.45.69-4.63,2.07-6.54,1.38-1.92,3.36-3.42,5.94-4.49,2.58-1.08,5.48-1.62,8.69-1.62s6.11.59,8.64,1.76c2.53,1.17,4.49,2.83,5.89,4.96s2.1,4.56,2.1,7.27h-9.33c0-2.07-.65-3.68-1.96-4.83-1.31-1.15-3.14-1.73-5.5-1.73s-4.05.48-5.32,1.45-1.9,2.23-1.9,3.81c0,1.47.74,2.7,2.22,3.7,1.48,1,3.66,1.93,6.54,2.8,5.31,1.59,9.17,3.57,11.6,5.94,2.42,2.36,3.64,5.31,3.64,8.83,0,3.92-1.48,6.99-4.45,9.22-2.96,2.23-6.95,3.34-11.97,3.34-3.48,0-6.65-.64-9.51-1.91-2.86-1.27-5.04-3.02-6.55-5.24-1.5-2.22-2.25-4.79-2.25-7.71h9.36c0,5,2.98,7.49,8.95,7.49,2.22,0,3.95-.45,5.19-1.35,1.24-.9,1.86-2.16,1.86-3.78Z"/>
  </g>
  <g>
    <path class="cls-4" d="m767.88,179.39c0,2.77-.48,5.21-1.44,7.31s-2.33,3.71-4.11,4.84c-1.78,1.13-3.84,1.7-6.17,1.7-3.52,0-6.36-1.26-8.53-3.78-2.17-2.52-3.25-5.92-3.25-10.19v-3.11c0-2.75.49-5.18,1.46-7.3s2.35-3.75,4.13-4.89,3.83-1.71,6.15-1.71,4.36.56,6.14,1.68c1.77,1.12,3.14,2.7,4.11,4.74.97,2.04,1.47,4.41,1.51,7.1v3.6Zm-2.55-3.27c0-3.63-.82-6.47-2.46-8.53s-3.89-3.08-6.75-3.08-5.03,1.03-6.7,3.09c-1.66,2.06-2.49,4.94-2.49,8.64v3.15c0,3.57.83,6.41,2.48,8.5,1.66,2.09,3.91,3.14,6.75,3.14s5.13-1.03,6.75-3.09c1.61-2.06,2.42-4.94,2.42-8.62v-3.19Z"/>
    <path class="cls-4" d="m801.54,178.73h-14.06v14.1h-2.55v-30.14h18.67v2.15h-16.13v11.74h14.06v2.15Z"/>
    <path class="cls-4" d="m856.65,184.36h-13.68l-3.11,8.47h-2.67l11.41-30.14h2.42l11.41,30.14h-2.65l-3.13-8.47Zm-12.9-2.15h12.09l-6.04-16.42-6.05,16.42Z"/>
    <path class="cls-4" d="m897.91,162.69v20.58c-.01,2.03-.46,3.8-1.35,5.3-.88,1.5-2.13,2.66-3.74,3.47-1.61.81-3.45,1.21-5.54,1.21-3.17,0-5.72-.87-7.63-2.6-1.91-1.73-2.9-4.13-2.97-7.19v-20.76h2.52v20.39c0,2.54.72,4.51,2.17,5.91s3.42,2.1,5.9,2.1,4.45-.7,5.89-2.11c1.44-1.41,2.16-3.37,2.16-5.88v-20.41h2.57Z"/>
    <path class="cls-4" d="m932.71,185.42c0-1.67-.59-2.99-1.76-3.96-1.17-.97-3.32-1.9-6.44-2.77-3.12-.88-5.4-1.83-6.83-2.87-2.04-1.46-3.06-3.38-3.06-5.75s.95-4.18,2.85-5.62c1.9-1.44,4.32-2.16,7.28-2.16,2,0,3.79.39,5.37,1.16,1.58.77,2.8,1.85,3.67,3.23.87,1.38,1.3,2.92,1.3,4.62h-2.57c0-2.06-.7-3.72-2.11-4.97-1.41-1.25-3.3-1.88-5.67-1.88s-4.14.51-5.51,1.54c-1.37,1.03-2.05,2.37-2.05,4.03,0,1.53.61,2.79,1.84,3.75,1.23.97,3.2,1.82,5.9,2.56,2.7.74,4.75,1.51,6.15,2.3s2.44,1.74,3.15,2.85c.7,1.1,1.06,2.41,1.06,3.91,0,2.37-.95,4.28-2.85,5.71-1.9,1.44-4.4,2.15-7.5,2.15-2.13,0-4.08-.38-5.85-1.14s-3.12-1.82-4.04-3.19c-.92-1.37-1.38-2.93-1.38-4.7h2.55c0,2.13.79,3.8,2.38,5.03,1.59,1.23,3.7,1.84,6.33,1.84,2.35,0,4.23-.52,5.65-1.55,1.42-1.04,2.13-2.41,2.13-4.12Z"/>
    <path class="cls-4" d="m971.85,164.84h-10.33v27.99h-2.55v-27.99h-10.31v-2.15h23.18v2.15Z"/>
    <path class="cls-4" d="m998.62,180.26h-8.76v12.57h-2.57v-30.14h9.79c3.22,0,5.73.78,7.54,2.34s2.71,3.74,2.71,6.53c0,1.93-.57,3.63-1.7,5.11-1.13,1.47-2.65,2.49-4.55,3.06l7.54,12.83v.27h-2.71l-7.29-12.57Zm-8.76-2.15h7.8c2.14,0,3.86-.61,5.15-1.82,1.3-1.22,1.95-2.79,1.95-4.73,0-2.13-.68-3.78-2.03-4.95s-3.25-1.76-5.69-1.76h-7.18v13.27Z"/>
    <path class="cls-4" d="m1041.18,184.36h-13.68l-3.11,8.47h-2.67l11.41-30.14h2.42l11.41,30.14h-2.65l-3.13-8.47Zm-12.9-2.15h12.09l-6.04-16.42-6.05,16.42Z"/>
    <path class="cls-4" d="m1064.6,190.68h14.88v2.15h-17.45v-30.14h2.57v27.99Z"/>
    <path class="cls-4" d="m1098.12,192.83h-2.55v-30.14h2.55v30.14Z"/>
    <path class="cls-4" d="m1133.58,184.36h-13.68l-3.11,8.47h-2.67l11.41-30.14h2.42l11.41,30.14h-2.65l-3.13-8.47Zm-12.9-2.15h12.09l-6.04-16.42-6.05,16.42Z"/>
  </g>
  <line class="cls-2" x1="603.85" y1="45.24" x2="603.85" y2="238.51"/>
</svg>