<?xml version="1.0" encoding="utf-8"?>
<!-- Generator: Adobe Illustrator 25.2.1, SVG Export Plug-In . SVG Version: 6.00 Build 0)  -->
<svg version="1.1" id="Layer_1" xmlns="http://www.w3.org/2000/svg" xmlns:xlink="http://www.w3.org/1999/xlink" x="0px" y="0px"
	 viewBox="0 0 2822 1415" style="enable-background:new 0 0 2822 1415;" xml:space="preserve">
<style type="text/css">
	.st0{clip-path:url(#SVGID_2_);fill:#FFFFFF;}
	.st1{clip-path:url(#SVGID_2_);fill:#0E49FF;}
	.st2{clip-path:url(#SVGID_2_);fill:#F2541A;}
</style>
<g>
	<defs>
		<rect id="SVGID_1_" width="2822" height="1415"/>
	</defs>
	<clipPath id="SVGID_2_">
		<use xlink:href="#SVGID_1_"  style="overflow:visible;"/>
	</clipPath>
	<rect class="st0" width="2822" height="1415"/>
	<path class="st1" d="M2822,733.9c-8.1,22.6-16.3,43.3-25.1,62.6c-9.6,21.3-20.7,43.5-37.3,61.8c-11.6,12.7-25.6,23.3-39.3,33.6
		c-6.4,4.8-13,9.8-19.4,15c-26.5,21.7-48.9,47.5-66.7,76.8c-7.8,12.8-16.4,29.8-13.4,47c2.7,16.3,15.9,30.9,34.2,38.3
		c16.7,6.6,35.1,6.9,51,6.7c9.7-0.2,18.9-0.5,27.7-1.2l-0.1-0.1c26.9-1.9,49.7-6.2,70.3-13c6.2-2.1,12.2-4.4,18-6.9 M2821.9,1047.8
		c-7.1,3.2-13.8,5.8-19.9,7.8c-26.6,8.9-57.2,13.3-96.1,13.9c-15.3,0.3-33,0-48.6-6.3c-12.9-5.1-27.6-16.7-30.5-33.7
		c-2.6-15.3,5.4-31,12.7-42.9c17.4-28.7,39.4-54,65.4-75.2c6.2-5.1,12.8-10,19.2-14.8c13.9-10.4,28.2-21.2,40.1-34.4
		c17.2-19,28.6-41.6,38.3-63.4c6.8-15.1,13.3-31,19.7-47.9"/>
	<path class="st1" d="M2446.4,0c-2.3,6.2-4,12.7-4.4,19.6c-2.3,32.8,21.1,57.7,43.8,81.8c8.8,9.3,17.8,19,25.2,28.9
		c39.9,53.9,35.7,127.4,26.2,192.2l-1.3,9.1c-5.2,34.5-10.4,70.1-3.4,104.7c3.6,17.8,11.1,34.7,21.7,48.7
		c7.7,10.3,20.7,14.3,33,10.2c12.7-4.2,20.9-15.6,21-28.8c0.2-35.4,3-81.2,23.5-121.6c17.6-34.8,47.8-65.6,94.8-96.7
		c28.3-18.8,60.9-35.8,95.7-48.4l0-6.2c-35.8,12.8-69.5,30.3-98.7,49.6c-47.9,31.8-78.7,63.3-96.8,99c-21.1,41.6-24,88.3-24.2,124.3
		c-0.1,10.7-6.7,19.8-16.8,23.2c-7.8,2.6-18.8,1.8-26.3-8.1c-9.9-13.1-17.2-29.5-20.6-46.2c-6.8-33.5-1.6-68.7,3.4-102.7l1.3-9.1
		c9.7-66,14-141-27.3-196.6c-7.6-10.2-16.8-20-25.7-29.5c-22.7-24.2-44.3-47.2-42.1-77.3c0.5-7,2.3-13.7,5-20.1L2446.4,0z"/>
	<path class="st1" d="M2822,108.9c-18.4,6.7-35.7,15.4-51.4,26.2c-6,4.1-11.8,8.6-17.5,12.9c-18.9,14.5-36.8,28-60.5,31.6
		c-14.1,2.1-27.7-1.3-37.2-9.3c-15.9-13.3-15.7-32.2-15.5-52.1c0.1-9.8,0.2-19.9-1.6-29.6c-4-20.6-16.8-37.5-29.1-53.9
		c-5.4-7.2-11.1-14.7-15.8-22.3c-2.5-4-4.7-8.2-6.8-12.4l-6.3,0c2.4,5.3,5.2,10.5,8.3,15.5c4.9,7.8,10.6,15.5,16.1,22.8
		c12.5,16.6,24.2,32.3,28,51.5c1.7,9,1.7,18.9,1.6,28.4c-0.2,20.5-0.4,41.7,17.6,56.8c10.8,9,26.1,13,42,10.6
		c25.2-3.8,44.6-18.5,63.3-32.7c5.6-4.3,11.4-8.7,17.3-12.8c14.6-10.1,30.6-18.3,47.7-24.7"/>
	<path class="st1" d="M2740.9,0c18.4,31.5,49.1,51.8,81.1,54.1l0.1-6.2c-29.1-2-56.5-19.9-74-47.9"/>
	<path class="st1" d="M2822,307.8c-17.8-1.4-35.8-0.4-54,4c-22,5.3-41.3,15.9-55.8,30.5c-40,40.2-33.4,92.9-27,143.9
		c1.4,10.8,2.7,22,3.6,32.8c2.9,35,0.3,70.1-7.7,104.3c-12.2,52.1-47.3,110-106.1,101.6c-17-2.4-33.9-10.9-48.8-24.6
		c-39.7-36.3-58.4-93-57.3-173.2c0.3-19.4,1.5-39.1,2.7-58.2c2.4-39,5-79.2-0.5-118.5c-7.9-56.3-31.6-108.5-54.6-159
		c-19.2-42.3-37.9-78.9-72.6-99.3c-36.1-21.3-79.5-18.5-121.5-15.8c-7.1,0.5-14.1,0.9-21,1.2c-37.6,1.8-129-1-165.8-64.7
		c-2-3.4-4.2-8-5.2-12.8l-6.1,0c0.8,4.9,2.9,10.2,6.1,15.9c38.4,66.6,132.6,69.5,171.3,67.7c7-0.3,14.1-0.8,21.1-1.2
		c41.1-2.7,83.5-5.4,118,15c33.2,19.6,51.5,55.3,70.2,96.7c22.8,50.1,46.3,102,54.1,157.4c5.4,38.8,3,78.7,0.5,117.3
		c-1.2,19.2-2.4,39-2.7,58.5c-1.1,82,18.3,140.2,59.3,177.7c15.9,14.5,33.8,23.6,52.1,26.1c6.2,0.9,12.2,1,18,0.6l0.3,0
		c52-3.8,83.3-57.8,94.8-106.9c8.2-34.8,10.8-70.6,7.8-106.2c-0.9-10.9-2.3-22.1-3.7-33c-6.2-49.6-12.6-100.8,25.3-138.9
		c13.7-13.8,32.1-23.8,52.9-28.8c17.5-4.3,35-5.2,52.2-3.9L2822,307.8z"/>
	<path class="st1" d="M2822,1362.4c-24.8-9.8-52.1-12.5-77.2-10.7l-0.2,0.1c-9.5,0.7-18.8,2-27.5,3.8c-36.4,7.8-70.9,24.1-100,47.1
		c-4.9,3.9-9.7,8-14.4,12.3l8.9,0c3-2.6,6-5.1,9.1-7.6c28.3-22.5,62.1-38.4,97.5-45.9c31.2-6.7,70.1-6.6,103.6,7.5 M2822,1163.6
		c-102.7,36.2-227.3,48.4-311.3-9.9c-12.8-8.8-24.8-19.2-36.5-29.2c-17.5-14.9-35.5-30.3-56.3-41.4c-35.1-18.6-84.5-21.5-111.1,9.2
		c-6.1,7.1-10.5,15.3-14.7,23.3c-3,5.6-6.1,11.4-9.7,16.6c-8.1,11.8-22.3,21.9-35.6,18.3l-2.9-0.8l-0.8,2.9
		c-10.7,37.6,11.4,71.8,32.9,104.9c18.3,28.2,37.2,57.4,36.5,89.2c-0.3,11.9-3.4,23.8-6.4,35.4c-2.6,10.1-5.4,20.5-6.3,31.1
		c-0.1,0.6-0.1,1.3-0.1,1.9h6.1c0-0.5,0.1-1,0.1-1.5c0.9-10.1,3.5-20.3,6.1-30.1c3.1-11.9,6.3-24.2,6.6-36.7
		c0.7-33.5-18.7-63.6-37.4-92.6c-21-32.6-41-63.3-32.9-97.3c16.2,2.7,31.1-9.5,39.2-21.3c3.8-5.5,7-11.4,10-17.2
		c4.3-8,8.3-15.6,14-22.2c24.5-28.2,70.7-25.3,103.7-7.8c20.1,10.7,37.9,25.9,55.2,40.6c11.8,10.1,24,20.5,37.1,29.5
		c85.1,59.1,210.7,47.4,314.6,11.3"/>
	<path class="st1" d="M2536.2,1341.3c5.5-0.4,11.2-1.3,17-2.7c12.6-3.1,24.7-8.2,36.5-13.2c7.7-3.2,15.6-6.6,23.6-9.3
		c27.4-9.4,58.8-13,95.9-11c0.5,0,47.9,2,53.7-12.8c1.9-4.7-0.6-10-7.3-15.6c-18.7-15.7-66.9-9.1-90.1-5.9l-2.3,0.3
		c-9.9,1.4-19.8,3.1-29.4,4.7c-21,3.6-42.6,7.2-64.1,7.5c-26.9,0.3-54.4-5.1-79.3-15.4l-1.6-0.7l-1.4,1
		c-7.8,5.8-12.3,14.9-12.6,25.8c-0.4,13.2,5.3,26.4,14.9,34.5C2501.4,1338.2,2517.8,1342.6,2536.2,1341.3L2536.2,1341.3z
		 M2668,1299.3c-20.6,1.5-39.4,5.2-56.6,11.1c-8.1,2.8-16.2,6.2-23.9,9.5c-11.5,4.9-23.4,9.9-35.6,12.9c-23.3,5.8-44.5,2.5-58.1-9
		c-8.1-6.8-13.1-18.5-12.7-29.7c0.3-8.3,3.4-15.4,8.9-20.1c25.2,10.2,52.9,15.5,80,15.2c21.9-0.2,43.9-3.9,65.1-7.5
		c9.6-1.7,19.5-3.3,29.2-4.6l2.3-0.3c20.5-2.8,68.7-9.5,85.4,4.6c2.5,2.1,6.6,6.1,5.5,8.8c-2.9,7.3-33.1,9.8-47.9,9
		C2694.9,1298.2,2681.1,1298.3,2668,1299.3L2668,1299.3z"/>
	<path class="st2" d="M1057.6,1415c0.6-24.3-5.1-47.8-16.8-67.9c-35.7-61.8-57-118.8-123.4-139.8l-9.9-3.2
		c-95-30.2-144.5-64.8-157.2-120.5c-17.7-77.7-5.5-122,59.2-158.5c18.8-10.6,38.9-20.5,58.3-30c52.5-25.7,106.8-52.3,144.1-98.3
		c62.1-76.8,57.7-179.5,53.4-279c-3.8-86.2-7.6-175.3,30.8-249.1c14.7-28.3,35.6-53.6,55.7-78.1c21.8-26.5,44.3-53.9,59.6-85.4
		c16.3-33.5,23.6-69.4,25.7-105.4l-9.1,0c-2.1,34.8-9.2,69.3-24.7,101.4c-14.8,30.5-37,57.5-58.5,83.5
		c-20.5,24.9-41.6,50.5-56.8,79.6c-39.7,75.9-35.7,166.3-31.9,253.6c4.5,102.2,8.7,198.8-51.3,272.9c-36,44.5-89.4,70.6-141,95.9
		c-19.6,9.6-39.7,19.5-58.9,30.2c-67.3,38.1-82.4,85.8-63.6,168.3c13.5,59,64.9,95.8,163.2,127l9.9,3.1
		c68,21.5,84.3,76.9,118.2,135.7c10.9,18.9,16.2,40.9,15.5,63.7"/>
	<path class="st2" d="M490.6,1415c-4.3-26.7-11.2-53.1-17.9-79c-6.7-25.4-13.5-51.7-17.7-77.7c-12-74,5.7-161.9,72.3-191.2
		c9.6-4.3,23.5-8.2,35.1-2.7c14.1,6.7,20.7,24.8,20.2,55.1c-0.3,15.2-0.8,30.4-1.3,45.7c-1.8,54.9-3.7,111.7,5.3,166.9
		c3.6,21.8,10.5,52.1,24.2,83.1l9.9,0c-14.4-31.5-21.6-62.6-25.2-84.8c-8.9-54.3-7-110.6-5.2-165.1c0.5-15.3,1-30.5,1.3-45.8
		c0.2-12.6,0.9-51-25.3-63.4c-14.6-6.9-31.2-2.4-42.6,2.6c-71,31.2-90.1,123.5-77.6,201c4.3,26.5,11.2,52.9,17.9,78.6
		c6.6,25.3,13.3,51,17.5,77"/>
	<path class="st1" d="M1158.6,1415c16.2-74.4,1.4-155.5-43.5-217.8c-22-30.5-50.3-56.3-77.8-81.3c-35.9-32.7-73.1-66.5-94.9-110.5
		c-6.8-13.6-10.3-27.1-10.6-40c-0.9-38.1,23.5-51.6,49.2-65.8c5-2.8,9.9-5.5,14.7-8.4c73.7-45.1,102.8-134.2,114.3-201
		c5.2-30.5,8.3-61.9,11.2-92.2c4.5-46.3,9.1-94.1,21.7-139.4c15.9-56.9,44.5-110.4,72.1-162.1c29.7-55.5,60.3-112.8,75.6-174.9
		c9.8-39.8,13.1-80.6,13.3-121.5l-9,0c-0.2,40.3-3.5,80.4-13.1,119.4c-15,61-45.4,117.9-74.9,172.9
		c-27.9,52.2-56.7,106.1-72.8,163.9c-12.8,46-17.5,94.3-22,141c-2.9,30.2-5.9,61.3-11.1,91.6c-11.2,65-39.3,151.6-110.1,194.8
		c-4.7,2.9-9.5,5.5-14.4,8.2c-25.7,14.2-54.9,30.4-53.9,73.9c0.3,14.2,4.2,28.9,11.5,43.8c22.6,45.6,60.4,80,96.9,113.2
		c27,24.7,55.1,50.1,76.5,79.8c43.8,60.8,57.9,140,41.6,212.5H1158.6z"/>
	<path class="st1" d="M1508.8,1415c3.2-47.7-3.9-94.5-25.5-139.3c-21.7-45-57.1-84.7-91.4-123.1c-55.9-62.6-108.7-121.7-102.4-199.4
		c2.4-29.8,14.1-58.1,25.3-85.4l73.9-179.3c4.6-11.2,14.5-19.3,26.4-21.7c11.8-2.4,23.3,1,31.7,9.4c26.6,26.3,53.1,40.1,83.5,43.4
		c30.6,3.3,59.6-10.9,73.8-36.2c26.3-46.8-12.4-99.6-59.5-128.9c-7.3-4.5-14.9-8.9-22.5-13.4c-34.3-20-69.8-40.6-83.5-76.1
		c-6.8-17.5-8.1-38.3-4.2-65.4c8.7-60.2,49.2-123.4,107.1-121.8c40.3,1.1,73.7,32.4,106,62.7c37.4,35.1,76.1,71.4,124.4,57.1
		l1.1-0.5c15.6-9.6,25.7-26.1,28.3-46.5c3.4-27.6-6.9-58.4-26.3-78.4c-28-28.9-67.1-41.8-105-54.2c-5.8-1.9-11.5-3.8-17.2-5.8
		c-35.4-12.1-84.6-33.2-102.5-76c-11.6-28-7.9-59.7-2.6-92.5c2.3-14.5,4.9-29,7.8-43.5l-9.4,0c-2.7,14-5.2,28-7.5,41.9
		c-5.5,34.1-9.4,67.3,3.2,97.4c19.2,46.3,70.7,68.4,107.8,81.1c5.7,1.9,11.5,3.9,17.3,5.7c36.8,12.1,74.9,24.6,101.3,51.9
		c17.7,18.2,27,46.1,23.9,71c-1.5,12.3-6.9,29.1-23.5,39.6c-43.1,12.3-78.1-20.4-115.1-55.1c-33.6-31.5-68.3-64.1-111.9-65.2
		c-63.2-1.6-107,65.5-116.2,129.5c-4.2,28.7-2.7,51,4.7,70c14.9,38.4,51.8,59.8,87.4,80.6c7.6,4.4,15.1,8.7,22.3,13.2
		c43.6,27.1,79.8,75.2,56.4,116.9c-12.5,22.2-38,34.6-65,31.7c-28.3-3-53.1-16-78.1-40.8c-10.4-10.3-25.3-14.8-39.8-11.8
		c-14.9,3-27.2,13.1-32.9,27.1l-73.9,179.3c-11.6,28-23.5,56.9-26,88.1c-6.6,81.5,47.5,142.1,104.7,206.1
		c33.8,37.9,68.9,77.1,90,121c20.9,43.5,27.7,89.1,24.5,135.6L1508.8,1415z"/>
	<path class="st1" d="M1842.8,1415c-4.1-56.8-36.2-109.8-62.4-147.4c-6-8.6-12.2-17.2-18.3-25.8c-32.7-45.6-66.6-92.7-77.4-147.3
		c-7.6-38.4-3.4-92.1,18.6-122.8c15.9-22.3,32.7-5.9,56.7-9.1c5.2-0.7,42.7-20.8,51.5-23.2c46.7-12.7,60.9-72.7,54.5-123
		c-1.1-8.3-2.4-16.8-3.8-25.2c-6.1-38.2-12.3-77.7,6-109.9c12.4-21.8,34.5-36.5,55.8-50.8c7.1-4.8,14.6-9.7,21.5-14.9
		c52.4-38.7,88.1-101.4,97.9-172c9.9-70.6-7.3-140.7-47.2-192.3c-17.2-22.3-38.2-41.8-58.4-60.6c-16.2-15-32.9-30.6-47.5-47.4
		c-28-32.3-49.4-70.9-61.9-111.5c-3.3-11-5-21.7-4.9-31.8l-9.6,0c-0.1,11,1.8,22.4,5.3,34.2c12.8,41.9,34.8,81.6,63.7,114.8
		c14.9,17.2,31.8,32.9,48.2,48c20,18.5,40.6,37.7,57.4,59.5c38.3,49.6,54.8,117.3,45.3,185.4s-43.9,128.7-94.4,166
		c-6.8,5-14.1,9.9-21.2,14.6c-22.2,14.8-45.2,30.2-58.6,53.8c-19.9,34.9-13.3,76-7,115.8c1.3,8.4,2.7,16.8,3.7,25
		c6,46.6-6.4,101.9-47.9,113.2c-10.3,2-45.5,24.3-51.1,25.1c-26.6,3.5-44.5-14.4-62,10c-23.4,32.7-28.4,89.8-20.3,130.4
		c11.2,56.5,45.6,104.4,78.9,150.8c6.2,8.6,12.3,17.2,18.3,25.7c25.5,36.6,56.8,88.1,60.8,142.6"/>
	<path class="st1" d="M1723.5,0c0.7,3,1.5,6.1,2.3,9.2c9.1,37,20.5,83,31.6,108.4c14.7,33.5,43.4,57.1,71.1,79.9
		c9.6,7.9,19.6,16.1,28.7,24.5c53.6,49.3,81.6,114,75.1,172.9c-6.7,60.1-60.9,123.5-128.1,118.3c-17.3-1.3-34.4-7.1-50.9-12.6
		c-25.1-8.4-51-17.1-79.7-11.7c-18.5,3.4-34.3,14.8-42.3,30.4c-13.3,26.2,0.7,47.4,13,66.1l0.5,0.7c24.1,36.6,51.6,85.2,50.5,137.1
		c-0.9,45.9-32.4,98.8-81.7,104.2c-14.8,1.5-29.5-1.1-44.9-3.9c-10.1-1.9-20.6-3.8-31.1-4.3c-40.5-2.3-80.6,18.8-107.4,56.4
		c-26.8,37.6-33.6,82.5-18.3,119.9c9.9,24.1,26.7,44.2,43,63.7c9.1,11,18.6,22.3,26.6,34.1c26.9,39.7,39.6,86.9,51.8,132.5
		c16.6,62,33.6,125.1,44.3,189.1l9.1,0c-10.7-65-27.9-128.9-44.8-191.7c-12.4-46.4-25.3-94.3-53.1-135.3
		c-8.3-12.2-17.9-23.7-27.2-34.8c-16.6-19.8-32.2-38.5-41.5-61.3c-14.2-34.6-7.7-76.2,17.3-111.3c25-35,62.2-54.7,99.5-52.6
		c9.9,0.5,20.1,2.4,30,4.2c15.5,2.8,31.4,5.6,47.5,3.9c54.2-5.9,88.8-63.2,89.7-113c1-54.4-27.3-104.6-52-142.3l-0.5-0.7
		c-11.5-17.5-23.4-35.6-12.5-57.1c6.7-13.1,20-22.7,35.9-25.6c26.4-4.9,50.2,3,75.3,11.4c17,5.7,34.6,11.6,53,13
		c65.4,5,129.8-54,137.8-126.3c6.8-61.7-22.3-129.2-77.9-180.5c-9.3-8.6-19.4-16.9-29.1-24.9c-27-22.2-54.9-45.1-68.6-76.5
		c-10.8-24.7-22.1-70.3-31.1-107c-0.5-2.2-1.1-4.4-1.6-6.6"/>
	<path class="st1" d="M1448.2,0c-14.2,80.4-38.1,154.7-71.7,222.1c-6.8,13.8-14.3,27.6-21.5,41c-18.2,33.8-37,68.7-48.4,106.1
		c-17.1,56.4-16.7,116.2-16.4,174.2c0.1,24.4,0.3,49.6-0.9,74.1c-4.2,88.7-26.4,178-64.4,258.3c-2.3,4.9-4.7,9.7-7.1,14.7
		c-13.9,28.5-28.2,58.1-30.5,90.2c-5.1,69.2,43.3,123.1,90.1,175.2c19.7,22,40.1,44.8,56.3,68.3c37.4,54.7,53,122.8,47.9,190.9
		l8.9,0c5.1-69.8-11-139.8-49.4-196.1c-16.5-24-37.1-47-57-69.2c-47.6-53.1-92.6-103.2-87.9-168.5c2.2-30.4,16.2-59.2,29.7-86.9
		c2.4-4.9,4.8-9.8,7.1-14.7c38.4-81.4,61-171.9,65.2-261.8c1.2-24.8,1-50.1,0.9-74.5c-0.3-57.3-0.7-116.4,16-171.5
		c11.1-36.6,29.7-71.1,47.6-104.5c7.2-13.4,14.7-27.4,21.6-41.2c34.2-68.6,58.5-144.2,72.8-226L1448.2,0z"/>
	<path class="st2" d="M2137,1415c-5.9-27.3-12.7-54.3-19.5-80.8c-11.8-46-23.9-93.6-30.3-141.2c-8.2-61.1-11.8-175.3,56.6-254.6
		c1.3-1.5,5.6-5.5,11.1-10.5c28.8-26.5,96.3-88.6,105-137.9c3.7-20.8,1.7-49.8-15.2-68.8c-10.4-11.7-25-17.4-42.1-16.4
		c-23.6,1.4-45.2,15.7-56.6,37.6c-11.2,21.4-21.8,43.9-32.1,65.6c-28,59.3-57,120.7-101.4,169.3c-5.1,5.6-10.4,11-15.7,16.5
		c-14.7,15-29.9,30.5-40.5,49.3c-38.7,68.5-6.2,146.2,25.3,221.5c7.1,16.9,14.4,34.4,20.6,51.1c11.8,32,19.9,65.4,24.2,99.3h8.9
		c-4.4-35-12.7-69.5-24.8-102.5c-6.2-16.9-13.6-34.5-20.7-51.5c-30.6-73.2-62.3-148.9-25.8-213.5c10-17.7,24.8-32.8,39.1-47.4
		c5.4-5.5,10.8-11,15.9-16.7c45.3-49.6,74.6-111.6,103-171.5c10.2-21.7,20.8-44,31.9-65.3c9.8-18.8,28.2-31.3,48.2-32.7
		c0.3,0,0.5,0,0.8-0.1c14.5-0.8,26.3,3.7,34.9,13.3c12.1,13.7,17.3,37.7,13,61.2c-8.2,46.3-74.1,107-102.3,132.8
		c-6.1,5.6-10.1,9.3-11.8,11.3c-52.4,60.8-73.2,153.7-58.7,261.7c6.5,48.2,18.7,96.1,30.5,142.3c6.6,25.7,13.3,51.9,19,78.4"/>
	<path class="st2" d="M2822,1098.7c-63.5,26.7-177.1,58.8-272.3,1.5c-23.6-14.2-44.4-33.2-64.6-51.7c-13.6-12.5-27.8-25.4-42.7-36.8
		c-46.2-35.3-95-47.6-134.1-33.7c-5.5,2-10.9,4.5-16.2,6.9c-10.1,4.6-19.6,9.1-29.9,9.8l-0.2,0c-8.5,0.6-16.8-1.4-25.7-3.6
		c-6.3-1.5-12.7-3.1-19.3-3.7c-20.8-1.9-40.7,5.5-57.6,21.5c-22,20.8-35.6,53.9-34.5,84.6c1.7,49,27.9,92.2,53.4,133.9l4.1,6.7
		c24.8,40.9,50.8,88.7,44.2,138.5c-1.9,14.1-6.3,28.6-10.7,42.2l9.6,0c4.2-13.1,8.3-27.2,10.1-41c6.9-52.7-19.8-102.1-45.4-144.4
		l-4-6.7c-24.8-40.7-50.4-82.9-52.1-129.5c-0.9-28.1,11.5-58.6,31.7-77.7c10.5-9.9,27.7-21.2,50.6-19c6,0.5,11.8,2,18.1,3.5
		c9.2,2.2,18.5,4.5,28.4,3.8c12.1-1,22.9-5.8,33.3-10.7c5-2.4,10.2-4.7,15.3-6.6c51.3-18.3,104.9,16.6,125.6,32.3
		c14.6,11.2,28.6,23.9,42.1,36.3c20.5,18.7,41.7,38.1,66.1,52.8c96.9,58.3,211.3,27.6,276.9,0.5"/>
	<path class="st2" d="M2822,481.1c-9.8,4.8-14.6,9.1-19.5,15.6c-11.7,15.6-10.7,36.2-9.8,54.4l0.2,4
		c6.2,135.6-76.1,268.7-200.3,323.6c-41.3,18.3-79.5,24.6-113.5,18.9c-82.4-13.9-133.2-97.5-145.5-169.2
		c-12.5-72.6,2-147.6,16-220.1l3.8-19.7c14.5-76,27.7-163.7,0.8-243.1c-9-26.7-21-47.3-36.4-63.1c-57.9-59-151.7-44.1-235.9-21.6
		c-14,3.7-31.4,8.4-42.9,21c-22.4,24.5-10.8,62.3,1.7,92.5c33.8,81.5,70.2,188.1,51.2,290.6c-7.5,40.1-23.2,78.9-38.5,116.3
		c-13.1,32.2-26.6,65.4-35,99.7c-2.1,8.5-3.9,17.2-5.6,25.6c-4,19.2-8.2,39.1-15.8,57.3c-17.8,42.2-53.7,73.9-88.4,104.6
		c-9.8,8.6-19.8,17.5-29.3,26.5c-33.2,31.3-86.3,94-68.6,161.5c10.4,39.8,41.9,67.4,72.5,94.1c15.1,13.3,30.7,26.9,43.6,41.8
		c29.2,34.1,45,78.2,46.1,122.6h9c-1.1-46.5-17.7-92.7-48.2-128.5c-13.2-15.5-29.1-29.3-44.5-42.8c-30.8-27-60-52.5-69.7-89.6
		c-16.4-62.9,34.3-122.6,66.1-152.6c9.4-8.9,19.4-17.7,29.1-26.3c35.5-31.3,72.1-63.7,90.8-107.8c8.1-19,12.3-39.3,16.3-59
		c1.8-8.3,3.5-17,5.6-25.3c8.3-33.7,21.7-66.6,34.6-98.5c15.4-37.9,31.4-77.1,39-118.1c19.5-104.8-17.4-213.1-51.8-295.7
		c-11.5-27.7-22.3-62.1-3.4-82.9c9.7-10.7,25.7-14.9,38.5-18.3c81.7-21.8,172.5-36.6,227.1,19.2c14.5,14.8,25.8,34.3,34.3,59.6
		c26.3,77.3,13.2,163.6-1.1,238.5l-3.8,19.7c-14.2,73.3-28.8,149.1-16.1,223.3c12.9,74.8,66.2,161.9,153,176.5
		c35.8,6,75.7-0.5,118.6-19.5c127.5-56.4,212-193.1,205.6-332.3l-0.2-4c-0.8-17.5-1.8-35.6,8-48.5c2.9-3.9,7-7.5,12.3-10.7"/>
	<path class="st2" d="M1737.3,1415c-4.7-18-12.9-37-24.6-57.1c-8.5-14.7-18.1-28.9-27.4-42.6c-10.8-16.1-22-32.6-31.4-49.8
		c-20.5-37.5-34.7-82-43.3-135.9c-3.6-22-6.1-45.5-1-67.7c5.3-23,18.2-49.9,38.3-79.8c5.6-8.4,13-15.4,20.1-22.2
		c6.7-6.3,13.5-12.9,19.1-20.6c19.6-27,12.9-51.3,0.2-64.9c-14.6-15.6-43.7-23.9-72.9-5.4c-2.7,1.7-5.2,3.5-7.7,5.4
		c-3.9,2.8-7.6,5.5-11.6,7.5c-16,8-34.2,4.8-53.3,1.4c-6.8-1.2-13.8-2.4-20.7-3.1c-6.9-0.7-15.8-1-23.5,3
		c-16.2,8.2-18.7,29.2-18.8,41c-0.3,43.2,18.3,83.3,36.3,122c7.4,16,15.1,32.4,21.3,48.9c15.6,41.4,23.2,86,30.5,129.2
		c3.3,19.5,6.7,39.8,10.9,59.5c9.4,44.8,22.8,88.7,40,131.2 M1624.4,1415c-17.5-42.8-31.1-87.1-40.6-132.4
		c-4.1-19.6-7.5-39.8-10.8-59.3c-7.4-43.4-14.9-88.4-30.8-130.3c-6.3-16.7-14-33.3-21.5-49.3c-17.7-38.2-36.1-77.6-35.8-119.5
		c0-10.4,2.1-28.9,15.5-35.7c6.4-3.2,14.2-2.9,20.2-2.4c6.6,0.7,13.5,1.9,20.2,3.1c19.4,3.4,39.3,6.9,57.1-2
		c4.5-2.3,8.6-5.2,12.5-8.1c2.4-1.8,4.9-3.5,7.4-5.2c9.5-6,18.8-8.9,27.6-9.5l-0.1,0.1c15.7-1.1,29.4,5.1,37.7,13.9
		c11.2,11.9,16.9,33.2-0.6,57.3c-5.3,7.3-11.7,13.3-18.4,19.7c-7.4,7-15,14.3-20.9,23.2c-20.5,30.6-33.8,58.2-39.2,81.9
		c-5.3,23.2-2.7,47.4,1,70c8.8,54.6,23.2,99.7,44,137.8c9.5,17.5,20.8,34.1,31.7,50.3c9.3,13.7,18.8,27.8,27.2,42.3
		c11,19,18.8,36.8,23.4,53.7"/>
	<path class="st2" d="M1769.5,768.5c3.9-0.3,7.3-2.3,10.1-4.1c5.9-3.9,13.4-9.3,18.8-17c8.1-11.9,9.4-26.4,10.7-40.5
		c0.2-2.1,0.3-4.3,0.6-6.4c2.4-24,8.4-42.8,18.4-57.4c14.4-21.1,37.6-34.3,60.1-47.1c7.6-4.4,15.6-8.8,23-13.6
		c5.6-3.6,12-7.9,16.2-14.3c4.7-7.1,6.2-15.7,7.4-23.3c0.9-5.3,1.9-11.9-0.3-17.9c-3.2-8.5-12.7-14.2-23.1-13.9
		c-9.6,0.3-18.3,4.9-24.8,9c-6.1,3.8-11.4,8.5-16.5,13.1c-5.3,4.7-10.3,9.2-16,12.7c-14.4,8.9-32,14.2-46.8,14.5
		c-15.4,0.2-29.8-5.2-45-11c-12.3-4.7-25.1-9.5-38.4-11c-14.5-1.7-26.2,2.6-31.2,11.4c-3.4,5.9-3.7,13.7-0.8,21.3
		c2.5,6.5,6.6,11.9,10.6,17.2l21.6,28.2c5.3,6.9,10.7,14,12.9,22.3c1.6,5.9,1.5,12.1,1.2,18.1c-0.8,16.5-3.6,32.8-8.3,48.6l-0.5,1.8
		c-1.7,5.6-3.4,11.3-3.2,17.5c0.5,14,10.8,26.5,31.3,38.1c3.5,2,7.3,3.9,11.6,3.7c0.1,0,0.2,0,0.4,0L1769.5,768.5z M1910.4,519
		c0.4,0,0.8-0.1,1.2-0.1c6.7-0.2,14.8,3.2,17.4,10c1.7,4.6,0.8,10,0,14.8c-1.1,7-2.4,14.8-6.4,20.9c-3.6,5.4-9.3,9.3-14.4,12.6
		c-7.4,4.7-15.2,9.2-22.8,13.5c-23.1,13.1-46.9,26.7-62,48.9c-10.6,15.5-16.9,35.2-19.5,60.2c-0.2,2.1-0.4,4.3-0.6,6.5
		c-1.2,13.3-2.4,27.1-9.7,37.6c-3.7,5.3-8.9,10.1-17.1,15.3c-2.4,1.6-5,3.1-7.6,3.2c-2.7,0.1-5.5-1.4-8.4-3
		c-18.6-10.5-27.8-21.3-28.3-33.1c-0.2-5.1,1.3-10.2,2.9-15.5l0.5-1.8c4.8-16.3,7.7-33.1,8.6-50c0.3-6.4,0.4-13.3-1.4-20
		c-2.5-9.4-8.7-17.3-14-24.4l-21.6-28.2c-3.7-4.9-7.6-10-9.8-15.6c-2.2-6-2.1-11.9,0.4-16.2c5.7-9.9,20.8-9,25.3-8.5
		c12.6,1.4,24.9,6.2,36.9,10.7c15.1,5.7,30.7,11.7,47.2,11.4c16-0.2,34.6-6,49.9-15.4c6.2-3.8,11.6-8.6,16.9-13.3
		c5-4.4,10.1-9,15.7-12.5C1895.3,523.5,1902.6,519.5,1910.4,519L1910.4,519z"/>
	<path class="st2" d="M804.9,1427.9l2.3-0.2c1.7-0.2,2.8-1.7,2.7-3.3c-0.1-1.7-1.5-2.7-3.3-2.7l-2.2,0.2c-8.7,0.6-17.8,0.1-26.9-1.5
		c-1.7-0.3-3.2,0.8-3.5,2.4c-0.3,1.7,0.8,3.2,2.4,3.5C786.1,1428,795.7,1428.5,804.9,1427.9L804.9,1427.9z M836.1,1420.1
		c0.4,0,0.7-0.1,1-0.3c9.5-4.4,18.3-10.4,25.6-17.4c1.2-1.2,1.2-3,0.1-4.2c-1.2-1.2-3.1-1.2-4.2-0.1c-6.8,6.6-15.1,12.2-23.9,16.3
		c-1.5,0.7-2.2,2.4-1.5,4C833.7,1419.5,834.9,1420.2,836.1,1420.1L836.1,1420.1z M748.4,1417.9c1.1-0.1,2.1-0.8,2.6-1.9
		c0.6-1.6-0.1-3.3-1.7-3.9c-8.8-3.6-17.7-8.1-26.3-13.5c-1.4-0.9-3.3-0.4-4.2,1s-0.4,3.3,1,4.2c9,5.5,18.1,10.2,27.2,13.9
		C747.4,1417.9,747.9,1417.9,748.4,1417.9L748.4,1417.9z M878,1378.7c1.1-0.1,2.1-0.8,2.6-1.8c2.6-6.3,4.3-12.8,4.9-19.4
		c0.3-3.3,0.4-6.7,0.1-10l-0.1-1.4c-0.2-1.6-1.6-2.8-3.2-2.7h-0.1c-1.7,0.1-2.8,1.7-2.7,3.3l0.1,1.2c0.2,3,0.2,6-0.1,9
		c-0.6,6-2.1,12-4.5,17.7c-0.7,1.5,0.1,3.3,1.6,3.9c0.4,0.2,0.9,0.2,1.4,0.2L878,1378.7z M698.1,1385.7c0.6,0,1.2-0.3,1.8-0.7
		c1.3-1.1,1.4-3,0.4-4.3c-1.5-1.7-2.7-3.4-3.8-5.2c-3.3-5.4-5.5-12.2-6.7-20.8c-0.2-1.7-1.7-2.9-3.4-2.6c-1.7,0.2-2.8,1.8-2.6,3.4
		c1.3,9.4,3.8,16.9,7.5,23c1.2,2,2.7,4,4.4,6C696.2,1385.4,697.1,1385.7,698.1,1385.7L698.1,1385.7z M871.4,1321.9
		c0.7-0.1,1.2-0.3,1.8-0.7c1.2-1.1,1.4-3,0.3-4.3c-0.7-0.9-1.6-1.6-2.3-2.5c-6.7-6.4-15.2-10.4-23.9-14.2
		c-4.9-2.1-10.7-4.8-16.9-7.7l-6.1-2.8c-1.5-0.7-3.3-0.1-4,1.5c-0.7,1.5-0.1,3.3,1.5,4l6.1,2.8c6.3,2.9,12,5.6,17,7.8
		c8.3,3.6,16.2,7.3,22.2,13c0.7,0.7,1.4,1.3,2,2.1C869.6,1321.6,870.5,1322,871.4,1321.9z M686.1,1328.3c1.4-0.1,2.7-1.3,2.8-2.8
		c0.6-8.2,1.9-16.3,3.9-24.3c0.4-1.6,0.8-3.1,1.3-4.6c0.5-1.6-0.4-3.3-2-3.8c-1.5-0.6-3.3,0.3-3.8,2c-0.5,1.6-1,3.3-1.4,5
		c-2,8.2-3.4,16.8-4,25.3c-0.1,1.6,1.1,3.1,2.8,3.2c0.1,0,0.3,0,0.4,0L686.1,1328.3z M795.5,1283.3c1.1-0.1,2.1-0.8,2.6-1.9
		c0.6-1.5-0.1-3.3-1.7-3.9c-10.6-4.4-20-7.7-28.7-10.1c-1.6-0.5-3.3,0.5-3.7,2.1c-0.4,1.6,0.5,3.3,2.1,3.7
		c8.4,2.4,17.7,5.6,28.1,9.8C794.6,1283.3,795.1,1283.3,795.5,1283.3L795.5,1283.3z M708.6,1274.8c0.5,0,1-0.2,1.4-0.5
		c7.1-4.5,16.5-6.5,27.2-6.2c1.6,0.1,3-1.3,3.1-2.9s-1.2-3-2.9-3.1c-12.3-0.4-22.5,2-30.6,7.1c-1.4,0.9-1.8,2.7-0.9,4.2
		C706.6,1274.4,707.6,1274.8,708.6,1274.8L708.6,1274.8z"/>
	<path class="st2" d="M1532.6,680.8l1-0.1c11.3-1,20.1-4.6,26.1-10.6c0.5-0.5,1-1,1.4-1.5c1.1-1.2,1-3.1-0.3-4.3
		c-1.2-1.1-3.2-1-4.3,0.2c-0.4,0.5-0.8,0.8-1.2,1.2c-5,5-12.6,8-22.4,8.9l-0.9,0.1c-0.7,0.1-1.5,0.1-2.2,0.1c-1.6,0-3,1.4-3,3
		c0,1.7,1.4,3,3,3c0.9,0,1.8-0.1,2.6-0.1L1532.6,680.8z M1507.2,663.3c0.5,0,1.1-0.3,1.7-0.6c1.3-1,1.5-2.9,0.5-4.2
		c-4.2-5.5-8.1-11.3-11.5-17.4c-1.4-2.4-2.5-4.9-3.2-7.5c-0.5-1.6-2.2-2.5-3.8-2c-1.6,0.5-2.5,2.2-2,3.8c0.9,3,2.2,5.9,3.7,8.7
		c3.5,6.3,7.5,12.4,11.9,18.1C1505.3,663,1506.2,663.4,1507.2,663.3L1507.2,663.3z M1565.1,641.6c0,0,0.4,0,0.7-0.1
		c1.6-0.5,2.5-2.2,2-3.8c-2.6-8.8-8.6-18.1-16.9-26.3c-1.2-1.2-3.1-1.2-4.3,0c-1.2,1.2-1.2,3.1,0,4.3c7.6,7.5,13,15.9,15.4,23.7
		C1562.4,640.7,1563.8,641.6,1565.1,641.6L1565.1,641.6z M1496.7,608.9c0.8-0.1,1.6-0.4,2.1-1.1c3.8-4.8,9.3-7.7,15.5-8.1
		c2.9-0.5,5.6,0.1,8.6,0.8c1.6,0.4,3.3-0.5,3.6-2.1c0.4-1.6-0.5-3.3-2.1-3.6c-3.6-0.9-7.1-1.3-10.5-1.1c-7.8,0.6-14.8,4.3-19.7,10.3
		c-1.1,1.3-0.8,3.2,0.5,4.2C1495.3,608.8,1496,609,1496.7,608.9L1496.7,608.9z"/>
	<path class="st2" d="M1732.1,369.2c1.4-0.1,2.6-1.2,2.8-2.7c0.2-1.6-1-3.1-2.7-3.3c-0.4,0-0.9-0.1-1.3-0.2c-4.8-1-8.9-4.2-13.4-8
		c-2.8-2.4-5.6-4.7-7.8-7.3c-1-1.3-3-1.4-4.2-0.4c-1.3,1.1-1.4,3-0.4,4.2c2.5,3,5.5,5.5,8.5,8c4,3.3,9.4,7.8,16,9.3
		c0.6,0.1,1.3,0.3,1.9,0.3C1731.6,369.2,1731.8,369.2,1732.1,369.2L1732.1,369.2z M1754.5,352.8c1.3-0.1,2.3-1,2.7-2.2
		c0.8-3,1.1-6.1,0.8-9.3c-0.5-7.6-4-15.4-9.5-21.3c-1.1-1.2-3.1-1.3-4.2-0.1c-1.2,1.1-1.3,3-0.1,4.2c4.6,4.9,7.5,11.3,8,17.6
		c0.2,2.5-0.1,5-0.7,7.3c-0.4,1.6,0.5,3.3,2.1,3.6C1753.8,352.8,1754.2,352.9,1754.5,352.8L1754.5,352.8z M1702.8,324.2
		c1.3-0.1,2.4-1,2.7-2.2c1.6-5.8,4.5-9.9,8.1-11.7c2.6-1.2,6.1-1.1,10.3,0.3c1.5,0.6,3.3-0.3,3.8-1.9c0.5-1.5-0.3-3.3-1.9-3.8
		c-5.8-2-10.9-2-14.9-0.1c-5.2,2.5-9.2,8-11.3,15.5c-0.4,1.6,0.5,3.3,2.1,3.7C1702.2,324.1,1702.5,324.1,1702.8,324.2L1702.8,324.2z
		"/>
	<path class="st2" d="M1364.5,641.3c4.6-0.3,9.2-3,13-7.3c1.1-1.2,1-3.1-0.3-4.3c-1.2-1.1-3.2-1-4.3,0.3c-1.9,2.2-6.3,6-10.8,5.2
		c-3.1-0.5-5.9-2.9-8.9-7.4c-0.9-1.4-2.8-1.8-4.2-1c-1.4,0.9-1.9,2.6-1,4.1c4,6.1,8.2,9.4,13,10.2
		C1362.3,641.4,1363.4,641.5,1364.5,641.3L1364.5,641.3z M1394.5,612.3c0.4,0,0.8-0.1,1.2-0.3c5.9-3,13-3.9,19.1-4.3
		c2.7-0.2,5.4-0.3,8.1-0.4l1-0.1c1.7,0,3-1.4,2.9-3.1c-0.1-1.7-1.5-3-3.2-2.8l-1,0.1c-2.8,0.1-5.5,0.2-8.3,0.4
		c-6.7,0.5-14.5,1.5-21.4,5c-1.5,0.8-2.1,2.6-1.3,4.1c0.6,1.1,1.8,1.7,2.9,1.7L1394.5,612.3z M1453.2,601.2c0.4,0,0.7-0.1,1.1-0.3
		c11.1-5.3,19-13.2,22.2-22.5c0.6-1.5-0.2-3.3-1.8-3.8c-1.6-0.6-3.3,0.2-3.8,1.8c-2.7,7.7-9.5,14.5-19.1,19c-1.5,0.7-2.2,2.5-1.5,4
		C1450.8,600.6,1452,601.3,1453.2,601.2L1453.2,601.2z M1341.1,604.3c0,0,0.1,0,0.2,0c1.7-0.2,2.8-1.7,2.6-3.4
		c-0.3-1.9-0.5-3.7-0.6-5.6c-0.4-4.9-0.4-10.1,0-15.6c0.2-2.7,0.4-5.4,0.7-8.1c0.2-1.6-1-3.1-2.7-3.3c-1.6-0.2-3.1,1-3.3,2.7
		c-0.3,2.8-0.5,5.6-0.7,8.4c-0.3,5.7-0.3,11.2,0,16.4c0.1,2,0.3,4,0.6,6C1338.2,603.4,1339.6,604.5,1341.1,604.3L1341.1,604.3z
		 M1469.1,551.8c0.5,0,1-0.2,1.4-0.5c1.4-0.9,1.8-2.7,1-4.2c-4.2-6.8-9.7-12.9-15.1-18.9c-1.4-1.6-2.8-3.2-4.2-4.7
		c-3.7-4.2-7.3-8.8-10.5-13.4c-0.9-1.4-2.8-1.7-4.2-0.7c-1.4,0.9-1.7,2.8-0.7,4.2c3.4,4.9,7.1,9.6,11,14c1.4,1.6,2.8,3.2,4.3,4.8
		c5.2,5.8,10.6,11.8,14.5,18.1c0.6,1,1.7,1.5,2.8,1.4L1469.1,551.8z M1345.1,544.5c1.4-0.1,2.6-1.2,2.8-2.6
		c0.7-5.2,1.1-9.6,1.2-13.8c0.3-4.8,0.4-10.2,0.3-16.6c0-1.7-1.4-3-3-3c-1.9,0.1-3,1.4-3,3c0.1,6.3,0,11.5-0.3,16.2
		c-0.3,4.1-0.6,8.3-1.3,13.4c-0.2,1.6,0.9,3.1,2.7,3.4C1344.6,544.5,1344.8,544.5,1345.1,544.5L1345.1,544.5z M1424.6,488.8
		c0.4,0,0.7,0,1-0.3c1.5-0.7,2.2-2.4,1.5-4c-4-8.9-7.2-18.4-9.6-27.9c-0.4-1.6-2.1-2.6-3.7-2.2c-1.6,0.4-2.6,2-2.2,3.7
		c2.4,9.9,5.8,19.7,9.9,29C1422.1,488.2,1423.4,488.9,1424.6,488.8L1424.6,488.8z M1345.9,484.4c1.6-0.1,2.7-1.4,2.8-3l0-0.6
		c0.2-9.3,0.8-18.8,2.1-29c0.2-1.6-0.9-3.1-2.7-3.4c-1.6-0.2-3.1,1-3.4,2.6c-1.2,10.5-1.9,20.2-2,29.7l0,0.6c-0.1,1.6,1.3,3,2.9,3
		C1345.8,484.4,1345.9,484.4,1345.9,484.4L1345.9,484.4z M1410.9,430.6c1.6-0.1,2.7-1.4,2.8-3c0.2-10.3,2.2-20,4.5-29
		c0.4-1.6-0.6-3.2-2.2-3.6c-1.6-0.4-3.2,0.6-3.6,2.2c-2.3,9.3-4.5,19.4-4.7,30.3c0,1.7,1.3,3,2.9,3
		C1410.6,430.5,1410.8,430.5,1410.9,430.6L1410.9,430.6z M1352.8,424.8c1.3-0.1,2.5-1.1,2.7-2.4c1.7-8.5,3.8-17.8,6.5-29.2
		c0.4-1.6-0.6-3.2-2.3-3.6c-1.6-0.4-3.2,0.6-3.6,2.3c-2.8,11.5-4.8,20.9-6.6,29.5c-0.3,1.6,0.7,3.2,2.4,3.5
		C1352.2,424.7,1352.5,424.8,1352.8,424.8L1352.8,424.8z M1422.4,371.7c1.3-0.1,2.5-1.1,2.7-2.5c0.7-3.9,1.2-7.5,1.5-11.1
		c0.1-1.6,0.3-3.8,0.1-5.9c-0.2-3.2-1.1-5.8-2.6-8c-1.5-2.1-3.6-3.8-6.5-5.1c-1.5-0.7-3.3-0.1-4,1.5c-0.7,1.5,0,3.3,1.5,4
		c1.9,0.9,3.3,1.9,4.2,3.1c0.9,1.2,1.3,2.9,1.5,4.9c0.1,1.7,0,3.6-0.1,5c-0.3,3.4-0.8,6.9-1.4,10.5c-0.3,1.6,0.8,3.2,2.4,3.5
		C1421.9,371.8,1422.1,371.8,1422.4,371.7L1422.4,371.7z M1367.2,366.4c1.1-0.1,2.1-0.8,2.6-1.9c1.1-2.9,2.4-5.3,3.8-7.5
		c3.4-5.3,8.6-9.4,14.7-12.1c1.5-0.7,2.2-2.5,1.6-4c-0.7-1.5-2.4-2.2-4-1.6c-7.3,3.1-13.3,8.1-17.4,14.3c-1.6,2.5-3.1,5.3-4.4,8.5
		c-0.6,1.6,0.1,3.3,1.7,3.9C1366.3,366.4,1366.7,366.5,1367.2,366.4L1367.2,366.4z"/>
	<path class="st2" d="M1511.8,232.9c0,0,0.2,0,0.3,0c12.3-2.3,22-9.8,25.1-19.4c0.6-1.5-0.3-3.3-1.9-3.8c-1.5-0.6-3.3,0.3-3.8,1.9
		c-2.5,7.5-10.4,13.5-20,15.3c-1.6,0.3-2.9,1.9-2.7,3.6C1509.1,232.1,1510.3,233.1,1511.8,232.9L1511.8,232.9z M1482,230.5
		c1.3-0.1,2.4-1,2.7-2.4c0.4-1.6-0.7-3.2-2.3-3.6c-4.2-0.9-8.2-1.9-11.4-4.1c-4.4-2.8-7.3-7.4-9.7-11.7c-0.8-1.4-2.6-2-4.1-1.2
		c-1.4,0.8-2,2.6-1.2,4.1c2.7,4.9,6.2,10.3,11.7,13.8c4.1,2.6,8.7,3.8,13.4,4.8C1481.5,230.4,1481.8,230.5,1482,230.5L1482,230.5z
		 M1524.9,186.1l4.9-3.4c-3.3-4.4-7-8.1-10.6-11.8c-3.3-3.4-6.7-6.8-9.6-10.5c-3.1-4-5.7-8.4-7.8-13.1c-0.6-1.5-2.4-2.2-4-1.6
		c-1.5,0.7-2.2,2.5-1.6,4c2.2,5.2,5.1,10,8.5,14.4c3.1,3.9,6.6,7.5,10,11C1518.5,178.8,1521.9,182.3,1524.9,186.1L1524.9,186.1z
		 M1445.5,186.5c0.3,0,0.6,0,0.9-0.2c1.5-0.6,2.3-2.4,1.6-3.9c-2.6-6.4-4.3-12.2-5.3-17.8c-0.3-2-0.6-4.1-0.8-6.2
		c-0.1-1.4-0.2-2.7-0.2-4.1c0-1.7-1.4-3-3-3c-1.9,0.1-3,1.4-3,3c0,1.5,0.1,3,0.2,4.4c0.2,2.3,0.4,4.6,0.8,6.8c1,6,2.9,12.3,5.6,19.1
		C1443,185.8,1444.2,186.6,1445.5,186.5L1445.5,186.5z M1445,128c1.1-0.1,2.1-0.8,2.6-1.8c3.9-9.1,9.5-17.2,16.4-23.3
		c1.2-1.1,1.3-3,0.2-4.2c-1.1-1.2-3-1.4-4.2-0.2c-7.6,6.8-13.8,15.6-18,25.4c-0.7,1.6,0.1,3.3,1.6,3.9
		C1444.1,127.9,1444.6,128,1445,128L1445,128z M1494.2,122.2c1.4-0.1,2.7-1.3,2.8-2.8c0.1-1.7,0.5-3.7,0.9-5.7c0.6-3.7,1.4-8,1.1-12
		c-0.3-3.5-1.2-6.2-3-8.4c-1.5-1.8-3.3-3.2-5.3-4.1c-1.5-0.7-3.3-0.1-4,1.5c-0.7,1.5-0.1,3.3,1.5,4c1.3,0.6,2.3,1.3,3.1,2.5
		c1,1.2,1.5,2.9,1.7,5.1c0.2,3.2-0.4,6.9-1.1,10.5c-0.4,2.3-0.8,4.5-0.9,6.3c-0.1,1.6,1.1,3.1,2.8,3.2
		C1493.9,122.2,1494,122.2,1494.2,122.2L1494.2,122.2z"/>
	<path class="st2" d="M1663.4,170.4c1.9-0.1,3.8-0.3,5.8-0.6c4.2-0.5,8.6-1.5,12-4.4c2.4-2.2,4.1-5.1,5.3-9.2
		c0.4-1.6-0.5-3.3-2.1-3.7c-1.6-0.4-3.3,0.5-3.7,2.1c-0.8,3-1.9,5-3.4,6.3c-2.2,1.9-5.5,2.6-8.8,3c-3.1,0.4-6.3,0.6-9.5,0.7
		c-1.6,0-3,1.4-2.9,3.1c0.1,1.7,1.4,3,3.1,2.9C1660.5,170.6,1661.9,170.6,1663.4,170.4L1663.4,170.4z M1629.4,167.3
		c1.3-0.1,2.4-1,2.7-2.2c0.4-1.6-0.5-3.3-2.1-3.6c-7.8-2-15.3-5-22.3-8.8c-1.5-0.8-3-1.7-4.5-2.6c-1.4-0.9-3.3-0.4-4.2,1
		c-0.9,1.4-0.4,3.3,1,4.2c1.6,1,3.2,1.9,4.7,2.7c7.5,4,15.4,7.1,23.7,9.3C1628.7,167.3,1629.1,167.3,1629.4,167.3L1629.4,167.3z
		 M1688.6,128.7c1.4-0.1,2.6-1.2,2.8-2.7c0.9-8.2,1.1-15.4,0.6-22.1c-0.2-3-0.6-5.9-1.1-8.7c-0.3-1.6-1.9-2.7-3.5-2.5
		c-1.6,0.3-2.7,1.8-2.5,3.5c0.5,2.6,0.8,5.3,1,8.1c0.5,6.3,0.3,13.1-0.5,21c-0.2,1.6,1,3.1,2.7,3.3
		C1688.2,128.7,1688.4,128.7,1688.6,128.7L1688.6,128.7z M1580.7,134.7c0.4,0,0.8-0.1,1.2-0.4c1.4-0.8,2-2.6,1.2-4.1
		c-3.7-6.6-5.8-14.5-6.5-24.1c-0.1-1.2-0.2-2.3-0.2-3.5c-0.1-1.7-1.5-3-3.1-2.9c-1.6-0.1-3,1.5-2.9,3.1c0.1,1.3,0.1,2.5,0.2,3.7
		c0.8,10.4,3.1,19.1,7.2,26.6C1578.3,134.2,1579.5,134.8,1580.7,134.7L1580.7,134.7z M1677.4,70.7c0.4,0,0.8-0.1,1.1-0.3
		c1.4-0.8,2-2.6,1.3-4.1c-4.6-8.9-8.1-16.4-8.6-24.5c-0.1-0.8-0.1-1.7-0.1-2.5c0-1.7-1.3-3-3-3c-1.7,0-3,1.3-3,3c0,1,0,2,0.1,3
		c0.7,10,5.5,19.3,9.3,26.8C1675.1,70.1,1676.3,70.8,1677.4,70.7L1677.4,70.7z M1575.2,75.7c1.4-0.1,2.6-1.2,2.8-2.7l1.8-20.2
		c0.3-3.2,0.6-6.5,0.9-9.8c0.2-1.6-1.1-3.1-2.7-3.3c-1.6-0.2-3.1,1.1-3.3,2.7c-0.3,3.3-0.6,6.6-0.9,9.8l-1.8,20.2
		c-0.1,1.6,1.1,3.1,2.7,3.2C1574.8,75.7,1574.9,75.7,1575.2,75.7L1575.2,75.7z M1680.7,0c-1.4,2.9-3,5.8-4.7,8.8l-0.5,1
		c-0.8,1.4-0.3,3.3,1.2,4.1c0.5,0.3,1.1,0.4,1.7,0.4l-0.1,0c1-0.1,1.9-0.6,2.4-1.6l0.5-1c2.1-3.8,4.3-7.7,6.1-11.7 M1582.9,0
		c-1.3,3.9-2.5,8-3.6,12.3c-0.4,1.6,0.6,3.2,2.3,3.6c0.3,0.1,0.6,0.1,0.9,0.1l0,0c1.3-0.1,2.4-1,2.7-2.3c1.2-4.9,2.5-9.5,4.1-13.7"
		/>
	<path class="st2" d="M2186.9,634.6c0.6,0,1.1-0.1,1.7-0.1c1.7-0.2,2.8-1.7,2.6-3.3c-0.2-1.7-1.6-2.8-3.3-2.6
		c-8.7,1-18.1-2-25.6-8.3c-1.3-1.1-3.1-0.9-4.3,0.4c-1.1,1.3-0.9,3.1,0.4,4.3c8.3,6.9,18.6,10.5,28.4,9.8L2186.9,634.6z
		 M2212.8,618.2c0.8-0.1,1.6-0.5,2.2-1.2c3.8-5.2,7.2-11.1,10.4-16.8c1.8-3.1,3.5-6.2,5.3-9.2c0.9-1.4,0.4-3.3-1-4.1
		c-1.4-0.9-3.3-0.4-4.1,1c-1.8,3-3.7,6.2-5.4,9.4c-3.1,5.5-6.4,11.3-9.9,16.2c-1,1.3-0.7,3.2,0.7,4.2
		C2211.4,618.1,2212.2,618.3,2212.8,618.2L2212.8,618.2z M2144.5,600.5c0,0,0.5,0,0.8-0.2c1.6-0.5,2.4-2.3,1.8-3.8
		c-1-2.8-1.9-5.8-2.6-8.9c-1.5-6.2-2.4-12.5-2.9-19.3c-0.1-1.7-1.6-3.1-3.2-3c-1.7,0.1-2.9,1.4-2.8,3l0,0.4
		c0.5,7.2,1.5,13.8,3.1,20.3c0.8,3.3,1.7,6.5,2.8,9.6c0.4,1.3,1.7,2.1,3,2L2144.5,600.5z M2247.5,569.4c0.7,0,1.4-0.3,1.9-0.9
		c2.1-2.1,4.3-4.1,6.5-6.2c5.1-4.8,10.4-9.7,15.2-14.9c1.1-1.2,1-3.2-0.2-4.3c-1.2-1.1-3.2-1-4.3,0.2c-4.6,5.1-9.8,9.9-14.8,14.6
		c-2.2,2.1-4.5,4.1-6.7,6.3c-1.2,1.2-1.2,3-0.1,4.2C2245.7,569.2,2246.5,569.5,2247.5,569.4L2247.5,569.4z M2139.3,541.1
		c1.4-0.1,2.6-1.2,2.8-2.7c0.9-10.1,2.3-20.5,3.6-29.7c0.2-1.6-0.9-3.2-2.5-3.4c-1.6-0.2-3.2,0.9-3.4,2.5c-1.3,9.3-2.7,19.8-3.7,30
		c-0.1,1.6,1.1,3.1,2.7,3.2C2139,541,2139.1,541,2139.3,541.1L2139.3,541.1z M2285.4,523.4c1.1-0.1,2.1-0.8,2.5-1.8
		c3.9-8.8,6.9-18.7,8.9-29.5c0.3-1.6-0.8-3.2-2.4-3.5c-1.7-0.3-3.2,0.8-3.5,2.4c-1.8,10.2-4.7,19.6-8.4,28c-0.7,1.5,0,3.3,1.5,4
		C2284.5,523.4,2284.9,523.5,2285.4,523.4L2285.4,523.4z M2146.7,481.4c1.4-0.1,2.6-1.2,2.8-2.7c1.1-11.4,1.4-21.4,0.9-30.5
		c-0.1-1.7-1.5-2.9-3.2-2.8c-1.8,0-2.9,1.5-2.8,3.2c0.5,8.9,0.2,18.3-0.8,29.6c-0.2,1.6,1.1,3.1,2.7,3.3
		C2146.4,481.4,2146.6,481.4,2146.7,481.4L2146.7,481.4z M2296.7,464.7c1.6-0.1,2.8-1.4,2.8-3c0-5.3-0.1-10.9-0.4-16.6
		c-0.1-1.6-0.2-3.3-0.4-4.9c-0.2-2.9-0.4-5.9-0.8-8.8c-0.1-1.7-1.8-2.8-3.3-2.7c-1.7,0.1-2.9,1.6-2.7,3.3c0.2,2.9,0.5,5.8,0.7,8.6
		c0.1,1.6,0.2,3.2,0.4,4.8c0.3,5.6,0.4,11.1,0.4,16.3c0,1.7,1.3,3,3,3C2296.5,464.7,2296.6,464.7,2296.7,464.7L2296.7,464.7z
		 M2143,421.6c0,0,0.3,0,0.5,0c1.6-0.4,2.6-2,2.2-3.6c-2.1-8.9-5-18.4-8.9-29.1c-0.6-1.6-2.3-2.4-3.9-1.8c-1.6,0.5-2.4,2.3-1.8,3.9
		c3.8,10.5,6.6,19.8,8.7,28.4C2140.2,420.9,2141.5,421.8,2143,421.6L2143,421.6z M2291.9,404.8c0,0,0.1,0,0.1,0
		c1.7-0.2,2.8-1.7,2.6-3.3c-1-8.4-1.9-17.3-2.5-26.1l-0.3-3.7c-0.1-1.7-1.5-2.9-3.2-2.8c-1.6,0.1-2.9,1.5-2.8,3.2l0.3,3.7
		c0.6,8.9,1.6,18,2.6,26.4C2288.9,403.8,2290.3,405,2291.9,404.8L2291.9,404.8z M2123.4,364.8c0.3,0,0.6,0,0.9-0.2
		c1.5-0.7,2.3-2.4,1.6-3.9l-1.3-3.3c-3.3-8.2-6.7-16.4-9.7-24.6c-0.6-1.5-2.3-2.4-3.9-1.8c-1.5,0.6-2.4,2.3-1.8,3.9
		c3.1,8.3,6.5,16.5,9.8,24.7l1.3,3.3C2120.9,364.2,2122.1,364.9,2123.4,364.8z M2289,344.8c1.5-0.1,2.7-1.3,2.8-2.8
		c0.2-3.2,0.4-6.4,0.7-9.6c0.5-6.7,1.1-13.7,1.1-20.5c0-1.6-1.3-3-3-3c-1.6-0.1-3,1.3-3,3c0,6.6-0.6,13.5-1.1,20.1
		c-0.3,3.3-0.5,6.5-0.7,9.8c-0.1,1.6,1.1,3.1,2.8,3.2C2288.7,344.8,2288.9,344.8,2289,344.8L2289,344.8z M2103,308.3
		c0,0,0.4,0,0.5,0c1.6-0.4,2.6-2.1,2.1-3.7c-2.7-10.2-4.5-19.9-5.5-29.1c-0.1-1.7-1.7-2.8-3.3-2.7c-1.7,0.1-2.8,1.7-2.7,3.3
		c1,9.5,2.9,19.5,5.6,30c0.3,1.4,1.7,2.4,3.1,2.2L2103,308.3z M2286.2,285.3c0,0,0.5,0,0.8-0.2c1.6-0.5,2.4-2.3,1.8-3.8
		c-3.1-8.9-7.8-17.9-14.3-27.3c-0.9-1.4-2.8-1.7-4.2-0.8c-1.4,0.9-1.7,2.8-0.8,4.2c6.2,9,10.6,17.4,13.5,25.9
		C2283.6,284.5,2284.9,285.4,2286.2,285.3L2286.2,285.3z M2097.7,248.8c1.4-0.1,2.6-1.1,2.8-2.6c1.3-9.9,3.9-19.2,7.8-27.6l-2.6-1.6
		l-2.8-1.2l2.8,1.2l-2.9-1.1c-4.2,9.1-7,19-8.4,29.4c-0.2,1.6,0.9,3.1,2.6,3.4c0.2,0,0.4,0,0.6,0L2097.7,248.8z M2253.5,235.3
		c0.7,0,1.3-0.3,1.8-0.8c1.3-1.1,1.4-3,0.2-4.2c-1.4-1.5-2.8-3.1-4.2-4.6c-6-6.6-11.7-12.1-17.4-16.9c-1.3-1.1-3.1-0.9-4.3,0.3
		c-1.1,1.3-0.9,3.1,0.3,4.3c5.5,4.7,11,10.1,16.9,16.4c1.4,1.5,2.8,3,4.1,4.5C2251.7,235,2252.6,235.3,2253.5,235.3L2253.5,235.3z
		 M2207.2,197.5c1-0.1,2-0.7,2.5-1.7c0.7-1.5,0.1-3.3-1.4-4c-9.4-4.6-19.1-7.6-29.5-9.1c-1.6-0.2-3.2,0.9-3.4,2.5
		c-0.3,1.6,0.9,3.2,2.5,3.4c9.8,1.4,18.9,4.2,27.7,8.6C2206.1,197.5,2206.7,197.6,2207.2,197.5L2207.2,197.5z M2124.4,196.7
		c0.5,0,1.1-0.2,1.5-0.5c0.8-0.6,1.7-1.1,2.5-1.6c6.3-3.7,14.2-5.9,24.3-6.6c1.7-0.1,2.9-1.6,2.8-3.2c-0.1-1.7-1.5-2.9-3.2-2.8
		c-11,0.8-19.9,3.2-26.9,7.4c-1,0.6-2,1.2-2.9,1.9c-1.4,0.9-1.7,2.8-0.7,4.2C2122.3,196.4,2123.4,196.8,2124.4,196.7L2124.4,196.7z"
		/>
	<path class="st2" d="M2769.6,1024.3c1.3-0.1,2.8-0.2,4.2-0.4c1.7-0.2,2.8-1.7,2.6-3.4c-0.2-1.7-1.8-2.9-3.4-2.6
		c-1.3,0.2-2.8,0.2-3.8,0.4c-8.7,0.6-17.3-0.6-24.3-3.4c-1.5-0.6-3.3,0.1-3.9,1.7c-0.6,1.5,0.1,3.3,1.7,3.9
		C2750.6,1023.7,2759.9,1025,2769.6,1024.3z M2822,994.7c-7,5.6-14.3,10.4-21.6,14.1c-1.4,0.8-2.1,2.6-1.3,4
		c0.6,1.1,1.8,1.7,2.9,1.7v0.1c0.4,0,0.8-0.1,1.1-0.3c6.4-3.2,12.7-7.2,18.9-11.9 M2724.2,999.6c0,0,0.4,0,0.5,0
		c1.6-0.4,2.6-2,2.2-3.7c-0.3-1.4-0.6-2.9-0.7-4.4c-0.5-7.1,1.6-14.9,6.1-22c0.9-1.4,0.4-3.3-1-4.2c-1.5-0.9-3.3-0.4-4.2,1
		c-5.1,8.2-7.6,17.3-7,25.7c0.1,1.9,0.4,3.6,0.9,5.4C2721.5,998.8,2722.8,999.8,2724.2,999.6L2724.2,999.6z M2750.8,949.4
		c0.6,0,1.1-0.3,1.6-0.6c1.7-1.3,3.3-2.5,5-3.8l3.6-2.7c5.1-3.9,10.3-7.7,15.4-11.8c1.3-1.1,1.5-2.9,0.5-4.3
		c-1.1-1.3-2.9-1.5-4.2-0.5c-5,4-10.1,7.8-15.2,11.7l-3.7,2.7c-1.7,1.3-3.4,2.5-5,3.9c-1.3,1-1.5,2.9-0.5,4.2
		C2748.9,949,2749.9,949.4,2750.8,949.4L2750.8,949.4z M2796.8,910.7c0.8-0.1,1.5-0.4,2-1c5.6-6.3,10.1-12.6,13.6-19.3
		c1.2-2.2,2.2-4.4,3.2-6.7c0.7-1.6-0.1-3.3-1.6-3.9c-1.6-0.7-3.3,0.1-3.9,1.6c-0.9,2.1-1.9,4.2-3,6.2c-3.3,6.2-7.4,12.1-12.8,18.1
		c-1.1,1.2-1,3.1,0.3,4.3c0.6,0.6,1.5,0.8,2.2,0.7L2796.8,910.7z"/>
	<path class="st2" d="M2272.5,952.5c6.4-0.5,12.9-1.8,19.3-3.9c1.6-0.5,2.4-2.2,1.9-3.8c-0.5-1.6-2.2-2.4-3.8-1.9
		c-5.9,2-11.7,3.3-17.8,3.6c-3.5,0.3-7.1,0.2-10.6-0.1c-1.6-0.2-3.1,1.1-3.3,2.7c-0.2,1.6,1.1,3.1,2.7,3.3
		C2264.6,952.7,2268.5,952.6,2272.5,952.5L2272.5,952.5z M2239,945.9c1-0.1,2-0.7,2.5-1.6c0.7-1.5,0.2-3.3-1.3-4.1
		c-2.7-1.4-4.1-3.6-4.3-7.2c-0.3-4.1,1-9.7,3.8-16.2c0.7-1.6-0.1-3.3-1.6-3.9c-1.5-0.7-3.3,0.1-3.9,1.6c-3.2,7.5-4.6,13.8-4.3,18.9
		c0.4,5.6,3,9.8,7.6,12.1C2237.9,945.9,2238.4,946,2239,945.9L2239,945.9z M2317.2,934.2c0.6,0,1.2-0.3,1.7-0.7
		c2.2-1.8,4.4-3.8,6.3-5.7c6-5.9,10.4-12.5,12.8-19.1c0.6-1.5-0.2-3.3-1.8-3.9c-1.6-0.6-3.3,0.2-3.9,1.8c-2.1,5.7-6,11.5-11.4,16.9
		c-1.9,1.9-3.8,3.7-5.9,5.3c-1.3,1.1-1.5,2.9-0.4,4.3C2315.3,933.9,2316.3,934.2,2317.2,934.2L2317.2,934.2z M2252.4,892.9
		c0.8-0.1,1.6-0.5,2.2-1.2c5.4-7.2,10.9-13.2,14.4-15.5c1.9-1.3,4.1-2.5,6.4-3.5c1.5-0.7,2.2-2.5,1.6-4c-0.6-1.5-2.4-2.2-4-1.6
		c-2.6,1.2-5.1,2.5-7.4,4c-4.1,2.8-10,9-15.9,16.9c-1,1.3-0.7,3.2,0.6,4.2C2250.9,892.7,2251.6,892.9,2252.4,892.9L2252.4,892.9z
		 M2330.3,882.7c0.7,0,1.3-0.3,1.8-0.8c1.3-1.1,1.3-3,0.2-4.2c-2-2.1-4.4-4.2-7.1-6.1c-6-4.1-13.2-6.9-21-8.1
		c-1.6-0.2-3.2,0.8-3.4,2.5c-0.2,1.6,0.8,3.2,2.5,3.4c7,1.1,13.4,3.6,18.6,7.2c2.3,1.6,4.4,3.4,6.1,5.2
		C2328.5,882.4,2329.4,882.8,2330.3,882.7L2330.3,882.7z"/>
	<path class="st2" d="M2518.7,1415c2.1-1.2,4.2-2.4,6.2-3.7c1.4-0.9,1.7-2.8,0.9-4.2c-0.9-1.4-2.8-1.8-4.2-0.8
		c-5.3,3.5-10.9,6.5-16.9,8.8 M2412.7,1405.8c0.4,0,0.7-0.1,1.1-0.3c1.5-0.7,2.1-2.5,1.4-4c-0.3-0.6-0.6-1.3-0.8-2.1
		c-0.3-0.9-0.4-1.8-0.5-2.8c-0.4-5.3,2.2-11.1,4.6-16.7l2-4.6c0.6-1.6-0.1-3.3-1.7-3.9s-3.3,0.1-3.9,1.7l-1.9,4.4
		c-2.8,6.2-5.6,12.7-5.1,19.5c0.1,1.4,0.3,2.7,0.7,4c0.3,1.1,0.7,2.1,1.2,3.1C2410.3,1405.2,2411.5,1405.8,2412.7,1405.8
		L2412.7,1405.8z M2546.1,1391.9c0.7,0,1.4-0.3,1.9-0.9c3.3-3.4,6.4-6.9,9.6-10.4c3.6-3.9,7.1-7.8,10.8-11.6
		c1.2-1.2,1.1-3.1-0.1-4.3c-1.2-1.2-3.1-1.1-4.3,0.1c-3.7,3.8-7.3,7.8-11,11.8c-3.1,3.5-6.3,6.9-9.6,10.3c-1.2,1.2-1.1,3.1,0.1,4.3
		c0.6,0.6,1.5,0.9,2.3,0.9L2546.1,1391.9z M2589.4,1350.5c0.5,0,1-0.2,1.4-0.5c7.8-5.2,16.5-9.3,26.3-12.8c1.6-0.5,2.4-2.3,1.8-3.9
		c-0.5-1.6-2.3-2.4-3.8-1.8c-10.3,3.6-19.4,8-27.6,13.5c-1.4,0.9-1.8,2.8-0.8,4.2C2587.3,1350,2588.4,1350.5,2589.4,1350.5
		L2589.4,1350.5z M2795.4,1322.2c1.4-0.1,2.6-1.2,2.8-2.7c0.2-1.6-1.1-3.1-2.7-3.3c-9.5-0.9-19.4-1.4-30.3-1.5c-1.7,0-3,1.3-3,3
		c0,1.7,1.3,3,3,3c10.7,0.1,20.4,0.6,29.8,1.5C2795,1322.2,2795.2,1322.2,2795.4,1322.2L2795.4,1322.2z M2424.9,1348
		c1.4-0.1,2.6-1.2,2.8-2.7c0.5-5.7,0.6-11.4,0.1-17.2c-0.3-4.6-1-9.2-1.8-13.6c-0.3-1.6-1.9-2.7-3.5-2.3c-1.6,0.4-2.7,1.9-2.3,3.5
		c0.8,4.2,1.5,8.5,1.8,12.8c0.4,5.4,0.4,10.9-0.1,16.2c-0.1,1.6,1.1,3.1,2.7,3.2C2424.6,1348,2424.7,1348,2424.9,1348L2424.9,1348z
		 M2645.4,1329.8c0,0,0.2,0,0.4,0c8.7-1.6,18.1-2.9,29.6-4c1.7-0.1,2.8-1.7,2.7-3.3c-0.1-1.7-1.7-2.8-3.3-2.7
		c-11.7,1.1-21.2,2.4-30.1,4c-1.6,0.3-2.7,1.9-2.4,3.5c0.3,1.6,1.6,2.6,3.2,2.5L2645.4,1329.8z M2735.3,1321.4
		c1.6-0.1,2.9-1.5,2.8-3.2c-0.1-1.7-1.5-2.9-3.2-2.8c-8.3,0.4-16.6,0.9-24.9,1.5l-5.2,0.4c-1.7,0.1-2.9,1.6-2.8,3.2
		c0.1,1.7,1.5,2.9,3.2,2.8l5.2-0.4C2718.7,1322.4,2726.9,1321.8,2735.3,1321.4L2735.3,1321.4z M2413.1,1289.8c0.4,0,0.8-0.1,1.2-0.3
		c1.4-0.8,2-2.6,1.2-4.1c-1-1.9-2.1-3.8-3.3-5.7c-4.2-6.8-9.4-13.3-14.3-19.4c-1.1-1.3-2.9-1.5-4.3-0.4c-1.3,1.1-1.5,2.9-0.4,4.3
		c4.8,5.9,9.8,12.2,13.9,18.8c1.1,1.7,2.1,3.5,3.1,5.3c0.6,1.1,1.8,1.7,2.9,1.6L2413.1,1289.8z M2822,1233.9c-2.9-0.4-5.8-0.7-8.9-1
		c-1.7-0.2-3.1,1.1-3.3,2.7c-0.1,1.6,1.1,3.1,2.7,3.3c3.2,0.3,6.4,0.6,9.4,1 M2603.3,1254c1.6-0.1,2.8-1.5,2.8-3
		c-0.1-1.7-1.4-3-3-2.9c-3.2,0-6.1,0-8.7-0.1c-11.2-0.7-20.9-1.8-29.5-3.2c-1.7-0.3-3.2,0.8-3.4,2.5c-0.3,1.6,0.8,3.2,2.5,3.4
		c8.9,1.5,18.8,2.6,30.2,3.3C2596.8,1254.1,2599.9,1254.1,2603.3,1254c-0.1,0.1,0.1,0.1,0.1,0.1L2603.3,1254z M2633.3,1251.6l0.1,0
		c9.2-1,19.3-2.2,29.9-3.6c1.7-0.2,2.8-1.7,2.6-3.4c-0.2-1.7-1.7-3-3.4-2.6c-10.6,1.3-20.6,2.6-29.8,3.6c-1.7,0.2-2.8,1.7-2.6,3.3
		C2630.1,1250.6,2631.6,1251.8,2633.3,1251.6L2633.3,1251.6z M2693,1244.4l0.1,0c9.8-1.1,19.7-2.3,29.9-3.2c1.7-0.1,2.8-1.7,2.7-3.3
		c-0.1-1.7-1.5-2.7-3.3-2.7c-10.1,1-20.2,2.1-30,3.3c-1.7,0.2-2.8,1.7-2.6,3.3C2690,1243.3,2691.4,1244.5,2693,1244.4L2693,1244.4z
		 M2783,1237.8c1.6-0.1,2.8-1.4,2.8-3c0-1.7-1.4-3-3-3c-9.3,0-19.5,0.4-30.3,1c-1.7-0.2-2.9,1.5-2.9,3.2c0.1,1.7,1.5,2.9,3.2,2.8
		c10.6-0.7,20.7-0.9,29.9-1C2782.9,1237.8,2782.9,1237.8,2783,1237.8L2783,1237.8z M2535.4,1243c1.1-0.1,2.2-0.8,2.6-1.9
		c0.6-1.6-0.2-3.3-1.7-3.9c-9.7-3.8-18.2-8.6-25.1-14.4c-1.3-1-3.1-0.9-4.3,0.3c-1.1,1.3-0.9,3.1,0.3,4.3
		c7.4,6.2,16.4,11.4,26.8,15.4c0.4,0.2,0.9,0.2,1.3,0.2L2535.4,1243z M2377.8,1241.2c0.5,0,0.9-0.2,1.4-0.4c1.4-0.8,1.9-2.7,1-4.1
		c-4-6.7-6.7-13-8.1-19.3c-0.5-2.1-0.8-4.3-1-6.6l-0.1-0.8c-0.1-1.7-1.5-2.9-3.2-2.8c-1.8,0.2-2.9,1.5-2.8,3.2l0.1,1
		c0.2,2.5,0.6,5,1.1,7.5c1.5,7,4.4,13.9,8.8,21.1C2375.7,1240.7,2376.7,1241.3,2377.8,1241.2L2377.8,1241.2z M2490.8,1204.7
		c0.4,0,0.9-0.2,1.3-0.4c1.4-0.8,1.9-2.7,1.1-4.1c-1.4-2.4-2.7-4.9-4-7.3c-3.5-6.4-7-12.9-11.4-18.9c-1-1.3-2.9-1.6-4.2-0.6
		c-1.3,1-1.6,2.9-0.6,4.2c4.1,5.6,7.6,12,11,18.1c1.3,2.5,2.7,4.9,4.1,7.4c0.6,1,1.7,1.6,2.8,1.5L2490.8,1204.7z M2374.9,1184
		c1-0.1,1.9-0.6,2.4-1.6c4.6-8.6,11.1-15.8,19-20.8c1.4-0.9,1.8-2.7,0.9-4.2c-0.9-1.4-2.8-1.8-4.2-0.9c-8.8,5.6-16,13.6-21.1,23.1
		c-0.8,1.4-0.2,3.3,1.3,4.1C2373.8,1183.9,2374.3,1184.1,2374.9,1184L2374.9,1184z M2452.6,1159.9c1-0.1,2-0.7,2.5-1.7
		c0.7-1.5,0.1-3.3-1.4-4c-9.6-4.6-20.1-6.9-30.5-6.6c-1.6-0.1-3,1.4-2.9,3c0.1,1.7,1.4,3,3.1,2.9c9.5-0.2,19,1.9,27.8,6
		C2451.6,1159.8,2452.1,1159.9,2452.6,1159.9L2452.6,1159.9z"/>
	<path class="st2" d="M1949.6,118.2c1.3-0.1,2.5-0.2,3.7-0.4c1.6-0.3,2.8-1.8,2.5-3.5c-0.3-1.6-1.8-2.7-3.5-2.5
		c-1.9,0.3-3.8,0.5-5.8,0.4c-6.8-0.1-13.8-2-21.4-5.9c-1.4-0.7-3.3-0.2-4.1,1.3c-0.7,1.5-0.2,3.3,1.3,4.1c8.3,4.3,16.4,6.5,24.1,6.6
		C1947.5,118.2,1948.6,118.2,1949.6,118.2L1949.6,118.2z M1975.7,100.2c1.1-0.1,2.2-0.8,2.6-2c1.3-3.8,1.8-7.8,1.5-12.3
		c-0.4-5.9-2.3-12.3-5.5-19.1c-1.5-3.1-3.1-6.1-4.9-9.1c-0.9-1.4-2.7-1.9-4.1-1c-1.4,0.9-1.9,2.7-1,4.1c1.7,2.7,3.2,5.6,4.6,8.4
		c2.9,6.1,4.6,11.8,5,17c0.3,3.6-0.1,6.9-1.2,9.9c-0.5,1.5,0.3,3.3,1.9,3.8C1974.9,100.1,1975.3,100.1,1975.7,100.2L1975.7,100.2z
		 M1899.9,94.1c0.7-0.1,1.4-0.3,1.9-0.9c1.2-1.2,1.2-3.1,0.1-4.2c-7.4-7.4-12.8-15.4-16-23.8c-0.6-1.5-2.3-2.3-3.9-1.7
		c-1.5,0.6-2.3,2.3-1.7,3.9c3.6,9.1,9.4,17.8,17.4,25.8C1898.2,93.9,1899.1,94.2,1899.9,94.1L1899.9,94.1z M1947.4,39.7
		c0.8-0.1,1.5-0.4,2.1-1.1c1.1-1.3,0.9-3.1-0.3-4.3c-7.9-6.7-16.7-12.1-26.2-16.3c-1.6-0.7-3.3,0.1-3.9,1.5
		c-0.7,1.6,0.1,3.3,1.5,3.9c9,3.9,17.3,9.1,24.8,15.3c0.6,0.6,1.4,0.7,2.2,0.7L1947.4,39.7z M1879.9,39.8c1.4-0.1,2.6-1.2,2.8-2.7
		c1.4-12.2,4.8-19.8,9.6-21.7c0.4-0.2,0.9-0.3,1.4-0.3c1.7-0.2,2.8-1.8,2.5-3.4c-0.2-1.6-1.8-2.8-3.4-2.5c-1,0.1-1.9,0.4-2.7,0.7
		c-7.3,2.8-11.8,11.7-13.5,26.7c-0.2,1.6,1,3.1,2.7,3.3C1879.5,39.7,1879.7,39.7,1879.9,39.8L1879.9,39.8z"/>
	<path class="st2" d="M1742.5,1089.6c5.7-0.4,11.7-2.7,18.7-7c1.4-0.9,1.8-2.7,1-4.1c-0.9-1.4-2.7-1.8-4.1-1
		c-8.4,5.1-14.9,7-20.9,5.9c-1.5-0.3-3.1-0.8-4.5-1.6c-1.5-0.7-3.3-0.1-4.1,1.3c-0.8,1.4-0.1,3.3,1.3,4.1c1.9,1,4,1.7,6.1,2.1
		C1738.1,1089.7,1740.3,1089.8,1742.5,1089.6L1742.5,1089.6z M1780.9,1062.3c1.1-0.1,2.1-0.8,2.6-1.9c0.7-1.7,1.3-3.3,1.8-5.1
		c2.5-8.4,3.4-17,2.8-25.8c-0.1-1.7-1.5-2.9-3.2-2.8c-1.7,0.1-2.9,1.5-2.8,3.2c0.6,8-0.4,16-2.6,23.7c-0.4,1.5-1,3-1.5,4.5
		c-0.6,1.6,0.1,3.3,1.7,3.9C1780,1062.3,1780.5,1062.3,1780.9,1062.3L1780.9,1062.3z M1717.7,1062.6c1.5-0.1,2.7-1.3,2.8-2.9
		c0.3-8.4,4.4-17.3,11.5-24.8c1.1-1.2,1-3.1-0.1-4.3c-1.2-1.1-3.1-1-4.3,0.1c-8.1,8.7-12.8,18.8-13.1,28.7c-0.1,1.7,1.2,3,2.9,3.1
		C1717.5,1062.6,1717.6,1062.5,1717.7,1062.6L1717.7,1062.6z M1742.5,1025.8c0.5,0,1-0.2,1.5-0.5c9.8-6.8,19.2-11.3,25.8-12.3
		c1.6-0.2,2.8-1.8,2.5-3.4s-1.8-2.7-3.4-2.5c-10.1,1.6-22,9-28.2,13.3c-1.4,1-1.7,2.8-0.8,4.2
		C1740.4,1025.4,1741.4,1025.8,1742.5,1025.8z"/>
	<path class="st2" d="M1904.1,934.6c0,0,0.5,0,0.7-0.2c7-2.4,12.7-7.8,15.5-10.8c2.8-3.2,5.6-6.5,8.2-9.9c1-1.3,0.7-3.2-0.6-4.2
		c-1.3-1-3.2-0.7-4.2,0.6c-2.5,3.3-5.1,6.5-7.8,9.5c-4,4.4-8.7,7.7-12.8,9.1c-1.6,0.5-2.4,2.2-1.9,3.8
		C1901.6,933.9,1902.9,934.7,1904.1,934.6L1904.1,934.6z M1887.1,917.6c1.4-0.1,2.5-1.1,2.8-2.6c0.8-5.4,3.1-11.2,5.3-16.7
		c1.5-3.7,2.8-7.6,3.8-11.6c0.4-1.6-0.5-3.3-2.1-3.6c-1.6-0.4-3.3,0.5-3.6,2.1c-1,3.7-2.2,7.3-3.6,10.8c-2.3,5.8-4.8,12-5.7,18.1
		c-0.2,1.6,0.9,3.2,2.5,3.4C1886.7,917.6,1886.9,917.6,1887.1,917.6L1887.1,917.6z M1941.4,888.9c1.1-0.1,2.1-0.8,2.5-1.8
		c0.6-1.5,1.3-3,1.8-4.5c2.8-7.3,5.3-15.3,7.5-24.7c0.4-1.6-0.7-3.2-2.3-3.6c-1.6-0.4-3.2,0.7-3.6,2.2c-2.1,9-4.4,16.8-7.2,23.8
		c-0.6,1.4-1.2,2.9-1.8,4.3c-0.7,1.5,0,3.3,1.5,4C1940.4,888.9,1940.9,889,1941.4,888.9L1941.4,888.9z M1899.8,859.3
		c1.6-0.1,2.8-1.4,2.8-3c0-3.6-0.2-7.1-0.4-10.7c-0.5-6.2-1.2-12.7-2.4-19.7c-0.3-1.7-1.9-2.8-3.4-2.5c-1.6,0.3-2.8,1.8-2.5,3.4
		c1.2,6.9,1.9,13.1,2.3,19.1c0.2,3.4,0.4,6.9,0.4,10.3c0,1.7,1.4,3,3,3C1899.7,859.2,1899.8,859.2,1899.8,859.3L1899.8,859.3z
		 M1956.1,830.8c1.4-0.1,2.5-1.1,2.8-2.5c1.5-9.2,3.3-19.5,5.6-29.4c0.4-1.6-0.6-3.2-2.3-3.6c-1.6-0.4-3.2,0.6-3.6,2.3
		c-2.4,10.1-4.1,20.5-5.6,29.7c-0.2,1.6,0.8,3.2,2.5,3.4C1955.6,830.7,1955.9,830.7,1956.1,830.8L1956.1,830.8z M1890.8,799.9
		c0,0,0.3,0,0.5,0c1.6-0.4,2.6-2,2.2-3.7l-1.5-6.2c-1.9-7.6-3.7-15.3-5.3-23c-0.4-1.6-1.9-2.7-3.5-2.3s-2.6,1.9-2.3,3.5
		c1.6,7.7,3.5,15.4,5.4,23.1l1.5,6.2C1888,799.1,1889.3,800,1890.8,799.9z M1970.8,772.6c1.1-0.1,2.1-0.8,2.6-1.9
		c3.4-8.5,7.6-17.3,12.7-26.9c0.8-1.4,0.3-3.3-1.2-4.1c-1.4-0.8-3.3-0.2-4.1,1.2c-5.3,9.8-9.5,18.8-13,27.5
		c-0.6,1.6,0.1,3.3,1.7,3.9C1969.9,772.5,1970.4,772.6,1970.8,772.6L1970.8,772.6z M1879.2,740.9c1.7-0.1,2.9-1.6,2.7-3.3l-0.2-2.6
		c-0.5-7.3-0.5-14.1,0-20.7c0.2-2,0.4-4,0.6-6c0.2-1.6-0.9-3.2-2.5-3.4c-1.7-0.2-3.2,0.9-3.4,2.5c-0.3,2.1-0.5,4.3-0.8,6.4
		c-0.5,6.9-0.6,14,0,21.6l0.2,2.7c0.1,1.6,1.6,2.8,3.2,2.7L1879.2,740.9z M1998.8,719.4c1-0.1,1.8-0.6,2.4-1.4
		c3-4.9,6.1-9.8,9.1-14.6l6.8-10.9c0.9-1.4,0.4-3.3-1-4.2c-1.4-0.9-3.3-0.4-4.2,1l-6.8,10.9c-3,4.9-6.1,9.8-9.1,14.7
		c-0.9,1.4-0.4,3.3,1,4.1C1997.6,719.2,1998.2,719.3,1998.8,719.4L1998.8,719.4z M1888.4,682.3c1-0.1,2-0.7,2.5-1.7
		c4.5-9.3,10.3-17,17.1-23.1c1.2-1.1,1.3-3,0.2-4.2c-1.1-1.2-3-1.4-4.2-0.2c-7.4,6.6-13.7,15-18.5,24.9c-0.7,1.5-0.1,3.3,1.4,4
		C1887.3,682.3,1887.9,682.4,1888.4,682.3L1888.4,682.3z M2029.8,667.8c1-0.1,1.9-0.6,2.4-1.6c5.3-9.7,9.6-18.6,13.3-27.3
		c0.7-1.6-0.1-3.3-1.6-3.9c-1.6-0.6-3.3,0.1-3.9,1.6c-3.6,8.5-7.9,17.2-13,26.8c-0.8,1.4-0.3,3.3,1.2,4.1
		C2028.6,667.7,2029.2,667.9,2029.8,667.8L2029.8,667.8z M1932.8,644.9c0,0,0.3,0,0.4,0c4.3-0.9,8.9-1.4,13.3-1.9
		c5.4-0.6,11.1-1.2,16.5-2.6c3.1-0.8,6.5-1.9,9.8-3.4c1.5-0.7,2.2-2.4,1.6-3.9c-0.7-1.5-2.4-2.2-3.9-1.6c-3.1,1.3-6.1,2.3-9,3.1
		c-5.1,1.3-10.2,1.9-15.8,2.5c-4.5,0.5-9.3,1-13.8,2c-1.6,0.4-2.6,1.9-2.3,3.5C1929.9,644,1931.3,645,1932.8,644.9L1932.8,644.9z
		 M1997.2,621.2c0.6,0,1.3-0.3,1.8-0.7c7.6-6.5,13.6-13.6,17.6-20.7c0.5-0.9,1.1-2.3,1.8-3.9c0.6-1.6-0.2-3.3-1.7-3.9
		c-1.6-0.6-3.3,0.2-3.9,1.7c-0.5,1.3-1,2.4-1.3,3.1c-3.6,6.5-9.3,13-16.3,19.1c-1.3,1.1-1.4,3-0.3,4.2
		C1995.5,620.9,1996.4,621.3,1997.2,621.2L1997.2,621.2z M2052.7,612.4c1.3-0.1,2.3-1,2.7-2.2c2.6-10.3,4.1-20.6,4.5-30.3
		c0.1-1.6-1.3-3-2.9-3.1c-1.7-0.1-3.1,1.2-3.1,2.9c-0.3,9.4-1.8,19.1-4.4,29.1c-0.4,1.6,0.6,3.2,2.2,3.6
		C2052,612.4,2052.3,612.5,2052.7,612.4L2052.7,612.4z M2026.3,569.6c1-0.1,2-0.7,2.5-1.7c4.3-9.1,8.7-13.8,12.8-14.1
		c1.6-0.1,3.2,0.4,4.9,1.5c1.4,0.9,3.3,0.5,4.2-0.9c0.9-1.4,0.5-3.3-0.9-4.2c-9.4-6-18.5-1.1-26.3,15.1c-0.7,1.5-0.1,3.3,1.4,4
		c0.5,0.2,1,0.4,1.5,0.3L2026.3,569.6z"/>
	<path class="st2" d="M1026.1,1015.2c1.3,0,2.8,0.1,4.2,0c1.7,0,3-1.4,2.9-3.1c-0.1-1.7-1.4-3.1-3.1-2.9c-1.3,0-2.8-0.1-3.8,0
		c-8.7-0.3-17.1-2.5-23.7-6c-1.5-0.8-3.3-0.3-4.1,1.2c-0.8,1.5-0.2,3.3,1.2,4.1C1007.3,1012.5,1016.3,1014.8,1026.1,1015.2z
		 M1059.3,1009.1c0.4,0,0.8,0,1.2-0.2c9.2-3.4,18.3-8.2,27.2-14.2c1.4-0.9,1.7-2.8,0.8-4.2c-0.9-1.4-2.8-1.7-4.2-0.8
		c-8.5,5.8-17.3,10.3-25.9,13.6c-1.5,0.6-2.4,2.3-1.8,3.8C1057.1,1008.2,1058.2,1009,1059.3,1009.1L1059.3,1009.1z M983.7,985.6
		c0,0,0.4,0,0.5,0c1.6-0.2,2.8-1.7,2.6-3.4c-0.2-1.5-0.2-3-0.2-4.5c0.3-7.1,3.3-14.6,8.5-21.2c1-1.3,0.8-3.2-0.5-4.2
		c-1.3-1-3.2-0.8-4.2,0.5c-6,7.6-9.4,16.4-9.7,24.7c-0.1,1.9,0,3.7,0.3,5.5C981.1,984.5,982.3,985.7,983.7,985.6L983.7,985.6z
		 M1109.1,976.1c0.8,0,1.6-0.2,2.2-0.8c6.9-6.7,13.8-14.2,20.5-22.5c1-1.3,0.9-3.2-0.4-4.2c-1.3-1.1-3.2-0.8-4.2,0.4
		c-6.5,8.1-13.2,15.5-20,22c-1.2,1.2-1.2,3.1-0.1,4.3C1107.6,975.8,1108.3,976.2,1109.1,976.1L1109.1,976.1z M1015.7,938.7
		c0.6,0,1.2-0.1,1.7-0.4c1.8-1.1,3.6-2.2,5.4-3.2l3.9-2.3c5.6-3.3,11.1-6.6,16.6-10c1.4-0.9,1.9-2.8,1-4.2c-0.9-1.4-2.8-1.8-4.1-0.9
		c-5.4,3.4-10.9,6.7-16.4,9.9l-3.9,2.3c-1.8,1.1-3.6,2.1-5.4,3.3c-1.4,0.8-1.9,2.7-1,4.1C1013.8,938,1014.7,938.6,1015.7,938.7
		L1015.7,938.7z M1147.1,929.6c1,0,2-0.4,2.6-1.3c5.6-8.3,11-17,16-25.8c0.8-1.4,0.3-3.3-1.1-4.1c-1.4-0.8-3.3-0.3-4.1,1.1
		c-4.9,8.6-10.2,17.1-15.8,25.3c-0.9,1.3-0.5,3.2,0.8,4.2C1146,929.4,1146.6,929.6,1147.1,929.6z M1065.6,905.3
		c0.8,0,1.5-0.2,2.1-0.8c6.3-5.7,11.4-11.4,15.6-17.6c1.4-2.1,2.7-4.2,3.9-6.3c0.8-1.5,0.3-3.3-1.2-4.1c-1.5-0.8-3.3-0.3-4.1,1.2
		c-1.2,2-2.3,4-3.7,5.9c-3.9,5.8-8.7,11.2-14.7,16.6c-1.3,1.1-1.3,3-0.2,4.3c0.6,0.6,1.3,1,2.1,1L1065.6,905.3z M1177,877.4
		c1.1,0,2.3-0.6,2.8-1.7c3.9-8,7.6-16.3,10.9-24.6l1.3-3.2c0.6-1.5-0.2-3.3-1.7-3.9c-1.5-0.6-3.3,0.2-3.9,1.7l-1.2,3.1
		c-3.3,8.2-6.9,16.3-10.7,24.3c-0.7,1.5-0.1,3.3,1.4,4c0.3,0.2,0.8,0.3,1.2,0.3L1177,877.4z M1096.3,854.5c1.3,0,2.5-0.7,3-2
		l1.6-4.3c2.7-7.8,5.5-15.9,9-23.5c1.3-2.8,3.1-5.8,5.5-9c1-1.3,0.7-3.2-0.6-4.2c-1.4-1-3.2-0.7-4.2,0.6c-2.6,3.5-4.7,6.9-6.1,10.1
		c-3.6,7.8-6.5,16.1-9.2,24l-1.5,4.3c-0.5,1.5,0.3,3.3,1.8,3.9c0.3,0.1,0.6,0.1,0.9,0.2L1096.3,854.5z M1196.2,820.5
		c1.6,0.1,3-0.9,3.1-2.5c0,0,0-0.3,0-0.4c0.3-7-0.7-13.3-2.8-19c-1.6-4.2-3.6-8-6-11c-1-1.3-2.9-1.6-4.2-0.6c-1.3,1-1.6,2.9-0.6,4.2
		c2,2.6,3.7,5.8,5.1,9.5c1.9,5,2.7,10.3,2.4,16.3C1193.2,818.6,1194.5,820.4,1196.2,820.5L1196.2,820.5z M1134.2,795.8
		c0.7,0,1.3-0.2,1.9-0.6c8.9-6.5,17.9-10.8,25.8-12.2c1.6-0.3,2.7-1.9,2.4-3.5c-0.3-1.6-1.9-2.7-3.5-2.4
		c-8.8,1.6-18.5,6.2-28.2,13.2c-1.4,1-1.6,2.9-0.6,4.2C1132.5,795.2,1133.3,795.7,1134.2,795.8L1134.2,795.8z"/>
</g>
</svg>
