<?xml version="1.0" encoding="utf-8"?>
<!-- Generator: Adobe Illustrator 25.2.1, SVG Export Plug-In . SVG Version: 6.00 Build 0)  -->
<svg version="1.1" id="Layer_1" xmlns="http://www.w3.org/2000/svg" xmlns:xlink="http://www.w3.org/1999/xlink" x="0px" y="0px"
	 viewBox="0 0 4010.2 3595.2" style="enable-background:new 0 0 4010.2 3595.2;" xml:space="preserve">
<style type="text/css">
	.st0{fill:none;}
	.st1{fill:#FFFFFF;}
	.st2{fill:#0E49FF;}
	.st3{fill:#F2541A;}
</style>
<g>
	<rect x="52.7" y="773.4" class="st0" width="2822" height="1415"/>
	<g>
		<rect x="52.7" y="773.4" class="st1" width="2822" height="1415"/>
		<path class="st2" d="M2786.4,1847.7c26.9-1.9,49.7-6.2,70.3-13c34.6-11.5,62.8-30.7,81.7-55.5c9.6-12.6,16.8-26.8,22.9-39.2
			c13.9-28.4,26.4-57.9,37.1-87.7c13.3-36.8,25.9-80.2,19.2-123c-4.1-26.6-26.7-105.7-62.3-125.2c-10-5.5-20.4-6.1-30.6-1.6
			c-21.8,9.5-28.5,34.4-34.3,56.5c-1.4,5.2-2.7,10.1-4.1,14.7c-11.7,36.1-23.6,67.6-36.5,96.2c-9.6,21.3-20.7,43.5-37.3,61.8
			c-11.6,12.7-25.6,23.3-39.3,33.6c-6.4,4.8-13,9.8-19.4,15c-26.5,21.7-48.9,47.5-66.7,76.8c-7.8,12.8-16.4,29.8-13.4,47
			c2.7,16.3,15.9,30.9,34.2,38.3c16.7,6.6,35.1,6.9,51,6.7C2768.5,1848.8,2777.7,1848.4,2786.4,1847.7L2786.4,1847.7z
			 M3011.5,1530.2c6.5,41.5-6,84-19,120.1c-10.6,29.6-23.1,58.9-36.8,87.1c-5.9,12.1-13,26-22.3,38.2
			c-22.9,30.1-55.5,45.7-78.8,53.4c-26.6,8.9-57.2,13.3-96.1,13.9c-15.3,0.3-33,0-48.6-6.3c-12.9-5.1-27.6-16.6-30.5-33.7
			c-2.6-15.3,5.4-31,12.7-42.9c17.4-28.7,39.4-54,65.4-75.2c6.2-5.1,12.8-10,19.2-14.8c13.9-10.4,28.2-21.2,40.1-34.4
			c17.2-19,28.6-41.6,38.3-63.4c12.9-28.9,24.9-60.5,36.7-96.9c1.5-4.6,2.8-9.6,4.2-15c5.5-20.7,11.7-44.2,30.8-52.5
			c8.7-3.7,16.9-3.3,25.3,1.3c33.3,18.3,55.4,96.2,59.3,120.9L3011.5,1530.2z"/>
		<path class="st2" d="M2645.3,1505c52-3.8,83.3-57.8,94.8-106.9c8.2-34.8,10.8-70.6,7.8-106.2c-0.9-10.9-2.3-22.1-3.7-33
			c-6.2-49.5-12.6-100.8,25.3-138.9c13.7-13.8,32.1-23.8,52.9-28.8c51.4-12.5,102.3,3.5,149.6,22.6
			c51.6,20.9,123.1,56.2,148.1,121.7c3.4,9,6,18.6,8.5,28c4.6,17.1,9.3,34.9,19.6,49.8c15.9,22.9,41.8,35.2,66.9,46
			c70.1,29.9,174.5,65.9,271.7,34.9c80.5-25.7,138-90.8,193.6-153.8c32.8-37.1,66.6-75.5,105.1-105.9c12-9.5,24.8-18.4,37.2-27.1
			c18.6-13,37.9-26.6,55-42.1c46.2-42.2,75.8-99.4,96.4-144.5c50.4-110.3,56.3-199.1,17.5-263.7c-4.2-7-19.4-29.4-39.6-24.2
			c-6.3,1.6-11.5,5.7-16.1,10c-40.5,36.8-60.7,88.9-80.1,139.4c-10.3,26.7-21,54.3-34.5,79.3c-35.1,64.9-90.4,115.3-143.9,164.2
			L3542,1148.9c-26.2,23.8-55.7,50.9-92.2,60.8c-81.2,22.1-155.5-47.2-183.6-78c-13.9-15.3-27.4-31.7-40.4-47.7
			c-31.7-38.9-64.5-79.2-108-105.4c-110-66.3-248.7-23.9-341.8,37.9c-47.9,31.8-78.7,63.3-96.8,99c-21.1,41.6-24,88.3-24.2,124.3
			c-0.1,10.7-6.7,19.8-16.8,23.2c-7.8,2.6-18.8,1.8-26.3-8.1c-9.9-13.1-17.2-29.5-20.6-46.2c-6.8-33.5-1.6-68.7,3.4-102.7l1.3-9.1
			c9.7-66,14-141-27.3-196.6c-7.6-10.2-16.8-20-25.7-29.5c-22.7-24.2-44.3-47.2-42.1-77.3c1.3-17.6,10.7-32.7,20.8-48.7
			c6.1-9.7,12.3-19.6,16.7-30.3c16.5-40.5,3.5-86.6-7.9-127.3c-2.3-8.3-4-15.2-2.1-21.6c4.2-14,21.8-17.6,40.9-20.2
			c60.6-8.4,117.1-45.2,155-101c38-55.8,51.4-121.9,36.9-181.3c-1.5-6.2-3.3-12.4-5.1-18.6c-5.9-20.3-11.4-39.5-8.1-59.9
			c2-12.1,7.6-22.8,15.8-30c8.7-7.6,18.8-10.5,29.4-8.6c13.4,2.4,26.9,12.8,34.5,26.5c9.9,17.9,11.5,39.8,12.9,59
			c4.2,56.4,8.6,114.7-2.3,171.1c-12,62.9-42.3,113.4-85.2,142.1c-10.6,7.1-22.2,13.1-33.5,18.8c-12.6,6.4-25.5,13.1-37.3,21.3
			c-62.2,43.9-81.5,139.2-41.3,203.9c4.9,7.8,10.6,15.5,16.1,22.8c12.5,16.6,24.2,32.3,28,51.5c1.7,9,1.7,18.9,1.6,28.4
			c-0.2,20.5-0.4,41.7,17.6,56.8c10.8,9,26.1,13,42,10.6c25.2-3.8,44.6-18.5,63.3-32.7c5.6-4.3,11.4-8.7,17.3-12.8
			c71.8-49.5,177.3-54.7,275.2-13.5c90,37.8,163.4,105.4,230.9,171.4c15.1,14.7,30.7,30,51,36.9c14.7,5,30.2,4.9,44.8,4.2
			c43.8-2.3,123.8-15.2,167.5-76.6c13-18.2,21.4-39.2,29.6-59.5c4.4-11.1,9.1-22.5,14.4-33.3c25-51,66.5-92.2,106.7-132.1
			c15.2-15.1,31-30.6,45.6-46.6c39.3-42.8,102-127.6,80.1-215.3c-1.7-6.7-3.8-13.4-5.9-19.9c-5.4-16.6-10.4-32.2-8.3-48.5l2.4-19.1
			l-8.2,17.4c-37.7,80.6-80.5,172-147.8,242.2c-5.7,6-11.6,11.8-17.6,17.6c-14.1,13.9-28.6,28.2-40.5,44.5
			c-19.1,26.1-31.1,56.7-42.7,86.3c-11.8,30-24,61.1-43.6,87c-30.9,41-80,67-131.3,70c-6.7,0.4-14.2,0.2-19.3-3.7
			c-4.9-3.8-7-10.6-9.1-17.1l-0.3-1.1C3360.8,878,3217,819.8,3105.9,808.5c-57.7-5.9-115.9-3.7-173.1,6.4l-8.2,1.5
			c-16.7,3.1-33.9,6.2-50.8,5c-30.2-2.1-58.6-21.2-75.9-51.1c-17.3-29.9-19.9-63.9-6.8-91.2c10.1-21,27.3-37.9,43.9-54.2
			c8.2-8.1,16.7-16.4,24.3-25.2c49-56.5,70.3-138.2,64.8-249.7c-1.3-26.8-3.8-54-6.3-80.3c-5.6-60.4-11.4-122.9-2.6-183.8l115.9,6.4
			c4.4,130.1-7,260.7-33.5,388.2c-7,33.8-15.8,69-37.8,96.1c-5,6.1-10.9,12.1-16.5,17.9c-18,18.3-36.6,37.2-33.1,66.6
			c1.9,16,10.8,31.1,24.9,42.2c29.6,23.4,67.1,24.4,100.4,25.3l75,2c48.4,1.3,93.4-24.1,117.7-66.3c10.6-18.4,21.1-40.7,18.7-66.1
			c-1.6-17.6-9.4-33.6-16.9-49.1c-1.9-3.9-3.8-7.8-5.5-11.7c-39-85.3-30.3-190.7,22.1-268.5c4.7-7,10-14,15-20.8
			c10.6-14.3,21.6-29.1,29.3-45.6c13.5-29,13.3-58.4-0.7-78.9l-1.1-1.6l-1.9,0.3c-37.9,6.7-69.3,39.7-93.5,98.1
			c-30.8,74.5-48.1,153.2-51.5,233.9c-0.4,9.7-0.6,19.5-0.8,29.3c-1.1,48-2.3,97.5-25.5,138.7c-8.8,15.7-18.1,22.1-30.1,20.6
			c-8.4-1-16.4-6.5-21.5-14.6c-10.4-16.7-7.8-37.1-5.6-55.1l42.9-337.7c6.2-48.8,14.4-95,46.6-124.3c32.4-29.5,80.6-32.8,119-32.4
			c32.6,0.3,73.2,4,98.5,29.5c30.9,31.1,27.3,81.3,13.8,117.8c-7.9,21.3-19.4,41.7-30.5,61.3c-9.7,17.2-19.7,34.9-27.4,53.4
			c-20.9,50.1-25.4,106.8-12.5,159.6c3.3,13.6,7.8,27.5,12.1,41c13.2,41.3,26.9,83.9,9.4,121.8c-3.7,8-8.9,15.8-13.9,23.3
			c-9,13.5-18.4,27.5-19.9,44.2c-2.5,28,17.9,51.9,37.3,72.1L3433,906c4.6,4.9,11,11.5,19.5,12.9c7.9,1.4,16.4-1.8,26-9.7
			c36.9-30.3,53.1-76.9,68.9-122c2.8-8.1,5.7-16.1,8.5-24c29.9-81.3,77.2-157.6,136.6-220.5c17.8-18.8,37.1-37,55.7-54.5
			c34.1-32,69.4-65.2,96.9-104c39.2-55.2,68.1-139.3,31.7-209.8l-3.6-7l-2,7.7c-20,78.2-80.1,131.8-143.7,188.5
			c-32.4,28.9-65.9,58.7-93.1,91.9c-3.3,4.1-6.7,8.2-9.9,12.4c-9.7,12.3-19.8,25.1-31.8,35.5c-26.9,23.4-66.5,33-105.9,25.5
			c-39.4-7.5-72.7-30.8-89.3-62.4c-12.4-23.7-16.5-57.1,2.1-78.1c5.6-6.3,12.7-11,20.2-15.9c2.8-1.8,5.5-3.6,8.2-5.5
			c42.4-30,65.3-84.5,57.1-135.8c-2.7-16.8-8.5-33-14.1-48.7c-7.6-21.1-15.4-43-15.4-66.2c-0.1-13.4,3-25.9,8.8-36
			c10.9-19.1,28.9-28.3,50.7-26c30,3.1,59.6,27.2,68.8,56c14.1,43.8-1.2,91.1-19.6,139.7c-18.8,49.7-34.4,98.1-19.9,143.6l0.6,1.9
			l2,0.2c33.7,2.8,57.8-22.9,80.9-47.8c11.8-12.7,24-25.7,37.5-35.1c11.1-7.7,23.8-13.3,36.2-18.7c7.3-3.2,14.9-6.5,22.1-10.3
			c30.2-15.7,55.5-39.5,72.9-68.8c18.7-31.4,31.7-82.1,6.4-121.4c-12.5-19.4-36.6-32.3-61.4-33c-20.5-0.6-38.4,7.5-48.9,22.2l-2,2.8
			l3.1,1.6c25.2,13.4,40.7,43.5,39.5,76.8c-1.2,32.3-17.8,59.4-43.3,70.7c-4.4,1.9-8.3,2.9-12,3c-26.1,0.4-32.2-33.5-33.5-53.7
			L3632.6,0l-6,0.4l12,183.6c2.5,38.7,16.5,59.7,39.6,59.3c4.5,0,9.2-1.2,14.4-3.4c27.7-12.3,45.7-41.4,46.9-75.9
			c1.2-34.2-14.3-65.4-39.6-80.6c9.6-11.3,24.6-17.5,41.8-17c22.9,0.6,45.1,12.5,56.5,30.2c23.8,37,11.4,85.1-6.5,115.1
			c-16.6,27.9-41.7,51.5-70.6,66.5c-7,3.6-14.5,7-21.8,10.1c-12.6,5.5-25.6,11.2-37.2,19.3c-14,9.8-26.4,23.1-38.4,35.9
			c-22.7,24.4-44.3,47.5-74.1,46c-12.9-43.2,2.3-89.8,20.4-137.8c18.7-49.7,34.4-98,19.7-143.7c-9.9-30.9-41.7-56.7-73.9-60.1
			c-24.3-2.5-44.3,7.7-56.5,29c-6.3,11-9.6,24.5-9.6,39.1c0.1,24.2,8.1,46.6,15.8,68.2c5.5,15.4,11.2,31.3,13.8,47.6
			c7.9,49-14.1,101.3-54.6,129.9c-2.6,1.9-5.3,3.6-8,5.4c-7.5,4.9-15.3,10-21.4,16.9c-20.5,23.2-16.2,59.4-2.9,84.9
			c17.4,33.2,52.3,57.8,93.5,65.6c41.2,7.8,82.7-2.2,111-26.9c12.3-10.7,22.6-23.7,32.5-36.2c3.3-4.1,6.5-8.3,9.8-12.3
			c27.1-32.8,60.3-62.6,92.5-91.2c59.4-53,120.9-107.8,143.3-183.7c29.8,66.5,2.2,144.4-34.7,196.3c-27.2,38.3-62.2,71.3-96.1,103.1
			c-18.7,17.6-38.1,35.8-56,54.8c-60,63.6-107.7,140.5-137.9,222.5c-2.9,7.9-5.7,16-8.6,24.1c-15.5,44.3-31.5,90.1-67.1,119.4
			c-8.2,6.7-15.1,9.5-21.2,8.5s-10.9-5.7-16.2-11.2l-98.9-103.1c-18.4-19.2-37.9-41.8-35.6-67.4c1.4-15.1,9.9-27.9,18.9-41.4
			c5.1-7.7,10.5-15.6,14.4-24.1c18.5-39.9,4.4-83.7-9.1-126.1c-4.3-13.4-8.8-27.3-12-40.6c-12.6-51.6-8.3-106.9,12.2-155.8
			c7.6-18.2,17.5-35.8,27.1-52.8c11.2-19.9,22.8-40.4,30.9-62.2c14.3-38.2,17.8-91-15.2-124.1c-26.9-27.1-69-31-102.7-31.3
			c-39.5-0.4-89.2,3.1-123.1,34c-33.7,30.7-42.2,78-48.6,128l-42.8,337.7c-2.3,18.1-5.2,40.5,6.4,59.1c6.1,9.8,15.5,16.1,25.9,17.4
			c19.1,2.3,29.7-12.3,36.1-23.6c24-42.6,25.1-92.9,26.3-141.6c0.2-9.8,0.5-19.6,0.9-29.2c3.3-79.9,20.5-157.9,51.1-231.8
			c22.9-55.4,52.2-87.1,87-94.1c13.7,21.9,8.7,51-0.8,71.3c-7.5,16-18.3,30.5-28.7,44.5c-5.1,6.8-10.3,13.9-15.1,21.1
			c-53.6,79.5-62.4,187.2-22.6,274.4c1.8,3.9,3.7,7.9,5.6,11.8c7.3,15,14.8,30.6,16.4,47.1c2.3,23.8-7.8,45-17.9,62.6
			c-23.1,40.2-66.1,64.4-112.3,63.2l-75-2c-32.3-0.9-68.8-1.9-96.8-24c-12.9-10.2-21-23.8-22.7-38.2c-3.2-26.5,13.6-43.6,31.4-61.7
			c5.8-5.8,11.7-11.9,16.9-18.3c22.8-28.1,31.8-64.1,39-98.6c26.9-128.8,38.2-260.8,33.6-392.3l-0.1-2.8l-126.9-7l-0.4,2.7
			c-9.4,62.4-3.6,126.2,2.2,188c2.4,26.2,4.9,53.4,6.3,80.1c5.3,109.9-15.4,190.1-63.4,245.5c-7.5,8.6-15.9,16.9-24,24.8
			c-17,16.7-34.6,34-45.1,55.9c-13.9,29.1-11.3,65.3,7,96.9c18.4,31.6,48.6,51.8,80.7,54.1c17.6,1.3,35.3-2,52.3-5.1l8.2-1.5
			c56.6-10,114.3-12.2,171.4-6.3c109.3,11.1,250.6,68.1,289.6,192l0.3,1.1c2.2,7.1,4.7,15.2,11.2,20.1c6.7,5.2,15.5,5.4,23.3,5
			c53-3,103.8-30,135.7-72.4c20-26.5,32.4-58,44.3-88.5c11.5-29.2,23.3-59.5,42-84.9c11.6-15.9,26-30,39.9-43.7
			c6-5.9,11.9-11.7,17.7-17.7c64.5-67.2,106.4-153.3,142.9-231.1c1,12.5,5,24.8,8.8,36.7c2,6.4,4.2,13,5.8,19.5
			c21.1,85-40.3,167.9-78.7,209.8c-14.5,15.8-30.3,31.4-45.4,46.4c-40.5,40.2-82.5,81.7-107.9,133.6c-5.4,11-10,22.6-14.5,33.7
			c-8.1,19.9-16.4,40.6-29,58.2c-42.3,59.4-120.1,71.9-162.9,74.1c-14,0.7-28.8,0.7-42.5-3.9c-19.1-6.5-34.2-21.2-48.8-35.4
			c-67.9-66.4-141.8-134.4-232.8-172.7c-99.8-42-207.4-36.6-281,14.1c-6,4.1-11.8,8.6-17.5,12.9c-18.9,14.5-36.8,28-60.5,31.6
			c-14.1,2.1-27.7-1.3-37.2-9.3c-15.9-13.3-15.7-32.2-15.5-52.1c0.1-9.8,0.2-19.9-1.6-29.6c-4-20.6-16.8-37.5-29.1-53.9
			c-5.4-7.2-11.1-14.7-15.8-22.3c-38.6-62.1-20-153.6,39.7-195.8c11.4-8.1,24.2-14.6,36.6-20.9c11.4-5.8,23.2-11.9,34.1-19.2
			c44.3-29.6,75.4-81.5,87.7-146c10.9-57.2,6.6-116,2.3-172.7c-1.4-19.9-3.2-42.4-13.7-61.5c-8.5-15.5-23.3-26.8-38.7-29.5
			c-12.4-2.2-24.3,1.3-34.4,10c-9.3,8.1-15.6,20-17.8,33.5c-3.5,21.8,2.5,42.5,8.2,62.5c1.8,6.1,3.5,12.2,5,18.3
			c14.1,57.8,0.9,122.1-36.1,176.5s-92,90.3-150.9,98.5c-16,2.2-40.2,5.6-45.8,24.4c-2.6,8.5,0,17.7,1.9,24.4
			c11.9,42.2,24,85.3,8.3,123.9c-4.1,10.1-10.3,19.9-16.2,29.3c-10,15.9-20.3,32.3-21.7,51.4c-2.3,32.8,21.1,57.7,43.8,81.8
			c8.8,9.3,17.8,19,25.2,28.9c39.9,53.9,35.7,127.4,26.2,192.2l-1.3,9.1c-5.2,34.5-10.4,70.1-3.4,104.7
			c3.6,17.8,11.1,34.7,21.7,48.7c7.7,10.3,20.7,14.3,33,10.2c12.7-4.2,20.9-15.6,21-28.8c0.2-35.4,3-81.2,23.5-121.6
			c17.6-34.8,47.8-65.6,94.8-96.7c91.6-60.8,227.7-102.5,335.3-37.7c42.7,25.7,75.1,65.6,106.5,104.1c13,16,26.5,32.5,40.6,47.9
			c28.9,31.6,105.2,102.7,189.7,79.7c37.8-10.3,68-37.8,94.7-62.1l135.3-123.4c53.9-49.1,109.6-99.9,145.2-165.7
			c13.7-25.4,24.5-53.2,34.8-80.1c19.2-49.8,39.1-101.3,78.5-137.1c4.7-4.3,8.8-7.3,13.5-8.6c16.2-4.1,29.3,15.3,33,21.4
			c37.7,62.9,31.7,149.8-17.8,258.1c-20.4,44.6-49.5,101.1-94.9,142.5c-16.9,15.4-35.9,28.8-54.4,41.7
			c-12.5,8.7-25.3,17.7-37.5,27.3c-38.9,30.7-72.9,69.3-105.9,106.6c-57.6,65.2-112,126.8-190.9,152.1
			c-95.3,30.4-198.3-5.2-267.5-34.7c-24.3-10.4-49.3-22.3-64.3-43.9c-9.8-14.1-14.1-30.5-18.7-47.9c-2.5-9.5-5.1-19.3-8.7-28.6
			c-25.8-67.7-98.8-103.9-151.4-125.1c-48.3-19.5-100.3-35.8-153.3-22.9c-22,5.3-41.3,15.9-55.8,30.5c-40,40.2-33.4,92.9-27,143.9
			c1.4,10.8,2.7,22,3.6,32.8c2.9,35,0.3,70.1-7.7,104.4c-12.2,52.1-47.3,110-106.1,101.6c-17-2.4-33.9-10.9-48.8-24.6
			c-39.7-36.3-58.4-93-57.3-173.2c0.3-19.4,1.5-39.1,2.7-58.2c2.4-39,5-79.2-0.5-118.5c-7.9-56.3-31.6-108.5-54.6-159
			c-19.2-42.3-37.9-78.9-72.6-99.3c-36.1-21.3-79.5-18.5-121.5-15.8c-7.1,0.5-14.1,0.9-21,1.2c-37.6,1.8-129-1-165.8-64.7
			c-4.9-8.5-11-23.8,2.3-31.9c4.2-2.6,9.6-3.7,15.5-3.3c104.5,6.8,186.2-7.6,249.7-44.2c25-14.4,40.8-29.4,49.9-47.1
			c16.5-32.5,8.2-69.6,0.1-105.5c-1.8-8-3.7-16.3-5.2-24.2c-8.5-44.5,3.4-96.7,42.2-105.8c13.6-3.2,28.2-0.2,42.3,2.8l5.8,1.2
			c64.4,13,155.2,4.6,198.5-61.7c47.6-72.7,6.9-175.9-59.9-233.7l-3.9,4.6c64.8,56.1,104.6,156,58.8,225.9
			c-41.8,63.8-129.7,71.7-192.3,59.1l-5.7-1.2c-14.7-3.1-29.9-6.3-44.9-2.7c-42.4,9.9-55.7,65.5-46.7,112.8
			c1.6,8.1,3.4,16.4,5.3,24.5c7.9,34.8,16,70.9,0.4,101.4c-8.4,16.6-23.5,30.8-47.5,44.6c-62.4,36-142.9,50.2-246.2,43.4
			c-7.1-0.5-13.7,1-19,4.2c-12.9,7.9-14.6,22.5-4.5,40c38.4,66.6,132.6,69.5,171.3,67.7c7-0.3,14.1-0.8,21.1-1.2
			c41.1-2.7,83.5-5.4,118,15c33.2,19.6,51.5,55.3,70.2,96.7c22.8,50.1,46.3,102,54.1,157.4c5.4,38.8,3,78.7,0.5,117.3
			c-1.2,19.2-2.4,39-2.7,58.5c-1.1,82,18.3,140.2,59.3,177.7c15.9,14.5,33.8,23.6,52.1,26.1c6.2,0.9,12.2,1.1,18,0.6L2645.3,1505z"
			/>
		<path class="st2" d="M2485.3,2304.1c33.2-2.4,67.4-15.7,97.4-38.5c17.2-13.1,32.6-28.8,47.4-44c13.7-14,27.9-28.5,43.4-40.8
			c28.3-22.5,62.1-38.4,97.5-45.9c46.1-9.8,108.9-5,146.7,38.2c3.9,4.4,7.7,9.2,11.6,14.4c16.1,20.5,34.4,43.7,60.3,38.8
			c17.9-3.5,29.4-20,35.9-33.3c18.6-38.2,19.7-84.2,2.9-123.3c-1.8-4.2-3.8-8.3-5.8-12.4c-6.3-13-12.3-25.3-12.2-38.8
			c0.1-23.8,18.6-42.2,36.4-60.1c4.5-4.5,8.9-9,13.1-13.5c15.6-17,24.5-41.8,21.5-60.4c-1.8-11.1-7.6-19.7-16.8-25
			c-23.9-13.5-52.7,6.3-69.9,18.1c-101.8,70.1-309.4,134.2-431.4,49.5c-12.8-8.9-24.8-19.2-36.5-29.2
			c-17.5-14.9-35.5-30.3-56.3-41.4c-35.1-18.6-84.5-21.5-111.1,9.2c-6.1,7.1-10.5,15.3-14.7,23.3c-3,5.6-6.1,11.4-9.7,16.6
			c-8.1,11.8-22.3,21.9-35.6,18.3l-2.9-0.8l-0.8,2.9c-10.7,37.6,11.4,71.9,32.9,104.9c18.3,28.2,37.2,57.4,36.5,89.2
			c-0.3,11.9-3.4,23.8-6.4,35.4c-2.6,10.1-5.4,20.5-6.3,31.1c-4.3,49.4,33.5,99.3,86.2,113.6c14.9,4.1,30.7,5.4,46.6,4.2
			L2485.3,2304.1z M2797.3,2125.1c-9.5,0.7-18.8,2-27.5,3.9c-36.4,7.8-70.9,24.1-100,47.1c-15.8,12.5-30.1,27.1-43.9,41.3
			c-14.7,15.1-29.9,30.6-46.8,43.4c-42.9,32.7-94.8,45.1-138.8,33.2c-50-13.5-85.9-60.6-81.8-107.2c0.9-10.1,3.5-20.3,6.1-30.1
			c3.1-11.9,6.3-24.2,6.6-36.7c0.7-33.5-18.7-63.6-37.4-92.6c-21-32.6-41-63.3-32.9-97.3c16.2,2.7,31.1-9.5,39.2-21.3
			c3.8-5.5,7-11.4,10-17.2c4.3-8,8.3-15.6,14-22.2c24.5-28.2,70.7-25.3,103.7-7.8c20.1,10.7,37.9,25.9,55.2,40.6
			c11.8,10.1,24,20.5,37.1,29.5c124.3,86.3,335,21.6,438.2-49.4c21.7-15,44.5-28.6,63.6-17.9c7.7,4.3,12.3,11.3,13.9,20.7
			c2.7,16.9-5.6,39.7-20,55.4c-4.1,4.5-8.5,8.9-12.9,13.3c-18.7,18.7-38,38.1-38.1,64.3c-0.1,14.8,6.5,28.4,12.8,41.4
			c2,4.1,3.9,8.1,5.7,12.2c16.1,37.4,15.1,81.6-2.8,118.2c-5.9,12.1-16.1,27.1-31.6,30.1c-22.3,4.3-38.6-16.5-54.4-36.6
			c-3.8-4.9-7.9-10-11.8-14.6c-32.3-36.9-81.9-47.1-124.9-43.9L2797.3,2125.1z"/>
		<path class="st2" d="M2588.9,2114.7c5.5-0.4,11.2-1.3,17-2.7c12.6-3.1,24.7-8.2,36.5-13.2c7.7-3.2,15.6-6.6,23.6-9.3
			c27.4-9.4,58.8-13,95.9-11c0.5,0,47.9,2,53.7-12.8c1.9-4.7-0.6-10-7.3-15.6c-18.7-15.7-66.9-9.1-90.1-5.9l-2.3,0.3
			c-9.9,1.4-19.8,3.1-29.4,4.6c-21,3.6-42.6,7.2-64.1,7.5c-26.9,0.3-54.4-5.1-79.3-15.4l-1.6-0.7l-1.4,1
			c-7.8,5.8-12.3,14.9-12.6,25.8c-0.4,13.2,5.3,26.4,14.9,34.5C2554.1,2111.5,2570.5,2115.9,2588.9,2114.7L2588.9,2114.7z
			 M2720.7,2072.6c-20.6,1.5-39.4,5.2-56.6,11.1c-8.1,2.8-16.2,6.2-23.9,9.4c-11.5,4.9-23.4,9.9-35.6,12.9
			c-23.3,5.8-44.5,2.5-58.1-9c-8.1-6.8-13.1-18.5-12.7-29.7c0.3-8.3,3.4-15.4,8.9-20.1c25.2,10.2,52.9,15.5,80,15.2
			c21.9-0.2,43.9-3.9,65.1-7.5c9.6-1.7,19.5-3.3,29.2-4.6l2.3-0.3c20.5-2.8,68.7-9.5,85.4,4.6c2.5,2.1,6.6,6.1,5.5,8.8
			c-2.9,7.3-33.1,9.8-47.9,9C2747.5,2071.6,2733.7,2071.7,2720.7,2072.6L2720.7,2072.6z"/>
		<path class="st3" d="M199.4,3572.7c9.4-0.7,18.5-3.3,27.1-8.1l4.5-2.4l-3-4.1c-71.2-99.9-58.4-251.8,28.4-338.4
			c22.8-22.8,50.6-42.2,77.5-60.9c48.6-34,98.9-69.1,120.4-124.9c27-70-1.3-142.1-28.6-211.9c-19.8-50.4-40.2-102.6-40.8-154.8
			c-0.9-76.2,40.3-144.9,80.1-211.3c37.8-63,76.9-128.2,81.9-201.3c3.4-49.5-9.3-98.2-21.6-145.2c-6.7-25.4-13.5-51.7-17.7-77.7
			c-12-74,5.7-161.9,72.3-191.2c9.6-4.3,23.5-8.1,35.1-2.7c14.1,6.7,20.7,24.8,20.2,55.1c-0.3,15.2-0.8,30.4-1.3,45.7
			c-1.8,54.9-3.7,111.7,5.3,166.9c7.7,47.2,31.4,133.6,103.6,182.5c54.6,36.9,124.2,43,185.2,44c31.2,0.5,64.3,0.1,95.1-11.8
			c35.7-13.8,64.3-44.6,78.4-84.5c14.1-39.9,11.2-81.9-8-115c-35.7-61.8-57-118.8-123.4-139.8l-9.9-3.1
			c-95-30.2-144.5-64.8-157.2-120.5c-17.7-77.7-5.5-122,59.2-158.5c18.8-10.6,38.9-20.5,58.3-30c52.5-25.7,106.8-52.3,144.1-98.3
			c62.1-76.8,57.7-179.5,53.4-279c-3.8-86.2-7.6-175.3,30.8-249.1c14.7-28.3,35.6-53.6,55.7-78.1c21.8-26.5,44.3-53.9,59.6-85.4
			c34.6-71.2,28.7-153.3,18.3-224.2c-2-13.7-4.2-27.4-6.4-41.2c-9.6-59.7-19.5-121.6-11.7-181.8c8.2-63.3,45.2-145.6,122.2-169.1
			l-2.6-8.6c-81.2,24.8-120,110.6-128.5,176.6c-8,61.6,2.1,124,11.7,184.4c2.2,13.7,4.4,27.4,6.4,41c10.2,69.6,16,150-17.5,219
			c-14.8,30.5-37,57.5-58.5,83.5c-20.5,24.9-41.6,50.5-56.8,79.6c-39.7,75.9-35.7,166.3-31.9,253.6c4.5,102.2,8.7,198.8-51.3,272.9
			c-36,44.5-89.4,70.6-141,95.9c-19.6,9.6-39.7,19.5-58.9,30.2c-67.3,38.1-82.4,85.8-63.6,168.3c13.5,59,64.9,95.8,163.2,127
			l9.9,3.1c68,21.5,84.3,76.9,118.2,135.7c17.8,30.9,20.5,70,7.3,107.5c-13.2,37.4-39.9,66.3-73.1,79.1
			c-29.3,11.3-61.3,11.7-91.7,11.2c-59.6-1-127.6-6.9-180.3-42.5c-69.4-46.9-92.3-130.7-99.8-176.5c-8.9-54.3-7-110.6-5.2-165.1
			c0.5-15.3,1-30.5,1.3-45.8c0.2-12.6,0.9-51-25.3-63.4c-14.6-6.9-31.2-2.4-42.6,2.6c-71,31.2-90.1,123.5-77.6,201
			c4.3,26.5,11.2,52.9,17.9,78.6c12.1,46.4,24.7,94.4,21.3,142.4c-4.9,70.9-43.4,135.1-80.7,197.3c-40.5,67.5-82.4,137.3-81.4,216.1
			c0.6,53.8,21.4,106.8,41.5,158c27.9,71.3,54.4,138.6,28.6,205.3c-20.6,53.2-67.5,86-117.2,120.8c-27.2,19-55.3,38.7-78.7,61.9
			c-88.6,88.4-102.6,242.3-32.4,345.7c-18.6,8.2-39.7,6-59.8-6.5c-31.6-19.6-53.5-59.7-52.2-95.5c1.8-51.3,30.1-97.4,57.4-141.9
			c6.6-10.8,13.4-21.9,19.8-33c14.8-25.7,29.4-56.3,25.1-88.2c-2.5-18.3-13.5-36.3-28.8-46.8c-12.1-8.4-25.7-11.3-38.5-8.3
			c-15.4,3.6-27.3,14.4-37.9,25.5c-99.1,104.1-130.5,269.8-76.5,403l8.4-3.4c-52.7-130-22-291.8,74.7-393.4
			c9.6-10.1,20.3-19.9,33.4-23c13.2-3.1,24.3,2.1,31.4,7c13.3,9.2,22.8,24.7,24.9,40.6c3.9,29.3-9.9,58.2-23.9,82.6
			c-6.3,10.9-13.1,22-19.7,32.7c-28,45.6-56.8,92.6-58.8,146.3c-1.4,39.5,21.8,82,56.5,103.5c15.3,9.5,31.1,13.7,46.3,12.6
			L199.4,3572.7z"/>
		<path class="st2" d="M1774.7,3533.3c-3.1-145.3-39.3-290.6-104.8-420.2c-7.7-15.4-16-30.9-24.1-45.8
			c-28.4-52.9-57.8-107.6-67.6-166.9c-12.1-72.5,14.6-163.9,87.9-190.6c30.5-11.1,64-8.8,96.7,6.6c47.6,22.4,89.2,69.7,108.4,123.5
			c19,53.1,23.3,110.8,27.4,166.7c2.6,35.1,5.3,71.4,11.6,106.6c14.2,79.5,46.5,135.1,95.7,165.1c31,18.9,67,24.4,98.9,15.1
			c30.4-9,53.8-29,67.4-58.2c19-40.5,18-97.5-2.6-145.2c-16.2-37.6-40.8-71-64.5-103.4c-17.1-23.2-34.6-47.2-48.9-72.4
			c-11.6-20.5-21.4-42.5-30.9-63.8c-7.8-17.5-15.9-35.7-25-53c-20.9-39.8-47.8-76.7-73.8-112.3c-19.9-27.3-40.6-55.5-58.2-84.8
			c-34.3-56.8-69.6-141.3-42.9-221.8c7.4-22.3,19.5-43.5,31.2-63.9c14.9-26.2,30.4-53.3,36.6-83.5c14.7-72.2-27.1-143-59.8-190
			c-6-8.6-12.2-17.2-18.3-25.8c-32.7-45.6-66.6-92.7-77.4-147.3c-7.6-38.4-3.4-92.1,18.6-122.8c15.9-22.3,32.7-5.9,56.7-9.1
			c5.2-0.7,18.2-31.2,39.7-19c8.7-0.3,3.1-1.8,11.8-4.2c46.7-12.7,60.9-72.7,54.5-123c-1.1-8.3-2.4-16.8-3.8-25.2
			c-6.1-38.2-12.3-77.7,6-109.9c12.4-21.8,34.5-36.5,55.8-50.8c7.1-4.8,14.6-9.7,21.5-14.9c52.4-38.7,88.1-101.4,97.9-172
			c9.9-70.6-7.3-140.7-47.2-192.3c-17.2-22.3-38.2-41.8-58.4-60.6c-16.2-15-32.9-30.6-47.5-47.4c-28-32.3-49.4-70.9-61.9-111.5
			c-4-13.2-5.6-26-4.7-38c1.9-24,12.3-43.2,30.8-57.3c39.1-29.7,105.9-30,151.2-21.2l7.5,1.5c72.2,14.1,154.2,30.1,204.2-22.7
			c47.3-49.8,32.2-127.9,20.1-190.7c-11.8-60.9-14.4-140.5,40-173.6c42.5-25.8,89.6-3.3,119.6,26.4c26.6,26.3,65.3,32.4,98.5,15.6
			c32-16.1,48.7-48.1,43.6-83.5c-3.9-26.9-14.5-51.1-30.7-70c-57-66.4-170.8-77.5-253.7-24.7c-48.4,30.7-80,77.4-84.3,124.7
			c-2.9,30.8,5.2,61.1,13.1,90.4c5.4,20.4,11.1,41.5,12.9,62.5c5.9,68.3-33.2,136.9-92.9,163.1c-61.7,27.1-141.8,3-174.9-52.4
			c-33.4-55.9-20.3-121.9-6.3-191.8c13.5-67.6,27.4-137.5-5.8-196.3l-0.8-1.5l-1.7-0.5c-34-11.4-70.5,11.5-87.4,38.8
			c-17.9,28.9-21.8,64.1-25.2,95.1c-6.2,56.7-28.5,93.4-52.3,132.2c-40.7,66.7-82.7,135.7-34,310c3.1,11.1,6.8,25.8,10.6,41.5
			c9.1,37,20.5,83,31.6,108.4c14.7,33.5,43.4,57.1,71.1,79.9c9.6,7.9,19.6,16.1,28.7,24.5c53.6,49.3,81.6,114,75.1,172.9
			c-6.7,60.1-60.9,123.5-128.1,118.3c-17.3-1.3-34.4-7.1-50.9-12.6c-25.1-8.4-51-17.1-79.7-11.7c-18.5,3.4-34.3,14.8-42.3,30.4
			c-13.3,26.2,0.7,47.4,13,66.1l0.5,0.7c24.1,36.6,51.6,85.2,50.5,137.1c-0.9,45.9-32.4,98.8-81.7,104.2
			c-14.8,1.5-29.5-1.1-44.9-3.9c-10.1-1.9-20.6-3.8-31.1-4.3c-40.5-2.3-80.6,18.8-107.4,56.4c-26.8,37.6-33.6,82.5-18.3,119.9
			c9.9,24.1,26.7,44.2,43,63.7c9.1,11,18.6,22.3,26.6,34.1c26.9,39.7,39.6,86.9,51.8,132.5c29.9,111.4,60.8,226.6,54.5,343.9
			c-7,129.6-64,240.7-152.5,297.2c-16.6,10.6-34.7,19.6-52.2,28.3c-22.2,11-45.1,22.4-65.6,37.3c-33.3,24.2-68.5,69.9-58,118.6
			c4.3,20,15.7,37.5,27.4,53.4c23.1,31.4,49.7,60.7,75.5,89c27.8,30.6,56.6,62.3,80.8,96.6c54.3,76.9,73.6,158.6,52.9,224.1
			c-10.9,34.3-38.3,69.2-75.2,69.8c-21.3,0.4-40.2-11-52.2-20.6c-55.9-44.5-66.8-116.4-78.3-192.5c-5.2-33.9-10.5-69.1-20.2-101.3
			c-22-73-70.8-142.9-149.2-213.6c-67.7-60.9-162.7-99.4-222.6-47.8c-48.7,41.9-39.9,108.7-31.5,173.3
			c7.1,54.4,14.5,110.6-10.1,154.8c-11.7,21-29.4,37.2-48.2,54.2c-16.7,15.1-33.9,30.9-46.3,50.2c-16.3,25.5-23.4,56.3-29.6,83.5
			l-43.3,189.2c-62.3-19.6-109.7-82.3-116.1-154.3c-5.8-65.3,20.1-135.5,71.1-192.8c13.4-15.1,28.8-29.8,43.6-43.9
			c39.8-38,80.9-77.2,92.4-131.3c7.6-35.8,0.5-72.5-6.3-108.1c-7.5-39-14.6-75.9-4.2-111.9c26.6-92.7,148.5-116.8,244.8-109.4
			c11.9,1,23.9,2,36.1,3.1c90.9,8.2,184.9,16.8,254.4-38.8c28.6-22.9,48.5-53.9,67.7-83.8c94.6-147.5,181.6-318.4,110.2-466.7
			c-21.7-45-57.1-84.7-91.4-123.1c-55.9-62.6-108.7-121.7-102.4-199.4c2.4-29.8,14.1-58.1,25.3-85.4l73.9-179.3
			c4.6-11.2,14.5-19.3,26.4-21.7c11.8-2.4,23.3,1,31.7,9.4c26.6,26.3,53.1,40.1,83.5,43.4c30.6,3.3,59.6-10.9,73.8-36.2
			c26.3-46.8-12.4-99.6-59.5-128.9c-7.3-4.5-14.9-8.9-22.5-13.4c-34.3-20-69.8-40.6-83.5-76.1c-6.8-17.5-8.1-38.3-4.2-65.4
			c8.7-60.2,49.2-123.4,107.1-121.8c40.3,1.1,73.7,32.4,106,62.7c37.4,35.1,76.1,71.4,124.4,57.1l1.1-0.5
			c15.6-9.6,25.7-26.1,28.3-46.5c3.4-27.6-6.9-58.4-26.3-78.4c-28-28.9-67.1-41.8-105-54.2c-5.8-1.9-11.5-3.8-17.2-5.8
			c-35.4-12.1-84.6-33.2-102.5-76c-11.6-28-7.9-59.7-2.6-92.5c27-167.6,91.6-341.2,164.6-442.1c63.6-87.8,35.5-139.3,13.2-162.2
			c-45.1-46.1-136.3-51.7-176.6-23.9l-1.6,1.1c-97.7,69.2-91.3,207.1-85.7,328.8l0.8,16.2c7.8,175.9-21.1,330.9-85.8,460.7
			c-6.8,13.8-14.3,27.6-21.5,41c-18.2,33.8-37,68.7-48.4,106.1c-17.1,56.4-16.7,116.2-16.4,174.2c0.1,24.4,0.3,49.6-0.9,74.1
			c-4.2,88.7-26.4,178-64.4,258.3c-2.3,4.9-4.7,9.7-7.1,14.7c-13.9,28.5-28.2,58.1-30.5,90.2c-5.1,69.2,43.3,123.1,90.1,175.2
			c19.7,22,40.1,44.8,56.3,68.3c75.2,110,62.3,274.4-29.9,382.7c-85.5,100.3-232.5,150.8-374.6,128.6c-10.9-1.7-21.9-3.8-32.6-5.9
			c-34.9-6.6-70.9-13.5-106.6-7.6c-81.3,13.4-135.3,85-183.6,157.1c-15.7,23.4-33.4,49.9-37.6,80.4c-4.2,31,6.1,60.9,16.1,89.9
			c4.1,11.9,8.4,24.3,11.5,36.4c22,85.3-11.8,181.9-82.2,234.8c-9.4,7-19.6,13.5-29.5,19.9c-20.3,13-41.3,26.4-57,45.5
			c-40.8,49.9-32.6,122.8-18.7,175.2c3.7,13.8,8,27.9,12.2,41.4c13,42.7,26.6,86.9,23.5,131.3c-2.2,31.8-24.4,65.8-49.5,75.8
			c-14.7,5.8-29.1,2.8-41.6-8.6c-7.6-7-13.3-16.6-16.4-27.9l-4.6-16.4c-21.4-76.1-43.5-154.7-44-234.2
			c-0.5-87.4,28.1-165.6,78.6-214.7c19.3-18.8,43-35.3,66-51.3c49.9-34.7,101.4-70.7,108.9-130.5c5.7-45-16.9-86-38.7-125.8
			c-4.6-8.4-9.4-17.1-13.7-25.6c-23-44.9-99.4-200.2-60.5-233.8c6.8-5.8,14.5-10.2,22.7-14.8c7.6-4.3,15.5-8.7,22.5-14.5
			c29-23.6,51.6-72.1,58.5-108.7c6.1-32.3-1.2-50.6,20.2-73.4c33.8-36.2,91.4,63.8,156.5,81.3c18.9,5.1,38.5,10.4,57,13.9
			c106,20.2,299.5-33.3,357.5-124.3c58-91,54.5-215.7-8.7-303.2c-22-30.5-50.3-56.3-77.8-81.3c-35.9-32.7-73.1-66.5-94.9-110.5
			c-6.8-13.6-10.3-27.1-10.6-40c-0.9-38.1,23.5-51.6,49.2-65.8c5-2.8,9.9-5.5,14.7-8.4c73.7-45.1,102.8-134.2,114.3-201
			c5.2-30.5,8.3-61.9,11.2-92.2c4.5-46.3,9.1-94.1,21.7-139.4c15.9-56.9,44.5-110.4,72.1-162.1c29.7-55.5,60.3-112.8,75.6-174.9
			c18.8-76.4,13.7-156.5,8.7-233.9c-2.4-36.6-4.8-74.4-4.6-111.3c0.5-140.1,51.6-249.6,136.8-292.8l-4.1-8
			c-88.2,44.8-141.2,157.3-141.7,300.9c-0.1,37.2,2.3,75.2,4.7,111.9c4.9,76.7,10,156-8.5,231.1c-15,61-45.4,117.9-74.9,172.9
			c-27.9,52.2-56.7,106.1-72.8,163.9c-12.8,46-17.5,94.3-22,141c-2.9,30.2-5.9,61.3-11.1,91.6c-11.2,65-39.3,151.6-110.1,194.8
			c-4.7,2.9-9.5,5.5-14.4,8.2c-25.7,14.2-54.9,30.4-53.9,73.9c0.3,14.2,4.2,28.9,11.5,43.8c22.6,45.6,60.4,80,96.9,113.2
			c27,24.7,55.1,50.1,76.5,79.8c61,84.6,64.4,205.2,8.3,293.1c-56.1,87.9-245.8,139.8-348.2,120.2c-18.1-3.5-37.5-8.7-56.3-13.7
			c-67.6-18.2-119.8-127.6-165.4-78.8c-23.1,24.8-16.2,44.4-22.4,77.9c-6.9,36.6-28.9,81.8-55.3,103.3c-6.4,5.2-13.6,9.3-21.2,13.6
			c-8.2,4.6-16.7,9.5-24.2,15.9c-42.8,37.1,33.9,196.9,58.4,244.8c4.4,8.6,9.2,17.4,13.9,25.8c21.1,38.5,42.9,78.3,37.6,120.3
			c-7.1,55.8-54.7,89.1-105.1,124.2c-23.3,16.2-47.4,33-67.2,52.3c-52.2,50.8-81.8,131.4-81.3,221.2c0.4,80.7,22.7,159.9,44.3,236.5
			l4.6,16.4c3.6,12.9,10.2,24,19,32.1c19.3,17.7,38.3,15.4,51,10.4c28.4-11.3,52.7-48,55.2-83.5c3.3-46.1-10.5-91-23.8-134.6
			c-4.1-13.5-8.4-27.4-12.1-41.1c-13.5-50.3-21.4-120.1,17-167.1c14.7-18,34.2-30.5,54.8-43.6c10-6.4,20.4-13,30-20.3
			c73.2-55.1,108.4-155.5,85.5-244.3c-3.2-12.5-7.5-25-11.7-37.1c-10.1-29.3-19.7-56.9-15.7-85.8c3.9-28.4,21-54.1,36.2-76.7
			c47.2-70.5,99.8-140.4,177.6-153.3c34.1-5.6,69.4,1.1,103.4,7.6c10.8,2.1,22,4.1,32.9,5.9c145.1,22.6,295.4-29.1,382.9-131.7
			c94.8-111.2,107.9-280.4,30.5-393.6c-16.5-24-37.1-47-57-69.2c-47.6-53.1-92.6-103.1-87.9-168.5c2.2-30.4,16.2-59.2,29.7-86.9
			c2.4-4.9,4.8-9.8,7.1-14.7c38.4-81.4,61-171.9,65.2-261.8c1.2-24.8,1-50.1,0.9-74.6c-0.3-57.3-0.7-116.4,16-171.5
			c11.1-36.6,29.7-71.1,47.6-104.5c7.2-13.4,14.7-27.4,21.6-41.2c65.4-131.2,94.6-287.7,86.7-465.1L1523,518
			c-5.5-119.4-11.7-254.7,81.9-321l1.5-1c37.6-25.9,122.8-20.4,165,22.8c24.9,25.5,42.7,72.3-14,150.6
			c-73.8,102-139.1,277-166.2,445.9c-5.5,34.1-9.4,67.3,3.2,97.4c19.2,46.3,70.7,68.4,107.8,81.1c5.7,1.9,11.5,3.9,17.3,5.7
			c36.8,12.1,74.9,24.6,101.3,51.9c17.7,18.2,27,46.1,23.9,71c-1.5,12.3-6.9,29.1-23.5,39.6c-43.1,12.3-78.1-20.4-115.1-55.1
			c-33.6-31.5-68.3-64.1-111.9-65.2c-63.2-1.6-107,65.5-116.2,129.5c-4.2,28.7-2.7,51,4.7,70c14.9,38.4,51.8,59.8,87.4,80.6
			c7.6,4.4,15.1,8.7,22.3,13.2c43.6,27.1,79.8,75.2,56.4,116.9c-12.5,22.2-38,34.6-65,31.7c-28.3-3-53.1-16-78.1-40.8
			c-10.4-10.3-25.3-14.8-39.8-11.8c-14.9,3-27.2,13.1-32.9,27.1l-73.9,179.3c-11.6,28-23.5,56.9-26,88.1
			c-6.6,81.5,47.5,142.1,104.7,206.1c33.8,37.9,68.9,77.1,90,121c69.4,144.3-16.4,312.4-109.7,457.9c-18.8,29.3-38.2,59.6-65.7,81.6
			c-66.6,53.3-158.8,45-247.9,36.9c-12.2-1.1-24.3-2.2-36.2-3.1c-99.7-7.8-226,18-254.1,115.9c-10.9,38.1-3.3,77.7,4,116.1
			c6.7,34.7,13.5,70.5,6.3,104.5c-10.8,51.3-51,89.6-89.8,126.6c-15,14.3-30.4,29-44.1,44.4c-52.6,59.1-79.4,131.8-73.4,199.6
			c6.8,77.4,59.2,144.6,127.2,163.6l4.6,1.2l45.4-198.5c6.3-27.8,12.9-56.5,28.4-80.6c11.8-18.3,28.5-33.6,44.8-48.4
			c18.5-16.8,37.6-34.1,50-56.5c26.1-46.9,18.5-104.6,11.2-160.4c-8.5-65.1-16.5-126.6,28.4-165.3c55.7-47.9,145.9-10.6,210.6,47.7
			c77.2,69.6,125.2,138.1,146.7,209.5c9.5,31.6,14.8,66.4,19.9,100.1c11.3,74.5,23,151.6,81.6,198.3c13.2,10.5,34,23,58,22.5
			c41.3-0.8,71.8-38.8,83.7-76.1c21.6-68.2,1.8-152.7-54.1-232c-24.5-34.7-53.5-66.6-81.5-97.4c-25.6-28.1-52-57.3-74.9-88.3
			c-11.1-15.1-21.9-31.7-25.9-50c-9.5-44.5,23.3-86.8,54.5-109.5c19.8-14.5,42.4-25.7,64.3-36.5c17.7-8.8,36-17.9,53-28.7
			c90.9-58.1,149.4-171.8,156.6-304.3c6.4-118.7-24.8-234.6-54.9-346.8c-12.4-46.4-25.3-94.3-53.1-135.3
			c-8.3-12.2-17.9-23.7-27.2-34.8c-16.6-19.8-32.2-38.5-41.5-61.3c-14.2-34.6-7.7-76.2,17.3-111.3c25-35,62.2-54.7,99.5-52.6
			c9.9,0.5,20.1,2.4,30,4.2c15.5,2.8,31.4,5.6,47.5,3.9c54.2-5.9,88.8-63.2,89.7-113c1-54.4-27.3-104.6-52-142.3l-0.5-0.7
			c-11.5-17.5-23.4-35.6-12.5-57.1c6.7-13.1,20-22.7,35.9-25.6c26.4-4.9,50.2,3,75.3,11.4c17,5.7,34.6,11.6,53,13
			c65.4,5,129.8-54,137.8-126.3c6.8-61.7-22.3-129.2-77.9-180.5c-9.3-8.6-19.4-16.9-29.1-24.9c-27-22.2-54.9-45.1-68.6-76.5
			c-10.8-24.7-22.1-70.3-31.1-107c-3.9-15.7-7.6-30.5-10.7-41.7c-47.6-170.4-6.6-237.8,33.1-302.9c23.1-38,47.1-77.3,53.5-135.9
			c3.3-30,7-64.1,23.9-91.3c14.9-24,46.1-44.2,75.3-35.5c30.4,55.6,17,123.2,3.9,188.6c-13.6,68.5-27.8,139.3,7.4,198.1
			c36,60.2,119.6,85.3,186.3,56.1c63.2-27.7,104.5-100.1,98.3-172.2c-1.9-21.8-7.6-43.2-13.2-64c-8-29.8-15.5-57.9-12.8-87.2
			c4.1-44.5,34.1-88.6,80.2-117.9c79.3-50.4,187.9-40.1,242,23c15.1,17.6,25,40.2,28.7,65.4c5.4,37.5-16.4,62.9-38.7,74.2
			c-29.8,15-64.4,9.5-88.2-14c-41.4-41-91.5-51.6-130.7-27.7c-58.8,35.8-56.5,119.3-44.2,183c11.7,60.7,26.3,136.3-17.8,182.8
			c-46.6,49.3-126,33.7-196,20.1l-7.5-1.5c-49.4-9.6-117-8.6-158.4,22.9c-20.7,15.7-32.2,37.2-34.4,63.8c-1.1,13.1,0.7,27,5,41.3
			c12.8,41.9,34.8,81.6,63.7,114.8c14.9,17.2,31.8,32.9,48.2,48c20,18.5,40.6,37.7,57.4,59.5c38.3,49.6,54.8,117.3,45.3,185.4
			c-9.5,68.2-43.9,128.7-94.4,166c-6.8,5-14.1,9.9-21.2,14.6c-22.2,14.8-45.2,30.2-58.6,53.8c-19.9,34.9-13.3,76-7,115.8
			c1.3,8.4,2.7,16.8,3.7,25c6,46.6-6.4,101.9-47.9,113.2c-7.7,2.1-15.8,2.5-24.4,2.8c-5.5,0.2-21.1,21.5-26.7,22.3
			c-26.6,3.5-44.5-14.4-62,10c-23.4,32.7-28.4,89.8-20.3,130.4c11.2,56.5,45.6,104.4,78.9,150.8c6.2,8.6,12.3,17.1,18.3,25.7
			c31.8,45.6,72.4,114.2,58.4,183c-5.9,28.8-21,55.3-35.6,80.8c-11.9,20.8-24.2,42.4-31.9,65.6c-27.7,83.8,8.5,171,43.8,229.3
			c17.9,29.6,38.6,58,58.6,85.4c25.8,35.4,52.5,72,73.2,111.2c9,17.1,17,35.1,24.8,52.5c9.6,21.4,19.4,43.7,31.3,64.6
			c14.6,25.7,32.3,49.9,49.5,73.3c23.4,32,47.7,64.9,63.5,101.6c19.6,45.4,20.7,99.5,2.7,137.8c-12.6,26.7-33.9,45.1-61.8,53.4
			c-29.4,8.6-62.8,3.5-91.6-14.1c-47.7-29.1-77.6-81.1-91.6-159c-6.2-34.7-8.9-70.8-11.5-105.7c-4.2-56.4-8.5-114.8-27.9-169
			c-20-56-63.3-105.3-113-128.7c-35-16.5-70.9-18.8-103.7-6.9c-77.8,28.4-106.3,124.6-93.7,200.6c10.1,60.8,39.9,116.2,68.6,169.7
			c8,14.9,16.3,30.4,24,45.7c64.8,128.5,100.7,272.5,103.8,416.4l9-0.2L1774.7,3533.3z"/>
		<path class="st3" d="M3331.3,3391.1l0.8-3.4c25.3-105.4-13.6-223.2-118.9-360.2c-45.9-59.7-103.3-125.4-180.5-159.8
			c-30.2-13.5-62.7-21.7-94.1-29.7c-31.8-8.1-64.6-16.4-94.6-30.1c-58.1-26.5-110.8-87.6-94.3-148.9c9.1-33.8,35.5-57.6,63.3-82.7
			c11.4-10.3,23.2-20.9,33.6-32.3c80.9-88.1,75.5-242-11.1-322.9c-7.9-7.4-15.7-12.4-23.8-15.6c-43-16.4-75.7,21.6-101.9,52
			l-5.6,6.4c-85.1,97.6-238.4,131.3-356.7,78.6c-22.8-10.2-76.3-39.3-81.6-89.8c-2.2-20.8,4.2-40.8,11-61.9
			c4.5-14,9.2-28.5,11.2-43.4c6.9-52.7-19.8-102.1-45.4-144.4l-4-6.7c-24.8-40.7-50.4-82.9-52.1-129.5
			c-0.9-28.1,11.5-58.6,31.7-77.7c10.5-9.9,27.7-21.2,50.6-19c6,0.5,11.8,2,18.1,3.5c9.2,2.2,18.5,4.4,28.4,3.8
			c12.1-1,22.9-5.8,33.3-10.7c5-2.4,10.2-4.7,15.3-6.6c51.3-18.3,104.9,16.6,125.6,32.3c14.6,11.2,28.6,23.9,42.1,36.3
			c20.5,18.7,41.7,38.1,66.1,52.8c114.3,68.7,252.9,13.7,307.2-13.2c98.8-48.9,167.6-119.3,193.7-198.3
			c20.1-60.7,15.9-127.7,9.1-185.2c-7.4-62.7-19.6-127.9-59-178.9c-37.1-48.2-109.9-83-171.7-52.8c-9.8,4.8-17.1,10.3-21.9,16.9
			c-11.7,15.6-10.7,36.2-9.8,54.4l0.2,4c6.2,135.6-76.1,268.7-200.3,323.6c-41.3,18.3-79.5,24.6-113.5,18.9
			c-82.4-13.9-133.2-97.5-145.5-169.2c-12.5-72.6,2-147.6,16-220.1l3.8-19.7c14.5-76,27.7-163.7,0.8-243.1
			c-9-26.7-21-47.3-36.4-63.1c-57.9-59-151.7-44.1-235.9-21.6c-14,3.7-31.4,8.4-42.9,21c-22.4,24.5-10.8,62.3,1.7,92.5
			c33.8,81.5,70.2,188.1,51.2,290.6c-7.5,40.1-23.2,78.9-38.5,116.3c-13.1,32.2-26.6,65.4-35,99.7c-2.1,8.5-3.9,17.2-5.6,25.6
			c-4,19.2-8.1,39.1-15.8,57.3c-17.8,42.2-53.7,73.9-88.4,104.6c-9.8,8.6-19.8,17.5-29.3,26.5c-33.2,31.3-86.3,94-68.6,161.5
			c10.4,39.8,41.9,67.4,72.5,94.1c15.1,13.3,30.7,26.9,43.6,41.9c47.8,55.8,59.8,138.3,29.8,205.4c-4.4,9.9-9.8,19.7-15,29.1
			c-8,14.4-16.2,29.4-21.4,45.5c-13.4,41.3-6.2,85.4,1.7,119.3c24.6,106,76.5,203.8,126.7,298.5c19.3,36.4,39.3,74.1,57.4,111.7
			c82.6,171.4,103.2,312.2,62.6,430.3l8.5,2.9c41.3-120.6,20.6-263.5-63.1-437.2c-18.2-37.7-38.2-75.5-57.6-112
			c-49.9-94.2-101.6-191.5-125.9-296.4c-7.6-32.7-14.7-75.4-1.9-114.5c5-15.3,13-29.9,20.8-44c5.3-9.6,10.7-19.5,15.3-29.8
			c31.3-70.2,18.8-156.5-31.2-214.9c-13.2-15.4-29.1-29.3-44.5-42.8c-30.8-27-60-52.5-69.7-89.6c-16.4-62.9,34.3-122.6,66.1-152.6
			c9.4-8.9,19.4-17.7,29.1-26.3c35.5-31.3,72.1-63.7,90.8-107.8c8.1-19,12.3-39.3,16.3-59c1.8-8.3,3.5-17,5.6-25.3
			c8.3-33.7,21.7-66.6,34.6-98.5c15.4-37.9,31.4-77.1,39-118.1c19.5-104.8-17.4-213.1-51.8-295.7c-11.5-27.7-22.3-62.1-3.4-82.9
			c9.7-10.7,25.7-14.9,38.5-18.3c81.7-21.8,172.5-36.6,227.1,19.2c14.5,14.8,25.8,34.3,34.3,59.6c26.3,77.3,13.2,163.6-1.1,238.5
			l-3.8,19.7c-14.2,73.3-28.8,149.1-16.1,223.3c12.9,74.8,66.2,161.9,153,176.5c35.8,6,75.7-0.5,118.6-19.5
			c127.5-56.4,212-193.1,205.6-332.3l-0.2-4c-0.8-17.5-1.8-35.6,8-48.5c4-5.4,10.1-10,18.7-14.2c57.4-28.1,125.6,4.9,160.6,50.2
			c38,49.3,49.9,112.9,57.2,174.4c7,59.3,10.7,122.3-8.7,181.3c-25.4,76.7-92.6,145.3-189.2,193c-53,26.2-188.2,80-298.6,13.5
			c-23.6-14.2-44.4-33.2-64.6-51.7c-13.6-12.5-27.8-25.4-42.7-36.8c-46.2-35.3-95-47.6-134.1-33.7c-5.5,2-10.9,4.5-16.2,6.9
			c-10.1,4.6-19.6,9.1-29.9,9.8l-0.2,0c-8.5,0.6-16.8-1.4-25.7-3.6c-6.3-1.5-12.7-3.1-19.3-3.7c-20.8-1.9-40.7,5.5-57.6,21.5
			c-22,20.8-35.6,53.9-34.5,84.6c1.7,49,27.9,92.2,53.4,133.9l4.1,6.7c24.8,40.9,50.8,88.7,44.2,138.5c-1.9,14.1-6.4,28.2-10.8,41.8
			c-6.8,21.1-13.8,42.9-11.4,65.5c5.7,55.3,62.7,86.4,86.9,97.2c121.7,54.3,279.5,19.5,367.1-80.9l5.6-6.5
			c25.7-29.8,54.8-63.5,91.9-49.4c7,2.7,13.8,7.1,20.9,13.8c83.3,77.7,88.4,225.6,10.7,310.2c-10.1,11-21.7,21.5-33,31.7
			c-27.6,24.9-56.2,50.7-66,87.1c-17.9,66.1,37.8,131.5,99.3,159.5c30.8,14,64,22.5,96.1,30.6c31.1,7.9,63.2,16.1,92.7,29.2
			c75.3,33.6,131.7,98.3,176.9,157.1c102.5,133.3,141.1,247.5,118.1,349.2c-58.8,1-119.2-1.5-159.4-37.8
			c-39.6-35.8-46.6-89.3-54-146.2c-5.8-44.8-11.9-91.1-35.1-129.1c-30.2-49.3-83.7-76.3-135.4-102.3c-4.7-2.4-9.4-4.8-14.1-7.1
			c-80.1-40.9-134.1-79.7-174.9-126c-51.8-58.8-78.6-130.1-73.6-195.9c2.1-28.4,10.1-56.6,17.8-83.8c7.5-26.3,15.2-53.5,17.8-81.4
			c0.7-7,0-13.6-2.1-19.6c-8.1-23.5-31.4-30.7-69.4-21.5c-14.8,3.6-29.6,7.4-44.3,11.3c-55.6,14.5-113.1,29.4-171.1,30
			c-64.1,0.5-147.2-21.9-188.1-86.6c-23.2-36.8-29.7-81.9-35.9-125.4c-1.3-9.5-2.7-19-4.2-28.3c-6.8-42.1-17.5-84.2-27.9-124.9
			c-11.8-46-23.9-93.6-30.3-141.2c-8.2-61.1-11.8-175.3,56.6-254.6c1.3-1.5,5.6-5.5,11.1-10.5c28.8-26.5,96.3-88.6,105-137.9
			c3.7-20.8,1.7-49.8-15.2-68.8c-10.4-11.7-25-17.4-42.1-16.4c-23.6,1.4-45.2,15.7-56.6,37.6c-11.2,21.4-21.8,43.9-32.1,65.6
			c-28,59.3-57,120.7-101.4,169.3c-5.1,5.6-10.4,11-15.7,16.5c-14.7,15-29.9,30.5-40.5,49.3c-38.7,68.5-6.2,146.2,25.3,221.5
			c7.1,16.9,14.4,34.4,20.6,51.1c23.3,63.3,32.3,132.3,26,199.4c-0.8,8.3-1.8,16.6-2.8,24.9c-3.7,30.6-7.5,62.2-0.1,92.8
			c6.9,28.3,22.9,53.2,38.4,77.1l3.5,5.4c130.6,203.5,211,438.3,232.6,679.1l0.3,4c5.5,60.9,11.7,129.9,77.1,161.1
			c16.9,8.1,36.4,8.7,53.5,1.7c16.5-6.8,28.9-19.8,34.8-36.5c12.4-34.6-10.5-63.1-30.6-88.3c-2.7-3.3-5.3-6.6-7.8-9.9
			c-56.5-72.9-69.2-168.9-81.6-261.7c-12.2-91.5-24.8-186.1-78.9-260.7c-3.3-4.5-6.8-9-10.2-13.6c-16.4-21.3-31.9-41.4-31.9-68.1
			c0-16.3,8.7-30.5,22.1-36.2c14.6-6.2,27.2,0.5,40.7,7.7c2.6,1.4,5.2,2.8,7.7,4c37.5,18.6,83.6,17.8,120.4-2.2
			c2.8-1.5,5.7-3.3,8.6-4.9c14.5-8.5,28.2-16.6,45.3-8.9c10.3,4.6,18.4,13.7,22.9,25.7c7.6,20.3,4.8,41,1.9,62.9
			c-0.9,6.4-1.7,12.8-2.3,19.1c-6.8,73.4,23.2,154.3,82.3,221.8c53.5,61.2,123.2,106,189.9,146.7c48.7,29.7,103.8,63.3,123.6,118.5
			c10.7,30,2.7,68.8-19.5,94.3c-14.1,16.3-31.7,24.1-49.9,22.5c20.4-38.6,2.2-89.2-26.9-118.9c-23.6-24.1-53.8-40.2-83-55.8
			c-9.3-4.9-18.9-10.1-28.2-15.4c-118.2-67.7-202.6-188.1-220.7-314.1c-0.5-3.5-0.9-7.1-1.4-10.6c-2.4-18.5-4.9-37.6-13.6-54.6
			c-10.5-20.5-33.7-38.3-57.9-32.8l-2.6,0.6l-0.7,2.5c-22.3,75.3-10.9,163.1,35,268.4c12.7,29.2,27.1,58.2,41,86.3
			c25.9,52.2,52.7,106.2,69.3,162.8c12.1,41.2,33.3,95.5,77.8,92.3c0.2,0,0.4,0,0.6-0.1c15.4-1.3,28.2-9.7,37-24.3
			c12.5-20.8,14.4-51.7,4.4-75c-5-11.8-12.1-23.3-22.7-37.3c-4-5.2-1.8-10.4,1.3-13.1c3.1-2.8,8.3-4.4,13,0
			c41.1,38.4,64.7,93,63.3,146.3l-0.6,22.3l21.9-48.1l-8.2-3.8l-4.6,10.1c-4-49.3-27.8-98.1-65.6-133.4c-8.6-8-19.1-5.7-25.2-0.1
			c-6.2,5.6-9.6,15.9-2.5,25.3c10.2,13.4,16.8,24.3,21.5,35.3c8.9,20.8,7.3,48.3-3.9,66.8c-5.1,8.4-14.3,18.6-30,20l-0.5,0
			c-37.6,2.7-56.4-44.4-68.5-85.8c-16.9-57.3-43.8-111.7-69.9-164.3c-13.9-27.9-28.2-56.9-40.9-85.8
			c-44.5-102.1-56.1-187-35.5-259.6c18.8-2.7,36.8,11.9,45.3,28.6c8,15.7,10.3,34,12.6,51.7c0.4,3.6,0.9,7.1,1.4,10.7
			c18.3,128.7,104.6,251.6,225.1,320.6c9.4,5.4,19,10.5,28.4,15.5c28.6,15.3,58.2,31,80.9,54.1c28.1,28.7,45.5,78.3,22.3,113.6
			l-3.6,5.6l6.5,1.3c23.8,5,46.8-3.7,64.9-24.5c24.2-27.9,33-70.3,21.2-103.2c-20.8-58.3-79.9-94.3-127.3-123.2
			c-66.2-40.3-135.2-84.7-187.8-145c-57.4-65.7-86.7-144-80.1-215c0.6-6.3,1.4-12.5,2.3-18.7c2.9-22,6-44.8-2.4-67.3
			c-5.4-14.2-15.2-25.1-27.7-30.7c-21.4-9.6-38.4,0.5-53.6,9.4c-2.8,1.6-5.5,3.2-8.3,4.8c-34.3,18.5-77.2,19.3-112.1,2
			c-2.5-1.2-5-2.6-7.5-3.9c-14-7.5-29.9-16-48.5-8c-16.7,7.1-27.5,24.6-27.6,44.5c0,29.8,17.1,52.1,33.7,73.7
			c3.4,4.4,6.8,8.9,10.1,13.3c52.7,72.7,65.2,166.2,77.2,256.5c12.5,94,25.4,191.1,83.4,266c2.5,3.3,5.3,6.6,7.9,10
			c19.6,24.5,39.8,49.7,29.1,79.6c-5.1,14.3-15.7,25.4-29.8,31.2c-14.7,6.1-31.5,5.5-46.2-1.5c-60.8-29-66.5-92.4-71.9-153.7l-0.3-4
			c-21.7-242.2-102.6-478.5-234-683.2l-3.5-5.4c-15.1-23.4-30.7-47.6-37.2-74.4c-7.1-28.9-3.3-59.8,0.3-89.6
			c1-8.4,2.1-16.8,2.8-25.2c6.5-68.5-2.6-138.9-26.4-203.5c-6.2-16.9-13.6-34.5-20.7-51.5c-30.6-73.2-62.3-148.9-25.8-213.5
			c10-17.7,24.8-32.8,39.1-47.4c5.4-5.5,10.8-11,15.9-16.7c45.3-49.6,74.6-111.6,103-171.5c10.2-21.7,20.8-44,31.9-65.3
			c9.8-18.8,28.2-31.3,48.2-32.7c0.3,0,0.5,0,0.8-0.1c14.5-0.8,26.3,3.7,34.9,13.3c12.1,13.7,17.3,37.7,13,61.2
			c-8.2,46.3-74.1,107-102.3,132.8c-6.1,5.6-10.1,9.3-11.8,11.3c-52.4,60.8-73.2,153.7-58.7,261.7c6.5,48.2,18.7,96.1,30.5,142.3
			c10.3,40.4,21,82.3,27.8,124.1c1.5,9.3,2.9,18.7,4.2,28.2c6.3,44.5,12.9,90.5,37.2,128.9c42.8,67.8,129.2,91.3,195.8,90.8
			c59-0.5,117.1-15.6,173.2-30.3c14.7-3.8,29.4-7.7,44.2-11.3c33.1-8.1,52.3-2.9,58.7,15.7c1.6,4.7,2.2,10,1.6,15.7
			c-2.6,27-10.2,53.9-17.5,79.8c-7.8,27.6-15.9,56.3-18.1,85.6c-5.2,68.2,22.5,142,75.9,202.5c41.7,47.2,96.4,86.7,177.6,128
			c4.7,2.4,9.4,4.8,14.1,7.1c50.6,25.5,102.9,51.9,131.8,99c22.3,36.3,28.2,81.7,33.9,125.6c7.3,55.9,14.8,113.7,56.8,151.7
			c43.5,39.2,107.4,41.3,169.2,40l3.5-0.1L3331.3,3391.1z"/>
		<path class="st3" d="M1750.8,2278.8c9.5-0.7,18.9-3.8,26.7-9.6c5.2-3.8,9.1-8.3,11.7-13.2c3.5-6.4,4.5-13.5,5.1-19.1
			c3.2-32.1-6.3-66.7-28.8-105.8c-8.5-14.7-18.1-28.9-27.4-42.6c-10.8-16.1-22-32.6-31.4-49.8c-20.5-37.5-34.7-82-43.3-135.9
			c-3.6-22-6.1-45.5-1-67.7c5.3-23,18.2-49.9,38.3-79.8c5.6-8.4,13-15.4,20.1-22.2c6.7-6.3,13.5-12.9,19.1-20.6
			c19.6-27,12.9-51.3,0.2-64.9c-14.6-15.6-43.7-23.9-72.9-5.4c-2.7,1.7-5.2,3.5-7.7,5.4c-3.9,2.8-7.6,5.5-11.6,7.5
			c-16,8-34.2,4.8-53.3,1.4c-6.8-1.2-13.8-2.4-20.7-3.1c-6.9-0.7-15.8-1-23.5,3c-16.2,8.2-18.7,29.2-18.8,41
			c-0.3,43.2,18.3,83.3,36.3,122c7.4,16,15.1,32.4,21.3,48.9c15.6,41.4,23.2,86,30.5,129.2c3.3,19.6,6.7,39.8,10.9,59.5
			c13.1,62.6,34.1,123.5,62.3,181c4.6,9.3,9.3,18.3,16.4,25.6C1720,2274.7,1735.7,2279.9,1750.8,2278.8L1750.8,2278.8z
			 M1697.9,1637.9c15.7-1.1,29.4,5.1,37.7,13.9c11.2,11.9,16.9,33.2-0.6,57.3c-5.3,7.3-11.7,13.3-18.4,19.7
			c-7.4,7-15,14.3-20.9,23.2c-20.5,30.6-33.8,58.2-39.2,81.9c-5.3,23.2-2.7,47.4,1,70c8.8,54.6,23.2,99.7,44,137.8
			c9.5,17.5,20.8,34.1,31.7,50.3c9.3,13.7,18.8,27.8,27.2,42.3c22,37.9,31.1,71.3,28.1,102.1c-0.5,4.9-1.4,11.3-4.4,16.8
			c-2.2,4.1-5.6,7.9-10,11.2c-17.8,13.2-44.9,11.1-60.4-4.8c-6.5-6.6-11-15.1-15.3-24c-28-57-48.8-117.5-61.8-179.6
			c-4.1-19.6-7.5-39.8-10.8-59.3c-7.4-43.4-14.9-88.4-30.8-130.4c-6.3-16.7-14-33.3-21.5-49.3c-17.7-38.2-36.1-77.6-35.8-119.5
			c0-10.4,2.1-28.9,15.5-35.7c6.4-3.2,14.2-2.9,20.2-2.4c6.6,0.7,13.5,1.9,20.2,3.1c19.4,3.4,39.3,6.9,57.1-2
			c4.5-2.3,8.6-5.2,12.5-8.1c2.4-1.8,4.9-3.5,7.4-5.2c9.5-6,18.8-8.9,27.6-9.5L1697.9,1637.9z"/>
		<path class="st3" d="M1822.2,1541.9c3.9-0.3,7.3-2.3,10.1-4.1c5.9-3.9,13.4-9.3,18.8-17c8.1-11.9,9.4-26.4,10.7-40.5
			c0.2-2.1,0.3-4.3,0.6-6.4c2.4-24,8.4-42.8,18.4-57.4c14.4-21.1,37.6-34.3,60.1-47.1c7.6-4.4,15.6-8.8,23-13.6
			c5.6-3.6,12-7.9,16.2-14.3c4.7-7.1,6.2-15.7,7.4-23.3c0.9-5.3,1.9-11.9-0.3-17.9c-3.2-8.5-12.7-14.2-23.1-13.9
			c-9.6,0.3-18.3,4.9-24.8,9c-6.1,3.8-11.4,8.5-16.5,13.1c-5.3,4.7-10.3,9.2-16,12.7c-14.4,8.9-32,14.2-46.8,14.5
			c-15.4,0.2-29.8-5.2-45-11c-12.3-4.7-25.1-9.5-38.4-11c-14.5-1.7-26.2,2.6-31.2,11.4c-3.4,5.9-3.7,13.7-0.8,21.3
			c2.5,6.5,6.6,11.9,10.6,17.2l21.6,28.2c5.3,6.9,10.7,14,12.9,22.3c1.6,5.9,1.5,12.1,1.2,18.1c-0.8,16.5-3.6,32.8-8.3,48.6
			l-0.5,1.8c-1.7,5.6-3.4,11.3-3.2,17.5c0.5,14,10.8,26.5,31.3,38.1c3.5,2,7.3,3.9,11.6,3.7c0.1,0,0.2,0,0.4,0L1822.2,1541.9z
			 M1963,1292.4c0.4,0,0.8-0.1,1.2-0.1c6.7-0.2,14.8,3.2,17.4,10c1.7,4.6,0.8,10,0,14.8c-1.1,7-2.4,14.8-6.4,20.9
			c-3.6,5.4-9.3,9.3-14.4,12.6c-7.4,4.7-15.2,9.2-22.8,13.5c-23.1,13.1-46.9,26.7-62,48.9c-10.6,15.5-16.9,35.2-19.5,60.2
			c-0.2,2.1-0.4,4.3-0.6,6.5c-1.2,13.3-2.4,27.1-9.7,37.6c-3.7,5.3-8.9,10.1-17.1,15.3c-2.4,1.6-5,3.1-7.6,3.2
			c-2.7,0.1-5.5-1.4-8.4-3c-18.6-10.5-27.8-21.3-28.3-33.1c-0.2-5.1,1.3-10.2,2.9-15.5l0.5-1.8c4.8-16.3,7.7-33.1,8.6-50
			c0.3-6.4,0.4-13.3-1.4-20c-2.5-9.4-8.7-17.3-14-24.4l-21.6-28.2c-3.7-4.9-7.6-10-9.8-15.6c-2.2-6-2.1-11.9,0.4-16.2
			c5.7-9.9,20.8-9,25.3-8.5c12.6,1.4,24.9,6.2,36.9,10.7c15.1,5.7,30.7,11.7,47.2,11.4c16-0.2,34.6-6,49.9-15.4
			c6.2-3.8,11.6-8.6,16.9-13.3c5-4.4,10.1-9,15.7-12.5C1948,1296.9,1955.2,1292.9,1963,1292.4L1963,1292.4z"/>
		<path class="st3" d="M857.6,2201.3l2.3-0.2c1.7-0.2,2.8-1.6,2.7-3.3c-0.1-1.7-1.5-2.7-3.3-2.7l-2.2,0.2
			c-8.7,0.6-17.8,0.1-26.9-1.5c-1.7-0.3-3.2,0.8-3.5,2.4c-0.3,1.7,0.8,3.2,2.4,3.5C838.8,2201.3,848.3,2201.9,857.6,2201.3
			L857.6,2201.3z M888.7,2193.4c0.4,0,0.7-0.1,1-0.3c9.5-4.4,18.3-10.4,25.6-17.4c1.2-1.2,1.2-3,0.1-4.2c-1.2-1.2-3.1-1.2-4.2-0.1
			c-6.8,6.6-15.1,12.2-23.9,16.3c-1.5,0.7-2.2,2.4-1.5,4C886.4,2192.9,887.5,2193.5,888.7,2193.4L888.7,2193.4z M801.1,2191.3
			c1.1-0.1,2.1-0.8,2.6-1.9c0.6-1.6-0.1-3.3-1.7-3.9c-8.8-3.6-17.7-8.1-26.3-13.5c-1.4-0.9-3.3-0.4-4.2,1c-0.9,1.4-0.4,3.3,1,4.1
			c9,5.5,18.1,10.2,27.2,13.9C800.1,2191.2,800.6,2191.3,801.1,2191.3L801.1,2191.3z M930.6,2152c1.1-0.1,2.1-0.8,2.6-1.8
			c2.6-6.3,4.3-12.9,4.9-19.4c0.3-3.3,0.4-6.7,0.1-10l-0.1-1.4c-0.2-1.6-1.6-2.8-3.2-2.7h-0.1c-1.7,0.1-2.8,1.6-2.7,3.3l0.1,1.2
			c0.2,3,0.2,6-0.1,9.1c-0.6,6-2.1,12-4.5,17.7c-0.7,1.6,0.1,3.3,1.6,3.9c0.4,0.2,0.9,0.2,1.4,0.2L930.6,2152z M750.7,2159.1
			c0.6,0,1.2-0.3,1.8-0.7c1.3-1.1,1.4-3,0.4-4.3c-1.5-1.7-2.7-3.4-3.8-5.1c-3.3-5.4-5.5-12.2-6.7-20.8c-0.2-1.7-1.7-2.9-3.4-2.6
			c-1.7,0.2-2.8,1.8-2.6,3.4c1.3,9.4,3.8,16.9,7.5,23c1.2,2,2.7,4,4.4,6C748.9,2158.7,749.8,2159.1,750.7,2159.1L750.7,2159.1z
			 M924.1,2095.3c0.7-0.1,1.2-0.3,1.8-0.7c1.2-1.1,1.4-3,0.3-4.3c-0.7-0.9-1.6-1.6-2.3-2.5c-6.7-6.4-15.2-10.4-23.9-14.2
			c-4.9-2.1-10.7-4.8-16.9-7.7l-6.1-2.8c-1.5-0.7-3.3-0.1-4,1.5c-0.7,1.5-0.1,3.3,1.5,4l6.1,2.8c6.3,2.9,12,5.6,17,7.8
			c8.3,3.6,16.2,7.3,22.2,13c0.7,0.7,1.4,1.4,2,2.1C922.2,2095,923.2,2095.3,924.1,2095.3z M738.8,2101.6c1.4-0.1,2.7-1.3,2.8-2.8
			c0.6-8.2,1.9-16.3,3.9-24.3c0.4-1.6,0.8-3.1,1.3-4.6c0.5-1.6-0.4-3.3-2-3.8c-1.5-0.6-3.3,0.4-3.8,2c-0.5,1.6-1,3.3-1.4,5
			c-2,8.2-3.4,16.8-4,25.3c-0.1,1.6,1.1,3.1,2.8,3.2c0.1,0,0.3,0,0.4,0L738.8,2101.6z M848.2,2056.7c1.1-0.1,2.1-0.8,2.6-1.9
			c0.6-1.5-0.1-3.3-1.7-3.9c-10.6-4.4-20-7.7-28.7-10.1c-1.6-0.5-3.3,0.5-3.7,2.1c-0.4,1.6,0.5,3.3,2.1,3.7
			c8.4,2.4,17.7,5.6,28.1,9.9C847.3,2056.6,847.8,2056.7,848.2,2056.7L848.2,2056.7z M761.3,2048.2c0.5,0,1-0.2,1.4-0.5
			c7.1-4.5,16.5-6.5,27.2-6.2c1.6,0.1,3-1.3,3.1-2.9s-1.2-3-2.9-3.1c-12.3-0.4-22.5,2-30.6,7.1c-1.4,0.9-1.8,2.7-0.9,4.2
			C759.2,2047.7,760.3,2048.2,761.3,2048.2L761.3,2048.2z"/>
		<path class="st3" d="M1585.3,1454.1l1-0.1c11.3-1,20.1-4.6,26.1-10.6c0.5-0.5,1-1,1.4-1.5c1.1-1.2,1-3.2-0.3-4.3
			c-1.2-1.1-3.2-1-4.3,0.2c-0.4,0.5-0.8,0.8-1.2,1.2c-5,5-12.6,8-22.4,8.9l-0.9,0.1c-0.7,0.1-1.5,0.1-2.2,0.1c-1.6,0-3,1.4-3,3
			c0,1.7,1.4,3,3,3c0.9,0,1.8-0.1,2.6-0.1L1585.3,1454.1z M1559.9,1436.7c0.5,0,1.1-0.3,1.7-0.6c1.3-1,1.5-2.9,0.5-4.2
			c-4.2-5.5-8.1-11.3-11.5-17.4c-1.4-2.4-2.5-4.9-3.2-7.5c-0.5-1.6-2.2-2.5-3.8-2c-1.6,0.5-2.5,2.2-2,3.8c0.9,3,2.2,5.9,3.7,8.7
			c3.5,6.3,7.5,12.4,11.9,18.1C1558,1436.4,1558.9,1436.7,1559.9,1436.7L1559.9,1436.7z M1617.8,1414.9c0,0,0.4,0,0.7-0.1
			c1.6-0.5,2.5-2.2,2-3.8c-2.6-8.8-8.6-18.1-16.9-26.3c-1.2-1.2-3.1-1.2-4.3,0c-1.2,1.2-1.2,3.1,0,4.3c7.6,7.5,13,15.9,15.4,23.7
			C1615.1,1414.1,1616.4,1415,1617.8,1414.9L1617.8,1414.9z M1549.4,1382.3c0.8-0.1,1.6-0.4,2.1-1.1c3.8-4.8,9.3-7.7,15.5-8.1
			c2.9-0.5,5.6,0.1,8.6,0.8c1.6,0.4,3.3-0.5,3.6-2.1c0.4-1.6-0.5-3.3-2.1-3.6c-3.6-0.9-7.1-1.3-10.5-1.1
			c-7.8,0.6-14.8,4.3-19.7,10.3c-1.1,1.3-0.8,3.2,0.5,4.2C1548,1382.1,1548.7,1382.3,1549.4,1382.3L1549.4,1382.3z"/>
		<path class="st3" d="M1784.7,1142.5c1.4-0.1,2.6-1.2,2.8-2.7c0.2-1.6-1-3.1-2.7-3.3c-0.4,0-0.9-0.1-1.3-0.2c-4.8-1-8.9-4.2-13.4-8
			c-2.8-2.4-5.6-4.7-7.8-7.3c-1-1.3-3-1.4-4.2-0.4c-1.3,1.1-1.4,3-0.4,4.2c2.5,3,5.5,5.5,8.5,8c4,3.3,9.4,7.8,16,9.3
			c0.6,0.1,1.3,0.3,1.9,0.3C1784.3,1142.6,1784.5,1142.5,1784.7,1142.5L1784.7,1142.5z M1807.2,1126.2c1.3-0.1,2.3-1,2.7-2.2
			c0.8-3,1.1-6.1,0.8-9.3c-0.5-7.6-4-15.4-9.5-21.3c-1.1-1.2-3.1-1.3-4.2-0.1c-1.2,1.1-1.3,3-0.1,4.2c4.6,4.9,7.5,11.3,8,17.6
			c0.2,2.5-0.1,5-0.7,7.3c-0.4,1.6,0.5,3.3,2.1,3.6C1806.5,1126.2,1806.9,1126.2,1807.2,1126.2L1807.2,1126.2z M1755.5,1097.5
			c1.3-0.1,2.4-1,2.7-2.2c1.6-5.8,4.5-9.9,8.1-11.7c2.6-1.2,6.1-1.1,10.3,0.3c1.5,0.6,3.3-0.3,3.8-1.9c0.5-1.5-0.3-3.3-1.9-3.8
			c-5.8-2-10.9-2-14.9-0.1c-5.2,2.5-9.2,8-11.3,15.5c-0.4,1.6,0.5,3.3,2.1,3.7C1754.8,1097.5,1755.1,1097.5,1755.5,1097.5
			L1755.5,1097.5z"/>
		<path class="st3" d="M1417.2,1414.7c4.6-0.3,9.2-3,13-7.3c1.1-1.2,1-3.1-0.3-4.3c-1.2-1.1-3.2-1-4.3,0.3c-1.9,2.2-6.3,6-10.8,5.2
			c-3.1-0.5-5.9-2.9-8.9-7.4c-0.9-1.4-2.8-1.8-4.2-1c-1.4,0.9-1.9,2.6-1,4.1c4,6.1,8.2,9.4,13,10.2
			C1414.9,1414.7,1416.1,1414.8,1417.2,1414.7L1417.2,1414.7z M1447.2,1385.6c0.4,0,0.8-0.1,1.2-0.3c5.9-3,13-3.9,19.1-4.3
			c2.7-0.2,5.4-0.3,8.1-0.4l1-0.1c1.7,0,3-1.4,2.9-3.1c-0.1-1.7-1.5-3-3.2-2.8l-1,0.1c-2.8,0.1-5.5,0.2-8.3,0.4
			c-6.7,0.5-14.5,1.5-21.4,5c-1.5,0.8-2.1,2.6-1.3,4.1c0.6,1.1,1.8,1.7,2.9,1.7L1447.2,1385.6z M1505.9,1374.5
			c0.4,0,0.7-0.1,1.1-0.3c11.1-5.3,19-13.2,22.2-22.5c0.6-1.5-0.2-3.3-1.8-3.8c-1.6-0.6-3.3,0.2-3.8,1.8c-2.7,7.7-9.5,14.5-19.1,19
			c-1.5,0.7-2.2,2.5-1.5,4C1503.5,1374,1504.7,1374.6,1505.9,1374.5L1505.9,1374.5z M1393.8,1377.7c0,0,0.1,0,0.2,0
			c1.7-0.2,2.8-1.7,2.6-3.4c-0.3-1.9-0.5-3.7-0.6-5.6c-0.4-4.9-0.4-10.1,0-15.6c0.2-2.7,0.4-5.4,0.7-8.1c0.2-1.6-1-3.1-2.7-3.3
			c-1.6-0.2-3.1,1-3.3,2.7c-0.3,2.8-0.5,5.6-0.7,8.4c-0.3,5.7-0.3,11.2,0,16.4c0.1,2,0.3,4,0.6,6
			C1390.8,1376.7,1392.3,1377.8,1393.8,1377.7L1393.8,1377.7z M1521.8,1325.2c0.5,0,1-0.2,1.4-0.5c1.4-0.9,1.8-2.7,1-4.2
			c-4.2-6.8-9.7-12.9-15.1-18.9c-1.4-1.6-2.8-3.2-4.2-4.7c-3.7-4.2-7.3-8.8-10.5-13.4c-0.9-1.4-2.8-1.7-4.2-0.7
			c-1.4,0.9-1.7,2.8-0.7,4.2c3.4,4.9,7.1,9.6,11,14c1.4,1.6,2.8,3.2,4.3,4.8c5.2,5.8,10.6,11.8,14.5,18.1c0.6,1,1.7,1.5,2.8,1.4
			L1521.8,1325.2z M1397.8,1317.8c1.4-0.1,2.6-1.2,2.8-2.6c0.7-5.2,1.1-9.6,1.2-13.8c0.3-4.8,0.4-10.2,0.3-16.6c0-1.7-1.4-3-3-3
			c-1.9,0.1-3,1.4-3,3c0.1,6.3,0,11.5-0.3,16.2c-0.3,4.1-0.6,8.3-1.3,13.4c-0.2,1.6,0.9,3.1,2.7,3.4
			C1397.3,1317.9,1397.5,1317.9,1397.8,1317.8L1397.8,1317.8z M1477.3,1262.1c0.4,0,0.7,0,1-0.3c1.5-0.7,2.2-2.4,1.5-4
			c-4-8.9-7.2-18.4-9.6-27.9c-0.4-1.6-2.1-2.6-3.7-2.2c-1.6,0.4-2.6,2-2.2,3.7c2.4,9.9,5.8,19.7,9.9,29
			C1474.8,1261.6,1476.1,1262.3,1477.3,1262.1L1477.3,1262.1z M1398.6,1257.8c1.6-0.1,2.7-1.4,2.8-3l0-0.6c0.2-9.3,0.8-18.8,2.1-29
			c0.2-1.6-0.9-3.1-2.7-3.4c-1.6-0.2-3.1,0.9-3.4,2.6c-1.2,10.5-1.9,20.2-2,29.7l0,0.6c-0.1,1.6,1.3,3,2.9,3
			C1398.4,1257.7,1398.6,1257.7,1398.6,1257.8L1398.6,1257.8z M1463.6,1203.9c1.6-0.1,2.7-1.4,2.8-3c0.2-10.3,2.2-20,4.5-29
			c0.4-1.6-0.6-3.2-2.2-3.6c-1.6-0.4-3.2,0.6-3.6,2.2c-2.3,9.3-4.5,19.4-4.7,30.3c0,1.7,1.3,3,2.9,3
			C1463.3,1203.9,1463.4,1203.9,1463.6,1203.9L1463.6,1203.9z M1405.5,1198.1c1.3-0.1,2.5-1.1,2.7-2.4c1.7-8.5,3.8-17.8,6.5-29.2
			c0.4-1.6-0.6-3.2-2.3-3.6c-1.6-0.4-3.2,0.6-3.6,2.3c-2.8,11.5-4.8,20.9-6.6,29.5c-0.3,1.7,0.7,3.2,2.4,3.5
			C1404.9,1198.1,1405.2,1198.1,1405.5,1198.1L1405.5,1198.1z M1475.1,1145.1c1.3-0.1,2.5-1.1,2.7-2.5c0.7-3.9,1.2-7.5,1.5-11.1
			c0.1-1.6,0.3-3.8,0.1-5.9c-0.2-3.2-1.1-5.8-2.6-8c-1.5-2.1-3.6-3.8-6.5-5.1c-1.5-0.7-3.3-0.1-4,1.5c-0.7,1.5,0,3.3,1.5,4
			c1.9,0.9,3.3,1.9,4.2,3.1c0.9,1.2,1.3,2.9,1.5,4.9c0.1,1.7,0,3.6-0.1,5c-0.3,3.4-0.8,6.9-1.4,10.5c-0.3,1.7,0.8,3.2,2.4,3.5
			C1474.6,1145.1,1474.8,1145.2,1475.1,1145.1L1475.1,1145.1z M1419.9,1139.8c1.1-0.1,2.1-0.8,2.6-1.9c1.1-2.9,2.4-5.3,3.8-7.5
			c3.4-5.3,8.6-9.4,14.7-12.1c1.5-0.7,2.2-2.5,1.6-4c-0.7-1.5-2.4-2.2-4-1.6c-7.3,3.1-13.3,8.1-17.4,14.3c-1.6,2.5-3.1,5.3-4.4,8.5
			c-0.6,1.6,0.1,3.3,1.7,3.9C1418.9,1139.7,1419.4,1139.8,1419.9,1139.8L1419.9,1139.8z"/>
		<path class="st3" d="M1564.5,1006.3c0,0,0.2,0,0.3,0c12.3-2.3,22-9.8,25.1-19.4c0.6-1.5-0.3-3.3-1.9-3.8c-1.5-0.6-3.3,0.3-3.8,1.9
			c-2.5,7.5-10.4,13.5-20,15.3c-1.6,0.3-2.9,1.9-2.7,3.6C1561.8,1005.4,1563,1006.5,1564.5,1006.3L1564.5,1006.3z M1534.7,1003.9
			c1.3-0.1,2.4-1,2.7-2.4c0.4-1.6-0.7-3.2-2.3-3.6c-4.2-0.9-8.2-1.9-11.4-4.1c-4.4-2.8-7.3-7.4-9.7-11.7c-0.8-1.4-2.6-2-4.1-1.2
			c-1.4,0.8-2,2.6-1.2,4.1c2.7,4.9,6.2,10.3,11.7,13.8c4.1,2.6,8.7,3.8,13.4,4.8C1534.2,1003.8,1534.5,1003.8,1534.7,1003.9
			L1534.7,1003.9z M1577.6,959.5l4.9-3.4c-3.3-4.4-7-8.1-10.6-11.8c-3.3-3.4-6.7-6.8-9.6-10.5c-3.1-4-5.7-8.4-7.8-13.1
			c-0.6-1.5-2.4-2.2-4-1.6c-1.5,0.7-2.2,2.5-1.6,4c2.2,5.2,5.1,10,8.5,14.4c3.1,3.9,6.6,7.5,10,11
			C1571.2,952.1,1574.6,955.6,1577.6,959.5L1577.6,959.5z M1498.2,959.8c0.3,0,0.6,0,0.9-0.2c1.5-0.6,2.3-2.4,1.6-3.9
			c-2.6-6.4-4.3-12.2-5.3-17.8c-0.3-2-0.6-4.1-0.8-6.2c-0.1-1.4-0.2-2.7-0.2-4.1c0-1.7-1.4-3-3-3c-1.9,0.1-3,1.4-3,3
			c0,1.5,0.1,3,0.2,4.4c0.2,2.3,0.4,4.6,0.8,6.8c1,6,2.9,12.3,5.6,19.1C1495.7,959.2,1496.9,959.9,1498.2,959.8L1498.2,959.8z
			 M1497.7,901.4c1.1-0.1,2.1-0.8,2.6-1.8c3.9-9.1,9.5-17.2,16.4-23.3c1.2-1.1,1.3-3,0.2-4.2c-1.1-1.2-3-1.4-4.2-0.2
			c-7.6,6.8-13.8,15.6-18,25.4c-0.7,1.6,0.1,3.3,1.6,3.9C1496.8,901.3,1497.3,901.4,1497.7,901.4L1497.7,901.4z M1546.8,895.5
			c1.4-0.1,2.7-1.3,2.8-2.8c0.1-1.7,0.5-3.7,0.9-5.7c0.6-3.7,1.4-8,1.1-12c-0.3-3.5-1.2-6.2-3-8.4c-1.5-1.8-3.3-3.2-5.3-4.1
			c-1.5-0.7-3.3-0.1-4,1.5c-0.7,1.5-0.1,3.3,1.5,4c1.3,0.6,2.3,1.3,3.1,2.5c1,1.2,1.5,2.9,1.7,5.1c0.2,3.2-0.4,6.9-1.1,10.5
			c-0.4,2.3-0.8,4.5-0.9,6.3c-0.1,1.6,1.1,3.1,2.8,3.2C1546.5,895.6,1546.7,895.6,1546.8,895.5L1546.8,895.5z"/>
		<path class="st3" d="M1716.1,943.8c1.9-0.1,3.8-0.3,5.8-0.6c4.2-0.5,8.6-1.5,12-4.4c2.4-2.2,4.1-5.1,5.3-9.2
			c0.4-1.6-0.5-3.3-2.1-3.7c-1.6-0.4-3.3,0.5-3.7,2.1c-0.8,3-1.9,5-3.4,6.3c-2.2,1.9-5.5,2.6-8.8,3c-3.1,0.4-6.3,0.6-9.5,0.7
			c-1.6,0-3,1.4-2.9,3.1c0.1,1.7,1.4,3,3.1,2.9C1713.2,944,1714.6,943.9,1716.1,943.8L1716.1,943.8z M1682.1,940.6
			c1.3-0.1,2.4-1,2.7-2.2c0.4-1.6-0.5-3.3-2.1-3.6c-7.8-2-15.3-5-22.3-8.8c-1.5-0.8-3-1.7-4.5-2.6c-1.4-0.9-3.3-0.4-4.2,1
			c-0.9,1.4-0.4,3.3,1,4.2c1.6,1,3.2,1.9,4.7,2.7c7.5,4,15.4,7.1,23.7,9.3C1681.4,940.6,1681.8,940.7,1682.1,940.6L1682.1,940.6z
			 M1741.2,902.1c1.4-0.1,2.6-1.2,2.8-2.7c0.9-8.2,1.1-15.4,0.6-22.1c-0.2-3-0.6-5.9-1.1-8.7c-0.3-1.6-1.9-2.7-3.5-2.5
			c-1.6,0.3-2.7,1.8-2.5,3.5c0.5,2.6,0.8,5.3,1,8.1c0.5,6.3,0.3,13.1-0.5,21c-0.2,1.6,1,3.1,2.7,3.3
			C1740.9,902.1,1741.1,902.1,1741.2,902.1L1741.2,902.1z M1633.3,908.1c0.4,0,0.8-0.1,1.2-0.4c1.4-0.8,2-2.6,1.2-4.1
			c-3.7-6.6-5.8-14.5-6.5-24.1c-0.1-1.2-0.2-2.3-0.2-3.5c-0.1-1.7-1.5-3-3.1-2.9c-1.6-0.1-3,1.5-2.9,3.1c0.1,1.3,0.1,2.5,0.2,3.7
			c0.8,10.4,3.1,19.1,7.2,26.6C1631,907.5,1632.2,908.1,1633.3,908.1L1633.3,908.1z M1730.1,844.1c0.4,0,0.8-0.1,1.1-0.3
			c1.4-0.8,2-2.6,1.3-4.1c-4.6-8.9-8.1-16.4-8.6-24.5c-0.1-0.8-0.1-1.7-0.1-2.5c0-1.7-1.3-3-3-3c-1.7,0-3,1.3-3,3c0,1,0,2,0.1,3
			c0.7,10,5.5,19.3,9.3,26.8C1727.8,843.5,1729,844.1,1730.1,844.1L1730.1,844.1z M1627.9,849.1c1.4-0.1,2.6-1.2,2.8-2.7l1.8-20.2
			c0.3-3.2,0.6-6.5,0.9-9.8c0.2-1.6-1.1-3.1-2.7-3.3c-1.6-0.2-3.1,1.1-3.3,2.7c-0.3,3.3-0.6,6.6-0.9,9.8l-1.8,20.2
			c-0.1,1.6,1.1,3.1,2.7,3.2C1627.5,849,1627.6,849,1627.9,849.1L1627.9,849.1z M1730.9,787.6c1-0.1,1.9-0.6,2.4-1.6l0.5-1
			c4.9-8.9,9.9-18,10.6-28.1c0.1-1.6-1.2-3.1-2.8-3.2c-1.7-0.1-3,1.2-3.2,2.8c-0.5,8.8-5.1,16.9-9.8,25.6l-0.5,1
			c-0.8,1.4-0.3,3.3,1.2,4.1C1729.8,787.5,1730.5,787.6,1730.9,787.6L1730.9,787.6z M1635.2,789.4c1.3-0.1,2.4-1,2.7-2.3
			c2.5-10.6,5.9-19.4,10.4-27.1c0.4-0.8,0.5-1.7,0.3-2.4c0.8,0.1,1.7-0.4,2.2-1.1c4.8-5.9,13.2-12.2,23-17.2c1.4-0.8,2-2.6,1.3-4.1
			c-0.8-1.5-2.6-2-4.1-1.3c-10.7,5.5-19.5,12.1-24.9,18.7c-0.7,0.8-0.8,1.9-0.5,2.8c-1,0.1-1.9,0.6-2.5,1.5
			c-4.8,8.2-8.4,17.7-11.1,28.8c-0.4,1.6,0.6,3.2,2.3,3.6C1634.6,789.4,1634.9,789.4,1635.2,789.4L1635.2,789.4z M1730.1,733.6
			c0.9-0.1,1.8-0.5,2.3-1.4c0.9-1.4,0.5-3.2-0.9-4.2c-6.3-4-14.5-5.7-24.5-5c-2.2,0.2-4.5,0.4-6.8,0.8c-1.6,0.3-2.8,1.8-2.5,3.4
			c0.3,1.6,1.8,2.8,3.4,2.5c2.1-0.3,4.2-0.6,6.2-0.7c8.6-0.6,15.7,0.7,20.9,4C1728.8,733.5,1729.5,733.6,1730.1,733.6L1730.1,733.6z
			"/>
		<path class="st3" d="M2239.6,1407.9c0.6,0,1.1-0.1,1.7-0.1c1.7-0.2,2.8-1.7,2.6-3.3c-0.2-1.7-1.6-2.8-3.3-2.6
			c-8.7,1-18.1-2-25.6-8.3c-1.3-1.1-3.1-0.9-4.3,0.4c-1.1,1.3-0.9,3.1,0.4,4.3c8.3,6.9,18.6,10.5,28.4,9.8L2239.6,1407.9z
			 M2265.5,1391.6c0.8-0.1,1.6-0.5,2.2-1.2c3.8-5.2,7.2-11.1,10.4-16.8c1.8-3.1,3.5-6.2,5.3-9.2c0.9-1.4,0.4-3.3-1-4.1
			c-1.4-0.9-3.3-0.4-4.1,1c-1.8,3-3.7,6.2-5.4,9.4c-3.1,5.5-6.4,11.3-9.9,16.2c-1,1.3-0.7,3.2,0.7,4.2
			C2264.1,1391.4,2264.9,1391.6,2265.5,1391.6L2265.5,1391.6z M2197.2,1373.9c0,0,0.5,0,0.8-0.2c1.6-0.5,2.4-2.3,1.8-3.8
			c-1-2.8-1.9-5.8-2.6-8.9c-1.5-6.2-2.4-12.5-2.9-19.3c-0.1-1.7-1.6-3.1-3.2-3c-1.7,0.1-2.9,1.4-2.8,3l0,0.4
			c0.5,7.2,1.5,13.8,3.1,20.3c0.8,3.3,1.7,6.5,2.8,9.6c0.4,1.3,1.7,2.1,3,2L2197.2,1373.9z M2300.2,1342.8c0.7,0,1.4-0.3,1.9-0.9
			c2.1-2.1,4.3-4.1,6.5-6.2c5.1-4.8,10.4-9.7,15.2-14.9c1.1-1.2,1-3.2-0.2-4.3c-1.2-1.1-3.2-1-4.3,0.2c-4.6,5.1-9.8,9.9-14.8,14.6
			c-2.2,2.1-4.5,4.1-6.7,6.3c-1.2,1.2-1.2,3-0.1,4.2C2298.3,1342.5,2299.2,1342.8,2300.2,1342.8L2300.2,1342.8z M2192,1314.4
			c1.4-0.1,2.6-1.2,2.8-2.7c0.9-10.1,2.3-20.5,3.6-29.7c0.2-1.6-0.9-3.2-2.5-3.4c-1.6-0.2-3.2,0.9-3.4,2.5c-1.3,9.3-2.7,19.8-3.7,30
			c-0.1,1.6,1.1,3.1,2.7,3.2C2191.7,1314.4,2191.8,1314.4,2192,1314.4L2192,1314.4z M2338.1,1296.8c1.1-0.1,2.1-0.8,2.5-1.8
			c3.9-8.8,6.9-18.7,8.9-29.5c0.3-1.7-0.8-3.2-2.4-3.5c-1.7-0.3-3.2,0.8-3.5,2.4c-1.8,10.2-4.7,19.6-8.4,28c-0.7,1.5,0,3.3,1.5,4
			C2337.1,1296.7,2337.6,1296.8,2338.1,1296.8L2338.1,1296.8z M2199.4,1254.7c1.4-0.1,2.6-1.2,2.8-2.7c1.1-11.4,1.4-21.4,0.9-30.5
			c-0.1-1.7-1.5-2.9-3.2-2.8c-1.8,0-2.9,1.5-2.8,3.2c0.5,8.9,0.2,18.3-0.8,29.6c-0.2,1.6,1.1,3.1,2.7,3.3
			C2199.1,1254.8,2199.2,1254.7,2199.4,1254.7L2199.4,1254.7z M2349.4,1238.1c1.6-0.1,2.8-1.4,2.8-3c0-5.3-0.1-10.9-0.4-16.6
			c-0.1-1.6-0.2-3.3-0.4-4.9c-0.2-2.9-0.4-5.9-0.8-8.8c-0.1-1.7-1.8-2.8-3.3-2.7c-1.7,0.1-2.9,1.6-2.7,3.3c0.2,2.9,0.5,5.8,0.7,8.6
			c0.1,1.6,0.2,3.2,0.4,4.8c0.3,5.6,0.4,11.1,0.4,16.3c0,1.7,1.3,3,3,3C2349.2,1238,2349.3,1238,2349.4,1238.1L2349.4,1238.1z
			 M2195.7,1195c0,0,0.3,0,0.5,0c1.6-0.4,2.6-2,2.2-3.6c-2.1-8.9-5-18.4-8.9-29.1c-0.6-1.6-2.3-2.4-3.9-1.8s-2.4,2.3-1.8,3.9
			c3.8,10.5,6.6,19.8,8.7,28.4C2192.9,1194.2,2194.2,1195.2,2195.7,1195L2195.7,1195z M2344.6,1178.2c0,0,0.1,0,0.1,0
			c1.7-0.2,2.8-1.7,2.6-3.3c-1-8.4-1.9-17.3-2.5-26.1l-0.3-3.7c-0.1-1.7-1.5-2.9-3.2-2.8c-1.6,0.1-2.9,1.5-2.8,3.2l0.3,3.7
			c0.6,8.9,1.6,18,2.6,26.4C2341.6,1177.2,2343,1178.3,2344.6,1178.2L2344.6,1178.2z M2176.1,1138.2c0.3,0,0.6,0,0.9-0.2
			c1.5-0.7,2.3-2.4,1.6-3.9l-1.3-3.3c-3.3-8.2-6.7-16.4-9.7-24.6c-0.6-1.5-2.3-2.4-3.9-1.8c-1.5,0.6-2.4,2.3-1.8,3.9
			c3.1,8.3,6.5,16.5,9.8,24.7l1.3,3.3C2173.5,1137.5,2174.8,1138.3,2176.1,1138.2z M2341.7,1118.2c1.5-0.1,2.7-1.3,2.8-2.8
			c0.2-3.2,0.4-6.4,0.7-9.6c0.5-6.7,1.1-13.7,1.1-20.5c0-1.6-1.3-3-3-3c-1.6-0.1-3,1.3-3,3c0,6.6-0.6,13.5-1.1,20.1
			c-0.3,3.3-0.5,6.5-0.7,9.8c-0.1,1.6,1.1,3.1,2.8,3.2C2341.4,1118.2,2341.6,1118.2,2341.7,1118.2L2341.7,1118.2z M2155.7,1081.7
			c0,0,0.4,0,0.5,0c1.6-0.4,2.6-2.1,2.1-3.7c-2.7-10.2-4.5-19.9-5.5-29.1c-0.1-1.7-1.7-2.8-3.3-2.7c-1.7,0.1-2.8,1.7-2.7,3.3
			c1,9.5,2.9,19.5,5.6,30c0.3,1.4,1.7,2.4,3.1,2.2L2155.7,1081.7z M2338.9,1058.6c0,0,0.5,0,0.8-0.2c1.6-0.5,2.4-2.3,1.8-3.8
			c-3.1-8.9-7.8-17.9-14.3-27.3c-0.9-1.4-2.8-1.7-4.2-0.8c-1.4,0.9-1.7,2.8-0.8,4.2c6.2,9,10.6,17.4,13.5,25.9
			C2336.3,1057.9,2337.5,1058.7,2338.9,1058.6L2338.9,1058.6z M2150.4,1022.1c1.4-0.1,2.6-1.2,2.8-2.6c1.3-9.9,3.9-19.2,7.8-27.6
			l-2.6-1.6l-2.8-1.2l2.8,1.2l-2.9-1.1c-4.2,9.1-7,19-8.4,29.4c-0.2,1.6,0.9,3.1,2.6,3.4c0.2,0,0.4,0,0.6,0L2150.4,1022.1z
			 M2306.2,1008.7c0.7,0,1.3-0.3,1.8-0.8c1.3-1.1,1.4-3,0.2-4.2c-1.4-1.5-2.8-3.1-4.2-4.6c-6-6.6-11.7-12.1-17.4-16.9
			c-1.3-1.1-3.1-0.9-4.3,0.3c-1.1,1.3-0.9,3.1,0.3,4.3c5.5,4.7,11,10.1,16.9,16.4c1.4,1.5,2.8,3,4.1,4.5
			C2304.4,1008.4,2305.3,1008.7,2306.2,1008.7L2306.2,1008.7z M2259.9,970.8c1-0.1,2-0.7,2.5-1.7c0.7-1.5,0.1-3.3-1.4-4
			c-9.4-4.6-19.1-7.6-29.5-9.1c-1.6-0.2-3.2,0.9-3.4,2.5c-0.3,1.6,0.9,3.2,2.5,3.4c9.8,1.4,18.9,4.2,27.7,8.6
			C2258.8,970.8,2259.4,970.9,2259.9,970.8L2259.9,970.8z M2177,970c0.5,0,1.1-0.2,1.5-0.5c0.8-0.6,1.7-1.1,2.5-1.6
			c6.3-3.7,14.2-5.9,24.3-6.6c1.7-0.1,2.9-1.6,2.8-3.2c-0.1-1.7-1.5-2.9-3.2-2.8c-11,0.8-19.9,3.2-26.9,7.4c-1,0.6-2,1.2-2.9,1.9
			c-1.4,0.9-1.7,2.8-0.7,4.2C2175,969.8,2176.1,970.2,2177,970L2177,970z"/>
		<path class="st3" d="M2822.3,1797.7c1.3-0.1,2.8-0.2,4.2-0.4c1.7-0.2,2.8-1.7,2.6-3.4c-0.2-1.7-1.8-2.9-3.4-2.6
			c-1.3,0.2-2.8,0.2-3.8,0.4c-8.7,0.6-17.3-0.6-24.3-3.4c-1.5-0.6-3.3,0.1-3.9,1.7c-0.6,1.5,0.1,3.3,1.7,3.9
			C2803.3,1797.1,2812.5,1798.4,2822.3,1797.7z M2854.7,1787.9c0.4,0,0.8-0.1,1.1-0.3c8.7-4.4,17.3-10.2,25.5-17.2
			c1.3-1.1,1.4-3,0.3-4.2c-1.1-1.3-3-1.4-4.2-0.4c-7.8,6.7-16,12.1-24.3,16.3c-1.4,0.8-2.1,2.6-1.3,4
			C2852.3,1787.3,2853.5,1788,2854.7,1787.9L2854.7,1787.9z M2776.9,1773c0,0,0.4,0,0.5,0c1.6-0.4,2.6-2,2.2-3.7
			c-0.3-1.4-0.6-2.9-0.7-4.4c-0.5-7.1,1.6-14.9,6.1-22c0.9-1.4,0.4-3.3-1-4.2c-1.5-0.9-3.3-0.4-4.2,1c-5.1,8.2-7.6,17.3-7,25.7
			c0.1,1.9,0.4,3.6,0.9,5.4C2774.2,1772.1,2775.5,1773.1,2776.9,1773L2776.9,1773z M2900.5,1749.7c0.8-0.1,1.5-0.4,2.1-1.1
			c6.1-7.4,12.1-15.7,17.9-24.6c0.9-1.4,0.5-3.3-0.9-4.2c-1.4-0.9-3.2-0.5-4.2,0.9c-5.6,8.8-11.4,16.9-17.4,24.1
			c-1.1,1.3-0.9,3.2,0.4,4.3C2899,1749.6,2899.7,1749.8,2900.5,1749.7L2900.5,1749.7z M2803.5,1722.7c0.6,0,1.1-0.3,1.6-0.6
			c1.7-1.3,3.3-2.5,5-3.8l3.6-2.7c5.1-3.9,10.3-7.7,15.4-11.8c1.3-1.1,1.5-2.9,0.5-4.3c-1.1-1.3-2.9-1.5-4.2-0.5
			c-5,4-10.1,7.8-15.2,11.7l-3.7,2.7c-1.7,1.3-3.4,2.5-5,3.9c-1.3,1-1.5,2.9-0.5,4.2C2801.6,1722.3,2802.6,1722.8,2803.5,1722.7
			L2803.5,1722.7z M2933.1,1699.3c1-0.1,1.9-0.6,2.5-1.6c4.7-8.9,9.1-18.1,13.1-27.4c0.7-1.5-0.1-3.3-1.6-3.9
			c-1.5-0.7-3.3,0.1-3.9,1.6c-3.9,9.1-8.3,18.1-12.9,26.9c-0.8,1.4-0.2,3.3,1.3,4.1C2932,1699.2,2932.6,1699.3,2933.1,1699.3
			L2933.1,1699.3z M2849.5,1684.1c0.8-0.1,1.5-0.4,2-1c5.6-6.3,10.1-12.6,13.6-19.3c1.2-2.2,2.2-4.4,3.2-6.7
			c0.7-1.6-0.1-3.3-1.6-3.9c-1.6-0.7-3.3,0.1-3.9,1.6c-0.9,2.1-1.9,4.2-3,6.2c-3.3,6.2-7.4,12.1-12.8,18.1c-1.1,1.2-1,3.1,0.3,4.3
			c0.6,0.6,1.5,0.8,2.2,0.7L2849.5,1684.1z M2957.1,1644.1c1.1-0.1,2.2-0.8,2.6-2c2.9-8.4,5.7-17.1,8.1-25.7l0.9-3.3
			c0.4-1.6-0.5-3.3-2.1-3.6c-1.6-0.4-3.3,0.5-3.6,2.1l-0.9,3.2c-2.3,8.5-5,16.9-7.9,25.3c-0.6,1.5,0.2,3.3,1.9,3.8
			c0.4,0.2,0.8,0.2,1.2,0.2L2957.1,1644.1z M2874.4,1630.2c1.3-0.1,2.4-1,2.7-2.3l1.1-4.5c1.8-8.1,3.8-16.4,6.4-24.3
			c0.9-2.9,2.4-6.1,4.4-9.5c0.9-1.4,0.4-3.3-1.1-4.1c-1.4-0.8-3.3-0.4-4.1,1.1c-2.2,3.8-3.9,7.4-5,10.7c-2.7,8.2-4.6,16.7-6.5,24.9
			l-1,4.5c-0.4,1.6,0.7,3.2,2.3,3.6c0.3,0.1,0.6,0.1,0.9,0.1L2874.4,1630.2z M2969.9,1585.4c1.6-0.1,2.9-1.2,2.8-2.9
			c0,0,0-0.3,0-0.4c-0.5-7-2.2-13.2-4.9-18.5c-2.1-4-4.5-7.5-7.1-10.3c-1.2-1.2-3.1-1.2-4.2-0.1c-1.2,1.2-1.2,3-0.1,4.2
			c2.3,2.4,4.3,5.4,6.1,8.8c2.4,4.7,3.8,9.9,4.2,15.9C2966.7,1583.9,2968.2,1585.5,2969.9,1585.4L2969.9,1585.4z M2905.6,1567.7
			c0.7,0,1.3-0.3,1.8-0.8c8.1-7.5,16.6-12.7,24.3-15c1.6-0.5,2.5-2.2,2-3.8s-2.2-2.5-3.8-2c-8.6,2.5-17.8,8.2-26.6,16.3
			c-1.2,1.1-1.3,3-0.2,4.2C2903.8,1567.3,2904.7,1567.7,2905.6,1567.7L2905.6,1567.7z"/>
		<path class="st3" d="M2325.2,1725.8c6.4-0.5,12.9-1.8,19.3-3.9c1.6-0.5,2.4-2.2,1.9-3.8c-0.5-1.6-2.2-2.4-3.8-1.9
			c-5.9,2-11.7,3.3-17.8,3.6c-3.5,0.3-7.1,0.2-10.6-0.1c-1.6-0.2-3.1,1.1-3.3,2.7c-0.2,1.6,1.1,3.1,2.7,3.3
			C2317.3,1726.1,2321.2,1725.9,2325.2,1725.8L2325.2,1725.8z M2291.7,1719.3c1-0.1,2-0.7,2.5-1.6c0.7-1.5,0.2-3.3-1.3-4.1
			c-2.7-1.4-4.1-3.6-4.3-7.2c-0.3-4.1,1-9.7,3.8-16.2c0.7-1.6-0.1-3.3-1.6-3.9c-1.5-0.7-3.3,0.1-3.9,1.6c-3.2,7.5-4.6,13.8-4.3,18.9
			c0.4,5.6,3,9.8,7.6,12.1C2290.6,1719.3,2291.1,1719.3,2291.7,1719.3L2291.7,1719.3z M2369.9,1707.5c0.6,0,1.2-0.3,1.7-0.7
			c2.2-1.8,4.4-3.8,6.3-5.7c6-5.9,10.4-12.5,12.8-19.1c0.6-1.5-0.2-3.3-1.8-3.9c-1.6-0.6-3.3,0.2-3.9,1.8c-2.1,5.7-6,11.5-11.4,16.9
			c-1.9,1.9-3.8,3.7-5.9,5.3c-1.3,1.1-1.5,2.9-0.4,4.3C2368,1707.2,2368.9,1707.6,2369.9,1707.5L2369.9,1707.5z M2305,1666.2
			c0.8-0.1,1.6-0.5,2.2-1.2c5.4-7.2,10.9-13.2,14.4-15.5c1.9-1.3,4.1-2.5,6.4-3.5c1.5-0.7,2.2-2.5,1.6-4c-0.6-1.5-2.4-2.2-4-1.6
			c-2.6,1.2-5.1,2.5-7.4,4c-4.1,2.8-10,9-15.9,16.9c-1,1.3-0.7,3.2,0.6,4.2C2303.6,1666.1,2304.3,1666.3,2305,1666.2L2305,1666.2z
			 M2383,1656.1c0.7,0,1.3-0.3,1.8-0.8c1.3-1.1,1.3-3,0.2-4.2c-2-2.1-4.4-4.2-7.1-6.1c-6-4.1-13.2-6.9-21-8.1
			c-1.6-0.2-3.2,0.8-3.4,2.5c-0.2,1.6,0.8,3.2,2.5,3.4c7,1.1,13.4,3.6,18.6,7.2c2.3,1.6,4.4,3.4,6.1,5.2
			C2381.2,1655.8,2382.1,1656.2,2383,1656.1L2383,1656.1z"/>
		<path class="st3" d="M2519.1,2201.1c1.5-0.1,2.7-1.3,2.8-2.9c0.1-1.6-1.2-3-2.9-3.1c-9.9-0.3-19.5-2-28.6-5.2
			c-1.6-0.6-3.3,0.2-3.8,1.9c-0.6,1.6,0.2,3.3,1.8,3.8c9.7,3.3,19.9,5.2,30.4,5.5C2518.9,2201,2518.9,2201,2519.1,2201.1
			L2519.1,2201.1z M2548.8,2197.4c0,0,0.4,0,0.6,0c10.2-2.8,19.6-7.1,28.1-12.8c1.4-0.9,1.7-2.8,0.9-4.2c-0.9-1.4-2.8-1.8-4.2-0.9
			c-8,5.4-16.9,9.4-26.4,12c-1.6,0.4-2.6,2.1-2.1,3.7C2546.2,2196.7,2547.5,2197.6,2548.8,2197.4L2548.8,2197.4z M2465.4,2179.1
			c0.4,0,0.7-0.1,1.1-0.3c1.5-0.7,2.1-2.5,1.4-4c-0.3-0.6-0.6-1.3-0.8-2.1c-0.3-0.9-0.4-1.8-0.5-2.8c-0.4-5.3,2.2-11.1,4.6-16.7
			l2-4.6c0.6-1.6-0.1-3.3-1.7-3.9c-1.6-0.6-3.3,0.1-3.9,1.7l-1.9,4.4c-2.8,6.2-5.6,12.7-5.1,19.5c0.1,1.4,0.3,2.7,0.7,4
			c0.3,1.1,0.7,2.1,1.2,3.1C2463,2178.5,2464.2,2179.2,2465.4,2179.1L2465.4,2179.1z M2598.7,2165.3c0.7,0,1.4-0.3,1.9-0.9
			c3.3-3.4,6.4-6.9,9.6-10.4c3.6-3.9,7.1-7.8,10.8-11.6c1.2-1.2,1.1-3.1-0.1-4.3c-1.2-1.2-3.1-1.1-4.3,0.1c-3.7,3.8-7.3,7.8-11,11.8
			c-3.1,3.5-6.3,6.9-9.6,10.3c-1.2,1.2-1.1,3.1,0.1,4.3c0.6,0.6,1.5,0.9,2.3,0.9L2598.7,2165.3z M2935.3,2107.9
			c0.6-0.1,1.1-0.3,1.7-0.6c8.8-6.9,10.9-19.3,11.8-29.4c0.1-1.6-1.1-3.1-2.8-3.2c-1.6-0.1-3.1,1.1-3.2,2.8
			c-0.8,8.9-2.4,19.7-9.5,25.1c-1.3,1-1.5,2.9-0.6,4.2C2933.4,2107.6,2934.3,2108,2935.3,2107.9L2935.3,2107.9z M2906.6,2108.8
			c1.2-0.1,2.2-0.9,2.6-2.1c0.6-1.6-0.4-3.3-1.9-3.8c-1.7-0.5-3.3-1.1-5-1.8l-0.9-0.4c-7.4-2.6-15.1-4.8-23.1-6.6
			c-1.6-0.4-3.2,0.6-3.6,2.2c-0.4,1.6,0.7,3.2,2.3,3.6c7.8,1.7,15.4,3.9,22.5,6.4l0.9,0.3c1.7,0.6,3.4,1.2,5.1,1.7
			C2905.8,2108.7,2906.3,2108.8,2906.6,2108.8L2906.6,2108.8z M2642.1,2123.8c0.5,0,1-0.2,1.4-0.5c7.8-5.1,16.5-9.3,26.3-12.8
			c1.6-0.5,2.4-2.3,1.8-3.9c-0.5-1.6-2.3-2.4-3.8-1.8c-10.3,3.6-19.4,8-27.6,13.5c-1.4,0.9-1.8,2.8-0.8,4.2
			C2640,2123.4,2641.1,2123.9,2642.1,2123.8L2642.1,2123.8z M2848.1,2095.6c1.4-0.1,2.6-1.2,2.8-2.7c0.2-1.6-1.1-3.1-2.7-3.3
			c-9.5-0.9-19.4-1.4-30.3-1.5c-1.7,0-3,1.3-3,3c0,1.7,1.3,3,3,3c10.7,0.1,20.4,0.6,29.8,1.5
			C2847.7,2095.5,2847.9,2095.5,2848.1,2095.6L2848.1,2095.6z M2477.5,2121.4c1.4-0.1,2.6-1.2,2.8-2.7c0.5-5.7,0.6-11.4,0.1-17.2
			c-0.3-4.6-1-9.2-1.8-13.6c-0.3-1.6-1.9-2.7-3.5-2.3c-1.6,0.4-2.7,1.9-2.3,3.5c0.8,4.2,1.5,8.5,1.8,12.8c0.4,5.4,0.4,10.9-0.1,16.2
			c-0.1,1.6,1.1,3.1,2.7,3.2C2477.3,2121.3,2477.4,2121.3,2477.5,2121.4L2477.5,2121.4z M2698.1,2103.2c0,0,0.2,0,0.4,0
			c8.7-1.6,18.1-2.9,29.6-4c1.7-0.1,2.8-1.6,2.7-3.3c-0.1-1.7-1.7-2.8-3.3-2.7c-11.7,1.1-21.2,2.4-30.1,4c-1.6,0.3-2.7,1.9-2.4,3.5
			c0.3,1.6,1.6,2.6,3.2,2.5L2698.1,2103.2z M2787.9,2094.8c1.6-0.1,2.9-1.5,2.8-3.2c-0.1-1.7-1.5-2.9-3.2-2.8
			c-8.3,0.4-16.6,0.9-24.9,1.5l-5.2,0.4c-1.7,0.1-2.9,1.6-2.8,3.2c0.1,1.7,1.5,2.9,3.2,2.8l5.2-0.4
			C2771.4,2095.7,2779.6,2095.1,2787.9,2094.8L2787.9,2094.8z M2942.3,2051.2c0.3,0,0.7-0.1,0.9-0.3c1.5-0.7,2.2-2.4,1.6-3.9
			c-4-9.5-10.8-17.6-20.3-23.8c-1.4-0.9-3.2-0.6-4.2,0.8c-0.9,1.4-0.5,3.2,0.9,4.2c8.5,5.6,14.6,12.7,18.1,21.1
			C2939.8,2050.5,2941.1,2051.2,2942.3,2051.2L2942.3,2051.2z M2465.7,2063.2c0.4,0,0.8-0.1,1.2-0.3c1.4-0.8,2-2.6,1.2-4.1
			c-1-1.9-2.1-3.8-3.3-5.7c-4.2-6.8-9.4-13.3-14.3-19.4c-1.1-1.3-2.9-1.5-4.3-0.4c-1.3,1.1-1.5,2.9-0.4,4.3
			c4.8,5.9,9.8,12.2,13.9,18.8c1.1,1.7,2.1,3.5,3.1,5.3c0.6,1.1,1.8,1.7,2.9,1.6L2465.7,2063.2z M2895.4,2017.1
			c1.3-0.1,2.3-0.9,2.7-2.2c0.4-1.6-0.5-3.2-2.1-3.6c-8.9-2.3-19-3.9-30.2-4.9c-1.7-0.2-3.1,1.1-3.3,2.7c-0.1,1.6,1.1,3.1,2.7,3.3
			c10.9,1,20.6,2.5,29.2,4.8C2894.8,2017.1,2895.1,2017.2,2895.4,2017.1z M2656,2027.3c1.6-0.1,2.8-1.5,2.8-3c-0.1-1.7-1.4-3-3-2.9
			c-3.2,0.1-6.1,0-8.7-0.1c-11.2-0.7-20.9-1.8-29.5-3.2c-1.7-0.3-3.2,0.8-3.4,2.5c-0.3,1.6,0.8,3.2,2.5,3.4
			c8.9,1.5,18.8,2.6,30.2,3.3C2649.5,2027.4,2652.6,2027.5,2656,2027.3c-0.1,0.1,0.1,0.1,0.1,0.1L2656,2027.3z M2686,2025l0.1,0
			c9.2-1,19.3-2.2,29.9-3.6c1.7-0.2,2.8-1.7,2.6-3.4c-0.2-1.7-1.7-3-3.4-2.6c-10.6,1.3-20.6,2.6-29.8,3.6c-1.7,0.2-2.8,1.6-2.6,3.3
			C2682.8,2024,2684.3,2025.1,2686,2025L2686,2025z M2745.7,2017.7l0.1,0c9.8-1.1,19.7-2.3,29.9-3.2c1.7-0.1,2.8-1.7,2.7-3.3
			c-0.1-1.7-1.5-2.7-3.3-2.7c-10.1,1-20.2,2.1-30,3.3c-1.7,0.2-2.8,1.7-2.6,3.3C2742.7,2016.7,2744.1,2017.9,2745.7,2017.7
			L2745.7,2017.7z M2835.7,2011.1c1.6-0.1,2.8-1.4,2.8-3c0-1.7-1.4-3-3-3c-9.3,0-19.5,0.4-30.3,1c-1.7-0.2-2.9,1.5-2.9,3.2
			c0.1,1.7,1.5,2.9,3.2,2.9c10.6-0.7,20.7-0.9,29.9-1C2835.5,2011.2,2835.6,2011.2,2835.7,2011.1L2835.7,2011.1z M2588.1,2016.3
			c1.1-0.1,2.2-0.8,2.6-1.9c0.6-1.6-0.2-3.3-1.7-3.9c-9.7-3.8-18.2-8.6-25.1-14.4c-1.3-1-3.1-0.9-4.3,0.3c-1.1,1.3-0.9,3.1,0.3,4.3
			c7.4,6.2,16.4,11.4,26.8,15.4c0.4,0.2,0.9,0.2,1.3,0.2L2588.1,2016.3z M2430.5,2014.5c0.5,0,0.9-0.2,1.4-0.4
			c1.4-0.8,1.9-2.7,1-4.1c-4-6.7-6.7-13-8.1-19.3c-0.5-2.1-0.8-4.4-1-6.6l-0.1-0.8c-0.1-1.7-1.5-2.9-3.2-2.9
			c-1.8,0.2-2.9,1.5-2.8,3.2l0.1,1c0.2,2.5,0.6,5,1.1,7.5c1.5,6.9,4.4,13.9,8.8,21.1C2428.4,2014.1,2429.4,2014.6,2430.5,2014.5
			L2430.5,2014.5z M2543.5,1978c0.4,0,0.9-0.2,1.3-0.4c1.4-0.8,1.9-2.7,1.1-4.1c-1.4-2.4-2.7-4.9-4-7.3c-3.5-6.4-7-12.9-11.4-18.9
			c-1-1.3-2.9-1.6-4.2-0.6c-1.3,1-1.6,2.9-0.6,4.2c4.1,5.6,7.6,12,11,18.1c1.3,2.5,2.7,4.9,4.1,7.4c0.6,1,1.7,1.6,2.8,1.5
			L2543.5,1978z M2427.6,1957.4c1-0.1,1.9-0.6,2.4-1.6c4.6-8.6,11.1-15.8,19-20.9c1.4-0.9,1.8-2.7,0.9-4.2c-0.9-1.4-2.8-1.8-4.2-0.9
			c-8.8,5.6-16,13.6-21.1,23.1c-0.8,1.4-0.2,3.3,1.3,4.1C2426.4,1957.3,2427,1957.4,2427.6,1957.4L2427.6,1957.4z M2505.2,1933.3
			c1-0.1,2-0.7,2.5-1.7c0.7-1.5,0.1-3.3-1.4-4c-9.6-4.6-20.1-6.9-30.5-6.6c-1.6-0.1-3,1.4-2.9,3c0.1,1.7,1.4,3,3.1,2.9
			c9.5-0.2,19,1.9,27.8,6C2504.3,1933.2,2504.8,1933.3,2505.2,1933.3L2505.2,1933.3z"/>
		<path class="st3" d="M2002.3,891.5c1.3-0.1,2.5-0.2,3.7-0.4c1.6-0.3,2.8-1.8,2.5-3.5c-0.3-1.6-1.8-2.7-3.5-2.5
			c-1.9,0.3-3.8,0.5-5.8,0.4c-6.8-0.1-13.8-2-21.4-5.9c-1.4-0.7-3.3-0.2-4.1,1.3c-0.7,1.5-0.2,3.3,1.3,4.1
			c8.3,4.3,16.4,6.5,24.1,6.6C2000.2,891.6,2001.3,891.5,2002.3,891.5L2002.3,891.5z M2028.4,873.5c1.1-0.1,2.2-0.8,2.6-2
			c1.3-3.8,1.8-7.8,1.5-12.3c-0.4-5.9-2.3-12.3-5.5-19.1c-1.5-3.1-3.1-6.1-4.9-9.1c-0.9-1.4-2.7-1.9-4.1-1c-1.4,0.9-1.9,2.7-1,4.1
			c1.7,2.7,3.2,5.6,4.6,8.4c2.9,6.1,4.6,11.8,5,17c0.3,3.6-0.1,6.9-1.2,9.9c-0.5,1.5,0.3,3.3,1.9,3.8
			C2027.6,873.5,2028,873.5,2028.4,873.5L2028.4,873.5z M1952.6,867.5c0.7-0.1,1.4-0.3,1.9-0.9c1.2-1.2,1.2-3.1,0.1-4.2
			c-7.4-7.4-12.8-15.4-16-23.8c-0.6-1.5-2.3-2.3-3.9-1.7c-1.5,0.6-2.3,2.3-1.7,3.9c3.6,9.1,9.4,17.8,17.4,25.8
			C1950.9,867.3,1951.8,867.6,1952.6,867.5L1952.6,867.5z M2000.1,813c0.8-0.1,1.5-0.4,2.1-1.1c1.1-1.3,0.9-3.1-0.3-4.3
			c-7.9-6.7-16.7-12.1-26.2-16.3c-1.6-0.7-3.3,0.1-3.9,1.5c-0.7,1.6,0.1,3.3,1.5,3.9c9,3.9,17.3,9.1,24.8,15.3
			c0.6,0.6,1.4,0.7,2.2,0.7L2000.1,813z M1932.6,813.1c1.4-0.1,2.6-1.2,2.8-2.7c1.4-12.2,4.8-19.8,9.6-21.7c0.4-0.2,0.9-0.3,1.4-0.3
			c1.7-0.2,2.8-1.8,2.5-3.4c-0.2-1.6-1.8-2.8-3.4-2.5c-1,0.1-1.9,0.4-2.7,0.7c-7.3,2.8-11.8,11.7-13.5,26.7c-0.2,1.6,1,3.1,2.7,3.3
			C1932.2,813.1,1932.4,813.1,1932.6,813.1L1932.6,813.1z"/>
		<path class="st3" d="M1795.2,1862.9c5.7-0.4,11.7-2.7,18.7-7c1.4-0.9,1.8-2.7,1-4.1c-0.9-1.4-2.7-1.8-4.1-1
			c-8.4,5.1-14.9,7-20.9,5.9c-1.5-0.3-3.1-0.8-4.5-1.6c-1.5-0.7-3.3-0.1-4.1,1.3c-0.8,1.4-0.1,3.3,1.3,4.1c1.9,1,4,1.7,6.1,2.1
			S1793,1863.2,1795.2,1862.9L1795.2,1862.9z M1833.6,1835.7c1.1-0.1,2.1-0.8,2.6-1.9c0.7-1.7,1.3-3.3,1.8-5.1
			c2.5-8.4,3.4-17,2.8-25.8c-0.1-1.7-1.5-2.9-3.2-2.8c-1.7,0.1-2.9,1.5-2.8,3.2c0.6,8-0.4,16-2.6,23.7c-0.4,1.5-1,3-1.5,4.5
			c-0.6,1.6,0.1,3.3,1.7,3.9C1832.7,1835.7,1833.2,1835.7,1833.6,1835.7L1833.6,1835.7z M1770.4,1835.9c1.5-0.1,2.7-1.3,2.8-2.9
			c0.3-8.4,4.4-17.3,11.5-24.8c1.1-1.2,1-3.1-0.1-4.3c-1.2-1.1-3.1-1-4.3,0.1c-8.1,8.7-12.8,18.8-13.1,28.7c-0.1,1.7,1.2,3,2.9,3.1
			C1770.2,1835.9,1770.3,1835.9,1770.4,1835.9L1770.4,1835.9z M1795.2,1799.1c0.5,0,1-0.2,1.5-0.5c9.8-6.8,19.2-11.3,25.8-12.3
			c1.6-0.2,2.8-1.8,2.5-3.4c-0.2-1.7-1.8-2.7-3.4-2.5c-10.1,1.6-22,9-28.2,13.3c-1.4,0.9-1.7,2.8-0.8,4.2
			C1793.1,1798.7,1794.1,1799.2,1795.2,1799.1z"/>
		<path class="st3" d="M1956.8,1707.9c0,0,0.5,0,0.7-0.2c7-2.4,12.7-7.8,15.5-10.8c2.8-3.2,5.6-6.5,8.2-9.9c1-1.3,0.7-3.2-0.6-4.2
			c-1.3-1-3.2-0.7-4.2,0.6c-2.5,3.3-5.1,6.5-7.8,9.5c-4,4.4-8.7,7.7-12.8,9.1c-1.6,0.5-2.4,2.2-1.9,3.8
			C1954.3,1707.3,1955.6,1708.1,1956.8,1707.9L1956.8,1707.9z M1939.7,1691c1.4-0.1,2.5-1.1,2.8-2.6c0.8-5.4,3.1-11.2,5.3-16.7
			c1.5-3.7,2.8-7.6,3.8-11.6c0.4-1.6-0.5-3.3-2.1-3.6c-1.6-0.4-3.3,0.5-3.6,2.1c-1,3.7-2.2,7.3-3.6,10.8c-2.3,5.8-4.8,12-5.7,18.1
			c-0.2,1.6,0.9,3.2,2.5,3.4C1939.4,1691,1939.6,1691,1939.7,1691L1939.7,1691z M1994.1,1662.3c1.1-0.1,2.1-0.8,2.5-1.8
			c0.6-1.5,1.3-3,1.8-4.5c2.8-7.3,5.3-15.3,7.5-24.7c0.4-1.6-0.7-3.2-2.3-3.6c-1.6-0.4-3.2,0.7-3.6,2.2c-2.1,9-4.4,16.8-7.2,23.8
			c-0.6,1.4-1.2,2.9-1.8,4.3c-0.7,1.5,0,3.3,1.5,4C1993.1,1662.3,1993.6,1662.4,1994.1,1662.3L1994.1,1662.3z M1952.5,1632.7
			c1.6-0.1,2.8-1.4,2.8-3c0-3.6-0.2-7.1-0.4-10.7c-0.5-6.2-1.2-12.7-2.4-19.7c-0.3-1.7-1.9-2.8-3.4-2.5c-1.6,0.3-2.8,1.8-2.5,3.4
			c1.2,6.9,1.9,13.1,2.3,19.1c0.2,3.4,0.4,6.9,0.4,10.3c0,1.7,1.4,3,3,3C1952.4,1632.6,1952.5,1632.6,1952.5,1632.7L1952.5,1632.7z
			 M2008.7,1604.1c1.4-0.1,2.5-1.1,2.8-2.5c1.5-9.2,3.3-19.5,5.6-29.4c0.4-1.6-0.6-3.2-2.3-3.6c-1.6-0.4-3.2,0.6-3.6,2.3
			c-2.4,10.1-4.1,20.5-5.6,29.7c-0.2,1.6,0.8,3.2,2.5,3.4C2008.3,1604,2008.6,1604.1,2008.7,1604.1L2008.7,1604.1z M1943.4,1573.3
			c0,0,0.3,0,0.5,0c1.6-0.4,2.6-2,2.2-3.7l-1.5-6.2c-1.9-7.6-3.7-15.3-5.3-23c-0.4-1.6-1.9-2.7-3.5-2.3c-1.6,0.4-2.6,1.9-2.3,3.5
			c1.6,7.7,3.5,15.4,5.4,23.1l1.5,6.2C1940.7,1572.4,1942,1573.4,1943.4,1573.3z M2023.5,1545.9c1.1-0.1,2.1-0.8,2.6-1.9
			c3.4-8.5,7.6-17.3,12.7-26.9c0.8-1.4,0.3-3.3-1.2-4.1c-1.4-0.8-3.3-0.2-4.1,1.2c-5.3,9.8-9.5,18.8-13,27.5
			c-0.6,1.6,0.1,3.3,1.7,3.9C2022.6,1545.9,2023.1,1546,2023.5,1545.9L2023.5,1545.9z M1931.9,1514.3c1.7-0.1,2.9-1.6,2.7-3.3
			l-0.2-2.6c-0.5-7.3-0.5-14.1,0-20.7c0.2-2,0.4-4,0.6-6c0.2-1.6-0.9-3.2-2.5-3.4c-1.7-0.2-3.2,0.9-3.4,2.5
			c-0.3,2.1-0.5,4.3-0.8,6.4c-0.5,6.9-0.6,14,0,21.6l0.2,2.7c0.1,1.6,1.6,2.8,3.2,2.7L1931.9,1514.3z M2051.4,1492.7
			c1-0.1,1.8-0.6,2.4-1.4c3-4.9,6.1-9.8,9.1-14.6l6.8-10.9c0.9-1.4,0.4-3.3-1-4.2c-1.4-0.9-3.3-0.4-4.1,1l-6.8,10.9
			c-3,4.9-6.1,9.8-9.1,14.7c-0.9,1.4-0.4,3.3,1,4.1C2050.3,1492.6,2050.9,1492.7,2051.4,1492.7L2051.4,1492.7z M1941.1,1455.7
			c1-0.1,2-0.7,2.5-1.7c4.5-9.3,10.3-17,17.1-23.1c1.2-1.1,1.3-3,0.2-4.2c-1.1-1.2-3-1.4-4.2-0.2c-7.4,6.6-13.7,15-18.5,24.9
			c-0.7,1.5-0.1,3.3,1.4,4C1940,1455.6,1940.6,1455.7,1941.1,1455.7L1941.1,1455.7z M2082.5,1441.2c1-0.1,1.9-0.6,2.4-1.6
			c5.3-9.7,9.6-18.6,13.3-27.3c0.7-1.6-0.1-3.3-1.6-3.9c-1.6-0.6-3.3,0.1-3.9,1.6c-3.6,8.5-7.9,17.2-13,26.8
			c-0.8,1.4-0.3,3.3,1.2,4.1C2081.3,1441.1,2081.9,1441.2,2082.5,1441.2L2082.5,1441.2z M1985.4,1418.2c0,0,0.3,0,0.4,0
			c4.3-0.9,8.9-1.4,13.3-1.9c5.4-0.6,11.1-1.2,16.5-2.6c3.1-0.8,6.5-1.9,9.8-3.4c1.5-0.7,2.2-2.4,1.6-3.9c-0.7-1.5-2.4-2.2-3.9-1.6
			c-3.1,1.3-6.1,2.3-9,3.1c-5.1,1.3-10.2,1.9-15.8,2.5c-4.5,0.5-9.3,1-13.8,2c-1.6,0.4-2.6,1.9-2.3,3.5
			C1982.6,1417.3,1984,1418.3,1985.4,1418.2L1985.4,1418.2z M2049.9,1394.5c0.6,0,1.3-0.3,1.8-0.7c7.6-6.5,13.6-13.6,17.6-20.7
			c0.5-0.9,1.1-2.3,1.8-3.9c0.6-1.6-0.2-3.3-1.7-3.9c-1.6-0.6-3.3,0.2-3.9,1.7c-0.5,1.3-1,2.4-1.3,3.1c-3.6,6.5-9.3,13-16.3,19.1
			c-1.3,1.1-1.4,3-0.3,4.2C2048.1,1394.3,2049.1,1394.6,2049.9,1394.5L2049.9,1394.5z M2105.4,1385.8c1.3-0.1,2.3-1,2.7-2.2
			c2.6-10.3,4.1-20.6,4.5-30.3c0.1-1.6-1.3-3-2.9-3.1c-1.7-0.1-3.1,1.2-3.1,2.9c-0.3,9.4-1.8,19.1-4.4,29.1
			c-0.4,1.6,0.6,3.2,2.2,3.6C2104.7,1385.8,2105,1385.8,2105.4,1385.8L2105.4,1385.8z M2079,1343c1-0.1,2-0.7,2.5-1.7
			c4.3-9.1,8.6-13.8,12.8-14.1c1.6-0.1,3.2,0.4,4.9,1.5c1.4,0.9,3.3,0.5,4.2-0.9c0.9-1.4,0.5-3.3-0.9-4.2c-9.4-6-18.5-1.1-26.3,15.1
			c-0.7,1.5-0.1,3.3,1.4,4c0.5,0.2,1,0.4,1.5,0.3L2079,1343z"/>
		<path class="st3" d="M1078.7,1788.6c1.3,0,2.8,0.1,4.2,0c1.7,0,3-1.4,2.9-3.1c-0.1-1.7-1.4-3.1-3.1-2.9c-1.3,0-2.8-0.1-3.8,0
			c-8.7-0.3-17.1-2.5-23.7-6c-1.5-0.8-3.3-0.3-4.1,1.2c-0.8,1.5-0.2,3.3,1.2,4.1C1059.9,1785.9,1069,1788.2,1078.7,1788.6z
			 M1112,1782.4c0.4,0,0.8,0,1.2-0.2c9.2-3.4,18.3-8.2,27.2-14.2c1.4-0.9,1.7-2.8,0.8-4.2c-0.9-1.4-2.8-1.7-4.2-0.8
			c-8.5,5.8-17.3,10.3-25.9,13.6c-1.5,0.6-2.4,2.3-1.8,3.8C1109.8,1781.6,1110.9,1782.3,1112,1782.4L1112,1782.4z M1036.4,1759
			c0,0,0.4,0,0.5,0c1.6-0.2,2.8-1.7,2.6-3.4c-0.2-1.5-0.2-3-0.2-4.5c0.3-7.1,3.3-14.6,8.5-21.2c1-1.3,0.8-3.2-0.5-4.2
			c-1.3-1-3.2-0.8-4.2,0.5c-6,7.6-9.4,16.4-9.7,24.7c-0.1,1.9,0,3.7,0.3,5.5C1033.7,1757.9,1035,1759,1036.4,1759L1036.4,1759z
			 M1161.8,1749.5c0.8,0,1.6-0.2,2.2-0.8c6.9-6.7,13.8-14.2,20.5-22.5c1-1.3,0.9-3.2-0.4-4.2c-1.3-1.1-3.2-0.8-4.2,0.4
			c-6.5,8.1-13.2,15.5-20,22c-1.2,1.2-1.2,3.1-0.1,4.3C1160.3,1749.2,1161,1749.5,1161.8,1749.5L1161.8,1749.5z M1068.4,1712
			c0.6,0,1.2-0.1,1.7-0.4c1.8-1.1,3.6-2.2,5.4-3.2l3.9-2.3c5.6-3.3,11.1-6.6,16.6-10c1.4-0.9,1.9-2.8,1-4.2
			c-0.9-1.4-2.8-1.8-4.1-0.9c-5.4,3.4-10.9,6.7-16.4,9.9l-3.9,2.3c-1.8,1.1-3.6,2.1-5.4,3.3c-1.4,0.8-1.9,2.7-1,4.1
			C1066.5,1711.4,1067.4,1711.9,1068.4,1712L1068.4,1712z M1199.8,1703c1,0,2-0.4,2.6-1.3c5.6-8.3,11-17,16-25.8
			c0.8-1.4,0.3-3.3-1.1-4.1c-1.4-0.8-3.3-0.3-4.1,1.1c-4.9,8.6-10.2,17.1-15.8,25.3c-0.9,1.3-0.5,3.2,0.8,4.2
			C1198.7,1702.8,1199.2,1703,1199.8,1703z M1118.3,1678.7c0.8,0,1.5-0.2,2.1-0.8c6.3-5.7,11.4-11.4,15.6-17.6
			c1.4-2.1,2.7-4.2,3.9-6.3c0.8-1.5,0.3-3.3-1.2-4.1c-1.5-0.8-3.3-0.3-4.1,1.2c-1.2,2-2.3,4-3.7,5.9c-3.9,5.8-8.7,11.2-14.7,16.6
			c-1.3,1.1-1.3,3-0.2,4.3c0.6,0.6,1.3,1,2.1,1L1118.3,1678.7z M1229.7,1650.8c1.1,0,2.3-0.6,2.8-1.7c3.9-8,7.6-16.3,10.9-24.6
			l1.3-3.2c0.6-1.5-0.2-3.3-1.7-3.9c-1.5-0.6-3.3,0.2-3.9,1.7l-1.2,3.1c-3.3,8.2-6.9,16.3-10.7,24.3c-0.7,1.5-0.1,3.3,1.4,4
			c0.3,0.2,0.8,0.3,1.2,0.3L1229.7,1650.8z M1149,1627.8c1.3,0,2.5-0.7,3-2l1.6-4.3c2.7-7.8,5.5-15.9,9-23.5c1.3-2.8,3.1-5.8,5.5-9
			c1-1.3,0.7-3.2-0.6-4.2c-1.4-1-3.2-0.7-4.2,0.6c-2.6,3.5-4.7,6.9-6.1,10.1c-3.6,7.8-6.5,16.1-9.2,24l-1.5,4.3
			c-0.5,1.5,0.3,3.3,1.8,3.9c0.3,0.1,0.6,0.1,0.9,0.2L1149,1627.8z M1248.8,1593.9c1.6,0.1,3-0.9,3.1-2.5c0,0,0-0.3,0-0.4
			c0.3-7-0.7-13.3-2.8-19c-1.6-4.2-3.6-8-6-11c-1-1.3-2.9-1.6-4.2-0.6c-1.3,1-1.6,2.9-0.6,4.2c2,2.6,3.7,5.8,5.1,9.5
			c1.9,5,2.7,10.3,2.4,16.3C1245.9,1592,1247.2,1593.7,1248.8,1593.9L1248.8,1593.9z M1186.9,1569.1c0.7,0,1.3-0.2,1.9-0.6
			c8.9-6.5,17.9-10.8,25.8-12.2c1.6-0.3,2.7-1.9,2.4-3.5c-0.3-1.6-1.9-2.7-3.5-2.4c-8.8,1.6-18.5,6.2-28.2,13.2
			c-1.4,1-1.6,2.9-0.6,4.2C1185.1,1568.6,1186,1569,1186.9,1569.1L1186.9,1569.1z"/>
	</g>
</g>
</svg>
