<?xml version="1.0" encoding="UTF-8"?>
<svg id="Layer_1" data-name="Layer 1" xmlns="http://www.w3.org/2000/svg" xmlns:xlink="http://www.w3.org/1999/xlink" viewBox="0 0 1280 238.82">
  <defs>
    <style>
      .cls-1, .cls-2 {
        fill: none;
      }

      .cls-3 {
        clip-path: url(#clippath);
      }

      .cls-4, .cls-5 {
        fill: #fff;
      }

      .cls-6 {
        clip-path: url(#clippath-1);
      }

      .cls-2 {
        stroke: #fff;
        stroke-linecap: round;
        stroke-miterlimit: 10;
        stroke-width: 2px;
      }

      .cls-5 {
        fill-rule: evenodd;
      }
    </style>
    <clipPath id="clippath">
      <rect class="cls-1" x="63.7" y="53.31" width="411.93" height="132.19"/>
    </clipPath>
    <clipPath id="clippath-1">
      <rect class="cls-1" x="63.7" y="53.31" width="411.93" height="132.19"/>
    </clipPath>
  </defs>
  <g class="cls-3">
    <g class="cls-6">
      <path class="cls-5" d="m75.12,179.8h-6.54l-.78,1.8c-.26.6-.38,1.1-.38,1.49,0,.52.21.9.63,1.15.25.15.85.26,1.82.33v.51h-6.16v-.51c.66-.1,1.21-.37,1.64-.82.43-.45.96-1.39,1.59-2.8l6.63-14.78h.26l6.68,15.19c.64,1.44,1.16,2.35,1.57,2.72.31.28.75.45,1.31.49v.51h-8.96v-.51h.37c.72,0,1.22-.1,1.52-.3.2-.15.3-.35.3-.63,0-.16-.03-.33-.08-.51-.02-.08-.15-.42-.41-1.02l-.98-2.31Zm-.46-1.01l-2.76-6.38-2.84,6.38h5.6Z"/>
      <path class="cls-4" d="m89.28,172.3v1.65c.66-.71,1.28-1.22,1.89-1.54.6-.33,1.25-.49,1.94-.49.83,0,1.52.23,2.06.7.55.46.91,1.02,1.09,1.71.15.52.22,1.52.22,2.99v4.97c0,.98.09,1.6.26,1.84.18.24.56.39,1.12.45v.49h-6.46v-.49c.48-.06.83-.26,1.04-.6.15-.23.22-.79.22-1.69v-5.68c0-1.05-.04-1.71-.12-1.98-.08-.27-.22-.48-.42-.63-.19-.15-.4-.23-.64-.23-.78,0-1.51.56-2.19,1.68v6.84c0,.96.09,1.56.26,1.82.18.25.52.41,1,.48v.49h-6.46v-.49c.54-.06.92-.23,1.15-.52.15-.2.23-.79.23-1.78v-7.21c0-.97-.09-1.57-.27-1.8-.17-.24-.54-.39-1.11-.46v-.51h5.2Z"/>
      <path class="cls-5" d="m115.91,179.8h-6.54l-.78,1.8c-.26.6-.38,1.1-.38,1.49,0,.52.21.9.63,1.15.25.15.85.26,1.82.33v.51h-6.16v-.51c.66-.1,1.21-.37,1.64-.82.43-.45.95-1.39,1.58-2.8l6.63-14.78h.26l6.68,15.19c.64,1.44,1.16,2.35,1.57,2.72.31.28.75.45,1.31.49v.51h-8.96v-.51h.37c.72,0,1.22-.1,1.52-.3.2-.15.3-.35.3-.63,0-.16-.03-.33-.08-.51-.02-.08-.15-.42-.41-1.02l-.98-2.31Zm-.46-1.01l-2.76-6.38-2.84,6.38h5.6Z"/>
      <path class="cls-4" d="m135.52,172.3v10c0,.97.09,1.58.27,1.83.18.24.55.39,1.11.45v.49h-5.2v-1.71c-.61.73-1.22,1.26-1.83,1.6-.61.33-1.29.49-2.05.49s-1.36-.22-1.93-.66c-.56-.45-.93-.97-1.12-1.56-.19-.59-.29-1.63-.29-3.1v-5.07c0-.97-.09-1.57-.27-1.8-.17-.24-.54-.39-1.11-.46v-.51h5.21v8.73c0,.91.04,1.5.12,1.76.09.26.23.46.41.6.19.14.41.21.66.21.33,0,.62-.09.89-.26.36-.24.8-.72,1.31-1.43v-6.83c0-.97-.09-1.57-.27-1.8-.17-.24-.54-.39-1.11-.46v-.51h5.2Z"/>
      <path class="cls-4" d="m145.84,171.94l.2,4.36h-.46c-.56-1.29-1.13-2.18-1.73-2.65-.59-.47-1.18-.71-1.78-.71-.37,0-.69.13-.96.38-.26.25-.4.53-.4.86,0,.25.09.48.27.71.29.37,1.11,1.02,2.44,1.93,1.34.9,2.22,1.67,2.64,2.31.43.63.64,1.34.64,2.12,0,.71-.18,1.41-.53,2.09-.35.68-.86,1.21-1.5,1.57s-1.36.55-2.14.55c-.61,0-1.43-.19-2.44-.57-.27-.1-.46-.15-.56-.15-.3,0-.55.23-.75.68h-.45l-.22-4.59h.46c.41,1.2.97,2.1,1.68,2.7.72.6,1.4.9,2.03.9.44,0,.79-.13,1.07-.4.28-.27.42-.6.42-.98,0-.44-.14-.81-.41-1.13-.27-.32-.88-.8-1.83-1.45-1.39-.97-2.29-1.7-2.7-2.21-.6-.75-.9-1.57-.9-2.47,0-.98.34-1.87,1.01-2.66.68-.8,1.67-1.2,2.95-1.2.69,0,1.36.17,2.01.51.25.14.45.21.6.21s.3-.03.4-.1c.1-.07.26-.27.48-.59h.46Z"/>
      <path class="cls-4" d="m152.6,167.62v4.67h3.03v1.35h-3.03v7.88c0,.74.03,1.22.1,1.43.07.21.2.38.37.52.17.13.33.19.48.19.59,0,1.15-.45,1.68-1.35l.41.3c-.74,1.75-1.94,2.62-3.59,2.62-.81,0-1.5-.22-2.06-.67-.56-.45-.91-.96-1.06-1.52-.09-.31-.14-1.15-.14-2.51v-6.9h-1.67v-.48c1.15-.81,2.12-1.66,2.92-2.55.81-.89,1.52-1.89,2.12-2.99h.45Z"/>
      <path class="cls-4" d="m161.87,172.3v2.9c.85-1.32,1.59-2.19,2.23-2.62.64-.44,1.25-.66,1.84-.66.51,0,.91.16,1.22.48.31.31.46.75.46,1.33,0,.61-.15,1.08-.45,1.42-.29.34-.65.51-1.07.51-.48,0-.9-.15-1.26-.46-.35-.31-.56-.48-.63-.52-.09-.05-.2-.08-.31-.08-.26,0-.52.1-.75.3-.37.31-.66.75-.85,1.33-.29.88-.44,1.86-.44,2.92v3.7c.01.52.05.85.11,1,.11.25.27.43.48.55.22.11.58.18,1.09.21v.49h-6.9v-.49c.56-.05.93-.2,1.12-.45.2-.26.3-.95.3-2.06v-7.06c0-.73-.04-1.19-.11-1.39-.09-.26-.22-.44-.4-.56-.17-.12-.48-.2-.91-.25v-.51h5.22Z"/>
      <path class="cls-5" d="m174.63,183.18c-1.56,1.38-2.96,2.06-4.19,2.06-.73,0-1.33-.24-1.82-.71-.48-.48-.72-1.08-.72-1.8,0-.97.42-1.85,1.26-2.62.84-.78,2.66-1.82,5.48-3.11v-1.28c0-.97-.06-1.57-.16-1.82-.1-.25-.3-.47-.59-.65-.29-.19-.62-.29-.98-.29-.59,0-1.08.13-1.46.4-.24.16-.36.35-.36.57,0,.19.13.43.38.71.35.39.52.77.52,1.13,0,.45-.17.83-.51,1.15-.33.31-.76.46-1.3.46-.57,0-1.06-.17-1.45-.52-.38-.35-.57-.75-.57-1.22,0-.65.26-1.28.78-1.87.52-.6,1.24-1.06,2.17-1.38.93-.32,1.89-.48,2.9-.48,1.21,0,2.17.26,2.87.78.71.51,1.17,1.06,1.38,1.67.13.38.19,1.26.19,2.64v4.96c0,.58.02.95.07,1.11.05.15.11.26.2.33.09.07.2.11.31.11.24,0,.48-.17.72-.51l.41.33c-.46.67-.93,1.17-1.42,1.48-.48.3-1.03.45-1.65.45-.73,0-1.3-.17-1.71-.5-.41-.35-.66-.87-.75-1.56m0-1v-4.28c-1.1.65-1.92,1.34-2.46,2.08-.35.49-.53.99-.53,1.49,0,.42.15.79.45,1.11.23.25.55.37.96.37.45,0,.98-.26,1.58-.77"/>
      <path class="cls-4" d="m185.73,166.55v15.87c0,.9.1,1.48.31,1.73.21.25.62.39,1.23.42v.49h-6.9v-.49c.56-.02.98-.18,1.26-.49.18-.21.27-.76.27-1.67v-13.22c0-.89-.11-1.46-.31-1.71-.21-.25-.61-.4-1.22-.44v-.51h5.35Z"/>
      <path class="cls-5" d="m191.58,166.11c.59,0,1.09.21,1.5.63.41.41.61.91.61,1.49s-.21,1.08-.63,1.49c-.41.41-.91.61-1.49.61s-1.08-.2-1.49-.61c-.41-.41-.61-.91-.61-1.49s.21-1.08.61-1.49c.41-.42.91-.63,1.49-.63m1.91,6.19v10.12c0,.9.1,1.48.31,1.73.21.25.62.39,1.23.42v.49h-6.9v-.49c.56-.02.98-.18,1.26-.49.18-.21.27-.77.27-1.67v-7.46c0-.9-.11-1.48-.31-1.72-.21-.26-.61-.4-1.22-.44v-.51h5.35Z"/>
      <path class="cls-5" d="m202.49,183.18c-1.56,1.38-2.96,2.06-4.19,2.06-.73,0-1.33-.24-1.82-.71-.48-.48-.72-1.08-.72-1.8,0-.97.42-1.85,1.26-2.62.84-.78,2.66-1.82,5.48-3.11v-1.28c0-.97-.06-1.57-.16-1.82-.1-.25-.3-.47-.59-.65-.29-.19-.62-.29-.98-.29-.59,0-1.08.13-1.46.4-.24.16-.35.35-.35.57,0,.19.13.43.38.71.35.39.52.77.52,1.13,0,.45-.17.83-.51,1.15-.33.31-.76.46-1.3.46-.57,0-1.06-.17-1.45-.52-.38-.35-.57-.75-.57-1.22,0-.65.26-1.28.78-1.87.52-.6,1.24-1.06,2.17-1.38.93-.32,1.89-.48,2.9-.48,1.21,0,2.17.26,2.87.78.71.51,1.17,1.06,1.38,1.67.13.38.19,1.26.19,2.64v4.96c0,.58.02.95.07,1.11.05.15.11.26.2.33.09.07.2.11.31.11.24,0,.48-.17.72-.51l.41.33c-.46.67-.93,1.17-1.42,1.48-.48.3-1.03.45-1.65.45-.73,0-1.3-.17-1.71-.5-.41-.35-.66-.87-.75-1.56m0-1v-4.28c-1.1.65-1.92,1.34-2.46,2.08-.35.49-.53.99-.53,1.49,0,.42.15.79.45,1.11.23.25.55.37.96.37.45,0,.98-.26,1.58-.77"/>
      <path class="cls-4" d="m213.53,172.3v1.65c.66-.71,1.28-1.22,1.89-1.54.6-.33,1.25-.49,1.94-.49.83,0,1.52.23,2.06.7.55.46.91,1.02,1.09,1.71.15.52.22,1.52.22,2.99v4.97c0,.98.09,1.6.26,1.84.18.24.56.39,1.12.45v.49h-6.46v-.49c.48-.06.83-.26,1.04-.6.15-.23.22-.79.22-1.69v-5.68c0-1.05-.04-1.71-.12-1.98-.08-.27-.22-.48-.42-.63-.19-.15-.41-.23-.64-.23-.78,0-1.51.56-2.19,1.68v6.84c0,.96.09,1.56.26,1.82.18.25.51.41,1,.48v.49h-6.46v-.49c.54-.06.92-.23,1.15-.52.15-.2.23-.79.23-1.78v-7.21c0-.97-.09-1.57-.27-1.8-.17-.24-.54-.39-1.11-.46v-.51h5.2Z"/>
      <path class="cls-4" d="m247.26,166.12v6.53h-.51c-.61-1.79-1.52-3.14-2.75-4.07-1.22-.93-2.55-1.39-4-1.39s-2.54.39-3.46,1.18c-.92.77-1.57,1.86-1.95,3.25-.38,1.39-.57,2.82-.57,4.29,0,1.77.21,3.33.63,4.67.42,1.34,1.09,2.32,2.02,2.95.94.63,2.05.94,3.33.94.45,0,.9-.05,1.37-.14.47-.1.96-.24,1.45-.42v-3.85c0-.73-.05-1.2-.15-1.41-.1-.22-.31-.41-.63-.59-.31-.17-.69-.26-1.13-.26h-.48v-.5h9v.5c-.68.05-1.16.14-1.43.29-.26.14-.47.37-.61.7-.08.17-.12.6-.12,1.27v3.85c-1.18.53-2.42.92-3.7,1.19-1.27.27-2.6.41-3.97.41-1.76,0-3.22-.24-4.38-.71-1.16-.48-2.18-1.11-3.07-1.89-.88-.78-1.57-1.66-2.08-2.64-.64-1.26-.96-2.66-.96-4.22,0-2.79.98-5.14,2.94-7.06,1.96-1.92,4.42-2.88,7.39-2.88.92,0,1.75.07,2.49.22.4.07,1.05.28,1.94.63.9.34,1.43.51,1.6.51.25,0,.49-.09.71-.27.22-.19.42-.55.6-1.06h.51Z"/>
      <path class="cls-5" d="m256.13,171.91c1.11,0,2.14.29,3.1.86.96.57,1.68,1.39,2.17,2.44.5,1.06.75,2.21.75,3.47,0,1.81-.46,3.33-1.38,4.55-1.11,1.48-2.65,2.21-4.6,2.21s-3.4-.67-4.44-2.02c-1.04-1.35-1.56-2.91-1.56-4.69s.53-3.42,1.58-4.78c1.07-1.37,2.52-2.05,4.37-2.05m.06.97c-.46,0-.87.18-1.2.53-.33.35-.55,1.04-.66,2.08-.1,1.03-.15,2.46-.15,4.3,0,.97.06,1.89.19,2.73.1.65.31,1.14.64,1.48.33.34.7.51,1.12.51s.75-.11,1.02-.34c.35-.31.59-.74.71-1.3.18-.86.27-2.61.27-5.25,0-1.55-.09-2.61-.26-3.18-.17-.58-.43-1.01-.77-1.27-.24-.19-.55-.29-.93-.29"/>
      <path class="cls-4" d="m268.18,185.45l-4.3-9.9c-.52-1.19-.92-1.95-1.22-2.27-.21-.24-.52-.4-.93-.48v-.51h6.79v.51c-.43,0-.72.08-.87.23-.22.2-.33.44-.33.71,0,.34.2.97.6,1.9l2.1,4.79,1.68-4.14c.48-1.18.72-2.02.72-2.51,0-.28-.1-.51-.31-.68-.2-.18-.56-.28-1.08-.3v-.51h4.18v.51c-.4.06-.73.21-.98.45-.25.25-.64.97-1.15,2.17l-4.26,10.03h-.64Z"/>
      <path class="cls-5" d="m285.26,178.22h-7.01c.08,1.69.53,3.03,1.35,4.02.63.76,1.38,1.13,2.27,1.13.55,0,1.04-.15,1.49-.45.45-.31.92-.86,1.43-1.65l.46.3c-.69,1.41-1.46,2.41-2.3,3.01-.84.58-1.81.87-2.91.87-1.89,0-3.33-.73-4.3-2.19-.78-1.17-1.17-2.63-1.17-4.37,0-2.13.57-3.82,1.72-5.08,1.16-1.27,2.51-1.9,4.06-1.9,1.29,0,2.41.53,3.36,1.6.96,1.06,1.47,2.63,1.54,4.71m-3.36-.92c0-1.47-.08-2.47-.25-3.02-.15-.55-.4-.96-.74-1.24-.19-.16-.45-.25-.77-.25-.47,0-.86.23-1.16.7-.54.81-.81,1.92-.81,3.33v.48h3.72Z"/>
      <path class="cls-4" d="m291.32,172.3v2.9c.85-1.32,1.59-2.19,2.23-2.62.64-.44,1.25-.66,1.84-.66.51,0,.92.16,1.22.48.31.31.46.75.46,1.33,0,.61-.15,1.08-.45,1.42-.29.34-.65.51-1.07.51-.48,0-.9-.15-1.26-.46-.35-.31-.56-.48-.63-.52-.09-.05-.2-.08-.31-.08-.26,0-.52.1-.75.3-.37.31-.66.75-.85,1.33-.29.88-.44,1.86-.44,2.92v3.7c.01.52.05.85.11,1,.11.25.27.43.48.55.22.11.58.18,1.09.21v.49h-6.9v-.49c.56-.05.93-.2,1.12-.45.2-.26.3-.95.3-2.06v-7.06c0-.73-.04-1.19-.11-1.39-.09-.26-.22-.44-.4-.56-.17-.12-.48-.2-.91-.25v-.51h5.22Z"/>
      <path class="cls-4" d="m303.1,172.3v1.65c.66-.71,1.28-1.22,1.89-1.54.6-.33,1.25-.49,1.94-.49.83,0,1.52.23,2.06.7.55.46.91,1.02,1.09,1.71.15.52.22,1.52.22,2.99v4.97c0,.98.09,1.6.26,1.84.18.24.56.39,1.12.45v.49h-6.46v-.49c.48-.06.83-.26,1.04-.6.15-.23.22-.79.22-1.69v-5.68c0-1.05-.04-1.71-.12-1.98-.08-.27-.22-.48-.42-.63-.19-.15-.4-.23-.64-.23-.78,0-1.51.56-2.19,1.68v6.84c0,.96.09,1.56.26,1.82.18.25.51.41,1,.48v.49h-6.46v-.49c.54-.06.92-.23,1.15-.52.15-.2.23-.79.23-1.78v-7.21c0-.97-.09-1.57-.27-1.8-.17-.24-.54-.39-1.11-.46v-.51h5.21Z"/>
      <path class="cls-4" d="m317.9,172.3v1.68c.7-.77,1.35-1.3,1.94-1.6.6-.31,1.26-.46,1.97-.46.82,0,1.51.19,2.06.57.56.38.98.97,1.28,1.75.73-.82,1.43-1.41,2.09-1.78.67-.36,1.38-.55,2.1-.55.88,0,1.58.2,2.1.61.53.4.89.92,1.09,1.54.21.62.31,1.61.31,2.98v5.23c0,.98.09,1.59.26,1.83.18.24.56.39,1.12.47v.49h-6.6v-.49c.52-.05.9-.25,1.15-.6.16-.24.25-.81.25-1.69v-5.49c0-1.14-.05-1.86-.14-2.17-.09-.31-.24-.54-.44-.68-.19-.15-.42-.23-.68-.23-.39,0-.79.15-1.19.44-.4.28-.81.71-1.22,1.28v6.86c0,.92.08,1.5.23,1.73.21.34.61.52,1.2.56v.49h-6.61v-.49c.35-.02.63-.1.83-.26.21-.16.35-.35.41-.57.07-.23.11-.71.11-1.46v-5.49c0-1.16-.05-1.88-.14-2.17-.09-.29-.25-.52-.46-.68-.21-.16-.44-.25-.68-.25-.36,0-.7.1-1,.29-.43.28-.88.77-1.37,1.45v6.86c0,.9.09,1.5.26,1.79.18.28.56.45,1.12.51v.49h-6.58v-.49c.54-.06.92-.23,1.15-.52.15-.2.23-.79.23-1.78v-7.21c0-.97-.09-1.57-.27-1.8-.17-.24-.54-.39-1.11-.46v-.51h5.2Z"/>
      <path class="cls-5" d="m345.6,178.22h-7.01c.08,1.69.53,3.03,1.35,4.02.63.76,1.38,1.13,2.27,1.13.55,0,1.04-.15,1.49-.45.45-.31.92-.86,1.43-1.65l.46.3c-.69,1.41-1.46,2.41-2.29,3.01-.84.58-1.81.87-2.91.87-1.89,0-3.33-.73-4.3-2.19-.78-1.17-1.17-2.63-1.17-4.37,0-2.13.57-3.82,1.72-5.08,1.16-1.27,2.51-1.9,4.06-1.9,1.29,0,2.41.53,3.36,1.6.96,1.06,1.47,2.63,1.54,4.71m-3.36-.92c0-1.47-.08-2.47-.25-3.02-.15-.55-.4-.96-.74-1.24-.19-.16-.45-.25-.77-.25-.47,0-.86.23-1.16.7-.54.81-.81,1.92-.81,3.33v.48h3.72Z"/>
      <path class="cls-4" d="m351.3,172.3v1.65c.66-.71,1.28-1.22,1.89-1.54.6-.33,1.25-.49,1.94-.49.83,0,1.52.23,2.06.7.55.46.91,1.02,1.09,1.71.15.52.22,1.52.22,2.99v4.97c0,.98.09,1.6.26,1.84.18.24.56.39,1.12.45v.49h-6.46v-.49c.48-.06.83-.26,1.04-.6.15-.23.22-.79.22-1.69v-5.68c0-1.05-.04-1.71-.12-1.98-.08-.27-.22-.48-.42-.63-.19-.15-.41-.23-.64-.23-.78,0-1.51.56-2.19,1.68v6.84c0,.96.09,1.56.26,1.82.18.25.51.41,1,.48v.49h-6.46v-.49c.54-.06.92-.23,1.15-.52.15-.2.23-.79.23-1.78v-7.21c0-.97-.09-1.57-.27-1.8-.17-.24-.54-.39-1.11-.46v-.51h5.2Z"/>
      <path class="cls-4" d="m365.31,167.62v4.67h3.03v1.35h-3.03v7.88c0,.74.03,1.22.1,1.43.07.21.2.38.37.52.17.13.33.19.48.19.59,0,1.15-.45,1.68-1.35l.41.3c-.74,1.75-1.94,2.62-3.59,2.62-.81,0-1.5-.22-2.06-.67-.56-.45-.91-.96-1.06-1.52-.09-.31-.14-1.15-.14-2.51v-6.9h-1.67v-.48c1.15-.81,2.12-1.66,2.92-2.55.81-.89,1.52-1.89,2.12-2.99h.45Z"/>
      <path class="cls-4" d="m383.89,184.56v.51h-9.68v-.51h.61c.54,0,.97-.1,1.3-.29.24-.13.42-.35.55-.65.1-.22.15-.79.15-1.72v-12.18c0-.95-.05-1.54-.15-1.78-.1-.24-.31-.44-.61-.61-.3-.18-.71-.27-1.23-.27h-.61v-.51h9.68v.51h-.61c-.54,0-.97.1-1.3.29-.24.13-.42.35-.56.66-.1.22-.15.79-.15,1.72v12.18c0,.95.05,1.54.15,1.78.11.24.31.45.61.63.31.17.72.26,1.24.26h.61Z"/>
      <path class="cls-4" d="m390.14,172.3v1.65c.66-.71,1.28-1.22,1.89-1.54.6-.33,1.25-.49,1.94-.49.83,0,1.52.23,2.06.7.55.46.91,1.02,1.09,1.71.15.52.22,1.52.22,2.99v4.97c0,.98.09,1.6.26,1.84.18.24.56.39,1.12.45v.49h-6.46v-.49c.48-.06.83-.26,1.04-.6.15-.23.22-.79.22-1.69v-5.68c0-1.05-.04-1.71-.12-1.98-.08-.27-.22-.48-.42-.63-.19-.15-.4-.23-.64-.23-.78,0-1.51.56-2.19,1.68v6.84c0,.96.09,1.56.26,1.82.18.25.51.41,1,.48v.49h-6.46v-.49c.54-.06.92-.23,1.15-.52.15-.2.23-.79.23-1.78v-7.21c0-.97-.09-1.57-.27-1.8-.17-.24-.54-.39-1.11-.46v-.51h5.2Z"/>
      <path class="cls-5" d="m402.99,166.11c.59,0,1.09.21,1.5.63.41.41.61.91.61,1.49s-.21,1.08-.63,1.49c-.41.41-.91.61-1.49.61s-1.08-.2-1.49-.61c-.41-.41-.61-.91-.61-1.49s.21-1.08.61-1.49c.41-.42.91-.63,1.49-.63m1.91,6.19v10.12c0,.9.1,1.48.31,1.73.21.25.62.39,1.23.42v.49h-6.9v-.49c.56-.02.98-.18,1.26-.49.18-.21.27-.77.27-1.67v-7.46c0-.9-.11-1.48-.31-1.72-.21-.26-.61-.4-1.22-.44v-.51h5.35Z"/>
      <path class="cls-4" d="m412.2,167.62v4.67h3.03v1.35h-3.03v7.88c0,.74.03,1.22.1,1.43.07.21.2.38.37.52.17.13.33.19.48.19.59,0,1.15-.45,1.68-1.35l.41.3c-.74,1.75-1.94,2.62-3.59,2.62-.81,0-1.5-.22-2.06-.67-.56-.45-.91-.96-1.07-1.52-.09-.31-.14-1.15-.14-2.51v-6.9h-1.67v-.48c1.15-.81,2.12-1.66,2.92-2.55.81-.89,1.52-1.89,2.12-2.99h.45Z"/>
      <path class="cls-5" d="m419.52,166.11c.59,0,1.09.21,1.5.63.41.41.61.91.61,1.49s-.21,1.08-.63,1.49c-.41.41-.91.61-1.49.61s-1.08-.2-1.49-.61c-.41-.41-.61-.91-.61-1.49s.21-1.08.61-1.49c.41-.42.91-.63,1.49-.63m1.91,6.19v10.12c0,.9.1,1.48.31,1.73.21.25.62.39,1.23.42v.49h-6.9v-.49c.56-.02.98-.18,1.26-.49.18-.21.27-.77.27-1.67v-7.46c0-.9-.11-1.48-.31-1.72-.21-.26-.61-.4-1.22-.44v-.51h5.35Z"/>
      <path class="cls-5" d="m430.99,183.18c-1.56,1.38-2.96,2.06-4.19,2.06-.73,0-1.33-.24-1.82-.71-.48-.48-.72-1.08-.72-1.8,0-.97.42-1.85,1.26-2.62.84-.78,2.66-1.82,5.48-3.11v-1.28c0-.97-.06-1.57-.16-1.82-.1-.25-.3-.47-.59-.65-.29-.19-.62-.29-.98-.29-.59,0-1.08.13-1.46.4-.24.16-.36.35-.36.57,0,.19.13.43.38.71.35.39.52.77.52,1.13,0,.45-.17.83-.51,1.15-.33.31-.76.46-1.3.46-.57,0-1.06-.17-1.45-.52-.38-.35-.57-.75-.57-1.22,0-.65.26-1.28.78-1.87.52-.6,1.24-1.06,2.17-1.38.93-.32,1.89-.48,2.9-.48,1.21,0,2.17.26,2.87.78.71.51,1.17,1.06,1.38,1.67.13.38.19,1.26.19,2.64v4.96c0,.58.02.95.07,1.11.05.15.11.26.2.33.09.07.2.11.31.11.24,0,.48-.17.72-.51l.41.33c-.46.67-.93,1.17-1.42,1.48-.48.3-1.03.45-1.65.45-.73,0-1.3-.17-1.71-.5-.41-.35-.66-.87-.75-1.56m0-1v-4.28c-1.1.65-1.92,1.34-2.46,2.08-.36.49-.53.99-.53,1.49,0,.42.15.79.45,1.11.23.25.55.37.96.37.46,0,.98-.26,1.59-.77"/>
      <path class="cls-4" d="m441.88,167.62v4.67h3.03v1.35h-3.03v7.88c0,.74.03,1.22.1,1.43.07.21.2.38.37.52.17.13.33.19.48.19.59,0,1.15-.45,1.68-1.35l.41.3c-.74,1.75-1.94,2.62-3.59,2.62-.81,0-1.5-.22-2.06-.67-.56-.45-.91-.96-1.06-1.52-.09-.31-.14-1.15-.14-2.51v-6.9h-1.67v-.48c1.15-.81,2.12-1.66,2.92-2.55.81-.89,1.52-1.89,2.12-2.99h.45Z"/>
      <path class="cls-5" d="m449.2,166.11c.59,0,1.09.21,1.5.63.41.41.61.91.61,1.49s-.21,1.08-.63,1.49c-.41.41-.91.61-1.49.61s-1.08-.2-1.49-.61c-.41-.41-.61-.91-.61-1.49s.21-1.08.61-1.49c.41-.42.91-.63,1.49-.63m1.91,6.19v10.12c0,.9.1,1.48.31,1.73.21.25.62.39,1.23.42v.49h-6.9v-.49c.56-.02.98-.18,1.26-.49.18-.21.27-.77.27-1.67v-7.46c0-.9-.11-1.48-.31-1.72-.21-.26-.61-.4-1.22-.44v-.51h5.35Z"/>
      <path class="cls-4" d="m458.83,185.45l-4.3-9.9c-.52-1.19-.92-1.95-1.22-2.27-.21-.24-.52-.4-.93-.48v-.51h6.79v.51c-.43,0-.72.08-.87.23-.22.2-.33.44-.33.71,0,.34.2.97.6,1.9l2.1,4.79,1.68-4.14c.48-1.18.72-2.02.72-2.51,0-.28-.1-.51-.31-.68-.2-.18-.56-.28-1.08-.3v-.51h4.18v.51c-.4.06-.73.21-.98.45-.26.25-.64.97-1.15,2.17l-4.26,10.03h-.64Z"/>
      <path class="cls-5" d="m475.63,178.22h-7.01c.08,1.69.53,3.03,1.35,4.02.63.76,1.38,1.13,2.27,1.13.55,0,1.04-.15,1.49-.45.45-.31.92-.86,1.43-1.65l.46.3c-.69,1.41-1.46,2.41-2.3,3.01-.84.58-1.81.87-2.91.87-1.89,0-3.33-.73-4.3-2.19-.78-1.17-1.17-2.63-1.17-4.37,0-2.13.57-3.82,1.72-5.08,1.16-1.27,2.51-1.9,4.06-1.9,1.29,0,2.41.53,3.36,1.6.96,1.06,1.47,2.63,1.54,4.71m-3.36-.92c0-1.47-.08-2.47-.25-3.02-.15-.55-.4-.96-.74-1.24-.19-.16-.45-.25-.77-.25-.47,0-.86.23-1.16.7-.54.81-.81,1.92-.81,3.33v.48h3.72Z"/>
      <path class="cls-4" d="m248.02,133.57c-.09.15-.2.28-.35.35"/>
      <path class="cls-4" d="m251.22,108.56c.37,0,.67-.3.67-.67s-.3-.67-.67-.67-.67.3-.67.67.3.67.67.67"/>
      <path class="cls-4" d="m282.21,80.31h0s-24.1-.01-24.1-.01h0s0,.01,0,.01l.02,19.46c0,1.88.8,3.52,1.89,4.03l9.27,5.54c.2.23.51.38.85.38.29,0,.55-.11.75-.29l9.41-5.62c1.1-.51,1.89-2.15,1.89-4.03l.02-19.46h0Zm-16.09,5.63h-2.08v-4.98h2.08v4.98Zm-1.51,1.74l.3-.31-.19-.34.39.04.23-.41.23.41.39-.04-.18.34.3.31-.38.07v.42l-.36-.27-.36.27v-.42l-.38-.07Zm-5.82,1.47h2.53v4.73h-2.53v-4.73Zm.42-2.12l.39.04.24-.41.23.41.39-.04-.18.34.3.31-.38.07v.42l-.36-.27-.36.27v-.42l-.38-.07.3-.31-.18-.34Zm2.86,4.81l.39.04.23-.41.23.41.4-.04-.18.34.3.31-.38.07v.42l-.36-.27-.36.27v-.42l-.38-.07.3-.31-.18-.34Zm1.68-3.8c-.02-.13-.18-.16-.26-.16-.22,0-.32.37-.5.38-.14,0-.24.02-.24-.15,0-.13.29-.22.4-.33-1.56,0-1.59.72-1.84.72-.41,0,.34-.75.56-.97-.32-.05-.5-.44-.85-.64.16-.23.26-.13.46.03,0-.16.12-.36.49-.36.7,0,.5.68.62.68s0-.68.46-.68c.69,0,1.56,1.78.77,1.78-.34,0-.07-.25-.07-.3m-1.79-5.21l.3-.31-.18-.34.39.04.23-.41.23.41.4-.03-.18.34.3.31-.38.07v.42l-.36-.27-.36.27v-.42l-.38-.07Zm-.63,3.11h-2.53v-4.98h2.53v4.98Zm4.8,20.73l-5.77-3.45c-.96-.66-1.44-1.82-1.56-3.21v-5.48h7.33v12.13Zm-2.08-17.52h2.08v4.73h-2.08v-4.73Zm9.51,17.92l-2.66,1.59h-.05c-.19.15-.43.25-.7.25s-.52-.1-.71-.26l-2.65-1.58v-12.53h6.77v12.53Zm0-13.19h-6.77v-12.92h6.77v12.92Zm7.99,6.14c-.13,1.4-.6,2.55-1.56,3.21l-5.77,3.45v-12.13h7.33v5.48Zm0-6.14h-7.33v-12.92h7.33v12.92Z"/>
      <path class="cls-4" d="m265.73,99c-.04-.08-.92.29-.67.27.03-.26.52-.79.74-.99-.04-.31-.44-.03-.85.19,1.37-1.97.49-1.16-.28-1.02,1.22-1.32.9-1.3,0-.89.71-.56.86-1.23.75-1.43-.67.89-1.28.75-1.28,1.57,0,.54-.19,1.43-.47,1.73-.36.39-.08-1.45-1.02-1.45-.3,0-1.01-.02-1.23.34.19,0,.48.49.48.68s.18.73-.14.73-.7-.68-.7-1-.02-.25-.02-.71c0-.78-1.27-1.87-1.78-1.87,0,.54.71.67.71,1.36-.3,0-.73-.56-.73-.22s.45.41.45.71-.52-.11-.52.22c0,.29.28.24.35.52-.21-.06-.4-.03-.43.08-.03.09.06.22.22.3-.07.07-.14.23-.14.68,0,1.54.96,2.25,1.67,2.25.5,0,.42-.35.49-.52.02.26.27-.13.27.32s-.49.27-.49.68c0,.55.77-.02.77.59,0,.74-.09.72-.09,1,0,.19.81-.27.76-.35.19.07.19.64.55.63.23,0,.28-.59.47-.64-.11.03.73.55.73.29,0-.72-.29-.41-.29-.9,0-.45.99-.37.84-.6-.13-.19-.22-.08-.33-.41.02.06-.78-1.14.17-.52,1,.65,1.11-1.51,1.05-1.62"/>
      <path class="cls-4" d="m291.44,104.09c.44,0,.79-.31.79-.7s-.35-.7-.79-.7-.79.31-.79.7.35.7.79.7"/>
      <path class="cls-4" d="m288.23,106c.44,0,.79-.31.79-.7s-.35-.7-.79-.7-.79.31-.79.7.35.7.79.7"/>
      <path class="cls-4" d="m250.14,110.39c.44,0,.79-.31.79-.7s-.35-.7-.79-.7-.79.31-.79.7.36.7.79.7"/>
      <path class="cls-4" d="m252.61,110.6c.44,0,.79-.31.79-.7s-.35-.7-.79-.7-.79.31-.79.7.35.7.79.7"/>
      <path class="cls-4" d="m321.19,77.36c1.18,1.4,1.43,3.64.59,5.25-.46-.04-.38-.63-.46-.97-.84-1.57-1.51-3.56-.76-5.33.55.08.34.76.63,1.06"/>
      <path class="cls-4" d="m220.56,79.27c-.25,1.02-.25,2.41,0,3.34-.21.21-.17-.21-.38-.17-1.64-1.18-.88-3.51-1.3-5.16.08-.13.29-.17.42-.08.76.51,1.09,1.23,1.26,2.07"/>
      <path class="cls-4" d="m324.8,79.39c.25.47-.21.93-.55,1.14-.38.08-.8-.13-1.05-.47-.13-.47.13-.89.51-1.1.42-.04.84.04,1.09.42"/>
      <path class="cls-4" d="m218,81.26c-.08.38-.21.76-.55.93-.25,0-.63,0-.8-.21-.25-.21-.3-.59-.17-.89.17-.29.51-.34.8-.38.29.13.59.21.71.55"/>
      <path class="cls-4" d="m326.44,81.98c.08.25.08.42,0,.68-.29.38-.71.55-1.13.38-.29-.17-.38-.47-.46-.72.08-.34.42-.63.71-.76.38,0,.63.21.88.42"/>
      <path class="cls-4" d="m324.04,82.02c.34.17.08.59.04.85-.21.21-.5.55-.88.42-.21-.21-.46-.21-.55-.51,0-.42.17-.85.59-.97.34-.08.55.08.8.21"/>
      <path class="cls-4" d="m320.98,82.65c0,.47.04,1.06-.5,1.14-.5.17-.84-.26-.97-.59-.04-.42.21-.85.63-1.02.34,0,.63.21.84.47"/>
      <path class="cls-4" d="m222.58,82.86c.13.42-.29.68-.54.89-.29.08-.67-.17-.84-.47-.29-.29.08-.55.17-.8.42-.38,1.05-.08,1.22.38"/>
      <path class="cls-4" d="m220.06,82.99c0,.34-.17.68-.46.8-.34.13-.67-.13-.84-.38-.21-.42.04-.8.38-.97.46-.17.76.25.93.55"/>
      <path class="cls-4" d="m310.8,83.16c.42.89.75,1.95.84,3.05-.17.8.13,1.86-.46,2.41-.59-.21-.63-.93-1.01-1.31-.76-1.48-.08-3.22.17-4.66.34-.13.34.3.46.51"/>
      <path class="cls-4" d="m218.08,83.67c.13.51-.25.76-.55,1.06-.5.13-.84-.25-1.05-.59-.04-.42.21-.85.55-1.01.42-.04.84.17,1.05.55"/>
      <path class="cls-4" d="m317.45,84.9c.55,1.23.59,2.71.21,4.06l-.25.21c-.59-1.14-1.43-2.2-1.72-3.43,0-.89.17-1.69.51-2.41.29-.21.46.04.59.3.04.47.25,1.02.67,1.27"/>
      <path class="cls-4" d="m322.74,84.13c-.04.42-.21.89-.63,1.02-.42.09-.84-.04-.97-.51-.13-.42.13-.8.46-1.02.46-.25.93.17,1.14.51"/>
      <path class="cls-4" d="m220.1,85.45c0,.34-.29.72-.63.8-.34.25-.59-.17-.88-.3-.13-.34-.21-.64,0-.97.13-.26.42-.26.67-.34.38.21.76.38.84.8"/>
      <path class="cls-4" d="m221.95,85.24c.17.42-.29.63-.46.85-.5.17-.76-.21-.97-.51-.08-.42.17-.68.46-.93.5-.13.76.21.97.59"/>
      <path class="cls-4" d="m323.92,85.11c-.04.55-.88,1.1-.97,1.65-.46,1.14-1.47,1.99-2.6,2.37-.25.21-.59.51-.97.55-.08-.85.67-1.61,1.13-2.37.88-1.14,2.1-1.86,3.4-2.2"/>
      <path class="cls-4" d="m219.26,86.89c.63.72.97,1.35,1.72,1.99.04.17-.08.42-.29.42-2.06-.13-3.45-2.24-4.46-3.72.13-.47.67-.08.97-.13.71.55,1.51.72,2.06,1.44"/>
      <path class="cls-4" d="m324.51,87.48c-.08,1.82-.97,3.68-2.61,4.57-.46.17-.97.63-1.43.34.88-1.82,2.23-3.3,3.7-4.91h.34Z"/>
      <path class="cls-4" d="m316.44,88.71c.13.63-.21,1.02-.71,1.23-.46.04-.76-.34-.97-.68-.04-.42.21-.81.59-.93.13-.13.33-.13.5-.13.25.09.38.3.59.51"/>
      <path class="cls-4" d="m216.94,89.09c.8.55,1.51,1.31,2.27,1.99-.54.38-1.22.04-1.85.04-1.43-.51-2.4-1.73-3.87-2.16.04-.47.59-.3.88-.42.93-.09,1.68.34,2.56.55"/>
      <path class="cls-4" d="m261.96,76.56c-2.35-.93-3.91,1.52-6.31,1.23-.29.17-.21.47-.38.68-.13.13-.34.04-.46-.04-.13-1.02-.46-1.95-.59-2.92-.25-.42-.13-1.02-.34-1.44-1.35-3.68,3.28-.89,4.2-3.05.8-1.86-1.55-2.07-2.27-3.39v-.55c-.67-.68-1.39-.89-1.81-1.78.29-1.06.42-2.2.13-3.26-.04-.25-.21-.59-.59-.47-.8,1.1-1.39,1.99-2.14,3.05-.8-.59-1.56-1.35-2.48-1.86-.63-.08-1.22-.72-1.93-.47-.13.25,0,.47.13.63.04,1.65.88,2.96,2.06,4.15l.13.63c-.76,1.74-.55,3.72-.76,5.59-1.89,4.82-4.96,9.48-9.12,12.83-2.39,2.71-5.25,5.34-5.63,9.06-.13.59.08,1.31-.38,1.74-1.39-.51-2.77-1.19-3.91-2.07-1.93-1.36-4.71-1.19-5.97-3.64-.5-.97.13-1.95.59-2.67,1.43-1.36,1.22-3.77.46-5.42-.17-.04-.21.17-.34.21-.13,2.5-2.1,4.23-1.35,6.99.17.8.59,1.31.8,2.07-.3-.08-.71-.08-.97-.21-.93-.13-1.85-.51-2.82-.38-1.93.89-4.58-.21-6.14,1.57-.25.04-.59.09-.5.47.92,0,1.81.25,2.73.21,1.47.25,2.44-.97,3.45-1.52h.25c.42-.42,1.14-.17,1.68-.25,2.65.3,4.71,1.57,6.89,2.88v.17c-.84.38-1.81.64-2.65,1.1-.97.72-2.06,1.65-2.35,2.84-.67,1.06.21,1.99.63,2.88.04.42.08.93.46,1.1,1.34-1.44.08-3.22.29-4.87.34-1.27,1.51-1.86,2.73-2.2,2.39-1.02,4.12.93,6.05,2.03-.04,1.95.21,3.81-.21,5.71-.59.21-1.34.34-1.98.3-3.32.25-5.93,2.07-8.91,3.09-1.34.47-2.94.42-4.29.93,1.05.3,2.14-.08,3.24-.13,4.12-.59,7.27-3.77,11.73-3.22l.08.13c-.5,1.06-1.18,1.95-1.98,2.75-.13-.47-.17-.85-.59-1.1-.33-.17-.71,0-.97.34-.13.21-.13.47,0,.63.21.38.55.47.93.59-.08.38-.55.55-.8.89-1.18,1.99-3.57,1.19-4.96,2.58-.21.3-.97.47-.63.93,1.6.17,3.15-.26,4.33-1.1,1.56-1.73,3.19-3.39,4.75-5.04.25,1.35-.13,2.75-.92,3.85-.38-.21-.67-.51-1.14-.64-.42.09-.71.51-.76.85.17.3.34.63.63.85-1.43,1.02-3.23,1.1-4.87,1.57-3.07.38-6.05.63-9.16.68-1.47-.08-3.15.42-4.54,0-1.6.3-3.32-.21-4.62.68-.17.21.04.42.04.63,1.94,1.27,4.58.25,6.77.64h16.56c1.22-.04,2.44-.09,3.4-.64,2.14-1.23,3.32-3.43,4.41-5.59.42-.76.71-1.65.88-2.54.42-1.44,1.72-2.46,3.15-2.58.21,2.2-.21,4.4-.71,6.44-.25,1.36-1.13,2.67-.59,4.11.13.68.84.68,1.39.76,5.09-.09,10.17-.3,15.55.08.97.17,1.81.47,2.86.42.08-.13.38-.17.25-.42-.13-.47-.46-1.06-1.01-1.19-.08-.25-.46-.17-.59-.34-2.69-1.52-5.93-.72-9.08-.68-1.64.17-3.28.47-4.67-.47-.63-.76-.17-3.17-.17-3.17,0-.96,2.31-7.62,2.61-8.17.08-.63.34-1.23.25-1.95.33-.85.25-1.95.25-2.88.17-1.36.84-2.62,1.3-3.94.25-.64.46-1.31.71-1.95.25-.8.34-1.57.84-2.2,1.37.87,2.71.84,3.37,2.4l.58,3.53c0,.21.17.63.46.38,1.09-.72.76-2.33.76-3.43.25-1.31-.67-1.95-1.05-3.09-.29-.21-.78-1.22-.78-1.22-.17-.93-2.21-1.57-1.74-2.72.25-.97.5-1.86,1.43-2.41.14.1.19.2.21.3l.51-.35.05-3.54c1.36,0,3.39.17,4.78.17.38.13.67.42,1.09.47l.34-.47,3.41-.66c-1.45.16-2.32-1.5-3.7-1.5"/>
      <path class="cls-4" d="m265.66,78.06c.1-.01.21-.03.31-.06l-.31.06Z"/>
      <path class="cls-4" d="m229.05,89.85c.04.51-.25.8-.63.97-.34-.13-.59-.17-.8-.51-.17-.47.25-.8.59-.97.34.08.76.13.84.51"/>
      <path class="cls-4" d="m226.32,89.85c.25.25.29.68.17.97-.29.25-.76.47-1.01.13-.25-.25-.5-.55-.29-.89.29-.3.8-.55,1.14-.21"/>
      <path class="cls-4" d="m284.83,90.32s.02.04.04.06"/>
      <path class="cls-4" d="m316.86,91.03c.17.47-.21.8-.55.97-.42-.13-.97-.21-.97-.76.04-.34.33-.55.63-.63.38-.13.72.17.88.42"/>
      <path class="cls-4" d="m319.09,90.95c.13.21.42.55.08.76-.17.13-.3.17-.42.34-.46.08-.88-.08-1.01-.51-.08-.47.29-.68.63-.89.29-.08.5.13.72.3"/>
      <path class="cls-4" d="m215.77,91.46c-.17.51-.59.72-1.13.55-.13-.13-.25-.34-.34-.55.04-.3.13-.59.46-.72.5.04.88.25,1.01.72"/>
      <path class="cls-4" d="m229.93,92.18c-.04.34-.42.63-.71.8-.42.04-.72-.3-.93-.59,0-.34.17-.76.5-.85.46-.17.97.17,1.14.64"/>
      <path class="cls-4" d="m227.45,91.88c.13.13.25.47.13.68-.25.21-.63.59-1.05.34-.25-.21-.55-.38-.46-.81.17-.17.38-.42.63-.51.33-.08.5.13.76.3"/>
      <path class="cls-4" d="m325.52,92.39c0,.34-.34.68-.55.8-.34.13-.71.04-.92-.21-.25-.08-.17-.42-.17-.63.21-.3.5-.47.8-.55.38.08.63.34.84.59"/>
      <path class="cls-4" d="m328.21,92.77c-.13.38-.42.72-.8.76-.25-.04-.71-.13-.63-.51,0-.3.17-.59.38-.68.42-.21.92,0,1.05.42"/>
      <path class="cls-4" d="m220.56,93.36c.08.51-.08.85-.5,1.02-.29.17-.59-.04-.8-.21-.21-.21-.38-.55-.21-.85.08-.38.46-.3.71-.47.38.04.59.21.8.51"/>
      <path class="cls-4" d="m222.62,93.74c.13.34-.25.47-.34.72-.21.13-.5.25-.76.08-.29-.25-.63-.63-.34-1.02.34-.63,1.22-.3,1.43.21"/>
      <path class="cls-4" d="m323.03,93.53c.04.42-.33.72-.59.97-.38.08-.76-.17-.84-.51-.04-.34.17-.59.46-.8.38-.04.76,0,.97.34"/>
      <path class="cls-4" d="m326.48,94.21c-.09.38-.04.81-.46,1.06-.34.08-.76.04-1.01-.17-.25-.21-.3-.59-.17-.89.21-.34.59-.59,1.01-.51.29.17.38.38.63.51"/>
      <path class="cls-4" d="m218.96,95.1c.17.34-.21.42-.34.59-.29.17-.59.04-.84-.08-.29-.17-.17-.59-.13-.8.38-.72,1.14-.21,1.3.3"/>
      <path class="cls-4" d="m323.83,95.9c.17.04.08.3.04.38-1.01.51-2.52.64-3.4-.17-.51-.42-1.13-.59-1.68-.93.21-.55.97-.51,1.51-.64,1.22.17,2.19,1.31,3.53,1.36"/>
      <path class="cls-4" d="m220.98,95.52c.08.34-.17.47-.25.72-.17.25-.5.17-.71.08-.38-.25-.55-.72-.3-1.06.46-.47,1.01-.21,1.26.25"/>
      <path class="cls-4" d="m224.68,95.78c.17.38-.08.72-.42.93-.3.17-.55-.08-.8-.13-.21-.3-.59-.64-.21-.97.38-.63,1.13-.3,1.43.17"/>
      <path class="cls-4" d="m273.28,97.57c-.08.84-1.48-.12-1.28,1.01.2.81.36,1.77.84,2.37.4.56.2,1.45.16,2.13-.36.6-.96,1.04-1.6,1.37-1.2-.12-2.96.6-3.51-.88-.24-.64-.68-1.29-.68-2.01.12-.08.28-.08.4-.2,0-.28-.32-.44-.28-.72,1.36-.24-.56-1.45.6-1.53.96,1.01,2.51.68,3.35,1.77.2.16.36.4.6.52-.16-1.01-.64-2.01-.8-3.1-.12-.56.08-1.09.48-1.41.72-.56,1.32.24,1.72.68"/>
      <path class="cls-4" d="m228.38,97.3c.13.42-.21.68-.46.89-.38.17-.59-.25-.76-.47-.13-.42.17-.63.42-.85.29,0,.63.13.8.42"/>
      <path class="cls-4" d="m254.31,97.72c.5,1.65.34,3.34-.51,4.74-.04.34.08.89-.38.85-1.13-1.57-.29-3.77.17-5.42.08-.42.59-.59.71-.17"/>
      <path class="cls-4" d="m290.29,98.53c.59,1.19.63,2.75.08,3.94l-.34.34c-.46-.97-.84-1.95-.97-3.01.21-.76.46-1.44.5-2.24.59-.13.55.64.71.97"/>
      <path class="cls-4" d="m231.66,98.99c-.25.51-.97.63-1.43.97-1.01.76-2.48.93-3.74.72,1.09-1.52,2.77-2.41,4.79-1.99.09.17.3.09.38.3"/>
      <path class="cls-4" d="m214.38,100.52c1.55,1.1,1.98,2.62,2.9,4.15.13.17.55.21.38.55-.34.25-.67-.25-1.14-.17-1.6-.72-2.61-2.5-2.56-4.36,0-.17.25-.17.42-.17"/>
      <path class="cls-4" d="m288.65,101.83c.04.42-.04.85-.38.97-.46.13-.84-.13-.97-.51-.13-.3.13-.47.21-.68.34-.34.92-.17,1.13.21"/>
      <path class="cls-4" d="m306.39,104.07c0-.8.21-1.57.29-2.33.13-.25.21-.55.17-.89,1.01-1.36,3.07-.93,4.66-.81.63.34,1.43.3,2.1.47.29-.21.71-.26,1.05-.21,1.34-.72.46-2.29.55-3.51l-.51-1.27c-.13-.25-.25-.55-.34-.85-.25-.3-.42-.85-.67-1.14-.71-1.86-2.1-2.92-3.28-4.4-2.14-2.79-5.51-4.36-8.87-5.46-3.32-1.14-6.68.34-9.67,1.4-.92-.25-1.38-.97-1.64-1.78-.17-1.61.17-3.17.8-4.49.13-1.06.84-1.86,1.13-2.84.76-2.37,1.55-4.7,1.72-7.28.08-1.57-1.09-2.67-2.27-3.35-.8-.21-1.72-.17-2.31.47-.55,1.14-1.72,1.91-2.73,2.46-.08.72.8.25,1.09.51.93.17,1.98-.13,2.73.47.08,1.69-.88,3.09-1.77,4.36-1.43,2.12-2.94,4.28-3.82,6.6l-.17-.17.2,10.35c1.34,2.23,3.01,4.77,5.51,5.61,1.34,1.1,3.03,2.41,4.83,1.44.97-.3,1.05,1.06,1.51,1.61.51,1.57-.63,2.67-.71,4.11l-1.09,2.33c-1.26,2.46-2.39,5.08-4.33,7.15-.63,0-1.01.68-1.64.72-.34.47-1.01.13-1.43.3-1.3.55-3.15.21-4.04,1.44.08.13.21.17.34.21,2.56.04,5.42.21,8.15.08.34-.13.63-.42.67-.8-.38-.72.13-1.36.46-1.91.21-1.02.88-1.65,1.18-2.62.88-1.74,1.89-3.43,2.86-5.16l1.3-2.12c.29-.72.8-1.61,1.3-2.37.34-.34.5-.72.76-1.14.04-.42-.17-.59-.42-.89.29-.3.76-.21,1.14-.3,1.05.63,2.14,1.65,2.35,2.8l.38,1.1.17.51-.09,1.4.17,1.31c.21,2.03-.17,4.11-.38,6.14-.72,2.46-3.53,2.2-5.55,2.75-.5.34-1.47.17-1.47,1.02,2.44.51,5.3.21,7.9.17.42-.17.5-.55.71-.93.08-.55.63-1.02.46-1.61-.46-.59-.04-1.52-.17-2.33.08-.21.08-.51,0-.8.34-1.23.25-2.71.5-3.9l.17-1.61Z"/>
      <path class="cls-4" d="m327.07,102.42c-1.34,1.9-2.77,4.06-5.13,4.74-.17,0-.34.08-.42-.13,1.43-1.52,2.19-3.9,4.41-4.45.34-.17.8-.34,1.13-.17"/>
      <path class="cls-4" d="m212.32,104.5c-.21.17-.04.55-.42.59-.33.17-.71-.04-.88-.38-.17-.42.21-.85.55-.93.33.17.67.3.76.72"/>
      <path class="cls-4" d="m224.43,105.09c.13.38-.29.38-.5.47-1.77.63-3.57.04-4.83-1.23,0-.17,0-.34.17-.38,1.72.42,3.74.08,5.17,1.14"/>
      <path class="cls-4" d="m214.63,104.54c.08.17.13.47.08.64-.25.38-.63.47-1.05.38-.25-.13-.38-.3-.55-.55.04-.42.38-.68.71-.8.34.04.59.13.8.34"/>
      <path class="cls-4" d="m254.02,104.75c.08.38-.25.63-.5.8-.38.08-.71-.08-.88-.34-.13-.3,0-.72.29-.81.38-.08.97-.04,1.09.34"/>
      <path class="cls-4" d="m328.67,104.92c.13.42-.25.63-.55.89-.25.13-.55,0-.8-.13-.04-.21-.29-.38-.21-.68.17-.38.54-.55.97-.51.21.17.38.21.59.42"/>
      <path class="cls-4" d="m331.44,104.75c.25.38.04.68-.17.97-.17.3-.5.38-.76.25-.25-.25-.59-.38-.63-.76,0-.34.38-.59.63-.72.42-.17.59.25.93.25"/>
      <path class="cls-4" d="m210.56,105.98c.04.3-.21.47-.29.72-.21.08-.42.25-.67.17-.3-.13-.5-.38-.63-.68.08-.38.33-.72.76-.85.34.08.72.25.84.63"/>
      <path class="cls-4" d="m299.08,105.98c.08.17.04.38.04.55-.25.34-.59.64-1.01.42-.25-.25-.55-.51-.42-.89.34-.47,1.05-.63,1.39-.08"/>
      <path class="cls-4" d="m217.32,106.61c-.08.3-.21.59-.59.63-.38.04-.5-.29-.71-.46,0-.38-.04-.76.34-.97.5-.17.97.25.97.81"/>
      <path class="cls-4" d="m213.29,106.7c.13.42-.17.72-.42.93-.5.17-.93-.21-1.13-.59.04-.38.34-.85.75-.97.38,0,.59.42.8.64"/>
      <path class="cls-4" d="m301.85,106.61c.08.42-.04.85-.46,1.02-.5.17-.93-.26-1.14-.59.21-.34.25-.8.76-.89.38,0,.63.17.84.47"/>
      <path class="cls-4" d="m215.26,106.78c.13.3-.13.42-.21.63-.21,0-.33.25-.59.17-.17-.21-.5-.3-.55-.59-.04-.42.25-.64.55-.81.42-.04.67.25.8.59"/>
      <path class="cls-4" d="m326.36,107.12c-.13.34-.38.51-.71.68-.34.08-.55-.21-.8-.34-.21-.17-.13-.55-.04-.76.42-.72,1.55-.38,1.55.42"/>
      <path class="cls-4" d="m329.55,107.29c-.13.47-.59.68-1.01.72-.38-.17-.8-.47-.5-.97.17-.17.25-.34.5-.38.51-.17.88.21,1.01.63"/>
      <path class="cls-4" d="m309.58,107.59c.21.55-.29.72-.63.97-.29-.04-.55-.17-.8-.34-.08-.47.13-.89.59-1.1.38,0,.59.17.84.47"/>
      <path class="cls-4" d="m298.03,108.1c.21.08.13.38.08.51-.25.17-.59.59-.97.34-.29-.17-.5-.42-.42-.8.21-.47,1.09-.51,1.3-.04"/>
      <path class="cls-4" d="m300.38,108.39c.04.34-.04.51-.34.68-.29.3-.63-.04-.93-.13-.08-.17-.17-.42-.04-.63.13-.17.34-.3.55-.34.29.09.63.09.76.42"/>
      <path class="cls-4" d="m229.05,108.43c.25.25-.04.55-.08.81-.21.25-.67.46-1.05.21-.42-.17-.38-.72-.29-1.06.25-.08.25-.38.59-.38.38.04.59.21.84.42"/>
      <path class="cls-4" d="m314.08,108.6c.08.42-.34.59-.63.68-.51.17-.76-.21-.97-.55,0-.25.25-.42.34-.63.59-.25.97.17,1.26.51"/>
      <path class="cls-4" d="m311.81,108.6c.17.42-.29.64-.46.85-.29.13-.67.08-.93-.17-.21-.13-.21-.38-.21-.64.25-.21.38-.47.67-.55.38,0,.76.21.92.51"/>
      <path class="cls-4" d="m330.77,109.11c.08.59-.67.3-.97.47-1.77,1.06-4.04.25-5.72-.38.13-.55.76-.34,1.09-.55,1.81-1.14,3.66.25,5.46.34l.13.13Z"/>
      <path class="cls-4" d="m215.73,108.6l-.17.3c-1.56.93-3.57,1.57-5.42.97l-.17-.25c1.55-1.14,3.61-1.44,5.63-1.14l.13.13Z"/>
      <path class="cls-4" d="m318.37,108.9c0,.34-.17.63-.42.8-.42.13-.97,0-1.09-.46-.13-.34.21-.68.55-.81.29,0,.8.04.97.47"/>
      <path class="cls-4" d="m223.25,109.07c-.17.34-.08.68-.5.85-.42.17-.93-.21-1.05-.55-.13-.47.21-.59.42-.8.5-.25.88.13,1.13.51"/>
      <path class="cls-4" d="m220.27,109.28c.13.3-.13.47-.21.68-.21.25-.59.21-.84.13-.29-.25-.59-.55-.46-1.02.25-.21.38-.34.67-.47.38.08.76.25.84.68"/>
      <path class="cls-4" d="m321.31,110.25c-.04.38-.34.68-.67.76-.34.04-.63-.21-.8-.42-.13-.25-.08-.59.17-.8.08-.13.38-.13.55-.21.38.04.67.34.76.68"/>
      <path class="cls-4" d="m217.16,109.79c.13.34-.17.47-.21.72-.13.72-.59,1.19-.92,1.82-.8.97-1.93.97-3.07,1.27l-.17-.34c1.22-1.57,2.52-2.79,4.25-3.56l.13.08Z"/>
      <path class="cls-4" d="m319.21,110.72c.08.51-.34.59-.63.8-.38,0-.67-.21-.84-.51-.13-.47.29-.64.55-.85.42-.09.8.21.93.55"/>
      <path class="cls-4" d="m221.99,110.72c-.04.08.04.17.13.21-.04.47-.38.59-.63.8-.38,0-.67-.13-.93-.42-.17-.38,0-.85.42-.97.38-.04.88,0,1.01.38"/>
      <path class="cls-4" d="m326.95,111.99c.42-.04.5-.55.97-.63.42-.08.8.17,1.01.47.17.51-.21.76-.55.97-.29.21-.93-.25-.88.3.29.21.55.51.59.85-.08.17-.38.13-.5.04-1.22-.51-2.52-1.35-3.03-2.62-.17-.38-.97-.68-.5-1.02,1.22-.08,2.23.89,2.9,1.65"/>
      <path class="cls-4" d="m330.98,110.68c.21.21.13.59-.04.8-.21.42-.84.25-1.22.21-.21-.21-.42-.42-.34-.76.17-.25.34-.42.63-.55.38-.08.67.08.97.3"/>
      <path class="cls-4" d="m315.72,112.96c.38.47.76,1.18.92,1.69-.08.13-.29.08-.38.08-1.43-.8-3.28-1.69-3.83-3.39-.13-.17-.46-.38-.42-.68,1.09-.21,2.14.59,2.9,1.18.29.42.63.64.8,1.1"/>
      <path class="cls-4" d="m219.64,111.36c.17.38-.17.68-.38.85-.46.08-.72-.08-.97-.34-.29-.46.25-.85.59-1.02.33-.04.54.3.76.51"/>
      <path class="cls-4" d="m320.98,112.33c.04.25-.29.42-.42.59-.33.04-.67.17-.97-.13-.08-.21-.29-.55-.04-.76.46-.59,1.13-.13,1.43.3"/>
      <path class="cls-4" d="m331.44,112.92c.13.51-.25.85-.59,1.06-.42.13-.75-.17-1.01-.38-.21-.25-.04-.51,0-.8.29-.25.67-.47,1.09-.3.17.13.34.21.5.42"/>
      <path class="cls-4" d="m302.36,118.76c0,.51-.93.38-1.3.76-1.3.68-2.86.68-4.41.64v-.25c1.51-1.27,3.7-1.74,5.72-1.14"/>
      <path class="cls-4" d="m241.03,120.58c-.04.38-.25.59-.63.72-.29,0-.59-.17-.71-.42-.17-.51.25-.72.55-.93.38.04.71.34.8.63"/>
      <path class="cls-4" d="m301.64,121.05c-.08.38-.21.81-.63.97-.38.08-.63-.13-.93-.3-.21-.17-.08-.47-.12-.68.29-.76,1.39-.76,1.68,0"/>
      <path class="cls-4" d="m310.01,121.22c-1.05.68-2.23,1.48-3.62,1.48l-2.27-.04-.21-.17c1.39-1.69,3.91-1.69,6.1-1.52v.25Z"/>
      <path class="cls-4" d="m229.51,122.24c0,.38-.17.68-.55.8-.42.09-.72-.08-.88-.38-.17-.38,0-.76.34-.97.46-.3.93.21,1.09.55"/>
      <path class="cls-4" d="m231.61,122.66c.13.21-.08.34-.17.55-.25.13-.59.21-.8,0-.3-.17-.38-.47-.25-.72.13-.26.38-.21.5-.38.29.13.59.26.71.55"/>
      <path class="cls-4" d="m215.52,126.93c-.42.51-1.09-.13-1.56-.38-1.47-.85-1.43-2.5-2.9-3.47.17-.51.55.04.84-.04.25.17.59.34.88.47,1.43.8,1.77,2.16,2.73,3.43"/>
      <path class="cls-4" d="m338.04,110.51c-.67-1.23-1.81-1.74-3.15-1.74-1.09.08-1.89.81-2.35,1.74-.25.93.08,1.78.8,2.33.29.13.67.08.84-.21.21-.55-.38-.55-.46-.97-.17-.59.04-1.1.46-1.48.42-.42,1.13-.21,1.64-.21.5.34,1.01.63,1.26,1.23.25.72.25,1.52,0,2.24-.46,1.06-1.51,1.9-2.6,2.12-3.49.51-41.78.34-41.78.34-4.5.42-9.63-.85-13.49,1.52-1.77.85-2.65,2.79-3.11,4.53-1.13,1.02-2.35,2.2-3.28,3.35l-.13-.13c.21-1.02.67-1.91.88-2.92.63-.85.63-1.99,1.09-2.92,1.6-2.58,3.11-5.21,5.59-7.03,1.05-1.4,2.9-1.14,4.5-1.14,1.72.8,3.74,1.06,5.84.85.08-.08.13-.17.13-.3-.59-.55-1.56-.76-2.23-1.31-1.68-.8-3.28.25-5.04.13-.08-.09-.17-.13-.13-.26,1.6-1.18,3.4-2.03,5.21-2.79,1.47-.8,3.03-1.23,4.58-1.82.63,0,1.22-.55,1.81-.17l2.23-.59c.08.04.17.17.34.13,1.89-.64,4.29-.04,6.43-.08l.3.25,2.02.51c.76.09,1.09.97,1.89,1.02.42-.59-.46-.85-.67-1.23.93-.21,1.98.04,2.81.42l-.42.47c-.25.47.13.8.5.97.29.09.5-.13.71-.21.55-.38-.04-.76.13-1.1,3.11.55,6.1,1.31,8.95,2.54.8.25,1.55.85,2.44.8-.88-.8-2.1-1.23-3.19-1.69-.72-.42-1.72-.47-2.27-1.06.13-.21.42-.13.55-.3,1.43-.17,2.65-1.23,3.66-2.37.08-.25.55-.17.5-.51-.38-.42-1.01.13-1.51.08-1.77.34-2.52,2.41-4.29,2.79-2.14-.51-4.33-1.02-6.47-1.57-1.05-.17-2.18-.26-3.15-.68l-2.35-.21h-4.29c-.04-.08-.17-.13-.13-.25,1.51-.38,2.82-1.27,4.33-1.65l11.26-5.16c1.18-1.06,2.23-2.24,3.19-3.47.04-.34-.17-.68-.46-.81-.29-.13-.63-.08-.84.17-.5.38,0,.85,0,1.31-.5.68-1.3,1.27-1.93,1.65-.17-.04-11.6,5.21-11.6,5.21-1.68.72-3.36,1.52-5.13,1.91l-2.44.38c-.17.51-.59.81-1.05.97-.67.13-1.22.55-1.93.55-5.47,2.12-11.14,4.36-15.47,8.68.25-.51.38-1.14.42-1.78-.08-.63-.04-1.35-.46-1.86-.1-.23-.41-.92-.31-1.16l-.62.4c-.38.93-.71,2.62-.33,3.6.13.76.76,1.65.17,2.33-2.02,2.46-3.15,5.42-4.5,8.21-.5-.08-.76-.55-.97-1.02,1.43-1.82,2.56-3.85,2.99-6.18.29-.21.08-.76.38-1.02-.08-.68.38-1.35.04-1.9.27-.92-1.23-1.78-.27-2.37l-.79.38c-1.81,2.37.94,5.93-1.12,8.21v.17c-.59.76-.88,1.52-1.68,2.03-1.01-.42-1.39-1.57-1.98-2.41-.93-.89-.93-2.71-.38-3.94.38-1.23-.25-2.29-.38-3.39l-.42-.25c-1.01,1.31-1.39,3.39-.59,4.95.42.76.46,1.82,1.09,2.46.38,1.23,1.13,2.03,1.81,3.13.17.42-.25.51-.46.72-.46-.3-.38-.97-.8-1.27-1.39-2.96-3.19-5.33-5.38-7.75-.09-.38-.46-.72-.25-1.14.8-.76.97-2.25.55-3.22-.08-.21-.33-.47-.29-.68l-.63-.51c.08,1.48-.88,2.79-.46,4.36v.08c-4.33-3.26-9.12-6.17-13.99-8.46l-.39,1.08c1.23.31,4.5,2.3,4.5,2.3,1.47.55,2.82,1.44,4.2,2.24,5.72,3.18,9.5,8.43,12.06,14.27.04.47.46.97.17,1.44-.88-1.36-2.14-2.12-3.19-3.22-.3-1.99-1.47-3.89-3.19-4.7-.63-.93-1.98-1.02-3.03-1.31l-15.3-.08c-12.44-.17-23.79.38-36.15.17-1.72-.17-3.83-.76-4.33-2.58-.34-.64-.34-1.74,0-2.33.46-.81,1.3-1.06,2.14-1.14.67.08,1.14.72,1.43,1.19,0,.55-.46,1.06-.67,1.52.04.17.21.51.51.38.55-.21.97-.8,1.09-1.35.04-.3.17-.72-.13-.93-.25-.89-1.18-1.52-1.97-1.74-1.05-.08-2.14.21-2.86.97-1.01.85-.97,2.37-.67,3.56.67,1.86,2.65,3.13,4.54,3.39l40.9.17c3.99.21,8.49-.47,12.53.34,1.47.47,3.03,1.57,3.4,3.22-.04.08-.17.04-.29.04-3.32-2.16-7.69-2.96-11.94-2.46-1.68-.08-3.19.55-4.71.97-.8.17-1.56-.21-2.06-.68-1.51-1.36-4.16-1.27-6.09-.76,0,.13-.04.25.04.3,2.06-.17,3.28,1.61,5.13,1.82.42.08.76-.38,1.13-.04-1.93.93-3.78,2.03-5.84,2.62-.63-.13-.97-.72-1.47-1.06-.8-.89-2.27-.51-3.36-.59-.38.08-.72-.17-.97,0,.34.68,1.09,1.06,1.81,1.4,1.05.47,2.27-.04,3.24.59-.25.3-.59.38-.88.59-1.98.76-3.62,2.54-5.8,2.41-2.31.25-4.67-.42-6.22-2.03-.67-1.65-2.39-2.54-4.25-2.45-.13.08-.29.08-.25.3.93.55,1.64,1.65,2.56,2.29.59.72,1.72,0,2.27.8.8.55,1.81,1.02,2.73,1.19.67.3,1.43.42,2.19.59l-.29.17c-3.82,1.27-8.24,1.4-12.53,1.23-1.26-.04-2.48-.42-3.74-.38.21.25.63.47,1.01.59-.33.21-.71.29-1.13.34-.5.13-1.09.17-1.6.42-.67-.04-1.26.21-1.81.42-.72.76-1.56,1.57-2.39,1.95,0,.17-.04.42.17.42.8-.34,1.81-.09,2.61-.42,1.38-.13,2.19-1.65,3.28-2.29,1.18-.93,2.86-.72,4.29-.51.84.21-.08.55.17,1.1.34.3.63.63,1.09.51.08-.08.17-.17.29-.21.25-.34.21-.72.04-1.06.59-.38,1.39.04,2.02-.21,1.6-.04,3.19-.38,4.75-.42.25-.04.55-.3.8-.04-.13.34-.55.38-.38.85.08.38.5.55.84.64.42-.17.8-.47.63-1.02-.08-.3-.42-.34-.63-.47.88-.42,1.89-.55,2.78-.97.63-.13,1.22-.34,1.76-.59.55-.04,1.01-.55,1.51-.34-.21.72-.5,1.4-.88,2.03-.67,2.24-1.18,5.21,0,7.37.13.04.17-.04.25-.08-.88-2.24-.38-4.83.38-6.94.59-3.6,4.29-4.66,6.94-6.01l.13.17c-.71,1.86-1.76,3.64-1.6,5.88.08.38-.17.76,0,1.02.71-.38,1.18-1.23,1.55-1.95.29-1.9-.8-4.27,1.14-5.67,3.45-1.35,6.68-3.13,10.68-3.17.13.13.42-.09.46.17-.84.93-2.06,1.82-2.44,2.96-1.34,1.86-1.3,5.04-.71,7.32.38,1.31-.76,2.03-1.3,3.05-.26.36-.34.98-.58,1.39l.83.09c.71-.76,1.39-1.69,1.43-2.8.08.42.46.76.8.85.29-.47-.25-.81-.3-1.27.67-.38.97.47,1.51.64.88.21,1.64.59,2.56.59l.29-.3c-.93-1.44-2.77-1.69-4.37-1.78-.84-1.4-.84-3.13-.76-4.82.17-.89.34-1.82.84-2.63.21-.59.8-1.14,1.18-1.61.76-.72,1.72-1.23,2.65-1.44h.13c0,.08.04.13.04.13-1.13.89-1.26,2.12-1.93,3.22-.72,1.06-1.05,2.5-.38,3.68.25.55.13,1.4.71,1.78.55-.76.59-1.74.88-2.58-.13-1.4-.97-2.71-.17-4.06.42-1.06,1.3-1.48,2.27-1.86,2.31-.21,4.33.97,6.35,1.86.42.3,1.14.55,1.22,1.14-.04,1.14-.67,2.29-1.56,2.84-1.13.68-2.77.76-3.83-.04-.63-.64-.88-1.74-.67-2.58.46-.51,1.09-.93,1.85-.68.42.21.8.63,1.34.38.21-.13.29-.47.17-.68-.46-.25-.63-.89-1.26-.97-.8-.13-1.77-.08-2.31.47-.88.76-1.22,1.91-.97,2.96.29,1.35,1.3,2.33,2.6,2.71,1.93.47,3.95-.13,5.17-1.78.5-.55.63-1.14.93-1.82,2.02,1.23,3.53,3.39,4.33,5.59,0,.72.21,1.48.04,2.12l1.47.13c-.13-.34,0-.72.13-1.02.55-2.79,2.27-5.12,4.33-6.94.72-.42.55.55.72.85.63,1.61,2.1,2.75,3.66,3.22,1.76.3,3.45-.13,4.54-1.48.55-1.02,1.22-2.5.29-3.56-.59-.72-1.39-1.1-2.31-1.1-1.09,0-1.77.76-2.31,1.57,0,.34-.04.72.25.89.17,0,.5.04.63-.21.08-.64.63-.93,1.13-1.27.46-.25.97,0,1.34.25.46.38.55,1.02.59,1.65-.08.8-.63,1.65-1.39,1.99-1.22.63-2.99.34-4.04-.38-.5-.55-.8-1.19-1.18-1.86-.08-.68-.34-1.27,0-1.95,1.85-1.1,3.78-1.9,6.01-2.12.88.17,1.64.76,2.23,1.4,1.93,1.99-.42,4.83.93,7.03.5-.08.5-.76.71-1.18.63-1.52-.17-3.18-.55-4.66-.51-.93-.8-1.74-1.6-2.5.21-.08.3-.08.5-.08.88.59,1.85,1.27,2.56,2.2,1.22,1.99,1.85,4.36,1.64,6.94-.33,1.27-1.68,1.86-2.73,2.33-.42.34-.92.85-1.13,1.36.5.3,1.22,0,1.72-.21.8-.3,1.26-1.31,1.81-1.78.08.04.04.17.08.25.04.47-.21,1.1.21,1.23.21-.59.25-1.44.38-2.16.55.59.63,1.36.8,2.12.38.76,1.01,1.78,2.02,1.91.25-.38-.04-.76-.13-1.1-.13-1.06-1.01-1.61-1.6-2.37-1.47-2.03-.8-5.21-1.93-7.49-.42-1.23-1.3-2.12-2.27-3.13l.17-.17c2.06-.04,3.78.63,5.67,1.02,2.31,1.14,5.67.89,6.77,3.89.46,1.69,1.22,3.26,2.4,4.57l.13-.08c.25-.42.25-1.14,0-1.57-.25-2.12-2.1-2.62-3.07-4.4l.13-.17c1.01.3,2.06.55,3.07.97,3.36.93,5.72,4.23,6.14,7.66,0,2.71-.5,4.95-1.56,7.24-.13.34-.71.72-.34,1.02.46-.34.55-.89.8-1.27,1.39-2.33,2.1-5.55,1.39-8.51-.04-.55-.67-.97-.38-1.52.21.25.46.3.72.38.25-.17.63-.17.8-.47.04-.25.21-.55,0-.76-.25-.38-.8-.38-1.22-.29-.21.25-.46.59-.51.93-.42-.72-.84-1.65-1.51-2.24l.08-.13c1.89.63,3.61,1.57,5.55,2.07.42.26.88.47,1.47.47,1.64.63,3.45.89,5.17,1.31,1.26-.13,2.31.47,3.57.17v-.08l-.04.04c-.46-.59-1.47-.04-2.02-.47-2.9-.3-5.68-1.06-8.28-2.07.04-.13.21-.08.34-.08.42-.21.71-.59.67-1.06-.21-.3-.55-.47-.97-.47-.25.13-.59.42-.63.72.04.34.34.72.63.81-.08.08-.25.04-.38.04-1.3-.59-2.57-1.14-3.83-1.74-.46-.08-.84-.47-1.3-.55-.97-.47-1.93-.93-2.9-1.31-2.69-1.4-5.67-2.16-8.53-3.17-.63-.17-1.22-.34-1.81-.51-1.05-.3-2.1-.55-3.15-.85-3.57-.89-8.37-.97-11.48.97-.5-.17-.8.63-1.05.13.88-2.33,3.45-3.09,5.76-3.17,16.86-.17,32.66-.3,49.26-.55,1.93,0,3.83-.68,4.83-2.41.71-1.02.84-2.75.29-3.89m-66.83,15.62c-.17.51-.5.93-.46,1.48l-.17.08c.13-.63-.51-1.02-.34-1.69-.34-.51-.34-1.14-.63-1.69-.38-.68.33-.97.63-1.44.59.25.8.8,1.22,1.31.25.72-.29,1.27-.25,1.95"/>
      <path class="cls-4" d="m316.81,123.46c0,.13.25.17.17.38-1.47,1.31-3.53,1.69-5.63,1.78-.17.04-.34.17-.55.13-.13-.08-.17-.21-.08-.3,1.51-1.65,3.82-2.5,6.09-1.99"/>
      <path class="cls-4" d="m310.05,124.14c.17.59-.21.93-.67,1.14-.46-.04-.71-.34-.92-.68-.13-.34.17-.51.29-.72.33-.34,1.13-.34,1.3.25"/>
      <path class="cls-4" d="m230.14,124.23c.08.3.04.68-.21.89-.17.21-.55.25-.76.21-.29-.04-.46-.38-.55-.64,0-.38.21-.59.55-.8.34,0,.71-.04.97.34"/>
      <path class="cls-4" d="m222.62,126.98v.3c-1.01.21-1.98-.04-2.73-.63-.59-.85-1.26-1.69-2.23-2.12,0-.13-.25-.3,0-.38,2.1,0,3.36,1.69,4.96,2.84"/>
      <path class="cls-4" d="m323.2,124.18c-.97,1.44-1.81,3.22-3.53,3.85-.29,0-.55.42-.8.13.67-1.61,2.1-3.34,3.74-4.02.17,0,.42-.04.59.04"/>
      <path class="cls-4" d="m232.58,124.69c.04.47-.29.55-.59.8-.34.04-.5-.21-.72-.47-.17-.42.21-.59.42-.8.33-.08.72.17.88.47"/>
      <path class="cls-4" d="m328.5,124.94c-.38.55-.21,1.36-.59,1.95-.84.97-1.56,2.07-2.9,2.29-.21-.42.29-.85.51-1.23.59-1.27,1.43-2.71,2.77-3.26l.21.25Z"/>
      <path class="cls-4" d="m209.59,125.33c.13.3.25.59,0,.93-.25.21-.63.3-.97.17-.38-.21-.5-.68-.34-1.02.25-.38,1.01-.59,1.3-.08"/>
      <path class="cls-4" d="m207.19,125.83c.04.21.17.38.13.59-.13.21-.33.47-.59.51-.46.08-.76-.17-.97-.55-.04-.38.08-.72.42-.89.38-.17.8.04,1.01.34"/>
      <path class="cls-4" d="m212.15,126.09c.09.34.17.93-.33,1.02-.59.26-.93-.17-1.26-.51,0-.38.21-.68.51-.85.42-.04.8,0,1.09.34"/>
      <path class="cls-4" d="m219.05,126.64c-.04.3.04.72-.29.8-.21.21-.59.13-.8.08-.08-.25-.55-.47-.29-.76.17-.21.34-.34.59-.47.25.13.63,0,.8.34"/>
      <path class="cls-4" d="m332.53,126.93c-.13.3-.29.68-.63.68-.38-.04-.76-.08-.97-.47-.17-.46.21-.72.55-.85.42,0,.97.17,1.05.63"/>
      <path class="cls-4" d="m324.84,127.15c.04.34-.34.59-.5.72-.59.25-1.09-.17-1.3-.63.08-.38.38-.63.72-.76.54-.04.84.25,1.09.68"/>
      <path class="cls-4" d="m330.05,127.06c0,.3-.17.59-.38.72-.34.13-.76.08-1.01-.17-.38-.34-.08-.64.17-.89.38-.21,1.09-.17,1.22.34"/>
      <path class="cls-4" d="m208.5,127.78c.08.47-.08.89-.5,1.06-.38,0-.8-.21-.93-.59-.04-.38.08-.76.42-.89.42-.13.76.13,1.01.42"/>
      <path class="cls-4" d="m322.74,128.25c.13.47-.13.89-.59,1.1-.34.08-.55-.08-.8-.3-.17-.21-.38-.68-.04-.89.34-.63,1.18-.38,1.43.08"/>
      <path class="cls-4" d="m231.11,128.71c.17.47-.33.55-.46.8-.17.08-.5.13-.63-.04-.21-.25-.46-.51-.34-.89.21-.17.29-.34.55-.42.46-.13.63.3.88.55"/>
      <path class="cls-4" d="m331.78,129.01c.08.3-.17.42-.21.63-.25.21-.67.25-.97.17-.38-.21-.38-.55-.38-.93.25-.17.29-.38.59-.47.38,0,.84.17.97.59"/>
      <path class="cls-4" d="m329.17,129.14c.17.51-.29.76-.63.89-.17.04-.42-.08-.46.17,1.09.55,1.77,1.44,2.61,2.24v.34c-1.51-.04-3.07-.42-4.16-1.61-.29-.21-.8-.21-1.13-.51.55-.55,1.56-.34,2.31-.38.55-.59-.63-1.02.08-1.52.25-.04.42-.3.76-.21.29.13.46.34.63.59"/>
      <path class="cls-4" d="m311.98,129.18c.08.21-.17.47-.21.68-.25.25-.63.3-.93.17-.21-.3-.55-.55-.42-.97.34-.63,1.43-.51,1.55.13"/>
      <path class="cls-4" d="m218,130.66c-.13.38-.29.63-.71.68-.34-.04-.63-.17-.76-.51-.04-.3.17-.47.21-.68.46-.38,1.3-.13,1.26.51"/>
      <path class="cls-4" d="m221.4,130.11c0,.59-.63.93-.84,1.52-.63,1.4-1.76,2.67-3.36,2.79-.17-.38.55-.85.72-1.23.67-1.44,2.02-2.2,3.24-3.09h.25Z"/>
      <path class="cls-4" d="m310.97,130.7c.04.47-.38.8-.72.97-.38.13-.67-.17-.88-.34-.33-.34-.13-.68.04-1.02.5-.51,1.22-.08,1.55.38"/>
      <path class="cls-4" d="m313.58,131c-.04.47-.34.8-.76.93-.08-.13-.29-.04-.42-.08-.29-.17-.55-.42-.55-.76.21-.21.3-.55.59-.59.38-.04,1.01,0,1.14.51"/>
      <path class="cls-4" d="m227.92,130.96c.04.47-.29.72-.63.89-.38.04-.63-.21-.8-.51-.08-.38.29-.63.5-.85.5-.17.63.21.93.47"/>
      <path class="cls-4" d="m230.82,131.13c-.13.38-.38.64-.8.72-.29-.08-.63-.17-.76-.51-.04-.42.29-.63.59-.85.42,0,.88.17.97.63"/>
      <path class="cls-4" d="m322.62,134.09c.21.17.59.38.5.68-.67.3-1.22-.47-1.85-.59-1.01-1.02-1.77-2.12-2.19-3.39.38-.38.8.08,1.13.21.97.8,1.89,1.86,2.4,3.09"/>
      <path class="cls-4" d="m324.17,131.13c.13.3.08.64-.08.93-.25.42-.8.34-1.18.25-.21-.25-.59-.59-.34-.97.13-.34.5-.42.8-.55.29-.04.5.21.8.34"/>
      <path class="cls-4" d="m234.68,132.23c.04.34.13.85-.29,1.06-.38.08-.88-.04-1.01-.51-.21-.51.25-.59.5-.85.34-.09.55.08.8.3"/>
      <path class="cls-4" d="m313.45,134.98c.59.85,1.01,1.9,1.09,3.01-.13.3.21.59-.04.8h-.17c-1.89-1.35-2.31-3.26-3.03-5.16-.17-.08-.21-.25-.17-.42.42-.38.71.38,1.13.51l1.18,1.27Z"/>
      <path class="cls-4" d="m240.15,133.54s0,.08.04.08c-1.68,1.19-4.03,1.91-5.97.76-.04-.13.04-.34.21-.38,1.22-.38,2.4-.97,3.7-.8l2.02.34Z"/>
      <path class="cls-4" d="m230.56,133.75c-1.43.89-2.73,2.62-4.5,3.05-.34.13-.55.59-.97.34.76-2.29,3.24-3.51,5.46-3.73v.34Z"/>
      <path class="cls-4" d="m310.97,135.65c.13.34,0,.81-.34.89-.21.21-.63.21-.8,0-.38-.17-.38-.55-.38-.85.12-.3.42-.34.63-.47.38.08.67.08.88.42"/>
      <path class="cls-4" d="m307.48,135.87c-.25.59-.97.93-1.51,1.1-1.43.51-2.73-.17-3.99-.51.04-.34.46-.21.67-.42,1.39-.3,2.82-.59,4.29-.21.13-.08.42-.13.55.04"/>
      <path class="cls-4" d="m230.56,137.1c-.13.17-.17.55-.5.68-.29.13-.59,0-.84-.17-.08-.26-.38-.47-.17-.76.08-.3.42-.38.67-.47.42.04.76.3.84.72"/>
      <path class="cls-4" d="m233.04,137.48c-.13.25-.25.63-.59.8-.34.08-.59-.08-.84-.3-.13-.26-.25-.55-.13-.85.08-.21.38-.25.59-.38.42-.04.8.38.97.72"/>
      <path class="cls-4" d="m310.17,137.9c.04.34-.13.55-.29.81-.21.3-.63.34-.92.17-.29-.04-.38-.38-.51-.59-.25-.34.17-.55.3-.85.46-.38,1.22-.17,1.43.47"/>
      <path class="cls-4" d="m312.02,137.81c.04.21.17.42.08.59-.25.21-.42.76-.93.55-.25.08-.38-.25-.5-.34-.17-.42-.04-1.06.5-1.14.38-.13.63.21.84.34"/>
      <path class="cls-4" d="m231.53,139.04c.08.47-.09.89-.42,1.14-.46.08-1.05.08-1.22-.47-.04-.42,0-.97.51-1.23.42-.04.92.04,1.14.55"/>
      <path class="cls-4" d="m233.93,138.87c-.08,1.18-.34,2.62-1.51,3.3-.67.13-1.35.76-2.02.34v-.21c.88-1.27,2.48-2.25,3.53-3.43"/>
      <path class="cls-4" d="m303.57,139.85c.17.25-.13.47-.25.68-.25.3-.72.17-1.01.04-.29-.13-.34-.55-.21-.85.08-.25.33-.38.55-.47.38-.04.72.3.93.59"/>
      <path class="cls-4" d="m238.13,141.79c.59.97.25,2.29.59,3.34-.71.08-1.01-.72-1.47-1.14-.92-1.27-.8-2.96-1.22-4.45.08-.13.21-.13.3-.08.63.42,1.09,1.23,1.6,1.78-.08.3.25.3.21.55"/>
      <path class="cls-4" d="m305.68,140.19c0,.34-.38.42-.59.63-.29-.04-.55-.17-.8-.38-.13-.42.21-.55.42-.76.42-.17.84.04.97.51"/>
      <path class="cls-4" d="m310.68,143.95c0,.13-.04.38-.25.3h-.17c-1.22-1.1-2.44-2.33-2.27-4.02l.25-.04c1.13.97,2.4,2.03,2.44,3.77"/>
      <path class="cls-4" d="m307.53,142.6c.04.34-.17.59-.38.8-.46.13-1.18.08-1.26-.55-.04-.42.42-.64.63-.85.5-.13.84.21,1.01.59"/>
      <path class="cls-4" d="m304.75,143.49c-.59,1.57-2.19,2.37-3.28,3.56-.21-.13-.13-.47-.08-.64.42-1.61,1.68-3.17,3.24-3.81.67.08,0,.55.13.89"/>
      <path class="cls-4" d="m307.9,144.76c0,.38-.38.55-.59.76-.34-.04-.67-.13-.93-.47-.04-.42.29-.55.55-.76.42-.08.8.13.97.47"/>
      <path class="cls-4" d="m276.63,67.9c.57,0,1.04.47,1.04,1.05s-.46,1.05-1.04,1.05h-12.46c-.57,0-1.04-.47-1.04-1.05s.47-1.05,1.04-1.05h12.46Zm-8.81,1.81c1.22,0,.07-1.48-.59-1.48h-1.22c-1.22,0-.07,1.48.59,1.48h1.22Zm5.11,0c1.22,0,.07-1.48-.59-1.48h-1.22c-1.22,0-.07,1.48.59,1.48h1.22Zm3.76-1.48h-.46c-1.22,0-.18,1.48.47,1.48.81,0,.86-1.48,0-1.48"/>
      <path class="cls-4" d="m275.53,82.2l2.38.91,2.34-.91-.93,3.51,1.86-.38-.63,2.12.63,2.04-1.65-.45.72,3.78-2.34-.91-2.38.91.97-3.78-1.9.53.51-2.12-.51-2.04,1.82.3-.89-3.51Zm3.51,6.32c.54,0,.58-.74.58-1.37,0-1.45-1.14,0-1.73-1.36-.43,1.15-1.6.08-1.6,1.32,0,.85,0,1.42.84,1.42h1.91Zm-2.33-1.3c0,.55.74.18,1.29.18s1.29.37,1.29-.18c0-.78-.74-.51-1.29-.51s-1.29-.27-1.29.51"/>
      <polygon class="cls-4" points="269.96 87.36 269.96 86.91 269.56 86.84 269.87 86.51 269.68 86.15 270.09 86.2 270.34 85.76 270.58 86.19 270.99 86.15 270.8 86.51 271.11 86.84 270.71 86.91 270.71 87.36 270.34 87.07 269.96 87.36"/>
      <polygon class="cls-4" points="268.11 89.74 268.11 89.29 267.71 89.22 268.03 88.89 267.83 88.53 268.24 88.58 268.49 88.14 268.73 88.57 269.14 88.53 268.95 88.89 269.26 89.22 268.87 89.29 268.87 89.74 268.49 89.45 268.11 89.74"/>
      <polygon class="cls-4" points="271.25 89.43 271.25 88.99 270.85 88.91 271.16 88.59 270.97 88.23 271.38 88.27 271.62 87.84 271.87 88.27 272.28 88.23 272.09 88.59 272.4 88.91 272 88.99 272 89.43 271.62 89.15 271.25 89.43"/>
      <polygon class="cls-4" points="271.62 91.21 271.62 90.96 271.39 90.92 271.57 90.73 271.46 90.53 271.69 90.56 271.83 90.31 271.97 90.55 272.2 90.53 272.09 90.73 272.27 90.92 272.04 90.96 272.04 91.21 271.83 91.05 271.62 91.21"/>
      <polygon class="cls-4" points="268.71 93.25 268.71 92.48 268.02 92.35 268.56 91.8 268.23 91.18 268.93 91.26 269.35 90.51 269.77 91.25 270.48 91.18 270.14 91.8 270.68 92.35 270 92.48 270 93.25 269.35 92.76 268.71 93.25"/>
      <polygon class="cls-4" points="270.19 53.31 271.67 56.95 275.42 55.85 273.52 59.28 276.71 61.55 272.86 62.19 273.09 66.12 270.19 63.49 267.29 66.12 267.52 62.19 263.67 61.55 266.86 59.28 264.96 55.85 268.71 56.95 270.19 53.31"/>
      <path class="cls-4" d="m256.63,134.95c-.45.17-.62.29-.51.75l.53,2.23c.1.41.13,1.06-.15,1.46-.33.48-1.02.79-1.52.9-.37.09-1.16.24-1.8-.03-.42-.18-.69-.37-.87-1.13l-.55-2.34c-.14-.59-.36-.55-.84-.48l-.04-.17,2.82-.68.04.17c-.55.15-.8.22-.66.84l.55,2.34c.09.4.32,1.36,1.52,1.07,1.47-.35,1.23-1.43,1.12-1.87l-.5-2.13c-.1-.43-.26-.64-.98-.49l-.04-.18,1.83-.44.04.17Z"/>
      <path class="cls-4" d="m260.8,135.42c-.26-.46-.94-1.15-1.93-.93-.44.1-.85.41-.75.87.08.38.28.5,1.05.64l1.34.24c.31.06,1.04.32,1.2,1.09.14.62-.21,1.59-1.75,1.93-.79.18-1.22.02-1.48.08-.18.04-.19.17-.2.29l-.24.06-.38-1.74.24-.05c.32.67.99,1.36,2.05,1.12,1-.22.89-.93.87-1.02-.1-.47-.53-.55-1.13-.65l-.61-.1c-1.56-.26-1.69-.86-1.76-1.18-.1-.43-.05-1.44,1.54-1.8.67-.15,1.11,0,1.36-.06.19-.04.21-.16.22-.3l.25-.06.34,1.52-.24.05Z"/>
      <path class="cls-4" d="m266.35,138.19l-3.05.29-.02-.18c.62-.1.82-.14.77-.74l-.36-3.78c-.59.09-1.47.21-1.53,1.37l-.25.02-.11-1.44,5.12-.49.15,1.44-.25.02c-.28-1.13-1.16-1.08-1.75-1.05l.36,3.78c.06.61.26.6.9.58l.02.18Z"/>
      <path class="cls-4" d="m273.48,138.19l-1.76-.03-1.73-2.29h-.23s-.03,1.41-.03,1.41c-.01.58.18.6.74.68v.18s-2.9-.06-2.9-.06v-.18c.59-.05.76-.06.77-.65l.06-3.18c.01-.62-.25-.64-.74-.68v-.18s2.76.05,2.76.05c.6.01,2.41.1,2.39,1.31-.02.88-.9,1.09-1.37,1.2l1.68,2.08c.12.13.25.14.35.14v.18Zm-3.71-2.55c1.12.01,1.57-.14,1.59-1.07.01-.73-.33-1.04-1.02-1.06-.47,0-.49.07-.54.29l-.04,1.84Z"/>
      <path class="cls-4" d="m279.1,138.92l-2.76-.35.02-.18c.53.03.69.04.71-.19.02-.19-.18-.76-.27-1l-1.91-.24c-.3.48-.47.76-.49.87-.03.27.37.34.66.39l-.02.18-1.73-.22.02-.18c.47,0,.62-.23.94-.73l2.37-3.67.24.03,1.43,3.99c.29.81.39,1.07.81,1.11l-.02.18Zm-2.38-2.01l-.64-1.84-1.02,1.64,1.66.21Z"/>
      <path class="cls-4" d="m284.1,139.93l-4.88-.9.03-.18c.48.04.74.06.82-.37l.62-3.43c.08-.47-.26-.54-.63-.64l.03-.18,2.94.54-.03.18c-.59-.09-.86-.13-.97.5l-.61,3.34c-.06.34.11.43.68.54,1.27.23,1.85-.27,2.39-1l.24.04-.64,1.54Z"/>
      <path class="cls-4" d="m287.33,140.66l-2.94-.62.04-.18c.46.06.79.1.88-.34l.7-3.41c.1-.47-.3-.56-.68-.66l.04-.17,2.94.62-.04.18c-.4-.07-.8-.15-.9.33l-.71,3.41c-.09.45.24.54.69.67l-.04.18Z"/>
      <path class="cls-4" d="m293.29,141.42l-2.76-.29.02-.18c.53.02.69.03.71-.21.02-.19-.2-.75-.29-.99l-1.92-.2c-.29.49-.46.77-.47.88-.03.27.38.34.67.38l-.02.18-1.73-.18.02-.18c.47,0,.61-.24.92-.75l2.29-3.72.24.02,1.52,3.96c.31.81.42,1.06.83,1.09l-.02.18Zm-2.43-1.96l-.68-1.83-.98,1.66,1.66.17Z"/>
      <path class="cls-4" d="m271.37,83.36c0-1.73-.97-.11-1.51-1.58-.39,1.24-1.56.2-1.56,1.53,0,.51.13.81.38.97v.51c0,.13.11.24.24.24h1.83c.13,0,.24-.11.24-.24v-.55c.22-.19.37-.49.37-.88m-1.5.33c-.5,0-1.18.35-1.18-.25,0-.85.57-.66,1.08-.66s1.29-.19,1.29.66c0,.6-.68.25-1.18.25"/>
      <path class="cls-4" d="m286.41,104.57c.44,0,.79-.31.79-.7s-.35-.7-.79-.7-.79.31-.79.7.35.7.79.7"/>
      <path class="cls-4" d="m282.69,78.97s-.37.63-.37.74c0,.23.17.41.38.41s.38-.19.38-.41c0-.01-.38-.74-.38-.74"/>
      <path class="cls-4" d="m257.3,78.97s-.37.63-.37.74c0,.23.17.41.38.41s.38-.19.38-.41c0-.01-.38-.74-.38-.74"/>
      <path class="cls-4" d="m263.64,78.97s-.37.63-.37.74c0,.23.17.41.38.41s.38-.19.38-.41c0-.01-.38-.74-.38-.74"/>
      <path class="cls-4" d="m269.99,78.97s-.37.63-.37.74c0,.23.17.41.38.41s.38-.19.38-.41c0-.01-.38-.74-.38-.74"/>
      <path class="cls-4" d="m276.34,78.97s-.37.63-.37.74c0,.23.17.41.38.41s.38-.19.38-.41c0-.01-.38-.74-.38-.74"/>
      <path class="cls-4" d="m257.31,87.69s.37.63.37.74c0,.23-.17.41-.38.41s-.38-.18-.38-.41c0-.01.38-.74.38-.74"/>
      <path class="cls-4" d="m257.31,96.15s.37.63.37.74c0,.23-.17.41-.38.41s-.38-.19-.38-.41c0-.01.38-.74.38-.74"/>
      <path class="cls-4" d="m258.32,102.86s.37.63.37.74c0,.23-.17.41-.38.41s-.38-.19-.38-.41c0-.01.38-.74.38-.74"/>
      <path class="cls-4" d="m263.65,106.42s.37.63.37.74c0,.23-.17.41-.38.41s-.38-.18-.38-.41c0-.01.38-.74.38-.74"/>
      <path class="cls-4" d="m283.01,87.69s-.37.63-.37.74c0,.23.17.41.38.41s.38-.18.38-.41c0-.01-.38-.74-.38-.74"/>
      <path class="cls-4" d="m283.01,96.15s-.37.63-.37.74c0,.23.17.41.38.41s.38-.19.38-.41c0-.01-.38-.74-.38-.74"/>
      <path class="cls-4" d="m281.99,102.86s-.37.63-.37.74c0,.23.17.41.38.41s.38-.19.38-.41c0-.01-.38-.74-.38-.74"/>
      <path class="cls-4" d="m276.67,106.42s-.37.63-.37.74c0,.23.17.41.38.41s.38-.18.38-.41c0-.01-.38-.74-.38-.74"/>
      <path class="cls-4" d="m270.19,110.2s-.37.63-.37.74c0,.23.17.42.38.42s.38-.19.38-.42c0-.01-.38-.74-.38-.74"/>
      <path class="cls-4" d="m280.52,97.57c.08.12.28.16.53.07l.24-.68s-.28-.32-.45-.28c-.68.16-1.4.24-1.8.89,0,.44.32.84.64,1.04.24-.08.28.16.44.28.04.2-.08.36-.28.36-.48-.48-1.32.16-1.68-.44.16-.6.48-1.29-.04-1.85.04-.12.24-.24.12-.36-.2-.56-.8-.12-1.16-.12-.6-.08-1.08.24-1.44.72.04.2.12.4.32.6.16-.04.24,0,.28.16l-.4.24c.12.12.12.28.16.44-.28.12-.56-.28-.68-.48,0-.32.04-.88-.4-.97-.08,0-.35.12-.35.12-.1.12-.16.37-.16.66s.16.72.16.72c0,0,1.23.91,1.51,1.48-.36.72-.36,1.73-1.2,2.13-.24.16-.24.4-.24.64l.2.16c.52-.28,1.52-.36,1.44-1.25.2-.36.4-.77.76-1.05.4-.08.76.12.92.44-.12.6-.52,1.01-1.08,1.21-.08.08-.04.2-.04.32.16.28.6.16.84.12.68-.44.96-1.25,1.56-1.49.08.4-.8.52-.24.93.36-.08.84.04,1.08-.44-.28-.68.96-1.01.2-1.61,0-.6.64-.84.6-1.49-.24-.64-1-.64-1.2-1.25.24-.16.6-.12.84,0"/>
      <path class="cls-4" d="m251.35,104.88c.44,0,.79-.31.79-.7s-.35-.7-.79-.7-.79.31-.79.7.35.7.79.7"/>
      <path class="cls-4" d="m210.18,128.93c.43,0,.78-.33.78-.75s-.35-.75-.78-.75-.78.34-.78.75.35.75.78.75"/>
      <path class="cls-4" d="m236.38,134.77h-.05l-.05-.07h0v.04s0,.02.02.02h0s-.08,0-.08,0h0s.02,0,.02-.03v-.09s0-.02-.02-.02h0s.08,0,.08,0c.02,0,.07,0,.07.04,0,.03-.03.03-.04.04l.05.06s0,0,0,0h0Zm-.11-.07s.05,0,.05-.03c0-.02-.01-.03-.03-.03-.01,0-.01,0-.02,0v.05Z"/>
      <path class="cls-4" d="m236.49,134.67s-.02-.04-.05-.04c-.01,0-.03,0-.03.02,0,.01,0,.02.02.02l.04.02s.03.02.03.04c0,.02-.02.04-.06.04-.02,0-.03,0-.04,0s0,0,0,0h0v-.05h0s.02.04.05.04c.03,0,.03-.02.03-.02,0-.01-.01-.02-.03-.03h-.02s-.04-.04-.04-.05c0-.01,0-.04.06-.04.02,0,.03,0,.04,0,0,0,0,0,0,0h0v.05h0Z"/>
      <path class="cls-4" d="m236.76,134.64s-.01,0-.02.01l-.05.13h0l-.04-.1h0l-.05.1h0l-.05-.13s0-.01-.02-.01h0s.07,0,.07,0h0s-.02,0-.02.01c0,0,0,0,0,0l.03.08h0l.03-.06v-.02s-.01,0-.03,0h0s.08,0,.08,0h0s-.02,0-.02.01c0,0,0,0,0,.01l.03.07h0l.03-.07s0,0,0,0c0,0-.01,0-.02,0h0s.05,0,.05,0h0Z"/>
      <path class="cls-4" d="m236.76,134.77s.05-.01.07-.06c0,0,0,0-.01,0s0,0-.01,0c-.02,0-.05,0-.05-.05,0-.01,0-.05.05-.05.02,0,.06.01.06.06,0,.04-.04.08-.11.08h0Zm.06-.06s.01,0,.01,0c0,0,0-.01,0-.02,0-.04,0-.05-.02-.05-.01,0-.01.01-.01.03,0,.03,0,.05.02.05"/>
      <path class="cls-4" d="m236.91,134.67s.04,0,.05,0c.01,0,.03.02.03.04,0,.03-.03.05-.07.05-.02,0-.03,0-.03-.02,0,0,0-.01.01-.01.02,0,.03.02.05.02,0,0,.02,0,.02-.02,0-.01-.01-.02-.03-.03-.02,0-.04,0-.05,0l.03-.07h.08v.03h-.08v.02Z"/>
      <path class="cls-4" d="m284.79,77.97v-.02h-29.29v.02h0l.02,22.39c0,2.28.97,4.28,2.3,4.89l11.27,7.15c.25.28.62.46,1.03.46.36,0,.68-.14.92-.36l11.44-7.26c1.34-.61,2.3-2.61,2.3-4.89l.02-22.39h0Zm-.83,22.69c-.15,1.69-.73,3.1-1.9,3.9l-11.04,7.02h-.06c-.23.19-.53.3-.85.3s-.63-.12-.86-.31l-11.02-7.01c-1.17-.8-1.75-2.21-1.9-3.9v-21.9h27.64v21.9Z"/>
      <path class="cls-4" d="m274.09,110.59l.36-.17c-.15.05-.26.11-.36.17"/>
      <path class="cls-4" d="m251.99,141.19l-2.76.32-.02-.18c.52-.1.68-.12.65-.36-.02-.19-.35-.69-.5-.9l-1.91.22c-.18.54-.28.85-.27.96.03.27.44.25.73.23l.02.18-1.73.2-.02-.18c.45-.11.54-.37.74-.93l1.44-4.13.24-.03,2.33,3.54c.47.72.64.95,1.04.89l.02.18Zm-2.79-1.39l-1.06-1.64-.6,1.83,1.66-.19Z"/>
      <path class="cls-4" d="m300.51,130.7c-.5-1.31-1.55-2.2-2.86-2.62-1.34-.3-2.77-.08-3.66.93-1.51,1.23-.46,3.26-.42,4.91,0,.34.04.59-.3.76-6.09-.55-11.77-2.07-17.82-2.71-1.39-.24-2.78-.18-4.11-.46l-1.69-.18c-5.25.17-10.51.47-15.43,1.74-1.05.34-2.23.42-3.28.8-.76-.13-1.39.42-2.1.21l-1.38.32c-.13.02-.28.02-.47-.03-.67-1.74,1.35-2.79.72-4.49-.55-.97-1.64-1.91-2.9-1.74-1.43-.17-2.69.64-3.36,1.74-.97,2.12.25,4.32.63,6.39-.08.68.67,1.44,0,1.99-1.34-.93-3.11-1.44-4.75-.97-.5.25-1.43-.08-1.68.51,1.81.97,4.12.85,6.14.76.25-.08.42-.13.63.04.17,1.1-.21,2.58.46,3.56.76,1.02,2.02,1.27,3.24,1.4,3.87-.13,7.31-1.27,10.84-2.16.55-.04.97-.34,1.56-.34,1.89-.42,3.95-.76,5.97-.81-.88,1.14-1.39,2.41-1.77,3.81-.5,1.14.88,1.31,1.3,1.95-1.3.38-2.23,1.27-3.45,1.78-2.69-.08-4.96.93-7.48,1.23-.04.55.88.38.97.93-.13.38-.5.42-.8.63-.04.25,0,.3.25.34.25-.3.8-.09,1.05-.38.84,0,1.56-.25,2.35-.3.72-.3,1.51-.34,2.14-.85.88-.25,1.43-.85,2.31-1.1,1.26,0,2.39-.42,3.57-.51v.25c-.97,1.57-1.97,3.17-2.98,4.66-.17.3.04.59.29.68.59.17,1.18,0,1.64-.25.88-1.52,1.68-2.96,2.4-4.53.29-1.44,1.34-2.2,2.4-3.17.17-.08.42-.34.59-.08-.84.97-1.39,1.91-2.02,2.96-.34,1.18-.42,2.71.63,3.68.5.42,1.26.3,1.93.34,1.64-.85,3.74.51,5-1.1.75-.13.88.76,1.3,1.19.72.21,1.47.93,2.19.42-.04-.47-.55-.89-.8-1.31-.51-.89-1.13-1.61-1.6-2.41-.21-.59-.59-.97-.67-1.57.76.25,1.43.76,2.27.89.71.3,1.6.25,2.27.68.55.72,1.39,1.14,2.1,1.61,1.05.51,2.23.59,3.32,1.02.42.04,1.05.38,1.34,0-.17-.21-.38-.34-.63-.47-.13-.55.76-.25,1.05-.68-.1-.21-.29-.29-.49-.32-.6-.32-2.1-.44-2.5-.65-.5-.08-.97-.3-1.47-.47-2.52,0-3.91-2.29-5.93-3.13.46-.42,1.18-.76,1.47-1.4.38-.59.51-1.57.13-2.24-.38-1.31-2.06-1.14-3.03-1.86l.13-.13c1.64-.08,3.07.3,4.54.59,4.03.55,7.78,2.07,11.98,2.16,2.31,0,5.21.13,6.35-2.12.21-1.31.46-2.62.67-3.94.5-2.12,1.89-4.06,1.68-6.39m-45.4,19.31l-.59-.55c.29-.38.92-.17,1.39-.42,1.09-.34,2.35-.76,3.57-.51-1.26,1.02-2.9,1.14-4.37,1.48m26.24-.68c1,.45,3.03.9,4.48,1.06-.13.58-1.16.04-1.04.84-1.3-.51-2.82-.76-3.78-1.78.08-.04.17-.17.34-.13m-39.44-18c.13-.76.29-1.57,1.01-2.12,1.01-.55,2.4-.42,3.32.13.29.17.5.42.67.8.21.72-.13,1.48-.63,1.91h-.42c0-.68,0-1.36.25-1.91-.04-.51-.46-.55-.8-.76-.72-.21-1.35.13-1.89.42-.42.51-.8,1.14-.54,1.86.29.47.04,1.1.21,1.61l-.13.17c-.5-.55-1.18-1.14-1.05-2.12m1.98,1.21c.63.47,1.51.25,2.27.38.13.47.13,1.06-.21,1.44-.71-.17-1.64-.08-2.02-.76.08-.3-.13-.72-.04-1.06m-.13-1.42c.13-.34,0-.85.46-.93.29-.08.76-.08.8.25-.04.51-.08,1.02-.21,1.48-.59.04-.88-.3-1.05-.8m19.71,13.59c-.21-1.48.38-2.75,1.35-3.81.59-.13,1.26-.25,1.81.08-1.09.3-2.48.55-2.73,1.95.04.55-.13.85.13,1.31.46.8,1.51.47,2.1,1.1,0,.21-.17.47-.38.51-.72-.42-1.6-.59-2.27-1.14m-1.51,2.92c1.01-.42,2.06-1.31,3.19-.93-.8.63-2.1.89-3.19.93m3.99.42c-.59,1.35-1.26,2.67-2.06,3.98-.08.21-.42.25-.67.3,0-.59.59-1.06.84-1.57.88-1.14,1.13-2.37,2.14-3.47.25.25-.25.42-.25.76m1.05-2.46v.17h-.08v-.21h.17s-.13,0-.17.04h.08Zm-.38-1.14c-.72-.08-1.39-.29-2.02-.51-.42-.42,0-.89,0-1.36.59-.93,2.27-1.4,3.07-.55-.13.93-.46,1.74-1.05,2.41m.92,0c.13-.55.38-1.27.67-1.78-.04.55-.29,1.31-.67,1.78m.46-3.43c-.55-.13-.84-.76-1.43-.76.5-.17,1.01-.13,1.6-.04.21.3-.13.55-.17.8m.5,1.27h-.04v-.47h.04v.47Zm.04,1.95c-.04-.17.08-.38.13-.59.21-.21.42.17.5.3-.13.21-.38.34-.63.3m.63-2.62c.21-.59.25-1.1.63-1.57.42,0,.8,0,1.13.17.08.85,1.14,1.99,0,2.71-.38.17-.93.55-1.34.17-.55-.47-.63-.89-.42-1.48m3.07-1.18c-.08-.38.38-.08.55-.25l1.3.08c-.67-.08-1.51,1.48-1.85.17m2.1.55c-.5.17-.88.76-1.39.89.25-.47.88-.93,1.39-.89m-1.77,2.75h-.04v-.13h.04v.13Zm.08,2.46c-.04.08.04.21-.08.3l-.97-.76c.46-.08.8.13,1.05.47m-1.13-1.31c.08-.08.29-.08.38,0h-.38Zm-.59-.64c.17-.25.38-.63.67-.63,0,.04.04.08.08.13-.25.21-.46.42-.76.51m-.97-.08h-.17l.25-.25c.13.08-.04.17-.08.25m.13,1.61c.55-.59,1.05.34,1.26.8.63.93,2.27,1.78,1.64,3.05-.8.72-2.06.04-2.94.59-.46-.04-1.26.08-1.51-.38.46-1.35.88-2.88,1.55-4.06m-1.18.8l.21-.34c-.34,1.02-.84,2.07-1.39,3.05-.25-1.02.8-1.82,1.18-2.71m1.85,5.04c-.8.04-2.02.51-2.78-.17.04-.34-.34-.51-.29-.85.67-.25,1.26.55,1.89-.04.97.04,1.98-.13,2.94.08.46.13,1.18-.76,1.26.13-.33,1.4-2.02.42-3.02.85m2.44-6.22h.08v.13h-.08v-.13Zm.25,2.79c.04.42.46.59.21.97-.08-.17-.34-.55-.21-.97m1.18,2.54l-.21.08c-.21-.17-.13-.64-.08-.89.25.21.46.51.29.8m2.1,1.02c-.04.13-.25.13-.34.04-1.26-1.61-1.85-3.3-2.65-5.08l.17-.04c1.01,1.65,1.81,3.47,2.82,5.08m1.55-3.9c-.08.04-.08.13-.08.17-1.22.04-2.02-.68-2.94-1.31l-.04-.21c1.14.08,2.06.8,3.07,1.35m-1.09-5.63c.51.13.55.68.59,1.1-.04.93-.55,1.74-1.43,2.07-.46.25-1.18.34-1.64.17,1.01-.04,2.1-.42,2.52-1.44l-.04-1.9Zm-.92-.17c.21.59.59,1.14.38,1.86-.42.8-1.26.8-2.02.97-.38.04-.67-.08-.97-.3.04-.17-.04-.3-.17-.42.13-.55-.97-1.1-.21-1.57.67-.63,2.27-2.07,2.98-.55m21.35-3.09c-.34.42-.04,1.1-.46,1.48,0,.76-.63,1.14-1.18,1.44-5,1.1-9.92-.59-14.75-1.44-6.77-1.48-14.67-1.91-21.56-.34-3.24.59-6.39,1.35-9.5,2.24-1.93.25-4.04.55-5.88-.04-1.51-.72-.88-2.67-1.35-4.02.08-1.06-.29-1.9-.33-2.92-.13-.34-.21-.76-.17-1.1.63.09,1.26.55,1.93.72,3.53.68,6.68-.47,9.96-1.06,3.15-.68,6.39-1.23,9.71-1.48,3.78-.04,7.65-.25,11.26.38,1.18.04,2.19.34,3.32.42,2.36.3,4.54.93,6.94,1.1.38.13.84.13,1.26.21,3.78.59,8.03,1.65,11.64,0,0,1.52-.63,2.92-.84,4.4m-1.18-5.16c.04.68-.59.51-.93.76h-1.01c-.21-.34-.13-.85-.13-1.19.67.13,1.43.13,2.06.42m-.46-1.06c.46-.47-.13-3.13,1.18-1.4,0,.34.04.85-.29,1.1-.21.17-.55.51-.88.3m3.4-.42c-.38.76-.97,1.31-1.81,1.44.04-1.02.97-1.74.63-2.88-.55-.81-1.64-1.06-2.65-.85-.38.25-.21.68-.34,1.06l-.17,1.4c-.84,0-.88-.76-1.13-1.35.04-.89.42-1.78,1.3-2.2.67-.34,1.77-.3,2.44.08.55.13,1.18.38,1.39.89.63.59.46,1.65.34,2.41"/>
    </g>
  </g>
  <g>
    <path class="cls-4" d="m1113.19,170.84v-19.85h6.95c2.41,0,4.24.46,5.48,1.38s1.87,2.27,1.87,4.06c0,.97-.25,1.83-.75,2.57s-1.2,1.28-2.09,1.63c1.02.25,1.82.77,2.4,1.54.59.77.88,1.72.88,2.84,0,1.91-.61,3.35-1.83,4.34s-2.95,1.48-5.21,1.5h-7.72Zm4.09-11.53h3.03c2.06-.04,3.09-.86,3.09-2.47,0-.9-.26-1.55-.79-1.94s-1.35-.59-2.47-.59h-2.86v5Zm0,2.89v5.36h3.5c.96,0,1.71-.23,2.26-.69.54-.46.81-1.09.81-1.9,0-1.82-.94-2.74-2.82-2.77h-3.75Z"/>
    <path class="cls-4" d="m1142.95,162.24h-7.85v5.32h9.22v3.29h-13.31v-19.85h13.28v3.31h-9.19v4.73h7.85v3.2Z"/>
    <path class="cls-4" d="m1161.93,154.3h-6.08v16.54h-4.09v-16.54h-6v-3.31h16.17v3.31Z"/>
    <path class="cls-4" d="m1173.83,166.75h-7.17l-1.36,4.09h-4.35l7.39-19.85h3.79l7.43,19.85h-4.35l-1.38-4.09Zm-6.07-3.31h4.96l-2.49-7.43-2.47,7.43Z"/>
  </g>
  <path class="cls-4" d="m615.8,114.3h-9.06l.06-6.08h9c2.25,0,4.14-.46,5.69-1.38,1.54-.94,2.71-2.29,3.49-4.08.8-1.78,1.2-3.94,1.2-6.47v-1.84c0-1.94-.23-3.65-.69-5.12-.44-1.47-1.1-2.71-1.97-3.71-.88-1-1.95-1.76-3.23-2.26-1.28-.52-2.74-.78-4.4-.78h-9.32v-6.1h9.32c2.78,0,5.33.43,7.63,1.3,2.32.85,4.34,2.07,6.03,3.66,1.7,1.59,3,3.5,3.92,5.71.93,2.2,1.4,4.65,1.4,7.35v1.79c0,2.68-.47,5.13-1.4,7.35-.91,2.22-2.22,4.12-3.92,5.71-1.68,1.58-3.69,2.8-6.03,3.66-2.33.85-4.9,1.27-7.72,1.27Z"/>
  <rect class="cls-4" x="603.02" y="76.48" width="8.58" height="37.82"/>
  <rect class="cls-4" x="650.45" y="76.48" width="8.55" height="37.82"/>
  <path class="cls-4" d="m708.8,94.54v14.99c-.65.71-1.65,1.48-3,2.31-1.35.81-3.1,1.52-5.23,2.1-2.13.59-4.72.88-7.75.88-2.69,0-5.14-.4-7.35-1.2-2.21-.81-4.12-2-5.72-3.56-1.58-1.56-2.8-3.46-3.66-5.71-.86-2.27-1.29-4.86-1.29-7.77v-2.36c0-2.91.41-5.5,1.23-7.77.84-2.27,2.03-4.18,3.57-5.74,1.54-1.56,3.38-2.74,5.52-3.56,2.13-.81,4.51-1.22,7.12-1.22,3.62,0,6.59.54,8.92,1.61,2.32,1.06,4.1,2.53,5.32,4.42,1.24,1.87,2,4.02,2.29,6.44h-8.32c-.21-1.28-.61-2.4-1.2-3.35-.59-.95-1.44-1.7-2.54-2.23-1.09-.54-2.5-.81-4.23-.81-1.43,0-2.71.27-3.83.81-1.11.52-2.04,1.29-2.8,2.31-.76,1.02-1.34,2.29-1.74,3.79-.4,1.51-.6,3.26-.6,5.25v2.42c0,1.97.21,3.72.63,5.25.42,1.51,1.04,2.78,1.86,3.82.84,1.02,1.87,1.79,3.09,2.31,1.22.52,2.64.78,4.26.78,1.35,0,2.48-.1,3.37-.31.91-.21,1.65-.46,2.2-.75.57-.31,1.01-.61,1.32-.88v-6.7h-7.83v-5.56h16.41Z"/>
  <rect class="cls-4" x="725.07" y="76.48" width="8.55" height="37.82"/>
  <rect class="cls-4" x="759.64" y="76.48" width="8.55" height="37.82"/>
  <rect class="cls-4" x="747.03" y="76.48" width="33.96" height="6.1"/>
  <polygon class="cls-4" points="808.49 82.95 797.17 114.3 788.06 114.3 803.52 76.48 809.32 76.48 808.49 82.95"/>
  <polygon class="cls-4" points="817.9 114.3 806.55 82.95 805.64 76.48 811.5 76.48 827.05 114.3 817.9 114.3"/>
  <rect class="cls-4" x="795.4" y="100.22" width="21.98" height="6.1"/>
  <rect class="cls-4" x="845.49" y="108.23" width="20.95" height="6.08"/>
  <rect class="cls-4" x="839.69" y="76.48" width="8.57" height="37.82"/>
  <polygon class="cls-4" points="920.42 82.95 909.1 114.3 899.99 114.3 915.45 76.48 921.25 76.48 920.42 82.95"/>
  <polygon class="cls-4" points="929.83 114.3 918.48 82.95 917.57 76.48 923.42 76.48 938.98 114.3 929.83 114.3"/>
  <rect class="cls-4" x="907.33" y="100.22" width="21.98" height="6.1"/>
  <rect class="cls-4" x="958.13" y="76.48" width="8.55" height="37.82"/>
  <rect class="cls-4" x="945.53" y="76.48" width="33.96" height="6.1"/>
  <rect class="cls-4" x="998.96" y="108.23" width="20.95" height="6.08"/>
  <rect class="cls-4" x="993.16" y="76.48" width="8.57" height="37.82"/>
  <polygon class="cls-4" points="1051.1 82.95 1039.78 114.3 1030.67 114.3 1046.13 76.48 1051.94 76.48 1051.1 82.95"/>
  <polygon class="cls-4" points="1060.51 114.3 1049.16 82.95 1048.25 76.48 1054.11 76.48 1069.66 114.3 1060.51 114.3"/>
  <rect class="cls-4" x="1038.01" y="100.22" width="21.98" height="6.1"/>
  <path class="cls-4" d="m1103.96,104.41c0-.68-.11-1.28-.34-1.82-.21-.55-.61-1.06-1.2-1.51-.59-.47-1.42-.93-2.49-1.38-1.07-.45-2.45-.92-4.14-1.4-1.89-.55-3.68-1.18-5.38-1.87-1.68-.69-3.16-1.5-4.46-2.42-1.28-.94-2.29-2.02-3.03-3.25-.72-1.23-1.09-2.66-1.09-4.29s.38-3,1.14-4.29c.76-1.3,1.83-2.41,3.2-3.33,1.37-.94,2.99-1.65,4.86-2.16,1.89-.5,3.95-.75,6.2-.75,3.07,0,5.75.5,8.03,1.51,2.29,1,4.06,2.38,5.32,4.13,1.28,1.75,1.91,3.75,1.91,6h-8.52c0-1.11-.26-2.08-.77-2.91-.5-.85-1.26-1.52-2.29-2-1.01-.48-2.29-.73-3.83-.73s-2.72.21-3.72.62c-.99.4-1.73.94-2.23,1.64-.49.68-.74,1.44-.74,2.29,0,.64.17,1.22.52,1.74.36.52.9,1,1.6,1.45.71.45,1.57.87,2.6,1.27,1.03.4,2.22.79,3.57,1.17,2.27.62,4.26,1.32,5.97,2.1,1.73.78,3.18,1.65,4.35,2.62,1.16.97,2.04,2.07,2.63,3.3.59,1.23.89,2.62.89,4.18,0,1.65-.35,3.12-1.06,4.42-.71,1.3-1.72,2.4-3.06,3.3-1.33.9-2.93,1.58-4.77,2.05-1.85.47-3.92.7-6.2.7-2.06,0-4.09-.24-6.09-.73-2-.5-3.82-1.26-5.46-2.26-1.62-1-2.92-2.29-3.89-3.84-.97-1.56-1.46-3.4-1.46-5.53h8.6c0,1.18.2,2.17.6,2.99.4.81.96,1.47,1.69,1.97.74.5,1.62.87,2.63,1.09,1.03.23,2.15.34,3.37.34,1.49,0,2.71-.19,3.66-.57.97-.38,1.69-.91,2.14-1.58.47-.68.71-1.44.71-2.29Z"/>
  <path class="cls-4" d="m692.28,148.19v2.88c0,1.88-.27,3.59-.81,5.12-.53,1.51-1.3,2.81-2.32,3.9-1,1.08-2.21,1.91-3.62,2.49-1.41.58-2.99.87-4.76.87s-3.29-.29-4.72-.87c-1.41-.58-2.62-1.41-3.64-2.49-1.02-1.08-1.8-2.38-2.36-3.9-.56-1.53-.83-3.23-.83-5.12v-2.88c0-1.88.27-3.58.81-5.1.56-1.53,1.34-2.83,2.36-3.92,1.02-1.08,2.23-1.91,3.64-2.49,1.41-.58,2.97-.87,4.7-.87s3.35.29,4.76.87c1.41.58,2.62,1.41,3.64,2.49,1.02,1.08,1.8,2.39,2.34,3.92.54,1.51.81,3.21.81,5.1Zm-2.48,2.88v-2.92c0-1.59-.2-3.02-.61-4.29-.39-1.27-.98-2.35-1.77-3.25-.77-.9-1.72-1.59-2.85-2.07-1.12-.48-2.41-.72-3.84-.72s-2.65.24-3.76.72c-1.11.48-2.06,1.17-2.85,2.07-.77.9-1.37,1.98-1.79,3.25-.41,1.27-.61,2.7-.61,4.29v2.92c0,1.6.2,3.04.61,4.32.42,1.27,1.02,2.36,1.81,3.27.79.9,1.73,1.59,2.85,2.07,1.12.48,2.39.72,3.78.72s2.73-.24,3.84-.72c1.11-.48,2.05-1.17,2.83-2.07.77-.91,1.36-2,1.75-3.27.41-1.28.61-2.72.61-4.32Zm20.67-14.89v26.9h-2.5v-26.9h2.5Zm13.78,12.38v1.96h-14.62v-1.96h14.62Zm2.05-12.38v1.96h-16.67v-1.96h16.67Zm43.7,1.61l-10.25,25.29h-2.6l11.18-26.9h1.81l-.14,1.61Zm9.31,25.29l-10.27-25.29-.14-1.61h1.81l11.2,26.9h-2.6Zm-1.83-9.49v1.96h-15.71v-1.96h15.71Zm35.69-17.4h2.5v18.21c0,2.02-.47,3.7-1.4,5.04-.94,1.34-2.2,2.35-3.78,3.01-1.57.66-3.31,1-5.22,1s-3.73-.33-5.3-1c-1.57-.67-2.82-1.67-3.74-3.01-.91-1.34-1.36-3.02-1.36-5.04v-18.21h2.48v18.21c0,1.56.34,2.88,1.02,3.93.68,1.06,1.61,1.85,2.81,2.38,1.19.53,2.56.79,4.11.79s2.89-.26,4.09-.79c1.19-.53,2.13-1.32,2.81-2.38.68-1.06,1.02-2.37,1.02-3.93v-18.21Zm35.65,20.28c0-.74-.14-1.4-.41-1.98-.27-.58-.72-1.1-1.34-1.55-.61-.47-1.44-.9-2.48-1.29-1.03-.41-2.32-.81-3.86-1.2-1.48-.38-2.81-.8-4-1.26-1.19-.46-2.21-.98-3.07-1.57-.84-.59-1.48-1.28-1.93-2.07-.45-.8-.67-1.73-.67-2.79s.24-1.98.73-2.83c.49-.85,1.17-1.58,2.05-2.2.9-.62,1.95-1.09,3.15-1.42,1.22-.33,2.56-.5,4-.5,2.07,0,3.86.36,5.37,1.07,1.52.71,2.69,1.68,3.52,2.9.84,1.21,1.26,2.56,1.26,4.06h-2.5c0-1.17-.3-2.21-.91-3.12-.6-.92-1.46-1.64-2.6-2.16-1.12-.53-2.5-.79-4.13-.79s-3,.23-4.11.68c-1.1.44-1.93,1.04-2.5,1.79-.56.74-.83,1.56-.83,2.48,0,.64.14,1.23.4,1.77.27.53.71,1.03,1.32,1.5.62.46,1.44.89,2.46,1.29,1.02.39,2.27.77,3.76,1.13,1.57.39,2.97.83,4.19,1.31,1.22.48,2.25,1.03,3.09,1.66.84.62,1.48,1.34,1.91,2.16.43.83.65,1.79.65,2.88s-.26,2.08-.77,2.96c-.5.86-1.21,1.59-2.13,2.2-.91.6-1.99,1.07-3.23,1.39-1.23.32-2.58.48-4.05.48-1.32,0-2.62-.15-3.92-.46-1.3-.31-2.49-.78-3.58-1.42-1.07-.65-1.93-1.49-2.58-2.51-.64-1.02-.96-2.24-.96-3.66h2.48c0,1.13.25,2.09.75,2.86.5.78,1.16,1.4,1.99,1.88.84.48,1.76.83,2.76,1.05,1.02.21,2.03.31,3.05.31,1.56,0,2.91-.21,4.05-.63,1.15-.42,2.04-1,2.66-1.75.64-.76.96-1.65.96-2.66Zm27.21-20.28v26.9h-2.48v-26.9h2.48Zm10.14,0v1.96h-22.75v-1.96h22.75Zm14.12,0h9.61c2.05,0,3.82.3,5.33.91,1.51.6,2.66,1.5,3.48,2.68.83,1.17,1.24,2.61,1.24,4.32,0,1.27-.3,2.42-.89,3.45-.58,1.03-1.39,1.9-2.42,2.6-1.03.69-2.22,1.16-3.58,1.42l-.87.3h-10.27l-.04-1.94h8.6c1.54,0,2.83-.27,3.86-.81s1.8-1.26,2.32-2.14c.53-.9.79-1.86.79-2.88,0-1.22-.29-2.27-.87-3.16-.57-.9-1.42-1.59-2.54-2.07-1.12-.48-2.5-.72-4.12-.72h-7.11v24.94h-2.5v-26.9Zm18.27,26.9l-7.66-12.03,2.68-.02,7.64,11.8v.24h-2.66Zm27.34-25.29l-10.25,25.29h-2.6l11.18-26.9h1.81l-.14,1.61Zm9.31,25.29l-10.27-25.29-.14-1.61h1.81l11.2,26.9h-2.6Zm-1.83-9.49v1.96h-15.71v-1.96h15.71Zm35.31,7.56v1.94h-15.35v-1.94h15.35Zm-14.62-24.96v26.9h-2.5v-26.9h2.5Zm31.87,0v26.9h-2.5v-26.9h2.5Zm27.5,1.61l-10.24,25.29h-2.6l11.18-26.9h1.81l-.14,1.61Zm9.31,25.29l-10.26-25.29-.14-1.61h1.81l11.2,26.9h-2.6Zm-1.83-9.49v1.96h-15.71v-1.96h15.71Z"/>
  <path class="cls-4" d="m1194.86,183.56h-98.75c-11.83,0-21.45-9.62-21.45-21.45v-1.4c0-11.83,9.62-21.45,21.45-21.45h98.75c11.83,0,21.45,9.62,21.45,21.45v1.4c0,11.83-9.62,21.45-21.45,21.45Zm-98.75-42.81c-11,0-19.95,8.95-19.95,19.95v1.4c0,11,8.95,19.95,19.95,19.95h98.75c11,0,19.95-8.95,19.95-19.95v-1.4c0-11-8.95-19.95-19.95-19.95h-98.75Z"/>
  <line class="cls-2" x1="539.33" y1="37.82" x2="539.33" y2="200.99"/>
</svg>