<?xml version="1.0" encoding="UTF-8"?>
<svg id="Layer_1" data-name="Layer 1" xmlns="http://www.w3.org/2000/svg" xmlns:xlink="http://www.w3.org/1999/xlink" viewBox="0 0 1414.48 287.33">
  <defs>
    <style>
      .cls-1, .cls-2 {
        fill: none;
      }

      .cls-3 {
        clip-path: url(#clippath);
      }

      .cls-4, .cls-5 {
        fill: #fff;
      }

      .cls-6 {
        clip-path: url(#clippath-1);
      }

      .cls-2 {
        stroke: #fff;
        stroke-miterlimit: 10;
        stroke-width: 2px;
      }

      .cls-5 {
        fill-rule: evenodd;
      }
    </style>
    <clipPath id="clippath">
      <rect class="cls-1" x="70.32" y="71.31" width="450.9" height="144.7"/>
    </clipPath>
    <clipPath id="clippath-1">
      <rect class="cls-1" x="70.32" y="71.31" width="450.9" height="144.7"/>
    </clipPath>
  </defs>
  <line class="cls-2" x1="592.69" y1="46.09" x2="592.69" y2="241.05"/>
  <g class="cls-3">
    <g class="cls-6">
      <path class="cls-5" d="m82.82,209.76h-7.16l-.85,1.97c-.28.66-.42,1.2-.42,1.63,0,.57.23.99.69,1.26.27.16.93.28,1.99.36v.55h-6.74v-.55c.73-.11,1.33-.41,1.79-.9.47-.5,1.05-1.52,1.74-3.06l7.25-16.18h.28l7.31,16.63c.7,1.58,1.27,2.57,1.72,2.98.34.31.82.49,1.43.54v.55h-9.81v-.55h.4c.79,0,1.34-.11,1.66-.33.22-.16.33-.39.33-.69,0-.18-.03-.36-.09-.55-.02-.09-.17-.46-.45-1.12l-1.08-2.53Zm-.51-1.11l-3.02-6.98-3.11,6.98h6.13Z"/>
      <path class="cls-4" d="m98.33,201.55v1.81c.72-.78,1.41-1.34,2.06-1.69.66-.36,1.37-.54,2.12-.54.91,0,1.66.25,2.26.76.6.5,1,1.12,1.2,1.87.16.57.24,1.66.24,3.27v5.44c0,1.08.1,1.75.28,2.02.2.26.61.42,1.23.49v.54h-7.07v-.54c.53-.07.91-.29,1.14-.66.16-.25.24-.87.24-1.85v-6.22c0-1.15-.05-1.87-.13-2.17-.09-.3-.24-.53-.46-.69-.21-.17-.44-.25-.7-.26-.86,0-1.66.61-2.39,1.84v7.49c0,1.05.09,1.71.28,1.99.2.28.56.45,1.09.52v.54h-7.07v-.54c.59-.06,1.01-.25,1.26-.57.17-.22.25-.87.25-1.94v-7.89c0-1.06-.1-1.71-.3-1.97-.19-.26-.59-.43-1.21-.51v-.55h5.7Z"/>
      <path class="cls-5" d="m127.48,209.76h-7.16l-.85,1.97c-.28.66-.42,1.2-.42,1.63,0,.57.23.99.69,1.26.27.16.93.28,1.99.36v.55h-6.74v-.55c.73-.11,1.33-.41,1.79-.9.47-.5,1.05-1.52,1.73-3.06l7.25-16.18h.28l7.31,16.63c.7,1.58,1.27,2.57,1.72,2.98.34.31.82.49,1.43.54v.55h-9.81v-.55h.4c.79,0,1.34-.11,1.66-.33.22-.16.33-.39.33-.69,0-.18-.03-.36-.09-.55-.02-.09-.17-.46-.45-1.12l-1.08-2.53Zm-.51-1.11l-3.02-6.98-3.11,6.98h6.13Z"/>
      <path class="cls-4" d="m148.94,201.55v10.94c0,1.07.1,1.73.3,2,.2.26.6.42,1.21.49v.54h-5.7v-1.87c-.67.8-1.34,1.38-2,1.75-.67.36-1.42.54-2.24.54s-1.49-.24-2.11-.72c-.61-.49-1.02-1.06-1.23-1.7-.21-.65-.31-1.78-.31-3.4v-5.55c0-1.06-.1-1.71-.3-1.97-.19-.26-.59-.43-1.21-.51v-.55h5.7v9.55c0,1,.04,1.64.13,1.93.1.29.25.51.45.66.21.15.45.23.72.23.36,0,.68-.1.97-.28.4-.26.88-.78,1.44-1.57v-7.48c0-1.06-.1-1.71-.3-1.97-.19-.26-.59-.43-1.21-.51v-.55h5.7Z"/>
      <path class="cls-4" d="m160.23,201.16l.22,4.77h-.51c-.61-1.42-1.24-2.38-1.9-2.9-.65-.52-1.3-.78-1.94-.78-.41,0-.76.14-1.05.42-.29.27-.43.58-.43.94,0,.27.1.53.3.78.32.41,1.21,1.11,2.68,2.11,1.47.99,2.43,1.83,2.89,2.53.47.69.7,1.46.7,2.32,0,.78-.19,1.54-.58,2.29-.39.75-.94,1.32-1.64,1.72s-1.49.6-2.35.6c-.67,0-1.56-.21-2.68-.63-.3-.11-.5-.16-.61-.16-.33,0-.6.25-.82.75h-.49l-.24-5.02h.51c.45,1.32,1.06,2.3,1.84,2.96.79.66,1.53.99,2.23.99.48,0,.87-.14,1.17-.43.31-.3.46-.66.46-1.08,0-.48-.15-.89-.45-1.24-.3-.35-.97-.88-2-1.58-1.52-1.06-2.51-1.86-2.96-2.42-.66-.82-.99-1.72-.99-2.71,0-1.08.37-2.05,1.11-2.91.75-.88,1.82-1.32,3.23-1.32.76,0,1.49.18,2.2.55.27.15.49.23.66.23s.32-.03.43-.11c.11-.08.28-.29.52-.64h.51Z"/>
      <path class="cls-4" d="m167.64,196.44v5.11h3.32v1.48h-3.32v8.63c0,.81.03,1.33.1,1.57.08.23.21.42.4.57.19.14.36.21.52.21.65,0,1.26-.49,1.84-1.48l.45.33c-.81,1.91-2.12,2.87-3.93,2.87-.89,0-1.64-.24-2.26-.73-.61-.5-1-1.05-1.17-1.66-.1-.34-.15-1.26-.15-2.75v-7.55h-1.82v-.52c1.26-.89,2.32-1.82,3.2-2.8.89-.98,1.66-2.07,2.32-3.27h.49Z"/>
      <path class="cls-4" d="m177.78,201.55v3.17c.93-1.45,1.74-2.4,2.44-2.87.7-.48,1.37-.72,2.02-.72.56,0,1,.18,1.33.52.34.34.51.82.51,1.45,0,.67-.16,1.19-.49,1.55-.32.37-.71.55-1.17.55-.53,0-.99-.17-1.38-.51-.39-.34-.62-.53-.69-.57-.1-.06-.21-.09-.34-.09-.29,0-.56.11-.82.33-.41.34-.72.82-.93,1.45-.32.97-.48,2.03-.48,3.2v3.22l.02.84c0,.57.03.93.1,1.09.12.27.29.47.52.6.24.12.64.19,1.2.23v.54h-7.55v-.54c.61-.05,1.02-.21,1.23-.49.22-.29.33-1.04.33-2.26v-7.73c0-.8-.04-1.3-.12-1.52-.1-.28-.24-.48-.43-.61-.19-.13-.52-.22-1-.27v-.55h5.71Z"/>
      <path class="cls-5" d="m191.76,213.47c-1.71,1.51-3.24,2.26-4.59,2.26-.8,0-1.46-.26-1.99-.78-.53-.53-.79-1.19-.79-1.97,0-1.07.46-2.02,1.38-2.87.92-.86,2.91-1.99,6-3.41v-1.41c0-1.06-.06-1.72-.18-1.99-.11-.28-.32-.52-.64-.72-.32-.21-.68-.31-1.08-.31-.65,0-1.18.14-1.6.43-.26.18-.39.39-.39.63,0,.21.14.47.42.78.38.43.57.84.57,1.24,0,.49-.18.91-.55,1.26-.36.34-.83.51-1.42.51-.63,0-1.16-.19-1.58-.57-.42-.38-.63-.82-.63-1.33,0-.72.28-1.4.85-2.05.57-.66,1.36-1.16,2.38-1.51,1.02-.35,2.07-.52,3.17-.52,1.33,0,2.37.28,3.14.85.78.56,1.28,1.17,1.51,1.82.14.42.21,1.38.21,2.89v5.43c0,.64.03,1.04.08,1.21.05.16.12.28.22.36.1.08.21.12.34.12.26,0,.52-.18.79-.55l.45.36c-.5.74-1.02,1.28-1.56,1.61-.53.33-1.13.49-1.81.49-.8,0-1.42-.18-1.87-.55-.45-.38-.72-.95-.82-1.71m0-1.09v-4.68c-1.21.71-2.1,1.46-2.69,2.27-.39.54-.58,1.08-.58,1.63,0,.46.16.86.49,1.21.25.27.6.4,1.05.4.5,0,1.08-.28,1.73-.84"/>
      <path class="cls-4" d="m203.9,195.26v17.37c0,.99.11,1.62.34,1.9.23.27.68.42,1.35.46v.54h-7.55v-.54c.62-.02,1.08-.2,1.38-.54.2-.23.3-.84.3-1.82v-14.47c0-.98-.12-1.6-.34-1.87-.23-.28-.67-.44-1.33-.48v-.55h5.86Z"/>
      <path class="cls-5" d="m210.3,194.78c.65,0,1.2.23,1.65.69.45.45.67.99.67,1.63s-.23,1.18-.69,1.63c-.45.45-.99.67-1.63.67s-1.18-.22-1.63-.67c-.45-.45-.67-.99-.67-1.63s.23-1.18.67-1.63c.45-.46.99-.69,1.63-.69m2.09,6.77v11.08c0,.99.11,1.62.34,1.9.23.27.68.42,1.35.46v.54h-7.55v-.54c.62-.02,1.08-.2,1.38-.54.2-.23.3-.84.3-1.82v-8.16c0-.99-.12-1.61-.34-1.88-.23-.28-.67-.44-1.33-.48v-.55h5.86Z"/>
      <path class="cls-5" d="m222.24,213.47c-1.71,1.51-3.24,2.26-4.59,2.26-.8,0-1.46-.26-1.99-.78-.53-.53-.79-1.19-.79-1.97,0-1.07.46-2.02,1.38-2.87.92-.86,2.91-1.99,6-3.41v-1.41c0-1.06-.06-1.72-.18-1.99-.11-.28-.32-.52-.64-.72-.32-.21-.68-.31-1.08-.31-.65,0-1.18.14-1.6.43-.26.18-.39.39-.39.63,0,.21.14.47.42.78.38.43.57.84.57,1.24,0,.49-.18.91-.55,1.26-.36.34-.83.51-1.42.51-.63,0-1.16-.19-1.59-.57-.42-.38-.63-.82-.63-1.33,0-.72.28-1.4.85-2.05.57-.66,1.36-1.16,2.38-1.51,1.02-.35,2.07-.52,3.17-.52,1.33,0,2.37.28,3.14.85.78.56,1.28,1.17,1.51,1.82.14.42.21,1.38.21,2.89v5.43c0,.64.03,1.04.08,1.21.05.16.12.28.22.36.1.08.21.12.34.12.26,0,.52-.18.79-.55l.45.36c-.5.74-1.02,1.28-1.56,1.61-.53.33-1.13.49-1.81.49-.8,0-1.42-.18-1.87-.55-.45-.38-.72-.95-.82-1.71m0-1.09v-4.68c-1.21.71-2.1,1.46-2.69,2.27-.39.54-.58,1.08-.58,1.63,0,.46.16.86.49,1.21.25.27.6.4,1.05.4.5,0,1.08-.28,1.73-.84"/>
      <path class="cls-4" d="m234.33,201.55v1.81c.72-.78,1.41-1.34,2.06-1.69.66-.36,1.37-.54,2.12-.54.91,0,1.66.25,2.26.76.6.5,1,1.12,1.2,1.87.16.57.24,1.66.24,3.27v5.44c0,1.08.09,1.75.28,2.02.2.26.61.42,1.23.49v.54h-7.07v-.54c.53-.07.91-.29,1.14-.66.16-.25.24-.87.24-1.85v-6.22c0-1.15-.05-1.87-.13-2.17-.09-.3-.24-.53-.46-.69-.21-.17-.44-.25-.7-.26-.86,0-1.66.61-2.39,1.84v7.49c0,1.05.09,1.71.28,1.99.2.28.56.45,1.09.52v.54h-7.07v-.54c.59-.06,1.01-.25,1.26-.57.17-.22.25-.87.26-1.94v-7.89c0-1.06-.1-1.71-.3-1.97-.19-.26-.59-.43-1.21-.51v-.55h5.7Z"/>
      <path class="cls-4" d="m271.25,194.79v7.15h-.55c-.67-1.95-1.67-3.44-3.01-4.46-1.34-1.02-2.8-1.53-4.38-1.53s-2.78.43-3.78,1.29c-1.01.85-1.72,2.03-2.14,3.56-.42,1.53-.63,3.09-.63,4.7,0,1.94.23,3.65.69,5.11.46,1.47,1.2,2.54,2.21,3.23,1.03.69,2.24,1.03,3.65,1.03.49,0,.99-.05,1.5-.15.52-.11,1.05-.26,1.59-.46v-4.22c0-.8-.06-1.31-.16-1.54-.11-.24-.34-.45-.69-.64-.34-.19-.75-.28-1.24-.28h-.52v-.55h9.85v.55c-.75.05-1.27.16-1.57.31-.29.15-.51.4-.67.76-.09.19-.13.65-.13,1.39v4.22c-1.3.58-2.65,1.01-4.05,1.3-1.4.3-2.85.45-4.35.45-1.92,0-3.52-.26-4.8-.78-1.27-.53-2.39-1.22-3.36-2.06-.97-.86-1.72-1.82-2.27-2.88-.7-1.38-1.05-2.92-1.05-4.62,0-3.05,1.07-5.63,3.21-7.73,2.14-2.1,4.84-3.15,8.09-3.15,1.01,0,1.91.08,2.72.24.44.08,1.15.31,2.12.69.99.37,1.57.55,1.75.55.28,0,.54-.1.78-.3.24-.21.46-.6.66-1.17h.55Z"/>
      <path class="cls-5" d="m280.96,201.13c1.22,0,2.35.31,3.4.94,1.05.63,1.84,1.52,2.38,2.68.55,1.16.82,2.42.82,3.8,0,1.98-.5,3.64-1.51,4.98-1.22,1.61-2.9,2.42-5.04,2.42s-3.72-.74-4.86-2.21c-1.14-1.48-1.71-3.19-1.71-5.13s.58-3.75,1.73-5.23c1.17-1.5,2.76-2.24,4.78-2.24m.06,1.06c-.51,0-.95.19-1.32.58-.36.38-.6,1.14-.72,2.27-.11,1.13-.16,2.7-.16,4.71,0,1.07.07,2.06.21,2.99.11.71.34,1.25.7,1.61.36.37.77.55,1.23.55s.82-.12,1.12-.37c.39-.34.65-.81.78-1.42.2-.95.3-2.86.3-5.74,0-1.69-.09-2.86-.28-3.48-.19-.64-.47-1.1-.84-1.39-.26-.21-.6-.31-1.02-.31"/>
      <path class="cls-4" d="m294.15,215.95l-4.71-10.84c-.57-1.3-1.01-2.13-1.33-2.48-.23-.26-.57-.43-1.02-.52v-.55h7.43v.55c-.47,0-.79.09-.96.26-.24.22-.36.48-.36.78,0,.37.22,1.06.66,2.08l2.3,5.25,1.84-4.53c.53-1.3.79-2.21.79-2.75,0-.31-.11-.56-.34-.75-.22-.2-.61-.31-1.18-.33v-.55h4.58v.55c-.44.06-.8.23-1.08.49-.28.27-.7,1.06-1.26,2.38l-4.66,10.98h-.7Z"/>
      <path class="cls-5" d="m312.85,208.04h-7.67c.09,1.85.58,3.32,1.48,4.39.69.83,1.51,1.24,2.48,1.24.6,0,1.14-.16,1.63-.49.49-.34,1.01-.94,1.57-1.81l.51.33c-.76,1.55-1.59,2.64-2.51,3.29-.92.64-1.98.96-3.18.96-2.07,0-3.64-.8-4.71-2.39-.86-1.29-1.29-2.88-1.29-4.78,0-2.33.63-4.19,1.88-5.56,1.27-1.38,2.75-2.08,4.44-2.08,1.42,0,2.64.58,3.68,1.75,1.05,1.16,1.61,2.88,1.69,5.16m-3.68-1c0-1.6-.09-2.71-.27-3.3-.17-.6-.44-1.05-.81-1.36-.21-.18-.49-.27-.84-.27-.52,0-.94.25-1.27.76-.59.89-.88,2.1-.88,3.65v.52h4.07Z"/>
      <path class="cls-4" d="m319.48,201.55v3.17c.93-1.45,1.74-2.4,2.44-2.87.7-.48,1.37-.72,2.02-.72.56,0,1,.18,1.33.52.34.34.51.82.51,1.45,0,.67-.16,1.19-.49,1.55-.32.37-.71.55-1.17.55-.53,0-.99-.17-1.38-.51-.39-.34-.62-.53-.69-.57-.1-.06-.21-.09-.34-.09-.29,0-.56.11-.82.33-.41.34-.72.82-.93,1.45-.32.97-.48,2.03-.48,3.2v3.22l.02.84c0,.57.03.93.1,1.09.12.27.29.47.52.6.24.12.64.19,1.2.23v.54h-7.55v-.54c.61-.05,1.02-.21,1.23-.49.22-.29.33-1.04.33-2.26v-7.73c0-.8-.04-1.3-.12-1.52-.1-.28-.24-.48-.43-.61-.19-.13-.52-.22-1-.27v-.55h5.71Z"/>
      <path class="cls-4" d="m332.37,201.55v1.81c.72-.78,1.4-1.34,2.06-1.69.66-.36,1.37-.54,2.12-.54.91,0,1.66.25,2.26.76.6.5,1,1.12,1.2,1.87.16.57.24,1.66.24,3.27v5.44c0,1.08.1,1.75.28,2.02.2.26.61.42,1.23.49v.54h-7.07v-.54c.53-.07.91-.29,1.14-.66.16-.25.24-.87.24-1.85v-6.22c0-1.15-.05-1.87-.13-2.17-.09-.3-.24-.53-.46-.69-.21-.17-.44-.25-.7-.26-.86,0-1.66.61-2.39,1.84v7.49c0,1.05.09,1.71.28,1.99.2.28.56.45,1.09.52v.54h-7.07v-.54c.59-.06,1.01-.25,1.26-.57.17-.22.25-.87.26-1.94v-7.89c0-1.06-.1-1.71-.3-1.97-.19-.26-.59-.43-1.21-.51v-.55h5.7Z"/>
      <path class="cls-4" d="m348.57,201.55v1.84c.77-.84,1.48-1.42,2.12-1.75.66-.34,1.38-.51,2.15-.51.9,0,1.65.21,2.26.63.61.42,1.08,1.06,1.41,1.91.8-.9,1.56-1.55,2.29-1.94.74-.4,1.51-.6,2.3-.6.97,0,1.73.22,2.3.67.58.44.98,1,1.2,1.69.23.68.34,1.76.34,3.26v5.73c0,1.08.1,1.74.28,2,.2.26.61.43,1.23.51v.54h-7.22v-.54c.57-.05.99-.27,1.26-.66.18-.27.27-.89.27-1.85v-6.01c0-1.25-.05-2.04-.15-2.38-.1-.34-.26-.59-.48-.75-.21-.17-.46-.25-.75-.25-.43,0-.86.16-1.3.48-.44.31-.88.78-1.33,1.41v7.51c0,1.01.08,1.64.25,1.9.23.37.67.57,1.32.61v.54h-7.24v-.54c.39-.02.69-.11.91-.28.23-.18.38-.39.45-.63.08-.25.12-.78.12-1.6v-6.01c0-1.27-.05-2.06-.15-2.38-.1-.32-.27-.57-.51-.75-.23-.18-.48-.27-.75-.27-.4,0-.76.1-1.09.31-.47.31-.97.84-1.5,1.58v7.51c0,.99.09,1.64.28,1.96.2.31.61.49,1.23.55v.54h-7.21v-.54c.59-.06,1.01-.25,1.26-.57.17-.22.25-.87.26-1.94v-7.89c0-1.06-.1-1.71-.3-1.97-.19-.26-.59-.43-1.21-.51v-.55h5.7Z"/>
      <path class="cls-5" d="m378.89,208.04h-7.67c.09,1.85.58,3.32,1.48,4.39.69.83,1.51,1.24,2.48,1.24.6,0,1.14-.16,1.63-.49.49-.34,1.01-.94,1.57-1.81l.51.33c-.76,1.55-1.59,2.64-2.51,3.29-.92.64-1.98.96-3.19.96-2.07,0-3.64-.8-4.71-2.39-.86-1.29-1.29-2.88-1.29-4.78,0-2.33.63-4.19,1.88-5.56,1.27-1.38,2.75-2.08,4.44-2.08,1.42,0,2.64.58,3.68,1.75,1.05,1.16,1.61,2.88,1.69,5.16m-3.68-1c0-1.6-.09-2.71-.27-3.3-.17-.6-.44-1.05-.81-1.36-.21-.18-.49-.27-.84-.27-.52,0-.94.25-1.27.76-.59.89-.88,2.1-.88,3.65v.52h4.07Z"/>
      <path class="cls-4" d="m385.13,201.55v1.81c.72-.78,1.41-1.34,2.06-1.69.66-.36,1.37-.54,2.12-.54.91,0,1.66.25,2.26.76.6.5,1,1.12,1.2,1.87.16.57.24,1.66.24,3.27v5.44c0,1.08.09,1.75.28,2.02.2.26.61.42,1.23.49v.54h-7.07v-.54c.53-.07.91-.29,1.14-.66.16-.25.24-.87.24-1.85v-6.22c0-1.15-.05-1.87-.13-2.17-.09-.3-.24-.53-.46-.69-.21-.17-.44-.25-.7-.26-.86,0-1.66.61-2.39,1.84v7.49c0,1.05.09,1.71.28,1.99.2.28.56.45,1.09.52v.54h-7.07v-.54c.59-.06,1.01-.25,1.26-.57.17-.22.25-.87.26-1.94v-7.89c0-1.06-.1-1.71-.3-1.97-.19-.26-.59-.43-1.21-.51v-.55h5.7Z"/>
      <path class="cls-4" d="m400.47,196.44v5.11h3.32v1.48h-3.32v8.63c0,.81.03,1.33.1,1.57.08.23.21.42.4.57.19.14.36.21.52.21.65,0,1.26-.49,1.84-1.48l.45.33c-.81,1.91-2.12,2.87-3.93,2.87-.89,0-1.64-.24-2.26-.73-.61-.5-1-1.05-1.17-1.66-.1-.34-.15-1.26-.15-2.75v-7.55h-1.82v-.52c1.26-.89,2.32-1.82,3.2-2.8.89-.98,1.66-2.07,2.32-3.27h.49Z"/>
      <path class="cls-4" d="m420.81,214.98v.55h-10.6v-.55h.67c.59,0,1.06-.1,1.42-.31.26-.14.46-.38.6-.72.11-.24.16-.87.16-1.88v-13.34c0-1.04-.06-1.68-.16-1.94-.11-.26-.33-.48-.67-.67-.33-.2-.78-.3-1.35-.3h-.67v-.55h10.6v.55h-.67c-.59,0-1.06.1-1.42.31-.26.14-.46.38-.61.72-.11.24-.16.87-.16,1.88v13.34c0,1.04.05,1.69.16,1.94.12.26.34.49.67.69.34.19.79.28,1.36.28h.67Z"/>
      <path class="cls-4" d="m427.64,201.55v1.81c.72-.78,1.41-1.34,2.06-1.69.66-.36,1.37-.54,2.12-.54.91,0,1.66.25,2.26.76.6.5,1,1.12,1.2,1.87.16.57.24,1.66.24,3.27v5.44c0,1.08.1,1.75.28,2.02.2.26.61.42,1.23.49v.54h-7.07v-.54c.53-.07.91-.29,1.14-.66.16-.25.24-.87.24-1.85v-6.22c0-1.15-.05-1.87-.13-2.17-.09-.3-.24-.53-.46-.69-.21-.17-.44-.25-.7-.26-.86,0-1.66.61-2.39,1.84v7.49c0,1.05.09,1.71.28,1.99.2.28.56.45,1.09.52v.54h-7.07v-.54c.59-.06,1.01-.25,1.26-.57.17-.22.25-.87.25-1.94v-7.89c0-1.06-.1-1.71-.3-1.97-.19-.26-.59-.43-1.21-.51v-.55h5.7Z"/>
      <path class="cls-5" d="m441.71,194.78c.65,0,1.2.23,1.64.69.45.45.67.99.67,1.63s-.23,1.18-.69,1.63c-.45.45-.99.67-1.63.67s-1.18-.22-1.63-.67c-.45-.45-.67-.99-.67-1.63s.23-1.18.67-1.63c.45-.46.99-.69,1.63-.69m2.09,6.77v11.08c0,.99.11,1.62.34,1.9.23.27.68.42,1.35.46v.54h-7.55v-.54c.62-.02,1.08-.2,1.38-.54.2-.23.3-.84.3-1.82v-8.16c0-.99-.12-1.61-.34-1.88-.23-.28-.67-.44-1.33-.48v-.55h5.86Z"/>
      <path class="cls-4" d="m451.79,196.44v5.11h3.32v1.48h-3.32v8.63c0,.81.03,1.33.1,1.57.08.23.21.42.4.57.19.14.36.21.52.21.65,0,1.26-.49,1.84-1.48l.45.33c-.81,1.91-2.12,2.87-3.93,2.87-.89,0-1.64-.24-2.26-.73-.61-.5-1-1.05-1.17-1.66-.1-.34-.15-1.26-.15-2.75v-7.55h-1.82v-.52c1.26-.89,2.32-1.82,3.2-2.8.89-.98,1.66-2.07,2.32-3.27h.49Z"/>
      <path class="cls-5" d="m459.81,194.78c.65,0,1.2.23,1.64.69.45.45.67.99.67,1.63s-.23,1.18-.69,1.63c-.45.45-.99.67-1.63.67s-1.18-.22-1.63-.67c-.45-.45-.67-.99-.67-1.63s.23-1.18.67-1.63c.45-.46.99-.69,1.63-.69m2.09,6.77v11.08c0,.99.11,1.62.34,1.9.23.27.68.42,1.35.46v.54h-7.55v-.54c.62-.02,1.08-.2,1.38-.54.2-.23.3-.84.3-1.82v-8.16c0-.99-.12-1.61-.34-1.88-.23-.28-.67-.44-1.33-.48v-.55h5.86Z"/>
      <path class="cls-5" d="m472.36,213.47c-1.71,1.51-3.24,2.26-4.59,2.26-.8,0-1.46-.26-1.99-.78-.53-.53-.79-1.19-.79-1.97,0-1.07.46-2.02,1.38-2.87.92-.86,2.91-1.99,6-3.41v-1.41c0-1.06-.06-1.72-.18-1.99-.11-.28-.32-.52-.64-.72-.32-.21-.68-.31-1.08-.31-.65,0-1.18.14-1.6.43-.26.18-.39.39-.39.63,0,.21.14.47.42.78.38.43.57.84.57,1.24,0,.49-.18.91-.55,1.26-.36.34-.83.51-1.42.51-.63,0-1.16-.19-1.58-.57-.42-.38-.63-.82-.63-1.33,0-.72.28-1.4.85-2.05.57-.66,1.36-1.16,2.38-1.51,1.02-.35,2.07-.52,3.17-.52,1.33,0,2.37.28,3.14.85.78.56,1.28,1.17,1.51,1.82.14.42.21,1.38.21,2.89v5.43c0,.64.03,1.04.08,1.21.05.16.12.28.22.36.1.08.21.12.34.12.26,0,.52-.18.79-.55l.45.36c-.5.74-1.02,1.28-1.56,1.61-.53.33-1.13.49-1.81.49-.8,0-1.42-.18-1.87-.55-.45-.38-.72-.95-.82-1.71m0-1.09v-4.68c-1.21.71-2.1,1.46-2.69,2.27-.39.54-.58,1.08-.58,1.63,0,.46.16.86.49,1.21.25.27.6.4,1.05.4.5,0,1.08-.28,1.74-.84"/>
      <path class="cls-4" d="m484.28,196.44v5.11h3.32v1.48h-3.32v8.63c0,.81.03,1.33.1,1.57.08.23.21.42.4.57.19.14.36.21.52.21.65,0,1.26-.49,1.84-1.48l.45.33c-.81,1.91-2.12,2.87-3.93,2.87-.89,0-1.64-.24-2.26-.73-.61-.5-1-1.05-1.17-1.66-.1-.34-.15-1.26-.15-2.75v-7.55h-1.82v-.52c1.26-.89,2.32-1.82,3.2-2.8.89-.98,1.66-2.07,2.32-3.27h.49Z"/>
      <path class="cls-5" d="m492.29,194.78c.65,0,1.2.23,1.64.69.45.45.67.99.67,1.63s-.23,1.18-.69,1.63c-.45.45-.99.67-1.63.67s-1.18-.22-1.63-.67c-.45-.45-.67-.99-.67-1.63s.23-1.18.67-1.63c.45-.46.99-.69,1.63-.69m2.09,6.77v11.08c0,.99.11,1.62.34,1.9.23.27.68.42,1.35.46v.54h-7.55v-.54c.62-.02,1.08-.2,1.38-.54.2-.23.3-.84.3-1.82v-8.16c0-.99-.12-1.61-.34-1.88-.23-.28-.67-.44-1.33-.48v-.55h5.86Z"/>
      <path class="cls-4" d="m502.83,215.95l-4.71-10.84c-.57-1.3-1.01-2.13-1.33-2.48-.23-.26-.57-.43-1.02-.52v-.55h7.43v.55c-.47,0-.79.09-.96.26-.24.22-.36.48-.36.78,0,.37.22,1.06.66,2.08l2.3,5.25,1.84-4.53c.53-1.3.79-2.21.79-2.75,0-.31-.11-.56-.34-.75-.22-.2-.61-.31-1.18-.33v-.55h4.58v.55c-.44.06-.8.23-1.08.49-.28.27-.7,1.06-1.26,2.38l-4.67,10.98h-.7Z"/>
      <path class="cls-5" d="m521.22,208.04h-7.67c.09,1.85.58,3.32,1.48,4.39.69.83,1.51,1.24,2.48,1.24.6,0,1.14-.16,1.63-.49.49-.34,1.01-.94,1.57-1.81l.51.33c-.76,1.55-1.59,2.64-2.51,3.29-.92.64-1.98.96-3.18.96-2.07,0-3.64-.8-4.71-2.39-.86-1.29-1.29-2.88-1.29-4.78,0-2.33.63-4.19,1.88-5.56,1.27-1.38,2.75-2.08,4.44-2.08,1.42,0,2.64.58,3.68,1.75,1.05,1.16,1.61,2.88,1.69,5.16m-3.68-1c0-1.6-.09-2.71-.27-3.3-.17-.6-.44-1.05-.81-1.36-.21-.18-.49-.27-.84-.27-.52,0-.94.25-1.27.76-.59.89-.88,2.1-.88,3.65v.52h4.07Z"/>
      <path class="cls-4" d="m272.08,159.17c-.1.17-.22.3-.39.39"/>
      <path class="cls-4" d="m275.58,131.79c.4,0,.73-.33.73-.74s-.33-.74-.73-.74-.73.33-.73.74.33.74.73.74"/>
      <path class="cls-4" d="m309.5,100.87h0s-26.38-.01-26.38-.01h0s0,.01,0,.01l.02,21.3c0,2.06.87,3.85,2.07,4.41l10.15,6.06c.22.26.55.42.93.42.32,0,.61-.13.82-.32l10.3-6.16c1.2-.55,2.07-2.35,2.07-4.41l.02-21.3h0Zm-17.61,6.17h-2.28v-5.46h2.28v5.46Zm-1.66,1.9l.32-.34-.2-.37.43.04.26-.45.25.45.43-.04-.2.37.32.34-.41.08v.46l-.39-.29-.39.29v-.46l-.41-.08Zm-6.37,1.61h2.77v5.18h-2.77v-5.18Zm.46-2.32l.43.04.26-.45.25.45.43-.04-.2.37.32.34-.41.08v.46l-.39-.29-.39.29v-.46l-.41-.08.32-.34-.2-.37Zm3.13,5.26l.43.05.26-.45.25.44.43-.04-.2.37.32.34-.41.08v.46l-.39-.29-.39.29v-.46l-.41-.08.32-.34-.2-.37Zm1.84-4.16c-.02-.14-.2-.18-.28-.18-.24,0-.35.41-.55.42-.15,0-.26.02-.26-.16,0-.14.31-.25.43-.37-1.71,0-1.74.78-2.01.78-.45,0,.38-.82.61-1.06-.35-.06-.55-.48-.93-.7.18-.26.28-.14.5.03,0-.18.14-.39.53-.39.76,0,.55.74.67.74s0-.74.5-.74c.76,0,1.71,1.95.85,1.95-.37,0-.07-.28-.08-.33m-1.96-5.7l.32-.34-.2-.37.43.05.26-.45.25.44.43-.04-.2.37.32.34-.41.08v.46l-.39-.29-.39.29v-.46l-.41-.08Zm-.69,3.41h-2.77v-5.46h2.77v5.46Zm5.25,22.69l-6.31-3.77c-1.05-.72-1.57-1.99-1.71-3.51v-6h8.02v13.28Zm-2.28-19.18h2.28v5.18h-2.28v-5.18Zm10.41,19.61l-2.91,1.74h-.05c-.21.17-.48.27-.77.27s-.57-.11-.78-.28l-2.9-1.73v-13.71h7.41v13.71Zm0-14.43h-7.41v-14.15h7.41v14.15Zm8.74,6.72c-.14,1.53-.66,2.8-1.71,3.51l-6.31,3.77v-13.28h8.02v6Zm0-6.72h-8.02v-14.15h8.02v14.15Z"/>
      <path class="cls-4" d="m291.47,121.32c-.04-.09-1.01.32-.73.29.03-.29.56-.87.8-1.08-.05-.34-.48-.03-.93.2,1.5-2.15.54-1.27-.3-1.12,1.34-1.44.99-1.42,0-.97.78-.62.94-1.35.82-1.56-.73.97-1.4.82-1.4,1.72,0,.59-.21,1.57-.52,1.9-.39.42-.09-1.59-1.12-1.59-.33,0-1.11-.03-1.34.38.21,0,.52.53.52.75s.19.8-.16.8-.76-.74-.76-1.1-.02-.27-.02-.78c0-.85-1.39-2.05-1.95-2.05,0,.59.77.74.77,1.49-.33,0-.8-.61-.8-.24s.49.45.49.78-.56-.12-.56.24c0,.31.31.26.38.56-.23-.06-.43-.03-.47.08-.04.1.07.24.24.33-.08.07-.15.25-.15.75,0,1.68,1.06,2.46,1.83,2.46.55,0,.47-.39.53-.57.02.29.29-.14.29.35s-.54.29-.54.74c0,.6.85-.02.85.64,0,.81-.1.79-.1,1.1,0,.21.89-.3.83-.39.21.08.2.7.6.69.25-.01.31-.64.51-.7-.12.03.8.6.8.31,0-.78-.32-.45-.32-.99,0-.5,1.09-.4.91-.65-.14-.21-.24-.08-.36-.45.02.07-.85-1.25.18-.57,1.09.71,1.21-1.65,1.15-1.78"/>
      <path class="cls-4" d="m319.61,126.89c.48,0,.87-.34.87-.76s-.39-.76-.87-.76-.87.34-.87.76.39.76.87.76"/>
      <path class="cls-4" d="m316.1,128.98c.48,0,.87-.34.87-.76s-.39-.77-.87-.77-.87.34-.87.77.39.76.87.76"/>
      <path class="cls-4" d="m274.4,133.79c.48,0,.87-.34.87-.76s-.39-.77-.87-.77-.87.34-.87.77.39.76.87.76"/>
      <path class="cls-4" d="m277.11,134.02c.48,0,.87-.34.87-.77s-.39-.76-.87-.76-.87.34-.87.76.39.77.87.77"/>
      <path class="cls-4" d="m352.17,97.64c1.29,1.53,1.56,3.99.64,5.75-.51-.05-.41-.69-.51-1.07-.92-1.71-1.66-3.89-.83-5.84.6.09.37.83.69,1.16"/>
      <path class="cls-4" d="m242.03,99.72c-.28,1.11-.28,2.64,0,3.66-.23.23-.18-.23-.41-.19-1.79-1.3-.97-3.85-1.42-5.65.09-.14.32-.18.46-.09.83.56,1.2,1.34,1.38,2.27"/>
      <path class="cls-4" d="m356.13,99.86c.27.51-.23,1.02-.6,1.25-.41.09-.87-.14-1.15-.51-.14-.51.14-.97.55-1.21.46-.05.92.05,1.2.46"/>
      <path class="cls-4" d="m239.22,101.9c-.09.42-.23.84-.6,1.02-.28,0-.69,0-.87-.23-.28-.23-.32-.65-.19-.97.19-.32.55-.37.88-.42.32.14.64.23.78.6"/>
      <path class="cls-4" d="m357.92,102.69c.09.28.09.46,0,.74-.32.42-.78.6-1.24.42-.32-.19-.41-.51-.51-.79.09-.37.46-.69.78-.83.42,0,.69.23.97.46"/>
      <path class="cls-4" d="m355.3,102.74c.37.18.09.65.05.93-.23.23-.55.6-.97.46-.23-.23-.5-.23-.6-.56,0-.46.18-.93.64-1.07.37-.09.6.09.87.23"/>
      <path class="cls-4" d="m351.94,103.43c0,.51.05,1.16-.55,1.25-.55.18-.92-.28-1.06-.65-.05-.46.23-.93.69-1.11.37,0,.69.23.92.51"/>
      <path class="cls-4" d="m244.23,103.66c.14.46-.32.74-.6.97-.32.09-.74-.19-.92-.51-.32-.32.09-.6.19-.88.46-.42,1.15-.09,1.33.42"/>
      <path class="cls-4" d="m241.47,103.8c0,.37-.18.74-.5.88-.37.14-.74-.14-.92-.42-.23-.46.05-.88.41-1.07.51-.19.83.28,1.01.6"/>
      <path class="cls-4" d="m340.81,103.99c.46.97.83,2.13.92,3.34-.18.88.14,2.04-.51,2.64-.64-.23-.69-1.02-1.1-1.44-.83-1.62-.09-3.52.18-5.1.37-.14.37.32.51.56"/>
      <path class="cls-4" d="m239.31,104.54c.14.56-.28.83-.6,1.16-.55.14-.92-.28-1.15-.65-.05-.46.23-.93.6-1.11.46-.05.92.18,1.15.6"/>
      <path class="cls-4" d="m348.07,105.88c.6,1.34.64,2.97.23,4.45l-.28.23c-.64-1.25-1.56-2.41-1.89-3.75,0-.97.18-1.85.55-2.64.32-.23.51.05.64.32.05.51.28,1.11.74,1.39"/>
      <path class="cls-4" d="m353.87,105.05c-.05.46-.23.97-.69,1.11-.46.09-.92-.05-1.06-.56-.14-.46.14-.88.51-1.11.51-.28,1.01.19,1.24.56"/>
      <path class="cls-4" d="m241.52,106.49c0,.37-.32.79-.69.88-.37.28-.64-.19-.97-.32-.14-.37-.23-.7,0-1.07.14-.28.46-.28.74-.37.41.23.83.42.92.88"/>
      <path class="cls-4" d="m243.54,106.26c.18.46-.32.69-.51.93-.55.19-.83-.23-1.06-.56-.09-.46.18-.74.51-1.02.55-.14.83.23,1.06.65"/>
      <path class="cls-4" d="m355.16,106.12c-.05.6-.97,1.21-1.06,1.81-.51,1.25-1.61,2.18-2.85,2.6-.28.23-.64.56-1.06.6-.09-.93.74-1.76,1.24-2.59.97-1.25,2.3-2.04,3.73-2.41"/>
      <path class="cls-4" d="m240.6,108.06c.69.79,1.06,1.48,1.89,2.18.05.19-.09.46-.32.46-2.25-.14-3.77-2.46-4.88-4.08.14-.51.74-.09,1.06-.14.78.6,1.66.79,2.25,1.58"/>
      <path class="cls-4" d="m355.8,108.71c-.09,1.99-1.06,4.03-2.85,5.01-.51.19-1.06.69-1.56.37.97-1.99,2.44-3.61,4.05-5.38h.37Z"/>
      <path class="cls-4" d="m346.97,110.06c.14.69-.23,1.11-.78,1.34-.51.05-.83-.37-1.06-.74-.05-.46.23-.88.64-1.02.14-.14.37-.14.55-.14.28.09.41.32.64.56"/>
      <path class="cls-4" d="m238.07,110.47c.88.6,1.66,1.44,2.48,2.18-.6.42-1.33.05-2.02.05-1.56-.56-2.62-1.9-4.23-2.36.05-.51.64-.32.97-.46,1.01-.09,1.84.37,2.81.6"/>
      <path class="cls-4" d="m287.34,96.76c-2.58-1.02-4.28,1.67-6.9,1.34-.32.19-.23.51-.41.74-.14.14-.37.05-.51-.05-.14-1.11-.51-2.13-.64-3.2-.28-.46-.14-1.11-.37-1.58-1.47-4.03,3.59-.97,4.6-3.33.88-2.04-1.7-2.27-2.48-3.71v-.6c-.74-.74-1.52-.97-1.98-1.95.32-1.16.46-2.41.14-3.57-.05-.28-.23-.65-.64-.51-.88,1.21-1.52,2.18-2.35,3.34-.87-.65-1.7-1.48-2.71-2.04-.69-.09-1.34-.79-2.12-.51-.14.28,0,.51.14.69.05,1.81.97,3.24,2.25,4.54l.14.69c-.83,1.9-.6,4.08-.83,6.12-2.07,5.28-5.43,10.38-9.99,14.04-2.62,2.97-5.75,5.84-6.16,9.92-.14.65.09,1.44-.41,1.9-1.52-.56-3.04-1.3-4.28-2.27-2.12-1.48-5.15-1.3-6.53-3.99-.55-1.06.14-2.13.64-2.92,1.56-1.48,1.33-4.12.51-5.93-.18-.05-.23.18-.37.23-.14,2.74-2.3,4.63-1.47,7.65.18.88.64,1.44.87,2.27-.32-.09-.78-.09-1.06-.23-1.01-.14-2.02-.56-3.08-.42-2.12.97-5.01-.23-6.72,1.72-.28.05-.64.09-.55.51,1.01,0,1.98.28,2.99.23,1.61.28,2.67-1.07,3.77-1.67h.28c.46-.46,1.24-.19,1.84-.28,2.9.32,5.15,1.71,7.54,3.15v.18c-.92.42-1.98.7-2.9,1.21-1.06.79-2.25,1.81-2.58,3.11-.74,1.16.23,2.18.69,3.15.05.46.09,1.02.51,1.21,1.47-1.58.09-3.52.32-5.33.37-1.39,1.66-2.04,2.99-2.41,2.62-1.11,4.51,1.02,6.62,2.22-.04,2.13.23,4.17-.23,6.25-.64.23-1.47.37-2.16.33-3.63.28-6.49,2.27-9.75,3.38-1.47.51-3.22.46-4.69,1.02,1.15.32,2.35-.09,3.54-.14,4.51-.65,7.96-4.12,12.84-3.52l.09.14c-.55,1.16-1.29,2.13-2.16,3.01-.14-.51-.18-.93-.64-1.21-.37-.18-.78,0-1.06.37-.14.23-.14.51,0,.69.23.42.6.51,1.01.65-.09.42-.6.6-.87.97-1.29,2.18-3.91,1.3-5.43,2.83-.23.33-1.06.51-.69,1.02,1.75.18,3.45-.28,4.74-1.21,1.7-1.9,3.5-3.71,5.2-5.51.27,1.48-.14,3.01-1.01,4.22-.41-.23-.74-.56-1.24-.7-.46.09-.78.56-.83.93.18.32.37.69.69.93-1.56,1.11-3.54,1.2-5.34,1.71-3.36.42-6.62.69-10.03.74-1.61-.09-3.45.46-4.97,0-1.75.32-3.64-.23-5.06.74-.18.23.04.46.04.69,2.12,1.39,5.02.28,7.41.7h18.13c1.34-.05,2.67-.09,3.73-.7,2.35-1.34,3.64-3.75,4.83-6.12.46-.83.78-1.81.97-2.78.46-1.58,1.89-2.69,3.45-2.83.23,2.41-.23,4.82-.78,7.04-.28,1.48-1.24,2.92-.64,4.49.14.74.92.74,1.52.84,5.57-.09,11.14-.33,17.02.09,1.06.18,1.98.51,3.13.46.09-.14.42-.19.28-.46-.14-.51-.51-1.16-1.11-1.3-.09-.28-.5-.19-.64-.37-2.94-1.67-6.49-.79-9.94-.74-1.79.19-3.59.51-5.11-.51-.69-.83-.18-3.48-.18-3.48,0-1.05,2.53-8.34,2.85-8.94.09-.69.37-1.34.28-2.13.37-.93.28-2.13.28-3.15.18-1.48.92-2.87,1.43-4.31.28-.7.51-1.44.78-2.13.28-.88.37-1.72.92-2.41,1.5.95,2.97.92,3.69,2.63l.63,3.86c0,.23.18.69.51.42,1.2-.79.83-2.55.83-3.75.28-1.44-.74-2.13-1.15-3.38-.32-.23-.85-1.34-.85-1.34-.19-1.02-2.42-1.72-1.91-2.97.28-1.07.55-2.04,1.56-2.64.15.1.21.21.23.33l.55-.39.06-3.88c1.49,0,3.72.19,5.23.19.42.14.74.46,1.2.51l.37-.51,3.73-.73c-1.58.18-2.54-1.64-4.05-1.64"/>
      <path class="cls-4" d="m291.39,98.4c.11-.01.23-.03.34-.07l-.34.07Z"/>
      <path class="cls-4" d="m251.32,111.31c.05.56-.28.88-.69,1.06-.37-.14-.64-.18-.87-.56-.18-.51.27-.88.64-1.07.37.09.83.14.92.56"/>
      <path class="cls-4" d="m248.33,111.31c.28.28.32.74.18,1.06-.32.28-.83.51-1.1.14-.28-.28-.55-.6-.32-.97.32-.32.87-.6,1.24-.23"/>
      <path class="cls-4" d="m312.37,111.82s.03.04.04.07"/>
      <path class="cls-4" d="m347.43,112.6c.18.51-.23.88-.6,1.07-.46-.14-1.06-.23-1.06-.83.05-.37.37-.6.69-.69.42-.14.78.19.97.46"/>
      <path class="cls-4" d="m349.87,112.51c.14.23.46.6.09.83-.19.14-.32.18-.46.37-.51.09-.96-.09-1.1-.56-.09-.51.32-.74.69-.97.32-.09.55.14.78.32"/>
      <path class="cls-4" d="m236.78,113.07c-.18.56-.64.79-1.24.6-.14-.14-.28-.37-.37-.6.05-.33.14-.65.51-.79.55.05.97.28,1.1.79"/>
      <path class="cls-4" d="m252.29,113.86c-.05.37-.46.69-.78.88-.46.05-.78-.32-1.01-.65,0-.37.18-.83.55-.93.51-.19,1.06.19,1.24.7"/>
      <path class="cls-4" d="m249.57,113.53c.14.14.27.51.14.74-.28.23-.69.65-1.15.37-.28-.23-.6-.42-.51-.88.19-.19.42-.46.69-.56.37-.09.55.14.83.32"/>
      <path class="cls-4" d="m356.91,114.09c0,.37-.37.74-.6.88-.37.14-.78.05-1.01-.23-.28-.09-.18-.46-.18-.69.23-.32.55-.51.87-.6.41.09.69.37.92.65"/>
      <path class="cls-4" d="m359.85,114.5c-.14.42-.46.79-.87.83-.27-.05-.78-.14-.69-.56,0-.32.18-.65.41-.74.46-.23,1.01,0,1.15.46"/>
      <path class="cls-4" d="m242.03,115.15c.09.56-.09.93-.55,1.11-.32.19-.64-.05-.87-.23-.23-.23-.41-.6-.23-.93.09-.42.51-.32.78-.51.41.05.64.23.87.56"/>
      <path class="cls-4" d="m244.28,115.57c.14.37-.28.51-.37.79-.23.14-.55.28-.83.09-.32-.28-.69-.69-.37-1.11.37-.69,1.33-.32,1.56.23"/>
      <path class="cls-4" d="m354.19,115.34c.05.46-.37.79-.64,1.07-.41.09-.83-.19-.92-.56-.05-.37.18-.65.51-.88.41-.05.83,0,1.06.37"/>
      <path class="cls-4" d="m357.97,116.08c-.09.42-.05.88-.51,1.16-.37.09-.83.05-1.1-.18-.28-.23-.32-.65-.18-.97.23-.37.64-.65,1.1-.56.32.19.41.42.69.56"/>
      <path class="cls-4" d="m240.28,117.05c.18.37-.23.46-.37.65-.32.19-.64.05-.92-.09-.32-.19-.18-.65-.14-.88.41-.79,1.24-.23,1.43.32"/>
      <path class="cls-4" d="m355.07,117.93c.18.05.09.32.05.42-1.1.56-2.76.7-3.73-.18-.55-.46-1.24-.65-1.84-1.02.23-.6,1.06-.56,1.66-.7,1.33.19,2.39,1.44,3.86,1.48"/>
      <path class="cls-4" d="m242.49,117.52c.09.37-.18.51-.28.79-.18.28-.55.19-.78.09-.41-.28-.6-.79-.32-1.16.51-.51,1.11-.23,1.38.28"/>
      <path class="cls-4" d="m246.53,117.8c.18.42-.09.79-.46,1.02-.32.19-.6-.09-.87-.14-.23-.32-.64-.7-.23-1.07.41-.69,1.24-.32,1.56.19"/>
      <path class="cls-4" d="m299.73,119.75c-.09.92-1.62-.13-1.4,1.1.22.88.4,1.94.92,2.6.44.62.22,1.59.18,2.33-.39.66-1.05,1.14-1.75,1.5-1.31-.13-3.24.66-3.85-.97-.26-.7-.74-1.41-.74-2.2.13-.09.31-.09.44-.22,0-.31-.35-.48-.31-.79,1.49-.26-.61-1.58.66-1.67,1.05,1.1,2.75.75,3.67,1.94.22.18.39.44.66.57-.18-1.1-.7-2.2-.87-3.39-.13-.62.09-1.19.53-1.54.79-.62,1.44.26,1.88.75"/>
      <path class="cls-4" d="m250.58,119.46c.14.46-.23.74-.51.97-.41.18-.64-.28-.83-.51-.14-.46.18-.69.46-.93.32,0,.69.14.87.46"/>
      <path class="cls-4" d="m278.97,119.93c.55,1.81.37,3.66-.55,5.19-.05.37.09.97-.41.93-1.24-1.71-.32-4.12.18-5.93.09-.46.64-.65.78-.19"/>
      <path class="cls-4" d="m318.35,120.81c.64,1.3.69,3.01.09,4.31l-.37.37c-.51-1.07-.92-2.13-1.06-3.29.23-.83.51-1.58.55-2.46.64-.14.6.7.78,1.07"/>
      <path class="cls-4" d="m254.17,121.32c-.28.56-1.06.69-1.56,1.07-1.1.83-2.71,1.02-4.09.79,1.2-1.67,3.04-2.64,5.24-2.18.09.19.32.09.42.32"/>
      <path class="cls-4" d="m235.26,122.99c1.7,1.2,2.16,2.87,3.17,4.54.14.19.6.23.41.6-.37.28-.74-.28-1.24-.19-1.75-.79-2.85-2.73-2.81-4.77,0-.19.28-.19.46-.19"/>
      <path class="cls-4" d="m316.56,124.42c.05.46-.05.93-.41,1.07-.51.14-.92-.14-1.06-.56-.14-.32.14-.51.23-.74.37-.37,1.01-.19,1.24.23"/>
      <path class="cls-4" d="m335.98,126.88c0-.88.23-1.71.32-2.55.14-.28.23-.6.18-.97,1.1-1.48,3.36-1.02,5.11-.88.69.37,1.56.32,2.3.51.32-.23.78-.28,1.15-.23,1.47-.79.51-2.5.6-3.85l-.55-1.39c-.14-.28-.28-.6-.37-.93-.28-.32-.46-.93-.74-1.25-.78-2.04-2.3-3.2-3.59-4.82-2.35-3.06-6.03-4.77-9.71-5.98-3.63-1.25-7.32.37-10.58,1.53-1.01-.28-1.52-1.07-1.79-1.95-.18-1.76.18-3.47.87-4.91.14-1.16.92-2.04,1.24-3.11.83-2.59,1.7-5.14,1.89-7.97.09-1.72-1.2-2.92-2.48-3.66-.87-.23-1.89-.18-2.53.51-.6,1.25-1.89,2.09-2.99,2.69-.09.79.87.28,1.19.56,1.01.19,2.16-.14,2.99.51.09,1.85-.97,3.38-1.93,4.77-1.56,2.32-3.22,4.68-4.19,7.23l-.18-.19.22,11.33c1.47,2.44,3.3,5.22,6.04,6.14,1.47,1.2,3.31,2.64,5.29,1.58,1.06-.32,1.15,1.16,1.66,1.76.55,1.72-.69,2.92-.78,4.49l-1.2,2.55c-1.38,2.69-2.62,5.56-4.74,7.83-.69,0-1.1.74-1.79.79-.37.51-1.11.14-1.56.32-1.43.6-3.45.23-4.42,1.58.09.14.23.19.37.23,2.81.05,5.94.23,8.93.09.37-.14.69-.46.74-.88-.41-.79.14-1.48.51-2.09.23-1.11.97-1.81,1.29-2.87.97-1.9,2.07-3.75,3.13-5.65l1.43-2.32c.32-.79.87-1.76,1.43-2.59.37-.37.55-.79.83-1.25.05-.47-.18-.65-.46-.97.32-.32.83-.23,1.24-.32,1.15.69,2.35,1.81,2.58,3.06l.41,1.2.19.56-.09,1.53.18,1.44c.23,2.22-.18,4.49-.41,6.72-.78,2.69-3.86,2.41-6.07,3.01-.55.37-1.61.19-1.61,1.11,2.67.56,5.8.23,8.65.19.46-.19.55-.6.78-1.02.09-.6.69-1.11.51-1.76-.51-.65-.05-1.67-.18-2.55.09-.23.09-.56,0-.88.37-1.34.28-2.97.55-4.26l.18-1.76Z"/>
      <path class="cls-4" d="m358.61,125.07c-1.47,2.08-3.04,4.45-5.61,5.19-.19,0-.37.09-.46-.14,1.56-1.67,2.39-4.26,4.83-4.87.37-.18.87-.37,1.24-.18"/>
      <path class="cls-4" d="m233.01,127.34c-.23.18-.04.6-.46.65-.37.18-.78-.05-.96-.42-.19-.46.23-.93.6-1.02.37.19.74.32.83.79"/>
      <path class="cls-4" d="m246.26,127.99c.14.42-.32.42-.55.51-1.93.69-3.91.05-5.29-1.34,0-.18,0-.37.18-.42,1.89.46,4.1.09,5.66,1.25"/>
      <path class="cls-4" d="m235.54,127.39c.09.19.14.51.09.7-.28.42-.69.51-1.15.42-.28-.14-.41-.32-.6-.6.05-.46.41-.74.78-.88.37.05.64.14.88.37"/>
      <path class="cls-4" d="m278.65,127.62c.09.42-.27.69-.55.88-.42.09-.78-.09-.97-.37-.14-.32,0-.79.32-.88.41-.09,1.06-.05,1.19.37"/>
      <path class="cls-4" d="m360.36,127.8c.14.46-.27.69-.6.97-.28.14-.6,0-.87-.14-.05-.23-.32-.42-.23-.74.18-.42.6-.6,1.06-.56.23.18.41.23.64.46"/>
      <path class="cls-4" d="m363.4,127.62c.27.42.05.74-.18,1.07-.18.32-.55.42-.83.28-.28-.28-.64-.42-.69-.83,0-.37.41-.65.69-.79.46-.19.64.28,1.01.28"/>
      <path class="cls-4" d="m231.08,128.96c.05.32-.23.51-.32.79-.23.09-.46.28-.74.19-.32-.14-.55-.42-.69-.74.09-.42.37-.79.83-.93.37.09.78.28.92.69"/>
      <path class="cls-4" d="m327.97,128.96c.09.19.05.42.05.6-.27.37-.64.7-1.1.46-.27-.28-.6-.56-.46-.97.37-.51,1.15-.69,1.52-.09"/>
      <path class="cls-4" d="m238.48,129.66c-.09.32-.23.65-.64.69-.41.05-.55-.32-.78-.51,0-.42-.05-.84.37-1.07.55-.18,1.06.28,1.06.88"/>
      <path class="cls-4" d="m234.07,129.75c.14.46-.18.79-.46,1.02-.55.19-1.01-.23-1.24-.65.04-.42.37-.93.83-1.07.42,0,.64.46.88.7"/>
      <path class="cls-4" d="m331.01,129.66c.09.46-.05.93-.51,1.11-.55.19-1.01-.28-1.24-.65.23-.37.28-.88.83-.97.41,0,.69.18.92.51"/>
      <path class="cls-4" d="m236.23,129.84c.14.32-.14.46-.23.69-.23,0-.37.28-.64.19-.18-.23-.55-.32-.6-.65-.05-.46.28-.7.6-.88.46-.05.74.28.87.65"/>
      <path class="cls-4" d="m357.83,130.21c-.14.37-.41.56-.78.74-.37.09-.6-.23-.87-.37-.23-.19-.14-.6-.05-.83.46-.79,1.7-.42,1.7.46"/>
      <path class="cls-4" d="m361.33,130.4c-.14.51-.64.74-1.1.79-.41-.18-.87-.51-.55-1.07.18-.18.28-.37.55-.42.55-.19.97.23,1.1.69"/>
      <path class="cls-4" d="m339.47,130.72c.23.6-.32.79-.69,1.07-.32-.05-.6-.19-.88-.37-.09-.51.14-.97.65-1.2.41,0,.64.18.92.51"/>
      <path class="cls-4" d="m326.82,131.28c.23.09.14.42.09.56-.27.18-.64.65-1.06.37-.32-.19-.55-.46-.46-.88.23-.51,1.2-.56,1.43-.05"/>
      <path class="cls-4" d="m329.4,131.6c.05.37-.05.56-.37.74-.32.32-.69-.05-1.01-.14-.09-.18-.18-.46-.05-.69.14-.19.37-.32.6-.37.32.09.69.09.83.46"/>
      <path class="cls-4" d="m251.32,131.65c.27.28-.05.6-.09.88-.23.28-.74.51-1.15.23-.46-.19-.41-.79-.32-1.16.27-.09.27-.42.64-.42.41.05.64.23.92.46"/>
      <path class="cls-4" d="m344.39,131.84c.09.46-.37.65-.69.74-.55.19-.83-.23-1.06-.6,0-.28.28-.46.37-.69.64-.28,1.06.19,1.38.56"/>
      <path class="cls-4" d="m341.91,131.84c.18.46-.32.7-.51.93-.32.14-.74.09-1.01-.19-.23-.14-.23-.42-.23-.7.28-.23.41-.51.74-.6.41,0,.83.23,1.01.56"/>
      <path class="cls-4" d="m362.66,132.39c.09.65-.74.32-1.06.51-1.93,1.16-4.42.28-6.26-.42.14-.6.83-.37,1.2-.6,1.98-1.25,4,.28,5.98.37l.14.14Z"/>
      <path class="cls-4" d="m236.73,131.84l-.18.32c-1.7,1.02-3.91,1.71-5.93,1.07l-.19-.28c1.7-1.25,3.96-1.58,6.17-1.25l.14.14Z"/>
      <path class="cls-4" d="m349.09,132.16c0,.37-.18.69-.46.88-.46.14-1.06,0-1.2-.51-.14-.37.23-.74.6-.88.32,0,.88.05,1.06.51"/>
      <path class="cls-4" d="m244.97,132.35c-.18.37-.09.74-.55.93-.46.18-1.01-.23-1.15-.6-.14-.51.23-.65.46-.88.55-.28.97.14,1.24.56"/>
      <path class="cls-4" d="m241.7,132.58c.14.32-.14.51-.23.74-.23.28-.64.23-.92.14-.32-.28-.64-.6-.51-1.11.28-.23.41-.37.74-.51.41.09.83.28.92.74"/>
      <path class="cls-4" d="m352.31,133.64c-.05.42-.37.74-.74.84-.37.05-.69-.23-.87-.46-.14-.28-.09-.65.18-.88.09-.14.41-.14.6-.23.41.05.74.37.83.74"/>
      <path class="cls-4" d="m238.3,133.13c.14.37-.18.51-.23.79-.14.79-.64,1.3-1.01,1.99-.87,1.06-2.12,1.06-3.36,1.39l-.18-.37c1.33-1.71,2.76-3.06,4.65-3.89l.14.09Z"/>
      <path class="cls-4" d="m350.01,134.15c.09.56-.37.65-.69.88-.42,0-.74-.23-.92-.55-.14-.51.32-.7.6-.93.46-.09.88.23,1.01.6"/>
      <path class="cls-4" d="m243.59,134.15c-.05.09.05.18.14.23-.05.51-.41.65-.69.88-.42,0-.74-.14-1.01-.46-.18-.42,0-.93.46-1.07.42-.05.97,0,1.1.42"/>
      <path class="cls-4" d="m358.47,135.54c.46-.05.55-.6,1.06-.69.46-.09.87.18,1.1.51.18.56-.23.83-.6,1.07-.32.23-1.01-.28-.97.32.32.23.6.56.64.93-.09.19-.41.14-.55.05-1.34-.56-2.76-1.48-3.31-2.87-.18-.42-1.06-.74-.55-1.11,1.34-.09,2.44.97,3.18,1.81"/>
      <path class="cls-4" d="m362.89,134.11c.23.23.14.65-.05.88-.23.46-.92.28-1.34.23-.23-.23-.46-.46-.37-.83.18-.28.37-.46.69-.6.41-.09.74.09,1.06.32"/>
      <path class="cls-4" d="m346.19,136.61c.41.51.83,1.3,1.01,1.85-.09.14-.32.09-.41.09-1.56-.88-3.59-1.85-4.19-3.71-.14-.19-.51-.42-.46-.74,1.2-.23,2.35.65,3.17,1.3.32.46.69.7.87,1.21"/>
      <path class="cls-4" d="m241.01,134.85c.18.42-.18.74-.41.93-.51.09-.78-.09-1.06-.37-.32-.51.28-.93.65-1.11.37-.05.6.32.83.56"/>
      <path class="cls-4" d="m351.94,135.91c.05.28-.32.46-.46.65-.37.05-.74.18-1.06-.14-.09-.23-.32-.6-.05-.83.51-.65,1.24-.14,1.56.32"/>
      <path class="cls-4" d="m363.4,136.56c.14.56-.28.93-.65,1.16-.46.14-.83-.19-1.1-.42-.23-.28-.05-.56,0-.88.32-.28.74-.51,1.2-.32.18.14.37.23.55.46"/>
      <path class="cls-4" d="m331.56,142.96c0,.56-1.01.42-1.43.83-1.43.74-3.13.74-4.83.7v-.28c1.66-1.39,4.05-1.9,6.26-1.25"/>
      <path class="cls-4" d="m264.43,144.95c-.05.42-.28.65-.69.79-.32,0-.64-.19-.78-.46-.19-.56.28-.79.6-1.02.42.05.78.37.88.69"/>
      <path class="cls-4" d="m330.78,145.46c-.09.42-.23.88-.69,1.07-.42.09-.69-.14-1.01-.32-.23-.19-.09-.51-.14-.74.32-.83,1.52-.83,1.84,0"/>
      <path class="cls-4" d="m339.93,145.64c-1.15.74-2.44,1.62-3.96,1.62l-2.48-.05-.23-.18c1.52-1.85,4.28-1.85,6.67-1.67v.28Z"/>
      <path class="cls-4" d="m251.83,146.76c0,.42-.18.74-.6.88-.46.09-.78-.09-.97-.42-.18-.42,0-.83.37-1.07.51-.32,1.01.23,1.2.6"/>
      <path class="cls-4" d="m254.13,147.22c.14.23-.09.37-.18.6-.28.14-.64.23-.87,0-.32-.19-.42-.51-.28-.79.14-.28.41-.23.55-.42.32.14.64.28.78.6"/>
      <path class="cls-4" d="m236.5,151.9c-.46.56-1.2-.14-1.7-.42-1.61-.93-1.56-2.73-3.17-3.8.18-.56.6.05.92-.05.28.19.64.37.97.51,1.56.88,1.93,2.36,2.99,3.75"/>
      <path class="cls-4" d="m370.62,133.92c-.74-1.34-1.98-1.9-3.45-1.9-1.19.09-2.07.88-2.58,1.9-.27,1.02.09,1.95.87,2.55.32.14.74.09.92-.23.23-.6-.41-.6-.51-1.07-.19-.65.05-1.2.51-1.62.46-.46,1.24-.23,1.79-.23.55.37,1.1.69,1.38,1.34.28.79.28,1.67,0,2.46-.51,1.16-1.66,2.08-2.85,2.32-3.82.56-45.73.37-45.73.37-4.92.46-10.54-.93-14.77,1.67-1.93.93-2.9,3.06-3.41,4.96-1.24,1.11-2.58,2.41-3.59,3.66l-.14-.14c.23-1.11.74-2.09.97-3.2.69-.93.69-2.18,1.2-3.2,1.75-2.83,3.4-5.7,6.12-7.69,1.15-1.53,3.17-1.25,4.92-1.25,1.89.88,4.1,1.16,6.4.93.09-.09.14-.19.14-.32-.64-.6-1.7-.83-2.44-1.44-1.84-.88-3.59.28-5.52.14-.09-.09-.18-.14-.14-.28,1.75-1.3,3.73-2.22,5.71-3.06,1.61-.88,3.31-1.34,5.01-1.99.69,0,1.34-.6,1.98-.19l2.44-.65c.09.05.19.18.37.14,2.07-.7,4.69-.05,7.04-.09l.32.28,2.21.55c.83.09,1.2,1.07,2.07,1.11.46-.65-.51-.93-.74-1.34,1.01-.23,2.16.05,3.08.46l-.46.51c-.28.51.14.88.55,1.06.32.09.55-.14.78-.23.6-.42-.05-.84.14-1.21,3.41.6,6.67,1.43,9.8,2.78.87.28,1.7.93,2.67.88-.97-.88-2.3-1.34-3.5-1.85-.78-.46-1.89-.51-2.48-1.16.14-.23.46-.14.6-.32,1.57-.18,2.9-1.34,4-2.59.09-.28.6-.19.55-.56-.42-.47-1.11.14-1.66.09-1.93.37-2.76,2.64-4.69,3.06-2.35-.56-4.74-1.11-7.09-1.71-1.15-.19-2.39-.28-3.45-.74l-2.58-.23h-4.69c-.05-.09-.18-.14-.14-.28,1.66-.42,3.08-1.39,4.74-1.81l12.33-5.65c1.29-1.16,2.44-2.46,3.5-3.8.05-.37-.18-.74-.51-.88-.32-.14-.69-.09-.92.19-.55.42,0,.93,0,1.44-.55.74-1.43,1.39-2.12,1.81-.18-.05-12.7,5.7-12.7,5.7-1.84.79-3.68,1.67-5.61,2.09l-2.67.42c-.18.56-.64.88-1.15,1.07-.73.14-1.33.6-2.11.6-5.98,2.32-12.19,4.77-16.93,9.5.28-.56.41-1.25.46-1.95-.09-.69-.05-1.48-.51-2.04-.11-.26-.45-1-.34-1.27l-.68.44c-.41,1.02-.78,2.87-.37,3.94.14.83.83,1.81.18,2.55-2.21,2.69-3.45,5.93-4.92,8.99-.55-.09-.83-.6-1.06-1.11,1.56-1.99,2.81-4.22,3.27-6.77.32-.23.09-.83.41-1.11-.09-.74.41-1.48.05-2.08.29-1.01-1.35-1.95-.3-2.59l-.87.42c-1.98,2.59,1.03,6.49-1.23,8.99v.18c-.64.84-.97,1.67-1.84,2.22-1.1-.46-1.52-1.71-2.16-2.64-1.01-.97-1.01-2.97-.41-4.31.41-1.34-.28-2.5-.42-3.71l-.46-.28c-1.1,1.44-1.52,3.71-.64,5.42.46.84.51,1.99,1.2,2.69.41,1.34,1.24,2.22,1.98,3.43.18.47-.28.56-.51.79-.51-.32-.42-1.07-.87-1.39-1.52-3.24-3.5-5.84-5.89-8.48-.09-.42-.51-.79-.28-1.25.87-.84,1.06-2.46.6-3.52-.09-.23-.37-.51-.32-.74l-.69-.56c.09,1.62-.97,3.06-.51,4.77v.09c-4.74-3.57-9.98-6.75-15.32-9.26l-.42,1.18c1.35.34,4.93,2.52,4.93,2.52,1.61.6,3.08,1.58,4.6,2.46,6.26,3.48,10.4,9.22,13.2,15.62.05.51.51,1.06.18,1.58-.97-1.48-2.35-2.32-3.5-3.52-.32-2.18-1.61-4.26-3.5-5.14-.69-1.02-2.16-1.11-3.31-1.44l-16.75-.09c-13.62-.19-26.04.42-39.57.18-1.89-.18-4.19-.83-4.74-2.83-.37-.7-.37-1.9,0-2.55.51-.88,1.43-1.16,2.35-1.25.74.09,1.24.79,1.57,1.3,0,.6-.51,1.16-.74,1.67.05.18.23.56.55.42.6-.23,1.06-.88,1.2-1.48.05-.32.18-.79-.14-1.02-.28-.97-1.29-1.67-2.16-1.9-1.15-.09-2.35.23-3.13,1.06-1.1.93-1.06,2.6-.74,3.89.74,2.04,2.9,3.43,4.97,3.71l44.77.19c4.37.23,9.29-.51,13.71.37,1.61.51,3.31,1.71,3.73,3.52-.05.09-.18.05-.32.05-3.64-2.36-8.42-3.24-13.07-2.69-1.84-.09-3.5.6-5.15,1.07-.87.19-1.7-.23-2.26-.74-1.66-1.48-4.55-1.39-6.67-.84,0,.14-.05.28.05.33,2.25-.19,3.59,1.76,5.61,1.99.46.09.83-.42,1.24-.05-2.11,1.02-4.14,2.22-6.4,2.87-.69-.14-1.06-.79-1.61-1.16-.87-.97-2.48-.56-3.68-.65-.42.09-.78-.18-1.06,0,.37.74,1.2,1.16,1.98,1.53,1.15.51,2.48-.05,3.54.65-.28.32-.64.42-.97.65-2.16.84-3.96,2.78-6.35,2.64-2.53.28-5.11-.46-6.81-2.22-.74-1.81-2.62-2.78-4.65-2.69-.14.09-.32.09-.28.32,1.01.6,1.79,1.81,2.81,2.5.64.79,1.89,0,2.48.88.88.6,1.98,1.11,2.99,1.3.74.32,1.56.46,2.39.65l-.32.18c-4.19,1.39-9.02,1.53-13.71,1.34-1.38-.05-2.72-.46-4.1-.42.23.28.69.51,1.1.65-.37.23-.78.32-1.24.37-.55.14-1.2.19-1.75.46-.74-.05-1.38.23-1.98.46-.78.83-1.7,1.71-2.62,2.13,0,.19-.05.46.18.46.87-.37,1.98-.09,2.85-.46,1.52-.14,2.39-1.81,3.59-2.5,1.29-1.02,3.13-.79,4.69-.56.92.23-.09.6.18,1.21.37.32.69.69,1.2.56.09-.09.18-.19.32-.23.28-.37.23-.79.05-1.16.64-.42,1.52.05,2.21-.23,1.75-.05,3.5-.42,5.2-.46.27-.05.6-.32.87-.05-.14.37-.6.42-.41.93.09.42.55.6.92.7.46-.19.87-.51.69-1.11-.09-.32-.46-.37-.69-.51.97-.47,2.07-.6,3.04-1.07.69-.14,1.33-.37,1.93-.65.6-.05,1.11-.6,1.66-.37-.23.79-.55,1.53-.97,2.23-.73,2.46-1.29,5.7,0,8.06.14.05.18-.05.28-.09-.97-2.46-.41-5.28.41-7.6.64-3.94,4.69-5.1,7.59-6.58l.14.19c-.78,2.04-1.93,3.99-1.75,6.44.09.42-.18.83,0,1.11.78-.42,1.29-1.35,1.7-2.13.32-2.08-.87-4.68,1.24-6.21,3.77-1.48,7.32-3.43,11.68-3.47.14.14.46-.09.51.18-.92,1.02-2.25,1.99-2.67,3.24-1.47,2.04-1.43,5.52-.78,8.02.42,1.44-.83,2.22-1.43,3.34-.29.39-.37,1.07-.63,1.52l.91.1c.78-.83,1.52-1.85,1.56-3.06.09.47.5.84.87.93.32-.51-.28-.88-.32-1.39.74-.42,1.06.51,1.66.7.97.23,1.79.65,2.81.65l.32-.32c-1.01-1.58-3.04-1.85-4.79-1.95-.92-1.53-.92-3.43-.83-5.28.18-.97.37-1.99.92-2.87.23-.65.87-1.25,1.29-1.76.83-.79,1.89-1.34,2.9-1.58h.14c0,.09.05.14.05.14-1.24.97-1.38,2.32-2.12,3.52-.78,1.16-1.15,2.73-.41,4.03.28.6.14,1.53.78,1.95.6-.83.64-1.9.97-2.83-.14-1.53-1.06-2.97-.18-4.45.46-1.16,1.43-1.62,2.48-2.04,2.53-.23,4.74,1.07,6.95,2.04.46.32,1.24.6,1.34,1.25-.05,1.25-.73,2.5-1.7,3.11-1.24.74-3.04.83-4.19-.05-.69-.7-.97-1.9-.74-2.83.51-.56,1.2-1.02,2.03-.74.46.23.87.69,1.47.42.23-.14.32-.51.18-.74-.51-.28-.69-.97-1.38-1.07-.87-.14-1.93-.09-2.53.51-.97.83-1.34,2.09-1.06,3.24.32,1.48,1.43,2.55,2.85,2.97,2.12.51,4.33-.14,5.66-1.95.55-.6.69-1.25,1.01-1.99,2.21,1.34,3.86,3.71,4.74,6.12,0,.79.23,1.62.05,2.32l1.61.14c-.14-.37,0-.79.14-1.11.6-3.06,2.48-5.61,4.74-7.6.78-.46.6.6.78.93.69,1.76,2.3,3.01,4,3.52,1.93.32,3.77-.14,4.97-1.62.6-1.11,1.34-2.74.32-3.89-.64-.79-1.52-1.2-2.53-1.2-1.2,0-1.93.83-2.53,1.71,0,.37-.05.79.27.97.18,0,.55.05.69-.23.09-.7.69-1.02,1.24-1.39.51-.28,1.06,0,1.47.28.51.42.6,1.11.64,1.81-.09.88-.69,1.81-1.52,2.18-1.34.69-3.27.37-4.42-.42-.55-.6-.87-1.3-1.29-2.04-.09-.74-.37-1.39,0-2.13,2.02-1.2,4.14-2.08,6.58-2.32.97.19,1.8.83,2.44,1.53,2.12,2.18-.46,5.28,1.01,7.69.55-.09.55-.83.78-1.3.69-1.67-.18-3.48-.6-5.1-.55-1.02-.87-1.9-1.75-2.73.23-.09.32-.09.55-.09.97.65,2.03,1.39,2.81,2.41,1.33,2.18,2.03,4.77,1.79,7.6-.37,1.39-1.84,2.04-2.99,2.55-.46.37-1.01.93-1.24,1.48.55.32,1.33,0,1.89-.23.87-.33,1.38-1.44,1.98-1.95.09.05.05.19.09.28.05.51-.23,1.2.23,1.34.23-.65.28-1.58.41-2.36.6.65.69,1.48.87,2.32.41.83,1.11,1.95,2.21,2.09.28-.42-.04-.84-.14-1.21-.14-1.16-1.1-1.76-1.75-2.6-1.61-2.22-.87-5.7-2.12-8.2-.46-1.34-1.43-2.32-2.48-3.43l.18-.18c2.25-.05,4.14.69,6.21,1.11,2.53,1.25,6.21.97,7.41,4.26.51,1.85,1.33,3.57,2.62,5l.14-.09c.27-.46.27-1.25,0-1.71-.28-2.32-2.3-2.87-3.36-4.82l.14-.18c1.11.32,2.26.6,3.36,1.06,3.68,1.02,6.26,4.64,6.72,8.39,0,2.96-.55,5.42-1.7,7.92-.14.37-.78.79-.37,1.11.51-.37.6-.97.88-1.39,1.52-2.55,2.3-6.07,1.52-9.31-.05-.6-.74-1.07-.42-1.67.23.28.51.32.78.42.28-.19.69-.19.87-.51.05-.28.23-.6,0-.83-.28-.42-.87-.42-1.33-.32-.23.28-.51.65-.55,1.02-.46-.79-.92-1.81-1.66-2.45l.09-.14c2.07.69,3.96,1.71,6.07,2.27.46.28.97.51,1.61.51,1.79.69,3.77.97,5.66,1.44,1.38-.14,2.53.51,3.91.19v-.09l-.05.05c-.51-.65-1.61-.05-2.21-.51-3.18-.32-6.21-1.16-9.06-2.27.05-.14.23-.09.37-.09.46-.23.78-.65.74-1.16-.23-.32-.6-.51-1.06-.51-.28.14-.64.46-.69.79.05.37.37.79.69.88-.09.09-.28.05-.41.05-1.43-.65-2.81-1.25-4.19-1.9-.51-.09-.92-.51-1.43-.6-1.06-.51-2.12-1.02-3.17-1.44-2.94-1.53-6.21-2.36-9.34-3.48-.69-.19-1.34-.37-1.98-.56-1.15-.33-2.3-.6-3.45-.93-3.91-.97-9.16-1.07-12.56,1.07-.55-.19-.87.69-1.15.14.97-2.55,3.77-3.38,6.3-3.48,18.45-.19,35.75-.32,53.92-.6,2.12,0,4.19-.74,5.29-2.64.78-1.11.92-3.01.32-4.26m-73.15,17.1c-.18.56-.55,1.02-.51,1.62l-.18.09c.14-.69-.55-1.11-.37-1.85-.37-.56-.37-1.25-.69-1.85-.41-.74.37-1.07.69-1.58.64.28.87.88,1.33,1.44.28.79-.32,1.39-.28,2.13"/>
      <path class="cls-4" d="m347.38,148.1c0,.14.28.18.18.42-1.61,1.44-3.86,1.85-6.16,1.95-.19.05-.37.19-.6.14-.14-.09-.18-.23-.09-.32,1.66-1.81,4.18-2.73,6.67-2.18"/>
      <path class="cls-4" d="m339.98,148.84c.18.65-.23,1.02-.74,1.25-.51-.05-.78-.37-1.01-.74-.14-.37.18-.56.32-.79.37-.37,1.24-.37,1.43.28"/>
      <path class="cls-4" d="m252.52,148.93c.09.32.05.74-.23.97-.18.23-.6.28-.83.23-.32-.05-.51-.42-.6-.7,0-.42.23-.65.6-.88.37,0,.78-.05,1.06.37"/>
      <path class="cls-4" d="m244.28,151.95v.32c-1.1.23-2.16-.05-2.99-.69-.64-.93-1.38-1.85-2.44-2.32,0-.14-.28-.32,0-.42,2.3,0,3.68,1.85,5.43,3.1"/>
      <path class="cls-4" d="m354.38,148.89c-1.06,1.58-1.98,3.52-3.86,4.22-.32,0-.6.46-.88.14.74-1.76,2.3-3.66,4.1-4.4.18,0,.46-.05.64.05"/>
      <path class="cls-4" d="m255.18,149.44c.05.51-.32.6-.64.88-.37.05-.55-.23-.78-.51-.18-.47.23-.65.46-.88.37-.09.78.18.97.51"/>
      <path class="cls-4" d="m360.17,149.72c-.41.6-.23,1.48-.64,2.13-.92,1.06-1.7,2.27-3.18,2.5-.23-.46.32-.93.55-1.34.64-1.39,1.56-2.96,3.04-3.57l.23.28Z"/>
      <path class="cls-4" d="m230.02,150.14c.14.32.28.65,0,1.02-.28.23-.69.32-1.06.19-.41-.23-.55-.74-.37-1.11.28-.42,1.1-.65,1.43-.09"/>
      <path class="cls-4" d="m227.4,150.7c.05.23.18.42.14.65-.14.23-.37.51-.64.56-.51.09-.83-.19-1.06-.6-.05-.42.09-.79.46-.97.42-.19.88.05,1.11.37"/>
      <path class="cls-4" d="m232.82,150.97c.09.37.18,1.02-.37,1.11-.64.28-1.01-.18-1.38-.56,0-.42.23-.74.55-.93.46-.05.87,0,1.19.37"/>
      <path class="cls-4" d="m240.37,151.58c-.05.32.05.79-.32.88-.23.23-.64.14-.87.09-.09-.28-.6-.51-.32-.83.18-.23.37-.37.64-.51.28.14.69,0,.87.37"/>
      <path class="cls-4" d="m364.59,151.9c-.14.32-.32.74-.69.74-.41-.05-.83-.09-1.06-.51-.18-.51.23-.79.6-.93.46,0,1.06.18,1.15.69"/>
      <path class="cls-4" d="m356.17,152.13c.05.37-.37.65-.55.79-.64.28-1.2-.18-1.43-.69.09-.42.42-.69.78-.83.6-.05.92.28,1.2.74"/>
      <path class="cls-4" d="m361.88,152.04c0,.32-.18.65-.41.79-.37.14-.83.09-1.11-.18-.41-.37-.09-.7.19-.97.41-.23,1.19-.19,1.33.37"/>
      <path class="cls-4" d="m228.82,152.83c.09.51-.09.97-.55,1.16-.42,0-.87-.23-1.01-.65-.05-.42.09-.83.46-.97.46-.14.83.14,1.1.46"/>
      <path class="cls-4" d="m353.87,153.34c.14.51-.14.97-.64,1.21-.37.09-.6-.09-.87-.32-.18-.23-.41-.74-.05-.97.37-.69,1.29-.42,1.56.09"/>
      <path class="cls-4" d="m253.57,153.85c.18.51-.37.6-.5.88-.18.09-.55.14-.69-.05-.23-.28-.51-.56-.37-.97.23-.19.32-.37.6-.46.51-.14.69.32.97.6"/>
      <path class="cls-4" d="m363.76,154.17c.09.32-.18.46-.23.69-.28.23-.74.28-1.06.19-.41-.23-.41-.6-.41-1.02.28-.19.32-.42.64-.51.41,0,.92.19,1.06.65"/>
      <path class="cls-4" d="m360.91,154.31c.18.56-.32.83-.69.97-.18.05-.46-.09-.51.19,1.2.6,1.93,1.58,2.85,2.46v.37c-1.66-.05-3.36-.46-4.55-1.76-.32-.23-.87-.23-1.24-.56.6-.6,1.7-.37,2.53-.42.6-.65-.69-1.11.09-1.67.28-.05.46-.32.83-.23.32.14.51.37.69.65"/>
      <path class="cls-4" d="m342.09,154.36c.09.23-.18.51-.23.74-.28.28-.69.32-1.01.19-.23-.32-.6-.6-.46-1.07.37-.69,1.56-.56,1.7.14"/>
      <path class="cls-4" d="m239.22,155.98c-.14.42-.32.69-.78.74-.37-.05-.69-.18-.83-.56-.05-.32.18-.51.23-.74.51-.42,1.43-.14,1.38.56"/>
      <path class="cls-4" d="m242.95,155.38c0,.65-.69,1.02-.92,1.67-.69,1.53-1.93,2.92-3.68,3.06-.18-.42.6-.93.78-1.34.73-1.58,2.21-2.41,3.54-3.38h.28Z"/>
      <path class="cls-4" d="m340.99,156.02c.05.51-.41.88-.78,1.07-.41.14-.74-.19-.97-.37-.37-.37-.14-.74.05-1.11.55-.56,1.33-.09,1.7.42"/>
      <path class="cls-4" d="m343.84,156.35c-.05.51-.37.88-.83,1.02-.09-.14-.32-.05-.46-.09-.32-.19-.6-.46-.6-.83.23-.23.32-.6.64-.65.42-.05,1.11,0,1.24.56"/>
      <path class="cls-4" d="m250.08,156.3c.05.51-.32.79-.69.97-.42.05-.69-.23-.87-.56-.09-.42.32-.69.55-.93.55-.19.69.23,1.01.51"/>
      <path class="cls-4" d="m253.25,156.49c-.14.42-.42.7-.88.79-.32-.09-.69-.18-.83-.56-.04-.46.32-.69.64-.93.46,0,.97.19,1.06.69"/>
      <path class="cls-4" d="m353.73,159.73c.23.18.64.42.55.74-.73.32-1.33-.51-2.02-.65-1.11-1.11-1.93-2.32-2.39-3.71.41-.42.87.09,1.24.23,1.06.88,2.07,2.04,2.62,3.38"/>
      <path class="cls-4" d="m355.44,156.49c.14.32.09.7-.09,1.02-.28.46-.87.37-1.29.28-.23-.28-.64-.65-.37-1.07.14-.37.55-.46.87-.6.32-.05.55.23.87.37"/>
      <path class="cls-4" d="m257.48,157.69c.05.37.14.93-.32,1.16-.41.09-.97-.05-1.1-.56-.23-.56.27-.65.55-.93.37-.09.6.09.87.32"/>
      <path class="cls-4" d="m343.7,160.7c.64.93,1.1,2.08,1.19,3.29-.14.32.23.65-.05.88h-.18c-2.07-1.48-2.53-3.57-3.31-5.65-.18-.09-.23-.28-.18-.46.46-.42.78.42,1.24.56l1.29,1.39Z"/>
      <path class="cls-4" d="m263.46,159.13s0,.09.05.09c-1.84,1.3-4.42,2.09-6.53.83-.05-.14.05-.37.23-.42,1.34-.42,2.62-1.07,4.05-.88l2.21.37Z"/>
      <path class="cls-4" d="m252.97,159.36c-1.56.97-2.99,2.87-4.92,3.34-.37.14-.6.65-1.06.37.83-2.5,3.54-3.85,5.98-4.08v.37Z"/>
      <path class="cls-4" d="m340.99,161.45c.14.37,0,.88-.37.97-.23.23-.69.23-.87,0-.41-.19-.41-.6-.41-.93.14-.32.46-.37.69-.51.41.09.74.09.97.46"/>
      <path class="cls-4" d="m337.17,161.68c-.28.65-1.06,1.02-1.66,1.21-1.56.56-2.99-.19-4.37-.56.05-.37.51-.23.74-.46,1.52-.32,3.08-.65,4.69-.23.14-.09.46-.14.6.05"/>
      <path class="cls-4" d="m252.97,163.02c-.14.19-.18.6-.55.74-.32.14-.64,0-.92-.18-.09-.28-.42-.51-.18-.84.09-.32.46-.42.74-.51.46.05.83.32.92.79"/>
      <path class="cls-4" d="m255.69,163.44c-.14.28-.27.69-.64.88-.37.09-.65-.09-.92-.32-.14-.28-.27-.6-.14-.93.09-.23.41-.28.64-.42.46-.05.87.42,1.06.79"/>
      <path class="cls-4" d="m340.11,163.9c.05.37-.14.6-.32.88-.23.32-.69.37-1.01.19-.32-.05-.42-.42-.55-.65-.28-.37.18-.6.32-.93.5-.42,1.33-.19,1.56.51"/>
      <path class="cls-4" d="m342.14,163.81c.05.23.18.46.09.65-.28.23-.46.83-1.01.6-.27.09-.41-.28-.55-.37-.19-.46-.05-1.16.55-1.25.41-.14.69.23.92.37"/>
      <path class="cls-4" d="m254.03,165.15c.09.51-.09.97-.46,1.25-.5.09-1.15.09-1.34-.51-.05-.46,0-1.07.55-1.34.46-.05,1.01.05,1.24.6"/>
      <path class="cls-4" d="m256.66,164.97c-.09,1.3-.37,2.87-1.66,3.61-.74.14-1.47.84-2.21.37v-.23c.97-1.39,2.71-2.46,3.86-3.75"/>
      <path class="cls-4" d="m332.89,166.03c.18.28-.14.51-.28.74-.27.32-.78.18-1.1.05-.32-.14-.37-.6-.23-.93.09-.28.37-.42.6-.51.42-.05.78.33,1.01.65"/>
      <path class="cls-4" d="m261.26,168.17c.64,1.07.28,2.5.64,3.66-.78.09-1.1-.79-1.61-1.25-1.01-1.39-.87-3.24-1.34-4.87.09-.14.23-.14.32-.09.69.46,1.19,1.34,1.75,1.95-.09.32.28.32.23.6"/>
      <path class="cls-4" d="m335.19,166.4c0,.37-.41.46-.64.69-.32-.05-.6-.18-.87-.42-.14-.46.23-.6.46-.83.46-.19.92.05,1.06.56"/>
      <path class="cls-4" d="m340.67,170.53c0,.14-.05.42-.28.32h-.18c-1.33-1.21-2.67-2.55-2.48-4.4l.28-.05c1.24,1.07,2.62,2.22,2.67,4.12"/>
      <path class="cls-4" d="m337.22,169.05c.05.37-.18.65-.41.88-.51.14-1.29.09-1.38-.6-.04-.46.46-.7.69-.93.55-.14.92.23,1.1.65"/>
      <path class="cls-4" d="m334.18,170.02c-.64,1.71-2.39,2.59-3.59,3.89-.23-.14-.14-.51-.09-.7.46-1.76,1.84-3.47,3.54-4.17.74.09,0,.6.14.97"/>
      <path class="cls-4" d="m337.63,171.41c0,.42-.41.6-.64.83-.37-.05-.74-.14-1.01-.51-.05-.46.32-.6.6-.83.46-.09.87.14,1.06.51"/>
      <path class="cls-4" d="m303.4,87.28c.63,0,1.14.51,1.14,1.14s-.51,1.15-1.14,1.15h-13.64c-.63,0-1.14-.51-1.14-1.15s.51-1.14,1.14-1.14h13.64Zm-9.65,1.98c1.33,0,.07-1.62-.64-1.62h-1.33c-1.33,0-.07,1.62.64,1.62h1.33Zm5.59,0c1.33,0,.07-1.62-.64-1.62h-1.33c-1.33,0-.07,1.62.64,1.62h1.33Zm4.12-1.62h-.51c-1.33,0-.2,1.62.52,1.62.89,0,.95-1.62,0-1.62"/>
      <path class="cls-4" d="m302.2,102.93l2.61,1,2.56-1-1.01,3.84,2.03-.42-.69,2.33.69,2.23-1.8-.49.79,4.14-2.56-1-2.61,1,1.06-4.14-2.08.58.56-2.33-.56-2.23,1.99.33-.97-3.84Zm3.85,6.92c.59,0,.64-.81.64-1.5,0-1.58-1.25,0-1.89-1.49-.47,1.26-1.75.09-1.75,1.44,0,.93,0,1.55.92,1.55h2.09Zm-2.55-1.42c0,.6.81.2,1.41.2s1.41.4,1.41-.2c0-.86-.81-.56-1.41-.56s-1.41-.3-1.41.56"/>
      <polygon class="cls-4" points="296.1 108.58 296.1 108.09 295.66 108.01 296 107.65 295.79 107.26 296.24 107.31 296.51 106.83 296.77 107.3 297.23 107.26 297.01 107.65 297.36 108.01 296.92 108.09 296.92 108.58 296.51 108.27 296.1 108.58"/>
      <polygon class="cls-4" points="294.08 111.18 294.08 110.7 293.64 110.61 293.98 110.26 293.77 109.87 294.22 109.91 294.49 109.44 294.75 109.91 295.21 109.87 294.99 110.26 295.34 110.61 294.9 110.7 294.9 111.18 294.49 110.88 294.08 111.18"/>
      <polygon class="cls-4" points="297.51 110.85 297.51 110.37 297.07 110.28 297.41 109.93 297.2 109.53 297.65 109.58 297.92 109.11 298.18 109.58 298.64 109.53 298.43 109.93 298.77 110.28 298.33 110.37 298.33 110.85 297.92 110.54 297.51 110.85"/>
      <polygon class="cls-4" points="297.91 112.8 297.91 112.52 297.67 112.48 297.86 112.28 297.74 112.05 297.99 112.08 298.15 111.81 298.29 112.08 298.55 112.05 298.43 112.28 298.62 112.48 298.38 112.52 298.38 112.8 298.15 112.62 297.91 112.8"/>
      <polygon class="cls-4" points="294.72 115.03 294.72 114.19 293.98 114.05 294.56 113.44 294.2 112.77 294.97 112.85 295.43 112.03 295.88 112.84 296.66 112.77 296.3 113.44 296.88 114.05 296.14 114.19 296.14 115.03 295.43 114.5 294.72 115.03"/>
      <polygon class="cls-4" points="296.35 71.31 297.97 75.3 302.07 74.09 299.99 77.85 303.49 80.33 299.27 81.03 299.52 85.33 296.35 82.45 293.17 85.33 293.43 81.03 289.21 80.33 292.71 77.85 290.62 74.09 294.73 75.3 296.35 71.31"/>
      <path class="cls-4" d="m281.5,160.68c-.49.18-.68.32-.56.82l.58,2.44c.11.45.14,1.16-.16,1.6-.36.52-1.12.86-1.67.99-.4.1-1.27.26-1.97-.04-.46-.2-.76-.41-.96-1.24l-.61-2.56c-.15-.64-.39-.6-.91-.53l-.05-.19,3.08-.74.05.19c-.6.17-.88.24-.72.92l.61,2.56c.1.44.35,1.49,1.67,1.18,1.61-.39,1.35-1.56,1.23-2.05l-.55-2.34c-.11-.47-.28-.7-1.08-.54l-.04-.19,2.01-.48.05.19Z"/>
      <path class="cls-4" d="m286.08,161.19c-.28-.5-1.03-1.26-2.11-1.02-.48.11-.93.45-.82.95.09.41.3.54,1.14.7l1.47.26c.34.06,1.13.35,1.32,1.19.15.68-.23,1.74-1.92,2.11-.87.19-1.34.03-1.62.09-.19.04-.21.19-.22.32l-.27.06-.42-1.9.26-.06c.35.74,1.08,1.48,2.24,1.23,1.1-.24.98-1.02.95-1.12-.11-.52-.58-.6-1.23-.71l-.67-.11c-1.71-.28-1.85-.94-1.93-1.29-.1-.47-.05-1.58,1.69-1.97.73-.16,1.22,0,1.48-.06.21-.05.23-.17.24-.33l.27-.06.37,1.67-.26.06Z"/>
      <path class="cls-4" d="m292.15,164.22l-3.33.32-.02-.19c.68-.11.9-.15.84-.81l-.39-4.13c-.65.1-1.61.23-1.68,1.5l-.27.03-.12-1.58,5.61-.54.17,1.57-.27.03c-.31-1.24-1.27-1.18-1.92-1.15l.39,4.13c.06.67.29.66.98.63l.02.2Z"/>
      <path class="cls-4" d="m299.95,164.22l-1.92-.04-1.89-2.5h-.25s-.03,1.54-.03,1.54c-.01.63.19.66.81.74v.2s-3.17-.06-3.17-.06v-.2c.64-.05.83-.07.84-.71l.07-3.48c.01-.68-.28-.7-.81-.74v-.2s3.02.06,3.02.06c.66.01,2.64.11,2.62,1.44-.02.97-.99,1.19-1.5,1.32l1.84,2.28c.13.14.27.16.38.16v.2Zm-4.06-2.8c1.23.02,1.72-.15,1.74-1.17.02-.8-.36-1.14-1.11-1.16-.52,0-.54.08-.59.32l-.04,2.01Z"/>
      <path class="cls-4" d="m306.11,165.02l-3.02-.38.03-.19c.58.03.75.05.78-.21.03-.21-.2-.83-.3-1.09l-2.09-.26c-.33.53-.52.83-.54.96-.04.3.41.38.72.43l-.02.19-1.89-.24.02-.19c.51,0,.67-.25,1.02-.8l2.6-4.02.26.03,1.57,4.37c.32.89.43,1.17.88,1.21l-.03.2Zm-2.61-2.2l-.71-2.02-1.11,1.79,1.82.23Z"/>
      <path class="cls-4" d="m311.57,166.13l-5.34-.98.04-.19c.53.04.81.07.89-.4l.68-3.75c.09-.51-.28-.6-.69-.7l.03-.19,3.22.59-.04.19c-.65-.09-.94-.14-1.06.54l-.66,3.66c-.07.37.12.47.74.59,1.39.26,2.03-.29,2.61-1.09l.27.05-.7,1.69Z"/>
      <path class="cls-4" d="m315.11,166.92l-3.21-.68.04-.19c.5.07.87.11.97-.37l.77-3.73c.11-.51-.32-.61-.74-.73l.04-.19,3.21.67-.04.19c-.43-.07-.88-.16-.98.37l-.77,3.73c-.1.49.26.6.76.73l-.04.19Z"/>
      <path class="cls-4" d="m321.64,167.76l-3.03-.31.02-.2c.58.02.75.03.78-.23.02-.21-.22-.82-.32-1.09l-2.1-.22c-.32.54-.5.84-.52.97-.03.3.42.37.73.42l-.02.2-1.9-.2.02-.2c.51-.01.67-.26,1.01-.82l2.51-4.08.26.03,1.66,4.34c.33.88.46,1.16.91,1.19l-.02.2Zm-2.66-2.14l-.75-2-1.07,1.81,1.82.19Z"/>
      <path class="cls-4" d="m297.64,104.21c0-1.89-1.06-.12-1.65-1.73-.43,1.36-1.71.21-1.71,1.68,0,.56.14.88.42,1.06v.56c0,.14.12.26.26.26h2.01c.14,0,.26-.12.26-.26v-.61c.24-.21.41-.53.41-.96m-1.64.36c-.55,0-1.3.38-1.3-.27,0-.93.63-.72,1.18-.72s1.41-.21,1.41.72c0,.66-.74.27-1.29.27"/>
      <path class="cls-4" d="m314.1,127.43c.48,0,.87-.34.87-.77s-.39-.76-.87-.76-.87.34-.87.76.39.77.87.77"/>
      <path class="cls-4" d="m310.03,99.4s-.41.69-.41.81c0,.25.19.45.41.45s.41-.2.41-.45c0-.01-.42-.81-.42-.81"/>
      <path class="cls-4" d="m282.24,99.4s-.41.69-.41.81c0,.25.19.45.41.45s.41-.2.41-.45c0-.01-.42-.81-.42-.81"/>
      <path class="cls-4" d="m289.18,99.4s-.41.69-.41.81c0,.25.19.45.41.45s.41-.2.41-.45c0-.01-.42-.81-.42-.81"/>
      <path class="cls-4" d="m296.13,99.4s-.41.69-.41.81c0,.25.19.45.41.45s.41-.2.41-.45c0-.01-.42-.81-.42-.81"/>
      <path class="cls-4" d="m303.08,99.4s-.41.69-.41.81c0,.25.19.45.41.45s.41-.2.41-.45c0-.01-.42-.81-.42-.81"/>
      <path class="cls-4" d="m282.25,108.94s.41.69.41.81c0,.25-.18.45-.41.45s-.41-.2-.41-.45c0-.01.42-.81.42-.81"/>
      <path class="cls-4" d="m282.25,118.21s.41.69.41.81c0,.25-.18.45-.41.45s-.41-.2-.41-.45c0-.01.42-.81.42-.81"/>
      <path class="cls-4" d="m283.36,125.54s.41.69.41.81c0,.25-.19.45-.42.45s-.41-.2-.41-.45c0-.01.42-.81.42-.81"/>
      <path class="cls-4" d="m289.19,129.44s.41.69.41.81c0,.25-.19.45-.41.45s-.41-.2-.41-.45c0-.01.42-.81.42-.81"/>
      <path class="cls-4" d="m310.38,108.94s-.4.69-.4.81c0,.25.19.45.41.45s.41-.2.41-.45c0-.01-.42-.81-.42-.81"/>
      <path class="cls-4" d="m310.38,118.21s-.4.69-.4.81c0,.25.19.45.41.45s.41-.2.41-.45c0-.01-.42-.81-.42-.81"/>
      <path class="cls-4" d="m309.27,125.54s-.41.69-.41.81c0,.25.19.45.41.45s.41-.2.41-.45c0-.01-.42-.81-.42-.81"/>
      <path class="cls-4" d="m303.44,129.44s-.41.69-.41.81c0,.25.19.45.41.45s.41-.2.41-.45c0-.01-.42-.81-.42-.81"/>
      <path class="cls-4" d="m296.35,133.58s-.41.69-.41.81c0,.25.18.45.41.45s.41-.21.41-.45c0-.01-.42-.81-.42-.81"/>
      <path class="cls-4" d="m307.65,119.75c.09.13.31.18.58.08l.26-.75c.02-.05-.3-.35-.5-.3-.74.18-1.53.27-1.97.97,0,.48.35.92.7,1.14.26-.09.31.18.48.31.04.22-.09.4-.31.4-.53-.53-1.44.18-1.84-.48.17-.66.53-1.41-.04-2.03.04-.13.26-.26.13-.4-.22-.62-.87-.13-1.27-.13-.65-.09-1.18.26-1.57.79.04.22.13.44.35.66.18-.04.26,0,.31.18l-.44.26c.13.13.13.31.18.48-.31.13-.61-.31-.74-.53,0-.35.04-.97-.44-1.06-.09,0-.38.13-.38.13-.11.13-.18.41-.18.73s.17.79.17.79c0,0,1.35,1,1.65,1.61-.39.79-.39,1.89-1.31,2.33-.26.18-.26.44-.26.71l.22.18c.57-.31,1.66-.4,1.57-1.36.22-.4.44-.84.83-1.14.44-.09.83.13,1.01.48-.13.66-.57,1.1-1.18,1.32-.09.09-.04.22-.04.35.18.31.66.18.92.13.74-.49,1.05-1.37,1.71-1.63.09.44-.87.57-.26,1.01.39-.09.92.04,1.18-.48-.31-.75,1.05-1.1.22-1.76,0-.66.7-.92.65-1.63-.26-.7-1.09-.7-1.31-1.36.26-.18.66-.13.92,0"/>
      <path class="cls-4" d="m275.73,127.76c.48,0,.87-.34.87-.77s-.39-.76-.87-.76-.87.34-.87.76.39.77.87.77"/>
      <path class="cls-4" d="m230.67,154.09c.47,0,.85-.37.85-.82s-.38-.82-.85-.82-.85.37-.85.82.38.82.85.82"/>
      <path class="cls-4" d="m259.34,160.48h-.06l-.05-.07h0v.04s0,.02.02.02h0s-.09,0-.09,0h0s.02,0,.02-.03v-.1s0-.02-.02-.02h0s.09,0,.09,0c.02,0,.08,0,.08.04,0,.03-.03.03-.04.04l.05.06s0,0,.01,0h0Zm-.12-.08s.05,0,.05-.03c0-.02-.01-.03-.03-.03-.02,0-.02,0-.02.01v.06Z"/>
      <path class="cls-4" d="m259.47,160.37s-.02-.04-.05-.04c-.01,0-.03,0-.03.02,0,.01,0,.02.03.03l.04.02s.03.02.03.04c0,.02-.02.05-.07.05-.02,0-.04,0-.05,0s0,0,0,0h0v-.06h0s.02.05.06.05c.03,0,.03-.02.03-.03,0-.02-.01-.02-.03-.03h-.02s-.05-.05-.05-.06c0-.01,0-.05.06-.05.02,0,.04,0,.04,0,0,0,0,0,0,0h0v.05h0Z"/>
      <path class="cls-4" d="m259.75,160.33s-.02,0-.02.02l-.05.14h0l-.05-.11h0l-.05.11h0l-.06-.14s0-.01-.02-.02h0s.08,0,.08,0h0s-.02,0-.02.02c0,0,0,0,0,0l.03.08h0l.03-.07v-.02s-.02,0-.03,0h0s.09,0,.09,0h0s-.02,0-.02.02c0,0,0,0,0,.01l.03.08h0l.03-.08s0,0,0,0c0-.01-.01-.01-.02-.01h0s.05,0,.05,0h0Z"/>
      <path class="cls-4" d="m259.76,160.48s.06-.02.07-.06c0,0,0,0-.01,0s0,0-.01,0c-.02,0-.05,0-.05-.05,0-.01,0-.05.06-.05.02,0,.06.01.06.07,0,.04-.04.09-.12.09h0Zm.06-.06s.01,0,.01,0c0,0,0-.02,0-.02,0-.05,0-.06-.02-.06-.02,0-.02.01-.02.03,0,.03,0,.05.02.05"/>
      <path class="cls-4" d="m259.92,160.37s.04,0,.06.01c.01,0,.03.02.03.04,0,.03-.03.05-.08.05-.02,0-.04,0-.04-.02,0,0,0-.02.02-.02.02,0,.03.02.05.02,0,0,.03,0,.03-.02,0-.01-.02-.02-.03-.03-.02,0-.04,0-.06,0l.03-.08h.09v.03h-.09v.02Z"/>
      <path class="cls-4" d="m312.33,98.3v-.02h-32.06v.02h0l.03,24.5c0,2.5,1.06,4.68,2.52,5.36l12.33,7.83c.27.31.67.51,1.13.51.39,0,.74-.15,1-.39l12.52-7.95c1.46-.67,2.52-2.86,2.52-5.36l.03-24.5h0Zm-.9,24.83c-.17,1.85-.8,3.4-2.08,4.27l-12.09,7.68h-.07c-.26.2-.58.33-.93.33s-.69-.13-.95-.34l-12.07-7.67c-1.28-.87-1.91-2.42-2.08-4.27v-23.97h30.26v23.97Z"/>
      <path class="cls-4" d="m300.62,134.02l.39-.19c-.16.06-.28.12-.39.19"/>
      <path class="cls-4" d="m276.43,167.51l-3.02.35-.02-.2c.57-.11.74-.13.71-.39-.02-.21-.39-.76-.55-.99l-2.1.24c-.2.59-.31.93-.3,1.06.03.3.49.27.8.25l.02.2-1.89.22-.02-.19c.5-.12.6-.4.81-1.02l1.58-4.52.26-.03,2.55,3.87c.52.79.7,1.04,1.14.97l.02.19Zm-3.05-1.52l-1.16-1.79-.66,2,1.82-.21Z"/>
      <path class="cls-4" d="m329.53,156.02c-.55-1.44-1.7-2.41-3.13-2.87-1.47-.32-3.04-.09-4,1.02-1.66,1.34-.51,3.57-.46,5.38,0,.37.05.65-.32.84-6.67-.6-12.88-2.27-19.51-2.97-1.52-.26-3.05-.19-4.5-.5l-1.85-.2c-5.75.19-11.5.51-16.88,1.9-1.15.37-2.44.46-3.59.88-.83-.14-1.52.46-2.3.23l-1.51.35c-.14.02-.31.02-.51-.03-.74-1.9,1.47-3.06.78-4.91-.6-1.07-1.79-2.09-3.17-1.9-1.56-.19-2.94.7-3.68,1.9-1.06,2.32.28,4.73.69,7-.09.74.74,1.58,0,2.18-1.47-1.02-3.4-1.58-5.2-1.07-.55.28-1.56-.09-1.84.56,1.98,1.07,4.51.93,6.72.83.28-.09.46-.14.69.05.18,1.21-.23,2.83.51,3.89.83,1.11,2.21,1.39,3.54,1.53,4.23-.14,8.01-1.39,11.87-2.36.6-.05,1.06-.37,1.7-.37,2.07-.46,4.32-.84,6.53-.88-.97,1.25-1.52,2.64-1.93,4.17-.55,1.25.97,1.44,1.43,2.13-1.43.42-2.44,1.39-3.77,1.95-2.94-.09-5.43,1.02-8.19,1.34-.05.6.97.42,1.06,1.02-.14.42-.55.46-.87.69-.05.28,0,.32.28.37.28-.32.87-.09,1.15-.42.92,0,1.7-.28,2.58-.32.78-.32,1.66-.37,2.35-.93.97-.28,1.56-.93,2.53-1.2,1.38,0,2.62-.46,3.91-.56v.28c-1.06,1.71-2.16,3.48-3.27,5.1-.18.32.05.65.32.74.64.18,1.29,0,1.79-.28.97-1.67,1.84-3.24,2.62-4.96.32-1.58,1.47-2.41,2.62-3.48.18-.09.46-.37.64-.09-.92,1.07-1.52,2.09-2.21,3.24-.37,1.3-.46,2.96.69,4.03.55.46,1.38.32,2.12.37,1.79-.93,4.09.56,5.47-1.21.83-.14.96.83,1.42,1.3.78.23,1.61,1.02,2.39.46-.05-.51-.6-.97-.87-1.44-.55-.97-1.24-1.76-1.75-2.64-.23-.65-.64-1.07-.74-1.72.83.28,1.56.84,2.49.97.78.32,1.75.28,2.48.74.6.79,1.52,1.25,2.3,1.76,1.15.56,2.44.65,3.63,1.11.46.05,1.15.42,1.47,0-.18-.23-.41-.37-.69-.51-.14-.6.83-.28,1.15-.74-.11-.23-.31-.32-.53-.35-.66-.35-2.3-.48-2.73-.72-.55-.09-1.06-.32-1.61-.51-2.76,0-4.28-2.5-6.49-3.43.51-.46,1.29-.84,1.61-1.53.41-.65.55-1.71.14-2.46-.41-1.44-2.25-1.25-3.31-2.04l.14-.14c1.79-.09,3.36.32,4.97.65,4.42.6,8.51,2.27,13.11,2.36,2.53,0,5.7.14,6.95-2.32.23-1.44.51-2.87.74-4.31.55-2.32,2.07-4.45,1.84-7m-49.69,21.13l-.64-.6c.32-.42,1.01-.19,1.52-.47,1.2-.37,2.58-.83,3.91-.55-1.38,1.11-3.17,1.25-4.79,1.62m28.72-.74c1.1.5,3.31.98,4.91,1.16-.14.63-1.27.04-1.13.92-1.43-.56-3.08-.84-4.14-1.95.09-.05.19-.19.37-.14m-43.17-19.7c.14-.83.32-1.71,1.1-2.32,1.11-.6,2.62-.46,3.64.14.32.19.55.46.74.88.23.79-.14,1.62-.69,2.09h-.46c0-.74,0-1.48.27-2.09-.05-.56-.51-.6-.87-.83-.78-.23-1.47.14-2.07.46-.46.56-.87,1.25-.6,2.04.32.51.04,1.21.23,1.76l-.14.19c-.55-.6-1.29-1.25-1.15-2.32m2.16,1.33c.69.51,1.66.28,2.48.42.14.51.14,1.16-.23,1.58-.78-.19-1.79-.09-2.21-.83.09-.33-.14-.79-.05-1.16m-.14-1.56c.14-.37,0-.93.51-1.02.32-.09.83-.09.87.28-.05.56-.09,1.11-.23,1.62-.64.05-.97-.32-1.15-.88m21.58,14.87c-.23-1.62.42-3.01,1.47-4.17.64-.14,1.38-.28,1.98.09-1.2.32-2.72.6-2.99,2.13.05.6-.14.93.14,1.44.51.88,1.66.51,2.3,1.21,0,.23-.18.51-.41.56-.78-.46-1.75-.65-2.49-1.25m-1.66,3.2c1.11-.46,2.25-1.44,3.5-1.02-.87.69-2.3.97-3.5,1.02m4.37.46c-.64,1.48-1.38,2.92-2.26,4.36-.09.23-.46.28-.73.32,0-.65.64-1.16.92-1.71.97-1.25,1.24-2.59,2.35-3.8.28.28-.27.46-.27.83m1.15-2.69v.18h-.09v-.23h.18s-.14,0-.18.05h.09Zm-.41-1.25c-.78-.09-1.52-.32-2.21-.55-.46-.46,0-.97,0-1.48.64-1.02,2.48-1.53,3.36-.6-.14,1.02-.51,1.9-1.15,2.64m1.01,0c.14-.6.42-1.39.74-1.95-.05.6-.32,1.44-.74,1.95m.51-3.75c-.6-.14-.92-.83-1.56-.83.55-.19,1.1-.14,1.75-.05.23.32-.14.6-.18.88m.55,1.39h-.05v-.51h.05v.51Zm.05,2.13c-.05-.18.09-.42.14-.65.23-.23.46.19.55.32-.14.23-.42.37-.69.32m.69-2.87c.23-.65.28-1.2.69-1.71.46,0,.87,0,1.24.19.09.93,1.24,2.18,0,2.97-.41.19-1.01.6-1.47.19-.6-.51-.69-.97-.46-1.62m3.36-1.3c-.09-.42.41-.09.6-.28l1.43.09c-.74-.09-1.66,1.62-2.03.19m2.3.6c-.55.19-.97.84-1.52.97.28-.51.97-1.02,1.52-.97m-1.93,3.01h-.05v-.14h.05v.14Zm.09,2.69c-.05.09.05.23-.09.32l-1.06-.83c.51-.09.88.14,1.15.51m-1.24-1.44c.09-.09.32-.09.41,0h-.41Zm-.64-.7c.18-.28.41-.69.74-.69,0,.05.05.09.09.14-.28.23-.51.46-.83.55m-1.06-.09h-.18l.27-.28c.14.09-.05.19-.09.28m.14,1.76c.6-.65,1.15.37,1.38.88.69,1.02,2.48,1.95,1.79,3.34-.88.79-2.26.05-3.22.65-.51-.05-1.38.09-1.66-.42.51-1.48.97-3.15,1.7-4.45m-1.29.88l.23-.37c-.37,1.11-.92,2.27-1.52,3.34-.27-1.11.88-1.99,1.29-2.97m2.03,5.52c-.87.05-2.21.56-3.04-.19.05-.37-.37-.56-.32-.93.74-.28,1.38.6,2.07-.05,1.06.05,2.16-.14,3.22.09.51.14,1.29-.84,1.38.14-.37,1.53-2.21.46-3.31.93m2.67-6.81h.09v.14h-.09v-.14Zm.28,3.06c.05.46.51.65.23,1.07-.09-.19-.37-.6-.23-1.07m1.29,2.78l-.23.09c-.23-.19-.14-.7-.09-.97.27.23.51.56.32.88m2.3,1.11c-.05.14-.28.14-.37.05-1.38-1.76-2.02-3.61-2.9-5.56l.18-.05c1.1,1.81,1.98,3.8,3.08,5.56m1.7-4.26c-.09.05-.09.14-.09.19-1.34.05-2.21-.74-3.22-1.44l-.05-.23c1.24.09,2.25.88,3.36,1.48m-1.2-6.16c.55.14.6.74.64,1.2-.05,1.02-.6,1.9-1.56,2.27-.51.28-1.29.37-1.8.19,1.11-.05,2.3-.46,2.76-1.58l-.05-2.08Zm-1.01-.19c.23.65.64,1.25.41,2.04-.46.88-1.38.88-2.21,1.07-.41.05-.74-.09-1.06-.32.05-.19-.05-.32-.18-.46.14-.6-1.06-1.21-.23-1.72.74-.69,2.48-2.27,3.27-.6m23.37-3.38c-.37.46-.05,1.2-.51,1.62,0,.83-.69,1.25-1.29,1.58-5.47,1.21-10.86-.65-16.15-1.58-7.41-1.62-16.06-2.09-23.6-.37-3.54.65-6.99,1.48-10.4,2.46-2.12.28-4.42.6-6.44-.05-1.66-.79-.97-2.92-1.47-4.4.09-1.16-.32-2.08-.37-3.2-.14-.37-.23-.83-.18-1.21.69.09,1.38.6,2.12.79,3.86.74,7.32-.51,10.9-1.16,3.45-.74,6.99-1.34,10.63-1.62,4.14-.05,8.37-.28,12.33.42,1.29.05,2.39.37,3.63.46,2.58.32,4.97,1.02,7.59,1.2.41.14.92.14,1.38.23,4.14.65,8.79,1.81,12.74,0,0,1.67-.69,3.2-.92,4.82m-1.29-5.65c.04.74-.64.56-1.01.83h-1.1c-.23-.37-.14-.93-.14-1.3.73.14,1.56.14,2.25.46m-.51-1.16c.51-.51-.14-3.43,1.29-1.53,0,.37.05.93-.32,1.21-.23.19-.6.56-.97.32m3.73-.46c-.41.84-1.06,1.44-1.98,1.58.05-1.11,1.06-1.9.69-3.15-.6-.88-1.8-1.16-2.9-.93-.42.28-.23.74-.37,1.16l-.18,1.53c-.92,0-.97-.83-1.24-1.48.05-.97.46-1.95,1.43-2.41.74-.37,1.93-.32,2.67.09.6.14,1.29.42,1.52.97.69.65.51,1.81.37,2.64"/>
    </g>
  </g>
  <g>
    <path class="cls-4" d="m663.16,138v-46.21h14.22c4.06,0,7.7.92,10.9,2.75,3.21,1.83,5.71,4.43,7.51,7.81,1.8,3.37,2.7,7.21,2.7,11.5v2.13c0,4.3-.88,8.11-2.65,11.46s-4.26,5.93-7.47,7.78c-3.22,1.84-6.84,2.77-10.89,2.79h-14.31Zm9.52-38.5v30.85h4.6c3.72,0,6.57-1.22,8.54-3.65,1.97-2.43,2.97-5.91,3.02-10.44v-2.44c0-4.7-.97-8.26-2.92-10.68s-4.79-3.63-8.54-3.63h-4.7Z"/>
    <path class="cls-4" d="m723.85,138h-9.52v-46.21h9.52v46.21Z"/>
    <path class="cls-4" d="m777.55,132.16c-1.71,2.05-4.14,3.64-7.27,4.78s-6.6,1.7-10.41,1.7c-4,0-7.51-.87-10.52-2.62s-5.34-4.28-6.98-7.6-2.48-7.23-2.52-11.71v-3.14c0-4.61.78-8.61,2.33-11.98s3.8-5.96,6.73-7.74,6.36-2.68,10.3-2.68c5.48,0,9.76,1.31,12.85,3.92s4.92,6.42,5.49,11.41h-9.27c-.42-2.64-1.36-4.58-2.81-5.81s-3.44-1.84-5.98-1.84c-3.24,0-5.7,1.22-7.39,3.65-1.69,2.43-2.55,6.05-2.57,10.85v2.95c0,4.85.92,8.51,2.76,10.98,1.84,2.48,4.54,3.71,8.09,3.71s6.13-.76,7.65-2.29v-7.97h-8.66v-7.01h18.19v18.44Z"/>
    <path class="cls-4" d="m803.71,138h-9.52v-46.21h9.52v46.21Z"/>
    <path class="cls-4" d="m854.71,99.5h-14.16v38.5h-9.52v-38.5h-13.96v-7.71h37.64v7.71Z"/>
    <path class="cls-4" d="m890.74,128.48h-16.69l-3.17,9.52h-10.12l17.2-46.21h8.82l17.3,46.21h-10.12l-3.21-9.52Zm-14.12-7.71h11.55l-5.81-17.3-5.74,17.3Z"/>
    <path class="cls-4" d="m926.23,130.35h20.22v7.65h-29.74v-46.21h9.52v38.56Z"/>
    <path class="cls-4" d="m1010.82,128.48h-16.69l-3.17,9.52h-10.12l17.2-46.21h8.82l17.3,46.21h-10.12l-3.21-9.52Zm-14.12-7.71h11.55l-5.81-17.3-5.74,17.3Z"/>
    <path class="cls-4" d="m1067.76,99.5h-14.16v38.5h-9.52v-38.5h-13.96v-7.71h37.64v7.71Z"/>
    <path class="cls-4" d="m1091.03,130.35h20.22v7.65h-29.74v-46.21h9.52v38.56Z"/>
    <path class="cls-4" d="m1151.72,128.48h-16.69l-3.17,9.52h-10.12l17.2-46.21h8.82l17.3,46.21h-10.12l-3.21-9.52Zm-14.12-7.71h11.55l-5.81-17.3-5.74,17.3Z"/>
    <path class="cls-4" d="m1201.64,125.88c0-1.8-.63-3.18-1.9-4.14s-3.55-1.98-6.86-3.05c-3.3-1.07-5.91-2.12-7.84-3.16-5.25-2.84-7.87-6.65-7.87-11.46,0-2.5.7-4.72,2.11-6.68,1.41-1.96,3.43-3.49,6.06-4.59,2.63-1.1,5.59-1.65,8.87-1.65s6.24.6,8.82,1.79,4.59,2.88,6.01,5.06c1.43,2.18,2.14,4.65,2.14,7.43h-9.52c0-2.12-.67-3.76-2-4.94-1.33-1.17-3.21-1.76-5.62-1.76s-4.14.49-5.43,1.48-1.94,2.28-1.94,3.89c0,1.5.76,2.76,2.27,3.78,1.51,1.02,3.74,1.97,6.68,2.86,5.42,1.63,9.36,3.65,11.84,6.06,2.48,2.41,3.71,5.42,3.71,9.01,0,4-1.51,7.14-4.54,9.41-3.03,2.27-7.1,3.41-12.22,3.41-3.55,0-6.79-.65-9.71-1.95-2.92-1.3-5.15-3.08-6.68-5.35s-2.3-4.89-2.3-7.87h9.55c0,5.1,3.05,7.65,9.14,7.65,2.26,0,4.03-.46,5.3-1.38s1.9-2.21,1.9-3.86Z"/>
  </g>
  <g>
    <path class="cls-4" d="m759.1,181.87c0,2.84-.49,5.32-1.47,7.47s-2.38,3.8-4.2,4.95-3.92,1.73-6.31,1.73c-3.6,0-6.5-1.29-8.72-3.86-2.22-2.57-3.32-6.05-3.32-10.42v-3.17c0-2.81.5-5.29,1.49-7.46.99-2.17,2.4-3.83,4.22-4.99s3.91-1.75,6.28-1.75,4.46.57,6.27,1.71,3.21,2.76,4.2,4.85,1.5,4.51,1.54,7.26v3.68Zm-2.6-3.34c0-3.71-.84-6.61-2.52-8.72-1.68-2.1-3.98-3.15-6.9-3.15s-5.15,1.06-6.84,3.16c-1.7,2.11-2.55,5.05-2.55,8.83v3.22c0,3.65.85,6.55,2.54,8.69,1.69,2.14,3.99,3.21,6.9,3.21s5.25-1.06,6.9-3.16,2.48-5.05,2.48-8.81v-3.26Z"/>
    <path class="cls-4" d="m793.46,181.2h-14.37v14.41h-2.6v-30.81h19.08v2.2h-16.48v12h14.37v2.2Z"/>
    <path class="cls-4" d="m849.7,186.95h-13.99l-3.17,8.65h-2.73l11.66-30.81h2.48l11.66,30.81h-2.71l-3.19-8.65Zm-13.18-2.2h12.36l-6.18-16.78-6.18,16.78Z"/>
    <path class="cls-4" d="m891.83,164.8v21.03c-.02,2.07-.47,3.88-1.38,5.42s-2.17,2.72-3.82,3.54c-1.65.83-3.53,1.24-5.66,1.24-3.24,0-5.85-.89-7.8-2.66s-2.97-4.22-3.04-7.35v-21.22h2.58v20.84c0,2.59.74,4.61,2.22,6.04s3.49,2.15,6.03,2.15,4.54-.72,6.02-2.16c1.48-1.44,2.21-3.44,2.21-6.01v-20.86h2.62Z"/>
    <path class="cls-4" d="m927.35,188.03c0-1.71-.6-3.06-1.8-4.05s-3.39-1.94-6.58-2.84c-3.19-.9-5.52-1.87-6.98-2.93-2.09-1.49-3.13-3.46-3.13-5.88s.97-4.27,2.91-5.74c1.94-1.47,4.42-2.21,7.44-2.21,2.05,0,3.88.39,5.49,1.18s2.87,1.89,3.76,3.3c.89,1.41,1.33,2.98,1.33,4.72h-2.62c0-2.11-.72-3.8-2.16-5.08s-3.37-1.92-5.8-1.92-4.23.53-5.63,1.58c-1.4,1.05-2.09,2.43-2.09,4.12,0,1.57.63,2.85,1.88,3.84s3.26,1.86,6.03,2.62c2.77.76,4.86,1.54,6.28,2.35,1.42.81,2.5,1.78,3.22,2.91s1.08,2.46,1.08,4c0,2.43-.97,4.37-2.91,5.84-1.94,1.47-4.5,2.2-7.67,2.2-2.17,0-4.16-.39-5.98-1.16-1.81-.77-3.19-1.86-4.13-3.26s-1.41-3-1.41-4.8h2.6c0,2.17.81,3.89,2.43,5.14,1.62,1.26,3.78,1.88,6.47,1.88,2.4,0,4.32-.53,5.78-1.59s2.18-2.46,2.18-4.21Z"/>
    <path class="cls-4" d="m967.32,167h-10.56v28.61h-2.6v-28.61h-10.54v-2.2h23.7v2.2Z"/>
    <path class="cls-4" d="m994.64,182.76h-8.95v12.84h-2.62v-30.81h10.01c3.28,0,5.86.8,7.7,2.39,1.85,1.59,2.77,3.82,2.77,6.68,0,1.97-.58,3.71-1.73,5.22s-2.71,2.55-4.65,3.13l7.7,13.12v.28h-2.77l-7.45-12.84Zm-8.95-2.2h7.98c2.18,0,3.94-.62,5.27-1.86,1.33-1.24,1.99-2.85,1.99-4.83,0-2.17-.69-3.86-2.07-5.06-1.38-1.2-3.32-1.8-5.82-1.8h-7.34v13.56Z"/>
    <path class="cls-4" d="m1038.1,186.95h-13.99l-3.17,8.65h-2.73l11.66-30.81h2.48l11.66,30.81h-2.71l-3.19-8.65Zm-13.18-2.2h12.36l-6.18-16.78-6.18,16.78Z"/>
    <path class="cls-4" d="m1061.99,193.41h15.21v2.2h-17.84v-30.81h2.62v28.61Z"/>
    <path class="cls-4" d="m1096.2,195.61h-2.6v-30.81h2.6v30.81Z"/>
    <path class="cls-4" d="m1132.4,186.95h-13.99l-3.17,8.65h-2.73l11.66-30.81h2.48l11.66,30.81h-2.71l-3.19-8.65Zm-13.18-2.2h12.36l-6.18-16.78-6.18,16.78Z"/>
  </g>
  <g>
    <path class="cls-4" d="m1221.38,204.18v-23.11h8.09c2.8,0,4.93.54,6.38,1.61s2.17,2.65,2.17,4.72c0,1.13-.29,2.13-.87,2.99s-1.39,1.49-2.43,1.9c1.18.3,2.12.89,2.8,1.79.69.9,1.03,2,1.03,3.3,0,2.22-.71,3.9-2.13,5.05s-3.44,1.72-6.06,1.75h-8.98Zm4.76-13.43h3.52c2.4-.04,3.6-1,3.6-2.87,0-1.05-.31-1.8-.92-2.26s-1.57-.69-2.88-.69h-3.33v5.82Zm0,3.36v6.24h4.08c1.12,0,1.99-.27,2.63-.8.62-.53.94-1.27.94-2.21,0-2.12-1.09-3.19-3.28-3.22h-4.36Z"/>
    <path class="cls-4" d="m1256.02,194.16h-9.14v6.19h10.73v3.82h-15.49v-23.11h15.46v3.86h-10.7v5.51h9.14v3.73Z"/>
    <path class="cls-4" d="m1278.11,184.93h-7.08v19.25h-4.76v-19.25h-6.98v-3.86h18.82v3.86Z"/>
    <path class="cls-4" d="m1291.96,199.41h-8.35l-1.59,4.76h-5.06l8.6-23.11h4.41l8.65,23.11h-5.06l-1.6-4.76Zm-7.06-3.86h5.78l-2.9-8.65-2.87,8.65Z"/>
  </g>
  <path class="cls-4" d="m1316.7,219.07h-115.93c-14.96,0-27.14-12.17-27.14-27.14s12.17-27.14,27.14-27.14h115.93c14.96,0,27.14,12.17,27.14,27.14s-12.17,27.14-27.14,27.14Zm-115.93-48.86c-11.98,0-21.72,9.74-21.72,21.72s9.74,21.72,21.72,21.72h115.93c11.98,0,21.72-9.74,21.72-21.72s-9.74-21.72-21.72-21.72h-115.93Z"/>
</svg>