<?xml version="1.0" encoding="UTF-8"?>
<svg id="Layer_1" data-name="Layer 1" xmlns="http://www.w3.org/2000/svg" xmlns:xlink="http://www.w3.org/1999/xlink" viewBox="0 0 1280 386.13">
  <defs>
    <style>
      .cls-1 {
        fill: none;
      }

      .cls-2 {
        clip-path: url(#clippath);
      }

      .cls-3, .cls-4 {
        fill: #fff;
      }

      .cls-5 {
        clip-path: url(#clippath-1);
      }

      .cls-4 {
        fill-rule: evenodd;
      }
    </style>
    <clipPath id="clippath">
      <rect class="cls-1" x="40.09" y="47.61" width="1199.82" height="290.9"/>
    </clipPath>
    <clipPath id="clippath-1">
      <rect class="cls-1" x="40.09" y="47.61" width="1199.82" height="290.9"/>
    </clipPath>
  </defs>
  <path class="cls-4" d="m505.34,173.95l-8.02-18.53-8.25,18.53h16.27Zm1.35,2.94h-19l-2.26,5.24c-.74,1.75-1.11,3.19-1.11,4.32,0,1.51.61,2.62,1.83,3.33.71.42,2.47.74,5.28.95v1.47h-17.9v-1.47c1.93-.29,3.52-1.08,4.76-2.38,1.24-1.32,2.78-4.03,4.6-8.14l19.24-42.93h.75l19.4,44.12c1.85,4.18,3.37,6.81,4.56,7.9.9.82,2.17,1.3,3.81,1.43v1.47h-26.03v-1.47h1.07c2.09,0,3.56-.29,4.4-.87.58-.42.87-1.03.87-1.83,0-.48-.08-.96-.24-1.47-.05-.24-.45-1.23-1.19-2.98l-2.86-6.7h0Z"/>
  <path class="cls-3" d="m563.63,155.1v29.04c0,2.83.26,4.6.79,5.32.53.69,1.6,1.12,3.21,1.31v1.43h-15.12v-4.96c-1.77,2.12-3.54,3.66-5.32,4.64-1.77.95-3.76,1.43-5.95,1.43s-3.96-.63-5.59-1.9c-1.61-1.3-2.7-2.8-3.25-4.52-.55-1.72-.83-4.72-.83-9.01v-14.72c0-2.8-.26-4.55-.79-5.24-.5-.69-1.58-1.14-3.21-1.35v-1.47h15.12v25.35c0,2.65.12,4.35.36,5.12.26.77.66,1.35,1.19,1.75.56.4,1.19.6,1.91.6.95,0,1.81-.25,2.58-.75,1.06-.69,2.33-2.08,3.81-4.17v-19.84c0-2.8-.26-4.55-.79-5.24-.5-.69-1.58-1.14-3.21-1.35v-1.47h15.12Z"/>
  <path class="cls-3" d="m593.61,154.07l.59,12.66h-1.35c-1.61-3.76-3.29-6.32-5.04-7.7-1.72-1.38-3.44-2.06-5.16-2.06-1.09,0-2.01.37-2.78,1.11-.77.71-1.15,1.55-1.15,2.5,0,.72.26,1.4.79,2.06.84,1.09,3.21,2.95,7.1,5.6,3.89,2.62,6.44,4.85,7.66,6.7,1.24,1.83,1.86,3.88,1.86,6.15,0,2.06-.51,4.09-1.55,6.07-1.03,1.98-2.49,3.51-4.36,4.56-1.88,1.06-3.96,1.59-6.23,1.59-1.77,0-4.14-.55-7.1-1.67-.79-.29-1.33-.44-1.63-.44-.87,0-1.6.66-2.18,1.98h-1.31l-.64-13.33h1.35c1.19,3.49,2.82,6.11,4.88,7.86,2.09,1.75,4.06,2.62,5.91,2.62,1.27,0,2.3-.38,3.09-1.15.82-.79,1.23-1.75,1.23-2.86,0-1.27-.4-2.37-1.19-3.29-.79-.93-2.57-2.33-5.31-4.21-4.05-2.8-6.67-4.95-7.86-6.43-1.75-2.17-2.62-4.56-2.62-7.18,0-2.86.98-5.44,2.94-7.74,1.99-2.33,4.84-3.49,8.57-3.49,2.01,0,3.95.49,5.83,1.47.71.4,1.3.6,1.75.6.48,0,.86-.09,1.15-.28.29-.21.75-.78,1.39-1.71h1.35Z"/>
  <path class="cls-3" d="m613.25,141.53v13.57h8.81v3.93h-8.81v22.89c0,2.14.09,3.53.28,4.17.21.61.57,1.11,1.07,1.51.5.37.96.55,1.39.55,1.71,0,3.34-1.31,4.88-3.93l1.19.87c-2.14,5.08-5.62,7.62-10.43,7.62-2.36,0-4.35-.65-6-1.94-1.61-1.32-2.64-2.79-3.09-4.41-.26-.9-.39-3.33-.39-7.3v-20.04h-4.84v-1.39c3.33-2.35,6.16-4.83,8.49-7.42,2.35-2.59,4.4-5.49,6.15-8.69h1.31Z"/>
  <path class="cls-3" d="m640.17,155.1v8.41c2.46-3.84,4.62-6.37,6.47-7.62,1.86-1.27,3.64-1.9,5.36-1.9,1.49,0,2.66.46,3.54,1.39.9.9,1.35,2.18,1.35,3.85,0,1.77-.44,3.15-1.31,4.13-.85.98-1.88,1.47-3.1,1.47-1.4,0-2.62-.45-3.65-1.35-1.03-.9-1.64-1.4-1.83-1.51-.26-.16-.57-.24-.91-.24-.77,0-1.49.29-2.18.87-1.09.9-1.9,2.18-2.46,3.85-.85,2.57-1.27,5.4-1.27,8.49v8.53l.04,2.22c0,1.51.09,2.47.28,2.9.32.71.78,1.24,1.39,1.59.63.32,1.69.52,3.17.6v1.43h-20.04v-1.43c1.62-.13,2.7-.57,3.25-1.31.58-.77.87-2.76.87-5.99v-20.51c0-2.12-.11-3.47-.32-4.05-.26-.74-.65-1.28-1.15-1.63-.5-.34-1.39-.58-2.66-.71v-1.47h15.16Z"/>
  <path class="cls-4" d="m677.26,183.83v-12.42c-3.2,1.88-5.59,3.89-7.14,6.03-1.04,1.43-1.55,2.87-1.55,4.33,0,1.22.44,2.29,1.31,3.21.66.71,1.59,1.07,2.78,1.07,1.33,0,2.86-.74,4.61-2.22h0Zm0,2.9c-4.52,4-8.59,5.99-12.18,5.99-2.11,0-3.87-.69-5.28-2.06-1.41-1.4-2.11-3.15-2.11-5.24,0-2.83,1.22-5.37,3.65-7.62,2.44-2.27,7.74-5.29,15.92-9.05v-3.73c0-2.8-.16-4.56-.48-5.28-.29-.74-.86-1.38-1.71-1.9-.84-.56-1.8-.83-2.85-.83-1.72,0-3.14.38-4.24,1.15-.69.48-1.03,1.03-1.03,1.67,0,.56.37,1.24,1.11,2.06,1,1.14,1.5,2.23,1.51,3.29,0,1.3-.49,2.41-1.47,3.33-.95.9-2.21,1.35-3.77,1.35-1.67,0-3.07-.5-4.2-1.51-1.11-1-1.66-2.18-1.66-3.53,0-1.9.75-3.72,2.26-5.44,1.51-1.74,3.61-3.08,6.31-4.01,2.7-.92,5.5-1.39,8.41-1.39,3.52,0,6.3.75,8.34,2.26,2.07,1.48,3.4,3.09,4,4.84.37,1.11.56,3.66.56,7.66v14.4c0,1.69.07,2.77.2,3.21.13.43.33.74.59.95.26.21.57.32.92.32.68,0,1.39-.49,2.1-1.47l1.19.95c-1.33,1.96-2.7,3.39-4.13,4.29-1.41.87-3,1.31-4.8,1.31-2.12,0-3.77-.49-4.96-1.47-1.19-1.01-1.92-2.51-2.18-4.52h0Z"/>
  <path class="cls-3" d="m709.5,138.4v46.11c0,2.62.3,4.3.91,5.04.6.72,1.8,1.13,3.57,1.23v1.43h-20.04v-1.43c1.64-.05,2.86-.53,3.65-1.43.53-.61.79-2.22.79-4.84v-38.41c0-2.59-.3-4.24-.91-4.96-.61-.74-1.78-1.16-3.53-1.27v-1.47h15.55Z"/>
  <path class="cls-4" d="m732.03,155.1v29.4c0,2.62.3,4.3.91,5.04.61.72,1.8,1.13,3.57,1.23v1.43h-20.04v-1.43c1.64-.05,2.85-.53,3.65-1.43.53-.61.79-2.22.79-4.84v-21.66c0-2.62-.31-4.29-.91-5-.61-.74-1.79-1.16-3.53-1.27v-1.47h15.55Zm-5.55-17.97c1.72,0,3.17.61,4.36,1.82,1.19,1.19,1.78,2.63,1.78,4.33s-.61,3.14-1.82,4.33c-1.19,1.19-2.64,1.79-4.32,1.79s-3.14-.59-4.33-1.79c-1.19-1.19-1.79-2.63-1.79-4.33s.6-3.13,1.79-4.33c1.19-1.22,2.63-1.82,4.33-1.82h0Z"/>
  <path class="cls-4" d="m758.16,183.83v-12.42c-3.2,1.88-5.58,3.89-7.14,6.03-1.03,1.43-1.55,2.87-1.55,4.33,0,1.22.43,2.29,1.31,3.21.66.71,1.58,1.07,2.77,1.07,1.32,0,2.86-.74,4.6-2.22h0Zm0,2.9c-4.52,4-8.58,5.99-12.18,5.99-2.12,0-3.88-.69-5.28-2.06-1.4-1.4-2.11-3.15-2.11-5.24,0-2.83,1.22-5.37,3.65-7.62,2.43-2.27,7.73-5.29,15.91-9.05v-3.73c0-2.8-.16-4.56-.48-5.28-.29-.74-.86-1.38-1.71-1.9-.85-.56-1.8-.83-2.86-.83-1.72,0-3.13.38-4.25,1.15-.69.48-1.03,1.03-1.03,1.67,0,.56.37,1.24,1.11,2.06,1.01,1.14,1.51,2.23,1.51,3.29,0,1.3-.49,2.41-1.47,3.33-.96.9-2.21,1.35-3.77,1.35-1.67,0-3.07-.5-4.2-1.51-1.11-1-1.67-2.18-1.67-3.53,0-1.9.75-3.72,2.26-5.44,1.51-1.74,3.61-3.08,6.31-4.01,2.7-.92,5.5-1.39,8.42-1.39,3.51,0,6.29.75,8.33,2.26,2.06,1.48,3.4,3.09,4,4.84.37,1.11.55,3.66.55,7.66v14.4c0,1.69.07,2.77.2,3.21.13.43.32.74.59.95.26.21.57.32.91.32.69,0,1.39-.49,2.11-1.47l1.19.95c-1.32,1.96-2.7,3.39-4.13,4.29-1.4.87-3,1.31-4.8,1.31-2.12,0-3.77-.49-4.96-1.47-1.19-1.01-1.92-2.51-2.18-4.52h0Z"/>
  <path class="cls-3" d="m790.23,155.1v4.8c1.9-2.06,3.73-3.56,5.47-4.49,1.75-.95,3.63-1.43,5.64-1.43,2.4,0,4.4.67,5.99,2.02,1.59,1.32,2.65,2.98,3.17,4.96.42,1.51.64,4.41.64,8.69v14.44c0,2.86.25,4.64.75,5.36.53.69,1.61,1.12,3.25,1.31v1.43h-18.76v-1.43c1.4-.18,2.4-.77,3.01-1.75.42-.66.63-2.3.63-4.92v-16.51c0-3.04-.12-4.96-.36-5.75-.23-.79-.65-1.4-1.23-1.82-.56-.45-1.17-.67-1.87-.67-2.27,0-4.39,1.63-6.35,4.88v19.88c0,2.78.25,4.54.75,5.28.53.74,1.5,1.2,2.9,1.39v1.43h-18.77v-1.43c1.56-.16,2.67-.66,3.33-1.51.45-.58.68-2.3.68-5.16v-20.95c0-2.8-.27-4.55-.79-5.24-.5-.69-1.57-1.14-3.21-1.35v-1.47h15.12Z"/>
  <path class="cls-3" d="m888.22,137.17v18.97h-1.47c-1.77-5.18-4.43-9.13-7.98-11.82-3.54-2.7-7.41-4.05-11.62-4.05s-7.37,1.14-10.04,3.41c-2.67,2.25-4.56,5.4-5.67,9.44-1.11,4.05-1.67,8.2-1.67,12.46,0,5.16.61,9.68,1.82,13.57,1.22,3.89,3.17,6.75,5.87,8.57,2.72,1.82,5.95,2.74,9.69,2.74,1.3,0,2.61-.13,3.96-.4,1.37-.29,2.77-.7,4.2-1.23v-11.19c0-2.11-.14-3.48-.44-4.09-.29-.63-.9-1.2-1.82-1.71-.9-.5-2-.75-3.3-.75h-1.39v-1.47h26.15v1.47c-1.98.13-3.37.41-4.16.83-.77.4-1.37,1.07-1.79,2.02-.24.5-.36,1.73-.36,3.69v11.19c-3.44,1.54-7.02,2.69-10.75,3.45-3.71.79-7.55,1.19-11.55,1.19-5.1,0-9.35-.69-12.73-2.06-3.36-1.4-6.34-3.23-8.93-5.48-2.57-2.27-4.57-4.83-6.03-7.66-1.85-3.65-2.78-7.74-2.78-12.26,0-8.09,2.84-14.93,8.53-20.51,5.69-5.58,12.84-8.37,21.47-8.37,2.67,0,5.08.21,7.22.63,1.16.21,3.04.82,5.63,1.83,2.62.98,4.16,1.47,4.64,1.47.74,0,1.43-.26,2.07-.79.63-.56,1.22-1.59,1.74-3.09h1.47Z"/>
  <path class="cls-4" d="m914.13,156.81c-1.35,0-2.51.52-3.48,1.55-.96,1.01-1.59,3.02-1.91,6.03-.29,2.99-.44,7.16-.44,12.5,0,2.83.18,5.48.56,7.94.28,1.88.91,3.31,1.86,4.28.95.98,2.03,1.47,3.26,1.47s2.18-.33,2.97-.99c1.03-.9,1.72-2.15,2.06-3.77.53-2.51.79-7.59.79-15.24,0-4.5-.25-7.58-.75-9.24-.5-1.69-1.24-2.92-2.23-3.69-.68-.56-1.59-.83-2.7-.83h0Zm-.15-2.82c3.22,0,6.22.83,9,2.5,2.78,1.67,4.88,4.04,6.31,7.1,1.45,3.07,2.18,6.43,2.18,10.08,0,5.27-1.33,9.67-4,13.21-3.23,4.28-7.69,6.43-13.37,6.43s-9.88-1.96-12.9-5.87c-3.02-3.91-4.52-8.45-4.52-13.61s1.53-9.95,4.6-13.89c3.09-3.97,7.33-5.95,12.7-5.95h0Z"/>
  <path class="cls-3" d="m948.97,193.31l-12.5-28.77c-1.51-3.46-2.68-5.66-3.52-6.59-.61-.69-1.51-1.15-2.7-1.39v-1.47h19.72v1.47c-1.24,0-2.09.23-2.54.68-.63.58-.95,1.27-.95,2.06,0,.98.58,2.82,1.75,5.51l6.11,13.93,4.88-12.02c1.4-3.44,2.1-5.87,2.11-7.3,0-.82-.31-1.48-.91-1.98-.59-.53-1.63-.82-3.14-.87v-1.47h12.14v1.47c-1.16.16-2.11.6-2.86,1.31-.74.71-1.85,2.82-3.33,6.31l-12.38,29.12h-1.86Z"/>
  <path class="cls-4" d="m988.84,169.66c0-4.26-.24-7.18-.72-8.77-.45-1.59-1.16-2.79-2.15-3.61-.55-.48-1.3-.71-2.22-.71-1.38,0-2.5.68-3.37,2.02-1.56,2.36-2.34,5.58-2.34,9.68v1.39h10.79Zm9.76,2.66h-20.36c.24,4.92,1.55,8.81,3.92,11.66,1.83,2.2,4.03,3.29,6.59,3.29,1.59,0,3.03-.44,4.33-1.31,1.3-.9,2.68-2.5,4.16-4.8l1.35.87c-2.01,4.1-4.23,7.01-6.67,8.73-2.43,1.69-5.24,2.54-8.45,2.54-5.5,0-9.67-2.11-12.5-6.35-2.28-3.41-3.41-7.64-3.41-12.7,0-6.19,1.67-11.11,5-14.76,3.36-3.68,7.29-5.51,11.78-5.52,3.76,0,7.01,1.55,9.77,4.64,2.77,3.07,4.27,7.63,4.48,13.69h0Z"/>
  <path class="cls-3" d="m1016.19,155.1v8.41c2.46-3.84,4.62-6.37,6.47-7.62,1.85-1.27,3.64-1.9,5.35-1.9,1.48,0,2.66.46,3.53,1.39.9.9,1.35,2.18,1.35,3.85,0,1.77-.43,3.15-1.3,4.13-.85.98-1.88,1.47-3.1,1.47-1.4,0-2.62-.45-3.65-1.35-1.04-.9-1.64-1.4-1.83-1.51-.26-.16-.57-.24-.91-.24-.76,0-1.5.29-2.18.87-1.08.9-1.91,2.18-2.46,3.85-.85,2.57-1.27,5.4-1.27,8.49v8.53l.04,2.22c0,1.51.1,2.47.28,2.9.32.71.78,1.24,1.39,1.59.64.32,1.69.52,3.18.6v1.43h-20.04v-1.43c1.61-.13,2.69-.57,3.25-1.31.59-.77.87-2.76.87-5.99v-20.51c0-2.12-.1-3.47-.32-4.05-.26-.74-.65-1.28-1.15-1.63-.5-.34-1.39-.58-2.66-.71v-1.47h15.15Z"/>
  <path class="cls-3" d="m1050.4,155.1v4.8c1.91-2.06,3.73-3.56,5.48-4.49,1.75-.95,3.63-1.43,5.63-1.43,2.41,0,4.41.67,6,2.02,1.59,1.32,2.64,2.98,3.17,4.96.42,1.51.63,4.41.64,8.69v14.44c0,2.86.25,4.64.75,5.36.53.69,1.61,1.12,3.25,1.31v1.43h-18.77v-1.43c1.4-.18,2.41-.77,3.02-1.75.42-.66.63-2.3.64-4.92v-16.51c0-3.04-.13-4.96-.36-5.75-.24-.79-.65-1.4-1.23-1.82-.56-.45-1.18-.67-1.87-.67-2.27,0-4.38,1.63-6.35,4.88v19.88c0,2.78.26,4.54.76,5.28.53.74,1.49,1.2,2.9,1.39v1.43h-18.77v-1.43c1.56-.16,2.67-.66,3.33-1.51.45-.58.68-2.3.68-5.16v-20.95c0-2.8-.27-4.55-.8-5.24-.5-.69-1.58-1.14-3.21-1.35v-1.47h15.11Z"/>
  <path class="cls-3" d="m1093.39,155.1v4.88c2.04-2.22,3.92-3.77,5.64-4.64,1.74-.9,3.64-1.35,5.71-1.35,2.38,0,4.38.56,5.99,1.67,1.61,1.11,2.85,2.8,3.73,5.08,2.11-2.38,4.14-4.1,6.07-5.16,1.96-1.06,4-1.59,6.11-1.59,2.56,0,4.61.59,6.11,1.79,1.53,1.17,2.59,2.66,3.17,4.48.61,1.8.91,4.68.91,8.65v15.2c0,2.86.26,4.63.76,5.32.53.69,1.61,1.14,3.26,1.35v1.43h-19.17v-1.43c1.51-.13,2.62-.71,3.33-1.75.47-.71.72-2.35.72-4.92v-15.95c0-3.31-.13-5.41-.4-6.31-.27-.9-.69-1.56-1.27-1.98-.56-.45-1.22-.67-1.99-.68-1.14,0-2.28.43-3.45,1.27-1.16.82-2.34,2.06-3.53,3.73v19.92c0,2.67.22,4.35.67,5.04.61.98,1.77,1.52,3.5,1.63v1.43h-19.21v-1.43c1.03-.05,1.83-.3,2.42-.75.6-.48,1-1.03,1.19-1.67.21-.66.31-2.08.32-4.25v-15.95c0-3.36-.13-5.46-.4-6.31-.26-.84-.71-1.51-1.35-1.98-.61-.48-1.27-.71-1.98-.71-1.06,0-2.03.28-2.9.83-1.25.82-2.56,2.22-3.97,4.21v19.92c0,2.62.25,4.35.75,5.2.53.82,1.61,1.31,3.25,1.47v1.43h-19.12v-1.43c1.56-.16,2.67-.66,3.34-1.51.44-.58.67-2.3.67-5.16v-20.95c0-2.8-.26-4.55-.79-5.24-.5-.69-1.57-1.14-3.21-1.35v-1.47h15.12Z"/>
  <path class="cls-4" d="m1164.1,169.66c0-4.26-.24-7.18-.72-8.77-.45-1.59-1.16-2.79-2.14-3.61-.55-.48-1.3-.71-2.22-.71-1.38,0-2.5.68-3.37,2.02-1.56,2.36-2.34,5.58-2.34,9.68v1.39h10.79Zm9.76,2.66h-20.35c.23,4.92,1.54,8.81,3.92,11.66,1.83,2.2,4.03,3.29,6.59,3.29,1.59,0,3.03-.44,4.32-1.31,1.3-.9,2.68-2.5,4.17-4.8l1.35.87c-2.01,4.1-4.23,7.01-6.67,8.73-2.43,1.69-5.25,2.54-8.45,2.54-5.5,0-9.67-2.11-12.49-6.35-2.28-3.41-3.42-7.64-3.42-12.7,0-6.19,1.67-11.11,5-14.76,3.36-3.68,7.29-5.51,11.78-5.52,3.76,0,7.02,1.55,9.76,4.64,2.78,3.07,4.27,7.63,4.48,13.69h0Z"/>
  <path class="cls-3" d="m1190.41,155.1v4.8c1.91-2.06,3.73-3.56,5.48-4.49,1.75-.95,3.63-1.43,5.64-1.43,2.4,0,4.4.67,5.99,2.02,1.59,1.32,2.64,2.98,3.17,4.96.42,1.51.63,4.41.63,8.69v14.44c0,2.86.25,4.64.76,5.36.53.69,1.61,1.12,3.25,1.31v1.43h-18.76v-1.43c1.4-.18,2.4-.77,3.02-1.75.42-.66.63-2.3.63-4.92v-16.51c0-3.04-.12-4.96-.35-5.75-.24-.79-.65-1.4-1.23-1.82-.55-.45-1.18-.67-1.86-.67-2.27,0-4.39,1.63-6.35,4.88v19.88c0,2.78.25,4.54.75,5.28.53.74,1.5,1.2,2.9,1.39v1.43h-18.77v-1.43c1.56-.16,2.67-.66,3.33-1.51.46-.58.68-2.3.68-5.16v-20.95c0-2.8-.26-4.55-.79-5.24-.5-.69-1.58-1.14-3.21-1.35v-1.47h15.11Z"/>
  <path class="cls-3" d="m1231.11,141.53v13.57h8.81v3.93h-8.81v22.89c0,2.14.1,3.53.28,4.17.21.61.57,1.11,1.07,1.51.5.37.97.55,1.39.55,1.71,0,3.34-1.31,4.88-3.93l1.19.87c-2.14,5.08-5.62,7.62-10.43,7.62-2.36,0-4.36-.65-6-1.94-1.61-1.32-2.64-2.79-3.1-4.41-.26-.9-.39-3.33-.39-7.3v-20.04h-4.84v-1.39c3.33-2.35,6.16-4.83,8.49-7.42,2.36-2.59,4.41-5.49,6.15-8.69h1.31Z"/>
  <path class="cls-3" d="m173.85,280.75c-.26.44-.58.8-1.02,1.02"/>
  <path class="cls-3" d="m183.15,208.1c1.07,0,1.94-.87,1.94-1.96s-.87-1.96-1.94-1.96-1.94.88-1.94,1.96.87,1.96,1.94,1.96h0Z"/>
  <path class="cls-3" d="m271.19,165.45h-21.29v-37.54h21.29v37.54h0Zm0,17.83c-.37,4.05-1.74,7.42-4.54,9.33l-16.75,10.01v-35.24h21.29v15.91h0Zm-23.2-17.83h-19.67v-37.54h19.67v37.54h0Zm0,38.3l-7.74,4.62h-.14c-.56.44-1.26.72-2.04.72s-1.51-.29-2.07-.74l-7.69-4.59v-36.38h19.67v36.38h0Zm-27.62-38.3v-13.74h6.05v13.74h-6.05Zm6.05,37.16l-16.75-10.01c-2.8-1.91-4.18-5.27-4.54-9.33v-15.91h21.29v35.24h0Zm-13.94-74.7v14.48h-7.35v-14.48h7.35Zm1.84,5.44l.86-.9-.53-.99,1.13.12.68-1.2.66,1.18,1.15-.1-.53.99.86.9-1.1.21v1.22l-1.04-.78-1.04.78v-1.22l-1.1-.21h0Zm5.2,15.13c-.05-.37-.53-.46-.74-.46-.65,0-.92,1.08-1.46,1.11-.41.02-.69.06-.69-.44,0-.36.83-.65,1.15-.97-4.54,0-4.63,2.08-5.34,2.08-1.19,0,.99-2.19,1.63-2.82-.92-.15-1.45-1.28-2.46-1.85.47-.68.74-.39,1.33.09,0-.48.36-1.04,1.41-1.04,2.03,0,1.46,1.96,1.79,1.96s-.02-1.96,1.34-1.96c2.01,0,4.53,5.17,2.25,5.17-.98,0-.19-.74-.21-.87h0Zm-4.88,11.05l1.13.12.68-1.19.66,1.18,1.15-.1-.53.99.86.9-1.1.21v1.23l-1.04-.78-1.04.78v-1.23l-1.1-.21.86-.9-.53-.99h0Zm-8.3-13.97l1.13.12.68-1.2.67,1.18,1.14-.1-.53.99.86.9-1.1.21v1.22l-1.04-.78-1.04.78v-1.22l-1.1-.21.86-.9-.53-.99h0Zm-1.22,19.89v-13.74h7.35v13.74h-7.35Zm16.9-18.01l.86-.9-.54-.99,1.13.12.68-1.2.67,1.18,1.15-.1-.53.99.86.9-1.1.21v1.22l-1.04-.78-1.04.78v-1.22l-1.1-.21h0Zm4.4-5.05h-6.05v-14.48h6.05v14.48h0Zm46.74-16.36v-.04h-70v.04h-.01l.06,56.53c0,5.46,2.31,10.22,5.5,11.69l26.92,16.08c.59.68,1.47,1.11,2.46,1.11.85,0,1.61-.33,2.19-.85l27.34-16.33c3.19-1.47,5.5-6.24,5.5-11.69l.05-56.53h-.01Z"/>
  <path class="cls-3" d="m225.29,180.32c-.1-.23-2.67.85-1.94.78.08-.76,1.5-2.3,2.14-2.87-.12-.89-1.26-.08-2.46.54,3.99-5.71,1.43-3.37-.8-2.96,3.56-3.83,2.62-3.77,0-2.58,2.06-1.64,2.5-3.58,2.19-4.15-1.93,2.58-3.71,2.18-3.71,4.57,0,1.57-.57,4.15-1.38,5.03-1.04,1.13-.24-4.22-2.97-4.22-.87,0-2.94-.07-3.56,1,.56,0,1.39,1.42,1.39,1.98s.52,2.12-.42,2.12-2.02-1.96-2.02-2.91-.06-.72-.06-2.07c0-2.26-3.68-5.44-5.18-5.44,0,1.57,2.06,1.95,2.06,3.96-.87,0-2.12-1.63-2.12-.63s1.31,1.19,1.31,2.08-1.5-.31-1.5.63c0,.83.82.69,1.02,1.5-.61-.17-1.15-.09-1.26.22-.1.28.18.63.64.88-.21.19-.39.66-.39,1.99,0,4.46,2.8,6.54,4.86,6.54,1.46,0,1.23-1.02,1.41-1.51.06.76.78-.38.78.95s-1.42.78-1.42,1.97c0,1.6,2.24-.06,2.24,1.71,0,2.14-.27,2.1-.27,2.91,0,.56,2.35-.78,2.2-1.02.56.2.54,1.87,1.58,1.82.68-.03.82-1.7,1.36-1.85-.32.09,2.12,1.59,2.12.83,0-2.08-.85-1.2-.85-2.63,0-1.32,2.88-1.06,2.43-1.74-.38-.56-.64-.22-.95-1.2.05.18-2.27-3.31.48-1.51,2.89,1.89,3.21-4.39,3.06-4.72h0Z"/>
  <path class="cls-3" d="m299.97,195.11c1.27,0,2.3-.91,2.3-2.03s-1.03-2.03-2.3-2.03-2.3.91-2.3,2.03,1.03,2.03,2.3,2.03h0Z"/>
  <path class="cls-3" d="m290.66,200.64c1.27,0,2.3-.91,2.3-2.03s-1.03-2.03-2.3-2.03-2.3.91-2.3,2.03,1.03,2.03,2.3,2.03h0Z"/>
  <path class="cls-3" d="m180.02,213.4c1.27,0,2.3-.91,2.3-2.03s-1.03-2.03-2.3-2.03-2.31.91-2.31,2.03,1.03,2.03,2.31,2.03h0Z"/>
  <path class="cls-3" d="m187.19,214.01c1.27,0,2.3-.91,2.3-2.03s-1.03-2.03-2.3-2.03-2.3.91-2.3,2.03,1.03,2.03,2.3,2.03h0Z"/>
  <path class="cls-3" d="m386.38,117.47c3.42,4.06,4.15,10.58,1.71,15.25-1.34-.12-1.1-1.84-1.34-2.83-2.44-4.55-4.4-10.33-2.2-15.49,1.59.25.98,2.21,1.83,3.07h0Z"/>
  <path class="cls-3" d="m94.09,123c-.73,2.95-.73,7.01,0,9.71-.61.62-.49-.61-1.1-.49-4.76-3.44-2.56-10.2-3.78-15,.24-.37.85-.49,1.22-.25,2.2,1.48,3.17,3.57,3.66,6.03h0Z"/>
  <path class="cls-3" d="m396.88,123.37c.73,1.35-.61,2.7-1.59,3.32-1.1.25-2.32-.37-3.05-1.35-.37-1.35.37-2.58,1.47-3.2,1.22-.12,2.44.12,3.18,1.23h0Z"/>
  <path class="cls-3" d="m86.65,128.78c-.24,1.1-.61,2.21-1.58,2.7-.73,0-1.84,0-2.32-.61-.73-.62-.86-1.72-.49-2.58.49-.86,1.47-.98,2.32-1.1.85.37,1.71.61,2.07,1.6h0Z"/>
  <path class="cls-3" d="m401.64,130.87c.25.74.25,1.23,0,1.97-.85,1.11-2.07,1.6-3.29,1.11-.86-.49-1.1-1.35-1.34-2.09.24-.98,1.22-1.84,2.07-2.21,1.1,0,1.83.61,2.56,1.23h0Z"/>
  <path class="cls-3" d="m394.68,131c.98.49.25,1.72.13,2.46-.61.62-1.46,1.6-2.57,1.23-.61-.61-1.34-.61-1.58-1.47,0-1.23.49-2.46,1.71-2.83.98-.24,1.59.25,2.31.62h0Z"/>
  <path class="cls-3" d="m385.77,132.84c0,1.36.12,3.08-1.47,3.32-1.47.49-2.44-.74-2.8-1.73-.13-1.23.61-2.46,1.83-2.95.98,0,1.83.62,2.44,1.35h0Z"/>
  <path class="cls-3" d="m99.95,133.45c.37,1.23-.85,1.97-1.58,2.58-.86.24-1.96-.49-2.45-1.36-.85-.85.25-1.6.49-2.33,1.22-1.11,3.05-.25,3.54,1.11h0Z"/>
  <path class="cls-3" d="m92.63,133.83c0,.98-.49,1.96-1.34,2.34-.98.37-1.95-.37-2.45-1.11-.61-1.22.13-2.33,1.1-2.83,1.35-.49,2.2.74,2.69,1.6h0Z"/>
  <path class="cls-3" d="m356.23,134.31c1.22,2.58,2.19,5.66,2.44,8.86-.49,2.34.37,5.41-1.35,7.01-1.71-.62-1.83-2.71-2.93-3.81-2.2-4.31-.24-9.35.49-13.53.98-.37.98.86,1.35,1.47h0Z"/>
  <path class="cls-3" d="m86.89,135.79c.36,1.48-.73,2.21-1.59,3.07-1.47.37-2.44-.74-3.06-1.72-.12-1.23.61-2.46,1.59-2.95,1.22-.12,2.44.49,3.05,1.59h0Z"/>
  <path class="cls-3" d="m375.52,139.35c1.59,3.57,1.71,7.87.61,11.81l-.73.61c-1.71-3.32-4.15-6.39-5-9.96,0-2.58.49-4.92,1.47-7.01.86-.61,1.34.12,1.71.86.12,1.35.73,2.95,1.95,3.69h0Z"/>
  <path class="cls-3" d="m390.9,137.14c-.12,1.23-.61,2.58-1.83,2.95-1.22.25-2.44-.12-2.81-1.48-.37-1.23.37-2.34,1.34-2.95,1.34-.74,2.69.5,3.3,1.48h0Z"/>
  <path class="cls-3" d="m92.75,140.95c0,.98-.86,2.09-1.83,2.34-.98.74-1.71-.49-2.57-.86-.37-.98-.61-1.84,0-2.83.37-.74,1.22-.74,1.96-.98,1.1.62,2.2,1.11,2.44,2.34h0Z"/>
  <path class="cls-3" d="m98.12,140.34c.49,1.23-.85,1.84-1.34,2.46-1.47.49-2.2-.61-2.81-1.47-.24-1.23.49-1.97,1.34-2.71,1.47-.37,2.2.62,2.81,1.72h0Z"/>
  <path class="cls-3" d="m394.32,139.97c-.12,1.6-2.57,3.2-2.81,4.8-1.34,3.32-4.27,5.78-7.57,6.89-.74.61-1.71,1.48-2.81,1.6-.24-2.46,1.96-4.67,3.3-6.88,2.56-3.32,6.1-5.41,9.89-6.4h0Z"/>
  <path class="cls-3" d="m90.31,145.14c1.83,2.09,2.81,3.93,5,5.78.12.49-.24,1.23-.85,1.23-5.98-.37-10.01-6.52-12.94-10.82.37-1.36,1.95-.25,2.81-.37,2.08,1.6,4.39,2.09,5.98,4.18h0Z"/>
  <path class="cls-3" d="m396.03,146.86c-.24,5.29-2.81,10.7-7.57,13.28-1.35.49-2.81,1.84-4.15.98,2.57-5.29,6.47-9.59,10.75-14.27h.98Z"/>
  <path class="cls-3" d="m372.59,150.42c.36,1.84-.61,2.95-2.07,3.57-1.35.12-2.2-.98-2.81-1.97-.12-1.23.61-2.34,1.71-2.71.36-.37.97-.37,1.46-.37.74.25,1.1.86,1.71,1.48h0Z"/>
  <path class="cls-3" d="m83.59,151.53c2.32,1.6,4.39,3.81,6.59,5.78-1.58,1.11-3.54.12-5.37.12-4.15-1.47-6.96-5.04-11.23-6.27.12-1.35,1.71-.86,2.57-1.23,2.69-.25,4.88.98,7.45,1.6h0Z"/>
  <path class="cls-3" d="m214.35,115.13c-6.84-2.71-11.36,4.42-18.32,3.56-.85.49-.61,1.35-1.1,1.97-.37.37-.98.12-1.35-.12-.36-2.95-1.34-5.66-1.71-8.49-.73-1.23-.37-2.95-.97-4.18-3.91-10.7,9.52-2.58,12.21-8.85,2.33-5.41-4.52-6.03-6.59-9.84v-1.6c-1.95-1.97-4.03-2.58-5.25-5.16.86-3.07,1.22-6.39.37-9.47-.12-.74-.61-1.72-1.71-1.35-2.32,3.2-4.03,5.78-6.23,8.85-2.32-1.72-4.52-3.93-7.2-5.41-1.83-.24-3.54-2.09-5.61-1.35-.36.74,0,1.35.37,1.84.12,4.8,2.56,8.61,5.98,12.05l.37,1.85c-2.2,5.04-1.59,10.82-2.2,16.23-5.5,14.01-14.41,27.54-26.5,37.26-6.96,7.87-15.26,15.5-16.36,26.31-.36,1.72.25,3.81-1.1,5.04-4.03-1.48-8.06-3.44-11.35-6.02-5.62-3.94-13.68-3.45-17.34-10.58-1.47-2.83.37-5.66,1.71-7.74,4.15-3.93,3.54-10.95,1.35-15.74-.49-.12-.61.49-.98.61-.37,7.26-6.11,12.3-3.91,20.29.49,2.33,1.71,3.81,2.32,6.02-.86-.25-2.08-.25-2.81-.61-2.69-.37-5.37-1.48-8.18-1.11-5.61,2.58-13.31-.61-17.82,4.55-.73.12-1.71.25-1.46,1.35,2.68,0,5.25.74,7.94.62,4.27.73,7.08-2.83,10.01-4.43h.73c1.22-1.23,3.3-.49,4.89-.74,7.69.86,13.67,4.55,20.02,8.36v.49c-2.44,1.11-5.25,1.85-7.69,3.2-2.81,2.09-5.98,4.8-6.84,8.24-1.95,3.07.61,5.78,1.83,8.36.12,1.23.24,2.71,1.34,3.2,3.91-4.18.24-9.35.85-14.14.98-3.69,4.4-5.41,7.94-6.39,6.96-2.95,11.97,2.7,17.58,5.9-.12,5.66.61,11.07-.61,16.6-1.71.61-3.91.98-5.74.86-9.64.74-17.21,6.02-25.88,8.97-3.9,1.36-8.54,1.23-12.45,2.71,3.05.86,6.23-.24,9.4-.37,11.96-1.72,21.12-10.94,34.06-9.35l.24.37c-1.46,3.07-3.42,5.66-5.74,7.99-.37-1.36-.49-2.46-1.71-3.2-.98-.49-2.07,0-2.8.98-.37.62-.37,1.35,0,1.85.61,1.11,1.59,1.35,2.69,1.72-.24,1.11-1.59,1.6-2.32,2.58-3.42,5.78-10.38,3.44-14.41,7.5-.61.86-2.81,1.36-1.83,2.71,4.64.49,9.16-.74,12.58-3.2,4.52-5.04,9.28-9.84,13.8-14.63.73,3.94-.37,8-2.68,11.19-1.1-.61-1.96-1.48-3.3-1.85-1.22.25-2.08,1.48-2.2,2.46.48.86.97,1.85,1.83,2.46-4.15,2.95-9.4,3.2-14.16,4.55-8.91,1.11-17.58,1.85-26.62,1.97-4.27-.25-9.16,1.23-13.18,0-4.64.86-9.65-.62-13.43,1.97-.49.61.12,1.23.12,1.84,5.62,3.69,13.31.74,19.66,1.85h48.1c3.54-.12,7.08-.25,9.89-1.85,6.23-3.56,9.65-9.96,12.82-16.23,1.22-2.21,2.07-4.79,2.56-7.38,1.22-4.18,5-7.14,9.15-7.5.61,6.39-.61,12.79-2.08,18.69-.73,3.94-3.29,7.75-1.71,11.93.37,1.97,2.44,1.97,4.03,2.21,14.77-.25,29.55-.86,45.18.25,2.81.49,5.25,1.35,8.3,1.23.25-.37,1.1-.49.73-1.23-.37-1.36-1.35-3.08-2.93-3.44-.24-.74-1.34-.49-1.71-.98-7.81-4.43-17.21-2.09-26.37-1.97-4.76.49-9.52,1.35-13.55-1.35-1.83-2.21-.49-9.22-.49-9.22,0-2.78,6.72-22.13,7.57-23.73.24-1.84.98-3.57.73-5.66.98-2.46.73-5.66.73-8.36.49-3.94,2.44-7.62,3.78-11.44.73-1.85,1.35-3.81,2.07-5.66.73-2.34.98-4.55,2.45-6.39,3.98,2.53,7.88,2.45,9.79,6.97l1.68,10.24c0,.62.49,1.84,1.34,1.11,3.17-2.1,2.2-6.77,2.2-9.96.73-3.81-1.95-5.66-3.05-8.98-.86-.61-2.26-3.55-2.26-3.55-.49-2.71-6.41-4.57-5.06-7.89.73-2.83,1.46-5.41,4.15-7.01.4.28.57.57.61.87l1.47-1.03.15-10.28c3.95-.02,9.86.49,13.89.49,1.1.37,1.96,1.23,3.18,1.35l.98-1.35,9.9-1.93c-4.2.47-6.76-4.36-10.75-4.36h0Z"/>
  <path class="cls-3" d="m225.1,119.49c.3-.03.6-.09.91-.18l-.91.18h0Z"/>
  <path class="cls-3" d="m118.76,153.75c.12,1.47-.74,2.33-1.84,2.83-.98-.37-1.71-.49-2.31-1.47-.49-1.35.73-2.34,1.71-2.83.98.25,2.2.37,2.44,1.48h0Z"/>
  <path class="cls-3" d="m110.82,153.75c.73.74.85,1.97.49,2.83-.85.74-2.2,1.35-2.93.37-.73-.74-1.46-1.6-.86-2.59.86-.86,2.32-1.6,3.3-.61h0Z"/>
  <path class="cls-3" d="m280.77,155.1c.03.06.07.12.1.18"/>
  <path class="cls-3" d="m373.8,157.19c.49,1.36-.61,2.34-1.58,2.83-1.23-.37-2.81-.62-2.81-2.21.12-.98.97-1.6,1.83-1.84,1.1-.37,2.07.49,2.56,1.23h0Z"/>
  <path class="cls-3" d="m380.28,156.94c.37.61,1.22,1.6.24,2.21-.49.37-.86.49-1.22.98-1.34.25-2.56-.24-2.93-1.47-.25-1.35.85-1.97,1.83-2.58.85-.25,1.47.37,2.08.86h0Z"/>
  <path class="cls-3" d="m80.17,158.42c-.49,1.47-1.71,2.09-3.29,1.6-.37-.37-.73-.98-.98-1.6.12-.86.37-1.72,1.35-2.09,1.46.12,2.56.74,2.93,2.09h0Z"/>
  <path class="cls-3" d="m121.32,160.51c-.13.98-1.22,1.84-2.08,2.33-1.23.12-2.08-.86-2.69-1.72,0-.98.49-2.21,1.46-2.46,1.35-.49,2.81.49,3.3,1.85h0Z"/>
  <path class="cls-3" d="m114.12,159.65c.37.37.73,1.35.37,1.97-.73.61-1.83,1.72-3.05.98-.74-.62-1.59-1.11-1.35-2.34.49-.49,1.1-1.23,1.84-1.47.97-.24,1.46.37,2.2.86h0Z"/>
  <path class="cls-3" d="m398.96,161.12c0,.98-.98,1.97-1.59,2.34-.98.37-2.07.12-2.69-.61-.73-.24-.49-1.23-.49-1.84.61-.86,1.47-1.35,2.32-1.6,1.1.25,1.83.98,2.44,1.72h0Z"/>
  <path class="cls-3" d="m406.77,162.23c-.37,1.1-1.22,2.09-2.32,2.21-.73-.12-2.07-.37-1.83-1.48,0-.86.49-1.72,1.1-1.97,1.22-.62,2.68,0,3.05,1.23h0Z"/>
  <path class="cls-3" d="m94.09,163.95c.24,1.47-.24,2.46-1.47,2.95-.85.49-1.71-.12-2.32-.61-.61-.62-1.1-1.6-.61-2.46.24-1.11,1.34-.86,2.07-1.35,1.1.12,1.71.61,2.32,1.48h0Z"/>
  <path class="cls-3" d="m100.08,165.06c.37.98-.73,1.35-.98,2.09-.61.37-1.47.74-2.2.24-.85-.74-1.83-1.84-.98-2.95.98-1.84,3.54-.86,4.15.61h0Z"/>
  <path class="cls-3" d="m391.75,164.44c.12,1.23-.97,2.09-1.71,2.83-1.1.24-2.2-.49-2.44-1.48-.12-.99.49-1.72,1.34-2.34,1.1-.12,2.2,0,2.81.99h0Z"/>
  <path class="cls-3" d="m401.77,166.41c-.25,1.11-.13,2.34-1.35,3.07-.98.25-2.19.12-2.93-.49-.73-.62-.86-1.72-.49-2.58.61-.98,1.71-1.72,2.93-1.47.86.49,1.1,1.1,1.83,1.47h0Z"/>
  <path class="cls-3" d="m89.46,168.99c.49.98-.61,1.23-.98,1.72-.85.49-1.71.12-2.44-.25-.86-.49-.49-1.72-.37-2.34,1.1-2.09,3.3-.62,3.79.86h0Z"/>
  <path class="cls-3" d="m394.07,171.33c.49.12.25.86.12,1.11-2.93,1.48-7.32,1.84-9.89-.49-1.47-1.23-3.3-1.72-4.88-2.71.61-1.6,2.81-1.47,4.4-1.84,3.54.49,6.35,3.81,10.25,3.94h0Z"/>
  <path class="cls-3" d="m95.31,170.22c.25.98-.49,1.35-.73,2.09-.49.74-1.46.49-2.07.25-1.1-.74-1.59-2.09-.86-3.08,1.35-1.35,2.93-.61,3.67.74h0Z"/>
  <path class="cls-3" d="m106.06,170.96c.49,1.11-.24,2.09-1.22,2.7-.86.49-1.59-.24-2.32-.37-.61-.86-1.71-1.85-.61-2.83,1.1-1.84,3.3-.86,4.15.49h0Z"/>
  <path class="cls-3" d="m247.22,176.16c-.23,2.45-4.29-.35-3.71,2.92.58,2.34,1.05,5.14,2.44,6.89,1.16,1.64.58,4.21.46,6.19-1.04,1.75-2.78,3.04-4.64,3.97-3.48-.35-8.58,1.75-10.21-2.57-.7-1.87-1.97-3.74-1.97-5.84.35-.23.82-.23,1.16-.58,0-.82-.93-1.29-.81-2.1,3.94-.7-1.62-4.21,1.74-4.44,2.78,2.92,7.31,1.99,9.74,5.14.58.47,1.04,1.17,1.74,1.52-.46-2.92-1.85-5.84-2.32-9-.35-1.64.23-3.15,1.4-4.09,2.09-1.63,3.83.7,4.99,1.99h0Z"/>
  <path class="cls-3" d="m116.8,175.39c.37,1.23-.61,1.97-1.35,2.58-1.1.49-1.71-.74-2.2-1.35-.37-1.23.49-1.85,1.22-2.46.86,0,1.83.37,2.32,1.23h0Z"/>
  <path class="cls-3" d="m192.13,176.62c1.46,4.8.98,9.71-1.47,13.77-.12.98.25,2.58-1.1,2.46-3.3-4.55-.86-10.94.49-15.74.24-1.23,1.71-1.72,2.08-.49h0Z"/>
  <path class="cls-3" d="m296.64,178.95c1.71,3.44,1.83,7.99.24,11.44l-.98.98c-1.34-2.83-2.44-5.65-2.81-8.73.61-2.21,1.34-4.18,1.47-6.52,1.71-.37,1.59,1.85,2.07,2.83h0Z"/>
  <path class="cls-3" d="m126.33,180.3c-.73,1.47-2.81,1.84-4.15,2.83-2.93,2.21-7.2,2.71-10.86,2.09,3.17-4.43,8.06-7.01,13.92-5.78.25.49.86.25,1.1.86h0Z"/>
  <path class="cls-3" d="m76.15,184.73c4.52,3.2,5.74,7.62,8.42,12.05.36.49,1.59.62,1.1,1.6-.98.74-1.95-.74-3.3-.49-4.64-2.09-7.57-7.25-7.45-12.66,0-.49.73-.49,1.22-.49h0Z"/>
  <path class="cls-3" d="m291.88,188.54c.12,1.23-.12,2.46-1.1,2.83-1.35.37-2.44-.37-2.81-1.48-.37-.86.36-1.35.61-1.97.98-.99,2.68-.49,3.29.61h0Z"/>
  <path class="cls-3" d="m343.41,195.06c0-2.34.61-4.55.85-6.76.37-.74.61-1.6.49-2.58,2.93-3.94,8.91-2.71,13.55-2.34,1.83.98,4.15.86,6.11,1.35.86-.62,2.07-.74,3.05-.62,3.9-2.09,1.34-6.64,1.59-10.21l-1.47-3.69c-.37-.74-.74-1.6-.98-2.46-.73-.86-1.22-2.46-1.95-3.32-2.07-5.41-6.11-8.49-9.53-12.79-6.23-8.12-16-12.67-25.76-15.86-9.64-3.32-19.42.98-28.08,4.06-2.68-.74-4.03-2.83-4.76-5.17-.49-4.67.49-9.22,2.32-13.03.37-3.07,2.44-5.41,3.3-8.24,2.2-6.88,4.52-13.65,5.01-21.15.24-4.55-3.17-7.75-6.59-9.72-2.32-.61-5.01-.49-6.72,1.35-1.59,3.32-5.01,5.54-7.94,7.13-.24,2.09,2.32.74,3.17,1.48,2.69.49,5.74-.37,7.94,1.35.24,4.92-2.57,8.98-5.13,12.67-4.15,6.15-8.54,12.42-11.11,19.18l-.49-.49.59,30.06c3.89,6.48,8.75,13.86,16.01,16.3,3.9,3.19,8.79,7.01,14.04,4.18,2.81-.86,3.05,3.07,4.39,4.67,1.47,4.55-1.83,7.75-2.07,11.93l-3.18,6.77c-3.66,7.13-6.95,14.75-12.57,20.78-1.83,0-2.93,1.96-4.76,2.09-.98,1.36-2.94.37-4.15.86-3.79,1.6-9.16.62-11.72,4.18.24.37.61.49.98.61,7.44.12,15.75.62,23.68.25.98-.37,1.84-1.23,1.95-2.34-1.1-2.09.37-3.93,1.34-5.53.61-2.95,2.56-4.79,3.42-7.62,2.56-5.04,5.49-9.96,8.3-15l3.79-6.15c.86-2.09,2.32-4.67,3.78-6.89.98-.98,1.47-2.09,2.2-3.32.12-1.23-.49-1.72-1.22-2.58.86-.86,2.2-.61,3.3-.86,3.05,1.84,6.23,4.8,6.84,8.12l1.1,3.19.49,1.48-.25,4.06.49,3.81c.61,5.9-.49,11.93-1.1,17.83-2.08,7.13-10.25,6.39-16.12,7.99-1.46.98-4.27.49-4.27,2.95,7.07,1.48,15.38.61,22.95.49,1.22-.49,1.47-1.6,2.08-2.71.24-1.6,1.83-2.95,1.34-4.67-1.34-1.72-.12-4.42-.49-6.76.24-.62.24-1.48,0-2.34.98-3.57.73-7.87,1.46-11.32l.49-4.67h0Z"/>
  <path class="cls-3" d="m403.47,190.27c-3.91,5.53-8.06,11.8-14.89,13.77-.49,0-.98.24-1.23-.37,4.15-4.43,6.35-11.32,12.82-12.91.98-.49,2.32-.98,3.3-.49h0Z"/>
  <path class="cls-3" d="m70.16,196.29c-.61.49-.12,1.6-1.22,1.72-.98.49-2.07-.13-2.56-1.11-.49-1.23.61-2.46,1.58-2.71.98.49,1.95.86,2.2,2.09h0Z"/>
  <path class="cls-3" d="m105.33,198.01c.36,1.11-.86,1.11-1.47,1.35-5.13,1.85-10.38.12-14.04-3.57,0-.49,0-.98.49-1.11,5,1.23,10.87.25,15.02,3.32h0Z"/>
  <path class="cls-3" d="m76.88,196.41c.24.49.37,1.36.24,1.85-.73,1.11-1.83,1.35-3.05,1.11-.74-.37-1.1-.86-1.59-1.6.12-1.23,1.1-1.97,2.07-2.34.98.12,1.71.37,2.32.98h0Z"/>
  <path class="cls-3" d="m191.28,197.03c.25,1.1-.73,1.84-1.46,2.33-1.1.25-2.07-.24-2.56-.98-.37-.86,0-2.09.85-2.34,1.1-.24,2.81-.12,3.17.99h0Z"/>
  <path class="cls-3" d="m408.11,197.52c.37,1.23-.73,1.84-1.58,2.58-.73.37-1.59,0-2.32-.37-.12-.61-.85-1.1-.61-1.96.49-1.11,1.59-1.6,2.8-1.48.61.49,1.1.61,1.71,1.23h0Z"/>
  <path class="cls-3" d="m416.17,197.03c.73,1.1.12,1.97-.49,2.83-.49.86-1.46,1.11-2.2.74-.73-.74-1.71-1.11-1.83-2.21,0-.98,1.1-1.72,1.83-2.09,1.23-.49,1.71.74,2.69.74h0Z"/>
  <path class="cls-3" d="m65.03,200.59c.12.86-.61,1.35-.85,2.09-.61.25-1.22.74-1.96.49-.86-.37-1.47-1.11-1.83-1.97.25-1.11.97-2.09,2.2-2.46.98.25,2.08.74,2.44,1.84h0Z"/>
  <path class="cls-3" d="m322.16,200.59c.25.49.12,1.11.12,1.6-.73.99-1.71,1.85-2.93,1.23-.73-.74-1.59-1.48-1.22-2.58.98-1.35,3.06-1.84,4.03-.25h0Z"/>
  <path class="cls-3" d="m84.69,202.44c-.24.86-.61,1.72-1.71,1.84-1.1.12-1.47-.86-2.08-1.35,0-1.11-.12-2.22.98-2.83,1.47-.49,2.81.74,2.81,2.34h0Z"/>
  <path class="cls-3" d="m72.97,202.69c.36,1.23-.49,2.09-1.22,2.71-1.46.49-2.69-.62-3.29-1.72.12-1.11.98-2.46,2.19-2.83,1.1,0,1.71,1.23,2.32,1.85h0Z"/>
  <path class="cls-3" d="m330.22,202.44c.25,1.23-.12,2.46-1.34,2.95-1.47.49-2.69-.74-3.3-1.72.61-.98.73-2.34,2.2-2.58,1.1,0,1.83.49,2.44,1.35h0Z"/>
  <path class="cls-3" d="m78.71,202.93c.37.86-.36,1.23-.62,1.84-.61,0-.97.74-1.71.49-.49-.62-1.47-.86-1.59-1.72-.12-1.23.73-1.84,1.59-2.34,1.22-.12,1.96.74,2.32,1.72h0Z"/>
  <path class="cls-3" d="m401.4,203.92c-.36.98-1.1,1.48-2.07,1.97-.98.24-1.59-.62-2.32-.99-.62-.49-.37-1.59-.12-2.21,1.22-2.09,4.51-1.11,4.51,1.23h0Z"/>
  <path class="cls-3" d="m410.68,204.41c-.37,1.36-1.71,1.97-2.93,2.09-1.1-.49-2.32-1.35-1.47-2.83.49-.49.73-.98,1.47-1.11,1.47-.49,2.56.62,2.93,1.84h0Z"/>
  <path class="cls-3" d="m352.68,205.27c.62,1.6-.85,2.09-1.83,2.83-.85-.12-1.59-.49-2.32-.99-.24-1.35.37-2.58,1.71-3.2,1.1,0,1.71.49,2.43,1.35h0Z"/>
  <path class="cls-3" d="m319.11,206.74c.61.25.36,1.11.24,1.48-.73.49-1.71,1.72-2.81.98-.86-.49-1.46-1.23-1.22-2.34.62-1.35,3.18-1.48,3.79-.12h0Z"/>
  <path class="cls-3" d="m325.95,207.6c.12.98-.12,1.48-.98,1.97-.86.86-1.83-.12-2.69-.37-.24-.49-.49-1.23-.12-1.85.37-.49.98-.86,1.59-.98.86.25,1.83.25,2.2,1.23h0Z"/>
  <path class="cls-3" d="m118.76,207.73c.73.74-.12,1.6-.25,2.34-.61.74-1.95,1.35-3.05.61-1.22-.49-1.1-2.09-.85-3.08.73-.25.73-1.11,1.71-1.11,1.1.12,1.71.61,2.44,1.23h0Z"/>
  <path class="cls-3" d="m365.75,208.22c.25,1.23-.98,1.72-1.83,1.97-1.47.49-2.2-.61-2.81-1.6,0-.74.73-1.23.98-1.84,1.71-.74,2.81.49,3.66,1.48h0Z"/>
  <path class="cls-3" d="m359.16,208.22c.48,1.23-.86,1.85-1.35,2.46-.86.37-1.95.25-2.69-.49-.61-.37-.61-1.1-.61-1.85.74-.61,1.1-1.35,1.96-1.6,1.1,0,2.19.61,2.68,1.48h0Z"/>
  <path class="cls-3" d="m414.22,209.69c.24,1.72-1.95.86-2.81,1.36-5.13,3.07-11.72.74-16.61-1.11.37-1.6,2.2-.98,3.18-1.6,5.25-3.32,10.62.74,15.86.99l.37.37h0Z"/>
  <path class="cls-3" d="m80.05,208.22l-.49.86c-4.51,2.7-10.38,4.55-15.75,2.83l-.49-.74c4.51-3.32,10.5-4.18,16.36-3.32l.36.37h0Z"/>
  <path class="cls-3" d="m378.2,209.08c0,.98-.49,1.84-1.22,2.33-1.22.37-2.81,0-3.18-1.35-.36-.98.61-1.97,1.59-2.34.86,0,2.32.12,2.81,1.36h0Z"/>
  <path class="cls-3" d="m101.91,209.57c-.49.98-.24,1.97-1.47,2.46-1.22.49-2.69-.62-3.05-1.6-.37-1.35.61-1.72,1.22-2.34,1.46-.74,2.57.37,3.3,1.48h0Z"/>
  <path class="cls-3" d="m93.24,210.19c.36.86-.37,1.35-.61,1.97-.61.74-1.71.61-2.44.37-.85-.74-1.71-1.6-1.35-2.95.74-.62,1.1-.99,1.96-1.35,1.1.24,2.2.74,2.44,1.97h0Z"/>
  <path class="cls-3" d="m386.75,213.01c-.12,1.11-.98,1.97-1.95,2.22-.98.12-1.83-.62-2.32-1.23-.37-.74-.25-1.72.49-2.34.24-.37,1.1-.37,1.59-.61,1.1.12,1.95.98,2.2,1.97h0Z"/>
  <path class="cls-3" d="m84.2,211.66c.37.99-.49,1.35-.61,2.09-.37,2.09-1.71,3.44-2.68,5.29-2.32,2.83-5.62,2.83-8.91,3.69l-.49-.99c3.54-4.55,7.33-8.11,12.33-10.33l.37.25h0Z"/>
  <path class="cls-3" d="m380.65,214.37c.24,1.48-.98,1.73-1.83,2.34-1.1,0-1.95-.61-2.44-1.47-.37-1.36.85-1.85,1.59-2.46,1.22-.25,2.32.62,2.69,1.6h0Z"/>
  <path class="cls-3" d="m98.24,214.37c-.12.25.13.49.37.62-.12,1.36-1.1,1.72-1.83,2.34-1.1,0-1.95-.37-2.69-1.23-.49-1.11,0-2.46,1.22-2.83,1.1-.12,2.57,0,2.93,1.11h0Z"/>
  <path class="cls-3" d="m403.11,218.06c1.22-.13,1.46-1.6,2.81-1.85,1.22-.25,2.31.49,2.93,1.35.49,1.48-.62,2.21-1.59,2.83-.86.61-2.69-.74-2.57.86.86.61,1.59,1.48,1.71,2.46-.24.49-1.1.37-1.46.12-3.54-1.48-7.33-3.93-8.79-7.62-.49-1.11-2.8-1.97-1.47-2.95,3.55-.25,6.47,2.59,8.43,4.8h0Z"/>
  <path class="cls-3" d="m414.83,214.24c.61.61.37,1.72-.12,2.34-.62,1.23-2.44.74-3.54.61-.61-.61-1.22-1.23-.98-2.21.49-.74.98-1.23,1.83-1.6,1.1-.25,1.95.25,2.81.86h0Z"/>
  <path class="cls-3" d="m370.51,220.88c1.1,1.35,2.2,3.44,2.68,4.92-.25.37-.86.25-1.1.25-4.15-2.34-9.52-4.92-11.11-9.84-.37-.49-1.35-1.11-1.22-1.97,3.18-.61,6.23,1.72,8.43,3.44.86,1.23,1.83,1.85,2.32,3.2h0Z"/>
  <path class="cls-3" d="m91.41,216.21c.49,1.11-.49,1.97-1.1,2.46-1.34.25-2.08-.24-2.81-.98-.85-1.35.73-2.46,1.71-2.95.97-.12,1.58.86,2.2,1.48h0Z"/>
  <path class="cls-3" d="m385.77,219.04c.12.74-.85,1.23-1.22,1.72-.98.12-1.95.49-2.81-.37-.24-.62-.86-1.6-.12-2.21,1.34-1.72,3.3-.37,4.15.86h0Z"/>
  <path class="cls-3" d="m416.17,220.76c.36,1.47-.74,2.46-1.71,3.07-1.22.37-2.19-.49-2.93-1.11-.61-.74-.12-1.48,0-2.34.86-.74,1.95-1.35,3.18-.86.49.37.97.61,1.47,1.23h0Z"/>
  <path class="cls-3" d="m331.69,237.73c0,1.47-2.69,1.11-3.79,2.21-3.79,1.97-8.3,1.97-12.82,1.85v-.74c4.39-3.69,10.74-5.04,16.6-3.32h0Z"/>
  <path class="cls-3" d="m153.56,243.02c-.13,1.11-.74,1.72-1.84,2.09-.85,0-1.71-.49-2.07-1.23-.49-1.47.73-2.09,1.59-2.71,1.1.12,2.07.99,2.32,1.85h0Z"/>
  <path class="cls-3" d="m329.61,244.37c-.24,1.11-.61,2.34-1.83,2.83-1.1.24-1.83-.37-2.69-.86-.61-.49-.24-1.35-.36-1.97.85-2.21,4.02-2.21,4.88,0h0Z"/>
  <path class="cls-3" d="m353.91,244.86c-3.06,1.97-6.47,4.3-10.5,4.3l-6.59-.13-.62-.49c4.03-4.92,11.36-4.92,17.71-4.43v.74h0Z"/>
  <path class="cls-3" d="m120.1,247.81c0,1.11-.49,1.97-1.59,2.34-1.22.25-2.08-.25-2.57-1.11-.49-1.11,0-2.21.98-2.83,1.35-.86,2.69.61,3.18,1.6h0Z"/>
  <path class="cls-3" d="m126.2,249.04c.37.62-.24.99-.49,1.6-.73.37-1.71.62-2.32,0-.86-.49-1.1-1.36-.73-2.09.37-.74,1.1-.62,1.47-1.11.85.37,1.71.74,2.07,1.6h0Z"/>
  <g class="cls-2">
    <path class="cls-3" d="m79.44,261.46c-1.22,1.48-3.17-.37-4.52-1.11-4.27-2.46-4.15-7.26-8.42-10.08.49-1.48,1.58.12,2.44-.12.73.49,1.71.98,2.57,1.35,4.15,2.34,5.13,6.27,7.94,9.96h0Z"/>
    <path class="cls-3" d="m241.21,259.13c-.49,1.48-1.46,2.71-1.34,4.3l-.49.25c.37-1.85-1.47-2.95-.98-4.92-.98-1.47-.98-3.32-1.83-4.92-1.1-1.97.97-2.83,1.83-4.18,1.71.74,2.32,2.34,3.54,3.81.73,2.09-.86,3.69-.73,5.65h0Zm194.13-45.37c-1.95-3.57-5.25-5.04-9.16-5.04-3.17.25-5.49,2.34-6.84,5.04-.73,2.71.25,5.16,2.32,6.76.86.37,1.95.25,2.44-.61.61-1.6-1.1-1.6-1.34-2.83-.49-1.72.12-3.2,1.34-4.3,1.22-1.23,3.3-.61,4.76-.61,1.47.98,2.93,1.85,3.66,3.57.74,2.09.74,4.42,0,6.51-1.34,3.08-4.39,5.53-7.57,6.15-10.14,1.48-121.36.98-121.36.98-13.06,1.23-27.96-2.46-39.19,4.43-5.13,2.46-7.69,8.12-9.04,13.16-3.3,2.95-6.84,6.39-9.53,9.71l-.37-.36c.61-2.95,1.95-5.53,2.56-8.49,1.83-2.46,1.83-5.78,3.17-8.49,4.64-7.5,9.03-15.12,16.24-20.41,3.05-4.06,8.42-3.32,13.06-3.32,5,2.34,10.87,3.07,16.97,2.46.24-.25.37-.49.37-.86-1.71-1.6-4.52-2.21-6.47-3.81-4.88-2.34-9.53.74-14.65.37-.24-.25-.49-.37-.37-.74,4.64-3.44,9.89-5.9,15.14-8.12,4.27-2.33,8.79-3.56,13.31-5.28,1.83,0,3.54-1.6,5.25-.49l6.47-1.72c.25.12.49.49.98.37,5.49-1.85,12.46-.13,18.68-.25l.86.74,5.86,1.47c2.2.25,3.18,2.83,5.49,2.95,1.22-1.72-1.34-2.46-1.95-3.57,2.69-.62,5.74.12,8.18,1.23l-1.22,1.35c-.74,1.35.36,2.34,1.46,2.83.86.25,1.47-.37,2.07-.61,1.59-1.11-.12-2.21.37-3.2,9.04,1.6,17.71,3.81,26.01,7.38,2.32.74,4.52,2.46,7.08,2.34-2.57-2.34-6.11-3.57-9.28-4.92-2.08-1.23-5.01-1.35-6.59-3.07.36-.62,1.22-.37,1.58-.86,4.16-.49,7.7-3.57,10.63-6.89.24-.74,1.59-.49,1.47-1.48-1.1-1.23-2.94.37-4.4.25-5.13.98-7.33,7.01-12.46,8.11-6.22-1.48-12.57-2.95-18.8-4.55-3.05-.5-6.35-.74-9.15-1.97l-6.84-.61h-12.45c-.12-.25-.49-.37-.37-.74,4.4-1.11,8.18-3.69,12.58-4.8l32.72-15c3.42-3.08,6.47-6.52,9.28-10.08.12-.98-.49-1.97-1.35-2.34-.86-.37-1.83-.24-2.44.49-1.47,1.11,0,2.46,0,3.81-1.47,1.97-3.79,3.69-5.62,4.79-.49-.12-33.7,15.13-33.7,15.13-4.89,2.09-9.77,4.43-14.9,5.53l-7.08,1.1c-.49,1.48-1.71,2.34-3.06,2.83-1.95.37-3.54,1.6-5.61,1.6-15.87,6.15-32.35,12.67-44.93,25.21.73-1.47,1.1-3.32,1.22-5.16-.25-1.84-.12-3.93-1.34-5.41-.29-.68-1.18-2.66-.89-3.37l-1.79,1.16c-1.1,2.71-2.08,7.62-.98,10.45.37,2.21,2.2,4.8.49,6.76-5.86,7.13-9.16,15.74-13.06,23.86-1.47-.25-2.2-1.6-2.81-2.95,4.15-5.29,7.45-11.19,8.67-17.95.85-.62.24-2.22,1.1-2.95-.24-1.97,1.1-3.93.12-5.53.78-2.68-3.57-5.16-.79-6.88l-2.3,1.1c-5.25,6.89,2.73,17.22-3.26,23.86v.49c-1.71,2.22-2.57,4.43-4.88,5.9-2.93-1.23-4.03-4.55-5.74-7.01-2.69-2.58-2.69-7.87-1.1-11.44,1.1-3.56-.73-6.64-1.1-9.84l-1.22-.73c-2.93,3.81-4.03,9.84-1.71,14.38,1.22,2.22,1.35,5.29,3.18,7.13,1.1,3.57,3.29,5.9,5.25,9.1.49,1.23-.73,1.48-1.34,2.09-1.34-.86-1.1-2.83-2.32-3.69-4.03-8.61-9.28-15.49-15.63-22.5-.25-1.11-1.35-2.09-.74-3.32,2.32-2.22,2.81-6.52,1.59-9.35-.24-.61-.97-1.35-.85-1.97l-1.84-1.48c.24,4.3-2.56,8.11-1.34,12.67v.24c-12.58-9.47-26.48-17.92-40.64-24.56l-1.13,3.12c3.58.9,13.08,6.68,13.08,6.68,4.27,1.6,8.18,4.19,12.21,6.52,16.6,9.23,27.59,24.47,35.04,41.44.12,1.35,1.35,2.83.49,4.18-2.57-3.94-6.22-6.15-9.28-9.35-.86-5.78-4.27-11.31-9.28-13.65-1.83-2.71-5.74-2.95-8.79-3.81l-44.44-.25c-36.14-.5-69.1,1.11-105,.49-5.01-.49-11.11-2.21-12.58-7.5-.98-1.85-.98-5.04,0-6.76,1.34-2.34,3.78-3.07,6.22-3.32,1.95.24,3.3,2.09,4.16,3.44,0,1.59-1.35,3.07-1.96,4.42.12.49.61,1.47,1.47,1.1,1.59-.61,2.81-2.33,3.18-3.93.12-.86.49-2.09-.37-2.7-.73-2.58-3.42-4.43-5.74-5.04-3.06-.25-6.23.62-8.31,2.83-2.93,2.46-2.81,6.89-1.95,10.33,1.95,5.41,7.69,9.1,13.19,9.84l118.8.5c11.6.61,24.66-1.36,36.38.98,4.27,1.35,8.79,4.55,9.89,9.35-.13.24-.49.12-.85.12-9.65-6.27-22.34-8.61-34.68-7.13-4.88-.25-9.28,1.6-13.67,2.83-2.32.49-4.52-.62-5.98-1.97-4.39-3.93-12.09-3.69-17.7-2.22,0,.37-.12.74.12.86,5.98-.49,9.52,4.67,14.9,5.29,1.22.25,2.2-1.11,3.29-.12-5.61,2.71-10.99,5.9-16.97,7.62-1.83-.37-2.81-2.09-4.27-3.07-2.32-2.58-6.59-1.48-9.76-1.72-1.1.25-2.07-.49-2.81,0,.98,1.97,3.17,3.07,5.25,4.06,3.05,1.35,6.59-.12,9.4,1.72-.74.86-1.71,1.11-2.57,1.72-5.74,2.22-10.5,7.38-16.85,7.01-6.71.74-13.55-1.23-18.07-5.9-1.95-4.79-6.96-7.38-12.33-7.13-.36.25-.85.25-.73.86,2.69,1.6,4.76,4.79,7.45,6.64,1.71,2.09,5.01,0,6.59,2.33,2.33,1.6,5.25,2.95,7.94,3.44,1.95.86,4.15,1.23,6.35,1.72l-.86.49c-11.11,3.69-23.93,4.06-36.38,3.57-3.66-.12-7.21-1.23-10.87-1.11.61.74,1.83,1.35,2.93,1.72-.97.62-2.07.86-3.29.99-1.46.37-3.17.49-4.64,1.23-1.95-.12-3.66.61-5.25,1.23-2.08,2.21-4.52,4.55-6.96,5.65,0,.49-.12,1.23.49,1.23,2.32-.98,5.25-.25,7.57-1.23,4.03-.37,6.35-4.79,9.53-6.64,3.41-2.7,8.3-2.09,12.45-1.47,2.44.61-.24,1.6.49,3.2.98.86,1.83,1.84,3.18,1.47.24-.25.49-.49.85-.61.73-.99.61-2.09.12-3.08,1.71-1.11,4.03.12,5.86-.62,4.64-.12,9.28-1.11,13.8-1.23.73-.12,1.59-.86,2.32-.12-.36.99-1.59,1.11-1.1,2.46.24,1.11,1.47,1.6,2.44,1.85,1.22-.49,2.32-1.35,1.83-2.95-.24-.86-1.22-.98-1.83-1.35,2.57-1.23,5.49-1.6,8.06-2.83,1.83-.37,3.54-.98,5.13-1.72,1.59-.12,2.93-1.6,4.39-.99-.61,2.09-1.46,4.06-2.56,5.9-1.95,6.52-3.42,15.13,0,21.4.37.12.49-.12.73-.24-2.57-6.52-1.1-14.02,1.1-20.17,1.71-10.45,12.45-13.52,20.15-17.46l.36.49c-2.07,5.41-5.13,10.57-4.64,17.09.24,1.1-.49,2.21,0,2.95,2.07-1.11,3.42-3.57,4.51-5.66.86-5.53-2.31-12.42,3.3-16.48,10.01-3.93,19.41-9.1,31.01-9.22.37.37,1.22-.25,1.34.49-2.44,2.71-5.98,5.29-7.08,8.61-3.9,5.41-3.78,14.64-2.08,21.28,1.1,3.81-2.2,5.9-3.78,8.85-.76,1.05-.98,2.84-1.68,4.04l2.41.26c2.07-2.21,4.03-4.92,4.15-8.12.24,1.24,1.34,2.22,2.32,2.46.86-1.36-.73-2.34-.86-3.69,1.96-1.1,2.81,1.35,4.4,1.85,2.57.62,4.76,1.72,7.45,1.72l.86-.86c-2.69-4.18-8.06-4.92-12.7-5.17-2.44-4.06-2.44-9.1-2.2-14.02.49-2.59.98-5.29,2.44-7.63.61-1.72,2.32-3.32,3.42-4.67,2.2-2.09,5.01-3.57,7.69-4.18h.36c0,.25.12.37.12.37-3.3,2.58-3.66,6.15-5.61,9.35-2.08,3.08-3.06,7.26-1.1,10.7.73,1.6.37,4.06,2.07,5.17,1.58-2.21,1.71-5.04,2.56-7.51-.37-4.05-2.8-7.87-.49-11.8,1.22-3.08,3.79-4.3,6.59-5.41,6.72-.62,12.58,2.83,18.43,5.41,1.23.86,3.3,1.6,3.54,3.32-.12,3.32-1.95,6.64-4.52,8.24-3.3,1.97-8.06,2.21-11.11-.12-1.83-1.85-2.56-5.04-1.95-7.5,1.35-1.48,3.18-2.71,5.37-1.97,1.22.62,2.32,1.85,3.91,1.11.61-.37.85-1.35.49-1.97-1.34-.74-1.83-2.58-3.66-2.83-2.32-.37-5.13-.25-6.71,1.35-2.57,2.21-3.54,5.53-2.81,8.61.85,3.93,3.78,6.76,7.57,7.87,5.62,1.35,11.48-.37,15.02-5.17,1.46-1.6,1.83-3.32,2.69-5.29,5.86,3.57,10.25,9.84,12.58,16.23,0,2.09.61,4.3.12,6.15l4.27.37c-.37-.98,0-2.09.37-2.95,1.59-8.11,6.59-14.88,12.57-20.17,2.08-1.23,1.59,1.6,2.08,2.46,1.83,4.67,6.11,7.99,10.62,9.35,5.12.86,10.01-.37,13.18-4.31,1.59-2.95,3.54-7.26.86-10.33-1.71-2.09-4.03-3.2-6.71-3.2-3.17,0-5.13,2.21-6.72,4.55,0,.98-.12,2.09.73,2.58.49,0,1.47.12,1.83-.62.24-1.84,1.83-2.71,3.3-3.69,1.34-.74,2.81,0,3.91.74,1.34,1.11,1.59,2.95,1.71,4.8-.24,2.34-1.83,4.8-4.03,5.78-3.54,1.84-8.67.98-11.72-1.11-1.46-1.6-2.32-3.44-3.42-5.41-.25-1.97-.98-3.69,0-5.66,5.37-3.2,10.99-5.53,17.46-6.15,2.56.49,4.76,2.22,6.47,4.06,5.61,5.78-1.22,14.02,2.69,20.41,1.47-.24,1.47-2.21,2.08-3.44,1.84-4.43-.49-9.23-1.58-13.53-1.47-2.71-2.32-5.04-4.64-7.26.61-.25.86-.25,1.47-.25,2.57,1.72,5.37,3.69,7.45,6.39,3.54,5.78,5.38,12.67,4.76,20.17-.97,3.69-4.88,5.41-7.94,6.76-1.22.99-2.68,2.46-3.29,3.94,1.47.86,3.54,0,5-.62,2.32-.86,3.66-3.81,5.25-5.16.24.12.12.49.24.74.12,1.35-.61,3.2.61,3.56.61-1.72.73-4.18,1.1-6.27,1.59,1.73,1.83,3.93,2.32,6.15,1.1,2.21,2.93,5.16,5.86,5.53.73-1.11-.12-2.22-.36-3.2-.37-3.08-2.93-4.67-4.64-6.89-4.27-5.9-2.32-15.12-5.61-21.76-1.22-3.57-3.79-6.15-6.59-9.1l.49-.49c5.98-.12,10.99,1.84,16.48,2.95,6.72,3.32,16.48,2.58,19.66,11.31,1.34,4.92,3.54,9.47,6.96,13.28l.37-.25c.73-1.23.73-3.32,0-4.55-.73-6.15-6.11-7.63-8.92-12.79l.37-.49c2.93.86,5.98,1.6,8.91,2.83,9.77,2.71,16.6,12.3,17.83,22.26,0,7.87-1.47,14.38-4.52,21.02-.37.99-2.07,2.09-.98,2.95,1.35-.98,1.59-2.58,2.32-3.69,4.03-6.76,6.1-16.11,4.03-24.72-.12-1.6-1.95-2.83-1.1-4.42.62.74,1.35.86,2.08,1.11.74-.49,1.83-.49,2.32-1.36.12-.74.6-1.6,0-2.21-.74-1.1-2.32-1.1-3.54-.86-.61.74-1.35,1.72-1.47,2.71-1.22-2.09-2.44-4.79-4.4-6.52l.25-.37c5.5,1.85,10.5,4.55,16.12,6.02,1.22.74,2.56,1.36,4.27,1.36,4.76,1.84,10.01,2.58,15.02,3.81,3.66-.37,6.72,1.35,10.38.49v-.24l-.12.12c-1.35-1.72-4.27-.12-5.86-1.35-8.43-.86-16.48-3.07-24.05-6.03.12-.37.61-.24.98-.24,1.22-.62,2.07-1.73,1.95-3.08-.61-.86-1.59-1.35-2.81-1.35-.73.37-1.71,1.23-1.83,2.09.12.98.98,2.09,1.83,2.34-.24.24-.73.12-1.1.12-3.79-1.73-7.45-3.32-11.11-5.04-1.34-.25-2.44-1.35-3.78-1.6-2.8-1.35-5.61-2.7-8.43-3.81-7.81-4.06-16.48-6.27-24.78-9.22-1.83-.49-3.54-.99-5.25-1.48-3.05-.86-6.1-1.6-9.16-2.46-10.38-2.58-24.3-2.83-33.33,2.83-1.46-.49-2.32,1.85-3.05.37,2.57-6.76,10.01-8.98,16.72-9.22,48.96-.5,94.87-.86,143.09-1.6,5.62,0,11.11-1.97,14.04-7.01,2.07-2.95,2.44-8,.86-11.31h0Z"/>
  </g>
  <path class="cls-3" d="m373.68,251.38c0,.37.73.49.49,1.11-4.27,3.81-10.25,4.92-16.36,5.16-.49.12-.98.49-1.59.37-.37-.24-.49-.61-.24-.86,4.39-4.8,11.11-7.25,17.7-5.78h0Z"/>
  <path class="cls-3" d="m354.03,253.35c.48,1.72-.61,2.71-1.96,3.32-1.34-.12-2.07-.98-2.68-1.97-.37-.98.49-1.48.86-2.09.97-.99,3.29-.99,3.78.74h0Z"/>
  <path class="cls-3" d="m121.93,253.59c.24.86.12,1.97-.61,2.58-.49.62-1.59.74-2.2.62-.85-.13-1.34-1.11-1.58-1.85,0-1.11.61-1.72,1.58-2.34.98,0,2.07-.12,2.81.98h0Z"/>
  <path class="cls-3" d="m100.08,261.59v.86c-2.93.62-5.74-.12-7.94-1.85-1.71-2.46-3.66-4.92-6.47-6.15,0-.37-.74-.86,0-1.11,6.1,0,9.77,4.92,14.41,8.24h0Z"/>
  <path class="cls-3" d="m392.24,253.47c-2.81,4.18-5.25,9.34-10.25,11.19-.86,0-1.59,1.23-2.32.37,1.95-4.67,6.1-9.72,10.87-11.68.49,0,1.22-.12,1.71.13h0Z"/>
  <path class="cls-3" d="m129.01,254.95c.12,1.36-.85,1.6-1.71,2.34-.98.12-1.46-.62-2.08-1.35-.49-1.23.61-1.72,1.22-2.34.98-.25,2.08.49,2.57,1.35h0Z"/>
  <path class="cls-3" d="m407.62,255.69c-1.1,1.6-.61,3.93-1.71,5.66-2.44,2.83-4.52,6.02-8.43,6.64-.61-1.23.86-2.46,1.47-3.56,1.71-3.69,4.15-7.87,8.06-9.47l.61.74h0Z"/>
  <path class="cls-3" d="m62.23,256.79c.37.86.73,1.72,0,2.71-.73.61-1.83.86-2.81.49-1.1-.61-1.46-1.97-.98-2.95.73-1.11,2.93-1.72,3.78-.25h0Z"/>
  <path class="cls-3" d="m55.27,258.27c.12.61.48,1.11.36,1.72-.36.62-.97,1.36-1.71,1.48-1.35.25-2.2-.49-2.81-1.6-.12-1.11.24-2.09,1.21-2.58,1.1-.49,2.33.12,2.94.98h0Z"/>
  <path class="cls-3" d="m69.67,259c.25.98.49,2.71-.97,2.95-1.71.74-2.69-.49-3.67-1.48,0-1.11.61-1.97,1.47-2.46,1.22-.12,2.32,0,3.17.99h0Z"/>
  <path class="cls-3" d="m89.7,260.6c-.12.86.12,2.09-.86,2.34-.61.62-1.71.37-2.32.25-.25-.74-1.59-1.36-.86-2.22.49-.62.98-.99,1.71-1.35.73.37,1.83,0,2.32.98h0Z"/>
  <path class="cls-3" d="m419.35,261.46c-.37.86-.85,1.97-1.83,1.97-1.1-.12-2.2-.24-2.8-1.36-.49-1.35.61-2.09,1.59-2.46,1.22,0,2.81.49,3.05,1.84h0Z"/>
  <path class="cls-3" d="m397,262.08c.12.99-.98,1.73-1.47,2.09-1.71.74-3.17-.49-3.79-1.84.25-1.11,1.1-1.85,2.08-2.22,1.58-.12,2.44.74,3.17,1.97h0Z"/>
  <path class="cls-3" d="m412.14,261.83c0,.86-.49,1.73-1.1,2.09-.98.37-2.2.25-2.94-.49-1.1-.98-.24-1.85.49-2.58,1.1-.62,3.17-.49,3.54.98h0Z"/>
  <path class="cls-3" d="m59.05,263.92c.24,1.35-.24,2.58-1.46,3.07-1.1,0-2.32-.61-2.69-1.72-.12-1.11.24-2.21,1.22-2.58,1.22-.37,2.2.37,2.93,1.23h0Z"/>
  <path class="cls-3" d="m390.9,265.27c.36,1.36-.37,2.58-1.71,3.2-.97.25-1.59-.25-2.32-.86-.49-.62-1.1-1.97-.12-2.58.98-1.84,3.42-1.11,4.15.24h0Z"/>
  <path class="cls-3" d="m124.74,266.63c.49,1.35-.97,1.6-1.34,2.34-.49.24-1.47.37-1.83-.12-.61-.74-1.34-1.48-.98-2.58.61-.49.86-.99,1.59-1.23,1.35-.37,1.83.86,2.56,1.6h0Z"/>
  <path class="cls-3" d="m417.15,267.49c.25.86-.49,1.23-.61,1.84-.73.62-1.95.74-2.81.5-1.1-.62-1.1-1.6-1.1-2.71.73-.49.85-1.11,1.71-1.36,1.1,0,2.45.49,2.81,1.72h0Z"/>
  <path class="cls-3" d="m409.58,267.86c.49,1.47-.86,2.21-1.83,2.58-.49.12-1.22-.25-1.35.49,3.18,1.6,5.13,4.18,7.57,6.52v.99c-4.39-.12-8.91-1.23-12.09-4.67-.85-.61-2.32-.61-3.29-1.48,1.59-1.6,4.52-.98,6.71-1.11,1.59-1.72-1.83-2.95.24-4.42.73-.12,1.22-.86,2.2-.62.86.37,1.34.99,1.83,1.72h0Z"/>
  <path class="cls-3" d="m359.64,267.98c.25.62-.48,1.35-.6,1.97-.74.74-1.84.86-2.69.49-.61-.86-1.59-1.6-1.23-2.83.98-1.85,4.15-1.48,4.52.37h0Z"/>
  <path class="cls-3" d="m86.65,272.28c-.37,1.11-.86,1.84-2.07,1.97-.98-.12-1.83-.49-2.2-1.47-.12-.86.49-1.35.61-1.97,1.34-1.11,3.78-.37,3.66,1.48h0Z"/>
  <path class="cls-3" d="m96.54,270.69c0,1.72-1.83,2.7-2.44,4.42-1.83,4.06-5.12,7.75-9.77,8.12-.49-1.11,1.59-2.46,2.08-3.56,1.95-4.18,5.86-6.4,9.4-8.98h.73Z"/>
  <path class="cls-3" d="m356.71,272.41c.12,1.35-1.1,2.34-2.08,2.83-1.1.37-1.95-.49-2.56-.99-.97-.98-.36-1.97.12-2.95,1.47-1.47,3.54-.25,4.52,1.11h0Z"/>
  <path class="cls-3" d="m364.29,273.27c-.12,1.35-.98,2.34-2.2,2.71-.24-.37-.85-.12-1.22-.25-.85-.49-1.59-1.23-1.59-2.21.61-.62.86-1.6,1.71-1.72,1.1-.12,2.93,0,3.3,1.48h0Z"/>
  <path class="cls-3" d="m115.46,273.15c.12,1.35-.85,2.09-1.83,2.58-1.1.12-1.83-.62-2.32-1.48-.24-1.1.85-1.84,1.46-2.46,1.47-.49,1.83.61,2.69,1.35h0Z"/>
  <path class="cls-3" d="m123.89,273.64c-.37,1.11-1.1,1.85-2.32,2.09-.85-.25-1.83-.49-2.2-1.48-.12-1.23.86-1.84,1.71-2.46,1.22,0,2.56.49,2.81,1.84h0Z"/>
  <path class="cls-3" d="m390.53,282.25c.61.49,1.71,1.11,1.46,1.97-1.95.86-3.54-1.36-5.37-1.72-2.93-2.95-5.13-6.15-6.35-9.84,1.1-1.11,2.32.24,3.3.62,2.81,2.34,5.49,5.41,6.96,8.98h0Z"/>
  <path class="cls-3" d="m395.05,273.64c.36.86.24,1.85-.24,2.71-.74,1.23-2.32.99-3.42.74-.61-.74-1.71-1.72-.98-2.83.37-.98,1.46-1.23,2.32-1.6.85-.12,1.47.62,2.32.98h0Z"/>
  <path class="cls-3" d="m135.11,276.84c.13.98.37,2.46-.85,3.08-1.1.25-2.56-.12-2.93-1.48-.61-1.48.73-1.72,1.47-2.46.98-.25,1.58.24,2.31.86h0Z"/>
  <path class="cls-3" d="m363.92,284.83c1.71,2.46,2.92,5.53,3.17,8.73-.37.86.61,1.72-.12,2.34h-.49c-5.49-3.93-6.72-9.47-8.79-15-.49-.24-.62-.74-.49-1.23,1.22-1.11,2.07,1.1,3.3,1.47l3.42,3.69h0Z"/>
  <path class="cls-3" d="m150.99,280.65c-.12.12,0,.24.12.24-4.88,3.44-11.72,5.53-17.33,2.21-.12-.37.12-.98.61-1.1,3.54-1.11,6.96-2.83,10.75-2.34l5.86.98h0Z"/>
  <path class="cls-3" d="m123.15,281.26c-4.15,2.58-7.93,7.62-13.06,8.85-.98.37-1.58,1.72-2.8.99,2.2-6.64,9.4-10.21,15.87-10.82v.99h0Z"/>
  <path class="cls-3" d="m356.71,286.79c.36.99,0,2.34-.98,2.58-.61.61-1.83.61-2.32,0-1.1-.49-1.1-1.6-1.1-2.46.36-.86,1.22-.98,1.83-1.35,1.1.25,1.95.25,2.56,1.23h0Z"/>
  <path class="cls-3" d="m346.58,287.41c-.74,1.73-2.81,2.71-4.39,3.2-4.15,1.48-7.94-.49-11.6-1.47.12-.99,1.34-.62,1.95-1.23,4.03-.86,8.18-1.72,12.45-.62.37-.24,1.22-.37,1.59.12h0Z"/>
  <path class="cls-3" d="m123.15,290.98c-.36.49-.48,1.6-1.47,1.97-.85.37-1.71,0-2.44-.49-.24-.74-1.1-1.35-.49-2.22.24-.86,1.22-1.1,1.95-1.35,1.22.12,2.2.86,2.44,2.09h0Z"/>
  <path class="cls-3" d="m130.35,292.08c-.37.74-.73,1.85-1.7,2.34-.98.25-1.72-.25-2.45-.86-.36-.74-.73-1.6-.36-2.46.25-.62,1.1-.74,1.71-1.11,1.22-.12,2.32,1.11,2.81,2.09h0Z"/>
  <path class="cls-3" d="m354.39,293.31c.12.98-.36,1.6-.86,2.34-.61.86-1.83.98-2.68.49-.85-.12-1.1-1.11-1.47-1.72-.73-.98.49-1.6.86-2.46,1.34-1.11,3.54-.49,4.15,1.35h0Z"/>
  <path class="cls-3" d="m359.76,293.07c.12.62.49,1.23.25,1.72-.74.61-1.23,2.21-2.69,1.6-.73.24-1.09-.74-1.46-.99-.49-1.23-.12-3.07,1.46-3.32,1.1-.37,1.84.61,2.44.98h0Z"/>
  <path class="cls-3" d="m125.96,296.63c.24,1.36-.25,2.58-1.23,3.32-1.34.25-3.05.25-3.54-1.35-.12-1.23,0-2.83,1.47-3.57,1.22-.12,2.68.12,3.3,1.6h0Z"/>
  <path class="cls-3" d="m132.92,296.14c-.24,3.44-.98,7.62-4.39,9.59-1.96.37-3.91,2.22-5.86.98v-.61c2.56-3.69,7.2-6.52,10.25-9.96h0Z"/>
  <path class="cls-3" d="m335.23,298.97c.48.74-.37,1.36-.73,1.97-.73.86-2.08.49-2.93.12-.86-.37-.98-1.6-.61-2.46.24-.74.98-1.11,1.59-1.36,1.1-.12,2.08.87,2.69,1.72h0Z"/>
  <path class="cls-3" d="m145.13,304.63c1.71,2.83.73,6.64,1.71,9.71-2.07.25-2.93-2.09-4.27-3.32-2.68-3.69-2.32-8.61-3.54-12.91.25-.37.61-.37.86-.25,1.83,1.23,3.17,3.56,4.64,5.16-.24.86.73.86.61,1.6h0Z"/>
  <path class="cls-3" d="m341.33,299.95c0,.99-1.1,1.23-1.71,1.84-.85-.12-1.59-.49-2.32-1.11-.37-1.23.61-1.6,1.22-2.21,1.22-.49,2.44.12,2.81,1.47h0Z"/>
  <path class="cls-3" d="m355.86,310.9c0,.37-.12,1.11-.74.86h-.49c-3.54-3.2-7.08-6.76-6.59-11.68l.74-.12c3.29,2.83,6.96,5.9,7.08,10.94h0Z"/>
  <path class="cls-3" d="m346.7,306.96c.12.99-.49,1.72-1.1,2.33-1.35.37-3.42.25-3.66-1.6-.12-1.23,1.22-1.85,1.84-2.46,1.46-.37,2.44.61,2.93,1.72h0Z"/>
  <path class="cls-3" d="m338.64,309.55c-1.71,4.55-6.35,6.88-9.52,10.33-.61-.37-.37-1.35-.24-1.85,1.22-4.67,4.88-9.22,9.4-11.06,1.95.25,0,1.6.37,2.58h0Z"/>
  <path class="cls-3" d="m347.8,313.23c0,1.11-1.1,1.6-1.71,2.22-.98-.12-1.95-.37-2.69-1.36-.12-1.23.85-1.6,1.58-2.21,1.22-.25,2.32.37,2.81,1.35h0Z"/>
  <path class="cls-3" d="m257.12,90.95h-1.35c-3.54,0-.54,4.29,1.37,4.29,2.36,0,2.51-4.29-.02-4.29h0Zm-10.93,4.29c3.54,0,.19-4.29-1.71-4.29h-3.54c-3.54,0-.19,4.29,1.71,4.29h3.53Zm-14.83,0c3.54,0,.19-4.29-1.71-4.29h-3.53c-3.54,0-.19,4.29,1.71,4.29h3.54Zm25.6-5.26c1.67,0,3.02,1.36,3.02,3.04s-1.35,3.04-3.02,3.04h-36.21c-1.66,0-3.02-1.36-3.02-3.04s1.35-3.04,3.02-3.04h36.21Z"/>
  <path class="cls-3" d="m257.21,146.11c0,1.6,2.14.53,3.74.53s3.74,1.07,3.74-.53c0-2.27-2.14-1.48-3.74-1.48s-3.74-.79-3.74,1.48h0Zm6.78,3.78c1.55,0,1.69-2.14,1.69-3.99,0-4.2-3.32,0-5.02-3.95-1.24,3.33-4.65.25-4.65,3.83,0,2.47-.02,4.11,2.44,4.11h5.55Zm-10.21-18.37l6.92,2.66,6.8-2.66-2.69,10.18,5.39-1.11-1.84,6.17,1.84,5.92-4.78-1.3,2.08,10.98-6.8-2.65-6.92,2.65,2.82-10.98-5.52,1.55,1.48-6.17-1.48-5.92,5.27.87-2.57-10.18h0Z"/>
  <polygon class="cls-3" points="237.59 146.5 237.59 145.21 236.43 144.99 237.34 144.05 236.77 143.01 237.96 143.13 238.68 141.87 239.38 143.11 240.59 143.01 240.02 144.05 240.93 144.99 239.77 145.21 239.77 146.5 238.68 145.68 237.59 146.5 237.59 146.5 237.59 146.5"/>
  <polygon class="cls-3" points="232.22 153.42 232.22 152.13 231.06 151.91 231.97 150.96 231.41 149.92 232.59 150.05 233.31 148.79 234.01 150.03 235.22 149.92 234.65 150.96 235.56 151.91 234.41 152.13 234.41 153.42 233.31 152.6 232.22 153.42 232.22 153.42 232.22 153.42"/>
  <polygon class="cls-3" points="241.33 152.54 241.33 151.24 240.17 151.03 241.08 150.08 240.51 149.04 241.7 149.17 242.42 147.91 243.12 149.15 244.33 149.04 243.77 150.08 244.67 151.03 243.52 151.24 243.52 152.54 242.42 151.72 241.33 152.54 241.33 152.54 241.33 152.54"/>
  <polygon class="cls-3" points="242.4 157.7 242.4 156.97 241.75 156.85 242.26 156.31 241.94 155.72 242.61 155.8 243.02 155.09 243.42 155.79 244.1 155.72 243.78 156.31 244.29 156.85 243.64 156.97 243.64 157.7 243.02 157.24 242.4 157.7 242.4 157.7 242.4 157.7"/>
  <polygon class="cls-3" points="233.94 163.61 233.94 161.4 231.96 161.02 233.51 159.4 232.55 157.62 234.58 157.83 235.82 155.67 237.02 157.8 239.08 157.62 238.12 159.4 239.67 161.02 237.69 161.4 237.69 163.61 235.82 162.21 233.94 163.61 233.94 163.61 233.94 163.61"/>
  <polygon class="cls-3" points="238.25 47.61 242.55 58.19 253.44 54.98 247.91 64.96 257.19 71.54 246 73.41 246.68 84.82 238.25 77.17 229.82 84.82 230.5 73.41 219.31 71.54 228.59 64.96 223.06 54.98 233.95 58.19 238.25 47.61 238.25 47.61 238.25 47.61"/>
  <path class="cls-3" d="m198.86,284.76c-1.29.48-1.8.84-1.48,2.18l1.54,6.48c.28,1.2.37,3.09-.43,4.25-.95,1.39-2.97,2.28-4.42,2.63-1.06.26-3.37.69-5.22-.1-1.22-.52-2.02-1.08-2.54-3.28l-1.61-6.79c-.4-1.7-1.04-1.6-2.42-1.39l-.12-.51,8.19-1.97.12.51c-1.59.45-2.33.65-1.91,2.43l1.61,6.79c.27,1.16.94,3.96,4.43,3.12,4.26-1.02,3.58-4.14,3.27-5.44l-1.47-6.2c-.29-1.24-.75-1.86-2.85-1.44l-.12-.51,5.33-1.28.12.51h0Z"/>
  <path class="cls-3" d="m210.99,286.11c-.75-1.33-2.72-3.35-5.59-2.71-1.27.28-2.47,1.19-2.18,2.52.24,1.1.81,1.44,3.04,1.85l3.9.69c.9.16,3.01.93,3.5,3.16.39,1.79-.62,4.61-5.09,5.6-2.31.52-3.56.07-4.31.23-.51.11-.55.51-.58.86l-.71.16-1.11-5.04.7-.16c.94,1.95,2.86,3.94,5.95,3.26,2.92-.65,2.6-2.7,2.53-2.96-.3-1.36-1.55-1.6-3.27-1.88l-1.77-.29c-4.53-.74-4.91-2.5-5.12-3.44-.28-1.24-.13-4.18,4.48-5.22,1.95-.43,3.24-.01,3.94-.17.56-.13.61-.46.65-.87l.73-.16.98,4.42-.68.15h0Z"/>
  <path class="cls-3" d="m227.1,294.17l-8.85.85-.05-.52c1.8-.3,2.39-.4,2.22-2.15l-1.04-10.97c-1.72.25-4.27.6-4.45,3.98l-.72.07-.32-4.19,14.88-1.43.45,4.18-.72.07c-.81-3.28-3.38-3.14-5.1-3.06l1.04,10.97c.17,1.77.77,1.76,2.62,1.68l.04.52h0Z"/>
  <path class="cls-3" d="m237.02,286.75c3.26.04,4.56-.4,4.61-3.11.04-2.11-.96-3.03-2.95-3.07-1.37-.02-1.42.2-1.56.85l-.1,5.33h0Zm10.78,7.42l-5.1-.1-5.02-6.64-.67-.02-.08,4.1c-.03,1.67.51,1.74,2.16,1.97l-.02.52-8.41-.16v-.52c1.7-.14,2.2-.19,2.23-1.88l.18-9.24c.03-1.8-.74-1.86-2.15-1.97v-.52s8.03.16,8.03.16c1.74.03,7.01.3,6.94,3.82-.05,2.57-2.63,3.17-3.98,3.5l4.89,6.05c.34.38.71.41,1.01.42v.52h0Z"/>
  <path class="cls-3" d="m257.22,290.43l-1.87-5.35-2.95,4.75,4.82.6h0Zm6.93,5.84l-8-1.01.07-.52c1.54.09,1.99.12,2.08-.56.07-.56-.53-2.19-.79-2.9l-5.56-.7c-.87,1.4-1.38,2.21-1.42,2.54-.1.79,1.08,1,1.92,1.15l-.06.52-5.02-.63.07-.52c1.35,0,1.79-.66,2.72-2.12l6.89-10.68.69.09,4.16,11.59c.84,2.36,1.15,3.11,2.34,3.22l-.07.52h0Z"/>
  <path class="cls-3" d="m278.64,299.22l-14.16-2.6.09-.51c1.4.11,2.14.18,2.37-1.08l1.8-9.95c.24-1.36-.75-1.58-1.84-1.85l.09-.51,8.55,1.58-.09.51c-1.73-.25-2.49-.37-2.82,1.44l-1.76,9.7c-.18.99.33,1.25,1.97,1.55,3.7.68,5.38-.78,6.93-2.89l.71.13-1.85,4.48h0Z"/>
  <path class="cls-3" d="m288.04,301.32l-8.53-1.79.11-.51c1.33.17,2.3.29,2.57-.98l2.05-9.9c.28-1.35-.86-1.63-1.97-1.93l.11-.51,8.53,1.79-.11.51c-1.15-.2-2.33-.42-2.62.97l-2.05,9.9c-.27,1.31.69,1.58,2.01,1.94l-.1.51h0Z"/>
  <path class="cls-3" d="m298.3,297.85l-1.99-5.31-2.85,4.81,4.83.5h0Zm7.06,5.69l-8.03-.83.05-.52c1.55.06,2,.08,2.07-.6.05-.56-.58-2.18-.86-2.88l-5.57-.58c-.85,1.42-1.33,2.24-1.36,2.57-.08.79,1.1.98,1.94,1.1l-.05.52-5.03-.52.05-.52c1.35-.03,1.78-.7,2.68-2.18l6.66-10.82.69.07,4.41,11.51c.89,2.34,1.21,3.09,2.4,3.17l-.05.52h0Z"/>
  <path class="cls-3" d="m237.34,135.86c-1.47,0-3.44,1.01-3.44-.73,0-2.46,1.67-1.91,3.13-1.91s3.74-.55,3.74,1.91c0,1.74-1.97.73-3.43.73h0Zm4.35-.96c0-5.02-2.81-.32-4.37-4.59-1.14,3.61-4.53.57-4.53,4.45,0,1.49.39,2.34,1.1,2.82v1.48c0,.38.31.7.69.7h5.33c.38,0,.69-.31.69-.7v-1.61c.64-.55,1.08-1.42,1.08-2.56h0Z"/>
  <path class="cls-3" d="m285.37,196.51c1.27,0,2.3-.9,2.3-2.03s-1.03-2.03-2.3-2.03-2.3.91-2.3,2.03,1.03,2.03,2.3,2.03h0Z"/>
  <path class="cls-3" d="m274.55,122.15s-1.08,1.82-1.08,2.16c0,.66.49,1.2,1.1,1.2s1.09-.54,1.09-1.2c0-.04-1.11-2.16-1.11-2.16h0Z"/>
  <path class="cls-3" d="m200.81,122.15s-1.08,1.82-1.08,2.16c0,.66.49,1.2,1.1,1.2s1.09-.54,1.09-1.2c0-.04-1.11-2.16-1.11-2.16h0Z"/>
  <path class="cls-3" d="m219.24,122.15s-1.08,1.82-1.08,2.16c0,.66.49,1.2,1.09,1.2s1.09-.54,1.09-1.2c0-.04-1.11-2.16-1.11-2.16h0Z"/>
  <path class="cls-3" d="m237.68,122.15s-1.08,1.82-1.08,2.16c0,.66.49,1.2,1.09,1.2s1.1-.54,1.1-1.2c0-.04-1.11-2.16-1.11-2.16h0Z"/>
  <path class="cls-3" d="m256.11,122.15s-1.08,1.82-1.08,2.16c0,.66.49,1.2,1.09,1.2s1.1-.54,1.1-1.2c0-.04-1.11-2.16-1.11-2.16h0Z"/>
  <path class="cls-3" d="m200.84,147.46s1.08,1.82,1.08,2.16c0,.67-.49,1.2-1.09,1.2s-1.1-.54-1.1-1.2c0-.04,1.11-2.16,1.11-2.16h0Z"/>
  <path class="cls-3" d="m200.84,172.06s1.08,1.82,1.08,2.16c0,.66-.49,1.2-1.09,1.2s-1.1-.54-1.1-1.2c0-.04,1.11-2.16,1.11-2.16h0Z"/>
  <path class="cls-3" d="m203.79,191.52s1.08,1.82,1.08,2.16c0,.66-.49,1.2-1.1,1.2s-1.09-.54-1.09-1.2c0-.04,1.11-2.16,1.11-2.16h0Z"/>
  <path class="cls-3" d="m219.25,201.87s1.08,1.82,1.08,2.16c0,.66-.49,1.2-1.09,1.2s-1.1-.54-1.1-1.2c0-.04,1.11-2.16,1.11-2.16h0Z"/>
  <path class="cls-3" d="m275.48,147.46s-1.07,1.82-1.07,2.16c0,.67.49,1.2,1.09,1.2s1.09-.54,1.09-1.2c0-.04-1.11-2.16-1.11-2.16h0Z"/>
  <path class="cls-3" d="m275.48,172.06s-1.07,1.82-1.07,2.16c0,.66.49,1.2,1.09,1.2s1.09-.54,1.09-1.2c0-.04-1.11-2.16-1.11-2.16h0Z"/>
  <path class="cls-3" d="m272.54,191.52s-1.08,1.82-1.08,2.16c0,.66.49,1.2,1.1,1.2s1.09-.54,1.09-1.2c0-.04-1.11-2.16-1.11-2.16h0Z"/>
  <path class="cls-3" d="m257.07,201.87s-1.08,1.82-1.08,2.16c0,.66.49,1.2,1.09,1.2s1.1-.54,1.1-1.2c0-.04-1.12-2.16-1.12-2.16h0Z"/>
  <path class="cls-3" d="m238.25,212.84s-1.08,1.82-1.08,2.16c0,.66.49,1.2,1.09,1.2s1.09-.54,1.09-1.2c0-.04-1.11-2.16-1.11-2.16h0Z"/>
  <path class="cls-3" d="m268.25,176.15c.23.35.81.47,1.54.21l.7-1.99c.06-.14-.8-.93-1.31-.8-1.97.47-4.06.7-5.22,2.57,0,1.28.93,2.45,1.85,3.04.7-.23.81.47,1.28.82.12.59-.23,1.06-.81,1.06-1.39-1.4-3.83.47-4.87-1.29.46-1.75,1.39-3.74-.12-5.37.12-.35.7-.7.35-1.05-.58-1.63-2.32-.35-3.37-.35-1.74-.24-3.13.7-4.18,2.1.12.58.35,1.17.93,1.75.47-.12.7,0,.81.47l-1.16.7c.35.35.35.82.46,1.28-.81.35-1.62-.82-1.97-1.4,0-.93.12-2.57-1.16-2.81-.23,0-1,.34-1,.34-.28.36-.48,1.08-.48,1.93s.46,2.09.46,2.09c0,0,3.58,2.65,4.39,4.28-1.05,2.1-1.05,5.02-3.48,6.19-.7.47-.7,1.17-.7,1.87l.58.47c1.51-.82,4.41-1.05,4.18-3.62.58-1.05,1.16-2.22,2.2-3.04,1.16-.23,2.21.35,2.67,1.28-.35,1.75-1.51,2.92-3.13,3.5-.23.23-.12.59-.12.94.47.82,1.74.47,2.44.35,1.97-1.29,2.79-3.62,4.52-4.32.23,1.17-2.32,1.52-.69,2.69,1.04-.23,2.43.12,3.13-1.29-.81-1.98,2.78-2.92.58-4.67,0-1.75,1.85-2.45,1.74-4.32-.7-1.87-2.9-1.87-3.48-3.62.7-.47,1.74-.35,2.44,0h0Z"/>
  <path class="cls-3" d="m183.53,197.41c1.27,0,2.3-.91,2.3-2.03s-1.03-2.02-2.3-2.02-2.3.91-2.3,2.02,1.03,2.03,2.3,2.03h0Z"/>
  <path class="cls-3" d="m63.95,267.27c1.25,0,2.26-.97,2.26-2.18s-1.01-2.17-2.26-2.17-2.27.97-2.27,2.17,1.01,2.18,2.27,2.18h0Z"/>
  <path class="cls-3" d="m139.74,284.02c.1,0,.13-.01.13-.09,0-.06-.03-.09-.09-.09-.04,0-.04,0-.05.03v.15h0Zm.32.21h-.15l-.15-.19h-.02v.12s.02.05.06.06v.02h-.24v-.02s.06,0,.06-.06v-.27c0-.05-.02-.05-.06-.05v-.02h.23c.05,0,.21,0,.21.11,0,.07-.08.09-.11.1l.14.17s.02.01.03.01v.02h0Z"/>
  <path class="cls-3" d="m140.37,283.94s-.06-.11-.14-.11c-.04,0-.08.02-.08.06,0,.03.01.05.07.07l.11.05s.08.05.08.11c0,.05-.05.13-.18.13-.07,0-.1-.02-.12-.02-.02,0-.02.01-.02.02h-.02v-.15h.02c.02.06.06.13.15.13.09,0,.09-.06.09-.07,0-.04-.04-.05-.08-.07l-.05-.02c-.12-.05-.12-.1-.12-.13,0-.04.02-.12.16-.12.06,0,.1.02.12.02.02,0,.02,0,.03-.02h.02v.13h-.02Z"/>
  <path class="cls-3" d="m141.14,283.83s-.04.01-.05.04l-.14.37h-.02l-.12-.29h0l-.14.29h-.02l-.15-.37s-.02-.04-.05-.04v-.02h.21v.02s-.05,0-.05.02c0,0,0,.02,0,.02l.09.22h0l.08-.18-.03-.06s-.02-.02-.06-.02v-.02h.23v.02s-.06,0-.06.02c0,0,0,.02.01.03l.08.2h0l.08-.21s0-.01,0-.02c0-.03-.03-.03-.05-.03v-.02h.13v.02h0Z"/>
  <path class="cls-3" d="m141.33,284.05s.03,0,.03,0c0-.01,0-.04,0-.06,0-.12-.01-.16-.06-.16s-.04.04-.04.09c0,.08.02.14.06.14h0Zm-.17.17c.08-.01.16-.04.2-.16-.01,0-.02,0-.03.01-.01,0-.02,0-.03,0-.05,0-.13-.02-.13-.13,0-.03.03-.14.16-.14.06,0,.17.04.17.18,0,.11-.1.23-.32.25v-.02h0Z"/>
  <path class="cls-3" d="m141.58,283.94c.06,0,.11,0,.16.03.03.02.08.05.08.12,0,.08-.08.14-.21.14-.06,0-.1-.02-.1-.05,0-.02.02-.04.04-.04.05,0,.09.05.14.05.03,0,.07-.01.07-.06,0-.04-.04-.07-.08-.08-.05-.02-.1-.02-.15-.03l.07-.21h.23l-.03.08h-.2l-.02.05h0Z"/>
  <path class="cls-3" d="m278.27,185.12c-.44,4.92-2.12,9.02-5.52,11.34l-32.07,20.39h-.18c-.68.54-1.53.87-2.47.87s-1.83-.35-2.51-.91l-32.02-20.36c-3.4-2.32-5.08-6.41-5.52-11.34v-63.61h80.3v63.61h0Zm2.4-65.89v-.05h-85.09v.05h-.02l.07,65.02c0,6.63,2.81,12.43,6.69,14.22l32.72,20.78c.72.82,1.79,1.35,2.99,1.35,1.03,0,1.96-.41,2.66-1.04l33.23-21.08c3.88-1.78,6.69-7.58,6.69-14.22l.07-65.02h-.01Z"/>
  <path class="cls-3" d="m249.58,214l1.03-.5c-.43.16-.75.32-1.03.5h0Z"/>
  <g class="cls-5">
    <path class="cls-3" d="m177.29,298.86l-3.08-4.75-1.75,5.31,4.83-.56h0Zm8.11,4.02l-8.02.93-.06-.52c1.52-.28,1.97-.35,1.89-1.04-.06-.56-1.03-2-1.46-2.63l-5.56.65c-.52,1.58-.82,2.47-.78,2.8.09.79,1.29.71,2.13.66l.06.52-5.02.58-.06-.52c1.32-.32,1.58-1.07,2.15-2.71l4.18-12.01.7-.08,6.77,10.28c1.37,2.09,1.85,2.75,3.03,2.57l.06.52h0Z"/>
    <path class="cls-3" d="m323.14,277.08c-1.1,2.22-2.81,3.81-5.25,4.18.12-2.95,2.81-5.04,1.83-8.37-1.59-2.34-4.76-3.07-7.69-2.46-1.1.74-.61,1.97-.98,3.07l-.49,4.06c-2.44,0-2.56-2.21-3.29-3.93.12-2.58,1.22-5.16,3.78-6.39,1.95-.98,5.13-.86,7.08.25,1.59.37,3.42,1.11,4.03,2.58,1.83,1.72,1.35,4.8.98,7.01h0Zm-9.89,1.23c1.35-1.35-.37-9.1,3.42-4.06,0,.99.12,2.46-.86,3.2-.61.49-1.59,1.48-2.56.86h0Zm1.35,3.07c.12,1.97-1.71,1.47-2.69,2.21h-2.93c-.61-.98-.36-2.46-.36-3.44,1.95.37,4.15.37,5.98,1.23h0Zm3.42,15c-.98,1.23-.12,3.2-1.34,4.3,0,2.22-1.84,3.32-3.42,4.18-14.53,3.2-28.81-1.72-42.85-4.18-19.66-4.3-42.61-5.53-62.64-.98-9.4,1.72-18.55,3.93-27.59,6.52-5.62.74-11.72,1.6-17.09-.12-4.39-2.09-2.57-7.75-3.91-11.68.24-3.08-.85-5.53-.97-8.48-.37-.99-.61-2.22-.49-3.2,1.83.25,3.66,1.6,5.62,2.09,10.26,1.97,19.41-1.35,28.93-3.07,9.16-1.97,18.56-3.57,28.2-4.3,10.99-.12,22.22-.74,32.72,1.11,3.42.12,6.35.98,9.64,1.23,6.84.86,13.19,2.71,20.15,3.2,1.1.37,2.44.37,3.67.61,10.99,1.72,23.32,4.8,33.82,0,0,4.43-1.83,8.49-2.44,12.79h0Zm-62.02,8.97c.61,1.73,1.71,3.32,1.1,5.41-1.22,2.34-3.66,2.34-5.86,2.83-1.1.12-1.96-.25-2.81-.86.12-.49-.12-.86-.49-1.23.36-1.6-2.81-3.2-.61-4.55,1.95-1.85,6.59-6.02,8.67-1.6h0Zm2.68.49c1.47.37,1.59,1.97,1.71,3.2-.12,2.71-1.59,5.04-4.15,6.03-1.35.74-3.42.98-4.76.49,2.93-.12,6.1-1.23,7.33-4.18l-.12-5.53h0Zm3.18,16.35c-.25.13-.25.37-.25.49-3.54.12-5.86-1.97-8.54-3.81l-.13-.62c3.3.25,5.98,2.34,8.92,3.93h0Zm-4.52,11.32c-.12.36-.74.36-.98.12-3.66-4.67-5.37-9.59-7.69-14.76l.49-.12c2.93,4.8,5.25,10.08,8.18,14.76h0Zm-6.11-2.95l-.61.25c-.61-.49-.37-1.85-.24-2.58.73.62,1.35,1.48.85,2.34h0Zm-3.42-7.38c.12,1.23,1.35,1.72.61,2.83-.24-.49-.98-1.6-.61-2.83h0Zm-.73-7.75v-.37h.24v.37h-.24Zm-7.08,17.71c-2.32.12-5.86,1.47-8.06-.49.12-.99-.98-1.48-.85-2.46,1.95-.74,3.66,1.6,5.49-.13,2.81.13,5.74-.37,8.54.25,1.34.37,3.42-2.22,3.66.37-.98,4.06-5.86,1.23-8.79,2.46h0Zm-5.37-14.64l.61-.98c-.98,2.95-2.44,6.03-4.03,8.85-.73-2.95,2.32-5.29,3.42-7.87h0Zm3.42-2.34c1.59-1.72,3.05.98,3.66,2.34,1.83,2.71,6.59,5.17,4.76,8.86-2.32,2.09-5.98.12-8.55,1.72-1.34-.12-3.66.25-4.39-1.11,1.34-3.93,2.57-8.36,4.52-11.8h0Zm-.36-4.67h-.49l.73-.74c.37.25-.12.49-.24.74h0Zm2.8.24c.49-.74,1.1-1.84,1.95-1.84,0,.12.12.25.24.37-.73.61-1.34,1.23-2.2,1.47h0Zm1.71,1.85c.24-.25.85-.25,1.1,0h-1.1Zm3.3,3.81c-.12.24.12.61-.25.86l-2.81-2.21c1.35-.24,2.32.37,3.05,1.36h0Zm-.25-7.5v.37h-.12v-.37h.12Zm5.13-7.63c-1.47.49-2.57,2.22-4.03,2.58.73-1.35,2.56-2.71,4.03-2.58h0Zm-6.11-1.6c-.24-1.11,1.1-.24,1.59-.74l3.79.25c-1.96-.25-4.4,4.3-5.37.49h0Zm-8.91,3.44c.61-1.72.73-3.2,1.83-4.55,1.22,0,2.32,0,3.29.49.25,2.46,3.3,5.78,0,7.88-1.1.49-2.69,1.6-3.9.49-1.59-1.35-1.84-2.58-1.22-4.3h0Zm-1.83,7.62c-.12-.49.24-1.11.37-1.72.61-.62,1.22.49,1.47.86-.37.62-1.1.98-1.83.86h0Zm-.12-5.65h-.12v-1.35h.12v1.35h0Zm-1.46-3.69c-1.59-.37-2.44-2.21-4.15-2.21,1.46-.49,2.93-.37,4.64-.13.61.87-.37,1.6-.49,2.34h0Zm-1.35,9.96c.37-1.6,1.1-3.69,1.95-5.16-.12,1.6-.85,3.81-1.95,5.16h0Zm-2.68,0c-2.08-.24-4.03-.86-5.86-1.47-1.22-1.23,0-2.58,0-3.93,1.71-2.71,6.59-4.06,8.91-1.6-.37,2.71-1.34,5.05-3.05,7.01h0Zm1.1,3.32v.49h-.24v-.61h.49c-.12,0-.37,0-.49.12h.24Zm-3.05,7.13c-1.71,3.93-3.66,7.75-5.98,11.56-.24.62-1.22.74-1.95.86,0-1.72,1.71-3.08,2.44-4.55,2.56-3.32,3.3-6.88,6.23-10.08.73.73-.73,1.23-.73,2.21h0Zm-11.6-1.23c2.93-1.23,5.98-3.81,9.28-2.7-2.32,1.85-6.1,2.58-9.28,2.7h0Zm4.39-8.48c-.61-4.3,1.1-7.99,3.91-11.07,1.71-.37,3.66-.74,5.25.25-3.17.86-7.21,1.6-7.94,5.66.12,1.6-.37,2.46.37,3.81,1.35,2.34,4.4,1.35,6.11,3.2,0,.62-.49,1.35-1.1,1.47-2.08-1.23-4.64-1.72-6.6-3.32h0Zm-57.26-39.47c.37-.98,0-2.46,1.34-2.71.85-.24,2.2-.24,2.32.74-.12,1.48-.24,2.95-.61,4.3-1.71.12-2.57-.86-3.05-2.34h0Zm.37,4.13c1.83,1.35,4.39.74,6.59,1.11.36,1.35.36,3.08-.61,4.18-2.07-.49-4.76-.25-5.86-2.21.24-.86-.37-2.09-.12-3.08h0Zm-5.74-3.52c.36-2.21.85-4.55,2.93-6.15,2.93-1.6,6.96-1.23,9.65.37.85.49,1.47,1.23,1.96,2.34.61,2.09-.37,4.3-1.84,5.53h-1.22c0-1.97,0-3.93.73-5.53-.12-1.48-1.34-1.6-2.32-2.21-2.08-.62-3.91.37-5.5,1.23-1.22,1.47-2.32,3.32-1.58,5.41.86,1.36.12,3.2.61,4.67l-.37.49c-1.46-1.6-3.42-3.32-3.05-6.15h0Zm114.56,52.27c2.92,1.32,8.79,2.6,13.02,3.08-.38,1.67-3.36.1-3.01,2.45-3.79-1.48-8.18-2.22-10.99-5.16.24-.12.49-.49.98-.37h0Zm-76.23,1.96l-1.7-1.6c.85-1.11,2.68-.5,4.02-1.23,3.17-.99,6.84-2.21,10.38-1.48-3.66,2.95-8.42,3.32-12.7,4.3h0Zm131.86-56.07c-1.46-3.81-4.52-6.39-8.3-7.62-3.91-.86-8.06-.25-10.62,2.71-4.39,3.56-1.34,9.47-1.22,14.26,0,.98.12,1.72-.86,2.22-17.7-1.6-34.18-6.03-51.77-7.87-4.04-.7-8.09-.51-11.93-1.33l-4.91-.52c-15.26.49-30.52,1.36-44.81,5.04-3.05.98-6.47,1.23-9.52,2.34-2.2-.37-4.03,1.23-6.1.62l-4.02.94c-.38.07-.83.05-1.35-.08-1.95-5.04,3.91-8.11,2.07-13.03-1.59-2.83-4.76-5.53-8.42-5.04-4.15-.49-7.81,1.84-9.77,5.04-2.81,6.15.74,12.54,1.83,18.57-.24,1.97,1.96,4.18,0,5.78-3.91-2.71-9.04-4.18-13.8-2.83-1.46.74-4.15-.25-4.88,1.48,5.25,2.83,11.96,2.46,17.82,2.22.73-.25,1.22-.37,1.83.12.49,3.2-.61,7.5,1.34,10.33,2.2,2.95,5.86,3.69,9.4,4.06,11.24-.37,21.24-3.69,31.5-6.27,1.59-.12,2.81-.98,4.52-.98,5.49-1.23,11.48-2.22,17.34-2.34-2.57,3.32-4.03,7.01-5.13,11.07-1.46,3.32,2.57,3.81,3.79,5.66-3.79,1.1-6.47,3.69-10.01,5.16-7.81-.25-14.41,2.71-21.73,3.57-.12,1.6,2.57,1.11,2.81,2.71-.37,1.11-1.46,1.23-2.32,1.85-.12.74,0,.86.73.98.73-.86,2.32-.25,3.05-1.11,2.44,0,4.52-.74,6.84-.86,2.08-.86,4.39-.99,6.23-2.46,2.56-.74,4.15-2.46,6.72-3.2,3.66,0,6.96-1.23,10.38-1.48v.74c-2.81,4.55-5.74,9.22-8.67,13.53-.49.86.12,1.72.85,1.97,1.71.49,3.42,0,4.76-.74,2.57-4.43,4.88-8.61,6.96-13.16.86-4.18,3.91-6.4,6.96-9.22.49-.25,1.22-.98,1.71-.25-2.45,2.83-4.03,5.53-5.86,8.61-.98,3.44-1.23,7.87,1.83,10.7,1.47,1.23,3.66.86,5.62.99,4.76-2.46,10.86,1.48,14.53-3.2,2.19-.37,2.56,2.21,3.78,3.44,2.08.62,4.27,2.71,6.35,1.23-.12-1.35-1.59-2.59-2.32-3.81-1.47-2.58-3.29-4.67-4.64-7.01-.61-1.72-1.71-2.83-1.96-4.55,2.2.74,4.15,2.22,6.6,2.58,2.08.86,4.64.74,6.59,1.97,1.59,2.09,4.03,3.32,6.1,4.67,3.05,1.48,6.47,1.72,9.64,2.95,1.22.12,3.06,1.1,3.91,0-.49-.62-1.1-.99-1.83-1.36-.37-1.6,2.2-.74,3.05-1.97-.3-.61-.83-.85-1.42-.93-1.75-.94-6.1-1.27-7.25-1.9-1.46-.25-2.81-.86-4.27-1.35-7.33,0-11.35-6.64-17.21-9.1,1.34-1.23,3.42-2.22,4.27-4.06,1.1-1.72,1.47-4.55.37-6.52-1.1-3.81-5.98-3.32-8.79-5.41l.37-.37c4.76-.24,8.91.86,13.18,1.72,11.72,1.6,22.59,6.03,34.8,6.27,6.71,0,15.14.37,18.43-6.15.61-3.81,1.34-7.62,1.95-11.43,1.47-6.15,5.49-11.81,4.88-18.57h0Z"/>
  </g>
  <polygon class="cls-3" points="1239.76 233.2 473.5 233.2 473.5 229.28 1239.76 229.28 1239.76 233.2 1239.76 233.2"/>
  <path class="cls-3" d="m523.51,265.82v17.24h-1.34c-1.61-4.71-4.03-8.3-7.25-10.75-3.23-2.45-6.75-3.68-10.57-3.68s-6.7,1.03-9.13,3.1c-2.43,2.04-4.15,4.91-5.16,8.58-1.01,3.68-1.51,7.45-1.51,11.33,0,4.69.55,8.8,1.66,12.34,1.1,3.54,2.88,6.13,5.34,7.79,2.47,1.66,5.41,2.49,8.8,2.49,1.18,0,2.38-.12,3.61-.36,1.25-.26,2.52-.64,3.82-1.12v-10.17c0-1.92-.13-3.16-.4-3.72-.26-.58-.82-1.09-1.66-1.55-.82-.46-1.82-.69-2.99-.69h-1.26v-1.33h23.77v1.33c-1.8.12-3.07.37-3.79.76-.7.36-1.24.97-1.63,1.84-.22.46-.32,1.57-.32,3.35v10.17c-3.13,1.39-6.39,2.44-9.78,3.14-3.37.72-6.87,1.08-10.5,1.08-4.64,0-8.5-.63-11.58-1.88-3.06-1.27-5.76-2.93-8.12-4.98-2.33-2.07-4.16-4.39-5.48-6.96-1.68-3.32-2.52-7.03-2.52-11.15,0-7.36,2.58-13.57,7.75-18.65,5.17-5.07,11.68-7.61,19.51-7.61,2.43,0,4.62.19,6.57.58,1.06.19,2.76.75,5.12,1.66,2.38.89,3.79,1.33,4.22,1.33.67,0,1.3-.24,1.87-.72.58-.51,1.1-1.44,1.59-2.81h1.34Z"/>
  <path class="cls-4" d="m550.7,295.36c0-3.87-.22-6.53-.65-7.97-.41-1.44-1.06-2.54-1.95-3.28-.5-.43-1.18-.65-2.02-.65-1.25,0-2.27.61-3.07,1.84-1.42,2.14-2.13,5.07-2.13,8.8v1.26h9.81Zm8.87,2.42h-18.5c.22,4.47,1.41,8.01,3.57,10.6,1.66,2,3.65,2.99,5.99,2.99,1.44,0,2.75-.4,3.93-1.19,1.18-.82,2.44-2.27,3.79-4.36l1.23.79c-1.83,3.73-3.85,6.37-6.06,7.94-2.21,1.54-4.77,2.31-7.68,2.31-5,0-8.79-1.92-11.36-5.77-2.07-3.1-3.1-6.95-3.1-11.54,0-5.63,1.52-10.1,4.55-13.42,3.05-3.34,6.62-5.01,10.71-5.01,3.42,0,6.37,1.41,8.87,4.22,2.53,2.79,3.88,6.94,4.08,12.44h0Z"/>
  <path class="cls-4" d="m579.85,283.68c-1.23,0-2.28.47-3.18,1.41-.86.91-1.44,2.74-1.73,5.48-.26,2.72-.4,6.5-.4,11.36,0,2.57.17,4.98.51,7.21.26,1.71.82,3.01,1.7,3.9.86.89,1.85,1.33,2.96,1.33s1.98-.3,2.7-.9c.94-.82,1.56-1.96,1.88-3.43.48-2.28.72-6.9.72-13.85,0-4.09-.23-6.89-.68-8.4-.46-1.54-1.13-2.66-2.02-3.35-.62-.51-1.44-.76-2.45-.76h0Zm-.14-2.56c2.93,0,5.66.76,8.19,2.27,2.52,1.51,4.44,3.67,5.73,6.46,1.33,2.79,1.98,5.84,1.99,9.16,0,4.79-1.21,8.79-3.64,12.01-2.94,3.9-6.99,5.84-12.16,5.84s-8.98-1.78-11.72-5.34c-2.75-3.56-4.12-7.68-4.12-12.37s1.39-9.04,4.19-12.62c2.81-3.61,6.66-5.41,11.54-5.41h0Z"/>
  <path class="cls-3" d="m621.31,281.19l.54,11.51h-1.23c-1.47-3.41-2.99-5.75-4.58-7-1.56-1.25-3.12-1.88-4.69-1.88-.99,0-1.83.34-2.53,1.01-.7.65-1.04,1.41-1.04,2.27,0,.65.24,1.27.72,1.88.77.99,2.92,2.68,6.46,5.09,3.53,2.38,5.85,4.41,6.96,6.1,1.13,1.66,1.7,3.52,1.7,5.59,0,1.88-.47,3.72-1.41,5.52-.94,1.8-2.26,3.19-3.97,4.15-1.71.96-3.6,1.44-5.66,1.44-1.61,0-3.76-.5-6.46-1.52-.72-.26-1.21-.4-1.48-.4-.79,0-1.46.6-1.99,1.8h-1.19l-.58-12.12h1.23c1.08,3.17,2.56,5.56,4.44,7.14,1.9,1.59,3.69,2.38,5.37,2.38,1.15,0,2.09-.35,2.81-1.05.74-.72,1.12-1.59,1.12-2.6,0-1.15-.36-2.15-1.08-2.99-.72-.84-2.33-2.12-4.83-3.82-3.68-2.55-6.06-4.5-7.14-5.84-1.59-1.97-2.38-4.15-2.38-6.53,0-2.6.89-4.94,2.67-7.03,1.8-2.12,4.4-3.17,7.79-3.17,1.83,0,3.6.44,5.3,1.33.65.36,1.18.54,1.59.54.43,0,.78-.08,1.04-.25.26-.19.69-.71,1.27-1.55h1.22Z"/>
  <path class="cls-3" d="m654.79,307.16l1.12.87c-1.59,2.98-3.57,5.21-5.95,6.67-2.35,1.44-4.87,2.16-7.54,2.16-4.5,0-8.09-1.7-10.79-5.09s-4.04-7.47-4.04-12.23,1.23-8.63,3.68-12.12c2.96-4.21,7.04-6.31,12.23-6.31,3.48,0,6.25.88,8.3,2.63,2.07,1.76,3.1,3.72,3.1,5.88,0,1.37-.42,2.46-1.26,3.28-.82.82-1.9,1.23-3.24,1.23-1.42,0-2.6-.47-3.54-1.41-.91-.94-1.48-2.61-1.69-5.01-.14-1.51-.49-2.57-1.05-3.17-.55-.6-1.2-.9-1.95-.9-1.15,0-2.14.61-2.95,1.84-1.25,1.85-1.88,4.69-1.88,8.51,0,3.17.5,6.22,1.51,9.13,1.01,2.89,2.39,5.04,4.15,6.46,1.32,1.03,2.88,1.55,4.69,1.55,1.18,0,2.3-.28,3.36-.83,1.06-.55,2.31-1.6,3.75-3.14h0Z"/>
  <path class="cls-4" d="m672.48,282.13v26.73c0,2.38.27,3.91.83,4.58.55.65,1.64,1.02,3.25,1.12v1.3h-18.22v-1.3c1.49-.05,2.6-.48,3.32-1.3.48-.55.72-2.02.72-4.4v-19.69c0-2.38-.27-3.9-.83-4.54-.55-.67-1.62-1.06-3.21-1.15v-1.33h14.14Zm-5.05-16.34c1.56,0,2.88.55,3.96,1.66,1.08,1.08,1.63,2.39,1.63,3.93s-.55,2.85-1.66,3.93c-1.08,1.08-2.39,1.62-3.93,1.62s-2.85-.54-3.93-1.62c-1.08-1.08-1.63-2.39-1.63-3.93s.54-2.85,1.63-3.93c1.08-1.11,2.39-1.66,3.93-1.66h0Z"/>
  <path class="cls-4" d="m697.32,295.36c0-3.87-.22-6.53-.65-7.97-.41-1.44-1.06-2.54-1.95-3.28-.51-.43-1.18-.65-2.02-.65-1.25,0-2.27.61-3.07,1.84-1.42,2.14-2.13,5.07-2.13,8.8v1.26h9.81Zm8.87,2.42h-18.5c.21,4.47,1.4,8.01,3.57,10.6,1.66,2,3.65,2.99,5.99,2.99,1.44,0,2.75-.4,3.93-1.19,1.18-.82,2.44-2.27,3.79-4.36l1.23.79c-1.83,3.73-3.85,6.37-6.06,7.94-2.21,1.54-4.77,2.31-7.68,2.31-5,0-8.8-1.92-11.36-5.77-2.07-3.1-3.1-6.95-3.1-11.54,0-5.63,1.51-10.1,4.54-13.42,3.05-3.34,6.63-5.01,10.71-5.01,3.42,0,6.37,1.41,8.87,4.22,2.52,2.79,3.88,6.94,4.07,12.44h0Z"/>
  <path class="cls-3" d="m721.98,282.13v4.36c1.73-1.88,3.39-3.23,4.98-4.08,1.59-.87,3.29-1.3,5.12-1.3,2.19,0,4,.61,5.44,1.84,1.45,1.2,2.4,2.71,2.89,4.51.38,1.37.57,4,.58,7.9v13.13c0,2.6.23,4.22.69,4.87.48.63,1.47,1.02,2.96,1.19v1.3h-17.06v-1.3c1.27-.17,2.18-.7,2.74-1.59.38-.6.57-2.09.58-4.47v-15.01c0-2.77-.11-4.51-.33-5.23-.22-.72-.59-1.27-1.12-1.66-.5-.41-1.07-.61-1.69-.61-2.07,0-4,1.48-5.77,4.44v18.07c0,2.52.22,4.12.69,4.8.48.67,1.36,1.09,2.63,1.26v1.3h-17.06v-1.3c1.42-.14,2.42-.6,3.03-1.37.4-.53.61-2.09.61-4.69v-19.05c0-2.55-.25-4.14-.72-4.76-.46-.63-1.43-1.03-2.92-1.23v-1.33h13.74Z"/>
  <path class="cls-3" d="m774.59,307.16l1.12.87c-1.59,2.98-3.57,5.21-5.95,6.67-2.35,1.44-4.87,2.16-7.54,2.16-4.5,0-8.09-1.7-10.78-5.09-2.7-3.39-4.04-7.47-4.04-12.23s1.23-8.63,3.68-12.12c2.96-4.21,7.03-6.31,12.23-6.31,3.49,0,6.25.88,8.3,2.63,2.07,1.76,3.1,3.72,3.1,5.88,0,1.37-.42,2.46-1.27,3.28-.82.82-1.9,1.23-3.24,1.23-1.42,0-2.59-.47-3.54-1.41-.91-.94-1.48-2.61-1.69-5.01-.14-1.51-.5-2.57-1.04-3.17-.56-.6-1.21-.9-1.95-.9-1.15,0-2.14.61-2.96,1.84-1.25,1.85-1.87,4.69-1.87,8.51,0,3.17.5,6.22,1.51,9.13,1.01,2.89,2.39,5.04,4.15,6.46,1.33,1.03,2.89,1.55,4.69,1.55,1.18,0,2.3-.28,3.36-.83,1.05-.55,2.31-1.6,3.75-3.14h0Z"/>
  <path class="cls-4" d="m798.82,295.36c0-3.87-.22-6.53-.65-7.97-.41-1.44-1.06-2.54-1.95-3.28-.5-.43-1.18-.65-2.02-.65-1.26,0-2.28.61-3.07,1.84-1.42,2.14-2.13,5.07-2.13,8.8v1.26h9.81Zm8.87,2.42h-18.5c.22,4.47,1.4,8.01,3.57,10.6,1.66,2,3.65,2.99,5.99,2.99,1.45,0,2.76-.4,3.93-1.19,1.18-.82,2.44-2.27,3.79-4.36l1.23.79c-1.83,3.73-3.85,6.37-6.06,7.94-2.21,1.54-4.77,2.31-7.68,2.31-5,0-8.79-1.92-11.36-5.77-2.07-3.1-3.1-6.95-3.1-11.54,0-5.63,1.52-10.1,4.55-13.42,3.05-3.34,6.62-5.01,10.71-5.01,3.42,0,6.38,1.41,8.88,4.22,2.52,2.79,3.88,6.94,4.08,12.44h0Z"/>
  <path class="cls-4" d="m853.7,299.26l-7.29-16.85-7.5,16.85h14.79Zm1.23,2.67h-17.28l-2.06,4.76c-.67,1.59-1.01,2.9-1.01,3.93,0,1.37.55,2.38,1.66,3.03.65.38,2.25.67,4.8.87v1.33h-16.26v-1.33c1.75-.26,3.2-.99,4.32-2.16,1.13-1.2,2.53-3.67,4.19-7.39l17.49-39.03h.69l17.64,40.11c1.68,3.8,3.07,6.19,4.15,7.18.82.75,1.97,1.18,3.46,1.3v1.33h-23.66v-1.33h.97c1.9,0,3.24-.26,4-.79.53-.38.79-.94.79-1.66,0-.43-.08-.88-.22-1.33-.05-.22-.41-1.12-1.08-2.71l-2.6-6.1h0Z"/>
  <path class="cls-3" d="m908.18,282.13v26.4c0,2.57.24,4.18.72,4.83.48.63,1.45,1.02,2.92,1.19v1.3h-13.74v-4.51c-1.61,1.92-3.22,3.33-4.84,4.22-1.61.87-3.41,1.3-5.4,1.3s-3.6-.58-5.09-1.73c-1.47-1.18-2.45-2.55-2.96-4.11-.5-1.56-.76-4.29-.76-8.19v-13.38c0-2.55-.24-4.14-.72-4.76-.46-.63-1.43-1.03-2.92-1.23v-1.33h13.74v23.05c0,2.4.11,3.96.32,4.65.24.7.6,1.23,1.08,1.59.51.36,1.09.54,1.73.54.87,0,1.65-.23,2.35-.69.96-.63,2.11-1.89,3.46-3.79v-18.04c0-2.55-.24-4.14-.72-4.76-.46-.63-1.43-1.03-2.92-1.23v-1.33h13.75Z"/>
  <path class="cls-3" d="m936.9,281.19l.54,11.51h-1.23c-1.47-3.41-2.99-5.75-4.58-7-1.56-1.25-3.13-1.88-4.69-1.88-.99,0-1.83.34-2.53,1.01-.69.65-1.04,1.41-1.04,2.27,0,.65.24,1.27.72,1.88.77.99,2.92,2.68,6.45,5.09,3.54,2.38,5.86,4.41,6.96,6.1,1.13,1.66,1.7,3.52,1.7,5.59,0,1.88-.46,3.72-1.4,5.52-.94,1.8-2.26,3.19-3.97,4.15-1.71.96-3.6,1.44-5.66,1.44-1.61,0-3.77-.5-6.46-1.52-.72-.26-1.21-.4-1.48-.4-.79,0-1.45.6-1.99,1.8h-1.19l-.58-12.12h1.23c1.08,3.17,2.56,5.56,4.44,7.14,1.9,1.59,3.69,2.38,5.37,2.38,1.15,0,2.09-.35,2.82-1.05.74-.72,1.11-1.59,1.12-2.6,0-1.15-.36-2.15-1.08-2.99-.72-.84-2.33-2.12-4.83-3.82-3.68-2.55-6.06-4.5-7.14-5.84-1.59-1.97-2.38-4.15-2.38-6.53,0-2.6.89-4.94,2.67-7.03,1.81-2.12,4.4-3.17,7.79-3.17,1.83,0,3.6.44,5.3,1.33.65.36,1.18.54,1.59.54.43,0,.78-.08,1.04-.25.27-.19.69-.71,1.27-1.55h1.22Z"/>
  <path class="cls-3" d="m956.23,269.79v12.34h8.01v3.57h-8.01v20.81c0,1.95.09,3.21.26,3.79.19.55.51,1.01.98,1.37.45.34.87.51,1.26.51,1.56,0,3.04-1.19,4.44-3.57l1.08.79c-1.95,4.62-5.11,6.93-9.48,6.93-2.15,0-3.96-.59-5.45-1.77-1.46-1.2-2.4-2.54-2.81-4-.24-.82-.36-3.03-.36-6.64v-18.22h-4.4v-1.26c3.03-2.14,5.6-4.39,7.72-6.75,2.14-2.36,4-4.99,5.59-7.9h1.19Z"/>
  <path class="cls-3" d="m982.19,282.13v7.65c2.23-3.49,4.2-5.8,5.88-6.93,1.68-1.15,3.31-1.73,4.87-1.73,1.35,0,2.41.42,3.21,1.26.82.82,1.23,1.98,1.23,3.5,0,1.61-.4,2.86-1.19,3.75-.77.89-1.71,1.33-2.82,1.33-1.27,0-2.38-.41-3.32-1.23-.94-.82-1.5-1.27-1.66-1.37-.24-.14-.52-.22-.82-.22-.7,0-1.36.26-1.99.79-.98.82-1.73,1.98-2.23,3.5-.77,2.33-1.15,4.91-1.15,7.72v7.76l.04,2.02c0,1.37.08,2.25.25,2.63.29.65.71,1.13,1.26,1.44.58.29,1.54.47,2.88.54v1.3h-18.22v-1.3c1.47-.12,2.45-.52,2.96-1.19.53-.7.79-2.51.79-5.45v-18.65c0-1.92-.1-3.15-.29-3.68-.24-.67-.59-1.17-1.04-1.48-.46-.31-1.27-.53-2.42-.65v-1.33h13.78Z"/>
  <path class="cls-4" d="m1017.38,308.24v-11.29c-2.91,1.71-5.08,3.53-6.49,5.48-.94,1.3-1.41,2.61-1.41,3.93,0,1.11.4,2.08,1.19,2.92.6.65,1.44.97,2.53.97,1.2,0,2.59-.67,4.18-2.02h0Zm0,2.63c-4.11,3.63-7.81,5.45-11.07,5.45-1.92,0-3.52-.63-4.8-1.88-1.27-1.27-1.91-2.86-1.91-4.76,0-2.57,1.1-4.88,3.32-6.93,2.21-2.07,7.03-4.81,14.46-8.22v-3.39c0-2.55-.14-4.15-.43-4.8-.27-.67-.79-1.25-1.55-1.73-.77-.51-1.64-.76-2.6-.76-1.56,0-2.85.35-3.86,1.05-.62.43-.94.94-.94,1.51,0,.51.34,1.13,1.01,1.88.91,1.03,1.37,2.03,1.37,2.99,0,1.18-.45,2.19-1.34,3.03-.87.82-2.01,1.23-3.43,1.23-1.51,0-2.79-.46-3.82-1.37-1.01-.91-1.52-1.98-1.52-3.21,0-1.73.69-3.38,2.06-4.94,1.37-1.59,3.28-2.8,5.73-3.64,2.45-.84,5-1.26,7.64-1.26,3.2,0,5.73.69,7.58,2.06,1.87,1.35,3.09,2.81,3.64,4.4.33,1.01.5,3.33.5,6.96v13.09c0,1.54.06,2.51.18,2.92.12.38.3.67.54.87.24.19.51.29.83.29.62,0,1.26-.45,1.91-1.33l1.08.87c-1.2,1.78-2.45,3.08-3.75,3.9-1.27.79-2.73,1.19-4.36,1.19-1.92,0-3.43-.45-4.51-1.33-1.08-.91-1.74-2.28-1.98-4.11h0Z"/>
  <path class="cls-3" d="m1048.16,266.94v41.91c0,2.38.28,3.91.83,4.58.55.65,1.63,1.02,3.25,1.12v1.3h-18.22v-1.3c1.49-.05,2.59-.48,3.32-1.3.48-.55.72-2.02.72-4.4v-34.92c0-2.36-.28-3.86-.83-4.51-.55-.67-1.63-1.06-3.21-1.15v-1.33h14.13Z"/>
  <path class="cls-4" d="m1069.39,282.13v26.73c0,2.38.28,3.91.83,4.58.55.65,1.63,1.02,3.25,1.12v1.3h-18.22v-1.3c1.49-.05,2.59-.48,3.31-1.3.48-.55.73-2.02.73-4.4v-19.69c0-2.38-.28-3.9-.83-4.54-.55-.67-1.63-1.06-3.21-1.15v-1.33h14.14Zm-5.05-16.34c1.56,0,2.89.55,3.97,1.66,1.08,1.08,1.62,2.39,1.62,3.93s-.55,2.85-1.66,3.93c-1.08,1.08-2.4,1.62-3.94,1.62s-2.85-.54-3.93-1.62c-1.08-1.08-1.63-2.39-1.63-3.93s.54-2.85,1.63-3.93c1.08-1.11,2.39-1.66,3.93-1.66h0Z"/>
  <path class="cls-4" d="m1094.63,308.24v-11.29c-2.91,1.71-5.07,3.53-6.49,5.48-.94,1.3-1.41,2.61-1.41,3.93,0,1.11.4,2.08,1.19,2.92.61.65,1.45.97,2.53.97,1.2,0,2.59-.67,4.18-2.02h0Zm0,2.63c-4.11,3.63-7.8,5.45-11.08,5.45-1.92,0-3.52-.63-4.8-1.88-1.27-1.27-1.91-2.86-1.91-4.76,0-2.57,1.11-4.88,3.32-6.93,2.21-2.07,7.03-4.81,14.46-8.22v-3.39c0-2.55-.14-4.15-.43-4.8-.26-.67-.78-1.25-1.55-1.73-.77-.51-1.64-.76-2.6-.76-1.56,0-2.85.35-3.86,1.05-.62.43-.94.94-.94,1.51,0,.51.34,1.13,1.01,1.88.91,1.03,1.38,2.03,1.38,2.99,0,1.18-.45,2.19-1.34,3.03-.86.82-2.01,1.23-3.43,1.23-1.51,0-2.79-.46-3.82-1.37-1.01-.91-1.52-1.98-1.52-3.21,0-1.73.69-3.38,2.06-4.94,1.37-1.59,3.28-2.8,5.74-3.64,2.45-.84,5-1.26,7.65-1.26,3.2,0,5.72.69,7.58,2.06,1.87,1.35,3.09,2.81,3.64,4.4.33,1.01.5,3.33.5,6.96v13.09c0,1.54.06,2.51.18,2.92.12.38.3.67.54.87.24.19.52.29.83.29.62,0,1.26-.45,1.91-1.33l1.08.87c-1.2,1.78-2.45,3.08-3.76,3.9-1.27.79-2.73,1.19-4.36,1.19-1.92,0-3.43-.45-4.51-1.33-1.08-.91-1.75-2.28-1.99-4.11h0Z"/>
</svg>