<?xml version="1.0" encoding="UTF-8"?>
<svg id="Layer_1" xmlns="http://www.w3.org/2000/svg" version="1.1" viewBox="0 0 1553.81 198">
  <!-- Generator: Adobe Illustrator 29.6.1, SVG Export Plug-In . SVG Version: 2.1.1 Build 9)  -->
  <defs>
    <style>
      .st0, .st1, .st2 {
        fill: #fff;
      }

      .st1 {
        fill-rule: evenodd;
      }

      .st3, .st2 {
        isolation: isolate;
      }

      .st2 {
        font-family: AvenirNextLTPro-Regular, 'Avenir Next LT Pro';
        font-size: 72.9px;
      }
    </style>
  </defs>
  <path class="st1" d="M35.2,156h-6.2l-.7,1.7c-.2.4-.3.9-.4,1.4,0,.2,0,.4.1.6s.3.3.5.5c.5.2,1.1.3,1.7.3v.5h-5.8v-.5c.6-.1,1.1-.4,1.5-.8.6-.8,1.1-1.7,1.5-2.6l6.2-14h.2l6.3,14.3c.3.9.8,1.8,1.5,2.6.3.3.8.5,1.2.5v.5h-8.4v-.5h.3c.5,0,1-.1,1.4-.3.1-.1.2-.2.2-.3s.1-.2.1-.3c0-.2,0-.3-.1-.5,0-.1-.1-.4-.4-1l-.7-2.1h0ZM34.7,155l-2.6-6-2.7,6h5.3Z"/>
  <path class="st0" d="M48.5,148.9v1.6c.5-.6,1.1-1.1,1.8-1.4.6-.3,1.2-.5,1.8-.5.7,0,1.4.2,2,.7.5.4.8,1,1,1.6.2.9.2,1.9.2,2.8v4.7c-.1.6,0,1.2.2,1.7.3.3.7.4,1.1.4v.5h-6.1v-.5c.2,0,.4-.1.6-.2.2-.1.3-.2.4-.4.2-.5.3-1.1.2-1.6v-5.3c0-.6,0-1.3-.1-1.9-.1-.2-.2-.4-.4-.6-.2-.1-.4-.2-.6-.2-.7,0-1.4.5-2.1,1.6v6.5c-.1.6,0,1.2.2,1.7.1.1.3.2.4.3.2.1.3.1.5.1v.5h-6.1v-.5c.2,0,.4,0,.6-.1s.4-.2.5-.4c.2-.5.3-1.1.2-1.7v-6.8c.1-.6,0-1.2-.3-1.7-.3-.3-.7-.4-1.1-.4v-.5h5.1,0Z"/>
  <path class="st1" d="M73.7,156h-6.2l-.7,1.7c-.2.4-.3.9-.4,1.4,0,.2,0,.4.1.6s.3.3.5.5c.5.2,1.1.3,1.7.3v.5h-5.8v-.5c.6-.1,1.1-.4,1.5-.8.6-.8,1.1-1.7,1.5-2.6l6.2-14h.3l6.3,14.3c.3.9.8,1.8,1.5,2.6.3.3.8.5,1.2.5v.5h-8.4v-.5h.4c.5,0,1-.1,1.4-.3.1-.1.2-.2.2-.3s.1-.2.1-.3c0-.2,0-.3-.1-.5,0-.1-.1-.4-.4-1l-.9-2.1h0ZM73.2,155l-2.6-6-2.7,6s5.3,0,5.3,0Z"/>
  <path class="st0" d="M92.2,148.9v9.4c-.1.6,0,1.2.2,1.7.3.3.6.4,1,.4v.5h-4.9v-1.6c-.5.6-1.1,1.1-1.7,1.5-.6.3-1.3.5-1.9.5-.7,0-1.3-.2-1.8-.6-.5-.4-.9-.9-1.1-1.5-.2-1-.3-1.9-.3-2.9v-4.8c.1-.6,0-1.2-.3-1.7-.3-.3-.6-.4-1-.4v-.5h5v8.2c0,.6,0,1.1.1,1.7.1.2.2.4.4.6.2.1.4.2.6.2.3,0,.6-.1.8-.2.5-.4.9-.8,1.2-1.4v-6.4c.1-.6,0-1.2-.3-1.7-.3-.3-.6-.4-1-.4v-.5h5v-.1h0Z"/>
  <path class="st0" d="M101.9,148.6l.2,4.1h-.4c-.3-.9-.9-1.8-1.6-2.5-.5-.4-1.1-.6-1.7-.7-.2,0-.3,0-.5.1s-.3.2-.4.3l-.3.3c-.1.1-.1.3-.1.4s0,.3.1.4c0,.1.1.3.2.4.7.7,1.5,1.3,2.3,1.8,1,.6,1.8,1.3,2.5,2.2.4.6.6,1.3.6,2s-.2,1.4-.5,2-.8,1.1-1.4,1.5c-.6.3-1.3.5-2,.5-.8,0-1.6-.2-2.3-.6-.2-.1-.3-.1-.5-.1-.3,0-.5.2-.7.7h-.4l-.2-4.3h.4c.3,1,.8,1.9,1.6,2.5.5.5,1.2.8,1.9.8.4,0,.7-.1,1-.4.1-.1.2-.3.3-.4.1-.2.1-.3.1-.5,0-.4-.1-.8-.4-1.1-.5-.5-1.1-1-1.8-1.4-.9-.6-1.8-1.3-2.5-2.1-.6-.7-.9-1.5-.8-2.3,0-.9.4-1.8,1-2.5.3-.4.8-.7,1.3-.9s1-.3,1.5-.3c.7,0,1.3.2,1.9.5.2.1.4.2.6.2.1,0,.3,0,.4-.1.2-.2.3-.3.5-.6l.1.1h0Z"/>
  <path class="st0" d="M108.3,144.5v4.4h2.9v1.3h-2.9v7.4c0,.5,0,.9.1,1.3.1.2.2.4.3.5.1.1.3.2.5.2.5,0,1.1-.4,1.6-1.3l.4.3c-.2.7-.7,1.3-1.3,1.8-.6.4-1.3.7-2.1.7-.7,0-1.4-.2-2-.6-.5-.4-.8-.9-1-1.4-.1-.8-.2-1.6-.1-2.4v-6.5h-1.5v-.4c1-.7,1.9-1.5,2.8-2.4.8-.9,1.4-1.8,2-2.8h.3s0-.1,0-.1Z"/>
  <path class="st0" d="M117,148.9v2.7c.5-1,1.2-1.8,2.1-2.5.5-.4,1.1-.6,1.7-.6.2,0,.4,0,.6.1s.4.2.5.3c.2.2.3.4.3.6.1.2.1.4.1.7,0,.5-.1,1-.4,1.3l-.4.4c-.2.1-.4.1-.6.1-.4,0-.9-.1-1.2-.4-.3-.3-.5-.5-.6-.5s-.2-.1-.3-.1c-.3,0-.5.1-.7.3-.4.3-.7.8-.8,1.2-.3.9-.4,1.8-.4,2.8v3.5c0,.3,0,.6.1.9.1.2.2.4.4.5.3.1.7.2,1,.2v.5h-6.5v-.5c.2,0,.4,0,.6-.1s.3-.2.5-.3c.3-.6.4-1.3.3-2v-6.7c0-.4,0-.9-.1-1.3-.1-.2-.2-.4-.4-.5-.3-.1-.6-.2-.9-.2v-.5s5.1.1,5.1.1Z"/>
  <path class="st1" d="M129.1,159.2c-1.1,1.1-2.5,1.8-4,1.9-.3,0-.6,0-.9-.2-.3-.1-.6-.3-.8-.5-.2-.2-.4-.5-.5-.8s-.2-.6-.2-.9c0-.5.1-.9.3-1.4.2-.4.5-.8.9-1.1,1.6-1.2,3.3-2.2,5.2-2.9v-1.2c0-.6,0-1.2-.2-1.7-.1-.3-.3-.5-.6-.6-.3-.2-.6-.3-.9-.3-.5,0-1,.1-1.4.4-.1.1-.2.1-.2.2-.1.1-.1.2-.1.3,0,.3.2.5.4.7.3.3.5.7.5,1.1,0,.2,0,.4-.1.6s-.2.4-.4.5c-.3.3-.8.5-1.2.4-.5,0-1-.2-1.4-.5-.2-.1-.3-.3-.4-.5s-.1-.4-.1-.6c0-.7.3-1.3.7-1.8.5-.6,1.2-1,2-1.3.9-.3,1.8-.5,2.7-.5,1-.1,1.9.2,2.7.7.6.4,1,.9,1.3,1.6.2.8.2,1.7.2,2.5v4.7c0,.3,0,.7.1,1,0,.1.1.2.2.3.1.1.2.1.3.1s.3-.1.4-.2l.3-.3.4.3c-.3.5-.8,1-1.3,1.4-.5.3-1,.4-1.6.4s-1.1-.1-1.6-.5c-.5-.3-.8-.8-.7-1.3h0ZM129.1,154.2c-.9.5-1.7,1.2-2.3,2-.3.4-.5.9-.5,1.4,0,.4.2.7.4,1,.1.1.3.2.4.3.2.1.3.1.5.1.6-.1,1.1-.3,1.5-.7v-4.1Z"/>
  <path class="st0" d="M139.6,143.5v15c-.1.6,0,1.1.3,1.6.3.3.7.4,1.2.4v.5h-6.5v-.5c.2,0,.4,0,.6-.1s.4-.2.5-.4c.2-.5.3-1,.3-1.6v-12.4c.1-.6,0-1.1-.3-1.6-.2-.1-.3-.3-.5-.3-.2-.1-.4-.1-.6-.1v-.5h5Z"/>
  <path class="st1" d="M145.1,143.1c.3,0,.5,0,.8.1.2.1.5.3.6.5.2.2.3.4.4.6s.1.5.1.8,0,.5-.1.8c-.1.2-.3.5-.4.6-.4.4-.9.6-1.4.6s-1-.2-1.4-.6-.6-.9-.6-1.4.2-1,.6-1.4.9-.6,1.4-.6h0ZM146.9,148.9v9.6c-.1.6,0,1.1.3,1.6.3.3.7.4,1.2.4v.5h-6.5v-.5c.2,0,.4,0,.6-.1s.4-.2.5-.4c.2-.5.3-1,.3-1.6v-7c.1-.6,0-1.1-.3-1.6-.2-.1-.3-.3-.5-.3-.2-.1-.4-.1-.6-.1v-.5h5Z"/>
  <path class="st1" d="M155.4,159.2c-1.1,1.1-2.5,1.8-4,1.9-.3,0-.6,0-.9-.2-.3-.1-.6-.3-.8-.5s-.4-.5-.5-.8-.2-.6-.2-.9c0-.5.1-.9.3-1.4.2-.4.5-.8.9-1.1,1.6-1.2,3.3-2.2,5.2-2.9v-1.2c0-.6,0-1.2-.2-1.7-.1-.3-.3-.5-.6-.6-.3-.2-.6-.3-.9-.3-.5,0-1,.1-1.4.4-.1.1-.2.1-.2.2-.1.1-.1.2-.1.3,0,.3.2.5.4.7.3.3.5.7.5,1.1,0,.2,0,.4-.1.6s-.2.4-.4.5c-.3.3-.8.5-1.2.4-.5,0-1-.2-1.4-.5-.2-.1-.3-.3-.4-.5s-.1-.4-.1-.6c0-.7.3-1.3.7-1.8.6-.6,1.3-1.1,2-1.3.9-.3,1.8-.5,2.7-.5,1-.1,1.9.2,2.7.7.6.4,1,.9,1.3,1.6.2.8.2,1.7.2,2.5v4.7c0,.3,0,.7.1,1,0,.1.1.2.2.3.1.1.2.1.3.1s.3-.1.4-.2l.3-.3.4.3c-.3.5-.8,1-1.3,1.4-.5.3-1,.4-1.6.4s-1.1-.1-1.6-.5c-.5-.3-.7-.8-.7-1.3h0ZM155.4,154.2c-.9.5-1.7,1.2-2.3,2-.3.4-.5.9-.5,1.4,0,.4.2.7.4,1,.1.1.3.2.4.3.2.1.3.1.5.1.6-.1,1.1-.3,1.5-.7v-4.1h0Z"/>
  <path class="st0" d="M165.8,148.9v1.6c.5-.6,1.1-1.1,1.8-1.4.6-.3,1.2-.5,1.8-.5.7,0,1.4.2,1.9.7.5.4.8,1,1,1.6.2.9.2,1.9.2,2.8v4.7c-.1.6,0,1.2.2,1.7.3.3.7.4,1.1.4v.5h-6.1v-.5c.2,0,.4-.1.6-.2.2-.1.3-.2.4-.4.2-.5.3-1.1.2-1.6v-5.3c0-.6,0-1.3-.1-1.9-.1-.2-.2-.4-.4-.6-.2-.1-.4-.2-.6-.2-.7,0-1.4.5-2.1,1.6v6.5c-.1.6,0,1.2.2,1.7.1.1.3.2.4.3.2.1.3.1.5.1v.5h-6.1v-.5c.2,0,.4,0,.6-.1.2-.1.4-.2.5-.4.2-.5.3-1.1.2-1.7v-6.8c.1-.6,0-1.2-.2-1.7-.3-.3-.7-.4-1.1-.4v-.5h5.1Z"/>
  <path class="st0" d="M197.6,143.1v6.2h-.5c-.5-1.5-1.4-2.9-2.6-3.8-1.1-.9-2.4-1.3-3.8-1.3-1.2,0-2.3.4-3.3,1.1-.9.8-1.6,1.9-1.8,3.1-.4,1.3-.5,2.6-.5,4,0,1.5.2,3,.6,4.4.3,1.1,1,2.1,1.9,2.8.9.6,2,.9,3.1.9.4,0,.9,0,1.3-.1.5-.1.9-.2,1.4-.4v-3.6c0-.4,0-.9-.1-1.3-.1-.2-.3-.4-.6-.6s-.7-.3-1.1-.2h-.4v-.5h8.5v.5c-.5,0-.9.1-1.4.3-.3.1-.5.4-.6.7-.1.4-.1.8-.1,1.2v3.6c-1.1.5-2.3.9-3.5,1.1-1.2.3-2.5.4-3.8.4-1.4,0-2.8-.2-4.1-.7-1.1-.4-2-1-2.9-1.8s-1.7-1.8-2.2-2.9-.7-2.3-.7-3.6c0-1.2.2-2.5.7-3.6s1.2-2.2,2.1-3c.9-.9,2-1.6,3.2-2.1s2.5-.7,3.8-.6c.8,0,1.6.1,2.3.2.6.1,1.2.3,1.8.6.5.2,1,.4,1.5.5.2,0,.5-.1.7-.3.3-.3.5-.6.6-1h.5v-.2h0Z"/>
  <path class="st1" d="M206,148.5c1,0,2,.3,2.9.8.9.6,1.6,1.4,2,2.3.5,1,.7,2.1.7,3.3,0,1.5-.4,3-1.3,4.3-.5.7-1.2,1.2-1.9,1.6s-1.6.5-2.4.5-1.6-.1-2.3-.4-1.4-.8-1.9-1.5c-1-1.3-1.5-2.9-1.5-4.5s.5-3.2,1.5-4.5c.5-.6,1.1-1.1,1.8-1.5s1.5-.4,2.4-.4h0ZM206,149.5c-.2,0-.4,0-.6.1-.2.1-.4.2-.5.4-.4.6-.6,1.3-.6,2-.1,1-.1,2.3-.1,4.1,0,.9.1,1.7.2,2.6.1.5.3,1,.6,1.4.1.1.3.3.5.4.2.1.4.1.6.1.4,0,.7-.1,1-.3.4-.3.6-.8.7-1.2.2-1.7.3-3.3.3-5,0-1,0-2-.2-3-.1-.5-.4-.9-.7-1.2-.5-.4-.8-.5-1.2-.4h0Z"/>
  <path class="st0" d="M217.4,161.3l-4.1-9.3c-.3-.8-.7-1.5-1.2-2.1-.2-.2-.5-.4-.9-.4v-.5h6.4v.5c-.3,0-.6,0-.8.2-.1.1-.2.2-.2.3-.1.1-.1.2-.1.4.1.6.3,1.2.6,1.8l2,4.5,1.6-3.9c.4-.7.6-1.5.7-2.4,0-.1,0-.2-.1-.4,0-.1-.1-.2-.2-.3-.3-.2-.6-.3-1-.3v-.5h3.9v.5c-.3,0-.7.2-.9.4-.5.6-.8,1.3-1.1,2l-4,9.5h-.6,0Z"/>
  <path class="st1" d="M233.5,154.5h-6.6c0,1.4.5,2.7,1.3,3.8.3.3.6.6.9.8.4.2.8.3,1.2.3.5,0,1-.1,1.4-.4.5-.4,1-1,1.3-1.6l.4.3c-.5,1.1-1.2,2.1-2.2,2.8-.8.6-1.8.8-2.7.8-.8,0-1.6-.1-2.3-.5s-1.3-.9-1.8-1.6c-.8-1.2-1.2-2.7-1.1-4.1-.1-1.7.5-3.5,1.6-4.8.5-.6,1.1-1,1.7-1.3.7-.3,1.4-.5,2.1-.5.6,0,1.2.1,1.8.4.5.3,1,.6,1.4,1.1,1.1,1.3,1.6,2.9,1.6,4.5h0ZM230.3,153.6c0-1,0-1.9-.2-2.8-.1-.4-.3-.9-.7-1.2-.2-.2-.5-.2-.7-.2s-.4.1-.6.2c-.2.1-.4.3-.5.5-.6.9-.8,2-.8,3.1v.4h3.5Z"/>
  <path class="st0" d="M239.2,148.9v2.7c.5-1,1.2-1.8,2.1-2.5.5-.4,1.1-.6,1.7-.6.2,0,.4,0,.6.1.2.1.4.2.5.3.2.2.3.4.3.6.1.2.1.4.1.7,0,.5-.1,1-.4,1.3l-.4.4c-.1.1-.4.1-.6.1-.4,0-.9-.1-1.2-.4s-.5-.5-.6-.5-.2-.1-.3-.1c-.3,0-.5.1-.7.3-.4.3-.7.8-.8,1.2-.3.9-.4,1.8-.4,2.8v3.5c0,.3,0,.6.1.9.1.2.2.4.4.5.3.1.7.2,1,.2v.5h-6.5v-.5c.2,0,.4,0,.6-.1.2-.1.3-.2.5-.3.3-.6.4-1.3.3-2v-6.7c0-.4,0-.9-.1-1.3-.1-.2-.2-.4-.4-.5-.3-.1-.6-.2-.9-.2v-.5l5.1.1h0Z"/>
  <path class="st0" d="M250.3,148.9v1.6c.5-.6,1.1-1.1,1.8-1.4.6-.3,1.2-.5,1.8-.5.7,0,1.4.2,1.9.7.5.4.8,1,1,1.6.2.9.2,1.9.2,2.8v4.7c-.1.6,0,1.2.2,1.7.3.3.6.4,1,.4v.5h-6.1v-.5c.2,0,.4-.1.6-.2.2-.1.3-.2.4-.4.2-.5.2-1.1.2-1.6v-5.3c0-.6,0-1.3-.1-1.9-.1-.2-.2-.4-.4-.6-.2-.1-.4-.2-.6-.2-.7,0-1.4.5-2.1,1.6v6.5c-.1.6,0,1.2.2,1.7.1.1.3.2.4.3.2.1.3.1.5.1v.5h-6v-.5c.2,0,.4,0,.6-.1.2-.1.4-.2.5-.4.2-.5.3-1.1.2-1.7v-6.8c.1-.6,0-1.2-.3-1.7-.3-.3-.6-.4-1-.4v-.5h5.1Z"/>
  <path class="st0" d="M264.3,148.9v1.6c.5-.6,1.1-1.1,1.8-1.5.6-.3,1.2-.4,1.9-.4s1.4.2,2,.5c.6.4,1,1,1.2,1.7.6-.7,1.2-1.2,2-1.7.6-.3,1.3-.5,2-.5s1.4.2,2,.6c.5.4.8.9,1,1.5.2.9.3,1.9.3,2.8v4.9c-.1.6,0,1.2.2,1.7.3.3.7.4,1.1.4v.5h-6.2v-.5c.2,0,.4-.1.6-.2.2-.1.3-.2.5-.4.2-.5.3-1,.2-1.6v-5.2c0-.7,0-1.3-.1-2-.1-.3-.2-.5-.4-.6s-.4-.2-.6-.2c-.4,0-.8.2-1.1.4-.4.3-.8.7-1.1,1.2v6.5c-.1.6,0,1.1.2,1.6.1.2.3.3.5.4.2.1.4.1.6.1v.5h-6.2v-.5c.3,0,.6-.1.8-.2s.3-.3.4-.5c.1-.4.1-.9.1-1.4v-5.2c0-.7,0-1.3-.1-2-.1-.3-.2-.5-.4-.6s-.4-.2-.6-.2c-.4,0-.7.1-1,.3-.5.4-.9.8-1.3,1.4v6.5c0,.6,0,1.1.2,1.7.1.2.3.3.5.4.2.1.4.1.6.1v.5h-6.5v-.5c.2,0,.4,0,.6-.1s.4-.2.5-.4c.2-.5.3-1.1.2-1.7v-6.9c.1-.6,0-1.2-.3-1.7-.3-.3-.7-.4-1.1-.4v-.5h5v-.2h0Z"/>
  <path class="st1" d="M290.4,154.5h-6.6c0,1.4.4,2.7,1.3,3.8.3.3.6.6.9.8.4.2.8.3,1.2.3.5,0,1-.1,1.4-.4.5-.4,1-1,1.4-1.6l.4.3c-.5,1.1-1.2,2.1-2.2,2.8-.8.6-1.8.8-2.7.8-.8,0-1.6-.1-2.3-.5-.7-.4-1.3-.9-1.8-1.6-.8-1.2-1.2-2.7-1.1-4.1-.1-1.7.5-3.5,1.6-4.8.5-.6,1.1-1,1.7-1.3.7-.3,1.4-.5,2.1-.5.6,0,1.2.1,1.8.4.5.3,1,.6,1.4,1.1,1,1.3,1.6,2.9,1.5,4.5h0ZM287.2,153.6c0-1,0-1.9-.2-2.8-.1-.5-.4-.9-.7-1.2-.2-.2-.5-.2-.7-.2s-.4.1-.6.2-.4.3-.5.5c-.6.9-.8,2-.8,3.1v.4h3.5Z"/>
  <path class="st0" d="M295.8,148.9v1.6c.5-.6,1.1-1.1,1.8-1.4.6-.3,1.2-.5,1.8-.5.7,0,1.4.2,1.9.7.5.4.8,1,1,1.6.2.9.2,1.9.2,2.8v4.7c-.1.6,0,1.2.2,1.7.3.3.7.4,1.1.4v.5h-6.1v-.5c.2,0,.4-.1.6-.2.2-.1.3-.2.4-.4.2-.5.3-1.1.2-1.6v-5.3c0-.6,0-1.3-.1-1.9-.1-.2-.2-.4-.4-.6-.2-.1-.4-.2-.6-.2-.7,0-1.4.5-2.1,1.6v6.5c-.1.6,0,1.2.2,1.7.1.1.3.2.4.3.2.1.3.1.5.1v.5h-6.1v-.5c.2,0,.4,0,.6-.1s.4-.2.5-.4c.2-.5.3-1.1.2-1.7v-6.8c.1-.6,0-1.2-.3-1.7-.3-.3-.7-.4-1-.4v-.5h5.1,0Z"/>
  <path class="st0" d="M309,144.5v4.4h2.9v1.3h-2.9v7.4c0,.5,0,.9.1,1.3.1.2.2.4.3.5.1.1.3.2.5.2.6,0,1.1-.4,1.6-1.3l.4.3c-.2.7-.7,1.3-1.3,1.8-.6.4-1.3.7-2.1.7-.7,0-1.4-.2-2-.6-.5-.4-.8-.9-1-1.4-.1-.8-.2-1.6-.1-2.4v-6.5h-1.6v-.4c1-.7,1.9-1.5,2.8-2.4.8-.9,1.5-1.8,2-2.8h.4v-.1h0Z"/>
  <path class="st0" d="M326.6,160.5v.5h-9.2v-.5h.6c.4,0,.8-.1,1.2-.3.2-.1.4-.4.5-.6.1-.5.2-1.1.1-1.6v-11.5c0-.6,0-1.1-.1-1.7-.1-.3-.3-.5-.6-.6-.4-.2-.8-.3-1.2-.3h-.5v-.5h9.1v.5h-.6c-.4,0-.9.1-1.2.3-.2.1-.4.4-.5.6-.1.5-.2,1.1-.1,1.6v11.6c0,.6,0,1.1.1,1.7.1.2.3.5.6.6.4.2.8.3,1.2.2h.6Z"/>
  <path class="st0" d="M332.5,148.9v1.6c.5-.6,1.1-1.1,1.8-1.4.6-.3,1.2-.5,1.8-.5.7,0,1.4.2,1.9.7.5.4.8,1,1,1.6.2.9.2,1.9.2,2.8v4.7c-.1.6,0,1.2.2,1.7.3.3.6.4,1,.4v.5h-6v-.5c.2,0,.4-.1.6-.2.2-.1.3-.2.4-.4.2-.5.2-1.1.2-1.6v-5.3c0-.6,0-1.3-.1-1.9-.1-.2-.2-.4-.4-.6-.2-.1-.4-.2-.6-.2-.7,0-1.4.5-2.1,1.6v6.5c-.1.6,0,1.2.2,1.7.1.1.3.2.4.3.2.1.3.1.5.1v.5h-6.1v-.5c.2,0,.4,0,.6-.1s.4-.2.5-.4c.2-.5.3-1.1.2-1.7v-6.8c.1-.6,0-1.2-.3-1.7-.3-.3-.6-.4-1-.4v-.5h5.1,0Z"/>
  <path class="st1" d="M344.6,143.1c.5,0,1,.2,1.4.6s.6.9.6,1.4-.2,1-.6,1.4-.9.6-1.4.6-1-.2-1.4-.6-.6-.9-.6-1.4c0-.3,0-.5.1-.8.1-.2.2-.5.4-.6.2-.2.4-.3.6-.4.4-.2.6-.2.9-.2h0ZM346.4,148.9v9.6c-.1.6,0,1.1.3,1.6.3.3.7.4,1.2.4v.5h-6.5v-.5c.2,0,.4,0,.6-.1s.4-.2.5-.4c.2-.5.3-1,.2-1.6v-7c.1-.6,0-1.1-.3-1.6-.2-.1-.3-.3-.5-.3-.2-.1-.4-.1-.6-.1v-.5h5.1,0Z"/>
  <path class="st0" d="M353.3,144.5v4.4h2.9v1.3h-2.9v7.4c0,.5,0,.9.1,1.3.1.2.2.4.4.5.1.1.3.2.4.2.6,0,1.1-.4,1.6-1.3l.4.3c-.2.7-.7,1.3-1.3,1.8-.6.4-1.3.7-2.1.7-.7,0-1.4-.2-2-.6-.5-.4-.8-.9-1-1.4-.1-.8-.2-1.6-.1-2.4v-6.5h-1.5v-.4c1-.7,1.9-1.5,2.8-2.4.8-.9,1.4-1.8,2-2.8h.3v-.1h0Z"/>
  <path class="st1" d="M360.2,143.1c.5,0,1,.2,1.4.6s.6.9.6,1.4-.2,1-.6,1.4-.9.6-1.4.6-1-.2-1.4-.6-.6-.9-.6-1.4c0-.3,0-.5.1-.8.1-.2.2-.5.4-.6.2-.2.4-.3.6-.4.4-.2.6-.2.9-.2h0ZM362,148.9v9.6c-.1.6,0,1.1.3,1.6.3.3.7.4,1.2.4v.5h-6.5v-.5c.2,0,.4,0,.6-.1s.4-.2.5-.4c.2-.5.3-1,.3-1.6v-7c.1-.6,0-1.1-.3-1.6-.2-.1-.3-.3-.5-.3-.2-.1-.4-.1-.6-.1v-.5h5Z"/>
  <path class="st1" d="M371,159.2c-1.1,1.1-2.5,1.8-4,1.9-.3,0-.6,0-.9-.2-.3-.1-.6-.3-.8-.5-.2-.2-.4-.5-.5-.8s-.2-.6-.2-.9c0-.5.1-.9.3-1.4.2-.4.5-.8.9-1.1,1.6-1.2,3.3-2.2,5.2-2.9v-1.2c0-.6,0-1.2-.2-1.7-.1-.3-.3-.5-.6-.6-.3-.2-.6-.3-.9-.3-.5,0-1,.1-1.4.4-.1.1-.2.1-.2.2-.1.1-.1.2-.1.3,0,.3.2.5.4.7.3.3.5.7.5,1.1,0,.2,0,.4-.1.6s-.2.4-.4.5c-.3.3-.8.5-1.2.4-.5,0-1-.2-1.4-.5-.2-.1-.3-.3-.4-.5s-.1-.4-.1-.6c0-.7.3-1.3.7-1.8.5-.6,1.2-1,2-1.3.9-.3,1.8-.5,2.7-.5,1-.1,1.9.2,2.7.7.6.4,1,.9,1.3,1.6.2.8.2,1.7.2,2.5v4.7c0,.3,0,.7.1,1,0,.1.1.2.2.3s.2.1.3.1.3-.1.4-.2.2-.2.3-.3l.4.3c-.3.5-.8,1-1.3,1.4-.5.3-1,.4-1.6.4s-1.1-.1-1.6-.5c-.5-.3-.7-.8-.7-1.3h0ZM371,154.2c-.9.5-1.7,1.2-2.3,2-.3.4-.5.9-.5,1.4,0,.4.2.7.4,1,.1.1.3.2.4.3.2.1.3.1.5.1.6-.1,1.1-.3,1.5-.7v-4.1Z"/>
  <path class="st0" d="M381.3,144.5v4.4h2.9v1.3h-2.9v7.4c0,.5,0,.9.1,1.3.1.2.2.4.4.5.1.1.3.2.4.2.6,0,1.1-.4,1.6-1.3l.4.3c-.2.7-.7,1.3-1.3,1.8-.6.4-1.3.7-2.1.7-.7,0-1.4-.2-1.9-.6-.5-.4-.8-.9-1-1.4-.1-.8-.2-1.6-.1-2.4v-6.5h-1.6v-.4c1-.7,1.9-1.5,2.8-2.4.8-.9,1.5-1.8,2-2.8h.3v-.1h0Z"/>
  <path class="st1" d="M388.2,143.1c.3,0,.5,0,.8.1.2.1.5.3.6.5.2.2.3.4.4.6s.1.5.1.8,0,.5-.1.8c-.1.2-.3.5-.4.6-.4.4-.9.6-1.4.6s-1-.2-1.4-.6-.6-.9-.6-1.4.2-1,.6-1.4.9-.6,1.4-.6h0ZM390,148.9v9.6c-.1.6,0,1.1.3,1.6.2.1.3.2.5.3s.4.1.6.1v.5h-6.5v-.5c.2,0,.4,0,.6-.1s.4-.2.5-.4c.2-.5.3-1,.3-1.6v-7c.1-.6,0-1.1-.3-1.6-.2-.1-.3-.3-.5-.3-.2-.1-.4-.1-.6-.1v-.5h5.1Z"/>
  <path class="st0" d="M397.3,161.3l-4.1-9.3c-.3-.8-.7-1.5-1.1-2.1-.2-.2-.5-.4-.9-.4v-.5h6.4v.5c-.3,0-.6,0-.8.2-.1.1-.2.2-.2.3-.1.1-.1.2-.1.4.1.6.3,1.2.6,1.8l2,4.5,1.6-3.9c.4-.7.6-1.5.7-2.4,0-.1,0-.2-.1-.4s-.1-.2-.2-.3c-.3-.2-.6-.3-1-.3v-.5h3.9v.5c-.3,0-.7.2-.9.4-.5.6-.8,1.3-1.1,2l-4,9.5h-.7,0Z"/>
  <path class="st1" d="M413.1,154.5h-6.6c0,1.4.4,2.7,1.3,3.8.2.3.6.6.9.8.4.2.8.3,1.2.3.5,0,1-.2,1.4-.4.5-.4,1-1,1.4-1.6l.4.3c-.5,1.1-1.2,2.1-2.2,2.8-.8.6-1.8.8-2.8.8-.8,0-1.6-.1-2.3-.5-.7-.4-1.3-.9-1.8-1.6-.8-1.2-1.2-2.7-1.1-4.1-.1-1.7.5-3.5,1.6-4.8.5-.6,1.1-1,1.7-1.3.7-.3,1.4-.5,2.1-.5.6,0,1.2.1,1.8.4.5.3,1,.6,1.4,1.1,1.2,1.3,1.7,2.9,1.6,4.5ZM410,153.6c0-1,0-1.9-.2-2.8-.1-.4-.4-.9-.7-1.2-.2-.2-.5-.2-.7-.2s-.4.1-.6.2-.3.3-.5.5c-.6.9-.8,2-.8,3.1v.4h3.5Z"/>
  <path class="st0" d="M198.3,112.4c-.1.1-.2.3-.3.3l.3-.3Z"/>
  <path class="st0" d="M201.4,88.8c.2,0,.3-.1.4-.2.1-.1.2-.3.2-.4v-.2s-.1-.1-.1-.2c-.07-.07-.13-.1-.2-.1h-.4c-.1,0-.1.1-.2.1-.07.07-.1.13-.1.2v.2c0,.2.1.3.2.4-.1.1,0,.2.2.2h0Z"/>
  <path class="st0" d="M230.6,62.1h-22.8v18.4c0,1.8.8,3.3,1.8,3.8l8.8,5.2c.1.1.2.2.4.3.1.1.3.1.4.1.3,0,.5-.1.7-.3l8.9-5.3c1-.5,1.8-2,1.8-3.8v-18.4h0ZM215.4,67.4h-2v-4.7h2v4.7ZM214,69.1l.3-.3-.2-.3h.4l.2-.4.2.4h.4l-.2.3.3.2-.4.1v.4l-.3-.2-.3.2v-.4s-.4,0-.4,0ZM208.5,74.9v-4.5h2.4v4.5h-2.4ZM208.9,68.4h.4l.2-.4.2.4h.4l-.2.3.3.3-.4.1v.4l-.3-.2-.3.2v-.4l-.4-.1.3-.3-.2-.3h0ZM211.6,73h.4l.2-.4.2.4h.4l-.2.3.3.3-.4.1v.4l-.3-.2-.3.2v-.4l-.4-.1.3-.3-.2-.3h0ZM213.2,69.4c0-.1-.2-.2-.2-.2-.1,0-.3.4-.5.4s-.2,0-.2-.1.3-.2.4-.3c-1.5,0-1.5.7-1.7.7-.4,0,.3-.7.5-.9-.3,0-.5-.4-.8-.6.1-.2.2-.1.4,0,0-.2.1-.3.5-.3.7,0,.5.6.6.6s0-.6.4-.6c.6,0,1.5,1.7.7,1.7-.4-.2-.1-.4-.1-.4h0ZM211.5,64.5l.3-.3-.2-.3h.4l.2-.4.2.4h.4l-.2.3.3.3-.4.1v.4l-.3-.2-.3.2v-.4l-.4-.1h0ZM210.9,62.7v4.7h-2.4v-4.7h2.4ZM215.4,87l-5.4-3.3c-.5-.4-.8-.8-1.1-1.3s-.4-1.1-.4-1.7v-5.2h6.9v11.5ZM213.4,74.9v-4.5h2v4.5h-2ZM222.4,87.4l-2.5,1.5h-.1c-.2.1-.4.2-.7.2-.2,0-.5-.1-.7-.2l-2.5-1.5v-11.9h6.4v11.9h.1ZM222.4,74.9h-6.4v-12.2h6.4v12.2ZM229.9,80.7c0,.6-.1,1.1-.4,1.7s-.6,1-1.1,1.3l-5.4,3.3v-11.5h6.9v5.2ZM229.9,74.9h-6.9v-12.2h6.9v12.2Z"/>
  <path class="st0" d="M215,79.7c0-.1-.9.3-.6.3.2-.4.4-.7.7-.9,0-.3-.4,0-.8.2,1.3-1.9.5-1.1-.3-1,1.1-1.2.8-1.2,0-.8.7-.5.8-1.2.7-1.4-.6.8-1.2.7-1.2,1.5,0,.6-.1,1.1-.4,1.6-.3.4-.1-1.4-1-1.4-.3,0-1,0-1.2.3.2,0,.4.5.4.6s.2.7-.1.7-.7-.6-.7-1v-.7c-.1-.4-.3-.8-.6-1.1s-.7-.5-1.1-.7c0,.5.7.6.7,1.3-.3,0-.7-.5-.7-.2s.4.4.4.7-.5-.1-.5.2.3.2.3.5c-.2,0-.4,0-.4.1s.1.2.2.3c-.1.1-.1.2-.1.6,0,1.5.9,2.1,1.6,2.1.5,0,.4-.3.4-.5,0,.2.3-.1.3.3s-.5.2-.5.6.7,0,.7.6c0,.3,0,.7-.1,1,0,.2.8-.3.7-.3.2.1.2.6.5.6s.3-.6.4-.6c-.1,0,.7.5.7.3,0-.7-.3-.4-.3-.9s.9-.3.8-.6c-.1-.2-.2-.1-.3-.4,0,.1-.7-1.1.2-.5s1.2-1.2,1.2-1.4h0Z"/>
  <path class="st0" d="M239.3,84.5c.1,0,.2-.1.3-.2s.2-.2.2-.3v-.4c0-.1-.1-.2-.2-.3s-.2-.1-.3-.2c-.1,0-.3,0-.4.1-.1.1-.2.1-.3.2s-.1.2-.1.4.1.4.2.5c.3.2.4.3.6.2Z"/>
  <path class="st0" d="M236.3,86.3c.1,0,.2-.1.3-.2s.2-.2.2-.3v-.4c0-.1-.1-.2-.2-.3-.1-.1-.2-.1-.3-.2-.1,0-.3,0-.4.1-.1.1-.2.1-.3.2s-.1.2-.1.4.1.4.2.5c.2.2.4.3.6.2Z"/>
  <path class="st0" d="M200.3,90.5c.1,0,.2-.1.3-.1.1-.1.2-.2.2-.3v-.4c0-.1-.1-.2-.2-.3-.1-.1-.2-.1-.3-.2h-.4c-.1.1-.2.1-.3.2s-.1.2-.1.4.1.4.2.5c.3.1.5.2.6.2Z"/>
  <path class="st0" d="M202.7,90.7c.1,0,.2-.1.3-.1.1-.1.2-.2.2-.3v-.4c0-.1-.1-.2-.2-.3-.1-.1-.2-.1-.3-.2h-.4c-.1.1-.2.1-.3.2s-.1.2-.1.4.1.4.2.5c.2.1.4.2.6.2Z"/>
  <path class="st0" d="M267.4,59.3c.6.7.9,1.5,1,2.4s-.1,1.8-.5,2.6c-.4,0-.4-.6-.4-.9-.8-1.5-1.4-3.4-.7-5,.5.1.3.7.6.9h0Z"/>
  <path class="st0" d="M172.4,61.1c-.2,1-.2,2.1,0,3.2-.2.2-.2-.2-.4-.2-1.5-1.1-.8-3.3-1.2-4.9,0-.1.1-.1.2-.1h.2c.3.2.6.5.8.9s.4.8.4,1.1h0Z"/>
  <path class="st0" d="M270.8,61.2c.2.4-.2.9-.5,1.1-.2,0-.4,0-.6-.1s-.3-.2-.4-.4c0-.2,0-.4.1-.6s.2-.3.4-.4c.2,0,.4,0,.6.1.1.1.2.2.4.3h0Z"/>
  <path class="st0" d="M170,63c0,.2-.1.3-.2.5s-.2.3-.4.4c-.2,0-.6,0-.8-.2-.1-.1-.2-.2-.2-.4s0-.3.1-.4.2-.2.3-.3.3-.1.4-.1c.4.1.7.2.8.5h0Z"/>
  <path class="st0" d="M272.4,63.7c.1.2.1.4,0,.6-.1.2-.3.3-.5.4s-.4.1-.6,0c-.2-.2-.4-.4-.4-.7.1-.2.1-.3.3-.4.1-.1.3-.2.4-.3.3,0,.6.1.8.4h0Z"/>
  <path class="st0" d="M270.1,63.7c.3.2.1.6,0,.8-.2.2-.5.5-.8.4-.2-.2-.4-.2-.5-.5,0-.2,0-.4.1-.6s.2-.3.4-.4h.4c.1.2.2.2.4.3h0Z"/>
  <path class="st0" d="M267.2,64.3c0,.4,0,1-.5,1.1h-.3c-.1,0-.2-.1-.3-.1-.1-.1-.2-.1-.2-.2-.1-.1-.1-.2-.1-.3,0-.2,0-.4.1-.6s.3-.3.5-.4c.2,0,.3.1.4.1.2.1.3.2.4.4h0Z"/>
  <path class="st0" d="M174.3,64.5c.1.4-.3.6-.5.8-.2,0-.3,0-.5-.1-.1-.1-.3-.2-.3-.3-.3-.3.1-.5.2-.8.1-.1.2-.1.3-.1h.3c.1,0,.2.1.3.2s.2.2.2.3Z"/>
  <path class="st0" d="M172,64.6c0,.2,0,.3-.1.4s-.2.2-.3.3h-.5c-.1-.1-.3-.2-.3-.3s-.1-.2-.1-.3v-.3c0-.1.1-.2.1-.2,0,0,.1-.1.2-.2.5-.1.8.3,1,.6h0Z"/>
  <path class="st0" d="M257.6,64.8c.4.9.7,1.8.8,2.8-.2.8.1,1.8-.4,2.3-.6-.2-.6-.9-1-1.2-.7-1.4-.1-3,.2-4.4.2-.1.2.3.4.5h0Z"/>
  <path class="st0" d="M170.1,65.3c.1.5-.2.7-.5,1-.5.1-.8-.2-1-.6,0-.2,0-.4.1-.6s.2-.3.4-.4c.2,0,.4,0,.6.1.1.1.3.3.4.5h0Z"/>
  <path class="st0" d="M263.9,66.4c.5,1.2.6,2.6.2,3.8l-.2.2c-.7-1-1.2-2.1-1.6-3.2,0-.8.2-1.6.5-2.3.3-.2.4,0,.6.3,0,.2.1.5.2.7-.1.2.1.4.3.5Z"/>
  <path class="st0" d="M268.9,65.7c0,.2,0,.4-.2.6s-.3.3-.4.4h-.3c-.1,0-.2,0-.3-.1-.1,0-.2-.1-.2-.2-.1-.1-.1-.2-.1-.3-.1-.2,0-.4,0-.6s.2-.3.4-.4c.4-.1.9.3,1.1.6h0Z"/>
  <path class="st0" d="M172,66.9c0,.2-.1.3-.2.5-.1.1-.2.2-.4.3-.3.2-.6-.2-.8-.3-.1-.1-.1-.3-.1-.5s0-.3.1-.5.4-.2.6-.3c.4.3.7.5.8.8h0Z"/>
  <path class="st0" d="M173.7,66.8c.2.4-.3.6-.4.8-.5.2-.7-.2-.9-.5s.2-.6.4-.9c.5-.1.7.2.9.6Z"/>
  <path class="st0" d="M270,66.6c0,.5-.8,1-.9,1.6-.2.5-.6,1-1,1.4s-.9.7-1.5.9c-.3.3-.6.4-.9.5-.1-.8.6-1.5,1.1-2.2.8-1.1,1.9-1.9,3.2-2.2h0Z"/>
  <path class="st0" d="M171.2,68.3c.5.7,1,1.3,1.6,1.9v.1s0,.1-.1.1l-.1.1h-.1c-1.9-.1-3.2-2.1-4.2-3.5.1-.4.6-.1.9-.1.7.6,1.5.7,2,1.4h0Z"/>
  <path class="st0" d="M270.5,68.9c0,.9-.2,1.7-.7,2.5-.4.8-1,1.4-1.8,1.8-.4.2-.9.6-1.4.3.9-1.7,2.1-3.3,3.5-4.6,0,0,.4,0,.4,0Z"/>
  <path class="st0" d="M262.9,70c.1.2,0,.5-.1.7s-.3.4-.6.4c-.4,0-.7-.3-.9-.6,0-.2,0-.4.1-.5.1-.2.3-.3.4-.3.07-.07.13-.1.2-.1h.2c.4,0,.5.2.7.4h0Z"/>
  <path class="st0" d="M169,70.4c.8.6,1.5,1.2,2.1,1.9-.5.4-1.1,0-1.8,0-1.3-.5-2.3-1.6-3.6-2,0-.4.6-.3.8-.4.9,0,1.7.2,2.5.5Z"/>
  <path class="st0" d="M211.5,58.6c-2.2-.9-3.7,1.4-6,1.1-.3.2-.2.4-.4.6s-.3,0-.4,0c-.1-1-.4-1.8-.6-2.8-.2-.4-.1-1-.3-1.4-1.3-3.5,3.1-.8,4-2.9.8-1.8-1.5-2-2.1-3.2v-.5c-.6-.6-1.3-.8-1.7-1.7.3-1,.4-2.1.1-3.1,0-.2-.2-.6-.6-.4-.8,1-1.3,1.9-2,2.9-.7-.6-1.5-1.2-2.3-1.8-.6-.1-1.1-.7-1.8-.4,0,.1-.1.2,0,.3,0,.1.1.2.2.3.1,1.5.7,2.9,1.8,3.9l.1.6c-.7,1.6-.5,3.5-.7,5.3-1.8,4.7-4.7,8.9-8.6,12.1-2.3,2.6-5,5-5.3,8.5-.1.6.1,1.2-.4,1.6-1.3-.5-2.6-1.1-3.7-2-1.8-1.3-4.4-1.1-5.6-3.4-.5-.9.1-1.8.5-2.5,1.4-1.3,1.2-3.6.4-5.1-.2,0-.2.2-.3.2-.1,2.3-2,4-1.3,6.6.2.8.6,1.2.8,2-.3,0-.6-.1-.9-.2-.9-.2-1.8-.4-2.7-.4-1.8.8-4.3-.2-5.8,1.5-.2,0-.6.1-.5.4.9,0,1.7.2,2.6.2,1.4.2,2.3-.9,3.2-1.4h.2c.4-.4,1.1-.2,1.6-.2,2.5.3,4.4,1.5,6.5,2.7v.2c-.8.4-1.7.6-2.5,1-1,.6-1.8,1.6-2.2,2.7-.6,1,.2,1.9.6,2.7,0,.4.1.9.4,1,1.3-1.4.1-3,.3-4.6.2-.5.6-1,1-1.4.5-.4,1-.6,1.6-.7,2.3-1,3.9.9,5.7,1.9.1,1.8,0,3.6-.2,5.4-.6.2-1.2.3-1.9.3-3.1.2-5.6,2-8.4,2.9-1.3.4-2.8.4-4,.9,1,.1,2,.1,3.1-.1,3.9-.6,6.9-3.6,11.1-3l.1.1c-.5,1-1.1,1.8-1.9,2.6-.1-.4-.2-.8-.6-1-.2-.1-.3-.1-.5,0s-.3.2-.4.3c-.1.1-.1.2-.1.3s0,.2.1.3.2.3.4.4.3.2.5.2c-.1.4-.5.5-.8.8-1.1,1.9-3.4,1.1-4.7,2.4-.2.3-.9.4-.6.9,1.4.2,2.9-.2,4.1-1,1.5-1.6,3-3.2,4.5-4.8.1.6.1,1.3-.1,1.9-.2.6-.4,1.2-.8,1.7-.3-.2-.7-.4-1.1-.6-.2.1-.3.2-.5.3-.1.1-.2.3-.2.5.1.3.3.6.6.8-1.3,1-3.1,1-4.6,1.5-2.9.4-5.8.6-8.6.6-1.4-.1-3,.4-4.3,0-1.5.3-3.1-.2-4.4.6-.2.2,0,.4,0,.6,1.8,1.2,4.3.2,6.4.6h15.6c1.1.1,2.2-.1,3.2-.6,2-1.2,3.1-3.2,4.2-5.3.4-.8.7-1.6.8-2.4.2-.7.6-1.2,1.1-1.7.5-.4,1.2-.7,1.9-.8.1,2-.1,4.1-.7,6.1-.2,1.3-1.1,2.5-.6,3.9.1.6.8.6,1.3.7,4.8-.1,9.6-.3,14.7.1.9.2,1.8.4,2.7.4.1-.1.4-.2.2-.4-.1-.3-.2-.5-.3-.7-.2-.2-.4-.3-.6-.4-.1-.2-.4-.2-.6-.3-2.5-1.4-5.6-.7-8.6-.6-1.5.2-3.1.4-4.4-.4-.6-.7-.2-3-.2-3,.6-2.6,1.5-5.2,2.5-7.7.2-.6.2-1.2.2-1.8.2-.9.3-1.8.2-2.7.3-1.3.7-2.5,1.2-3.7.2-.6.4-1.2.7-1.8.1-.7.4-1.4.8-2.1,1.3.8,2.6.8,3.2,2.3l.6,3.3c0,.2.2.6.4.4,1-.7.7-2.2.7-3.2.2-1.2-.6-1.8-1-2.9-.3-.3-.5-.7-.7-1.2-.2-.9-2.1-1.5-1.6-2.6.1-.5.2-.9.4-1.3s.5-.7.9-1c.1,0,.1.1.1.1,0,0,.1.1.1.2l.5-.3.1-3.3c1.3,0,3.2.2,4.5.2.4.1.6.4,1,.4l.3-.4,3.2-.6c-1,.1-1.8-1.5-3.1-1.5h0Z"/>
  <path class="st0" d="M215,60c.1,0,.2,0,.3-.1l-.3.1Z"/>
  <path class="st0" d="M180.4,71.1c0,.2,0,.4-.1.6s-.3.3-.5.4c-.3-.1-.6-.2-.8-.5s.2-.8.6-.9c.3,0,.7,0,.8.4Z"/>
  <path class="st0" d="M177.9,71.1c.1.1.2.3.2.4,0,.2,0,.3-.1.5-.3.2-.7.4-1,.1s-.5-.5-.3-.8.8-.5,1.2-.2h0Z"/>
  <path class="st0" d="M233.1,71.5h0Z"/>
  <path class="st0" d="M263.3,72.2c.2.4-.2.8-.5.9-.4-.1-.9-.2-.9-.7,0-.1.1-.3.2-.4s.2-.2.4-.2.3,0,.5.1c.1.1.2.2.3.3Z"/>
  <path class="st0" d="M265.4,72.1c.1.2.4.5.1.7-.1.1-.3.2-.4.3-.2.1-.4,0-.6,0-.2-.1-.3-.2-.4-.4-.1-.4.3-.6.6-.8.3-.2.5.1.7.2h0Z"/>
  <path class="st0" d="M167.9,72.6c0,.1-.1.2-.2.3-.1.1-.2.2-.3.2s-.2.1-.3.1-.2,0-.3-.1c-.1-.2-.2-.3-.3-.5,0-.1,0-.3.1-.4s.2-.2.3-.3c.2,0,.4.1.6.2.2.2.3.3.4.5Z"/>
  <path class="st0" d="M181.3,73.3c-.1.2-.1.3-.3.4-.1.1-.3.2-.4.3-.2,0-.4-.1-.5-.2s-.3-.2-.4-.4c0-.2,0-.3.1-.5.1-.1.2-.3.4-.3.2-.1.5,0,.7.1.2.2.3.4.4.6Z"/>
  <path class="st0" d="M178.9,73c.1.1.1.2.2.3v.3c-.2.2-.6.6-1,.3-.2-.2-.5-.4-.4-.8.2-.2.4-.4.6-.5.2.1.4.3.6.4h0Z"/>
  <path class="st0" d="M271.5,73.5c0,.2-.1.3-.2.4s-.2.2-.3.3-.3.1-.5,0c-.2,0-.3-.1-.4-.2-.2-.1-.2-.4-.2-.6.2-.3.4-.4.8-.5.3.1.6.3.8.6h0Z"/>
  <path class="st0" d="M274,73.9c0,.2-.1.3-.3.5-.1.1-.3.2-.5.3-.2,0-.7-.1-.6-.5,0-.2.1-.3.2-.4s.2-.2.4-.2.3,0,.5.1c.1-.1.3,0,.3.2Z"/>
  <path class="st0" d="M172.4,74.4c0,.1.1.2,0,.3,0,.1,0,.2-.1.3,0,.1-.1.2-.2.2-.1.1-.2.1-.3.2-.3.2-.6,0-.8-.2-.1-.1-.2-.2-.2-.4v-.4c.1-.4.4-.3.7-.4.2,0,.3.1.4.2.3,0,.4.1.5.2h0Z"/>
  <path class="st0" d="M174.4,74.8c.1.3-.2.4-.3.7-.1.1-.2.1-.3.1s-.3,0-.4-.1c-.3-.2-.6-.6-.3-1,.3-.5,1.1-.2,1.3.3Z"/>
  <path class="st0" d="M269.1,74.6c0,.4-.3.7-.6.9-.2,0-.3,0-.5-.1-.1-.1-.3-.2-.3-.4s0-.3.1-.4.2-.2.3-.3h.5c.3.1.4.2.5.3Z"/>
  <path class="st0" d="M272.4,75.2c-.1.4,0,.8-.4,1-.2.1-.3.1-.5,0-.2,0-.3-.1-.5-.2-.1-.1-.2-.2-.2-.4s0-.3.1-.4c.1-.2.2-.3.4-.4.2-.1.4-.1.6-.1.1.2.2.4.5.5h0Z"/>
  <path class="st0" d="M170.9,76.1c.2.3-.2.4-.3.6-.1.1-.3.1-.4.1s-.3-.1-.4-.1c-.3-.2-.2-.6-.1-.8.3-.8,1.1-.3,1.2.2Z"/>
  <path class="st0" d="M269.9,76.8c.2,0,.1.3,0,.4-.5.3-1.1.4-1.6.4-.6,0-1.1-.2-1.6-.5s-1-.6-1.6-.9c.2-.5.9-.5,1.4-.6,1.2.1,2.1,1.2,3.4,1.2h0Z"/>
  <path class="st0" d="M172.8,76.5c.1.3-.2.4-.2.7-.1.2-.5.2-.7.1-.1,0-.2-.1-.3-.2s-.1-.2-.1-.3v-.3c0-.1.1-.2.2-.3.1-.1.2-.1.3-.1h.3c.1,0,.2.1.3.2.2-.1.2,0,.2.2h0Z"/>
  <path class="st0" d="M176.3,76.7c.1.2,0,.4,0,.5-.1.2-.2.3-.4.4-.3.2-.5-.1-.8-.1-.2-.3-.6-.6-.2-.9.4-.7,1.1-.3,1.4.1Z"/>
  <path class="st0" d="M222.2,78.4c-.1.8-1.4-.1-1.2,1,.1.8.4,1.6.8,2.2.4.5.2,1.4.1,2-.4.6-.9,1-1.5,1.3-1.1-.1-2.8.6-3.3-.8-.3-.6-.5-1.2-.6-1.9.1-.1.3-.1.4-.2,0-.3-.3-.4-.3-.7,1.3-.2-.5-1.4.6-1.4.9.9,2.4.6,3.2,1.7.2.2.4.4.6.5-.2-1-.6-1.9-.8-2.9-.1-.2,0-.5,0-.7.1-.2.2-.4.4-.6.6-.6,1.2.1,1.6.5h0Z"/>
  <path class="st0" d="M179.8,78.1c.1.4-.2.6-.4.8s-.6-.2-.7-.4c-.1-.4.2-.6.4-.8.2,0,.3,0,.4.1.1.1.2.2.3.3Z"/>
  <path class="st0" d="M204.3,78.5c.2.7.3,1.5.2,2.3s-.3,1.5-.7,2.2c0,.3.1.8-.3.8-1.1-1.5-.3-3.5.2-5.1,0-.4.5-.6.6-.2Z"/>
  <path class="st0" d="M238.2,79.3c.3.6.4,1.2.4,1.8s-.1,1.3-.4,1.9l-.3.3c-.5-.9-.8-1.8-.9-2.8.2-.7.4-1.4.5-2.1.6-.1.6.6.7.9Z"/>
  <path class="st0" d="M182.9,79.7c-.2.5-.9.6-1.4.9-1,.7-2.3.9-3.5.7.5-.7,1.2-1.3,2-1.6s1.7-.4,2.6-.2c0,.1.2,0,.3.2h0Z"/>
  <path class="st0" d="M166.6,81.2c1.5,1,1.9,2.5,2.7,3.9.1.2.5.2.3.5-.3.2-.6-.2-1.1-.2-.8-.4-1.4-1-1.8-1.7-.4-.7-.6-1.6-.6-2.4.1-.1.3-.1.5-.1h0Z"/>
  <path class="st0" d="M236.7,82.4c0,.4,0,.8-.4.9h-.3c-.1,0-.2,0-.3-.1-.1,0-.2-.1-.2-.2-.1-.1-.1-.2-.1-.3-.1-.3.1-.4.2-.6.1-.1.2-.1.3-.1h.3c.1,0,.2.1.3.1.1.1.1.2.2.3Z"/>
  <path class="st0" d="M253.4,84.5c.1-.7.1-1.5.3-2.2.1-.3.2-.6.2-.8,1-1.3,2.9-.9,4.4-.8.6.2,1.3.4,2,.4.3-.2.7-.3,1-.2,1.3-.7.4-2.2.5-3.3l-.5-1.2c-.1-.3-.2-.5-.3-.8-.2-.3-.4-.8-.6-1.1-.7-1.8-2-2.8-3.1-4.2-2-2.6-5.2-4.1-8.4-5.1s-6.3.3-9.1,1.3c-.4-.1-.7-.3-1-.6s-.5-.7-.5-1c-.1-1.5.1-2.9.8-4.2.3-.9.6-1.8,1.1-2.7.8-2.2,1.4-4.5,1.6-6.9,0-.7-.2-1.3-.6-1.9-.4-.6-.9-1-1.5-1.3-.4-.1-.8-.2-1.2-.1-.4.1-.7.3-1,.5-.6,1-1.5,1.8-2.6,2.3-.1.7.8.2,1,.5.9.2,1.9-.1,2.6.4-.1,1.5-.7,3-1.7,4.1-1.4,1.9-2.6,4-3.6,6.2l-.2-.2.2,9.8c1.3,2.1,2.9,4.5,5.2,5.3,1.3,1,2.9,2.3,4.6,1.4.9-.3,1,1,1.4,1.5.5,1.5-.6,2.5-.7,3.9l-1,2.2c-1.2,2.3-2.3,4.8-4.1,6.8-.6,0-1,.6-1.5.7-.3.4-1,.1-1.4.3-1.2.5-3,.2-3.8,1.4.1.1.2.2.3.2,2.4,0,5.1.2,7.7.1.2-.1.3-.2.4-.3s.2-.3.2-.5c-.4-.7.1-1.3.4-1.8.3-.8.7-1.7,1.1-2.5.8-1.6,1.8-3.2,2.7-4.9l1.2-2c.3-.8.8-1.5,1.2-2.2.3-.3.5-.7.7-1.1,0-.4-.2-.6-.4-.8.3-.3.7-.2,1.1-.3,1.1.6,1.9,1.5,2.2,2.6l.4,1,.2.5-.1,1.3.2,1.2c.1,1.9,0,3.9-.4,5.8-.7,2.3-3.3,2.1-5.2,2.6-.5.3-1.4.2-1.4,1,2.3.5,5,.2,7.5.2.4-.2.5-.5.7-.9.1-.5.6-1,.4-1.5-.4-.6,0-1.4-.2-2.2.1-.2.1-.5,0-.8.3-1.2.2-2.6.5-3.7l.1-1.4h0Z"/>
  <path class="st0" d="M272.9,83c-1.3,1.8-2.6,3.8-4.8,4.5-.2,0-.3.1-.4-.1,1.3-1.4,2.1-3.7,4.2-4.2.2-.1.3-.2.5-.2.2-.1.4-.1.5,0h0Z"/>
  <path class="st0" d="M164.6,84.9c-.2.2,0,.5-.4.6-.2.1-.3.1-.5,0s-.3-.2-.3-.4v-.3c0-.1,0-.2.1-.3,0-.1.1-.2.2-.2.1-.1.2-.1.3-.1.3.2.6.3.6.7h0Z"/>
  <path class="st0" d="M176.1,85.5c.1.4-.3.4-.5.4-.8.3-1.6.3-2.5.1-.8-.2-1.5-.6-2.1-1.3,0-.2,0-.3.2-.4,1.6.5,3.5.2,4.9,1.2h0Z"/>
  <path class="st0" d="M166.8,85c.1.2.1.4.1.6-.1.2-.3.3-.4.3-.2.1-.4.1-.6,0-.2-.1-.4-.3-.5-.5,0-.2.1-.3.2-.5.1-.1.3-.2.4-.3.4.1.6.2.8.4h0Z"/>
  <path class="st0" d="M204,85.2c.1.4-.2.6-.5.8h-.5c-.2-.1-.3-.2-.4-.3-.1-.1-.1-.3,0-.4s.2-.3.3-.3c.4-.2,1-.2,1.1.2h0Z"/>
  <path class="st0" d="M274.5,85.3c.1.4-.2.6-.5.8h-.4c-.1,0-.3-.1-.4-.1,0-.2-.3-.4-.2-.6.1-.2.2-.3.4-.4s.4-.1.5-.1c.2.1.4.3.6.4Z"/>
  <path class="st0" d="M277.1,85.2c.2.4,0,.6-.2.9-.1.1-.2.2-.3.3h-.4c-.2-.2-.5-.4-.6-.7,0-.4.4-.6.6-.7.4-.2.6.2.9.2Z"/>
  <path class="st0" d="M163,86.3c0,.3-.2.4-.3.7-.2.1-.4.2-.6.2-.3-.1-.5-.4-.6-.6,0-.2,0-.4.1-.6s.3-.3.5-.3.4,0,.6.2c.2,0,.3.2.3.4Z"/>
  <path class="st0" d="M246.5,86.3v.5c-.2.3-.5.6-.9.4-.2-.2-.5-.5-.4-.8.1-.1.2-.2.3-.3s.2-.1.4-.1c.1,0,.3,0,.4.1,0,0,.1.1.2.2h0Z"/>
  <path class="st0" d="M169.4,86.9c-.1.3-.2.6-.6.6s-.5-.3-.7-.4c0-.4,0-.7.3-.9h.3c.1,0,.2.1.3.2s.2.2.2.3c.2,0,.2.1.2.2Z"/>
  <path class="st0" d="M165.6,87c0,.2,0,.3-.1.5s-.2.3-.3.4c-.2,0-.4,0-.6-.1-.2-.1-.3-.3-.4-.5,0-.2.1-.4.2-.6.1-.2.3-.3.5-.4.3.1.5.5.7.7h0Z"/>
  <path class="st0" d="M249.1,86.9c.1.2.1.4,0,.6s-.2.3-.4.4c-.5.2-.9-.2-1.1-.6.2-.3.2-.8.7-.8.2,0,.3,0,.5.1.1.1.3.2.3.3h0Z"/>
  <path class="st0" d="M167.4,87.1c.1.3-.1.4-.2.6-.2,0-.3.2-.6.2-.2-.1-.5-.3-.5-.6s.2-.6.5-.8c.2,0,.3,0,.5.1.2.2.3.3.3.5Z"/>
  <path class="st0" d="M272.3,87.4c-.1.1-.2.3-.3.4-.1.1-.3.2-.4.3-.3.1-.5-.2-.8-.3-.2-.1-.1-.5,0-.7.1-.1.2-.3.4-.3.2-.1.3-.1.5,0,.2,0,.3.1.4.3.1,0,.2.1.2.3h0Z"/>
  <path class="st0" d="M275.3,87.6c-.1.2-.2.4-.4.5s-.4.2-.6.2c-.4-.2-.8-.4-.5-.9.2-.2.2-.3.5-.4h.3c.1,0,.2.1.3.1.1.1.2.1.2.2.1.1.2.2.2.3Z"/>
  <path class="st0" d="M256.4,87.8c.2.5-.3.7-.6.9-.3,0-.5-.2-.8-.3,0-.2,0-.4.1-.6s.3-.3.5-.4c.2,0,.3,0,.4.1.2.1.3.3.4.3h0Z"/>
  <path class="st0" d="M245.5,88.3c.2.1.1.4.1.5-.2.2-.6.6-.9.3-.1-.1-.3-.2-.3-.3s-.1-.3-.1-.5c.1-.1.2-.2.3-.2.1-.1.2-.1.3-.1s.2,0,.3.1c.2.1.3.2.3.2h0Z"/>
  <path class="st0" d="M247.8,88.6v.4c-.1.1-.2.2-.3.3-.3.3-.6,0-.9-.1,0-.1-.1-.2-.1-.3s0-.2.1-.3c.1-.2.3-.3.5-.3.3,0,.6,0,.7.3h0Z"/>
  <path class="st0" d="M180.4,88.6c.2.2,0,.5-.1.8-.1.1-.3.3-.5.3s-.4,0-.5-.1c-.4-.2-.4-.7-.3-1,.2-.1.2-.4.6-.4.3.1.6.2.8.4h0Z"/>
  <path class="st0" d="M260.7,88.8c.1.4-.3.6-.6.6-.5.2-.7-.2-.9-.5,0-.2.2-.4.3-.6.5-.2.9.2,1.2.5Z"/>
  <path class="st0" d="M258.5,88.8c.2.4-.3.6-.4.8-.1.1-.3.1-.5.1s-.3-.1-.4-.2c-.2-.1-.2-.4-.2-.6.2-.2.4-.4.6-.5.2,0,.3,0,.5.1.2,0,.3.2.4.3Z"/>
  <path class="st0" d="M276.4,89.3c.1.6-.6.3-.9.4-1.7,1-3.8.2-5.4-.4.1-.5.7-.3,1-.5,1.7-1.1,3.4.2,5.2.3l.1.2h0Z"/>
  <path class="st0" d="M167.9,88.8l-.2.3c-.7.5-1.6.8-2.5,1s-1.8.1-2.7-.1l-.2-.2c1.6-1,3.5-1.4,5.3-1.1l.3.1h0Z"/>
  <path class="st0" d="M264.7,89.1c0,.1,0,.3-.1.4s-.2.2-.3.3c-.2.1-.4.1-.6,0s-.3-.2-.4-.4c-.1-.3.2-.6.5-.8.4-.1.8,0,.9.5h0Z"/>
  <path class="st0" d="M175,89.2c-.2.3-.1.6-.5.8-.2,0-.4,0-.6-.1-.2-.1-.3-.3-.4-.4-.1-.4.2-.6.4-.8.5-.2.8.2,1.1.5h0Z"/>
  <path class="st0" d="M172.2,89.4c.1.3-.1.4-.2.6-.1.1-.2.2-.4.2-.1,0-.3,0-.4-.1-.2-.1-.3-.2-.4-.4-.1-.2-.1-.4-.1-.6.2-.2.4-.3.6-.4.4.1.8.3.9.7h0Z"/>
  <path class="st0" d="M267.5,90.4c0,.2-.1.3-.2.5-.1.1-.3.2-.4.3-.1,0-.3,0-.4-.1s-.2-.2-.3-.3-.1-.3-.1-.4.1-.3.2-.4.4-.1.5-.2c.2,0,.3.1.5.2.1,0,.2.2.2.4h0Z"/>
  <path class="st0" d="M169.2,89.9c.1.3-.2.4-.2.7-.2.6-.5,1.2-.9,1.7-.8.9-1.8.9-2.9,1.2l-.2-.3c1-1.4,2.4-2.6,4-3.3h.2,0Z"/>
  <path class="st0" d="M265.5,90.8c.1.5-.3.6-.6.8-.2,0-.3,0-.5-.1-.1-.1-.3-.2-.3-.4-.1-.4.3-.6.5-.8.2,0,.4,0,.5.1.2.1.4.2.4.4Z"/>
  <path class="st0" d="M173.8,90.8c0,.1,0,.2.1.2,0,.4-.4.6-.6.8-.2,0-.3,0-.5-.1s-.3-.2-.4-.3c0-.1-.1-.2-.1-.3s0-.2.1-.3c0-.1.1-.2.2-.2s.2-.1.2-.1c.4-.1.9-.1,1,.3Z"/>
  <path class="st0" d="M272.8,92c.4,0,.5-.5.9-.6.2,0,.4,0,.5.1.2.1.3.2.4.4.2.5-.2.7-.5.9s-.9-.2-.8.3c.1.1.3.2.4.3.1.1.2.3.2.5-.1.2-.4.1-.5,0-1.2-.4-2.3-1.3-2.9-2.5-.2-.4-.9-.6-.5-1,.5,0,1.1.2,1.5.5.6.2,1,.6,1.3,1.1h0Z"/>
  <path class="st0" d="M276.6,90.8c.1.1.1.2.1.4s0,.3-.1.4c-.2.4-.8.2-1.1.2-.2-.2-.4-.4-.3-.7.1-.2.4-.4.6-.5h.5c.1,0,.2,0,.3.2h0Z"/>
  <path class="st0" d="M262.2,92.9c.4.5.7,1,.9,1.6-.1.1-.3.1-.3.1-1.4-.8-3.1-1.6-3.6-3.2-.1-.2-.4-.4-.4-.6,1-.2,2,.6,2.7,1.1.3.4.6.6.7,1h0Z"/>
  <path class="st0" d="M171.6,91.4c.2.4-.2.6-.4.8h-.5c-.2-.1-.3-.2-.4-.3-.3-.4.2-.8.6-1s.5.3.7.5h0Z"/>
  <path class="st0" d="M267.2,92.3c0,.2-.3.4-.4.6-.3,0-.6.2-.9-.1-.1-.2-.3-.5,0-.7.4-.6,1.1-.2,1.3.2h0Z"/>
  <path class="st0" d="M277.1,92.9c0,.2,0,.4-.1.6s-.3.3-.4.4c-.4.1-.7-.2-1-.4s0-.5,0-.8c.1-.1.3-.2.5-.3h.5c.1.2.3.3.5.5h0Z"/>
  <path class="st0" d="M249.6,98.4c0,.5-.9.4-1.2.7-1.3.5-2.8.8-4.2.6v-.2c.7-.6,1.6-1,2.6-1.2.9-.2,1.9-.2,2.8.1h0Z"/>
  <path class="st0" d="M191.8,100.1c0,.2,0,.3-.1.4s-.2.2-.4.2-.3,0-.4-.1c-.1-.1-.2-.2-.3-.3-.2-.5.2-.7.5-.9.2,0,.3.1.5.2,0,.2.1.3.2.5Z"/>
  <path class="st0" d="M248.9,100.5c0,.2,0,.4-.1.5-.1.2-.2.3-.4.4s-.4.1-.5,0c-.2,0-.3-.2-.4-.3-.2-.2-.1-.4-.1-.6.1-.2.2-.3.3-.4s.3-.1.5-.1.3.1.5.1c.1.2.2.3.2.4Z"/>
  <path class="st0" d="M256.8,100.7c-1,.8-2.2,1.3-3.4,1.4h-2.1l-.2-.2c1.3-1.6,3.7-1.6,5.8-1.4v.2h-.1Z"/>
  <path class="st0" d="M180.9,101.6c0,.2,0,.3-.1.5-.1.1-.2.2-.4.3-.2.1-.4,0-.5,0-.2-.1-.3-.2-.3-.4-.1-.2-.1-.3,0-.5s.2-.3.4-.4c.3-.3.7.2.9.5h0Z"/>
  <path class="st0" d="M182.9,102.1c.1.2-.1.3-.2.5-.1.1-.2.1-.4.1s-.3,0-.4-.1c-.1,0-.1-.1-.2-.1,0,0-.1-.1-.1-.2v-.2c0-.07.03-.13.1-.2.1-.2.4-.2.5-.4.3.1.5.3.7.6h0Z"/>
  <path class="st0" d="M167.7,106.1c-.4.5-1-.1-1.5-.4-1.4-.8-1.4-2.4-2.7-3.3.1-.5.5,0,.8,0,.3.2.5.3.8.4,1.3.9,1.7,2.1,2.6,3.3h0Z"/>
  <path class="st0" d="M283.3,90.6c-.3-.5-.7-1-1.3-1.3-.5-.3-1.1-.4-1.7-.4-.5.1-.9.2-1.3.5s-.7.7-.9,1.1c-.1.4-.1.8,0,1.2s.4.7.7,1c.1.1.3.1.4.1s.3-.1.4-.3c.2-.5-.4-.5-.4-.9-.1-.2-.1-.5,0-.8.1-.2.2-.5.4-.6.4-.4,1.1-.2,1.6-.2.5.2.9.6,1.2,1.1.2.7.2,1.4,0,2.1-.2.5-.6.9-1,1.3-.4.3-.9.6-1.5.7-3.3.5-39.4.3-39.4.3-4.2.4-9.1-.8-12.7,1.4-1.7.8-2.5,2.6-2.9,4.3-1.1,1-2.1,2-3.1,3.2l-.1-.1c.2-1,.6-1.8.8-2.8.6-.8.6-1.9,1-2.8,1.5-2.4,2.9-4.9,5.3-6.6,1-1.3,2.7-1.1,4.2-1.1,1.7.8,3.6,1,5.5.8l.1-.1v-.2c-.6-.5-1.5-.7-2.1-1.2-1.6-.8-3.1.2-4.8.1-.1-.1-.2-.1-.1-.2,1.5-1.1,3.2-1.9,4.9-2.6,1.4-.7,2.8-1.2,4.3-1.7.6,0,1.2-.5,1.7-.2l2.1-.6c.1,0,.2.2.3.1,1.8-.6,4,0,6.1-.1l.3.2,1.9.5c.7.1,1,.9,1.8,1,.4-.6-.4-.8-.6-1.2.9-.1,1.8,0,2.7.4l-.4.4c-.2.4.1.8.5.9s.5-.1.7-.2c.5-.4,0-.7.1-1,2.9.5,5.7,1.3,8.5,2.4.7.4,1.5.6,2.3.8-.9-.7-1.9-1.2-3-1.6-.7-.4-1.6-.4-2.1-1,.1-.2.4-.1.5-.3,1.4-.3,2.6-1.1,3.4-2.2.1-.2.5-.2.5-.5-.3-.4-1,.1-1.4.1-1.7.3-2.4,2.3-4,2.6-2-.5-4.1-1-6.1-1.5-1-.1-2-.3-3-.6l-2.2-.2h-4c0-.1-.2-.1-.1-.2,1.4-.4,2.7-1.2,4.1-1.6l10.6-5c1.1-1,2.1-2.1,3-3.3,0-.2,0-.3-.1-.5-.1-.1-.2-.2-.3-.3s-.3-.1-.4-.1-.3.1-.4.2c-.5.4,0,.8,0,1.2-.5.7-1.1,1.2-1.8,1.6-.2,0-11,4.9-11,4.9-1.6.7-3.2,1.3-4.8,1.8l-2.3.4c-.1.2-.2.4-.4.6s-.4.3-.6.3c-.6.2-1.2.4-1.8.5-5.1,2-10.5,4.1-14.6,8.2.2-.5.4-1.1.4-1.7s-.1-1.2-.4-1.8c-.1-.2-.4-.9-.3-1.1l-.6.4c-.5,1.1-.6,2.3-.3,3.4.1.7.7,1.6.2,2.2-1.9,2.3-3,5.1-4.2,7.8-.5-.1-.7-.5-.9-1,1.4-1.7,2.4-3.7,2.8-5.8.3-.2.1-.7.4-1-.1-.6.4-1.3,0-1.8.2-.9-1.2-1.7-.3-2.2l-.7.4c-1.7,2.2.9,5.6-1.1,7.7v.2c-.4.7-.9,1.4-1.6,1.9-1-.4-1.3-1.5-1.9-2.3-.4-.5-.6-1.2-.7-1.8-.1-.7.1-1.3.4-1.9.4-1.2-.2-2.2-.4-3.2l-.4-.2c-.5.7-.8,1.4-.9,2.3-.1.8,0,1.7.4,2.4s.4,1.7,1,2.3c.4,1.1,1,2.1,1.7,3,.2.4-.2.5-.4.7-.4-.3-.4-.9-.8-1.2-1.3-2.7-3-5.1-5.1-7.3-.1-.4-.4-.7-.2-1.1.4-.4.6-.9.7-1.4.1-.5,0-1.1-.2-1.6-.1-.2-.3-.4-.3-.6l-.6-.5c.1,1.4-.8,2.6-.4,4.1v.1c-4.1-3.1-8.5-5.8-13.2-8l-.4,1c1.5.6,2.9,1.3,4.2,2.2,1.4.6,2.7,1.3,4,2.1,5.4,3,9,8,11.4,13.5,0,.4.4.9.2,1.4-.9-1.1-1.9-2.1-3-3-.1-.9-.4-1.8-1-2.6-.5-.8-1.2-1.4-2-1.8-.6-.9-1.9-1-2.9-1.2l-14.4-.1c-11.7-.2-22.4.4-34.1.2-1.6-.2-3.6-.7-4.1-2.4-.2-.3-.2-.7-.2-1.1s.1-.8.2-1.1c.2-.3.5-.6.9-.8s.7-.3,1.1-.3c.3.1.6.2.8.4s.4.4.6.7c0,.5-.4,1-.6,1.4,0,.2.2.5.5.4s.5-.3.6-.5c.2-.2.3-.5.4-.8,0-.3.2-.7-.1-.9-.1-.4-.4-.8-.7-1.1s-.7-.5-1.1-.6c-.5-.1-1,0-1.5.2s-.9.4-1.2.8c-.9.8-.9,2.2-.6,3.4.4.9,1,1.6,1.7,2.2.8.6,1.6.9,2.6,1l38.6.2c3.8.2,8-.4,11.8.3.7.2,1.4.6,2,1.1s1,1.2,1.2,1.9c0,.1-.2,0-.3,0-3.4-2-7.4-2.8-11.3-2.2-1.5.1-3,.4-4.4.9-.3.1-.7,0-1-.1s-.6-.3-.9-.5c-1.4-1.3-3.9-1.2-5.8-.7v.3c1.9-.2,3.1,1.5,4.8,1.7.4.1.7-.4,1.1,0-1.8,1-3.6,1.8-5.5,2.5-.6-.1-.9-.7-1.4-1-.8-.8-2.2-.5-3.2-.6-.3.1-.7-.2-.9,0,.4.6,1,1.1,1.7,1.3,1,.4,2.1,0,3.1.6-.3.2-.5.4-.8.6-1.9.7-3.4,2.4-5.5,2.3-1.1.1-2.1,0-3.2-.3-1-.3-1.9-.9-2.7-1.6-.3-.8-.9-1.4-1.6-1.8-.7-.4-1.5-.6-2.4-.5-.1.1-.3.1-.2.3.9.5,1.5,1.6,2.4,2.2.6.7,1.6,0,2.1.8.8.5,1.7.9,2.6,1.1.7.3,1.4.4,2.1.6l-.3.2c-3.6,1.2-7.8,1.3-11.8,1.2-1.2,0-2.3-.4-3.5-.4.3.3.6.5,1,.6-.3.2-.7.3-1.1.3-.5.1-1,.2-1.5.4-.6,0-1.2.1-1.7.4-.6.7-1.4,1.4-2.3,1.8,0,.2,0,.4.2.4.8-.3,1.7-.1,2.5-.4,1.3-.1,2.1-1.6,3.1-2.2,1.1-.9,2.7-.7,4.1-.5.8.2-.1.5.2,1,.3.3.6.6,1,.5.1-.1.2-.2.3-.2.1-.1.1-.3.1-.5s-.1-.4-.1-.5c.6-.4,1.3,0,1.9-.2,1.5,0,3-.4,4.5-.4.2,0,.5-.3.8,0-.1.3-.5.4-.4.8.2.4.5.5.8.6.4-.2.8-.4.6-1-.1-.3-.4-.3-.6-.4.8-.4,1.8-.5,2.6-.9.6-.1,1.1-.3,1.7-.6.5,0,1-.5,1.4-.3-.2.7-.5,1.3-.8,1.9-.6,2.1-1.1,4.9,0,7,.1,0,.2,0,.2-.1-.8-2.1-.4-4.6.3-6.6.6-3.4,4.1-4.4,6.6-5.7l.1.2c-.7,1.8-1.7,3.4-1.5,5.5.1.4-.2.7,0,1,.7-.5,1.2-1.1,1.5-1.8.3-1.8-.8-4,1.1-5.3,3.2-1.3,6.3-3,10.1-3,.1.1.4-.1.4.1-.8.9-1.9,1.7-2.3,2.8-1.3,1.8-1.2,4.8-.7,6.9.4,1.2-.7,1.9-1.2,2.9-.2.3-.3.9-.6,1.3l.8.1c.8-.7,1.2-1.6,1.4-2.6,0,.2.1.4.3.5.1.1.3.2.5.3.3-.4-.2-.8-.3-1.2.6-.4.9.4,1.4.6.8.3,1.6.5,2.4.6l.3-.3c-.9-1.4-2.6-1.6-4.1-1.7-.7-1.4-.9-3-.7-4.5.1-.9.4-1.7.8-2.5.3-.6.7-1.1,1.1-1.5.7-.7,1.6-1.1,2.5-1.4h.1v.1c-1.1.8-1.2,2-1.8,3-.4.5-.6,1.1-.7,1.7-.1.6,0,1.2.3,1.8.2.5.1,1.3.7,1.7.4-.8.7-1.6.8-2.4-.1-1.3-.9-2.6-.2-3.8.2-.4.5-.8.9-1.1.4-.3.8-.5,1.3-.6,2.2-.2,4.1.9,6,1.8.4.3,1.1.5,1.2,1.1,0,.5-.2,1-.4,1.5-.3.5-.6.9-1.1,1.2-.5.3-1.2.5-1.8.5s-1.3-.2-1.8-.5c-.3-.3-.5-.7-.6-1.1s-.1-.9,0-1.3c.2-.3.5-.5.8-.6s.7-.1,1,0c.4.2.8.6,1.3.4.1-.1.2-.2.2-.3v-.4c-.4-.2-.6-.8-1.2-.9-.4-.1-.8-.1-1.1,0-.4.1-.7.2-1,.5-.4.3-.7.8-.9,1.3s-.2,1-.1,1.5c.1.6.4,1.2.9,1.6.4.5,1,.8,1.6.9.9.2,1.8.2,2.7-.1.9-.3,1.6-.9,2.2-1.6.4-.5.7-1.1.9-1.7,1.9,1.3,3.3,3.1,4.1,5.3.1.7.1,1.3,0,2l1.4.1c-.1-.3-.1-.7.1-1,.6-2.6,2.2-4.9,4.3-6.6.7-.4.5.5.7.8.3.7.8,1.4,1.4,1.9.6.5,1.3.9,2.1,1.1s1.6.1,2.3-.1c.8-.2,1.4-.7,1.9-1.3.5-1,1.1-2.4.3-3.4-.3-.3-.6-.6-1-.8-.4-.2-.8-.3-1.2-.2-.5,0-.9.2-1.3.5-.4.3-.7.6-.9,1,0,.3,0,.7.2.8.2,0,.5,0,.6-.2.1-.6.6-.9,1.1-1.2.2-.1.4-.1.7-.1.2,0,.4.1.6.3.2.2.3.5.4.7.1.3.1.6.1.8,0,.4-.2.8-.4,1.1-.2.3-.5.6-.9.8-.6.3-1.3.4-2,.3s-1.3-.3-1.9-.7c-.4-.5-.8-1.1-1.1-1.8-.2-.6-.2-1.2,0-1.8,1.7-1.1,3.7-1.8,5.7-2,.8.2,1.6.7,2.1,1.3,1.8,1.9-.4,4.6.9,6.6.5-.1.5-.7.7-1.1.6-1.4-.2-3-.5-4.4-.4-.9-.9-1.7-1.5-2.4.2-.1.3-.1.5-.1.9.6,1.8,1.3,2.4,2.1,1.2,2,1.7,4.3,1.6,6.6-.3,1.2-1.6,1.8-2.6,2.2-.5.3-.8.8-1.1,1.2.5.3,1.2,0,1.6-.2.8-.3,1.2-1.2,1.7-1.7.1,0,0,.2.1.2,0,.4-.2,1,.2,1.2.2-.7.3-1.3.4-2,.4.6.7,1.3.8,2,.4.7.9,1.7,1.9,1.8.2-.4,0-.7-.1-1-.1-1-1-1.5-1.5-2.2-1.4-1.9-.8-4.9-1.8-7.1-.5-1.1-1.2-2.2-2.1-3l.2-.2c1.8.1,3.6.5,5.4,1,2.2,1.1,5.4.8,6.4,3.7.4,1.6,1.2,3.1,2.3,4.3l.1-.1c.1-.2.2-.5.2-.7s-.1-.5-.2-.7c-.2-2-2-2.5-2.9-4.2l.1-.2c1,.3,2,.6,2.9.9,1.6.5,2.9,1.5,4,2.8,1,1.3,1.7,2.8,1.8,4.5,0,2.4-.5,4.7-1.5,6.8-.1.3-.7.7-.3,1,.4-.3.5-.8.8-1.2,1.4-2.4,1.9-5.3,1.3-8,0-.5-.6-.9-.4-1.4.2.2.4.3.7.4.2-.2.6-.2.8-.4.2-.3.2-.5,0-.7-.1-.1-.3-.3-.5-.3h-.6c-.2.2-.4.5-.5.9-.4-.8-.8-1.5-1.4-2.1l.1-.1c1.8.6,3.4,1.5,5.2,2,.4.3.9.4,1.4.4,1.6.5,3.3.9,4.9,1.1,1.2-.1,2.2.4,3.4.2v-.1c-.4-.6-1.4,0-1.9-.4-2.7-.3-5.3-1-7.8-1.9,0-.1.2-.1.3-.1.2-.1.4-.2.5-.4.1-.2.2-.4.2-.6-.1-.1-.2-.3-.4-.3-.2-.1-.3-.1-.5-.1-.1.1-.3.2-.4.3-.1.1-.2.3-.2.4,0,.2.1.3.2.5.1.1.2.2.4.3-.1.1-.2,0-.4,0-1.2-.6-2.4-1.1-3.6-1.6-.4-.1-.8-.4-1.2-.5-.9-.4-1.8-.9-2.7-1.2-2.6-1.2-5.3-2.2-8.1-3l-1.7-.5c-1-.3-2-.5-3-.8-3.4-.8-7.9-.9-10.8.9-.5-.2-.8.6-1,.1.8-2.2,3.3-2.9,5.4-3,15.9-.2,30.8-.3,46.5-.5.9.1,1.8-.1,2.6-.5.8-.4,1.5-1,2-1.8.3-.5.5-1.2.6-1.8s-.1-1.3-.3-1.9l-1.7-.5h0ZM220.2,105.3c-.2.4-.4.9-.4,1.4l-.2.1c.1-.6-.5-1-.3-1.6-.3-.5-.3-1.1-.6-1.6s.3-.9.6-1.4c.6.2.8.8,1.1,1.2.3.8-.2,1.3-.2,1.9h0Z"/>
  <path class="st0" d="M263.3,102.8c0,.1.2.2.2.4-1.5,1.2-3.4,1.7-5.3,1.7-.2,0-.3.2-.5.1s-.2-.2-.1-.3c.7-.8,1.6-1.4,2.6-1.7.9-.3,2-.4,3.1-.2h0Z"/>
  <path class="st0" d="M256.9,103.5c.2.6-.2.9-.6,1.1-.2,0-.4-.1-.5-.2-.2-.1-.3-.3-.4-.4-.1-.3.2-.5.3-.7.1-.1.2-.2.3-.2h.4c.1,0,.2.1.3.2.1-.1.1,0,.2.2Z"/>
  <path class="st0" d="M181.5,103.5c0,.1.1.3,0,.4,0,.1-.1.3-.2.4-.1.1-.2.2-.3.2h-.4c-.3,0-.4-.4-.5-.6,0-.2.1-.3.1-.5.1-.1.2-.2.4-.3.3.1.6.1.9.4Z"/>
  <path class="st0" d="M174.4,106.1v.3c-.4.1-.9.1-1.4,0-.4-.1-.9-.3-1.2-.6-.5-.9-1.2-1.5-2.1-2,0-.1-.2-.3,0-.4,2,.1,3.2,1.7,4.7,2.7Z"/>
  <path class="st0" d="M269.3,103.5c-.9,1.4-1.7,3-3.3,3.6-.3,0-.5.4-.8.1.7-1.7,1.9-3,3.5-3.8.2,0,.4,0,.6.1h0Z"/>
  <path class="st0" d="M183.8,104c0,.4-.3.5-.5.8-.3,0-.5-.2-.7-.4-.2-.4.2-.6.4-.8.2,0,.3,0,.5.1.1,0,.2.1.3.3Z"/>
  <path class="st0" d="M274.3,104.2c-.4.5-.2,1.3-.6,1.8-.8.9-1.5,2-2.7,2.1-.2-.4.3-.8.5-1.2.5-1.3,1.4-2.4,2.6-3.1,0,0,.2.4.2.4Z"/>
  <path class="st0" d="M162.1,104.6c.1.1.1.3.1.4,0,.2,0,.3-.1.4s-.3.2-.4.2h-.5c-.2-.1-.3-.3-.4-.4-.1-.2,0-.4,0-.6.3-.3,1-.5,1.3,0h0Z"/>
  <path class="st0" d="M159.8,105.1c0,.2.2.4.1.6-.1.1-.1.2-.2.3-.1.1-.2.1-.3.2-.2,0-.4,0-.5-.1-.2-.1-.3-.2-.4-.4,0-.2,0-.3.1-.5s.2-.3.3-.4c.2-.1.4-.1.6,0,.1,0,.3.1.3.3h0Z"/>
  <path class="st0" d="M164.5,105.3c.1.3.1.9-.3,1-.6.2-.9-.2-1.2-.5,0-.2,0-.3.1-.5.1-.1.2-.3.4-.3h.5c.2.1.3.2.5.3h0Z"/>
  <path class="st0" d="M171,105.8c0,.3,0,.7-.3.8-.3.1-.6.1-.8.1-.1-.2-.5-.4-.3-.7.1-.2.3-.3.6-.4.3,0,.6-.1.8.2Z"/>
  <path class="st0" d="M278.1,106.1c-.1.3-.3.6-.6.6-.2,0-.4,0-.5-.1-.2-.1-.3-.2-.4-.3-.2-.4.2-.7.5-.8.3-.1.9.2,1,.6h0Z"/>
  <path class="st0" d="M270.8,106.3c0,.3-.3.6-.5.7s-.5.1-.7-.1c-.2-.1-.4-.3-.5-.5,0-.2.1-.3.2-.5.1-.1.3-.2.4-.3.2,0,.4,0,.6.2.3.1.4.3.5.5h0Z"/>
  <path class="st0" d="M275.8,106.2c0,.1,0,.3-.1.4s-.2.2-.3.3c-.2.1-.3.1-.5.1s-.3-.1-.5-.2c-.4-.3-.1-.6.2-.8.2-.3,1-.3,1.2.2h0Z"/>
  <path class="st0" d="M161,106.9c.1.2,0,.4-.1.6s-.2.3-.4.4c-.2,0-.4,0-.5-.1-.2-.1-.3-.2-.3-.4s0-.3.1-.5.2-.3.3-.3h.6c.1,0,.3.1.3.3h0Z"/>
  <path class="st0" d="M268.9,107.3c0,.2,0,.4-.1.6s-.3.3-.5.4h-.4c-.1,0-.2-.1-.3-.2-.2-.2-.4-.6,0-.8.1-.1.2-.2.3-.3.1-.1.3-.1.4-.1s.3.1.4.1c0,.1.1.2.2.3h0Z"/>
  <path class="st0" d="M182.4,107.8c.2.4-.3.5-.4.8-.2.1-.5.1-.6,0s-.4-.5-.3-.8c.2-.2.3-.3.5-.4.4-.2.6.2.8.4h0Z"/>
  <path class="st0" d="M277.4,108.1c.1.3-.1.4-.2.6-.1.1-.3.2-.4.2h-.5c-.4-.2-.4-.5-.4-.9.2-.2.3-.4.6-.4.2,0,.4,0,.5.1.2,0,.3.2.4.4Z"/>
  <path class="st0" d="M274.9,108.2c.1.5-.3.7-.6.8-.2,0-.4-.1-.4.2.9.6,1.8,1.3,2.5,2.1v.3c-.7,0-1.5-.1-2.2-.3-.7-.3-1.3-.7-1.8-1.2-.3-.2-.8-.2-1.1-.5.5-.5,1.5-.3,2.2-.4.5-.6-.6-1,.1-1.4.2,0,.4-.3.7-.2.3.1.5.3.6.6h0Z"/>
  <path class="st0" d="M258.7,108.2c.1.2-.2.4-.2.6-.1.1-.3.2-.4.2-.2,0-.3,0-.5-.1-.2-.3-.5-.5-.4-.9.1-.1.2-.2.3-.3.1-.1.3-.1.4-.1.2,0,.3.1.4.2.2.1.3.3.4.4h0Z"/>
  <path class="st0" d="M170,109.6c-.1.4-.3.6-.7.6-.2,0-.3,0-.4-.1-.1-.1-.2-.2-.3-.3,0-.3.2-.4.2-.6.5-.4,1.2-.2,1.2.4Z"/>
  <path class="st0" d="M173.2,109.1c0,.6-.6.9-.8,1.4-.2.7-.7,1.3-1.2,1.8-.6.5-1.2.8-1.9.9-.2-.4.5-.8.7-1.2.6-1.4,1.9-2.1,3.1-2.9h.1,0Z"/>
  <path class="st0" d="M257.8,109.6c0,.4-.4.8-.7.9-.3.2-.6-.2-.8-.3-.3-.3-.1-.6,0-1,.4-.5,1.1-.1,1.5.4h0Z"/>
  <path class="st0" d="M260.2,109.9c0,.2-.1.4-.2.6s-.3.3-.5.3c-.1-.1-.3,0-.4-.1s-.3-.2-.4-.3c-.1-.1-.1-.3-.2-.4.2-.2.3-.5.6-.6s1,.1,1.1.5Z"/>
  <path class="st0" d="M179.4,109.9c0,.2-.1.4-.2.5s-.3.3-.4.3c-.2,0-.3,0-.5-.1-.1-.1-.2-.2-.3-.4-.1-.4.3-.6.5-.8.5-.1.6.3.9.5Z"/>
  <path class="st0" d="M182.1,110.1c-.1.2-.2.3-.3.4s-.3.2-.5.2c-.3-.1-.6-.2-.7-.5-.1-.3.3-.6.6-.8.2,0,.4,0,.6.1.1.2.3.4.3.6h0Z"/>
  <path class="st0" d="M268.7,112.9c.2.2.6.4.5.6-.6.3-1.1-.4-1.7-.6-.9-.9-1.6-2-2.1-3.2.4-.4.8.1,1.1.2,1,.8,1.7,1.8,2.2,3Z"/>
  <path class="st0" d="M270.2,110.1c.1.1.1.3.1.4,0,.2-.1.3-.1.4-.2.4-.8.3-1.1.2-.2-.2-.6-.6-.3-.9.2-.4.5-.4.8-.5s.3.2.6.4Z"/>
  <path class="st0" d="M185.8,111.1c0,.3.1.8-.3,1-.1,0-.2.1-.3,0-.1,0-.2,0-.3-.1s-.2-.1-.2-.2c-.1-.1-.1-.2-.2-.3-.2-.5.2-.6.5-.8.3,0,.5.2.8.4h0Z"/>
  <path class="st0" d="M260.1,113.7c.6.8.9,1.8,1,2.8-.1.3.2.6,0,.8h-.2c-1.8-1.3-2.2-3.1-2.9-4.9-.1,0-.1-.1-.2-.2v-.2c.4-.4.7.4,1.1.5l1.2,1.2h0Z"/>
  <path class="st0" d="M190.9,112.3h0c-1.6,1.2-3.8,1.9-5.6.8v-.2c0-.1.1-.1.2-.1,1.1-.5,2.3-.8,3.5-.8l1.9.3h0Z"/>
  <path class="st0" d="M181.9,112.5c-1.4.8-2.6,2.5-4.2,2.9-.3.1-.5.6-.9.3.7-2.2,3.1-3.3,5.2-3.5v.3s-.1,0-.1,0Z"/>
  <path class="st0" d="M257.8,114.3c.1.3,0,.8-.3.8-.1.1-.2.2-.4.2s-.3-.1-.4-.2c-.4-.2-.4-.5-.4-.8s.4-.3.6-.4c.4.1.6.1.9.4h0Z"/>
  <path class="st0" d="M254.5,114.5c-.2.3-.4.5-.6.6s-.5.3-.8.4c-1.4.5-2.6-.2-3.8-.5,0-.3.4-.2.6-.4,1.3-.4,2.7-.4,4-.2.1-.1.2-.1.3-.1.07.07.17.13.3.2h0Z"/>
  <path class="st0" d="M181.9,115.7c-.1.2-.2.5-.5.6-.1,0-.3.1-.4,0-.1,0-.3-.1-.4-.2-.1-.2-.4-.4-.2-.7.2-.3.4-.3.6-.4.2,0,.4.1.5.2.2.1.3.3.4.5h0Z"/>
  <path class="st0" d="M184.2,116c-.1.3-.3.6-.6.8h-.4c-.1,0-.3-.1-.4-.2-.1-.1-.1-.2-.2-.4v-.4c.1-.2.4-.2.6-.4.5,0,.8.3,1,.6h0Z"/>
  <path class="st0" d="M257,116.4c0,.3-.1.6-.3.8-.1.1-.2.2-.4.2s-.3,0-.5-.1c-.3,0-.4-.4-.5-.6s.2-.5.3-.8c.1-.1.2-.1.4-.2h.4c.1,0,.3.1.4.2.1.3.2.4.2.5h0Z"/>
  <path class="st0" d="M258.7,116.4c0,.2.2.4.1.6-.2.2-.4.7-.9.5-.2.1-.4-.2-.5-.3-.1-.1-.1-.2-.1-.3s0-.2.1-.3c0-.1.1-.2.2-.3.1-.1.2-.1.3-.2.4-.2.6.1.8.3Z"/>
  <path class="st0" d="M182.8,117.5v.6c-.1.2-.2.4-.4.5-.4.1-1,.1-1.1-.4,0-.2,0-.4.1-.7.1-.2.2-.4.4-.5.2,0,.4,0,.6.1.1.1.3.3.4.4h0Z"/>
  <path class="st0" d="M185,117.4c-.1,1.1-.3,2.5-1.4,3.1-.6.1-1.3.7-1.9.3v-.2c.8-1.2,2.3-2.1,3.3-3.2h0Z"/>
  <path class="st0" d="M250.8,118.3c.2.2-.1.4-.2.6-.1.2-.7.2-1,0s-.3-.5-.2-.8c.1-.1.1-.2.2-.3.1-.1.2-.1.3-.2.4.1.7.4.9.7h0Z"/>
  <path class="st0" d="M189,120.1c.6.9.2,2.2.6,3.2-.7.1-.9-.7-1.4-1.1-.9-1.2-.8-2.8-1.1-4.2l.1-.1h.2c.6.5,1.1,1.1,1.5,1.7-.2.3.1.3.1.5h0Z"/>
  <path class="st0" d="M252.8,118.6c0,.3-.4.4-.6.6-.3,0-.5-.2-.8-.4-.1-.4.2-.5.4-.7.1,0,.2-.1.3-.1s.2,0,.3.1c.1,0,.2.1.2.2.1.1.1.2.2.3h0Z"/>
  <path class="st0" d="M257.5,122.2c0,.1,0,.3-.2.3h-.2c-1.1-1-2.3-2.2-2.1-3.8h.2c1,.9,2.2,1.9,2.3,3.5h0Z"/>
  <path class="st0" d="M254.5,120.9c0,.1,0,.3-.1.4s-.2.2-.3.3c-.4.1-1.1.1-1.2-.5,0-.4.4-.6.6-.8.2,0,.4,0,.6.1.2.1.3.3.4.5Z"/>
  <path class="st0" d="M251.9,121.7c-.6,1.5-2.1,2.2-3.1,3.3-.2-.1-.1-.4-.1-.6.2-.8.6-1.5,1.1-2.1s1.2-1.1,1.9-1.5c.7.2.1.6.2.9h0Z"/>
  <path class="st0" d="M254.8,122.9c0,.4-.3.5-.6.7-.2,0-.3,0-.5-.1s-.3-.2-.4-.3c0-.4.3-.5.5-.7.2,0,.4,0,.5.1.3,0,.5.2.5.3Z"/>
  <path class="st0" d="M225.3,50.4c.3,0,.5.1.7.3s.3.4.3.7-.1.5-.3.7-.4.3-.7.3h-11.8c-.3,0-.5-.1-.7-.3s-.3-.4-.3-.7.1-.5.3-.7.4-.3.7-.3h11.8ZM217,52.1c1.2,0,.1-1.4-.5-1.4h-1.2c-1.1,0-.1,1.4.6,1.4h1.1,0ZM221.8,52.1c1.1,0,.1-1.4-.6-1.4h-1.1c-1.2,0-.1,1.4.5,1.4h1.2ZM225,50.7c-1.2,0-.2,1.4.4,1.4.8,0,.8-1.4,0-1.4h-.4Z"/>
  <path class="st0" d="M224.3,63.9l2.2.9,2.2-.9-.9,3.3,1.8-.4-.6,2,.6,1.9-1.6-.4.7,3.6-2.2-.9-2.2.9.9-3.6-1.8.5.5-2-.5-1.9,1.7.3-.8-3.3h0ZM227.6,69.9c.5,0,.6-.7.6-1.3,0-1.4-1.1,0-1.6-1.3-.4,1.1-1.5.1-1.5,1.2,0,.8,0,1.3.8,1.3h1.7v.1ZM225.4,68.6c0,.5.7.2,1.2.2s1.2.4,1.2-.2c0-.7-.7-.5-1.2-.5s-1.2-.2-1.2.5Z"/>
  <path class="st0" d="M219,68.8v-.4l-.4-.1.3-.3-.2-.3h.4l.2-.4.2.4h.4l-.2.3.3.3-.4.1v.4l-.4-.3-.2.3h0Z"/>
  <path class="st0" d="M217.3,71v-.4l-.4-.1.3-.3-.2-.3h.4l.2-.4.2.4h.4l-.2.3.3.3-.4.1v.4l-.4-.3-.2.3h0Z"/>
  <path class="st0" d="M220.3,70.7v-.4l-.4-.1.3-.3-.2-.3h.4l.2-.4.2.4h.4l-.2.3.3.3-.4.1v.4l-.4-.3-.2.3h0Z"/>
  <path class="st0" d="M220.6,72.4v-.2h-.2l.2-.2-.1-.2h.2l.1-.2.1.2h.2l-.1.2.2.2h-.2v.2l-.2-.2-.2.2Z"/>
  <path class="st0" d="M217.9,74.3v-.7l-.6-.1.5-.5-.3-.6.7.1.4-.7.4.7.7-.1-.3.6.5.5-.6.1v.7l-.6-.5-.8.5h0Z"/>
  <path class="st0" d="M219.3,36.6l1.4,3.4,3.5-1-1.8,3.2,3,2.1-3.6.6.2,3.7-2.7-2.5-2.7,2.5.2-3.7-3.6-.6,3-2.1-1.9-3.2,3.5,1,1.5-3.4h0Z"/>
  <path class="st0" d="M206.5,113.6c-.4.2-.6.3-.5.7l.5,2.1c.1.5.1,1-.1,1.4-.4.4-.9.7-1.4.9-.6.2-1.1.2-1.7,0-.2-.1-.4-.2-.6-.4-.1-.2-.2-.4-.3-.6l-.5-2.2c-.1-.6-.3-.5-.8-.5v-.2l2.7-.6v.2c-.5.1-.8.2-.6.8l.5,2.2c.1.4.3,1.3,1.4,1,.2,0,.4-.1.6-.2.2-.1.3-.3.4-.4.1-.2.2-.4.2-.6s0-.4-.1-.6l-.5-2c-.1-.4-.2-.6-.9-.5v-.2l1.7-.4v.1h0Z"/>
  <path class="st0" d="M210.4,114.1c-.2-.3-.4-.6-.8-.7s-.7-.2-1.1-.1c-.4.1-.8.4-.7.8s.3.5,1,.6l1.3.2c.3,0,.5.2.7.3.2.2.3.4.4.7.1.6-.2,1.5-1.6,1.8-.5.1-.9.1-1.4.1-.2,0-.2.2-.2.3h-.2l-.4-1.6h.2c.1.4.4.7.8.9s.8.3,1.2.2c1-.2.8-.9.8-1-.1-.4-.5-.5-1.1-.6l-.6-.1c-1.5-.2-1.6-.8-1.7-1.1-.1-.3,0-1.4,1.4-1.7.4-.1.9-.1,1.3-.1.2,0,.2-.1.2-.3h.2l.3,1.4h0Z"/>
  <path class="st0" d="M215.6,116.7l-2.9.3v-.2c.6-.1.8-.1.7-.7l-.4-3.5c-.6.1-1.4.2-1.4,1.3h-.2l-.1-1.4,4.8-.5.1,1.3h-.2c-.3-1.1-1.1-1-1.7-1l.3,3.6c.1.6.2.6.9.5l.1.3h0Z"/>
  <path class="st0" d="M222.4,116.7h-1.7l-1.6-2.2h-.2v1.3c0,.5.2.6.7.6v.2l-2.8-.1v-.2c.6,0,.7-.1.7-.6l.1-3c0-.6-.2-.6-.7-.6v-.1h2.6c.6,0,2.3.1,2.3,1.2,0,.8-.9,1-1.3,1.1l1.6,2,.1.1h.2v.3h0ZM218.9,114.3c1.1,0,1.5-.1,1.5-1v-.4c0-.1-.1-.3-.2-.4-.1-.1-.2-.2-.4-.2h-.4c-.4,0-.5.1-.5.3v1.7h0Z"/>
  <path class="st0" d="M227.7,117.4l-2.6-.3v-.2c.5,0,.6,0,.7-.2,0-.3-.1-.7-.3-1l-1.8-.2c-.2.3-.3.5-.5.8,0,.3.3.3.6.4v.2l-1.6-.2v-.2c.4,0,.6-.2.9-.7l2.3-3.4h.2l1.4,3.8c.3.8.4,1,.8,1l-.1.2h0ZM225.4,115.5l-.6-1.7-1,1.5,1.6.2h0Z"/>
  <path class="st0" d="M232.4,118.4l-4.6-.8v-.2c.5,0,.7.1.8-.4l.6-3.2c.1-.4-.2-.5-.6-.6v-.2l2.8.5v.2c-.6-.1-.8-.1-.9.5l-.6,3.2c-.1.3.1.4.6.5.4.1.9.1,1.3-.1.4-.2.7-.5,1-.9l.2.1-.6,1.4h0Z"/>
  <path class="st0" d="M235.4,119.1l-2.8-.6v-.2c.4,0,.8.1.8-.3l.7-3.2c.1-.4-.3-.5-.6-.6v-.2l2.8.6v.2c-.4-.1-.8-.1-.9.3l-.7,3.2c-.1.4.2.5.6.6v.2h.1,0Z"/>
  <path class="st0" d="M241.1,119.8l-2.6-.3v-.2c.5,0,.7,0,.7-.2,0-.3-.1-.6-.3-.9l-1.8-.2c-.2.3-.3.5-.4.8,0,.3.4.3.6.4v.2l-1.6-.2v-.2c.4,0,.6-.2.9-.7l2.2-3.5h.2l1.4,3.8c.3.8.4,1,.8,1l-.1.2h0ZM238.8,117.9l-.6-1.7-.9,1.6,1.5.1Z"/>
  <path class="st0" d="M220.4,65c0-1.6-.9-.1-1.4-1.5-.4,1.2-1.5.2-1.5,1.4,0,.2,0,.3.1.5s.2.3.3.4v.7l.1.1h1.8c.07,0,.13-.03.2-.1q.1-.1.1-.2v-.5c.1-.1.2-.2.3-.4v-.4h0ZM219,65.3c-.5,0-1.1.3-1.1-.2,0-.8.5-.6,1-.6s1.2-.2,1.2.6c0,.5-.7.2-1.1.2h0Z"/>
  <path class="st0" d="M234.6,85c.1,0,.2-.1.3-.2s.2-.2.2-.3v-.4c0-.1-.1-.2-.2-.3-.1-.1-.2-.1-.3-.2-.1,0-.3,0-.4.1-.1.1-.2.1-.3.2s-.1.2-.1.4.1.4.2.5c.2.2.4.2.6.2Z"/>
  <path class="st0" d="M231.1,60.8c-.1.2-.3.5-.4.7v.1s0,.1.1.1l.1.1h.2s.1,0,.1-.1l.1-.1v-.1l-.2-.7h0Z"/>
  <path class="st0" d="M207.1,60.8c-.1.2-.3.5-.3.7v.2c0,.07.03.1.1.1l.1.1h.4l.1-.1.1-.1v-.2l-.5-.7h0Z"/>
  <path class="st0" d="M213.1,60.8c-.1.2-.3.5-.4.7v.2c0,.07.03.1.1.1l.1.1h.4l.1-.1.1-.1v-.2l-.4-.7h0Z"/>
  <path class="st0" d="M219.1,60.8c-.1.2-.3.5-.3.7v.2c0,.07.03.1.1.1l.1.1h.4l.1-.1.1-.1v-.2l-.5-.7h0Z"/>
  <path class="st0" d="M225.1,60.8c-.1.2-.3.5-.3.7v.2c0,.07.03.1.1.1l.1.1h.4l.1-.1.1-.1v-.2l-.5-.7h0Z"/>
  <path class="st0" d="M207.1,69.1c.1.2.3.5.3.7v.2c0,.07-.03.1-.1.1l-.1.1h-.4l-.1-.1-.1-.1v-.2l.5-.7h0Z"/>
  <path class="st0" d="M207.1,77.1c.1.2.3.5.3.7v.2c0,.07-.03.1-.1.1l-.1.1h-.4l-.1-.1-.1-.1v-.2l.5-.7h0Z"/>
  <path class="st0" d="M208.1,83.4c.1.2.3.5.4.7v.2c0,.07-.03.1-.1.1l-.1.1h-.4l-.1-.1-.1-.1v-.2l.4-.7h0Z"/>
  <path class="st0" d="M213.1,86.7c.1.2.3.5.3.7v.2c0,.07-.03.1-.1.1l-.1.1h-.4l-.1-.1-.1-.1v-.2l.5-.7h0Z"/>
  <path class="st0" d="M231.4,69.1c-.1.2-.3.5-.4.7v.2c0,.07.03.1.1.1l.1.1h.4l.1-.1.1-.1v-.2l-.4-.7h0Z"/>
  <path class="st0" d="M231.4,77.1c-.1.2-.3.5-.4.7v.2c0,.07.03.1.1.1l.1.1h.4l.1-.1.1-.1v-.2l-.4-.7h0Z"/>
  <path class="st0" d="M230.4,83.4c-.1.2-.3.5-.4.7v.2c0,.07.03.1.1.1l.1.1h.4l.1-.1.1-.1v-.2l-.4-.7h0Z"/>
  <path class="st0" d="M225.4,86.7c-.1.2-.3.5-.4.7v.2c0,.07.03.1.1.1l.1.1h.4l.1-.1.1-.1v-.2l-.4-.7h0Z"/>
  <path class="st0" d="M219.3,90.3c-.1.2-.3.5-.4.7v.2c0,.07.03.1.1.1l.1.1h.4l.1-.1.1-.1v-.2l-.4-.7h0Z"/>
  <path class="st0" d="M229,78.4c.1.1.3.2.5.1l.2-.7s-.3-.3-.4-.3c-.6.2-1.3.2-1.7.8,0,.2.1.4.2.6.1.2.3.3.4.4.2-.1.3.2.4.3v.1s0,.1-.1.1l-.1.1h-.1c-.4-.5-1.2.2-1.6-.4.1-.6.4-1.2,0-1.8,0-.1.2-.2.1-.3-.2-.5-.8-.1-1.1-.1s-.5,0-.8.1c-.2.1-.4.3-.6.5,0,.2.1.4.3.6.1,0,.2,0,.3.2l-.4.2c.1.1.1.3.1.4-.3.1-.5-.3-.6-.5s0-.8-.4-.9c-.1,0-.2.1-.3.1-.1.2-.2.4-.2.6s.1.5.1.7c.5.4,1,.9,1.4,1.4-.3.7-.3,1.6-1.1,2-.1.1-.2.2-.2.3v.3l.2.2c.5-.3,1.4-.3,1.3-1.2.2-.4.4-.7.7-1,.2,0,.3,0,.5.1s.3.2.4.4c-.1.3-.2.5-.3.7-.2.2-.4.4-.7.4-.1.1,0,.2,0,.3.1.3.6.2.8.1.6-.4.9-1.2,1.5-1.4.1.4-.8.5-.2.9.3-.1.8,0,1-.4-.3-.6.9-1,.2-1.5,0-.6.6-.8.6-1.4-.2-.6-.9-.6-1.1-1.2.1-.1.3-.1.4-.1.2.1.4.1.4.2h0Z"/>
  <path class="st0" d="M201.5,85.3h.3c.1,0,.2-.1.3-.1l.2-.2c0-.1.1-.2.1-.3s0-.2-.1-.3c0-.1-.1-.2-.2-.2-.1-.1-.2-.1-.3-.1h-.3c-.2,0-.3.1-.5.2-.1.1-.2.3-.2.5s.1.3.2.5c.1-.1.3,0,.5,0Z"/>
  <path class="st0" d="M162.6,108c.1,0,.2,0,.3-.1.1,0,.2-.1.2-.2l.2-.2c0-.1.1-.2.1-.3,0-.2-.1-.3-.2-.5-.1-.1-.3-.2-.5-.2s-.4.1-.5.2-.2.3-.2.5.1.4.2.5c.1.2.2.3.4.3Z"/>
  <path class="st0" d="M187.4,113.5h0l-.1-.1v-.1h.1v.2Z"/>
  <path class="st0" d="M187.5,113.4h0q-.07,0,0,0h0q-.07,0,0,0h0Z"/>
  <path class="st0" d="M187.7,113.4l-.1.1.1-.1h0Z"/>
  <path class="st0" d="M187.7,113.5h0q.07,0,0,0l.1-.1s.1,0,.1.1c0,0,0,.1-.2,0h0Z"/>
  <path class="st0" d="M187.9,113.4h0Z"/>
  <path class="st0" d="M233,59.9h-27.6v21.1c0,2.2.9,4,2.2,4.6l10.6,6.8c.1.1.3.3.5.3.2.1.4.1.5.1.3,0,.6-.1.9-.3l10.8-6.9c1.3-.6,2.2-2.5,2.2-4.6l-.1-21.1h0ZM232.3,81.3c0,.7-.2,1.4-.5,2s-.8,1.2-1.3,1.6l-10.4,6.6h0c-.2.2-.5.3-.8.3s-.6-.1-.8-.3l-10.5-6.5c-.6-.4-1-1-1.3-1.6s-.5-1.3-.5-2v-20.8h26.1v20.7h0Z"/>
  <path class="st0" d="M222.9,90.7l.3-.2c0,.1-.2.1-.3.2Z"/>
  <path class="st0" d="M202.1,119.6l-2.6.3v-.2c.5-.1.6-.1.6-.3-.1-.3-.3-.6-.5-.9l-1.8.2c-.1.3-.2.6-.2.9s.4.2.7.2v.2l-1.6.2v-.2c.4-.1.5-.3.7-.9l1.4-3.9h.2l2.2,3.3c.4.7.6.9,1,.8l-.1.3h0ZM199.5,118.2l-1-1.5-.6,1.7,1.6-.2Z"/>
  <path class="st0" d="M247.9,109.6c-.2-.6-.6-1.1-1.1-1.6-.5-.4-1-.7-1.6-.9-.6-.2-1.2-.2-1.9,0s-1.2.5-1.6.9c-1.4,1.2-.4,3.1-.4,4.6,0,.3,0,.6-.3.7-5.8-.5-11.1-2-16.8-2.6-1.3-.2-2.6-.2-3.9-.4l-1.6-.2c-4.9,0-9.8.6-14.6,1.6-1,.3-2.1.4-3.1.8-.7-.1-1.3.4-2,.2l-1.3.3h-.4c-.6-1.6,1.3-2.6.7-4.2-.2-.5-.6-.9-1.1-1.2-.5-.3-1-.4-1.6-.4-.6-.1-1.3.1-1.8.4-.6.3-1,.7-1.4,1.3-.9,2,.2,4.1.6,6-.1.6.6,1.3,0,1.9-.6-.5-1.4-.8-2.1-1-.8-.2-1.6-.1-2.3,0-.5.2-1.4-.1-1.6.5,1.7.9,3.9.8,5.8.7.2-.1.4-.1.6,0,.2,1-.2,2.4.4,3.4.4.4.9.8,1.4,1s1.1.3,1.7.3c3.6-.1,6.9-1.2,10.2-2,.5,0,.9-.3,1.5-.3,1.8-.4,3.7-.7,5.6-.8-.8,1.1-1.4,2.3-1.7,3.6-.5,1.1.8,1.2,1.2,1.8-1.2.4-2.1,1.2-3.2,1.7-2.5-.1-4.7.9-7.1,1.2,0,.5.8.4.9.9-.1.4-.5.4-.8.6,0,.2,0,.3.2.3.2-.3.8-.1,1-.4.8,0,1.5-.2,2.2-.3.7-.2,1.4-.4,2-.8.8-.2,1.4-.8,2.2-1,1.2,0,2.3-.4,3.4-.5v.3c-.9,1.5-1.9,3-2.8,4.4,0,.07-.03.13-.1.2v.2c0,.1.1.1.1.2,0,0,.1.1.2.1.5.1,1.1,0,1.5-.2.8-1.4,1.6-2.8,2.3-4.3.3-1.4,1.3-2.1,2.3-3,.2-.1.4-.3.6-.1-.7.9-1.4,1.8-1.9,2.8-.2.6-.3,1.2-.2,1.8.1.6.4,1.2.8,1.7.5.4,1.2.3,1.8.3,1.5-.8,3.5.5,4.7-1,.7-.1.8.7,1.2,1.1.7.2,1.4.9,2.1.4,0-.4-.5-.8-.8-1.2-.5-.8-1.1-1.5-1.5-2.3-.3-.5-.5-1-.6-1.5.7.3,1.4.6,2.1.8.7.2,1.4.4,2.1.6.6.6,1.2,1.1,2,1.5,1,.5,2.1.6,3.1,1,.4,0,1,.4,1.3,0-.2-.2-.4-.3-.6-.4-.1-.5.7-.2,1-.6,0-.1-.1-.2-.2-.2-.1-.1-.2-.1-.3-.1-.6-.3-2-.4-2.4-.6-.5-.1-.9-.3-1.4-.4-2.4,0-3.7-2.2-5.6-3,.4-.4,1.1-.7,1.4-1.3.2-.3.3-.7.3-1s-.1-.7-.2-1.1c-.4-1.2-1.9-1.1-2.8-1.8l.1-.1c1.4,0,2.9.2,4.3.6,3.8.5,7.3,2,11.3,2,2.2,0,4.9.1,6-2,.2-1.2.4-2.5.6-3.7.8-2.1,2.1-4,1.9-6.2h0ZM205,127.9l-.6-.5c.3-.4.9-.2,1.3-.4,1.1-.4,2.2-.6,3.4-.5-1.1,1-2.7,1.1-4.1,1.4h0ZM229.8,127.2c1.4.5,2.8.8,4.2,1-.1.6-1.1,0-1,.8-1.2-.5-2.7-.7-3.6-1.7.1.1.2-.1.4-.1h0ZM192.6,110.2c0-.8.4-1.5,1-2,.5-.2,1-.4,1.6-.3s1.1.2,1.6.5c.3.2.5.4.6.8.1.3.1.7,0,1s-.3.6-.6.8h-.4c0-.6,0-1.2.2-1.8,0-.5-.4-.5-.8-.7-.3-.1-.6-.1-.9,0-.3.1-.6.2-.8.4-.2.2-.4.5-.5.8s-.1.6,0,1c.3.4,0,1,.2,1.5l-.1.2c-.6-.7-1.2-1.2-1.1-2.2h0ZM194.4,111.4c.6.4,1.4.2,2.1.4.1.2.1.5.1.7s-.1.5-.3.7c-.7-.2-1.6-.1-1.9-.7.1-.4-.1-.8,0-1.1h0ZM194.3,110.1c.1-.3,0-.8.4-.9.3-.1.7-.1.8.2,0,.5-.1.9-.2,1.4-.2,0-.5,0-.7-.2-.2-.1-.3-.3-.3-.5ZM212.9,122.9c-.1-.7,0-1.3.2-1.9s.6-1.2,1.1-1.6c.6-.2,1.2-.2,1.7.1-1,.3-2.3.5-2.6,1.8,0,.5-.1.8.1,1.2.4.8,1.4.4,2,1,0,.1,0,.2-.1.3-.1.1-.2.1-.3.2-.7-.4-1.4-.7-2.1-1.1h0ZM211.5,125.6c1-.4,1.9-1.2,3-.9-.9.6-1.9.9-3,.9ZM215.3,126c-.6,1.3-1.2,2.6-2,3.8-.1.2-.4.2-.6.3,0-.6.6-1,.8-1.5.8-1.1,1.1-2.2,2-3.3.2.2-.3.4-.2.7h0ZM216.3,123.7v.2h-.1l.1-.2h0c0-.1-.1-.1,0,0h0ZM215.9,122.6c-.6-.1-1.3-.2-1.9-.5-.4-.4,0-.8,0-1.3.5-.9,2.1-1.3,2.9-.5-.1.9-.4,1.7-1,2.3ZM216.8,122.6c.1-.6.3-1.1.6-1.7,0,.7-.3,1.2-.6,1.7ZM217.2,119.4c-.5-.1-.8-.7-1.3-.7.5-.1,1-.2,1.5-.1.2.3-.1.5-.2.8h0ZM217.7,122.4c0-.2.1-.4.1-.6.2-.2.4.2.5.3-.1.1-.1.2-.3.2-.1.1-.2.2-.3.1ZM218.3,120c.1-.5.3-1,.6-1.5.4,0,.7,0,1.1.2.1.8,1.1,1.9,0,2.6-.4.2-.9.5-1.3.2-.2-.1-.4-.4-.5-.6-.1-.4,0-.7.1-.9h0ZM221.2,118.8c-.1-.4.4-.1.5-.2l1.2.1c-.6-.1-1.4,1.4-1.7.1ZM223.2,119.4c-.5.2-.8.7-1.3.8.1-.2.3-.4.5-.6.2-.1.5-.2.8-.2ZM221.6,124.3c0,.1,0,.2-.1.3l-.9-.7c.2,0,.4,0,.6.1.1,0,.3.1.4.3h0ZM220.5,123c.1,0,.1-.1.2-.1s.1,0,.2.1h-.4ZM220,122.4c.2-.2.4-.6.6-.6,0,0,0,.1.1.1-.2.3-.5.4-.7.5h0ZM219.1,122.4h-.2l.2-.2c.2,0,0,.1,0,.2ZM219.2,123.9c.5-.6,1,.3,1.2.8.6.9,2.1,1.7,1.5,2.9-.8.7-1.9,0-2.8.6-.4,0-1.2.1-1.4-.4.4-1.4.9-2.7,1.5-3.9ZM218.1,124.6l.2-.3c-.3,1-.8,2-1.3,2.9-.3-1,.7-1.7,1.1-2.6ZM219.8,129.4c-.8,0-1.9.5-2.6-.2,0-.3-.3-.5-.3-.8.6-.2,1.2.5,1.8,0,.9-.1,1.9,0,2.8.1.4.1,1.1-.7,1.2.1-.4,1.3-1.9.4-2.9.8h0ZM222.1,123.6v-.1h.1l-.1.1h0ZM222.3,126.1c0,.4.4.6.2.9-.1-.1-.2-.3-.2-.4v-.5ZM223.5,128.5l-.2.1c-.2-.2-.1-.6-.1-.8.2.2.4.5.3.7ZM225.5,129.5c0,.1-.2.1-.3,0-1-1.5-1.9-3.1-2.5-4.8h.2c.9,1.6,1.6,3.3,2.6,4.8ZM226.9,125.9h0c-.07.07-.1.13-.1.2-1-.1-2-.5-2.8-1.2v-.2c1.1.1,2.1.5,2.9,1.2h0ZM225.9,120.6c.5.1.5.6.6,1,0,.3-.1.7-.3,1s-.4.6-.7.8c-.3.2-.6.3-.9.4-.3.1-.7.1-1,0,.5,0,1-.1,1.4-.3.4-.2.8-.6,1-1l-.1-1.9h0ZM225.1,120.4c.3.5.4,1.1.3,1.7-.4.8-1.2.8-1.9.9h-.5c-.2,0-.3-.1-.4-.2v-.2c0-.1-.1-.1-.1-.2.1-.5-.9-1-.2-1.5.6-.6,2.1-2,2.8-.5h0ZM245.2,117.5c-.3.4,0,1-.4,1.4,0,.7-.6,1.1-1.1,1.4-4.7,1-9.4-.6-13.9-1.4-6.7-1.6-13.6-1.7-20.3-.3-3.1.6-6,1.3-9,2.1-1.8.4-3.7.4-5.6,0-1.4-.7-.8-2.5-1.3-3.8,0-.9-.2-1.8-.3-2.8-.1-.3-.2-.7-.1-1,.6.1,1.2.5,1.8.7,3.3.6,6.3-.4,9.4-1,3-.7,6.1-1.1,9.2-1.4,3.5-.2,7.1-.1,10.6.4,1.1,0,2.1.3,3.1.4,2.2.3,4.3.9,6.5,1,.4.1.8.2,1.2.2,3.6.6,7.6,1.6,11,0-.2,1.3-.4,2.7-.8,4.1h0ZM244.1,112.6c0,.6-.6.5-.9.7h-.9c-.1-.4-.2-.7-.1-1.1.6.1,1.2.2,1.9.4ZM243.6,111.6c.4-.4-.1-3,1.1-1.3,0,.3,0,.8-.3,1s-.4.5-.8.3h0ZM246.8,111.2c-.1.4-.4.7-.7.9-.3.2-.6.4-1,.5,0-1,.9-1.6.6-2.7-.3-.4-.7-.6-1.1-.8-.4-.1-.9-.2-1.4,0-.4.2-.2.6-.3,1l-.1,1.3c-.8,0-.8-.7-1.1-1.3,0-.4.1-.8.3-1.2.2-.4.5-.7.9-.9.4-.2.8-.2,1.2-.2s.8.1,1.1.3c.3,0,.5.1.7.3.2.1.4.3.6.6.6.5.5,1.5.3,2.2Z"/>
  <path class="st0" d="M469.1,32h2v134h-2V32Z"/>
  <g>
    <path class="st0" d="M550.8,68.2c-1.3-1.3-2.8-2.4-4.6-3.1s-3.7-1.1-5.9-1.1h-9.9v32h9.8c2.2,0,4.1-.4,5.9-1.1,1.8-.7,3.3-1.8,4.6-3.1s2.3-3,3-4.8c.7-1.9,1.1-3.9,1.1-6.2v-1.5c0-2.3-.4-4.4-1.1-6.2-.6-1.9-1.6-3.5-2.9-4.9h0ZM548.2,80.8c0,2.1-.3,4-.9,5.5-.6,1.5-1.5,2.7-2.7,3.4-1.2.8-2.6,1.2-4.4,1.2h-3.2v-21.7h3.3c1.3,0,2.4.2,3.4.7,1,.4,1.8,1.1,2.5,1.9s1.2,1.9,1.5,3.1c.4,1.2.5,2.7.5,4.3v1.6h0Z"/>
    <rect class="st0" x="566.9" y="64" width="6.6" height="32"/>
    <path class="st0" d="M611.7,92v-12.7h-12.6v4.7h6v5.7c-.2.2-.6.5-1,.7s-1,.5-1.7.6c-.7.2-1.6.3-2.6.3-1.2,0-2.3-.2-3.3-.7-.9-.4-1.7-1.1-2.4-2-.6-.9-1.1-2-1.4-3.2-.3-1.3-.5-2.8-.5-4.4v-2c0-1.7.2-3.2.5-4.4.3-1.3.8-2.3,1.3-3.2s1.3-1.5,2.2-2,1.8-.7,2.9-.7c1.3,0,2.4.2,3.3.7.8.5,1.5,1.1,2,1.9s.8,1.8.9,2.8h6.4c-.2-2.1-.8-3.9-1.8-5.4-.9-1.6-2.3-2.8-4.1-3.7s-4.1-1.4-6.9-1.4c-2,0-3.8.3-5.5,1-1.6.7-3.1,1.7-4.2,3-1.2,1.3-2.1,2.9-2.7,4.9-.6,1.9-.9,4.1-.9,6.6v2c0,2.5.3,4.7,1,6.6s1.6,3.5,2.8,4.8,2.7,2.3,4.4,3,3.6,1,5.6,1c2.3,0,4.3-.2,6-.7,1.6-.5,3-1.1,4-1.8,1.1-.8,1.8-1.4,2.3-2Z"/>
    <rect class="st0" x="624.2" y="64" width="6.6" height="32"/>
    <polygon class="st0" points="650.8 96 657.4 96 657.4 69.2 667.2 69.2 667.2 64 657.4 64 650.8 64 641.1 64 641.1 69.2 650.8 69.2 650.8 96"/>
    <path class="st0" d="M689,64h-4.4l-11.9,32h7l2.2-6.7h11.5l2.2,6.7h7l-12-32h-1.6ZM683.6,84.1l4-12.3,4.1,12.3h-8.1Z"/>
    <polygon class="st0" points="718.9 96 732.9 96 732.9 90.9 718.9 90.9 718.9 64 712.3 64 712.3 96 716.8 96 718.9 96"/>
    <path class="st0" d="M788.7,96l-12-32h-6.1l-11.9,32h7l2.2-6.7h11.5l2.2,6.7h7.1ZM769.6,84.1l4-12.3,4.1,12.3h-8.1Z"/>
    <polygon class="st0" points="819.8 69.2 819.8 64 810 64 803.4 64 793.7 64 793.7 69.2 803.4 69.2 803.4 96 810 96 810 69.2 819.8 69.2"/>
    <polygon class="st0" points="836.9 64 830.3 64 830.3 96 834.8 96 836.9 96 850.9 96 850.9 90.9 836.9 90.9 836.9 64"/>
    <path class="st0" d="M875.5,64h-4.4l-11.9,32h7l2.2-6.7h11.5l2.2,6.7h7l-12-32h-1.6ZM870.1,84.1l4-12.3,4.1,12.3h-8.1Z"/>
    <path class="st0" d="M921.4,84c-.5-1-1.1-2-2-2.8s-2-1.6-3.3-2.2c-1.3-.7-2.8-1.3-4.6-1.8-1-.3-2-.7-2.7-1-.8-.3-1.5-.7-2-1.1s-1-.8-1.2-1.2c-.3-.4-.4-.9-.4-1.5,0-.7.2-1.4.6-1.9.4-.6,1-1,1.7-1.4.8-.4,1.7-.5,2.9-.5s2.2.2,2.9.6c.8.4,1.4,1,1.8,1.7.4.7.6,1.5.6,2.5h6.5c0-1.9-.5-3.6-1.5-5.1s-2.3-2.6-4.1-3.5c-1.8-.8-3.8-1.3-6.2-1.3-1.7,0-3.3.2-4.8.6-1.4.4-2.7,1-3.7,1.8-1.1.8-1.9,1.7-2.5,2.8s-.9,2.3-.9,3.6c0,1.4.3,2.6.8,3.6.6,1,1.3,2,2.3,2.7,1,.8,2.1,1.5,3.4,2,1.3.6,2.7,1.1,4.1,1.6,1.3.4,2.4.8,3.2,1.2s1.5.8,1.9,1.2c.5.4.8.8.9,1.3.2.5.3,1,.3,1.5,0,.7-.2,1.4-.5,1.9-.4.6-.9,1-1.6,1.3-.7.3-1.7.5-2.8.5-.9,0-1.8-.1-2.6-.3s-1.5-.5-2-.9c-.6-.4-1-1-1.3-1.7s-.5-1.5-.5-2.5h-6.6c0,1.8.4,3.4,1.1,4.7.7,1.3,1.7,2.4,3,3.3,1.3.8,2.7,1.5,4.2,1.9s3.1.6,4.7.6c1.8,0,3.3-.2,4.8-.6,1.4-.4,2.6-1,3.7-1.7,1-.8,1.8-1.7,2.4-2.8.5-1.1.8-2.3.8-3.7-.1-1.1-.4-2.3-.8-3.4h0Z"/>
    <path class="st0" d="M596.6,112.8c-.8-.9-1.7-1.6-2.8-2.1s-2.3-.7-3.7-.7c-1.3,0-2.5.2-3.6.7s-2,1.2-2.8,2.1-1.4,2-1.8,3.3c-.4,1.3-.6,2.7-.6,4.3v2.4c0,1.6.2,3,.6,4.3.4,1.3,1,2.4,1.8,3.3s1.7,1.6,2.8,2.1,2.3.7,3.6.7c1.4,0,2.6-.2,3.7-.7,1.1-.5,2-1.2,2.8-2.1s1.4-2,1.8-3.3c.4-1.3.6-2.7.6-4.3v-2.4c0-1.6-.2-3-.6-4.3-.4-1.3-1-2.4-1.8-3.3ZM597.1,122.8c0,1.4-.2,2.6-.5,3.7s-.8,2-1.3,2.8c-.6.8-1.3,1.3-2.2,1.8-.9.4-1.8.6-3,.6-1.1,0-2-.2-2.9-.6s-1.6-1-2.2-1.8c-.6-.8-1.1-1.7-1.4-2.8-.3-1.1-.5-2.3-.5-3.7v-2.5c0-1.3.2-2.6.5-3.6.3-1.1.8-2,1.4-2.8.6-.8,1.3-1.3,2.2-1.8.9-.4,1.8-.6,2.9-.6s2.1.2,3,.6,1.6,1,2.2,1.8c.6.8,1.1,1.7,1.4,2.8.3,1.1.5,2.3.5,3.6v2.5h-.1Z"/>
    <polygon class="st0" points="612.4 110.2 611.1 110.2 611.1 133 613 133 613 122.4 623.6 122.4 623.6 120.7 613 120.7 613 111.9 625.2 111.9 625.2 110.2 613 110.2 612.4 110.2"/>
    <path class="st0" d="M658.9,110.2h-1.4l-8.6,22.8h2l2.3-6.4h10.3l2.4,6.4h2l-8.6-22.8h-.4ZM653.9,125l4.6-12.4,4.6,12.4h-9.2,0Z"/>
    <path class="st0" d="M692,125.7c0,1.3-.3,2.4-.8,3.3s-1.2,1.6-2.2,2c-.9.4-2,.7-3.1.7-1.2,0-2.2-.2-3.2-.7-.9-.4-1.6-1.1-2.2-2-.5-.9-.8-2-.8-3.3v-15.5h-1.9v15.4c0,1.7.3,3.1,1,4.3.7,1.1,1.7,2,2.9,2.5,1.2.6,2.6.8,4.1.8s2.8-.3,4-.8c1.2-.6,2.2-1.4,2.9-2.5s1.1-2.6,1.1-4.3v-15.4h-1.9v15.5h.1Z"/>
    <path class="st0" d="M719.3,123.1c-.6-.5-1.4-1-2.4-1.4-.9-.4-2-.8-3.2-1.1-1.1-.3-2.1-.6-2.9-1-.8-.3-1.4-.7-1.9-1.1s-.8-.8-1-1.3-.3-1-.3-1.5c0-.8.2-1.5.6-2.1.4-.6,1.1-1.1,1.9-1.5.9-.4,1.9-.6,3.2-.6s2.3.2,3.2.7c.9.4,1.5,1,2,1.8s.7,1.7.7,2.6h1.9c0-1.3-.3-2.4-1-3.4-.6-1-1.5-1.8-2.7-2.5-1.2-.6-2.5-.9-4.1-.9-1.1,0-2.1.1-3.1.4-.9.3-1.7.7-2.4,1.2s-1.2,1.1-1.6,1.9-.6,1.5-.6,2.4.2,1.7.5,2.4c.3.7.8,1.2,1.5,1.8.7.5,1.4.9,2.4,1.3.9.4,1.9.7,3.1,1.1,1.2.3,2.2.7,3,1s1.4.7,1.9,1.1.8.8,1,1.3.3,1,.3,1.7c0,.9-.2,1.6-.7,2.2s-1.2,1.1-2,1.5c-.9.4-1.9.5-3.1.5-.8,0-1.6-.1-2.3-.3-.8-.2-1.5-.5-2.1-.9s-1.1-.9-1.5-1.6-.6-1.5-.6-2.4h-1.9c0,1.2.2,2.2.7,3.1s1.2,1.6,2,2.1,1.8.9,2.8,1.2,2,.4,3,.4c1.1,0,2.2-.1,3.1-.4,1-.3,1.8-.7,2.5-1.2s1.3-1.1,1.6-1.9c.4-.7.6-1.6.6-2.5s-.2-1.7-.5-2.4c-.4-.6-.9-1.2-1.6-1.7h0Z"/>
    <polygon class="st0" points="738.4 110.2 730.6 110.2 730.6 111.9 738.4 111.9 738.4 133 740.3 133 740.3 111.9 748.1 111.9 748.1 110.2 740.3 110.2 738.4 110.2"/>
    <path class="st0" d="M771.5,122.1c.8-.6,1.4-1.3,1.9-2.2.5-.9.7-1.8.7-2.9,0-1.4-.3-2.7-1-3.7-.6-1-1.5-1.8-2.7-2.3s-2.5-.8-4.1-.8h-7.4v22.8h1.9v-9.5h6.6l5.5,9.5h2v-.2l-5.7-9.7c.9-.2,1.7-.6,2.3-1ZM760.9,121.9v-10h5.5c1.2,0,2.3.2,3.2.6s1.5,1,2,1.8c.4.8.7,1.6.7,2.7,0,.9-.2,1.7-.6,2.4-.4.8-1,1.4-1.8,1.8-.8.5-1.8.7-3,.7h-6Z"/>
    <path class="st0" d="M794.1,110.2h-1.4l-8.6,22.8h2l2.3-6.4h10.3l2.4,6.4h2l-8.6-22.8h-.4ZM789.1,125l4.6-12.4,4.6,12.4h-9.2,0Z"/>
    <polygon class="st0" points="815.6 110.2 813.7 110.2 813.7 133 815.1 133 815.6 133 826.9 133 826.9 131.4 815.6 131.4 815.6 110.2"/>
    <rect class="st0" x="838.2" y="110.2" width="1.9" height="22.8"/>
    <path class="st0" d="M861.4,110.2h-1.4l-8.6,22.8h2l2.3-6.4h10.3l2.4,6.4h2l-8.6-22.8h-.4ZM856.4,125l4.6-12.4,4.6,12.4h-9.2,0Z"/>
  </g>
  <g class="st3">
    <text class="st2" transform="translate(1032.86 124)"><tspan x="0" y="0">Usage Insights</tspan></text>
  </g>
</svg>