<?xml version="1.0" encoding="utf-8"?>
<!-- Generator: Adobe Illustrator 27.9.0, SVG Export Plug-In . SVG Version: 6.00 Build 0)  -->
<svg version="1.1" id="Layer_1" xmlns="http://www.w3.org/2000/svg" xmlns:xlink="http://www.w3.org/1999/xlink" x="0px" y="0px"
	 viewBox="0 0 898 134" style="enable-background:new 0 0 898 134;" xml:space="preserve">
<style type="text/css">
	.st0{fill-rule:evenodd;clip-rule:evenodd;fill:#FFFFFF;}
	.st1{fill:#FFFFFF;}
</style>
<path class="st0" d="M10.8,124H4.6l-0.7,1.7c-0.2,0.4-0.3,0.9-0.4,1.4c0,0.2,0,0.4,0.1,0.6c0.1,0.2,0.3,0.3,0.5,0.5
	c0.5,0.2,1.1,0.3,1.7,0.3v0.5H0v-0.5c0.6-0.1,1.1-0.4,1.5-0.8c0.6-0.8,1.1-1.7,1.5-2.6l6.2-14h0.2l6.3,14.3c0.3,0.9,0.8,1.8,1.5,2.6
	c0.3,0.3,0.8,0.5,1.2,0.5v0.5h-8.4v-0.5h0.3c0.5,0,1-0.1,1.4-0.3c0.1-0.1,0.2-0.2,0.2-0.3c0-0.1,0.1-0.2,0.1-0.3
	c0-0.2,0-0.3-0.1-0.5c0-0.1-0.1-0.4-0.4-1L10.8,124L10.8,124z M10.3,123l-2.6-6l-2.7,6H10.3z"/>
<path class="st1" d="M24.1,116.9v1.6c0.5-0.6,1.1-1.1,1.8-1.4c0.6-0.3,1.2-0.5,1.8-0.5c0.7,0,1.4,0.2,2,0.7c0.5,0.4,0.8,1,1,1.6
	c0.2,0.9,0.2,1.9,0.2,2.8v4.7c-0.1,0.6,0,1.2,0.2,1.7c0.3,0.3,0.7,0.4,1.1,0.4v0.5h-6.1v-0.5c0.2,0,0.4-0.1,0.6-0.2
	c0.2-0.1,0.3-0.2,0.4-0.4c0.2-0.5,0.3-1.1,0.2-1.6V121c0-0.6,0-1.3-0.1-1.9c-0.1-0.2-0.2-0.4-0.4-0.6c-0.2-0.1-0.4-0.2-0.6-0.2
	c-0.7,0-1.4,0.5-2.1,1.6v6.5c-0.1,0.6,0,1.2,0.2,1.7c0.1,0.1,0.3,0.2,0.4,0.3c0.2,0.1,0.3,0.1,0.5,0.1v0.5h-6.1v-0.5
	c0.2,0,0.4,0,0.6-0.1c0.2-0.1,0.4-0.2,0.5-0.4c0.2-0.5,0.3-1.1,0.2-1.7v-6.8c0.1-0.6,0-1.2-0.3-1.7c-0.3-0.3-0.7-0.4-1.1-0.4v-0.5
	H24.1z"/>
<path class="st0" d="M49.3,124h-6.2l-0.7,1.7c-0.2,0.4-0.3,0.9-0.4,1.4c0,0.2,0,0.4,0.1,0.6c0.1,0.2,0.3,0.3,0.5,0.5
	c0.5,0.2,1.1,0.3,1.7,0.3v0.5h-5.8v-0.5c0.6-0.1,1.1-0.4,1.5-0.8c0.6-0.8,1.1-1.7,1.5-2.6l6.2-14H48l6.3,14.3
	c0.3,0.9,0.8,1.8,1.5,2.6c0.3,0.3,0.8,0.5,1.2,0.5v0.5h-8.4v-0.5H49c0.5,0,1-0.1,1.4-0.3c0.1-0.1,0.2-0.2,0.2-0.3
	c0-0.1,0.1-0.2,0.1-0.3c0-0.2,0-0.3-0.1-0.5c0-0.1-0.1-0.4-0.4-1L49.3,124L49.3,124z M48.8,123l-2.6-6l-2.7,6H48.8z"/>
<path class="st1" d="M67.8,116.9v9.4c-0.1,0.6,0,1.2,0.2,1.7c0.3,0.3,0.6,0.4,1,0.4v0.5h-4.9v-1.6c-0.5,0.6-1.1,1.1-1.7,1.5
	c-0.6,0.3-1.3,0.5-1.9,0.5c-0.7,0-1.3-0.2-1.8-0.6c-0.5-0.4-0.9-0.9-1.1-1.5c-0.2-1-0.3-1.9-0.3-2.9v-4.8c0.1-0.6,0-1.2-0.3-1.7
	c-0.3-0.3-0.6-0.4-1-0.4v-0.5H61v8.2c0,0.6,0,1.1,0.1,1.7c0.1,0.2,0.2,0.4,0.4,0.6c0.2,0.1,0.4,0.2,0.6,0.2c0.3,0,0.6-0.1,0.8-0.2
	c0.5-0.4,0.9-0.8,1.2-1.4v-6.4c0.1-0.6,0-1.2-0.3-1.7c-0.3-0.3-0.6-0.4-1-0.4v-0.5H67.8z"/>
<path class="st1" d="M77.5,116.6l0.2,4.1h-0.4c-0.3-0.9-0.9-1.8-1.6-2.5c-0.5-0.4-1.1-0.6-1.7-0.7c-0.2,0-0.3,0-0.5,0.1
	c-0.2,0.1-0.3,0.2-0.4,0.3c-0.1,0.1-0.2,0.2-0.3,0.3c-0.1,0.1-0.1,0.3-0.1,0.4c0,0.1,0,0.3,0.1,0.4c0,0.1,0.1,0.3,0.2,0.4
	c0.7,0.7,1.5,1.3,2.3,1.8c1,0.6,1.8,1.3,2.5,2.2c0.4,0.6,0.6,1.3,0.6,2c0,0.7-0.2,1.4-0.5,2c-0.3,0.6-0.8,1.1-1.4,1.5
	c-0.6,0.3-1.3,0.5-2,0.5c-0.8,0-1.6-0.2-2.3-0.6c-0.2-0.1-0.3-0.1-0.5-0.1c-0.3,0-0.5,0.2-0.7,0.7h-0.4l-0.2-4.3h0.4
	c0.3,1,0.8,1.9,1.6,2.5c0.5,0.5,1.2,0.8,1.9,0.8c0.4,0,0.7-0.1,1-0.4c0.1-0.1,0.2-0.3,0.3-0.4c0.1-0.2,0.1-0.3,0.1-0.5
	c0-0.4-0.1-0.8-0.4-1.1c-0.5-0.5-1.1-1-1.8-1.4c-0.9-0.6-1.8-1.3-2.5-2.1c-0.6-0.7-0.9-1.5-0.8-2.3c0-0.9,0.4-1.8,1-2.5
	c0.3-0.4,0.8-0.7,1.3-0.9c0.5-0.2,1-0.3,1.5-0.3c0.7,0,1.3,0.2,1.9,0.5c0.2,0.1,0.4,0.2,0.6,0.2c0.1,0,0.3,0,0.4-0.1
	c0.2-0.2,0.3-0.3,0.5-0.6L77.5,116.6z"/>
<path class="st1" d="M83.9,112.5v4.4h2.9v1.3h-2.9v7.4c0,0.5,0,0.9,0.1,1.3c0.1,0.2,0.2,0.4,0.3,0.5c0.1,0.1,0.3,0.2,0.5,0.2
	c0.5,0,1.1-0.4,1.6-1.3l0.4,0.3c-0.2,0.7-0.7,1.3-1.3,1.8c-0.6,0.4-1.3,0.7-2.1,0.7c-0.7,0-1.4-0.2-2-0.6c-0.5-0.4-0.8-0.9-1-1.4
	c-0.1-0.8-0.2-1.6-0.1-2.4v-6.5h-1.5v-0.4c1-0.7,1.9-1.5,2.8-2.4c0.8-0.9,1.4-1.8,2-2.8H83.9z"/>
<path class="st1" d="M92.6,116.9v2.7c0.5-1,1.2-1.8,2.1-2.5c0.5-0.4,1.1-0.6,1.7-0.6c0.2,0,0.4,0,0.6,0.1c0.2,0.1,0.4,0.2,0.5,0.3
	c0.2,0.2,0.3,0.4,0.3,0.6c0.1,0.2,0.1,0.4,0.1,0.7c0,0.5-0.1,1-0.4,1.3c-0.1,0.1-0.3,0.3-0.4,0.4c-0.2,0.1-0.4,0.1-0.6,0.1
	c-0.4,0-0.9-0.1-1.2-0.4c-0.3-0.3-0.5-0.5-0.6-0.5c-0.1,0-0.2-0.1-0.3-0.1c-0.3,0-0.5,0.1-0.7,0.3c-0.4,0.3-0.7,0.8-0.8,1.2
	c-0.3,0.9-0.4,1.8-0.4,2.8v3.5c0,0.3,0,0.6,0.1,0.9c0.1,0.2,0.2,0.4,0.4,0.5c0.3,0.1,0.7,0.2,1,0.2v0.5h-6.5v-0.5
	c0.2,0,0.4,0,0.6-0.1c0.2-0.1,0.3-0.2,0.5-0.3c0.3-0.6,0.4-1.3,0.3-2v-6.7c0-0.4,0-0.9-0.1-1.3c-0.1-0.2-0.2-0.4-0.4-0.5
	c-0.3-0.1-0.6-0.2-0.9-0.2v-0.5L92.6,116.9z"/>
<path class="st0" d="M104.7,127.2c-1.1,1.1-2.5,1.8-4,1.9c-0.3,0-0.6,0-0.9-0.2c-0.3-0.1-0.6-0.3-0.8-0.5c-0.2-0.2-0.4-0.5-0.5-0.8
	c-0.1-0.3-0.2-0.6-0.2-0.9c0-0.5,0.1-0.9,0.3-1.4c0.2-0.4,0.5-0.8,0.9-1.1c1.6-1.2,3.3-2.2,5.2-2.9v-1.2c0-0.6,0-1.2-0.2-1.7
	c-0.1-0.3-0.3-0.5-0.6-0.6c-0.3-0.2-0.6-0.3-0.9-0.3c-0.5,0-1,0.1-1.4,0.4c-0.1,0.1-0.2,0.1-0.2,0.2c-0.1,0.1-0.1,0.2-0.1,0.3
	c0,0.3,0.2,0.5,0.4,0.7c0.3,0.3,0.5,0.7,0.5,1.1c0,0.2,0,0.4-0.1,0.6s-0.2,0.4-0.4,0.5c-0.3,0.3-0.8,0.5-1.2,0.4
	c-0.5,0-1-0.2-1.4-0.5c-0.2-0.1-0.3-0.3-0.4-0.5c-0.1-0.2-0.1-0.4-0.1-0.6c0-0.7,0.3-1.3,0.7-1.8c0.5-0.6,1.2-1,2-1.3
	c0.9-0.3,1.8-0.5,2.7-0.5c1-0.1,1.9,0.2,2.7,0.7c0.6,0.4,1,0.9,1.3,1.6c0.2,0.8,0.2,1.7,0.2,2.5v4.7c0,0.3,0,0.7,0.1,1
	c0,0.1,0.1,0.2,0.2,0.3c0.1,0.1,0.2,0.1,0.3,0.1c0.1,0,0.3-0.1,0.4-0.2c0.1-0.1,0.2-0.2,0.3-0.3l0.4,0.3c-0.3,0.5-0.8,1-1.3,1.4
	c-0.5,0.3-1,0.4-1.6,0.4c-0.6,0-1.1-0.1-1.6-0.5C104.9,128.2,104.6,127.7,104.7,127.2L104.7,127.2z M104.7,122.2
	c-0.9,0.5-1.7,1.2-2.3,2c-0.3,0.4-0.5,0.9-0.5,1.4c0,0.4,0.2,0.7,0.4,1c0.1,0.1,0.3,0.2,0.4,0.3c0.2,0.1,0.3,0.1,0.5,0.1
	c0.6-0.1,1.1-0.3,1.5-0.7V122.2z"/>
<path class="st1" d="M115.2,111.5v15c-0.1,0.6,0,1.1,0.3,1.6c0.3,0.3,0.7,0.4,1.2,0.4v0.5h-6.5v-0.5c0.2,0,0.4,0,0.6-0.1
	c0.2-0.1,0.4-0.2,0.5-0.4c0.2-0.5,0.3-1,0.3-1.6V114c0.1-0.6,0-1.1-0.3-1.6c-0.2-0.1-0.3-0.3-0.5-0.3c-0.2-0.1-0.4-0.1-0.6-0.1v-0.5
	H115.2z"/>
<path class="st0" d="M120.7,111.1c0.3,0,0.5,0,0.8,0.1c0.2,0.1,0.5,0.3,0.6,0.5c0.2,0.2,0.3,0.4,0.4,0.6c0.1,0.2,0.1,0.5,0.1,0.8
	c0,0.3,0,0.5-0.1,0.8c-0.1,0.2-0.3,0.5-0.4,0.6c-0.4,0.4-0.9,0.6-1.4,0.6c-0.5,0-1-0.2-1.4-0.6s-0.6-0.9-0.6-1.4s0.2-1,0.6-1.4
	S120.2,111.1,120.7,111.1L120.7,111.1z M122.5,116.9v9.6c-0.1,0.6,0,1.1,0.3,1.6c0.3,0.3,0.7,0.4,1.2,0.4v0.5h-6.5v-0.5
	c0.2,0,0.4,0,0.6-0.1c0.2-0.1,0.4-0.2,0.5-0.4c0.2-0.5,0.3-1,0.3-1.6v-7c0.1-0.6,0-1.1-0.3-1.6c-0.2-0.1-0.3-0.3-0.5-0.3
	c-0.2-0.1-0.4-0.1-0.6-0.1v-0.5L122.5,116.9z"/>
<path class="st0" d="M131,127.2c-1.1,1.1-2.5,1.8-4,1.9c-0.3,0-0.6,0-0.9-0.2c-0.3-0.1-0.6-0.3-0.8-0.5c-0.2-0.2-0.4-0.5-0.5-0.8
	c-0.1-0.3-0.2-0.6-0.2-0.9c0-0.5,0.1-0.9,0.3-1.4c0.2-0.4,0.5-0.8,0.9-1.1c1.6-1.2,3.3-2.2,5.2-2.9v-1.2c0-0.6,0-1.2-0.2-1.7
	c-0.1-0.3-0.3-0.5-0.6-0.6c-0.3-0.2-0.6-0.3-0.9-0.3c-0.5,0-1,0.1-1.4,0.4c-0.1,0.1-0.2,0.1-0.2,0.2c-0.1,0.1-0.1,0.2-0.1,0.3
	c0,0.3,0.2,0.5,0.4,0.7c0.3,0.3,0.5,0.7,0.5,1.1c0,0.2,0,0.4-0.1,0.6c-0.1,0.2-0.2,0.4-0.4,0.5c-0.3,0.3-0.8,0.5-1.2,0.4
	c-0.5,0-1-0.2-1.4-0.5c-0.2-0.1-0.3-0.3-0.4-0.5c-0.1-0.2-0.1-0.4-0.1-0.6c0-0.7,0.3-1.3,0.7-1.8c0.6-0.6,1.3-1.1,2-1.3
	c0.9-0.3,1.8-0.5,2.7-0.5c1-0.1,1.9,0.2,2.7,0.7c0.6,0.4,1,0.9,1.3,1.6c0.2,0.8,0.2,1.7,0.2,2.5v4.7c0,0.3,0,0.7,0.1,1
	c0,0.1,0.1,0.2,0.2,0.3c0.1,0.1,0.2,0.1,0.3,0.1c0.1,0,0.3-0.1,0.4-0.2c0.1-0.1,0.2-0.2,0.3-0.3l0.4,0.3c-0.3,0.5-0.8,1-1.3,1.4
	c-0.5,0.3-1,0.4-1.6,0.4c-0.6,0-1.1-0.1-1.6-0.5C131.2,128.2,131,127.7,131,127.2L131,127.2z M131,122.2c-0.9,0.5-1.7,1.2-2.3,2
	c-0.3,0.4-0.5,0.9-0.5,1.4c0,0.4,0.2,0.7,0.4,1c0.1,0.1,0.3,0.2,0.4,0.3c0.2,0.1,0.3,0.1,0.5,0.1c0.6-0.1,1.1-0.3,1.5-0.7V122.2z"/>
<path class="st1" d="M141.4,116.9v1.6c0.5-0.6,1.1-1.1,1.8-1.4c0.6-0.3,1.2-0.5,1.8-0.5c0.7,0,1.4,0.2,1.9,0.7c0.5,0.4,0.8,1,1,1.6
	c0.2,0.9,0.2,1.9,0.2,2.8v4.7c-0.1,0.6,0,1.2,0.2,1.7c0.3,0.3,0.7,0.4,1.1,0.4v0.5h-6.1v-0.5c0.2,0,0.4-0.1,0.6-0.2
	c0.2-0.1,0.3-0.2,0.4-0.4c0.2-0.5,0.3-1.1,0.2-1.6V121c0-0.6,0-1.3-0.1-1.9c-0.1-0.2-0.2-0.4-0.4-0.6c-0.2-0.1-0.4-0.2-0.6-0.2
	c-0.7,0-1.4,0.5-2.1,1.6v6.5c-0.1,0.6,0,1.2,0.2,1.7c0.1,0.1,0.3,0.2,0.4,0.3c0.2,0.1,0.3,0.1,0.5,0.1v0.5h-6.1v-0.5
	c0.2,0,0.4,0,0.6-0.1c0.2-0.1,0.4-0.2,0.5-0.4c0.2-0.5,0.3-1.1,0.2-1.7v-6.8c0.1-0.6,0-1.2-0.2-1.7c-0.3-0.3-0.7-0.4-1.1-0.4v-0.5
	H141.4z"/>
<path class="st1" d="M173.2,111.1v6.2h-0.5c-0.5-1.5-1.4-2.9-2.6-3.8c-1.1-0.9-2.4-1.3-3.8-1.3c-1.2,0-2.3,0.4-3.3,1.1
	c-0.9,0.8-1.6,1.9-1.8,3.1c-0.4,1.3-0.5,2.6-0.5,4c0,1.5,0.2,3,0.6,4.4c0.3,1.1,1,2.1,1.9,2.8c0.9,0.6,2,0.9,3.1,0.9
	c0.4,0,0.9,0,1.3-0.1c0.5-0.1,0.9-0.2,1.4-0.4v-3.6c0-0.4,0-0.9-0.1-1.3c-0.1-0.2-0.3-0.4-0.6-0.6c-0.3-0.2-0.7-0.3-1.1-0.2h-0.4
	v-0.5h8.5v0.5c-0.5,0-0.9,0.1-1.4,0.3c-0.3,0.1-0.5,0.4-0.6,0.7c-0.1,0.4-0.1,0.8-0.1,1.2v3.6c-1.1,0.5-2.3,0.9-3.5,1.1
	c-1.2,0.3-2.5,0.4-3.8,0.4c-1.4,0-2.8-0.2-4.1-0.7c-1.1-0.4-2-1-2.9-1.8c-0.9-0.8-1.7-1.8-2.2-2.9c-0.5-1.1-0.7-2.3-0.7-3.6
	c0-1.2,0.2-2.5,0.7-3.6c0.5-1.1,1.2-2.2,2.1-3c0.9-0.9,2-1.6,3.2-2.1c1.2-0.5,2.5-0.7,3.8-0.6c0.8,0,1.6,0.1,2.3,0.2
	c0.6,0.1,1.2,0.3,1.8,0.6c0.5,0.2,1,0.4,1.5,0.5c0.2,0,0.5-0.1,0.7-0.3c0.3-0.3,0.5-0.6,0.6-1H173.2z"/>
<path class="st0" d="M181.6,116.5c1,0,2,0.3,2.9,0.8c0.9,0.6,1.6,1.4,2,2.3c0.5,1,0.7,2.1,0.7,3.3c0,1.5-0.4,3-1.3,4.3
	c-0.5,0.7-1.2,1.2-1.9,1.6s-1.6,0.5-2.4,0.5c-0.8,0-1.6-0.1-2.3-0.4s-1.4-0.8-1.9-1.5c-1-1.3-1.5-2.9-1.5-4.5c0-1.6,0.5-3.2,1.5-4.5
	c0.5-0.6,1.1-1.1,1.8-1.5S180.7,116.5,181.6,116.5L181.6,116.5z M181.6,117.5c-0.2,0-0.4,0-0.6,0.1c-0.2,0.1-0.4,0.2-0.5,0.4
	c-0.4,0.6-0.6,1.3-0.6,2c-0.1,1-0.1,2.3-0.1,4.1c0,0.9,0.1,1.7,0.2,2.6c0.1,0.5,0.3,1,0.6,1.4c0.1,0.1,0.3,0.3,0.5,0.4
	c0.2,0.1,0.4,0.1,0.6,0.1c0.4,0,0.7-0.1,1-0.3c0.4-0.3,0.6-0.8,0.7-1.2c0.2-1.7,0.3-3.3,0.3-5c0-1,0-2-0.2-3
	c-0.1-0.5-0.4-0.9-0.7-1.2C182.3,117.5,182,117.4,181.6,117.5L181.6,117.5z"/>
<path class="st1" d="M193,129.3l-4.1-9.3c-0.3-0.8-0.7-1.5-1.2-2.1c-0.2-0.2-0.5-0.4-0.9-0.4v-0.5h6.4v0.5c-0.3,0-0.6,0-0.8,0.2
	c-0.1,0.1-0.2,0.2-0.2,0.3c-0.1,0.1-0.1,0.2-0.1,0.4c0.1,0.6,0.3,1.2,0.6,1.8l2,4.5l1.6-3.9c0.4-0.7,0.6-1.5,0.7-2.4
	c0-0.1,0-0.2-0.1-0.4c0-0.1-0.1-0.2-0.2-0.3c-0.3-0.2-0.6-0.3-1-0.3v-0.5h3.9v0.5c-0.3,0-0.7,0.2-0.9,0.4c-0.5,0.6-0.8,1.3-1.1,2
	l-4,9.5L193,129.3z"/>
<path class="st0" d="M209.1,122.5h-6.6c0,1.4,0.5,2.7,1.3,3.8c0.3,0.3,0.6,0.6,0.9,0.8c0.4,0.2,0.8,0.3,1.2,0.3c0.5,0,1-0.1,1.4-0.4
	c0.5-0.4,1-1,1.3-1.6l0.4,0.3c-0.5,1.1-1.2,2.1-2.2,2.8c-0.8,0.6-1.8,0.8-2.7,0.8c-0.8,0-1.6-0.1-2.3-0.5c-0.7-0.4-1.3-0.9-1.8-1.6
	c-0.8-1.2-1.2-2.7-1.1-4.1c-0.1-1.7,0.5-3.5,1.6-4.8c0.5-0.6,1.1-1,1.7-1.3c0.7-0.3,1.4-0.5,2.1-0.5c0.6,0,1.2,0.1,1.8,0.4
	c0.5,0.3,1,0.6,1.4,1.1C208.6,119.3,209.1,120.9,209.1,122.5z M205.9,121.6c0-1,0-1.9-0.2-2.8c-0.1-0.4-0.3-0.9-0.7-1.2
	c-0.2-0.2-0.5-0.2-0.7-0.2c-0.2,0-0.4,0.1-0.6,0.2c-0.2,0.1-0.4,0.3-0.5,0.5c-0.6,0.9-0.8,2-0.8,3.1v0.4L205.9,121.6z"/>
<path class="st1" d="M214.8,116.9v2.7c0.5-1,1.2-1.8,2.1-2.5c0.5-0.4,1.1-0.6,1.7-0.6c0.2,0,0.4,0,0.6,0.1c0.2,0.1,0.4,0.2,0.5,0.3
	c0.2,0.2,0.3,0.4,0.3,0.6c0.1,0.2,0.1,0.4,0.1,0.7c0,0.5-0.1,1-0.4,1.3c-0.1,0.1-0.3,0.3-0.4,0.4s-0.4,0.1-0.6,0.1
	c-0.4,0-0.9-0.1-1.2-0.4c-0.3-0.3-0.5-0.5-0.6-0.5c-0.1,0-0.2-0.1-0.3-0.1c-0.3,0-0.5,0.1-0.7,0.3c-0.4,0.3-0.7,0.8-0.8,1.2
	c-0.3,0.9-0.4,1.8-0.4,2.8v3.5c0,0.3,0,0.6,0.1,0.9c0.1,0.2,0.2,0.4,0.4,0.5c0.3,0.1,0.7,0.2,1,0.2v0.5h-6.5v-0.5
	c0.2,0,0.4,0,0.6-0.1c0.2-0.1,0.3-0.2,0.5-0.3c0.3-0.6,0.4-1.3,0.3-2v-6.7c0-0.4,0-0.9-0.1-1.3c-0.1-0.2-0.2-0.4-0.4-0.5
	c-0.3-0.1-0.6-0.2-0.9-0.2v-0.5L214.8,116.9z"/>
<path class="st1" d="M225.9,116.9v1.6c0.5-0.6,1.1-1.1,1.8-1.4c0.6-0.3,1.2-0.5,1.8-0.5c0.7,0,1.4,0.2,1.9,0.7c0.5,0.4,0.8,1,1,1.6
	c0.2,0.9,0.2,1.9,0.2,2.8v4.7c-0.1,0.6,0,1.2,0.2,1.7c0.3,0.3,0.6,0.4,1,0.4v0.5h-6.1v-0.5c0.2,0,0.4-0.1,0.6-0.2
	c0.2-0.1,0.3-0.2,0.4-0.4c0.2-0.5,0.2-1.1,0.2-1.6V121c0-0.6,0-1.3-0.1-1.9c-0.1-0.2-0.2-0.4-0.4-0.6c-0.2-0.1-0.4-0.2-0.6-0.2
	c-0.7,0-1.4,0.5-2.1,1.6v6.5c-0.1,0.6,0,1.2,0.2,1.7c0.1,0.1,0.3,0.2,0.4,0.3c0.2,0.1,0.3,0.1,0.5,0.1v0.5h-6v-0.5
	c0.2,0,0.4,0,0.6-0.1c0.2-0.1,0.4-0.2,0.5-0.4c0.2-0.5,0.3-1.1,0.2-1.7v-6.8c0.1-0.6,0-1.2-0.3-1.7c-0.3-0.3-0.6-0.4-1-0.4v-0.5
	H225.9z"/>
<path class="st1" d="M239.9,116.9v1.6c0.5-0.6,1.1-1.1,1.8-1.5c0.6-0.3,1.2-0.4,1.9-0.4c0.7,0,1.4,0.2,2,0.5c0.6,0.4,1,1,1.2,1.7
	c0.6-0.7,1.2-1.2,2-1.7c0.6-0.3,1.3-0.5,2-0.5c0.7,0,1.4,0.2,2,0.6c0.5,0.4,0.8,0.9,1,1.5c0.2,0.9,0.3,1.9,0.3,2.8v4.9
	c-0.1,0.6,0,1.2,0.2,1.7c0.3,0.3,0.7,0.4,1.1,0.4v0.5h-6.2v-0.5c0.2,0,0.4-0.1,0.6-0.2c0.2-0.1,0.3-0.2,0.5-0.4
	c0.2-0.5,0.3-1,0.2-1.6v-5.2c0-0.7,0-1.3-0.1-2c-0.1-0.3-0.2-0.5-0.4-0.6c-0.2-0.1-0.4-0.2-0.6-0.2c-0.4,0-0.8,0.2-1.1,0.4
	c-0.4,0.3-0.8,0.7-1.1,1.2v6.5c-0.1,0.6,0,1.1,0.2,1.6c0.1,0.2,0.3,0.3,0.5,0.4c0.2,0.1,0.4,0.1,0.6,0.1v0.5h-6.2v-0.5
	c0.3,0,0.6-0.1,0.8-0.2c0.2-0.1,0.3-0.3,0.4-0.5c0.1-0.4,0.1-0.9,0.1-1.4v-5.2c0-0.7,0-1.3-0.1-2c-0.1-0.3-0.2-0.5-0.4-0.6
	c-0.2-0.1-0.4-0.2-0.6-0.2c-0.4,0-0.7,0.1-1,0.3c-0.5,0.4-0.9,0.8-1.3,1.4v6.5c0,0.6,0,1.1,0.2,1.7c0.1,0.2,0.3,0.3,0.5,0.4
	c0.2,0.1,0.4,0.1,0.6,0.1v0.5H235v-0.5c0.2,0,0.4,0,0.6-0.1c0.2-0.1,0.4-0.2,0.5-0.4c0.2-0.5,0.3-1.1,0.2-1.7v-6.9
	c0.1-0.6,0-1.2-0.3-1.7c-0.3-0.3-0.7-0.4-1.1-0.4v-0.5H239.9z"/>
<path class="st0" d="M266,122.5h-6.6c0,1.4,0.4,2.7,1.3,3.8c0.3,0.3,0.6,0.6,0.9,0.8c0.4,0.2,0.8,0.3,1.2,0.3c0.5,0,1-0.1,1.4-0.4
	c0.5-0.4,1-1,1.4-1.6l0.4,0.3c-0.5,1.1-1.2,2.1-2.2,2.8c-0.8,0.6-1.8,0.8-2.7,0.8c-0.8,0-1.6-0.1-2.3-0.5c-0.7-0.4-1.3-0.9-1.8-1.6
	c-0.8-1.2-1.2-2.7-1.1-4.1c-0.1-1.7,0.5-3.5,1.6-4.8c0.5-0.6,1.1-1,1.7-1.3c0.7-0.3,1.4-0.5,2.1-0.5c0.6,0,1.2,0.1,1.8,0.4
	c0.5,0.3,1,0.6,1.4,1.1C265.5,119.3,266.1,120.9,266,122.5z M262.8,121.6c0-1,0-1.9-0.2-2.8c-0.1-0.5-0.4-0.9-0.7-1.2
	c-0.2-0.2-0.5-0.2-0.7-0.2c-0.2,0-0.4,0.1-0.6,0.2c-0.2,0.1-0.4,0.3-0.5,0.5c-0.6,0.9-0.8,2-0.8,3.1v0.4L262.8,121.6z"/>
<path class="st1" d="M271.4,116.9v1.6c0.5-0.6,1.1-1.1,1.8-1.4c0.6-0.3,1.2-0.5,1.8-0.5c0.7,0,1.4,0.2,1.9,0.7c0.5,0.4,0.8,1,1,1.6
	c0.2,0.9,0.2,1.9,0.2,2.8v4.7c-0.1,0.6,0,1.2,0.2,1.7c0.3,0.3,0.7,0.4,1.1,0.4v0.5h-6.1v-0.5c0.2,0,0.4-0.1,0.6-0.2
	c0.2-0.1,0.3-0.2,0.4-0.4c0.2-0.5,0.3-1.1,0.2-1.6V121c0-0.6,0-1.3-0.1-1.9c-0.1-0.2-0.2-0.4-0.4-0.6c-0.2-0.1-0.4-0.2-0.6-0.2
	c-0.7,0-1.4,0.5-2.1,1.6v6.5c-0.1,0.6,0,1.2,0.2,1.7c0.1,0.1,0.3,0.2,0.4,0.3c0.2,0.1,0.3,0.1,0.5,0.1v0.5h-6.1v-0.5
	c0.2,0,0.4,0,0.6-0.1c0.2-0.1,0.4-0.2,0.5-0.4c0.2-0.5,0.3-1.1,0.2-1.7v-6.8c0.1-0.6,0-1.2-0.3-1.7c-0.3-0.3-0.7-0.4-1-0.4v-0.5
	H271.4z"/>
<path class="st1" d="M284.6,112.5v4.4h2.9v1.3h-2.9v7.4c0,0.5,0,0.9,0.1,1.3c0.1,0.2,0.2,0.4,0.3,0.5c0.1,0.1,0.3,0.2,0.5,0.2
	c0.6,0,1.1-0.4,1.6-1.3l0.4,0.3c-0.2,0.7-0.7,1.3-1.3,1.8c-0.6,0.4-1.3,0.7-2.1,0.7c-0.7,0-1.4-0.2-2-0.6c-0.5-0.4-0.8-0.9-1-1.4
	c-0.1-0.8-0.2-1.6-0.1-2.4v-6.5h-1.6v-0.4c1-0.7,1.9-1.5,2.8-2.4c0.8-0.9,1.5-1.8,2-2.8H284.6z"/>
<path class="st1" d="M302.2,128.5v0.5H293v-0.5h0.6c0.4,0,0.8-0.1,1.2-0.3c0.2-0.1,0.4-0.4,0.5-0.6c0.1-0.5,0.2-1.1,0.1-1.6v-11.5
	c0-0.6,0-1.1-0.1-1.7c-0.1-0.3-0.3-0.5-0.6-0.6c-0.4-0.2-0.8-0.3-1.2-0.3H293v-0.5h9.1v0.5h-0.6c-0.4,0-0.9,0.1-1.2,0.3
	c-0.2,0.1-0.4,0.4-0.5,0.6c-0.1,0.5-0.2,1.1-0.1,1.6V126c0,0.6,0,1.1,0.1,1.7c0.1,0.2,0.3,0.5,0.6,0.6c0.4,0.2,0.8,0.3,1.2,0.2
	H302.2z"/>
<path class="st1" d="M308.1,116.9v1.6c0.5-0.6,1.1-1.1,1.8-1.4c0.6-0.3,1.2-0.5,1.8-0.5c0.7,0,1.4,0.2,1.9,0.7c0.5,0.4,0.8,1,1,1.6
	c0.2,0.9,0.2,1.9,0.2,2.8v4.7c-0.1,0.6,0,1.2,0.2,1.7c0.3,0.3,0.6,0.4,1,0.4v0.5H310v-0.5c0.2,0,0.4-0.1,0.6-0.2
	c0.2-0.1,0.3-0.2,0.4-0.4c0.2-0.5,0.2-1.1,0.2-1.6V121c0-0.6,0-1.3-0.1-1.9c-0.1-0.2-0.2-0.4-0.4-0.6c-0.2-0.1-0.4-0.2-0.6-0.2
	c-0.7,0-1.4,0.5-2.1,1.6v6.5c-0.1,0.6,0,1.2,0.2,1.7c0.1,0.1,0.3,0.2,0.4,0.3c0.2,0.1,0.3,0.1,0.5,0.1v0.5h-6.1v-0.5
	c0.2,0,0.4,0,0.6-0.1s0.4-0.2,0.5-0.4c0.2-0.5,0.3-1.1,0.2-1.7v-6.8c0.1-0.6,0-1.2-0.3-1.7c-0.3-0.3-0.6-0.4-1-0.4v-0.5H308.1z"/>
<path class="st0" d="M320.2,111.1c0.5,0,1,0.2,1.4,0.6s0.6,0.9,0.6,1.4s-0.2,1-0.6,1.4s-0.9,0.6-1.4,0.6s-1-0.2-1.4-0.6
	s-0.6-0.9-0.6-1.4c0-0.3,0-0.5,0.1-0.8c0.1-0.2,0.2-0.5,0.4-0.6c0.2-0.2,0.4-0.3,0.6-0.4C319.7,111.1,319.9,111.1,320.2,111.1
	L320.2,111.1z M322,116.9v9.6c-0.1,0.6,0,1.1,0.3,1.6c0.3,0.3,0.7,0.4,1.2,0.4v0.5h-6.5v-0.5c0.2,0,0.4,0,0.6-0.1
	c0.2-0.1,0.4-0.2,0.5-0.4c0.2-0.5,0.3-1,0.2-1.6v-7c0.1-0.6,0-1.1-0.3-1.6c-0.2-0.1-0.3-0.3-0.5-0.3c-0.2-0.1-0.4-0.1-0.6-0.1v-0.5
	L322,116.9z"/>
<path class="st1" d="M328.9,112.5v4.4h2.9v1.3h-2.9v7.4c0,0.5,0,0.9,0.1,1.3c0.1,0.2,0.2,0.4,0.4,0.5c0.1,0.1,0.3,0.2,0.4,0.2
	c0.6,0,1.1-0.4,1.6-1.3l0.4,0.3c-0.2,0.7-0.7,1.3-1.3,1.8c-0.6,0.4-1.3,0.7-2.1,0.7c-0.7,0-1.4-0.2-2-0.6c-0.5-0.4-0.8-0.9-1-1.4
	c-0.1-0.8-0.2-1.6-0.1-2.4v-6.5h-1.5v-0.4c1-0.7,1.9-1.5,2.8-2.4c0.8-0.9,1.4-1.8,2-2.8H328.9z"/>
<path class="st0" d="M335.8,111.1c0.5,0,1,0.2,1.4,0.6s0.6,0.9,0.6,1.4s-0.2,1-0.6,1.4s-0.9,0.6-1.4,0.6s-1-0.2-1.4-0.6
	s-0.6-0.9-0.6-1.4c0-0.3,0-0.5,0.1-0.8c0.1-0.2,0.2-0.5,0.4-0.6c0.2-0.2,0.4-0.3,0.6-0.4C335.3,111.1,335.5,111.1,335.8,111.1
	L335.8,111.1z M337.6,116.9v9.6c-0.1,0.6,0,1.1,0.3,1.6c0.3,0.3,0.7,0.4,1.2,0.4v0.5h-6.5v-0.5c0.2,0,0.4,0,0.6-0.1
	c0.2-0.1,0.4-0.2,0.5-0.4c0.2-0.5,0.3-1,0.3-1.6v-7c0.1-0.6,0-1.1-0.3-1.6c-0.2-0.1-0.3-0.3-0.5-0.3c-0.2-0.1-0.4-0.1-0.6-0.1v-0.5
	L337.6,116.9z"/>
<path class="st0" d="M346.6,127.2c-1.1,1.1-2.5,1.8-4,1.9c-0.3,0-0.6,0-0.9-0.2c-0.3-0.1-0.6-0.3-0.8-0.5c-0.2-0.2-0.4-0.5-0.5-0.8
	c-0.1-0.3-0.2-0.6-0.2-0.9c0-0.5,0.1-0.9,0.3-1.4c0.2-0.4,0.5-0.8,0.9-1.1c1.6-1.2,3.3-2.2,5.2-2.9v-1.2c0-0.6,0-1.2-0.2-1.7
	c-0.1-0.3-0.3-0.5-0.6-0.6c-0.3-0.2-0.6-0.3-0.9-0.3c-0.5,0-1,0.1-1.4,0.4c-0.1,0.1-0.2,0.1-0.2,0.2c-0.1,0.1-0.1,0.2-0.1,0.3
	c0,0.3,0.2,0.5,0.4,0.7c0.3,0.3,0.5,0.7,0.5,1.1c0,0.2,0,0.4-0.1,0.6c-0.1,0.2-0.2,0.4-0.4,0.5c-0.3,0.3-0.8,0.5-1.2,0.4
	c-0.5,0-1-0.2-1.4-0.5c-0.2-0.1-0.3-0.3-0.4-0.5c-0.1-0.2-0.1-0.4-0.1-0.6c0-0.7,0.3-1.3,0.7-1.8c0.5-0.6,1.2-1,2-1.3
	c0.9-0.3,1.8-0.5,2.7-0.5c1-0.1,1.9,0.2,2.7,0.7c0.6,0.4,1,0.9,1.3,1.6c0.2,0.8,0.2,1.7,0.2,2.5v4.7c0,0.3,0,0.7,0.1,1
	c0,0.1,0.1,0.2,0.2,0.3c0.1,0.1,0.2,0.1,0.3,0.1c0.1,0,0.3-0.1,0.4-0.2c0.1-0.1,0.2-0.2,0.3-0.3l0.4,0.3c-0.3,0.5-0.8,1-1.3,1.4
	c-0.5,0.3-1,0.4-1.6,0.4c-0.6,0-1.1-0.1-1.6-0.5C346.8,128.2,346.6,127.7,346.6,127.2L346.6,127.2z M346.6,122.2
	c-0.9,0.5-1.7,1.2-2.3,2c-0.3,0.4-0.5,0.9-0.5,1.4c0,0.4,0.2,0.7,0.4,1c0.1,0.1,0.3,0.2,0.4,0.3c0.2,0.1,0.3,0.1,0.5,0.1
	c0.6-0.1,1.1-0.3,1.5-0.7V122.2z"/>
<path class="st1" d="M356.9,112.5v4.4h2.9v1.3h-2.9v7.4c0,0.5,0,0.9,0.1,1.3c0.1,0.2,0.2,0.4,0.4,0.5c0.1,0.1,0.3,0.2,0.4,0.2
	c0.6,0,1.1-0.4,1.6-1.3l0.4,0.3c-0.2,0.7-0.7,1.3-1.3,1.8c-0.6,0.4-1.3,0.7-2.1,0.7c-0.7,0-1.4-0.2-1.9-0.6c-0.5-0.4-0.8-0.9-1-1.4
	c-0.1-0.8-0.2-1.6-0.1-2.4v-6.5h-1.6v-0.4c1-0.7,1.9-1.5,2.8-2.4c0.8-0.9,1.5-1.8,2-2.8H356.9z"/>
<path class="st0" d="M363.8,111.1c0.3,0,0.5,0,0.8,0.1c0.2,0.1,0.5,0.3,0.6,0.5c0.2,0.2,0.3,0.4,0.4,0.6s0.1,0.5,0.1,0.8
	c0,0.3,0,0.5-0.1,0.8c-0.1,0.2-0.3,0.5-0.4,0.6c-0.4,0.4-0.9,0.6-1.4,0.6c-0.5,0-1-0.2-1.4-0.6s-0.6-0.9-0.6-1.4s0.2-1,0.6-1.4
	S363.3,111.1,363.8,111.1L363.8,111.1z M365.6,116.9v9.6c-0.1,0.6,0,1.1,0.3,1.6c0.2,0.1,0.3,0.2,0.5,0.3c0.2,0.1,0.4,0.1,0.6,0.1
	v0.5h-6.5v-0.5c0.2,0,0.4,0,0.6-0.1c0.2-0.1,0.4-0.2,0.5-0.4c0.2-0.5,0.3-1,0.3-1.6v-7c0.1-0.6,0-1.1-0.3-1.6
	c-0.2-0.1-0.3-0.3-0.5-0.3c-0.2-0.1-0.4-0.1-0.6-0.1v-0.5L365.6,116.9z"/>
<path class="st1" d="M372.9,129.3l-4.1-9.3c-0.3-0.8-0.7-1.5-1.1-2.1c-0.2-0.2-0.5-0.4-0.9-0.4v-0.5h6.4v0.5c-0.3,0-0.6,0-0.8,0.2
	c-0.1,0.1-0.2,0.2-0.2,0.3c-0.1,0.1-0.1,0.2-0.1,0.4c0.1,0.6,0.3,1.2,0.6,1.8l2,4.5l1.6-3.9c0.4-0.7,0.6-1.5,0.7-2.4
	c0-0.1,0-0.2-0.1-0.4s-0.1-0.2-0.2-0.3c-0.3-0.2-0.6-0.3-1-0.3v-0.5h3.9v0.5c-0.3,0-0.7,0.2-0.9,0.4c-0.5,0.6-0.8,1.3-1.1,2l-4,9.5
	L372.9,129.3z"/>
<path class="st0" d="M388.7,122.5h-6.6c0,1.4,0.4,2.7,1.3,3.8c0.2,0.3,0.6,0.6,0.9,0.8c0.4,0.2,0.8,0.3,1.2,0.3c0.5,0,1-0.2,1.4-0.4
	c0.5-0.4,1-1,1.4-1.6l0.4,0.3c-0.5,1.1-1.2,2.1-2.2,2.8c-0.8,0.6-1.8,0.8-2.8,0.8c-0.8,0-1.6-0.1-2.3-0.5c-0.7-0.4-1.3-0.9-1.8-1.6
	c-0.8-1.2-1.2-2.7-1.1-4.1c-0.1-1.7,0.5-3.5,1.6-4.8c0.5-0.6,1.1-1,1.7-1.3c0.7-0.3,1.4-0.5,2.1-0.5c0.6,0,1.2,0.1,1.8,0.4
	c0.5,0.3,1,0.6,1.4,1.1C388.3,119.3,388.8,120.9,388.7,122.5z M385.6,121.6c0-1,0-1.9-0.2-2.8c-0.1-0.4-0.4-0.9-0.7-1.2
	c-0.2-0.2-0.5-0.2-0.7-0.2c-0.2,0-0.4,0.1-0.6,0.2c-0.2,0.1-0.3,0.3-0.5,0.5c-0.6,0.9-0.8,2-0.8,3.1v0.4L385.6,121.6z"/>
<path class="st1" d="M173.9,80.4c-0.1,0.1-0.2,0.3-0.3,0.3L173.9,80.4z"/>
<path class="st1" d="M177,56.8c0.2,0,0.3-0.1,0.4-0.2c0.1-0.1,0.2-0.3,0.2-0.4c0-0.1,0-0.2,0-0.2s-0.1-0.1-0.1-0.2
	c-0.1-0.1-0.1-0.1-0.2-0.1c-0.1,0-0.2,0-0.2,0s-0.2,0-0.2,0c-0.1,0-0.1,0.1-0.2,0.1c-0.1,0.1-0.1,0.1-0.1,0.2s0,0.2,0,0.2
	c0,0.2,0.1,0.3,0.2,0.4C176.7,56.7,176.8,56.8,177,56.8z"/>
<path class="st1" d="M206.2,30.1h-22.8v18.4c0,1.8,0.8,3.3,1.8,3.8l8.8,5.2c0.1,0.1,0.2,0.2,0.4,0.3c0.1,0.1,0.3,0.1,0.4,0.1
	c0.3,0,0.5-0.1,0.7-0.3l8.9-5.3c1-0.5,1.8-2,1.8-3.8L206.2,30.1L206.2,30.1z M191,35.4h-2v-4.7h2V35.4z M189.6,37.1l0.3-0.3
	l-0.2-0.3h0.4l0.2-0.4l0.2,0.4h0.4l-0.2,0.3L191,37l-0.4,0.1v0.4l-0.3-0.2l-0.3,0.2v-0.4L189.6,37.1L189.6,37.1z M184.1,42.9v-4.5
	h2.4v4.5H184.1z M184.5,36.4h0.4l0.2-0.4l0.2,0.4h0.4l-0.2,0.3l0.3,0.3l-0.4,0.1v0.4l-0.3-0.2l-0.3,0.2v-0.4l-0.4-0.1l0.3-0.3
	L184.5,36.4L184.5,36.4z M187.2,41h0.4l0.2-0.4L188,41h0.4l-0.2,0.3l0.3,0.3l-0.4,0.1v0.4l-0.3-0.2l-0.3,0.2v-0.4l-0.4-0.1l0.3-0.3
	L187.2,41L187.2,41z M188.8,37.4c0-0.1-0.2-0.2-0.2-0.2c-0.1,0-0.3,0.4-0.5,0.4c-0.2,0-0.2,0-0.2-0.1s0.3-0.2,0.4-0.3
	c-1.5,0-1.5,0.7-1.7,0.7c-0.4,0,0.3-0.7,0.5-0.9c-0.3,0-0.5-0.4-0.8-0.6c0.1-0.2,0.2-0.1,0.4,0c0-0.2,0.1-0.3,0.5-0.3
	c0.7,0,0.5,0.6,0.6,0.6c0.1,0,0-0.6,0.4-0.6c0.6,0,1.5,1.7,0.7,1.7C188.5,37.6,188.8,37.4,188.8,37.4L188.8,37.4z M187.1,32.5
	l0.3-0.3l-0.2-0.3h0.4l0.2-0.4l0.2,0.4h0.4l-0.2,0.3l0.3,0.3l-0.4,0.1v0.4l-0.3-0.2l-0.3,0.2v-0.4L187.1,32.5L187.1,32.5z
	 M186.5,30.7v4.7h-2.4v-4.7H186.5z M191,55l-5.4-3.3c-0.5-0.4-0.8-0.8-1.1-1.3s-0.4-1.1-0.4-1.7v-5.2h6.9V55z M189,42.9v-4.5h2v4.5
	H189z M198,55.4l-2.5,1.5h-0.1c-0.2,0.1-0.4,0.2-0.7,0.2c-0.2,0-0.5-0.1-0.7-0.2l-2.5-1.5V43.5h6.4V55.4z M198,42.9h-6.4V30.7h6.4
	V42.9z M205.5,48.7c0,0.6-0.1,1.1-0.4,1.7s-0.6,1-1.1,1.3l-5.4,3.3V43.5h6.9V48.7z M205.5,42.9h-6.9V30.7h6.9V42.9z"/>
<path class="st1" d="M190.6,47.7c0-0.1-0.9,0.3-0.6,0.3c0.2-0.4,0.4-0.7,0.7-0.9c0-0.3-0.4,0-0.8,0.2c1.3-1.9,0.5-1.1-0.3-1
	c1.1-1.2,0.8-1.2,0-0.8c0.7-0.5,0.8-1.2,0.7-1.4c-0.6,0.8-1.2,0.7-1.2,1.5c0,0.6-0.1,1.1-0.4,1.6c-0.3,0.4-0.1-1.4-1-1.4
	c-0.3,0-1,0-1.2,0.3c0.2,0,0.4,0.5,0.4,0.6s0.2,0.7-0.1,0.7c-0.3,0-0.7-0.6-0.7-1c0-0.3,0-0.2,0-0.7c-0.1-0.4-0.3-0.8-0.6-1.1
	c-0.3-0.3-0.7-0.5-1.1-0.7c0,0.5,0.7,0.6,0.7,1.3c-0.3,0-0.7-0.5-0.7-0.2c0,0.3,0.4,0.4,0.4,0.7s-0.5-0.1-0.5,0.2
	c0,0.3,0.3,0.2,0.3,0.5c-0.2,0-0.4,0-0.4,0.1s0.1,0.2,0.2,0.3c-0.1,0.1-0.1,0.2-0.1,0.6c0,1.5,0.9,2.1,1.6,2.1
	c0.5,0,0.4-0.3,0.4-0.5c0,0.2,0.3-0.1,0.3,0.3s-0.5,0.2-0.5,0.6c0,0.4,0.7,0,0.7,0.6c0,0.3,0,0.7-0.1,1c0,0.2,0.8-0.3,0.7-0.3
	c0.2,0.1,0.2,0.6,0.5,0.6c0.3,0,0.3-0.6,0.4-0.6c-0.1,0,0.7,0.5,0.7,0.3c0-0.7-0.3-0.4-0.3-0.9c0-0.5,0.9-0.3,0.8-0.6
	c-0.1-0.2-0.2-0.1-0.3-0.4c0,0.1-0.7-1.1,0.2-0.5S190.6,47.9,190.6,47.7L190.6,47.7z"/>
<path class="st1" d="M214.9,52.5c0.1,0,0.2-0.1,0.3-0.2c0.1-0.1,0.2-0.2,0.2-0.3c0-0.1,0-0.3,0-0.4c0-0.1-0.1-0.2-0.2-0.3
	s-0.2-0.1-0.3-0.2c-0.1,0-0.3,0-0.4,0.1c-0.1,0.1-0.2,0.1-0.3,0.2c-0.1,0.1-0.1,0.2-0.1,0.4c0,0.2,0.1,0.4,0.2,0.5
	C214.6,52.5,214.7,52.6,214.9,52.5z"/>
<path class="st1" d="M211.9,54.3c0.1,0,0.2-0.1,0.3-0.2s0.2-0.2,0.2-0.3c0-0.1,0-0.3,0-0.4c0-0.1-0.1-0.2-0.2-0.3
	c-0.1-0.1-0.2-0.1-0.3-0.2c-0.1,0-0.3,0-0.4,0.1c-0.1,0.1-0.2,0.1-0.3,0.2c-0.1,0.1-0.1,0.2-0.1,0.4c0,0.2,0.1,0.4,0.2,0.5
	C211.5,54.3,211.7,54.4,211.9,54.3z"/>
<path class="st1" d="M175.9,58.5c0.1,0,0.2-0.1,0.3-0.1c0.1-0.1,0.2-0.2,0.2-0.3c0-0.1,0-0.3,0-0.4c0-0.1-0.1-0.2-0.2-0.3
	c-0.1-0.1-0.2-0.1-0.3-0.2c-0.1,0-0.3,0-0.4,0c-0.1,0.1-0.2,0.1-0.3,0.2c-0.1,0.1-0.1,0.2-0.1,0.4c0,0.2,0.1,0.4,0.2,0.5
	C175.6,58.4,175.8,58.5,175.9,58.5z"/>
<path class="st1" d="M178.3,58.7c0.1,0,0.2-0.1,0.3-0.1c0.1-0.1,0.2-0.2,0.2-0.3c0-0.1,0-0.3,0-0.4s-0.1-0.2-0.2-0.3
	c-0.1-0.1-0.2-0.1-0.3-0.2c-0.1,0-0.3,0-0.4,0c-0.1,0.1-0.2,0.1-0.3,0.2c-0.1,0.1-0.1,0.2-0.1,0.4c0,0.2,0.1,0.4,0.2,0.5
	C177.9,58.6,178.1,58.7,178.3,58.7z"/>
<path class="st1" d="M243,27.3c0.6,0.7,0.9,1.5,1,2.4c0.1,0.9-0.1,1.8-0.5,2.6c-0.4,0-0.4-0.6-0.4-0.9c-0.8-1.5-1.4-3.4-0.7-5
	C242.9,26.5,242.7,27.1,243,27.3L243,27.3z"/>
<path class="st1" d="M148,29.1c-0.2,1-0.2,2.1,0,3.2c-0.2,0.2-0.2-0.2-0.4-0.2c-1.5-1.1-0.8-3.3-1.2-4.9c0-0.1,0.1-0.1,0.2-0.1
	c0.1,0,0.1,0,0.2,0c0.3,0.2,0.6,0.5,0.8,0.9C147.8,28.4,148,28.8,148,29.1L148,29.1z"/>
<path class="st1" d="M246.4,29.2c0.2,0.4-0.2,0.9-0.5,1.1c-0.2,0-0.4,0-0.6-0.1c-0.2-0.1-0.3-0.2-0.4-0.4c0-0.2,0-0.4,0.1-0.6
	c0.1-0.2,0.2-0.3,0.4-0.4c0.2,0,0.4,0,0.6,0.1C246.1,29,246.2,29.1,246.4,29.2L246.4,29.2z"/>
<path class="st1" d="M145.6,31c0,0.2-0.1,0.3-0.2,0.5s-0.2,0.3-0.4,0.4c-0.2,0-0.6,0-0.8-0.2c-0.1-0.1-0.2-0.2-0.2-0.4
	c0-0.2,0-0.3,0.1-0.4c0.1-0.1,0.2-0.2,0.3-0.3c0.1-0.1,0.3-0.1,0.4-0.1C145.2,30.6,145.5,30.7,145.6,31z"/>
<path class="st1" d="M248,31.7c0.1,0.2,0.1,0.4,0,0.6c-0.1,0.2-0.3,0.3-0.5,0.4c-0.2,0.1-0.4,0.1-0.6,0c-0.2-0.2-0.4-0.4-0.4-0.7
	c0.1-0.2,0.1-0.3,0.3-0.4c0.1-0.1,0.3-0.2,0.4-0.3C247.5,31.3,247.8,31.4,248,31.7z"/>
<path class="st1" d="M245.7,31.7c0.3,0.2,0.1,0.6,0,0.8c-0.2,0.2-0.5,0.5-0.8,0.4c-0.2-0.2-0.4-0.2-0.5-0.5c0-0.2,0-0.4,0.1-0.6
	s0.2-0.3,0.4-0.4c0.1,0,0.3,0,0.4,0C245.4,31.6,245.5,31.6,245.7,31.7L245.7,31.7z"/>
<path class="st1" d="M242.8,32.3c0,0.4,0,1-0.5,1.1c-0.1,0-0.2,0-0.3,0c-0.1,0-0.2-0.1-0.3-0.1c-0.1-0.1-0.2-0.1-0.2-0.2
	c-0.1-0.1-0.1-0.2-0.1-0.3c0-0.2,0-0.4,0.1-0.6c0.1-0.2,0.3-0.3,0.5-0.4c0.2,0,0.3,0.1,0.4,0.1C242.6,32,242.7,32.1,242.8,32.3
	L242.8,32.3z"/>
<path class="st1" d="M149.9,32.5c0.1,0.4-0.3,0.6-0.5,0.8c-0.2,0-0.3,0-0.5-0.1c-0.1-0.1-0.3-0.2-0.3-0.3c-0.3-0.3,0.1-0.5,0.2-0.8
	c0.1-0.1,0.2-0.1,0.3-0.1c0.1,0,0.2,0,0.3,0c0.1,0,0.2,0.1,0.3,0.2C149.8,32.3,149.9,32.4,149.9,32.5z"/>
<path class="st1" d="M147.6,32.6c0,0.2,0,0.3-0.1,0.4c-0.1,0.1-0.2,0.2-0.3,0.3c-0.2,0-0.3,0-0.5,0c-0.1-0.1-0.3-0.2-0.3-0.3
	c0-0.1-0.1-0.2-0.1-0.3c0-0.1,0-0.2,0-0.3c0-0.1,0.1-0.2,0.1-0.2s0.1-0.1,0.2-0.2C147.1,31.9,147.4,32.3,147.6,32.6z"/>
<path class="st1" d="M233.2,32.8c0.4,0.9,0.7,1.8,0.8,2.8c-0.2,0.8,0.1,1.8-0.4,2.3c-0.6-0.2-0.6-0.9-1-1.2c-0.7-1.4-0.1-3,0.2-4.4
	C233,32.2,233,32.6,233.2,32.8L233.2,32.8z"/>
<path class="st1" d="M145.7,33.3c0.1,0.5-0.2,0.7-0.5,1c-0.5,0.1-0.8-0.2-1-0.6c0-0.2,0-0.4,0.1-0.6c0.1-0.2,0.2-0.3,0.4-0.4
	c0.2,0,0.4,0,0.6,0.1C145.4,32.9,145.6,33.1,145.7,33.3L145.7,33.3z"/>
<path class="st1" d="M239.5,34.4c0.5,1.2,0.6,2.6,0.2,3.8l-0.2,0.2c-0.7-1-1.2-2.1-1.6-3.2c0-0.8,0.2-1.6,0.5-2.3
	c0.3-0.2,0.4,0,0.6,0.3c0,0.2,0.1,0.5,0.2,0.7C239.1,34.1,239.3,34.3,239.5,34.4z"/>
<path class="st1" d="M244.5,33.7c0,0.2,0,0.4-0.2,0.6s-0.3,0.3-0.4,0.4c-0.1,0-0.2,0-0.3,0c-0.1,0-0.2,0-0.3-0.1
	c-0.1,0-0.2-0.1-0.2-0.2c-0.1-0.1-0.1-0.2-0.1-0.3c-0.1-0.2,0-0.4,0-0.6s0.2-0.3,0.4-0.4C243.8,33,244.3,33.4,244.5,33.7L244.5,33.7
	z"/>
<path class="st1" d="M147.6,34.9c0,0.2-0.1,0.3-0.2,0.5c-0.1,0.1-0.2,0.2-0.4,0.3c-0.3,0.2-0.6-0.2-0.8-0.3
	c-0.1-0.1-0.1-0.3-0.1-0.5s0-0.3,0.1-0.5c0.1-0.2,0.4-0.2,0.6-0.3C147.2,34.4,147.5,34.6,147.6,34.9z"/>
<path class="st1" d="M149.3,34.8c0.2,0.4-0.3,0.6-0.4,0.8c-0.5,0.2-0.7-0.2-0.9-0.5c-0.2-0.3,0.2-0.6,0.4-0.9
	C148.9,34.1,149.1,34.4,149.3,34.8z"/>
<path class="st1" d="M245.6,34.6c0,0.5-0.8,1-0.9,1.6c-0.2,0.5-0.6,1-1,1.4c-0.4,0.4-0.9,0.7-1.5,0.9c-0.3,0.3-0.6,0.4-0.9,0.5
	c-0.1-0.8,0.6-1.5,1.1-2.2C243.2,35.7,244.3,34.9,245.6,34.6z"/>
<path class="st1" d="M146.8,36.3c0.5,0.7,1,1.3,1.6,1.9c0,0,0,0.1,0,0.1c0,0,0,0.1-0.1,0.1c0,0-0.1,0.1-0.1,0.1c0,0-0.1,0-0.1,0
	c-1.9-0.1-3.2-2.1-4.2-3.5c0.1-0.4,0.6-0.1,0.9-0.1C145.5,35.5,146.3,35.6,146.8,36.3z"/>
<path class="st1" d="M246.1,36.9c0,0.9-0.2,1.7-0.7,2.5c-0.4,0.8-1,1.4-1.8,1.8c-0.4,0.2-0.9,0.6-1.4,0.3c0.9-1.7,2.1-3.3,3.5-4.6
	H246.1z"/>
<path class="st1" d="M238.5,38c0.1,0.2,0,0.5-0.1,0.7c-0.1,0.2-0.3,0.4-0.6,0.4c-0.4,0-0.7-0.3-0.9-0.6c0-0.2,0-0.4,0.1-0.5
	c0.1-0.2,0.3-0.3,0.4-0.3c0.1-0.1,0.1-0.1,0.2-0.1c0.1,0,0.2,0,0.2,0C238.2,37.6,238.3,37.8,238.5,38z"/>
<path class="st1" d="M144.6,38.4c0.8,0.6,1.5,1.2,2.1,1.9c-0.5,0.4-1.1,0-1.8,0c-1.3-0.5-2.3-1.6-3.6-2c0-0.4,0.6-0.3,0.8-0.4
	C143,37.9,143.8,38.1,144.6,38.4z"/>
<path class="st1" d="M187.1,26.6c-2.2-0.9-3.7,1.4-6,1.1c-0.3,0.2-0.2,0.4-0.4,0.6c-0.2,0.2-0.3,0-0.4,0c-0.1-1-0.4-1.8-0.6-2.8
	c-0.2-0.4-0.1-1-0.3-1.4c-1.3-3.5,3.1-0.8,4-2.9c0.8-1.8-1.5-2-2.1-3.2v-0.5c-0.6-0.6-1.3-0.8-1.7-1.7c0.3-1,0.4-2.1,0.1-3.1
	c0-0.2-0.2-0.6-0.6-0.4c-0.8,1-1.3,1.9-2,2.9c-0.7-0.6-1.5-1.2-2.3-1.8c-0.6-0.1-1.1-0.7-1.8-0.4c0,0.1-0.1,0.2,0,0.3
	c0,0.1,0.1,0.2,0.2,0.3c0.1,1.5,0.7,2.9,1.8,3.9l0.1,0.6c-0.7,1.6-0.5,3.5-0.7,5.3c-1.8,4.7-4.7,8.9-8.6,12.1c-2.3,2.6-5,5-5.3,8.5
	c-0.1,0.6,0.1,1.2-0.4,1.6c-1.3-0.5-2.6-1.1-3.7-2c-1.8-1.3-4.4-1.1-5.6-3.4c-0.5-0.9,0.1-1.8,0.5-2.5c1.4-1.3,1.2-3.6,0.4-5.1
	c-0.2,0-0.2,0.2-0.3,0.2c-0.1,2.3-2,4-1.3,6.6c0.2,0.8,0.6,1.2,0.8,2c-0.3,0-0.6-0.1-0.9-0.2c-0.9-0.2-1.8-0.4-2.7-0.4
	c-1.8,0.8-4.3-0.2-5.8,1.5c-0.2,0-0.6,0.1-0.5,0.4c0.9,0,1.7,0.2,2.6,0.2c1.4,0.2,2.3-0.9,3.2-1.4h0.2c0.4-0.4,1.1-0.2,1.6-0.2
	c2.5,0.3,4.4,1.5,6.5,2.7v0.2c-0.8,0.4-1.7,0.6-2.5,1c-1,0.6-1.8,1.6-2.2,2.7c-0.6,1,0.2,1.9,0.6,2.7c0,0.4,0.1,0.9,0.4,1
	c1.3-1.4,0.1-3,0.3-4.6c0.2-0.5,0.6-1,1-1.4c0.5-0.4,1-0.6,1.6-0.7c2.3-1,3.9,0.9,5.7,1.9c0.1,1.8,0,3.6-0.2,5.4
	c-0.6,0.2-1.2,0.3-1.9,0.3c-3.1,0.2-5.6,2-8.4,2.9c-1.3,0.4-2.8,0.4-4,0.9c1,0.1,2,0.1,3.1-0.1c3.9-0.6,6.9-3.6,11.1-3l0.1,0.1
	c-0.5,1-1.1,1.8-1.9,2.6c-0.1-0.4-0.2-0.8-0.6-1c-0.2-0.1-0.3-0.1-0.5,0c-0.2,0.1-0.3,0.2-0.4,0.3c-0.1,0.1-0.1,0.2-0.1,0.3
	s0,0.2,0.1,0.3c0.1,0.1,0.2,0.3,0.4,0.4c0.2,0.1,0.3,0.2,0.5,0.2c-0.1,0.4-0.5,0.5-0.8,0.8c-1.1,1.9-3.4,1.1-4.7,2.4
	c-0.2,0.3-0.9,0.4-0.6,0.9c1.4,0.2,2.9-0.2,4.1-1c1.5-1.6,3-3.2,4.5-4.8c0.1,0.6,0.1,1.3-0.1,1.9c-0.2,0.6-0.4,1.2-0.8,1.7
	c-0.3-0.2-0.7-0.4-1.1-0.6c-0.2,0.1-0.3,0.2-0.5,0.3c-0.1,0.1-0.2,0.3-0.2,0.5c0.1,0.3,0.3,0.6,0.6,0.8c-1.3,1-3.1,1-4.6,1.5
	c-2.9,0.4-5.8,0.6-8.6,0.6c-1.4-0.1-3,0.4-4.3,0c-1.5,0.3-3.1-0.2-4.4,0.6c-0.2,0.2,0,0.4,0,0.6c1.8,1.2,4.3,0.2,6.4,0.6h15.6
	c1.1,0.1,2.2-0.1,3.2-0.6c2-1.2,3.1-3.2,4.2-5.3c0.4-0.8,0.7-1.6,0.8-2.4c0.2-0.7,0.6-1.2,1.1-1.7c0.5-0.4,1.2-0.7,1.9-0.8
	c0.1,2-0.1,4.1-0.7,6.1c-0.2,1.3-1.1,2.5-0.6,3.9c0.1,0.6,0.8,0.6,1.3,0.7c4.8-0.1,9.6-0.3,14.7,0.1c0.9,0.2,1.8,0.4,2.7,0.4
	c0.1-0.1,0.4-0.2,0.2-0.4c-0.1-0.3-0.2-0.5-0.3-0.7c-0.2-0.2-0.4-0.3-0.6-0.4c-0.1-0.2-0.4-0.2-0.6-0.3c-2.5-1.4-5.6-0.7-8.6-0.6
	c-1.5,0.2-3.1,0.4-4.4-0.4c-0.6-0.7-0.2-3-0.2-3c0.6-2.6,1.5-5.2,2.5-7.7c0.2-0.6,0.2-1.2,0.2-1.8c0.2-0.9,0.3-1.8,0.2-2.7
	c0.3-1.3,0.7-2.5,1.2-3.7c0.2-0.6,0.4-1.2,0.7-1.8c0.1-0.7,0.4-1.4,0.8-2.1c1.3,0.8,2.6,0.8,3.2,2.3l0.6,3.3c0,0.2,0.2,0.6,0.4,0.4
	c1-0.7,0.7-2.2,0.7-3.2c0.2-1.2-0.6-1.8-1-2.9c-0.3-0.3-0.5-0.7-0.7-1.2c-0.2-0.9-2.1-1.5-1.6-2.6c0.1-0.5,0.2-0.9,0.4-1.3
	c0.2-0.4,0.5-0.7,0.9-1c0.1,0,0.1,0.1,0.1,0.1c0,0,0.1,0.1,0.1,0.2l0.5-0.3l0.1-3.3c1.3,0,3.2,0.2,4.5,0.2c0.4,0.1,0.6,0.4,1,0.4
	l0.3-0.4l3.2-0.6C189.2,28.2,188.4,26.6,187.1,26.6L187.1,26.6z"/>
<path class="st1" d="M190.6,28c0.1,0,0.2,0,0.3-0.1L190.6,28z"/>
<path class="st1" d="M156,39.1c0,0.2,0,0.4-0.1,0.6c-0.1,0.2-0.3,0.3-0.5,0.4c-0.3-0.1-0.6-0.2-0.8-0.5c-0.2-0.3,0.2-0.8,0.6-0.9
	C155.5,38.7,155.9,38.7,156,39.1z"/>
<path class="st1" d="M153.5,39.1c0.1,0.1,0.2,0.3,0.2,0.4c0,0.2,0,0.3-0.1,0.5c-0.3,0.2-0.7,0.4-1,0.1c-0.3-0.3-0.5-0.5-0.3-0.8
	S153.1,38.8,153.5,39.1L153.5,39.1z"/>
<path class="st1" d="M208.7,39.5L208.7,39.5L208.7,39.5z"/>
<path class="st1" d="M238.9,40.2c0.2,0.4-0.2,0.8-0.5,0.9c-0.4-0.1-0.9-0.2-0.9-0.7c0-0.1,0.1-0.3,0.2-0.4c0.1-0.1,0.2-0.2,0.4-0.2
	c0.2,0,0.3,0,0.5,0.1C238.7,40,238.8,40.1,238.9,40.2z"/>
<path class="st1" d="M241,40.1c0.1,0.2,0.4,0.5,0.1,0.7c-0.1,0.1-0.3,0.2-0.4,0.3c-0.2,0.1-0.4,0-0.6,0c-0.2-0.1-0.3-0.2-0.4-0.4
	c-0.1-0.4,0.3-0.6,0.6-0.8C240.6,39.7,240.8,40,241,40.1z"/>
<path class="st1" d="M143.5,40.6c0,0.1-0.1,0.2-0.2,0.3c-0.1,0.1-0.2,0.2-0.3,0.2c-0.1,0-0.2,0.1-0.3,0.1c-0.1,0-0.2,0-0.3-0.1
	c-0.1-0.2-0.2-0.3-0.3-0.5c0-0.1,0-0.3,0.1-0.4c0.1-0.1,0.2-0.2,0.3-0.3c0.2,0,0.4,0.1,0.6,0.2C143.3,40.3,143.4,40.4,143.5,40.6z"
	/>
<path class="st1" d="M156.9,41.3c-0.1,0.2-0.1,0.3-0.3,0.4c-0.1,0.1-0.3,0.2-0.4,0.3c-0.2,0-0.4-0.1-0.5-0.2s-0.3-0.2-0.4-0.4
	c0-0.2,0-0.3,0.1-0.5c0.1-0.1,0.2-0.3,0.4-0.3c0.2-0.1,0.5,0,0.7,0.1C156.7,40.9,156.8,41.1,156.9,41.3z"/>
<path class="st1" d="M154.5,41c0.1,0.1,0.1,0.2,0.2,0.3c0,0.1,0,0.2,0,0.3c-0.2,0.2-0.6,0.6-1,0.3c-0.2-0.2-0.5-0.4-0.4-0.8
	c0.2-0.2,0.4-0.4,0.6-0.5C154.1,40.7,154.3,40.9,154.5,41L154.5,41z"/>
<path class="st1" d="M247.1,41.5c0,0.2-0.1,0.3-0.2,0.4c-0.1,0.1-0.2,0.2-0.3,0.3c-0.1,0.1-0.3,0.1-0.5,0c-0.2,0-0.3-0.1-0.4-0.2
	c-0.2-0.1-0.2-0.4-0.2-0.6c0.2-0.3,0.4-0.4,0.8-0.5C246.6,41,246.9,41.2,247.1,41.5z"/>
<path class="st1" d="M249.6,41.9c0,0.2-0.1,0.3-0.3,0.5c-0.1,0.1-0.3,0.2-0.5,0.3c-0.2,0-0.7-0.1-0.6-0.5c0-0.2,0.1-0.3,0.2-0.4
	c0.1-0.1,0.2-0.2,0.4-0.2c0.2,0,0.3,0,0.5,0.1C249.4,41.6,249.6,41.7,249.6,41.9z"/>
<path class="st1" d="M148,42.4c0,0.1,0.1,0.2,0,0.3c0,0.1,0,0.2-0.1,0.3c0,0.1-0.1,0.2-0.2,0.2c-0.1,0.1-0.2,0.1-0.3,0.2
	c-0.3,0.2-0.6,0-0.8-0.2c-0.1-0.1-0.2-0.2-0.2-0.4c0-0.1,0-0.3,0-0.4c0.1-0.4,0.4-0.3,0.7-0.4c0.2,0,0.3,0.1,0.4,0.2
	C147.8,42.2,147.9,42.3,148,42.4L148,42.4z"/>
<path class="st1" d="M150,42.8c0.1,0.3-0.2,0.4-0.3,0.7c-0.1,0.1-0.2,0.1-0.3,0.1c-0.1,0-0.3,0-0.4-0.1c-0.3-0.2-0.6-0.6-0.3-1
	C149,42,149.8,42.3,150,42.8z"/>
<path class="st1" d="M244.7,42.6c0,0.4-0.3,0.7-0.6,0.9c-0.2,0-0.3,0-0.5-0.1c-0.1-0.1-0.3-0.2-0.3-0.4c0-0.2,0-0.3,0.1-0.4
	c0.1-0.1,0.2-0.2,0.3-0.3c0.2,0,0.3,0,0.5,0C244.5,42.4,244.6,42.5,244.7,42.6z"/>
<path class="st1" d="M248,43.2c-0.1,0.4,0,0.8-0.4,1c-0.2,0.1-0.3,0.1-0.5,0c-0.2,0-0.3-0.1-0.5-0.2c-0.1-0.1-0.2-0.2-0.2-0.4
	c0-0.2,0-0.3,0.1-0.4c0.1-0.2,0.2-0.3,0.4-0.4c0.2-0.1,0.4-0.1,0.6-0.1C247.6,42.9,247.7,43.1,248,43.2L248,43.2z"/>
<path class="st1" d="M146.5,44.1c0.2,0.3-0.2,0.4-0.3,0.6c-0.1,0.1-0.3,0.1-0.4,0.1c-0.1,0-0.3-0.1-0.4-0.1
	c-0.3-0.2-0.2-0.6-0.1-0.8C145.6,43.1,146.4,43.6,146.5,44.1z"/>
<path class="st1" d="M245.5,44.8c0.2,0,0.1,0.3,0,0.4c-0.5,0.3-1.1,0.4-1.6,0.4c-0.6,0-1.1-0.2-1.6-0.5c-0.5-0.3-1-0.6-1.6-0.9
	c0.2-0.5,0.9-0.5,1.4-0.6C243.3,43.7,244.2,44.8,245.5,44.8L245.5,44.8z"/>
<path class="st1" d="M148.4,44.5c0.1,0.3-0.2,0.4-0.2,0.7c-0.1,0.2-0.5,0.2-0.7,0.1c-0.1,0-0.2-0.1-0.3-0.2
	c-0.1-0.1-0.1-0.2-0.1-0.3c0-0.1,0-0.2,0-0.3c0-0.1,0.1-0.2,0.2-0.3c0.1-0.1,0.2-0.1,0.3-0.1c0.1,0,0.2,0,0.3,0
	c0.1,0,0.2,0.1,0.3,0.2C148.4,44.2,148.4,44.3,148.4,44.5z"/>
<path class="st1" d="M151.9,44.7c0.1,0.2,0,0.4,0,0.5c-0.1,0.2-0.2,0.3-0.4,0.4c-0.3,0.2-0.5-0.1-0.8-0.1c-0.2-0.3-0.6-0.6-0.2-0.9
	C150.9,43.9,151.6,44.3,151.9,44.7z"/>
<path class="st1" d="M197.8,46.4c-0.1,0.8-1.4-0.1-1.2,1c0.1,0.8,0.4,1.6,0.8,2.2c0.4,0.5,0.2,1.4,0.1,2c-0.4,0.6-0.9,1-1.5,1.3
	c-1.1-0.1-2.8,0.6-3.3-0.8c-0.3-0.6-0.5-1.2-0.6-1.9c0.1-0.1,0.3-0.1,0.4-0.2c0-0.3-0.3-0.4-0.3-0.7c1.3-0.2-0.5-1.4,0.6-1.4
	c0.9,0.9,2.4,0.6,3.2,1.7c0.2,0.2,0.4,0.4,0.6,0.5c-0.2-1-0.6-1.9-0.8-2.9c-0.1-0.2,0-0.5,0-0.7c0.1-0.2,0.2-0.4,0.4-0.6
	C196.8,45.3,197.4,46,197.8,46.4L197.8,46.4z"/>
<path class="st1" d="M155.4,46.1c0.1,0.4-0.2,0.6-0.4,0.8c-0.2,0.2-0.6-0.2-0.7-0.4c-0.1-0.4,0.2-0.6,0.4-0.8c0.2,0,0.3,0,0.4,0.1
	C155.2,45.9,155.3,46,155.4,46.1z"/>
<path class="st1" d="M179.9,46.5c0.2,0.7,0.3,1.5,0.2,2.3c-0.1,0.8-0.3,1.5-0.7,2.2c0,0.3,0.1,0.8-0.3,0.8c-1.1-1.5-0.3-3.5,0.2-5.1
	C179.3,46.3,179.8,46.1,179.9,46.5z"/>
<path class="st1" d="M213.8,47.3c0.3,0.6,0.4,1.2,0.4,1.8c0,0.6-0.1,1.3-0.4,1.9l-0.3,0.3c-0.5-0.9-0.8-1.8-0.9-2.8
	c0.2-0.7,0.4-1.4,0.5-2.1C213.7,46.3,213.7,47,213.8,47.3z"/>
<path class="st1" d="M158.5,47.7c-0.2,0.5-0.9,0.6-1.4,0.9c-1,0.7-2.3,0.9-3.5,0.7c0.5-0.7,1.2-1.3,2-1.6c0.8-0.3,1.7-0.4,2.6-0.2
	C158.2,47.6,158.4,47.5,158.5,47.7z"/>
<path class="st1" d="M142.2,49.2c1.5,1,1.9,2.5,2.7,3.9c0.1,0.2,0.5,0.2,0.3,0.5c-0.3,0.2-0.6-0.2-1.1-0.2c-0.8-0.4-1.4-1-1.8-1.7
	c-0.4-0.7-0.6-1.6-0.6-2.4C141.8,49.2,142,49.2,142.2,49.2z"/>
<path class="st1" d="M212.3,50.4c0,0.4,0,0.8-0.4,0.9c-0.1,0-0.2,0-0.3,0c-0.1,0-0.2,0-0.3-0.1c-0.1,0-0.2-0.1-0.2-0.2
	c-0.1-0.1-0.1-0.2-0.1-0.3c-0.1-0.3,0.1-0.4,0.2-0.6c0.1-0.1,0.2-0.1,0.3-0.1c0.1,0,0.2,0,0.3,0c0.1,0,0.2,0.1,0.3,0.1
	C212.2,50.2,212.2,50.3,212.3,50.4z"/>
<path class="st1" d="M229,52.5c0.1-0.7,0.1-1.5,0.3-2.2c0.1-0.3,0.2-0.6,0.2-0.8c1-1.3,2.9-0.9,4.4-0.8c0.6,0.2,1.3,0.4,2,0.4
	c0.3-0.2,0.7-0.3,1-0.2c1.3-0.7,0.4-2.2,0.5-3.3l-0.5-1.2c-0.1-0.3-0.2-0.5-0.3-0.8c-0.2-0.3-0.4-0.8-0.6-1.1
	c-0.7-1.8-2-2.8-3.1-4.2c-2-2.6-5.2-4.1-8.4-5.1c-3.2-1-6.3,0.3-9.1,1.3c-0.4-0.1-0.7-0.3-1-0.6c-0.3-0.3-0.5-0.7-0.5-1
	c-0.1-1.5,0.1-2.9,0.8-4.2c0.3-0.9,0.6-1.8,1.1-2.7c0.8-2.2,1.4-4.5,1.6-6.9c0-0.7-0.2-1.3-0.6-1.9c-0.4-0.6-0.9-1-1.5-1.3
	c-0.4-0.1-0.8-0.2-1.2-0.1c-0.4,0.1-0.7,0.3-1,0.5c-0.6,1-1.5,1.8-2.6,2.3c-0.1,0.7,0.8,0.2,1,0.5c0.9,0.2,1.9-0.1,2.6,0.4
	c-0.1,1.5-0.7,3-1.7,4.1c-1.4,1.9-2.6,4-3.6,6.2l-0.2-0.2l0.2,9.8c1.3,2.1,2.9,4.5,5.2,5.3c1.3,1,2.9,2.3,4.6,1.4
	c0.9-0.3,1,1,1.4,1.5c0.5,1.5-0.6,2.5-0.7,3.9l-1,2.2c-1.2,2.3-2.3,4.8-4.1,6.8c-0.6,0-1,0.6-1.5,0.7c-0.3,0.4-1,0.1-1.4,0.3
	c-1.2,0.5-3,0.2-3.8,1.4c0.1,0.1,0.2,0.2,0.3,0.2c2.4,0,5.1,0.2,7.7,0.1c0.2-0.1,0.3-0.2,0.4-0.3s0.2-0.3,0.2-0.5
	c-0.4-0.7,0.1-1.3,0.4-1.8c0.3-0.8,0.7-1.7,1.1-2.5c0.8-1.6,1.8-3.2,2.7-4.9l1.2-2c0.3-0.8,0.8-1.5,1.2-2.2c0.3-0.3,0.5-0.7,0.7-1.1
	c0-0.4-0.2-0.6-0.4-0.8c0.3-0.3,0.7-0.2,1.1-0.3c1.1,0.6,1.9,1.5,2.2,2.6l0.4,1l0.2,0.5l-0.1,1.3l0.2,1.2c0.1,1.9,0,3.9-0.4,5.8
	c-0.7,2.3-3.3,2.1-5.2,2.6c-0.5,0.3-1.4,0.2-1.4,1c2.3,0.5,5,0.2,7.5,0.2c0.4-0.2,0.5-0.5,0.7-0.9c0.1-0.5,0.6-1,0.4-1.5
	c-0.4-0.6,0-1.4-0.2-2.2c0.1-0.2,0.1-0.5,0-0.8c0.3-1.2,0.2-2.6,0.5-3.7L229,52.5z"/>
<path class="st1" d="M248.5,51c-1.3,1.8-2.6,3.8-4.8,4.5c-0.2,0-0.3,0.1-0.4-0.1c1.3-1.4,2.1-3.7,4.2-4.2c0.2-0.1,0.3-0.2,0.5-0.2
	C248.2,50.9,248.4,50.9,248.5,51z"/>
<path class="st1" d="M140.2,52.9c-0.2,0.2,0,0.5-0.4,0.6c-0.2,0.1-0.3,0.1-0.5,0c-0.2-0.1-0.3-0.2-0.3-0.4c0-0.1,0-0.2,0-0.3
	c0-0.1,0-0.2,0.1-0.3c0-0.1,0.1-0.2,0.2-0.2c0.1-0.1,0.2-0.1,0.3-0.1C139.9,52.4,140.2,52.5,140.2,52.9z"/>
<path class="st1" d="M151.7,53.5c0.1,0.4-0.3,0.4-0.5,0.4c-0.8,0.3-1.6,0.3-2.5,0.1c-0.8-0.2-1.5-0.6-2.1-1.3c0-0.2,0-0.3,0.2-0.4
	C148.4,52.8,150.3,52.5,151.7,53.5z"/>
<path class="st1" d="M142.4,53c0.1,0.2,0.1,0.4,0.1,0.6c-0.1,0.2-0.3,0.3-0.4,0.3c-0.2,0.1-0.4,0.1-0.6,0c-0.2-0.1-0.4-0.3-0.5-0.5
	c0-0.2,0.1-0.3,0.2-0.5c0.1-0.1,0.3-0.2,0.4-0.3C142,52.7,142.2,52.8,142.4,53L142.4,53z"/>
<path class="st1" d="M179.6,53.2c0.1,0.4-0.2,0.6-0.5,0.8c-0.2,0-0.3,0-0.5,0c-0.2-0.1-0.3-0.2-0.4-0.3c-0.1-0.1-0.1-0.3,0-0.4
	c0.1-0.1,0.2-0.3,0.3-0.3C178.9,52.8,179.5,52.8,179.6,53.2L179.6,53.2z"/>
<path class="st1" d="M250.1,53.3c0.1,0.4-0.2,0.6-0.5,0.8c-0.1,0-0.3,0-0.4,0c-0.1,0-0.3-0.1-0.4-0.1c0-0.2-0.3-0.4-0.2-0.6
	c0.1-0.2,0.2-0.3,0.4-0.4s0.4-0.1,0.5-0.1C249.7,53,249.9,53.2,250.1,53.3z"/>
<path class="st1" d="M252.7,53.2c0.2,0.4,0,0.6-0.2,0.9c-0.1,0.1-0.2,0.2-0.3,0.3c-0.1,0-0.3,0-0.4,0c-0.2-0.2-0.5-0.4-0.6-0.7
	c0-0.4,0.4-0.6,0.6-0.7C252.2,52.8,252.4,53.2,252.7,53.2z"/>
<path class="st1" d="M138.6,54.3c0,0.3-0.2,0.4-0.3,0.7c-0.2,0.1-0.4,0.2-0.6,0.2c-0.3-0.1-0.5-0.4-0.6-0.6c0-0.2,0-0.4,0.1-0.6
	c0.1-0.2,0.3-0.3,0.5-0.3c0.2,0,0.4,0,0.6,0.2C138.5,53.9,138.6,54.1,138.6,54.3z"/>
<path class="st1" d="M222.1,54.3c0,0.2,0,0.3,0,0.5c-0.2,0.3-0.5,0.6-0.9,0.4c-0.2-0.2-0.5-0.5-0.4-0.8c0.1-0.1,0.2-0.2,0.3-0.3
	c0.1-0.1,0.2-0.1,0.4-0.1c0.1,0,0.3,0,0.4,0.1C221.9,54.1,222,54.2,222.1,54.3L222.1,54.3z"/>
<path class="st1" d="M145,54.9c-0.1,0.3-0.2,0.6-0.6,0.6c-0.4,0-0.5-0.3-0.7-0.4c0-0.4,0-0.7,0.3-0.9c0.1,0,0.2,0,0.3,0
	c0.1,0,0.2,0.1,0.3,0.2s0.2,0.2,0.2,0.3C145,54.7,145,54.8,145,54.9z"/>
<path class="st1" d="M141.2,55c0,0.2,0,0.3-0.1,0.5c-0.1,0.2-0.2,0.3-0.3,0.4c-0.2,0-0.4,0-0.6-0.1c-0.2-0.1-0.3-0.3-0.4-0.5
	c0-0.2,0.1-0.4,0.2-0.6c0.1-0.2,0.3-0.3,0.5-0.4C140.8,54.4,141,54.8,141.2,55z"/>
<path class="st1" d="M224.7,54.9c0.1,0.2,0.1,0.4,0,0.6c-0.1,0.2-0.2,0.3-0.4,0.4c-0.5,0.2-0.9-0.2-1.1-0.6c0.2-0.3,0.2-0.8,0.7-0.8
	c0.2,0,0.3,0,0.5,0.1C224.5,54.7,224.7,54.8,224.7,54.9L224.7,54.9z"/>
<path class="st1" d="M143,55.1c0.1,0.3-0.1,0.4-0.2,0.6c-0.2,0-0.3,0.2-0.6,0.2c-0.2-0.1-0.5-0.3-0.5-0.6c0-0.3,0.2-0.6,0.5-0.8
	c0.2,0,0.3,0,0.5,0.1C142.9,54.8,143,54.9,143,55.1z"/>
<path class="st1" d="M247.9,55.4c-0.1,0.1-0.2,0.3-0.3,0.4c-0.1,0.1-0.3,0.2-0.4,0.3c-0.3,0.1-0.5-0.2-0.8-0.3
	c-0.2-0.1-0.1-0.5,0-0.7c0.1-0.1,0.2-0.3,0.4-0.3c0.2-0.1,0.3-0.1,0.5,0c0.2,0,0.3,0.1,0.4,0.3C247.8,55.1,247.9,55.2,247.9,55.4
	L247.9,55.4z"/>
<path class="st1" d="M250.9,55.6c-0.1,0.2-0.2,0.4-0.4,0.5c-0.2,0.1-0.4,0.2-0.6,0.2c-0.4-0.2-0.8-0.4-0.5-0.9
	c0.2-0.2,0.2-0.3,0.5-0.4c0.1,0,0.2,0,0.3,0c0.1,0,0.2,0.1,0.3,0.1c0.1,0.1,0.2,0.1,0.2,0.2C250.8,55.4,250.9,55.5,250.9,55.6z"/>
<path class="st1" d="M232,55.8c0.2,0.5-0.3,0.7-0.6,0.9c-0.3,0-0.5-0.2-0.8-0.3c0-0.2,0-0.4,0.1-0.6c0.1-0.2,0.3-0.3,0.5-0.4
	c0.2,0,0.3,0,0.4,0.1C231.8,55.6,231.9,55.8,232,55.8L232,55.8z"/>
<path class="st1" d="M221.1,56.3c0.2,0.1,0.1,0.4,0.1,0.5c-0.2,0.2-0.6,0.6-0.9,0.3c-0.1-0.1-0.3-0.2-0.3-0.3s-0.1-0.3-0.1-0.5
	c0.1-0.1,0.2-0.2,0.3-0.2c0.1-0.1,0.2-0.1,0.3-0.1s0.2,0,0.3,0.1C221,56.2,221.1,56.3,221.1,56.3L221.1,56.3z"/>
<path class="st1" d="M223.4,56.6c0,0.1,0,0.3,0,0.4c-0.1,0.1-0.2,0.2-0.3,0.3c-0.3,0.3-0.6,0-0.9-0.1c0-0.1-0.1-0.2-0.1-0.3
	c0-0.1,0-0.2,0.1-0.3c0.1-0.2,0.3-0.3,0.5-0.3C223,56.3,223.3,56.3,223.4,56.6L223.4,56.6z"/>
<path class="st1" d="M156,56.6c0.2,0.2,0,0.5-0.1,0.8c-0.1,0.1-0.3,0.3-0.5,0.3c-0.2,0-0.4,0-0.5-0.1c-0.4-0.2-0.4-0.7-0.3-1
	c0.2-0.1,0.2-0.4,0.6-0.4C155.5,56.3,155.8,56.4,156,56.6L156,56.6z"/>
<path class="st1" d="M236.3,56.8c0.1,0.4-0.3,0.6-0.6,0.6c-0.5,0.2-0.7-0.2-0.9-0.5c0-0.2,0.2-0.4,0.3-0.6
	C235.6,56.1,236,56.5,236.3,56.8z"/>
<path class="st1" d="M234.1,56.8c0.2,0.4-0.3,0.6-0.4,0.8c-0.1,0.1-0.3,0.1-0.5,0.1c-0.2,0-0.3-0.1-0.4-0.2
	c-0.2-0.1-0.2-0.4-0.2-0.6c0.2-0.2,0.4-0.4,0.6-0.5c0.2,0,0.3,0,0.5,0.1C233.9,56.5,234,56.7,234.1,56.8z"/>
<path class="st1" d="M252,57.3c0.1,0.6-0.6,0.3-0.9,0.4c-1.7,1-3.8,0.2-5.4-0.4c0.1-0.5,0.7-0.3,1-0.5c1.7-1.1,3.4,0.2,5.2,0.3
	L252,57.3L252,57.3z"/>
<path class="st1" d="M143.5,56.8l-0.2,0.3c-0.7,0.5-1.6,0.8-2.5,1c-0.9,0.2-1.8,0.1-2.7-0.1l-0.2-0.2c1.6-1,3.5-1.4,5.3-1.1
	L143.5,56.8z"/>
<path class="st1" d="M240.3,57.1c0,0.1,0,0.3-0.1,0.4c-0.1,0.1-0.2,0.2-0.3,0.3c-0.2,0.1-0.4,0.1-0.6,0c-0.2-0.1-0.3-0.2-0.4-0.4
	c-0.1-0.3,0.2-0.6,0.5-0.8C239.8,56.5,240.2,56.6,240.3,57.1L240.3,57.1z"/>
<path class="st1" d="M150.6,57.2c-0.2,0.3-0.1,0.6-0.5,0.8c-0.2,0-0.4,0-0.6-0.1c-0.2-0.1-0.3-0.3-0.4-0.4c-0.1-0.4,0.2-0.6,0.4-0.8
	C150,56.5,150.3,56.9,150.6,57.2L150.6,57.2z"/>
<path class="st1" d="M147.8,57.4c0.1,0.3-0.1,0.4-0.2,0.6c-0.1,0.1-0.2,0.2-0.4,0.2c-0.1,0-0.3,0-0.4-0.1c-0.2-0.1-0.3-0.2-0.4-0.4
	c-0.1-0.2-0.1-0.4-0.1-0.6c0.2-0.2,0.4-0.3,0.6-0.4C147.3,56.8,147.7,57,147.8,57.4L147.8,57.4z"/>
<path class="st1" d="M243.1,58.4c0,0.2-0.1,0.3-0.2,0.5c-0.1,0.1-0.3,0.2-0.4,0.3c-0.1,0-0.3,0-0.4-0.1c-0.1-0.1-0.2-0.2-0.3-0.3
	c-0.1-0.1-0.1-0.3-0.1-0.4c0-0.1,0.1-0.3,0.2-0.4c0.1-0.1,0.4-0.1,0.5-0.2c0.2,0,0.3,0.1,0.5,0.2C243,58,243.1,58.2,243.1,58.4z"/>
<path class="st1" d="M144.8,57.9c0.1,0.3-0.2,0.4-0.2,0.7c-0.2,0.6-0.5,1.2-0.9,1.7c-0.8,0.9-1.8,0.9-2.9,1.2l-0.2-0.3
	c1-1.4,2.4-2.6,4-3.3L144.8,57.9L144.8,57.9z"/>
<path class="st1" d="M241.1,58.8c0.1,0.5-0.3,0.6-0.6,0.8c-0.2,0-0.3,0-0.5-0.1c-0.1-0.1-0.3-0.2-0.3-0.4c-0.1-0.4,0.3-0.6,0.5-0.8
	c0.2,0,0.4,0,0.5,0.1C240.9,58.5,241.1,58.6,241.1,58.8z"/>
<path class="st1" d="M149.4,58.8c0,0.1,0,0.2,0.1,0.2c0,0.4-0.4,0.6-0.6,0.8c-0.2,0-0.3,0-0.5-0.1c-0.2-0.1-0.3-0.2-0.4-0.3
	c0-0.1-0.1-0.2-0.1-0.3c0-0.1,0-0.2,0.1-0.3c0-0.1,0.1-0.2,0.2-0.2s0.2-0.1,0.2-0.1C148.8,58.4,149.3,58.4,149.4,58.8z"/>
<path class="st1" d="M248.4,60c0.4,0,0.5-0.5,0.9-0.6c0.2,0,0.4,0,0.5,0.1c0.2,0.1,0.3,0.2,0.4,0.4c0.2,0.5-0.2,0.7-0.5,0.9
	c-0.3,0.2-0.9-0.2-0.8,0.3c0.1,0.1,0.3,0.2,0.4,0.3c0.1,0.1,0.2,0.3,0.2,0.5c-0.1,0.2-0.4,0.1-0.5,0c-1.2-0.4-2.3-1.3-2.9-2.5
	c-0.2-0.4-0.9-0.6-0.5-1c0.5,0,1.1,0.2,1.5,0.5C247.7,59.1,248.1,59.5,248.4,60L248.4,60z"/>
<path class="st1" d="M252.2,58.8c0.1,0.1,0.1,0.2,0.1,0.4s0,0.3-0.1,0.4c-0.2,0.4-0.8,0.2-1.1,0.2c-0.2-0.2-0.4-0.4-0.3-0.7
	c0.1-0.2,0.4-0.4,0.6-0.5c0.2,0,0.3,0,0.5,0C252,58.6,252.1,58.6,252.2,58.8L252.2,58.8z"/>
<path class="st1" d="M237.8,60.9c0.4,0.5,0.7,1,0.9,1.6c-0.1,0.1-0.3,0.1-0.3,0.1c-1.4-0.8-3.1-1.6-3.6-3.2
	c-0.1-0.2-0.4-0.4-0.4-0.6c1-0.2,2,0.6,2.7,1.1C237.4,60.3,237.7,60.5,237.8,60.9L237.8,60.9z"/>
<path class="st1" d="M147.2,59.4c0.2,0.4-0.2,0.6-0.4,0.8c-0.2,0-0.3,0-0.5,0c-0.2-0.1-0.3-0.2-0.4-0.3c-0.3-0.4,0.2-0.8,0.6-1
	S147,59.2,147.2,59.4L147.2,59.4z"/>
<path class="st1" d="M242.8,60.3c0,0.2-0.3,0.4-0.4,0.6c-0.3,0-0.6,0.2-0.9-0.1c-0.1-0.2-0.3-0.5,0-0.7
	C241.9,59.5,242.6,59.9,242.8,60.3L242.8,60.3z"/>
<path class="st1" d="M252.7,60.9c0,0.2,0,0.4-0.1,0.6c-0.1,0.2-0.3,0.3-0.4,0.4c-0.4,0.1-0.7-0.2-1-0.4s0-0.5,0-0.8
	c0.1-0.1,0.3-0.2,0.5-0.3c0.2,0,0.4,0,0.5,0C252.3,60.6,252.5,60.7,252.7,60.9L252.7,60.9z"/>
<path class="st1" d="M225.2,66.4c0,0.5-0.9,0.4-1.2,0.7c-1.3,0.5-2.8,0.8-4.2,0.6v-0.2c0.7-0.6,1.6-1,2.6-1.2
	C223.3,66.1,224.3,66.1,225.2,66.4z"/>
<path class="st1" d="M167.4,68.1c0,0.2,0,0.3-0.1,0.4c-0.1,0.1-0.2,0.2-0.4,0.2c-0.2,0-0.3,0-0.4-0.1c-0.1-0.1-0.2-0.2-0.3-0.3
	c-0.2-0.5,0.2-0.7,0.5-0.9c0.2,0,0.3,0.1,0.5,0.2C167.2,67.8,167.3,67.9,167.4,68.1z"/>
<path class="st1" d="M224.5,68.5c0,0.2,0,0.4-0.1,0.5c-0.1,0.2-0.2,0.3-0.4,0.4c-0.2,0.1-0.4,0.1-0.5,0c-0.2,0-0.3-0.2-0.4-0.3
	c-0.2-0.2-0.1-0.4-0.1-0.6c0.1-0.2,0.2-0.3,0.3-0.4c0.1-0.1,0.3-0.1,0.5-0.1s0.3,0.1,0.5,0.1C224.4,68.3,224.5,68.4,224.5,68.5z"/>
<path class="st1" d="M232.4,68.7c-1,0.8-2.2,1.3-3.4,1.4h-2.1l-0.2-0.2c1.3-1.6,3.7-1.6,5.8-1.4V68.7L232.4,68.7z"/>
<path class="st1" d="M156.5,69.6c0,0.2,0,0.3-0.1,0.5c-0.1,0.1-0.2,0.2-0.4,0.3c-0.2,0.1-0.4,0-0.5,0c-0.2-0.1-0.3-0.2-0.3-0.4
	c-0.1-0.2-0.1-0.3,0-0.5c0.1-0.2,0.2-0.3,0.4-0.4C155.9,68.8,156.3,69.3,156.5,69.6L156.5,69.6z"/>
<path class="st1" d="M158.5,70.1c0.1,0.2-0.1,0.3-0.2,0.5c-0.1,0.1-0.2,0.1-0.4,0.1s-0.3,0-0.4-0.1c-0.1,0-0.1-0.1-0.2-0.1
	c0,0-0.1-0.1-0.1-0.2c0-0.1,0-0.1,0-0.2c0-0.1,0-0.1,0.1-0.2c0.1-0.2,0.4-0.2,0.5-0.4C158.1,69.6,158.3,69.8,158.5,70.1z"/>
<path class="st1" d="M143.3,74.1c-0.4,0.5-1-0.1-1.5-0.4c-1.4-0.8-1.4-2.4-2.7-3.3c0.1-0.5,0.5,0,0.8,0c0.3,0.2,0.5,0.3,0.8,0.4
	C142,71.7,142.4,72.9,143.3,74.1L143.3,74.1z"/>
<path class="st1" d="M258.9,58.6c-0.3-0.5-0.7-1-1.3-1.3c-0.5-0.3-1.1-0.4-1.7-0.4c-0.5,0.1-0.9,0.2-1.3,0.5
	c-0.4,0.3-0.7,0.7-0.9,1.1c-0.1,0.4-0.1,0.8,0,1.2c0.1,0.4,0.4,0.7,0.7,1c0.1,0.1,0.3,0.1,0.4,0.1c0.1,0,0.3-0.1,0.4-0.3
	c0.2-0.5-0.4-0.5-0.4-0.9c-0.1-0.2-0.1-0.5,0-0.8c0.1-0.2,0.2-0.5,0.4-0.6c0.4-0.4,1.1-0.2,1.6-0.2c0.5,0.2,0.9,0.6,1.2,1.1
	c0.2,0.7,0.2,1.4,0,2.1c-0.2,0.5-0.6,0.9-1,1.3c-0.4,0.3-0.9,0.6-1.5,0.7c-3.3,0.5-39.4,0.3-39.4,0.3c-4.2,0.4-9.1-0.8-12.7,1.4
	c-1.7,0.8-2.5,2.6-2.9,4.3c-1.1,1-2.1,2-3.1,3.2l-0.1-0.1c0.2-1,0.6-1.8,0.8-2.8c0.6-0.8,0.6-1.9,1-2.8c1.5-2.4,2.9-4.9,5.3-6.6
	c1-1.3,2.7-1.1,4.2-1.1c1.7,0.8,3.6,1,5.5,0.8c0,0,0.1-0.1,0.1-0.1c0,0,0-0.1,0-0.2c-0.6-0.5-1.5-0.7-2.1-1.2
	c-1.6-0.8-3.1,0.2-4.8,0.1c-0.1-0.1-0.2-0.1-0.1-0.2c1.5-1.1,3.2-1.9,4.9-2.6c1.4-0.7,2.8-1.2,4.3-1.7c0.6,0,1.2-0.5,1.7-0.2
	l2.1-0.6c0.1,0,0.2,0.2,0.3,0.1c1.8-0.6,4,0,6.1-0.1l0.3,0.2l1.9,0.5c0.7,0.1,1,0.9,1.8,1c0.4-0.6-0.4-0.8-0.6-1.2
	c0.9-0.1,1.8,0,2.7,0.4l-0.4,0.4c-0.2,0.4,0.1,0.8,0.5,0.9s0.5-0.1,0.7-0.2c0.5-0.4,0-0.7,0.1-1c2.9,0.5,5.7,1.3,8.5,2.4
	c0.7,0.4,1.5,0.6,2.3,0.8c-0.9-0.7-1.9-1.2-3-1.6c-0.7-0.4-1.6-0.4-2.1-1c0.1-0.2,0.4-0.1,0.5-0.3c1.4-0.3,2.6-1.1,3.4-2.2
	c0.1-0.2,0.5-0.2,0.5-0.5c-0.3-0.4-1,0.1-1.4,0.1c-1.7,0.3-2.4,2.3-4,2.6c-2-0.5-4.1-1-6.1-1.5c-1-0.1-2-0.3-3-0.6l-2.2-0.2h-4
	c0-0.1-0.2-0.1-0.1-0.2c1.4-0.4,2.7-1.2,4.1-1.6l10.6-5c1.1-1,2.1-2.1,3-3.3c0-0.2,0-0.3-0.1-0.5c-0.1-0.1-0.2-0.2-0.3-0.3
	c-0.1-0.1-0.3-0.1-0.4-0.1c-0.1,0-0.3,0.1-0.4,0.2c-0.5,0.4,0,0.8,0,1.2c-0.5,0.7-1.1,1.2-1.8,1.6c-0.2,0-11,4.9-11,4.9
	c-1.6,0.7-3.2,1.3-4.8,1.8l-2.3,0.4c-0.1,0.2-0.2,0.4-0.4,0.6c-0.2,0.2-0.4,0.3-0.6,0.3c-0.6,0.2-1.2,0.4-1.8,0.5
	c-5.1,2-10.5,4.1-14.6,8.2c0.2-0.5,0.4-1.1,0.4-1.7c0-0.6-0.1-1.2-0.4-1.8c-0.1-0.2-0.4-0.9-0.3-1.1l-0.6,0.4
	c-0.5,1.1-0.6,2.3-0.3,3.4c0.1,0.7,0.7,1.6,0.2,2.2c-1.9,2.3-3,5.1-4.2,7.8c-0.5-0.1-0.7-0.5-0.9-1c1.4-1.7,2.4-3.7,2.8-5.8
	c0.3-0.2,0.1-0.7,0.4-1c-0.1-0.6,0.4-1.3,0-1.8c0.2-0.9-1.2-1.7-0.3-2.2l-0.7,0.4c-1.7,2.2,0.9,5.6-1.1,7.7v0.2
	c-0.4,0.7-0.9,1.4-1.6,1.9c-1-0.4-1.3-1.5-1.9-2.3c-0.4-0.5-0.6-1.2-0.7-1.8c-0.1-0.7,0.1-1.3,0.4-1.9c0.4-1.2-0.2-2.2-0.4-3.2
	l-0.4-0.2c-0.5,0.7-0.8,1.4-0.9,2.3c-0.1,0.8,0,1.7,0.4,2.4c0.4,0.7,0.4,1.7,1,2.3c0.4,1.1,1,2.1,1.7,3c0.2,0.4-0.2,0.5-0.4,0.7
	c-0.4-0.3-0.4-0.9-0.8-1.2c-1.3-2.7-3-5.1-5.1-7.3c-0.1-0.4-0.4-0.7-0.2-1.1c0.4-0.4,0.6-0.9,0.7-1.4c0.1-0.5,0-1.1-0.2-1.6
	c-0.1-0.2-0.3-0.4-0.3-0.6l-0.6-0.5c0.1,1.4-0.8,2.6-0.4,4.1v0.1c-4.1-3.1-8.5-5.8-13.2-8l-0.4,1c1.5,0.6,2.9,1.3,4.2,2.2
	c1.4,0.6,2.7,1.3,4,2.1c5.4,3,9,8,11.4,13.5c0,0.4,0.4,0.9,0.2,1.4c-0.9-1.1-1.9-2.1-3-3c-0.1-0.9-0.4-1.8-1-2.6
	c-0.5-0.8-1.2-1.4-2-1.8c-0.6-0.9-1.9-1-2.9-1.2l-14.4-0.1c-11.7-0.2-22.4,0.4-34.1,0.2c-1.6-0.2-3.6-0.7-4.1-2.4
	c-0.2-0.3-0.2-0.7-0.2-1.1c0-0.4,0.1-0.8,0.2-1.1c0.2-0.3,0.5-0.6,0.9-0.8s0.7-0.3,1.1-0.3c0.3,0.1,0.6,0.2,0.8,0.4
	c0.2,0.2,0.4,0.4,0.6,0.7c0,0.5-0.4,1-0.6,1.4c0,0.2,0.2,0.5,0.5,0.4c0.3-0.1,0.5-0.3,0.6-0.5c0.2-0.2,0.3-0.5,0.4-0.8
	c0-0.3,0.2-0.7-0.1-0.9c-0.1-0.4-0.4-0.8-0.7-1.1c-0.3-0.3-0.7-0.5-1.1-0.6c-0.5-0.1-1,0-1.5,0.2c-0.5,0.2-0.9,0.4-1.2,0.8
	c-0.9,0.8-0.9,2.2-0.6,3.4c0.4,0.9,1,1.6,1.7,2.2c0.8,0.6,1.6,0.9,2.6,1l38.6,0.2c3.8,0.2,8-0.4,11.8,0.3c0.7,0.2,1.4,0.6,2,1.1
	c0.6,0.5,1,1.2,1.2,1.9c0,0.1-0.2,0-0.3,0c-3.4-2-7.4-2.8-11.3-2.2c-1.5,0.1-3,0.4-4.4,0.9c-0.3,0.1-0.7,0-1-0.1s-0.6-0.3-0.9-0.5
	c-1.4-1.3-3.9-1.2-5.8-0.7c0,0.1,0,0.2,0,0.3c1.9-0.2,3.1,1.5,4.8,1.7c0.4,0.1,0.7-0.4,1.1,0c-1.8,1-3.6,1.8-5.5,2.5
	c-0.6-0.1-0.9-0.7-1.4-1c-0.8-0.8-2.2-0.5-3.2-0.6c-0.3,0.1-0.7-0.2-0.9,0c0.4,0.6,1,1.1,1.7,1.3c1,0.4,2.1,0,3.1,0.6
	c-0.3,0.2-0.5,0.4-0.8,0.6c-1.9,0.7-3.4,2.4-5.5,2.3c-1.1,0.1-2.1,0-3.2-0.3c-1-0.3-1.9-0.9-2.7-1.6c-0.3-0.8-0.9-1.4-1.6-1.8
	c-0.7-0.4-1.5-0.6-2.4-0.5c-0.1,0.1-0.3,0.1-0.2,0.3c0.9,0.5,1.5,1.6,2.4,2.2c0.6,0.7,1.6,0,2.1,0.8c0.8,0.5,1.7,0.9,2.6,1.1
	c0.7,0.3,1.4,0.4,2.1,0.6l-0.3,0.2c-3.6,1.2-7.8,1.3-11.8,1.2c-1.2,0-2.3-0.4-3.5-0.4c0.3,0.3,0.6,0.5,1,0.6
	c-0.3,0.2-0.7,0.3-1.1,0.3c-0.5,0.1-1,0.2-1.5,0.4c-0.6,0-1.2,0.1-1.7,0.4c-0.6,0.7-1.4,1.4-2.3,1.8c0,0.2,0,0.4,0.2,0.4
	c0.8-0.3,1.7-0.1,2.5-0.4c1.3-0.1,2.1-1.6,3.1-2.2c1.1-0.9,2.7-0.7,4.1-0.5c0.8,0.2-0.1,0.5,0.2,1c0.3,0.3,0.6,0.6,1,0.5
	c0.1-0.1,0.2-0.2,0.3-0.2c0.1-0.1,0.1-0.3,0.1-0.5c0-0.2-0.1-0.4-0.1-0.5c0.6-0.4,1.3,0,1.9-0.2c1.5,0,3-0.4,4.5-0.4
	c0.2,0,0.5-0.3,0.8,0c-0.1,0.3-0.5,0.4-0.4,0.8c0.2,0.4,0.5,0.5,0.8,0.6c0.4-0.2,0.8-0.4,0.6-1c-0.1-0.3-0.4-0.3-0.6-0.4
	c0.8-0.4,1.8-0.5,2.6-0.9c0.6-0.1,1.1-0.3,1.7-0.6c0.5,0,1-0.5,1.4-0.3c-0.2,0.7-0.5,1.3-0.8,1.9c-0.6,2.1-1.1,4.9,0,7
	c0.1,0,0.2,0,0.2-0.1c-0.8-2.1-0.4-4.6,0.3-6.6c0.6-3.4,4.1-4.4,6.6-5.7l0.1,0.2c-0.7,1.8-1.7,3.4-1.5,5.5c0.1,0.4-0.2,0.7,0,1
	c0.7-0.5,1.2-1.1,1.5-1.8c0.3-1.8-0.8-4,1.1-5.3c3.2-1.3,6.3-3,10.1-3c0.1,0.1,0.4-0.1,0.4,0.1c-0.8,0.9-1.9,1.7-2.3,2.8
	c-1.3,1.8-1.2,4.8-0.7,6.9c0.4,1.2-0.7,1.9-1.2,2.9c-0.2,0.3-0.3,0.9-0.6,1.3l0.8,0.1c0.8-0.7,1.2-1.6,1.4-2.6
	c0,0.2,0.1,0.4,0.3,0.5c0.1,0.1,0.3,0.2,0.5,0.3c0.3-0.4-0.2-0.8-0.3-1.2c0.6-0.4,0.9,0.4,1.4,0.6c0.8,0.3,1.6,0.5,2.4,0.6l0.3-0.3
	c-0.9-1.4-2.6-1.6-4.1-1.7c-0.7-1.4-0.9-3-0.7-4.5c0.1-0.9,0.4-1.7,0.8-2.5c0.3-0.6,0.7-1.1,1.1-1.5c0.7-0.7,1.6-1.1,2.5-1.4h0.1
	c0,0,0,0.1,0,0.1c-1.1,0.8-1.2,2-1.8,3c-0.4,0.5-0.6,1.1-0.7,1.7c-0.1,0.6,0,1.2,0.3,1.8c0.2,0.5,0.1,1.3,0.7,1.7
	c0.4-0.8,0.7-1.6,0.8-2.4c-0.1-1.3-0.9-2.6-0.2-3.8c0.2-0.4,0.5-0.8,0.9-1.1c0.4-0.3,0.8-0.5,1.3-0.6c2.2-0.2,4.1,0.9,6,1.8
	c0.4,0.3,1.1,0.5,1.2,1.1c0,0.5-0.2,1-0.4,1.5c-0.3,0.5-0.6,0.9-1.1,1.2c-0.5,0.3-1.2,0.5-1.8,0.5c-0.6,0-1.3-0.2-1.8-0.5
	c-0.3-0.3-0.5-0.7-0.6-1.1c-0.1-0.4-0.1-0.9,0-1.3c0.2-0.3,0.5-0.5,0.8-0.6c0.3-0.1,0.7-0.1,1,0c0.4,0.2,0.8,0.6,1.3,0.4
	c0.1-0.1,0.2-0.2,0.2-0.3c0-0.1,0-0.2,0-0.4c-0.4-0.2-0.6-0.8-1.2-0.9c-0.4-0.1-0.8-0.1-1.1,0c-0.4,0.1-0.7,0.2-1,0.5
	c-0.4,0.3-0.7,0.8-0.9,1.3c-0.2,0.5-0.2,1-0.1,1.5c0.1,0.6,0.4,1.2,0.9,1.6c0.4,0.5,1,0.8,1.6,0.9c0.9,0.2,1.8,0.2,2.7-0.1
	c0.9-0.3,1.6-0.9,2.2-1.6c0.4-0.5,0.7-1.1,0.9-1.7c1.9,1.3,3.3,3.1,4.1,5.3c0.1,0.7,0.1,1.3,0,2l1.4,0.1c-0.1-0.3-0.1-0.7,0.1-1
	c0.6-2.6,2.2-4.9,4.3-6.6c0.7-0.4,0.5,0.5,0.7,0.8c0.3,0.7,0.8,1.4,1.4,1.9c0.6,0.5,1.3,0.9,2.1,1.1c0.8,0.2,1.6,0.1,2.3-0.1
	c0.8-0.2,1.4-0.7,1.9-1.3c0.5-1,1.1-2.4,0.3-3.4c-0.3-0.3-0.6-0.6-1-0.8c-0.4-0.2-0.8-0.3-1.2-0.2c-0.5,0-0.9,0.2-1.3,0.5
	c-0.4,0.3-0.7,0.6-0.9,1c0,0.3,0,0.7,0.2,0.8c0.2,0,0.5,0,0.6-0.2c0.1-0.6,0.6-0.9,1.1-1.2c0.2-0.1,0.4-0.1,0.7-0.1
	c0.2,0,0.4,0.1,0.6,0.3c0.2,0.2,0.3,0.5,0.4,0.7c0.1,0.3,0.1,0.6,0.1,0.8c0,0.4-0.2,0.8-0.4,1.1c-0.2,0.3-0.5,0.6-0.9,0.8
	c-0.6,0.3-1.3,0.4-2,0.3c-0.7-0.1-1.3-0.3-1.9-0.7c-0.4-0.5-0.8-1.1-1.1-1.8c-0.2-0.6-0.2-1.2,0-1.8c1.7-1.1,3.7-1.8,5.7-2
	c0.8,0.2,1.6,0.7,2.1,1.3c1.8,1.9-0.4,4.6,0.9,6.6c0.5-0.1,0.5-0.7,0.7-1.1c0.6-1.4-0.2-3-0.5-4.4c-0.4-0.9-0.9-1.7-1.5-2.4
	c0.2-0.1,0.3-0.1,0.5-0.1c0.9,0.6,1.8,1.3,2.4,2.1c1.2,2,1.7,4.3,1.6,6.6c-0.3,1.2-1.6,1.8-2.6,2.2c-0.5,0.3-0.8,0.8-1.1,1.2
	c0.5,0.3,1.2,0,1.6-0.2c0.8-0.3,1.2-1.2,1.7-1.7c0.1,0,0,0.2,0.1,0.2c0,0.4-0.2,1,0.2,1.2c0.2-0.7,0.3-1.3,0.4-2
	c0.4,0.6,0.7,1.3,0.8,2c0.4,0.7,0.9,1.7,1.9,1.8c0.2-0.4,0-0.7-0.1-1c-0.1-1-1-1.5-1.5-2.2c-1.4-1.9-0.8-4.9-1.8-7.1
	c-0.5-1.1-1.2-2.2-2.1-3l0.2-0.2c1.8,0.1,3.6,0.5,5.4,1c2.2,1.1,5.4,0.8,6.4,3.7c0.4,1.6,1.2,3.1,2.3,4.3l0.1-0.1
	c0.1-0.2,0.2-0.5,0.2-0.7s-0.1-0.5-0.2-0.7c-0.2-2-2-2.5-2.9-4.2l0.1-0.2c1,0.3,2,0.6,2.9,0.9c1.6,0.5,2.9,1.5,4,2.8
	c1,1.3,1.7,2.8,1.8,4.5c0,2.4-0.5,4.7-1.5,6.8c-0.1,0.3-0.7,0.7-0.3,1c0.4-0.3,0.5-0.8,0.8-1.2c1.4-2.4,1.9-5.3,1.3-8
	c0-0.5-0.6-0.9-0.4-1.4c0.2,0.2,0.4,0.3,0.7,0.4c0.2-0.2,0.6-0.2,0.8-0.4c0.2-0.3,0.2-0.5,0-0.7c-0.1-0.1-0.3-0.3-0.5-0.3
	c-0.2,0-0.4,0-0.6,0c-0.2,0.2-0.4,0.5-0.5,0.9c-0.4-0.8-0.8-1.5-1.4-2.1l0.1-0.1c1.8,0.6,3.4,1.5,5.2,2c0.4,0.3,0.9,0.4,1.4,0.4
	c1.6,0.5,3.3,0.9,4.9,1.1c1.2-0.1,2.2,0.4,3.4,0.2v-0.1c-0.4-0.6-1.4,0-1.9-0.4c-2.7-0.3-5.3-1-7.8-1.9c0-0.1,0.2-0.1,0.3-0.1
	c0.2-0.1,0.4-0.2,0.5-0.4c0.1-0.2,0.2-0.4,0.2-0.6c-0.1-0.1-0.2-0.3-0.4-0.3c-0.2-0.1-0.3-0.1-0.5-0.1c-0.1,0.1-0.3,0.2-0.4,0.3
	c-0.1,0.1-0.2,0.3-0.2,0.4c0,0.2,0.1,0.3,0.2,0.5c0.1,0.1,0.2,0.2,0.4,0.3c-0.1,0.1-0.2,0-0.4,0c-1.2-0.6-2.4-1.1-3.6-1.6
	c-0.4-0.1-0.8-0.4-1.2-0.5c-0.9-0.4-1.8-0.9-2.7-1.2c-2.6-1.2-5.3-2.2-8.1-3l-1.7-0.5c-1-0.3-2-0.5-3-0.8c-3.4-0.8-7.9-0.9-10.8,0.9
	c-0.5-0.2-0.8,0.6-1,0.1c0.8-2.2,3.3-2.9,5.4-3c15.9-0.2,30.8-0.3,46.5-0.5c0.9,0.1,1.8-0.1,2.6-0.5c0.8-0.4,1.5-1,2-1.8
	c0.3-0.5,0.5-1.2,0.6-1.8s-0.1-1.3-0.3-1.9L258.9,58.6z M195.8,73.3c-0.2,0.4-0.4,0.9-0.4,1.4l-0.2,0.1c0.1-0.6-0.5-1-0.3-1.6
	c-0.3-0.5-0.3-1.1-0.6-1.6c-0.3-0.5,0.3-0.9,0.6-1.4c0.6,0.2,0.8,0.8,1.1,1.2C196.3,72.2,195.8,72.7,195.8,73.3z"/>
<path class="st1" d="M238.9,70.8c0,0.1,0.2,0.2,0.2,0.4c-1.5,1.2-3.4,1.7-5.3,1.7c-0.2,0-0.3,0.2-0.5,0.1s-0.2-0.2-0.1-0.3
	c0.7-0.8,1.6-1.4,2.6-1.7C236.7,70.7,237.8,70.6,238.9,70.8z"/>
<path class="st1" d="M232.5,71.5c0.2,0.6-0.2,0.9-0.6,1.1c-0.2,0-0.4-0.1-0.5-0.2c-0.2-0.1-0.3-0.3-0.4-0.4
	c-0.1-0.3,0.2-0.5,0.3-0.7c0.1-0.1,0.2-0.2,0.3-0.2c0.1,0,0.2,0,0.4,0c0.1,0,0.2,0.1,0.3,0.2C232.4,71.2,232.4,71.3,232.5,71.5z"/>
<path class="st1" d="M157.1,71.5c0,0.1,0.1,0.3,0,0.4c0,0.1-0.1,0.3-0.2,0.4c-0.1,0.1-0.2,0.2-0.3,0.2c-0.1,0-0.3,0-0.4,0
	c-0.3,0-0.4-0.4-0.5-0.6c0-0.2,0.1-0.3,0.1-0.5c0.1-0.1,0.2-0.2,0.4-0.3C156.5,71.2,156.8,71.2,157.1,71.5z"/>
<path class="st1" d="M150,74.1v0.3c-0.4,0.1-0.9,0.1-1.4,0c-0.4-0.1-0.9-0.3-1.2-0.6c-0.5-0.9-1.2-1.5-2.1-2c0-0.1-0.2-0.3,0-0.4
	C147.3,71.5,148.5,73.1,150,74.1z"/>
<path class="st1" d="M244.9,71.5c-0.9,1.4-1.7,3-3.3,3.6c-0.3,0-0.5,0.4-0.8,0.1c0.7-1.7,1.9-3,3.5-3.8
	C244.5,71.4,244.7,71.4,244.9,71.5L244.9,71.5z"/>
<path class="st1" d="M159.4,72c0,0.4-0.3,0.5-0.5,0.8c-0.3,0-0.5-0.2-0.7-0.4c-0.2-0.4,0.2-0.6,0.4-0.8c0.2,0,0.3,0,0.5,0.1
	C159.2,71.7,159.3,71.8,159.4,72z"/>
<path class="st1" d="M249.9,72.2c-0.4,0.5-0.2,1.3-0.6,1.8c-0.8,0.9-1.5,2-2.7,2.1c-0.2-0.4,0.3-0.8,0.5-1.2
	c0.5-1.3,1.4-2.4,2.6-3.1L249.9,72.2z"/>
<path class="st1" d="M137.7,72.6c0.1,0.1,0.1,0.3,0.1,0.4c0,0.2,0,0.3-0.1,0.4c-0.1,0.1-0.3,0.2-0.4,0.2c-0.2,0-0.3,0-0.5,0
	c-0.2-0.1-0.3-0.3-0.4-0.4c-0.1-0.2,0-0.4,0-0.6C136.7,72.3,137.4,72.1,137.7,72.6L137.7,72.6z"/>
<path class="st1" d="M135.4,73.1c0,0.2,0.2,0.4,0.1,0.6c-0.1,0.1-0.1,0.2-0.2,0.3c-0.1,0.1-0.2,0.1-0.3,0.2c-0.2,0-0.4,0-0.5-0.1
	c-0.2-0.1-0.3-0.2-0.4-0.4c0-0.2,0-0.3,0.1-0.5c0.1-0.2,0.2-0.3,0.3-0.4c0.2-0.1,0.4-0.1,0.6,0C135.2,72.8,135.4,72.9,135.4,73.1
	L135.4,73.1z"/>
<path class="st1" d="M140.1,73.3c0.1,0.3,0.1,0.9-0.3,1c-0.6,0.2-0.9-0.2-1.2-0.5c0-0.2,0-0.3,0.1-0.5c0.1-0.1,0.2-0.3,0.4-0.3
	c0.2,0,0.4,0,0.5,0C139.8,73.1,139.9,73.2,140.1,73.3L140.1,73.3z"/>
<path class="st1" d="M146.6,73.8c0,0.3,0,0.7-0.3,0.8c-0.3,0.1-0.6,0.1-0.8,0.1c-0.1-0.2-0.5-0.4-0.3-0.7c0.1-0.2,0.3-0.3,0.6-0.4
	C146.1,73.6,146.4,73.5,146.6,73.8z"/>
<path class="st1" d="M253.7,74.1c-0.1,0.3-0.3,0.6-0.6,0.6c-0.2,0-0.4,0-0.5-0.1c-0.2-0.1-0.3-0.2-0.4-0.3c-0.2-0.4,0.2-0.7,0.5-0.8
	C253,73.4,253.6,73.7,253.7,74.1L253.7,74.1z"/>
<path class="st1" d="M246.4,74.3c0,0.3-0.3,0.6-0.5,0.7c-0.2,0.1-0.5,0.1-0.7-0.1c-0.2-0.1-0.4-0.3-0.5-0.5c0-0.2,0.1-0.3,0.2-0.5
	c0.1-0.1,0.3-0.2,0.4-0.3c0.2,0,0.4,0,0.6,0.2C246.2,73.9,246.3,74.1,246.4,74.3L246.4,74.3z"/>
<path class="st1" d="M251.4,74.2c0,0.1,0,0.3-0.1,0.4c-0.1,0.1-0.2,0.2-0.3,0.3c-0.2,0.1-0.3,0.1-0.5,0.1c-0.2,0-0.3-0.1-0.5-0.2
	c-0.4-0.3-0.1-0.6,0.2-0.8C250.4,73.7,251.2,73.7,251.4,74.2z"/>
<path class="st1" d="M136.6,74.9c0.1,0.2,0,0.4-0.1,0.6c-0.1,0.2-0.2,0.3-0.4,0.4c-0.2,0-0.4,0-0.5-0.1c-0.2-0.1-0.3-0.2-0.3-0.4
	c0-0.2,0-0.3,0.1-0.5c0.1-0.2,0.2-0.3,0.3-0.3c0.2,0,0.4,0,0.6,0C136.4,74.6,136.6,74.7,136.6,74.9L136.6,74.9z"/>
<path class="st1" d="M244.5,75.3c0,0.2,0,0.4-0.1,0.6c-0.1,0.2-0.3,0.3-0.5,0.4c-0.1,0-0.3,0-0.4,0c-0.1,0-0.2-0.1-0.3-0.2
	c-0.2-0.2-0.4-0.6,0-0.8c0.1-0.1,0.2-0.2,0.3-0.3c0.1-0.1,0.3-0.1,0.4-0.1c0.1,0,0.3,0.1,0.4,0.1C244.3,75.1,244.4,75.2,244.5,75.3
	L244.5,75.3z"/>
<path class="st1" d="M158,75.8c0.2,0.4-0.3,0.5-0.4,0.8c-0.2,0.1-0.5,0.1-0.6,0c-0.1-0.1-0.4-0.5-0.3-0.8c0.2-0.2,0.3-0.3,0.5-0.4
	C157.6,75.2,157.8,75.6,158,75.8L158,75.8z"/>
<path class="st1" d="M253,76.1c0.1,0.3-0.1,0.4-0.2,0.6c-0.1,0.1-0.3,0.2-0.4,0.2s-0.3,0-0.5,0c-0.4-0.2-0.4-0.5-0.4-0.9
	c0.2-0.2,0.3-0.4,0.6-0.4c0.2,0,0.4,0,0.5,0.1C252.8,75.7,252.9,75.9,253,76.1z"/>
<path class="st1" d="M250.5,76.2c0.1,0.5-0.3,0.7-0.6,0.8c-0.2,0-0.4-0.1-0.4,0.2c0.9,0.6,1.8,1.3,2.5,2.1v0.3
	c-0.7,0-1.5-0.1-2.2-0.3c-0.7-0.3-1.3-0.7-1.8-1.2c-0.3-0.2-0.8-0.2-1.1-0.5c0.5-0.5,1.5-0.3,2.2-0.4c0.5-0.6-0.6-1,0.1-1.4
	c0.2,0,0.4-0.3,0.7-0.2C250.2,75.7,250.4,75.9,250.5,76.2L250.5,76.2z"/>
<path class="st1" d="M234.3,76.2c0.1,0.2-0.2,0.4-0.2,0.6c-0.1,0.1-0.3,0.2-0.4,0.2c-0.2,0-0.3,0-0.5-0.1c-0.2-0.3-0.5-0.5-0.4-0.9
	c0.1-0.1,0.2-0.2,0.3-0.3c0.1-0.1,0.3-0.1,0.4-0.1c0.2,0,0.3,0.1,0.4,0.2C234.1,75.9,234.2,76.1,234.3,76.2z"/>
<path class="st1" d="M145.6,77.6c-0.1,0.4-0.3,0.6-0.7,0.6c-0.2,0-0.3,0-0.4-0.1c-0.1-0.1-0.2-0.2-0.3-0.3c0-0.3,0.2-0.4,0.2-0.6
	C144.9,76.8,145.6,77,145.6,77.6z"/>
<path class="st1" d="M148.8,77.1c0,0.6-0.6,0.9-0.8,1.4c-0.2,0.7-0.7,1.3-1.2,1.8c-0.6,0.5-1.2,0.8-1.9,0.9
	c-0.2-0.4,0.5-0.8,0.7-1.2c0.6-1.4,1.9-2.1,3.1-2.9H148.8z"/>
<path class="st1" d="M233.4,77.6c0,0.4-0.4,0.8-0.7,0.9c-0.3,0.2-0.6-0.2-0.8-0.3c-0.3-0.3-0.1-0.6,0-1
	C232.3,76.7,233,77.1,233.4,77.6L233.4,77.6z"/>
<path class="st1" d="M235.8,77.9c0,0.2-0.1,0.4-0.2,0.6c-0.1,0.2-0.3,0.3-0.5,0.3c-0.1-0.1-0.3,0-0.4-0.1c-0.1-0.1-0.3-0.2-0.4-0.3
	c-0.1-0.1-0.1-0.3-0.2-0.4c0.2-0.2,0.3-0.5,0.6-0.6S235.7,77.5,235.8,77.9z"/>
<path class="st1" d="M155,77.9c0,0.2-0.1,0.4-0.2,0.5s-0.3,0.3-0.4,0.3c-0.2,0-0.3,0-0.5-0.1c-0.1-0.1-0.2-0.2-0.3-0.4
	c-0.1-0.4,0.3-0.6,0.5-0.8C154.6,77.3,154.7,77.7,155,77.9z"/>
<path class="st1" d="M157.7,78.1c-0.1,0.2-0.2,0.3-0.3,0.4c-0.1,0.1-0.3,0.2-0.5,0.2c-0.3-0.1-0.6-0.2-0.7-0.5
	c-0.1-0.3,0.3-0.6,0.6-0.8c0.2,0,0.4,0,0.6,0.1C157.5,77.7,157.7,77.9,157.7,78.1z"/>
<path class="st1" d="M244.3,80.9c0.2,0.2,0.6,0.4,0.5,0.6c-0.6,0.3-1.1-0.4-1.7-0.6c-0.9-0.9-1.6-2-2.1-3.2c0.4-0.4,0.8,0.1,1.1,0.2
	C243.1,78.7,243.8,79.7,244.3,80.9z"/>
<path class="st1" d="M245.8,78.1c0.1,0.1,0.1,0.3,0.1,0.4c0,0.2-0.1,0.3-0.1,0.4c-0.2,0.4-0.8,0.3-1.1,0.2c-0.2-0.2-0.6-0.6-0.3-0.9
	c0.2-0.4,0.5-0.4,0.8-0.5S245.5,77.9,245.8,78.1z"/>
<path class="st1" d="M161.4,79.1c0,0.3,0.1,0.8-0.3,1c-0.1,0-0.2,0.1-0.3,0c-0.1,0-0.2,0-0.3-0.1s-0.2-0.1-0.2-0.2
	c-0.1-0.1-0.1-0.2-0.2-0.3c-0.2-0.5,0.2-0.6,0.5-0.8C160.9,78.7,161.1,78.9,161.4,79.1L161.4,79.1z"/>
<path class="st1" d="M235.7,81.7c0.6,0.8,0.9,1.8,1,2.8c-0.1,0.3,0.2,0.6,0,0.8h-0.2c-1.8-1.3-2.2-3.1-2.9-4.9
	c-0.1,0-0.1-0.1-0.2-0.2c0-0.1,0-0.2,0-0.2c0.4-0.4,0.7,0.4,1.1,0.5L235.7,81.7L235.7,81.7z"/>
<path class="st1" d="M166.5,80.3L166.5,80.3c-1.6,1.2-3.8,1.9-5.6,0.8c0-0.1,0-0.2,0-0.2c0-0.1,0.1-0.1,0.2-0.1
	c1.1-0.5,2.3-0.8,3.5-0.8L166.5,80.3L166.5,80.3z"/>
<path class="st1" d="M157.5,80.5c-1.4,0.8-2.6,2.5-4.2,2.9c-0.3,0.1-0.5,0.6-0.9,0.3c0.7-2.2,3.1-3.3,5.2-3.5V80.5z"/>
<path class="st1" d="M233.4,82.3c0.1,0.3,0,0.8-0.3,0.8c-0.1,0.1-0.2,0.2-0.4,0.2s-0.3-0.1-0.4-0.2c-0.4-0.2-0.4-0.5-0.4-0.8
	s0.4-0.3,0.6-0.4C232.9,82,233.1,82,233.4,82.3z"/>
<path class="st1" d="M230.1,82.5c-0.2,0.3-0.4,0.5-0.6,0.6s-0.5,0.3-0.8,0.4c-1.4,0.5-2.6-0.2-3.8-0.5c0-0.3,0.4-0.2,0.6-0.4
	c1.3-0.4,2.7-0.4,4-0.2c0.1-0.1,0.2-0.1,0.3-0.1C229.9,82.4,229.9,82.4,230.1,82.5L230.1,82.5z"/>
<path class="st1" d="M157.5,83.7c-0.1,0.2-0.2,0.5-0.5,0.6c-0.1,0-0.3,0.1-0.4,0c-0.1,0-0.3-0.1-0.4-0.2c-0.1-0.2-0.4-0.4-0.2-0.7
	c0.2-0.3,0.4-0.3,0.6-0.4c0.2,0,0.4,0.1,0.5,0.2C157.3,83.3,157.4,83.5,157.5,83.7z"/>
<path class="st1" d="M159.8,84c-0.1,0.3-0.3,0.6-0.6,0.8c-0.1,0-0.3,0-0.4,0c-0.1,0-0.3-0.1-0.4-0.2c-0.1-0.1-0.1-0.2-0.2-0.4
	c0-0.1,0-0.3,0-0.4c0.1-0.2,0.4-0.2,0.6-0.4C159.3,83.4,159.6,83.7,159.8,84z"/>
<path class="st1" d="M232.6,84.4c0,0.3-0.1,0.6-0.3,0.8c-0.1,0.1-0.2,0.2-0.4,0.2c-0.2,0-0.3,0-0.5-0.1c-0.3,0-0.4-0.4-0.5-0.6
	s0.2-0.5,0.3-0.8c0.1-0.1,0.2-0.1,0.4-0.2c0.1,0,0.3,0,0.4,0s0.3,0.1,0.4,0.2C232.5,84.2,232.6,84.3,232.6,84.4z"/>
<path class="st1" d="M234.3,84.4c0,0.2,0.2,0.4,0.1,0.6c-0.2,0.2-0.4,0.7-0.9,0.5c-0.2,0.1-0.4-0.2-0.5-0.3
	c-0.1-0.1-0.1-0.2-0.1-0.3c0-0.1,0-0.2,0.1-0.3c0-0.1,0.1-0.2,0.2-0.3c0.1-0.1,0.2-0.1,0.3-0.2C233.9,83.9,234.1,84.2,234.3,84.4z"
	/>
<path class="st1" d="M158.4,85.5c0,0.2,0,0.4,0,0.6c-0.1,0.2-0.2,0.4-0.4,0.5c-0.4,0.1-1,0.1-1.1-0.4c0-0.2,0-0.4,0.1-0.7
	c0.1-0.2,0.2-0.4,0.4-0.5c0.2,0,0.4,0,0.6,0.1C158.1,85.2,158.3,85.4,158.4,85.5L158.4,85.5z"/>
<path class="st1" d="M160.6,85.4c-0.1,1.1-0.3,2.5-1.4,3.1c-0.6,0.1-1.3,0.7-1.9,0.3v-0.2C158.1,87.4,159.6,86.5,160.6,85.4
	L160.6,85.4z"/>
<path class="st1" d="M226.4,86.3c0.2,0.2-0.1,0.4-0.2,0.6c-0.1,0.2-0.7,0.2-1,0c-0.3-0.2-0.3-0.5-0.2-0.8c0.1-0.1,0.1-0.2,0.2-0.3
	c0.1-0.1,0.2-0.1,0.3-0.2C225.9,85.7,226.2,86,226.4,86.3L226.4,86.3z"/>
<path class="st1" d="M164.6,88.1c0.6,0.9,0.2,2.2,0.6,3.2c-0.7,0.1-0.9-0.7-1.4-1.1c-0.9-1.2-0.8-2.8-1.1-4.2c0,0,0.1-0.1,0.1-0.1
	c0.1,0,0.1,0,0.2,0c0.6,0.5,1.1,1.1,1.5,1.7C164.3,87.9,164.6,87.9,164.6,88.1L164.6,88.1z"/>
<path class="st1" d="M228.4,86.6c0,0.3-0.4,0.4-0.6,0.6c-0.3,0-0.5-0.2-0.8-0.4c-0.1-0.4,0.2-0.5,0.4-0.7c0.1,0,0.2-0.1,0.3-0.1
	c0.1,0,0.2,0,0.3,0.1c0.1,0,0.2,0.1,0.2,0.2C228.3,86.4,228.3,86.5,228.4,86.6z"/>
<path class="st1" d="M233.1,90.2c0,0.1,0,0.3-0.2,0.3h-0.2c-1.1-1-2.3-2.2-2.1-3.8h0.2C231.8,87.6,233,88.6,233.1,90.2L233.1,90.2z"
	/>
<path class="st1" d="M230.1,88.9c0,0.1,0,0.3-0.1,0.4c-0.1,0.1-0.2,0.2-0.3,0.3c-0.4,0.1-1.1,0.1-1.2-0.5c0-0.4,0.4-0.6,0.6-0.8
	c0.2,0,0.4,0,0.6,0.1C229.9,88.5,230,88.7,230.1,88.9z"/>
<path class="st1" d="M227.5,89.7c-0.6,1.5-2.1,2.2-3.1,3.3c-0.2-0.1-0.1-0.4-0.1-0.6c0.2-0.8,0.6-1.5,1.1-2.1
	c0.5-0.6,1.2-1.1,1.9-1.5C228,89,227.4,89.4,227.5,89.7z"/>
<path class="st1" d="M230.4,90.9c0,0.4-0.3,0.5-0.6,0.7c-0.2,0-0.3,0-0.5-0.1c-0.2-0.1-0.3-0.2-0.4-0.3c0-0.4,0.3-0.5,0.5-0.7
	c0.2,0,0.4,0,0.5,0.1C230.2,90.6,230.4,90.8,230.4,90.9z"/>
<path class="st1" d="M200.9,18.4c0.3,0,0.5,0.1,0.7,0.3c0.2,0.2,0.3,0.4,0.3,0.7s-0.1,0.5-0.3,0.7c-0.2,0.2-0.4,0.3-0.7,0.3h-11.8
	c-0.3,0-0.5-0.1-0.7-0.3c-0.2-0.2-0.3-0.4-0.3-0.7s0.1-0.5,0.3-0.7c0.2-0.2,0.4-0.3,0.7-0.3H200.9z M192.6,20.1
	c1.2,0,0.1-1.4-0.5-1.4h-1.2c-1.1,0-0.1,1.4,0.6,1.4H192.6z M197.4,20.1c1.1,0,0.1-1.4-0.6-1.4h-1.1c-1.2,0-0.1,1.4,0.5,1.4H197.4z
	 M200.6,18.7c-1.2,0-0.2,1.4,0.4,1.4c0.8,0,0.8-1.4,0-1.4H200.6z"/>
<path class="st1" d="M199.9,31.9l2.2,0.9l2.2-0.9l-0.9,3.3l1.8-0.4l-0.6,2l0.6,1.9l-1.6-0.4l0.7,3.6l-2.2-0.9l-2.2,0.9l0.9-3.6
	l-1.8,0.5l0.5-2l-0.5-1.9l1.7,0.3L199.9,31.9L199.9,31.9z M203.2,37.9c0.5,0,0.6-0.7,0.6-1.3c0-1.4-1.1,0-1.6-1.3
	c-0.4,1.1-1.5,0.1-1.5,1.2c0,0.8,0,1.3,0.8,1.3H203.2z M201,36.6c0,0.5,0.7,0.2,1.2,0.2s1.2,0.4,1.2-0.2c0-0.7-0.7-0.5-1.2-0.5
	S201,35.9,201,36.6z"/>
<path class="st1" d="M194.6,36.8v-0.4l-0.4-0.1l0.3-0.3l-0.2-0.3l0.4,0l0.2-0.4l0.2,0.4l0.4,0l-0.2,0.3l0.3,0.3l-0.4,0.1v0.4
	l-0.4-0.3L194.6,36.8z"/>
<path class="st1" d="M192.9,39v-0.4l-0.4-0.1l0.3-0.3l-0.2-0.3l0.4,0l0.2-0.4l0.2,0.4l0.4,0l-0.2,0.3l0.3,0.3l-0.4,0.1V39l-0.4-0.3
	L192.9,39z"/>
<path class="st1" d="M195.9,38.7v-0.4l-0.4-0.1l0.3-0.3l-0.2-0.3l0.4,0l0.2-0.4l0.2,0.4l0.4,0l-0.2,0.3l0.3,0.3l-0.4,0.1v0.4
	l-0.4-0.3L195.9,38.7z"/>
<path class="st1" d="M196.2,40.4v-0.2l-0.2,0l0.2-0.2l-0.1-0.2l0.2,0l0.1-0.2l0.1,0.2l0.2,0l-0.1,0.2l0.2,0.2l-0.2,0v0.2l-0.2-0.2
	L196.2,40.4z"/>
<path class="st1" d="M193.5,42.3v-0.7l-0.6-0.1l0.5-0.5l-0.3-0.6l0.7,0.1l0.4-0.7l0.4,0.7l0.7-0.1l-0.3,0.6l0.5,0.5l-0.6,0.1v0.7
	l-0.6-0.5L193.5,42.3z"/>
<path class="st1" d="M194.9,4.6l1.4,3.4l3.5-1l-1.8,3.2l3,2.1l-3.6,0.6l0.2,3.7l-2.7-2.5l-2.7,2.5l0.2-3.7l-3.6-0.6l3-2.1L189.9,7
	l3.5,1L194.9,4.6z"/>
<path class="st1" d="M182.1,81.6c-0.4,0.2-0.6,0.3-0.5,0.7l0.5,2.1c0.1,0.5,0.1,1-0.1,1.4c-0.4,0.4-0.9,0.7-1.4,0.9
	c-0.6,0.2-1.1,0.2-1.7,0c-0.2-0.1-0.4-0.2-0.6-0.4c-0.1-0.2-0.2-0.4-0.3-0.6l-0.5-2.2c-0.1-0.6-0.3-0.5-0.8-0.5v-0.2l2.7-0.6v0.2
	c-0.5,0.1-0.8,0.2-0.6,0.8l0.5,2.2c0.1,0.4,0.3,1.3,1.4,1c0.2,0,0.4-0.1,0.6-0.2c0.2-0.1,0.3-0.3,0.4-0.4c0.1-0.2,0.2-0.4,0.2-0.6
	c0-0.2,0-0.4-0.1-0.6l-0.5-2c-0.1-0.4-0.2-0.6-0.9-0.5v-0.2l1.7-0.4V81.6L182.1,81.6z"/>
<path class="st1" d="M186,82.1c-0.2-0.3-0.4-0.6-0.8-0.7s-0.7-0.2-1.1-0.1c-0.4,0.1-0.8,0.4-0.7,0.8s0.3,0.5,1,0.6l1.3,0.2
	c0.3,0,0.5,0.2,0.7,0.3c0.2,0.2,0.3,0.4,0.4,0.7c0.1,0.6-0.2,1.5-1.6,1.8c-0.5,0.1-0.9,0.1-1.4,0.1c-0.2,0-0.2,0.2-0.2,0.3h-0.2
	l-0.4-1.6h0.2c0.1,0.4,0.4,0.7,0.8,0.9c0.4,0.2,0.8,0.3,1.2,0.2c1-0.2,0.8-0.9,0.8-1c-0.1-0.4-0.5-0.5-1.1-0.6l-0.6-0.1
	c-1.5-0.2-1.6-0.8-1.7-1.1c-0.1-0.3,0-1.4,1.4-1.7c0.4-0.1,0.9-0.1,1.3-0.1c0.2,0,0.2-0.1,0.2-0.3h0.2l0.3,1.4L186,82.1L186,82.1z"
	/>
<path class="st1" d="M191.2,84.7l-2.9,0.3v-0.2c0.6-0.1,0.8-0.1,0.7-0.7l-0.4-3.5c-0.6,0.1-1.4,0.2-1.4,1.3h-0.2l-0.1-1.4l4.8-0.5
	l0.1,1.3h-0.2c-0.3-1.1-1.1-1-1.7-1l0.3,3.6c0.1,0.6,0.2,0.6,0.9,0.5L191.2,84.7L191.2,84.7z"/>
<path class="st1" d="M198,84.7h-1.7l-1.6-2.2h-0.2v1.3c0,0.5,0.2,0.6,0.7,0.6v0.2l-2.8-0.1v-0.2c0.6,0,0.7-0.1,0.7-0.6l0.1-3
	c0-0.6-0.2-0.6-0.7-0.6V80h2.6c0.6,0,2.3,0.1,2.3,1.2c0,0.8-0.9,1-1.3,1.1l1.6,2c0,0,0.1,0.1,0.1,0.1c0.1,0,0.1,0,0.2,0L198,84.7
	L198,84.7z M194.5,82.3c1.1,0,1.5-0.1,1.5-1c0-0.1,0-0.3,0-0.4c0-0.1-0.1-0.3-0.2-0.4c-0.1-0.1-0.2-0.2-0.4-0.2c-0.1,0-0.3,0-0.4,0
	c-0.4,0-0.5,0.1-0.5,0.3V82.3L194.5,82.3z"/>
<path class="st1" d="M203.3,85.4l-2.6-0.3v-0.2c0.5,0,0.6,0,0.7-0.2c0-0.3-0.1-0.7-0.3-1l-1.8-0.2c-0.2,0.3-0.3,0.5-0.5,0.8
	c0,0.3,0.3,0.3,0.6,0.4v0.2l-1.6-0.2v-0.2c0.4,0,0.6-0.2,0.9-0.7l2.3-3.4h0.2l1.4,3.8c0.3,0.8,0.4,1,0.8,1L203.3,85.4L203.3,85.4z
	 M201,83.5l-0.6-1.7l-1,1.5L201,83.5L201,83.5z"/>
<path class="st1" d="M208,86.4l-4.6-0.8v-0.2c0.5,0,0.7,0.1,0.8-0.4l0.6-3.2c0.1-0.4-0.2-0.5-0.6-0.6V81l2.8,0.5v0.2
	c-0.6-0.1-0.8-0.1-0.9,0.5l-0.6,3.2c-0.1,0.3,0.1,0.4,0.6,0.5c0.4,0.1,0.9,0.1,1.3-0.1c0.4-0.2,0.7-0.5,1-0.9l0.2,0.1L208,86.4
	L208,86.4z"/>
<path class="st1" d="M211,87.1l-2.8-0.6v-0.2c0.4,0,0.8,0.1,0.8-0.3l0.7-3.2c0.1-0.4-0.3-0.5-0.6-0.6V82l2.8,0.6v0.2
	c-0.4-0.1-0.8-0.1-0.9,0.3l-0.7,3.2c-0.1,0.4,0.2,0.5,0.6,0.6V87.1z"/>
<path class="st1" d="M216.7,87.8l-2.6-0.3v-0.2c0.5,0,0.7,0,0.7-0.2c0-0.3-0.1-0.6-0.3-0.9l-1.8-0.2c-0.2,0.3-0.3,0.5-0.4,0.8
	c0,0.3,0.4,0.3,0.6,0.4v0.2l-1.6-0.2V87c0.4,0,0.6-0.2,0.9-0.7l2.2-3.5h0.2l1.4,3.8c0.3,0.8,0.4,1,0.8,1L216.7,87.8L216.7,87.8z
	 M214.4,85.9l-0.6-1.7l-0.9,1.6L214.4,85.9z"/>
<path class="st1" d="M196,33c0-1.6-0.9-0.1-1.4-1.5c-0.4,1.2-1.5,0.2-1.5,1.4c0,0.2,0,0.3,0.1,0.5c0.1,0.2,0.2,0.3,0.3,0.4v0.5
	c0,0,0,0.1,0,0.1c0,0,0,0.1,0,0.1c0,0,0,0,0.1,0.1c0,0,0.1,0,0.1,0h1.7c0.1,0,0.1,0,0.2-0.1c0,0,0.1-0.1,0.1-0.2v-0.5
	c0.1-0.1,0.2-0.2,0.3-0.4C196,33.3,196,33.1,196,33z M194.6,33.3c-0.5,0-1.1,0.3-1.1-0.2c0-0.8,0.5-0.6,1-0.6c0.5,0,1.2-0.2,1.2,0.6
	C195.7,33.6,195,33.3,194.6,33.3L194.6,33.3z"/>
<path class="st1" d="M210.2,53c0.1,0,0.2-0.1,0.3-0.2c0.1-0.1,0.2-0.2,0.2-0.3c0-0.1,0-0.3,0-0.4c0-0.1-0.1-0.2-0.2-0.3
	c-0.1-0.1-0.2-0.1-0.3-0.2c-0.1,0-0.3,0-0.4,0.1c-0.1,0.1-0.2,0.1-0.3,0.2c-0.1,0.1-0.1,0.2-0.1,0.4c0,0.2,0.1,0.4,0.2,0.5
	C209.8,53,210,53,210.2,53z"/>
<path class="st1" d="M206.7,28.8c-0.1,0.2-0.3,0.5-0.4,0.7c0,0,0,0.1,0,0.1c0,0,0,0.1,0.1,0.1c0,0,0.1,0.1,0.1,0.1c0,0,0.1,0,0.1,0
	s0.1,0,0.1,0c0,0,0.1,0,0.1-0.1c0,0,0.1-0.1,0.1-0.1c0,0,0-0.1,0-0.1L206.7,28.8z"/>
<path class="st1" d="M182.7,28.8c-0.1,0.2-0.3,0.5-0.3,0.7c0,0.1,0,0.1,0,0.2c0,0.1,0,0.1,0.1,0.1c0,0,0.1,0.1,0.1,0.1
	c0,0,0.1,0,0.2,0s0.1,0,0.2,0c0,0,0.1-0.1,0.1-0.1c0,0,0.1-0.1,0.1-0.1c0-0.1,0-0.1,0-0.2L182.7,28.8z"/>
<path class="st1" d="M188.7,28.8c-0.1,0.2-0.3,0.5-0.4,0.7c0,0.1,0,0.1,0,0.2c0,0.1,0,0.1,0.1,0.1c0,0,0.1,0.1,0.1,0.1
	c0,0,0.1,0,0.2,0c0.1,0,0.1,0,0.2,0c0,0,0.1-0.1,0.1-0.1c0,0,0.1-0.1,0.1-0.1c0-0.1,0-0.1,0-0.2L188.7,28.8z"/>
<path class="st1" d="M194.7,28.8c-0.1,0.2-0.3,0.5-0.3,0.7c0,0.1,0,0.1,0,0.2c0,0.1,0,0.1,0.1,0.1c0,0,0.1,0.1,0.1,0.1
	c0,0,0.1,0,0.2,0s0.1,0,0.2,0c0,0,0.1-0.1,0.1-0.1c0,0,0.1-0.1,0.1-0.1c0-0.1,0-0.1,0-0.2L194.7,28.8z"/>
<path class="st1" d="M200.7,28.8c-0.1,0.2-0.3,0.5-0.3,0.7c0,0.1,0,0.1,0,0.2c0,0.1,0,0.1,0.1,0.1c0,0,0.1,0.1,0.1,0.1
	c0,0,0.1,0,0.2,0s0.1,0,0.2,0c0,0,0.1-0.1,0.1-0.1c0,0,0.1-0.1,0.1-0.1c0-0.1,0-0.1,0-0.2L200.7,28.8z"/>
<path class="st1" d="M182.7,37.1c0.1,0.2,0.3,0.5,0.3,0.7c0,0.1,0,0.1,0,0.2c0,0.1,0,0.1-0.1,0.1c0,0-0.1,0.1-0.1,0.1
	c0,0-0.1,0-0.2,0s-0.1,0-0.2,0c0,0-0.1-0.1-0.1-0.1c0,0-0.1-0.1-0.1-0.1c0-0.1,0-0.1,0-0.2L182.7,37.1z"/>
<path class="st1" d="M182.7,45.1c0.1,0.2,0.3,0.5,0.3,0.7c0,0.1,0,0.1,0,0.2c0,0.1,0,0.1-0.1,0.1c0,0-0.1,0.1-0.1,0.1
	c0,0-0.1,0-0.2,0s-0.1,0-0.2,0c0,0-0.1-0.1-0.1-0.1c0,0-0.1-0.1-0.1-0.1c0-0.1,0-0.1,0-0.2L182.7,45.1z"/>
<path class="st1" d="M183.7,51.4c0.1,0.2,0.3,0.5,0.4,0.7c0,0.1,0,0.1,0,0.2c0,0.1,0,0.1-0.1,0.1c0,0-0.1,0.1-0.1,0.1
	c0,0-0.1,0-0.2,0c-0.1,0-0.1,0-0.2,0c0,0-0.1-0.1-0.1-0.1c0,0-0.1-0.1-0.1-0.1c0-0.1,0-0.1,0-0.2L183.7,51.4z"/>
<path class="st1" d="M188.7,54.7c0.1,0.2,0.3,0.5,0.3,0.7c0,0.1,0,0.1,0,0.2c0,0.1,0,0.1-0.1,0.1c0,0-0.1,0.1-0.1,0.1
	c0,0-0.1,0-0.2,0s-0.1,0-0.2,0c0,0-0.1-0.1-0.1-0.1c0,0-0.1-0.1-0.1-0.1c0-0.1,0-0.1,0-0.2L188.7,54.7z"/>
<path class="st1" d="M207,37.1c-0.1,0.2-0.3,0.5-0.4,0.7c0,0.1,0,0.1,0,0.2c0,0.1,0,0.1,0.1,0.1c0,0,0.1,0.1,0.1,0.1
	c0,0,0.1,0,0.2,0s0.1,0,0.2,0c0,0,0.1-0.1,0.1-0.1c0,0,0.1-0.1,0.1-0.1c0-0.1,0-0.1,0-0.2L207,37.1z"/>
<path class="st1" d="M207,45.1c-0.1,0.2-0.3,0.5-0.4,0.7c0,0.1,0,0.1,0,0.2c0,0.1,0,0.1,0.1,0.1c0,0,0.1,0.1,0.1,0.1
	c0,0,0.1,0,0.2,0s0.1,0,0.2,0c0,0,0.1-0.1,0.1-0.1c0,0,0.1-0.1,0.1-0.1c0-0.1,0-0.1,0-0.2L207,45.1z"/>
<path class="st1" d="M206,51.4c-0.1,0.2-0.3,0.5-0.4,0.7c0,0.1,0,0.1,0,0.2c0,0.1,0,0.1,0.1,0.1c0,0,0.1,0.1,0.1,0.1
	c0,0,0.1,0,0.2,0s0.1,0,0.2,0c0,0,0.1-0.1,0.1-0.1c0,0,0.1-0.1,0.1-0.1c0-0.1,0-0.1,0-0.2L206,51.4z"/>
<path class="st1" d="M201,54.7c-0.1,0.2-0.3,0.5-0.4,0.7c0,0.1,0,0.1,0,0.2c0,0.1,0,0.1,0.1,0.1c0,0,0.1,0.1,0.1,0.1
	c0,0,0.1,0,0.2,0s0.1,0,0.2,0c0,0,0.1-0.1,0.1-0.1c0,0,0.1-0.1,0.1-0.1c0-0.1,0-0.1,0-0.2L201,54.7z"/>
<path class="st1" d="M194.9,58.3c-0.1,0.2-0.3,0.5-0.4,0.7c0,0.1,0,0.1,0,0.2c0,0.1,0,0.1,0.1,0.1c0,0,0.1,0.1,0.1,0.1
	c0,0,0.1,0,0.2,0s0.1,0,0.2,0c0,0,0.1-0.1,0.1-0.1c0,0,0.1-0.1,0.1-0.1c0-0.1,0-0.1,0-0.2L194.9,58.3z"/>
<path class="st1" d="M204.6,46.4c0.1,0.1,0.3,0.2,0.5,0.1l0.2-0.7c0,0-0.3-0.3-0.4-0.3c-0.6,0.2-1.3,0.2-1.7,0.8
	c0,0.2,0.1,0.4,0.2,0.6c0.1,0.2,0.3,0.3,0.4,0.4c0.2-0.1,0.3,0.2,0.4,0.3c0,0,0,0.1,0,0.1s0,0.1-0.1,0.1c0,0-0.1,0.1-0.1,0.1
	c0,0-0.1,0-0.1,0c-0.4-0.5-1.2,0.2-1.6-0.4c0.1-0.6,0.4-1.2,0-1.8c0-0.1,0.2-0.2,0.1-0.3c-0.2-0.5-0.8-0.1-1.1-0.1
	c-0.3,0-0.5,0-0.8,0.1c-0.2,0.1-0.4,0.3-0.6,0.5c0,0.2,0.1,0.4,0.3,0.6c0.1,0,0.2,0,0.3,0.2l-0.4,0.2c0.1,0.1,0.1,0.3,0.1,0.4
	c-0.3,0.1-0.5-0.3-0.6-0.5s0-0.8-0.4-0.9c-0.1,0-0.2,0.1-0.3,0.1c-0.1,0.2-0.2,0.4-0.2,0.6c0,0.2,0.1,0.5,0.1,0.7
	c0.5,0.4,1,0.9,1.4,1.4c-0.3,0.7-0.3,1.6-1.1,2c-0.1,0.1-0.2,0.2-0.2,0.3c0,0.1,0,0.2,0,0.3l0.2,0.2c0.5-0.3,1.4-0.3,1.3-1.2
	c0.2-0.4,0.4-0.7,0.7-1c0.2,0,0.3,0,0.5,0.1c0.2,0.1,0.3,0.2,0.4,0.4c-0.1,0.3-0.2,0.5-0.3,0.7c-0.2,0.2-0.4,0.4-0.7,0.4
	c-0.1,0.1,0,0.2,0,0.3c0.1,0.3,0.6,0.2,0.8,0.1c0.6-0.4,0.9-1.2,1.5-1.4c0.1,0.4-0.8,0.5-0.2,0.9c0.3-0.1,0.8,0,1-0.4
	c-0.3-0.6,0.9-1,0.2-1.5c0-0.6,0.6-0.8,0.6-1.4c-0.2-0.6-0.9-0.6-1.1-1.2c0.1-0.1,0.3-0.1,0.4-0.1C204.4,46.3,204.6,46.3,204.6,46.4
	L204.6,46.4z"/>
<path class="st1" d="M177.1,53.3c0.1,0,0.2,0,0.3,0c0.1,0,0.2-0.1,0.3-0.1c0.1-0.1,0.1-0.1,0.2-0.2c0-0.1,0.1-0.2,0.1-0.3
	c0-0.1,0-0.2-0.1-0.3c0-0.1-0.1-0.2-0.2-0.2c-0.1-0.1-0.2-0.1-0.3-0.1c-0.1,0-0.2,0-0.3,0c-0.2,0-0.3,0.1-0.5,0.2
	c-0.1,0.1-0.2,0.3-0.2,0.5c0,0.2,0.1,0.3,0.2,0.5C176.7,53.2,176.9,53.3,177.1,53.3z"/>
<path class="st1" d="M138.2,76c0.1,0,0.2,0,0.3-0.1c0.1,0,0.2-0.1,0.2-0.2c0.1-0.1,0.1-0.1,0.2-0.2c0-0.1,0.1-0.2,0.1-0.3
	c0-0.2-0.1-0.3-0.2-0.5c-0.1-0.1-0.3-0.2-0.5-0.2s-0.4,0.1-0.5,0.2c-0.1,0.1-0.2,0.3-0.2,0.5c0,0.2,0.1,0.4,0.2,0.5
	C137.9,75.9,138,76,138.2,76z"/>
<path class="st1" d="M163,81.5L163,81.5L163,81.5l-0.1-0.1v-0.1h0.1L163,81.5z"/>
<path class="st1" d="M163.1,81.4C163.1,81.4,163.1,81.4,163.1,81.4C163,81.4,163,81.4,163.1,81.4L163.1,81.4
	C163,81.4,163,81.4,163.1,81.4L163.1,81.4L163.1,81.4z"/>
<path class="st1" d="M163.3,81.4l-0.1,0.1L163.3,81.4L163.3,81.4L163.3,81.4L163.3,81.4L163.3,81.4L163.3,81.4z"/>
<path class="st1" d="M163.3,81.5C163.3,81.5,163.3,81.5,163.3,81.5C163.4,81.5,163.4,81.5,163.3,81.5l0.1-0.1c0,0,0.1,0,0.1,0.1
	C163.5,81.5,163.5,81.6,163.3,81.5L163.3,81.5z"/>
<path class="st1" d="M163.5,81.4C163.5,81.4,163.5,81.4,163.5,81.4L163.5,81.4L163.5,81.4L163.5,81.4L163.5,81.4z"/>
<path class="st1" d="M208.6,27.9H181V49c0,2.2,0.9,4,2.2,4.6l10.6,6.8c0.1,0.1,0.3,0.3,0.5,0.3c0.2,0.1,0.4,0.1,0.5,0.1
	c0.3,0,0.6-0.1,0.9-0.3l10.8-6.9c1.3-0.6,2.2-2.5,2.2-4.6L208.6,27.9L208.6,27.9z M207.9,49.3c0,0.7-0.2,1.4-0.5,2
	c-0.3,0.6-0.8,1.2-1.3,1.6l-10.4,6.6h0c-0.2,0.2-0.5,0.3-0.8,0.3c-0.3,0-0.6-0.1-0.8-0.3L183.6,53c-0.6-0.4-1-1-1.3-1.6
	c-0.3-0.6-0.5-1.3-0.5-2V28.6h26.1L207.9,49.3L207.9,49.3z"/>
<path class="st1" d="M198.5,58.7l0.3-0.2C198.8,58.6,198.6,58.6,198.5,58.7z"/>
<path class="st1" d="M177.7,87.6l-2.6,0.3v-0.2c0.5-0.1,0.6-0.1,0.6-0.3c-0.1-0.3-0.3-0.6-0.5-0.9l-1.8,0.2
	c-0.1,0.3-0.2,0.6-0.2,0.9c0,0.3,0.4,0.2,0.7,0.2V88l-1.6,0.2V88c0.4-0.1,0.5-0.3,0.7-0.9l1.4-3.9h0.2l2.2,3.3
	c0.4,0.7,0.6,0.9,1,0.8L177.7,87.6L177.7,87.6z M175.1,86.2l-1-1.5l-0.6,1.7L175.1,86.2z"/>
<path class="st1" d="M223.5,77.6c-0.2-0.6-0.6-1.1-1.1-1.6c-0.5-0.4-1-0.7-1.6-0.9c-0.6-0.2-1.2-0.2-1.9,0s-1.2,0.5-1.6,0.9
	c-1.4,1.2-0.4,3.1-0.4,4.6c0,0.3,0,0.6-0.3,0.7c-5.8-0.5-11.1-2-16.8-2.6c-1.3-0.2-2.6-0.2-3.9-0.4l-1.6-0.2
	c-4.9,0-9.8,0.6-14.6,1.6c-1,0.3-2.1,0.4-3.1,0.8c-0.7-0.1-1.3,0.4-2,0.2l-1.3,0.3c-0.1,0-0.3,0-0.4,0c-0.6-1.6,1.3-2.6,0.7-4.2
	c-0.2-0.5-0.6-0.9-1.1-1.2c-0.5-0.3-1-0.4-1.6-0.4c-0.6-0.1-1.3,0.1-1.8,0.4c-0.6,0.3-1,0.7-1.4,1.3c-0.9,2,0.2,4.1,0.6,6
	c-0.1,0.6,0.6,1.3,0,1.9c-0.6-0.5-1.4-0.8-2.1-1c-0.8-0.2-1.6-0.1-2.3,0c-0.5,0.2-1.4-0.1-1.6,0.5c1.7,0.9,3.9,0.8,5.8,0.7
	c0.2-0.1,0.4-0.1,0.6,0c0.2,1-0.2,2.4,0.4,3.4c0.4,0.4,0.9,0.8,1.4,1c0.5,0.2,1.1,0.3,1.7,0.3c3.6-0.1,6.9-1.2,10.2-2
	c0.5,0,0.9-0.3,1.5-0.3c1.8-0.4,3.7-0.7,5.6-0.8c-0.8,1.1-1.4,2.3-1.7,3.6c-0.5,1.1,0.8,1.2,1.2,1.8c-1.2,0.4-2.1,1.2-3.2,1.7
	c-2.5-0.1-4.7,0.9-7.1,1.2c0,0.5,0.8,0.4,0.9,0.9c-0.1,0.4-0.5,0.4-0.8,0.6c0,0.2,0,0.3,0.2,0.3c0.2-0.3,0.8-0.1,1-0.4
	c0.8,0,1.5-0.2,2.2-0.3c0.7-0.2,1.4-0.4,2-0.8c0.8-0.2,1.4-0.8,2.2-1c1.2,0,2.3-0.4,3.4-0.5V94c-0.9,1.5-1.9,3-2.8,4.4
	c0,0.1,0,0.1-0.1,0.2c0,0.1,0,0.1,0,0.2c0,0.1,0.1,0.1,0.1,0.2c0,0,0.1,0.1,0.2,0.1c0.5,0.1,1.1,0,1.5-0.2c0.8-1.4,1.6-2.8,2.3-4.3
	c0.3-1.4,1.3-2.1,2.3-3c0.2-0.1,0.4-0.3,0.6-0.1c-0.7,0.9-1.4,1.8-1.9,2.8c-0.2,0.6-0.3,1.2-0.2,1.8c0.1,0.6,0.4,1.2,0.8,1.7
	c0.5,0.4,1.2,0.3,1.8,0.3c1.5-0.8,3.5,0.5,4.7-1c0.7-0.1,0.8,0.7,1.2,1.1c0.7,0.2,1.4,0.9,2.1,0.4c0-0.4-0.5-0.8-0.8-1.2
	c-0.5-0.8-1.1-1.5-1.5-2.3c-0.3-0.5-0.5-1-0.6-1.5c0.7,0.3,1.4,0.6,2.1,0.8c0.7,0.2,1.4,0.4,2.1,0.6c0.6,0.6,1.2,1.1,2,1.5
	c1,0.5,2.1,0.6,3.1,1c0.4,0,1,0.4,1.3,0c-0.2-0.2-0.4-0.3-0.6-0.4c-0.1-0.5,0.7-0.2,1-0.6c0-0.1-0.1-0.2-0.2-0.2
	c-0.1-0.1-0.2-0.1-0.3-0.1c-0.6-0.3-2-0.4-2.4-0.6c-0.5-0.1-0.9-0.3-1.4-0.4c-2.4,0-3.7-2.2-5.6-3c0.4-0.4,1.1-0.7,1.4-1.3
	c0.2-0.3,0.3-0.7,0.3-1s-0.1-0.7-0.2-1.1c-0.4-1.2-1.9-1.1-2.8-1.8l0.1-0.1c1.4,0,2.9,0.2,4.3,0.6c3.8,0.5,7.3,2,11.3,2
	c2.2,0,4.9,0.1,6-2c0.2-1.2,0.4-2.5,0.6-3.7C222.4,81.7,223.7,79.8,223.5,77.6L223.5,77.6z M180.6,95.9l-0.6-0.5
	c0.3-0.4,0.9-0.2,1.3-0.4c1.1-0.4,2.2-0.6,3.4-0.5C183.6,95.5,182,95.6,180.6,95.9z M205.4,95.2c1.4,0.5,2.8,0.8,4.2,1
	c-0.1,0.6-1.1,0-1,0.8c-1.2-0.5-2.7-0.7-3.6-1.7C205.1,95.4,205.2,95.2,205.4,95.2L205.4,95.2z M168.2,78.2c0-0.8,0.4-1.5,1-2
	c0.5-0.2,1-0.4,1.6-0.3s1.1,0.2,1.6,0.5c0.3,0.2,0.5,0.4,0.6,0.8c0.1,0.3,0.1,0.7,0,1c-0.1,0.3-0.3,0.6-0.6,0.8h-0.4
	c0-0.6,0-1.2,0.2-1.8c0-0.5-0.4-0.5-0.8-0.7c-0.3-0.1-0.6-0.1-0.9,0c-0.3,0.1-0.6,0.2-0.8,0.4c-0.2,0.2-0.4,0.5-0.5,0.8
	c-0.1,0.3-0.1,0.6,0,1c0.3,0.4,0,1,0.2,1.5l-0.1,0.2C168.7,79.7,168.1,79.2,168.2,78.2L168.2,78.2z M170,79.4
	c0.6,0.4,1.4,0.2,2.1,0.4c0.1,0.2,0.1,0.5,0.1,0.7c0,0.2-0.1,0.5-0.3,0.7c-0.7-0.2-1.6-0.1-1.9-0.7C170.1,80.1,169.9,79.7,170,79.4
	L170,79.4z M169.9,78.1c0.1-0.3,0-0.8,0.4-0.9c0.3-0.1,0.7-0.1,0.8,0.2c0,0.5-0.1,0.9-0.2,1.4c-0.2,0-0.5,0-0.7-0.2
	C170,78.5,169.9,78.3,169.9,78.1z M188.5,90.9c-0.1-0.7,0-1.3,0.2-1.9s0.6-1.2,1.1-1.6c0.6-0.2,1.2-0.2,1.7,0.1
	c-1,0.3-2.3,0.5-2.6,1.8c0,0.5-0.1,0.8,0.1,1.2c0.4,0.8,1.4,0.4,2,1c0,0.1,0,0.2-0.1,0.3c-0.1,0.1-0.2,0.1-0.3,0.2
	C189.9,91.6,189.2,91.3,188.5,90.9L188.5,90.9z M187.1,93.6c1-0.4,1.9-1.2,3-0.9C189.2,93.3,188.2,93.6,187.1,93.6z M190.9,94
	c-0.6,1.3-1.2,2.6-2,3.8c-0.1,0.2-0.4,0.2-0.6,0.3c0-0.6,0.6-1,0.8-1.5c0.8-1.1,1.1-2.2,2-3.3C191.3,93.5,190.8,93.7,190.9,94
	L190.9,94z M191.9,91.7v0.2h-0.1L191.9,91.7L191.9,91.7C191.9,91.6,191.8,91.6,191.9,91.7L191.9,91.7z M191.5,90.6
	c-0.6-0.1-1.3-0.2-1.9-0.5c-0.4-0.4,0-0.8,0-1.3c0.5-0.9,2.1-1.3,2.9-0.5C192.4,89.2,192.1,90,191.5,90.6z M192.4,90.6
	c0.1-0.6,0.3-1.1,0.6-1.7C193,89.6,192.7,90.1,192.4,90.6z M192.8,87.4c-0.5-0.1-0.8-0.7-1.3-0.7c0.5-0.1,1-0.2,1.5-0.1
	C193.2,86.9,192.9,87.1,192.8,87.4L192.8,87.4z M193.3,90.4c0-0.2,0.1-0.4,0.1-0.6c0.2-0.2,0.4,0.2,0.5,0.3
	c-0.1,0.1-0.1,0.2-0.3,0.2C193.5,90.4,193.4,90.5,193.3,90.4z M193.9,88c0.1-0.5,0.3-1,0.6-1.5c0.4,0,0.7,0,1.1,0.2
	c0.1,0.8,1.1,1.9,0,2.6c-0.4,0.2-0.9,0.5-1.3,0.2c-0.2-0.1-0.4-0.4-0.5-0.6C193.7,88.5,193.8,88.2,193.9,88z M196.8,86.8
	c-0.1-0.4,0.4-0.1,0.5-0.2l1.2,0.1C197.9,86.6,197.1,88.1,196.8,86.8z M198.8,87.4c-0.5,0.2-0.8,0.7-1.3,0.8
	c0.1-0.2,0.3-0.4,0.5-0.6C198.2,87.5,198.5,87.4,198.8,87.4z M197.2,92.3c0,0.1,0,0.2-0.1,0.3l-0.9-0.7c0.2,0,0.4,0,0.6,0.1
	C196.9,92,197.1,92.1,197.2,92.3L197.2,92.3z M196.1,91c0.1,0,0.1-0.1,0.2-0.1c0.1,0,0.1,0,0.2,0.1H196.1z M195.6,90.4
	c0.2-0.2,0.4-0.6,0.6-0.6c0,0,0,0.1,0.1,0.1C196.1,90.2,195.8,90.3,195.6,90.4z M194.7,90.4h-0.2l0.2-0.2
	C194.9,90.2,194.7,90.3,194.7,90.4z M194.8,91.9c0.5-0.6,1,0.3,1.2,0.8c0.6,0.9,2.1,1.7,1.5,2.9c-0.8,0.7-1.9,0-2.8,0.6
	c-0.4,0-1.2,0.1-1.4-0.4C193.7,94.4,194.2,93.1,194.8,91.9z M193.7,92.6l0.2-0.3c-0.3,1-0.8,2-1.3,2.9
	C192.3,94.2,193.3,93.5,193.7,92.6z M195.4,97.4c-0.8,0-1.9,0.5-2.6-0.2c0-0.3-0.3-0.5-0.3-0.8c0.6-0.2,1.2,0.5,1.8,0
	c0.9-0.1,1.9,0,2.8,0.1c0.4,0.1,1.1-0.7,1.2,0.1C197.9,97.9,196.4,97,195.4,97.4L195.4,97.4z M197.7,91.6v-0.1h0.1L197.7,91.6
	L197.7,91.6z M197.9,94.1c0,0.4,0.4,0.6,0.2,0.9c-0.1-0.1-0.2-0.3-0.2-0.4C197.9,94.5,197.9,94.3,197.9,94.1z M199.1,96.5l-0.2,0.1
	c-0.2-0.2-0.1-0.6-0.1-0.8C199,96,199.2,96.3,199.1,96.5z M201.1,97.5c0,0.1-0.2,0.1-0.3,0c-1-1.5-1.9-3.1-2.5-4.8h0.2
	C199.4,94.3,200.1,96,201.1,97.5z M202.5,93.9C202.5,93.9,202.5,93.9,202.5,93.9c-0.1,0.1-0.1,0.1-0.1,0.2c-1-0.1-2-0.5-2.8-1.2
	v-0.2C200.7,92.8,201.7,93.2,202.5,93.9L202.5,93.9z M201.5,88.6c0.5,0.1,0.5,0.6,0.6,1c0,0.3-0.1,0.7-0.3,1
	c-0.2,0.3-0.4,0.6-0.7,0.8c-0.3,0.2-0.6,0.3-0.9,0.4c-0.3,0.1-0.7,0.1-1,0c0.5,0,1-0.1,1.4-0.3c0.4-0.2,0.8-0.6,1-1L201.5,88.6
	L201.5,88.6z M200.7,88.4c0.3,0.5,0.4,1.1,0.3,1.7c-0.4,0.8-1.2,0.8-1.9,0.9c-0.2,0-0.3,0-0.5,0c-0.2,0-0.3-0.1-0.4-0.2
	c0-0.1,0-0.1,0-0.2c0-0.1-0.1-0.1-0.1-0.2c0.1-0.5-0.9-1-0.2-1.5C198.5,88.3,200,86.9,200.7,88.4L200.7,88.4z M220.8,85.5
	c-0.3,0.4,0,1-0.4,1.4c0,0.7-0.6,1.1-1.1,1.4c-4.7,1-9.4-0.6-13.9-1.4c-6.7-1.6-13.6-1.7-20.3-0.3c-3.1,0.6-6,1.3-9,2.1
	c-1.8,0.4-3.7,0.4-5.6,0c-1.4-0.7-0.8-2.5-1.3-3.8c0-0.9-0.2-1.8-0.3-2.8c-0.1-0.3-0.2-0.7-0.1-1c0.6,0.1,1.2,0.5,1.8,0.7
	c3.3,0.6,6.3-0.4,9.4-1c3-0.7,6.1-1.1,9.2-1.4c3.5-0.2,7.1-0.1,10.6,0.4c1.1,0,2.1,0.3,3.1,0.4c2.2,0.3,4.3,0.9,6.5,1
	c0.4,0.1,0.8,0.2,1.2,0.2c3.6,0.6,7.6,1.6,11,0C221.4,82.7,221.2,84.1,220.8,85.5L220.8,85.5z M219.7,80.6c0,0.6-0.6,0.5-0.9,0.7
	h-0.9c-0.1-0.4-0.2-0.7-0.1-1.1C218.4,80.3,219,80.4,219.7,80.6z M219.2,79.6c0.4-0.4-0.1-3,1.1-1.3c0,0.3,0,0.8-0.3,1
	S219.6,79.8,219.2,79.6L219.2,79.6z M222.4,79.2c-0.1,0.4-0.4,0.7-0.7,0.9c-0.3,0.2-0.6,0.4-1,0.5c0-1,0.9-1.6,0.6-2.7
	c-0.3-0.4-0.7-0.6-1.1-0.8c-0.4-0.1-0.9-0.2-1.4,0c-0.4,0.2-0.2,0.6-0.3,1l-0.1,1.3c-0.8,0-0.8-0.7-1.1-1.3c0-0.4,0.1-0.8,0.3-1.2
	c0.2-0.4,0.5-0.7,0.9-0.9c0.4-0.2,0.8-0.2,1.2-0.2s0.8,0.1,1.1,0.3c0.3,0,0.5,0.1,0.7,0.3c0.2,0.1,0.4,0.3,0.6,0.6
	C222.7,77.5,222.6,78.5,222.4,79.2z"/>
<path class="st1" d="M444.7,0h2v134h-2V0z"/>
<g>
	<path class="st1" d="M526.4,36.2c-1.3-1.3-2.8-2.4-4.6-3.1c-1.8-0.7-3.7-1.1-5.9-1.1h-3.3h-3.9H506v32h2.9h3.7h3.2
		c2.2,0,4.1-0.4,5.9-1.1c1.8-0.7,3.3-1.8,4.6-3.1c1.3-1.3,2.3-3,3-4.8c0.7-1.9,1.1-3.9,1.1-6.2v-1.5c0-2.3-0.4-4.4-1.1-6.2
		C528.7,39.2,527.7,37.6,526.4,36.2z M523.8,48.8c0,2.1-0.3,4-0.9,5.5c-0.6,1.5-1.5,2.7-2.7,3.4c-1.2,0.8-2.6,1.2-4.4,1.2h-3.2V37.2
		h3.3c1.3,0,2.4,0.2,3.4,0.7c1,0.4,1.8,1.1,2.5,1.9c0.7,0.8,1.2,1.9,1.5,3.1c0.4,1.2,0.5,2.7,0.5,4.3V48.8z"/>
	<rect x="542.5" y="32" class="st1" width="6.6" height="32"/>
	<path class="st1" d="M587.3,60V47.3h-12.6V52h6v5.7c-0.2,0.2-0.6,0.5-1,0.7c-0.4,0.2-1,0.5-1.7,0.6c-0.7,0.2-1.6,0.3-2.6,0.3
		c-1.2,0-2.3-0.2-3.3-0.7c-0.9-0.4-1.7-1.1-2.4-2c-0.6-0.9-1.1-2-1.4-3.2c-0.3-1.3-0.5-2.8-0.5-4.4v-2c0-1.7,0.2-3.2,0.5-4.4
		c0.3-1.3,0.8-2.3,1.3-3.2s1.3-1.5,2.2-2c0.9-0.5,1.8-0.7,2.9-0.7c1.3,0,2.4,0.2,3.3,0.7c0.8,0.5,1.5,1.1,2,1.9
		c0.5,0.8,0.8,1.8,0.9,2.8h6.4c-0.2-2.1-0.8-3.9-1.8-5.4c-0.9-1.6-2.3-2.8-4.1-3.7c-1.8-0.9-4.1-1.4-6.9-1.4c-2,0-3.8,0.3-5.5,1
		c-1.6,0.7-3.1,1.7-4.2,3c-1.2,1.3-2.1,2.9-2.7,4.9c-0.6,1.9-0.9,4.1-0.9,6.6v2c0,2.5,0.3,4.7,1,6.6c0.7,1.9,1.6,3.5,2.8,4.8
		c1.2,1.3,2.7,2.3,4.4,3c1.7,0.7,3.6,1,5.6,1c2.3,0,4.3-0.2,6-0.7c1.6-0.5,3-1.1,4-1.8C586.1,61.2,586.8,60.6,587.3,60z"/>
	<rect x="599.8" y="32" class="st1" width="6.6" height="32"/>
	<polygon class="st1" points="626.4,64 633,64 633,37.2 642.8,37.2 642.8,32 633,32 626.4,32 616.7,32 616.7,37.2 626.4,37.2 	"/>
	<path class="st1" d="M664.6,32h-2.8h-1.6l-11.9,32h7l2.2-6.7H669l2.2,6.7h7l-12-32H664.6z M659.2,52.1l4-12.3l4.1,12.3H659.2z"/>
	<polygon class="st1" points="694.5,64 708.5,64 708.5,58.9 694.5,58.9 694.5,32 687.9,32 687.9,64 692.4,64 	"/>
	<path class="st1" d="M764.3,64l-12-32h-1.7h-2.8h-1.6l-11.9,32h7l2.2-6.7H755l2.2,6.7H764.3z M745.2,52.1l4-12.3l4.1,12.3H745.2z"
		/>
	<polygon class="st1" points="795.4,37.2 795.4,32 785.6,32 779,32 769.3,32 769.3,37.2 779,37.2 779,64 785.6,64 785.6,37.2 	"/>
	<polygon class="st1" points="812.5,32 805.9,32 805.9,64 810.4,64 812.5,64 826.5,64 826.5,58.9 812.5,58.9 	"/>
	<path class="st1" d="M851.1,32h-2.8h-1.6l-11.9,32h7l2.2-6.7h11.5l2.2,6.7h7l-12-32H851.1z M845.7,52.1l4-12.3l4.1,12.3H845.7z"/>
	<path class="st1" d="M897,52c-0.5-1-1.1-2-2-2.8c-0.9-0.8-2-1.6-3.3-2.2c-1.3-0.7-2.8-1.3-4.6-1.8c-1-0.3-2-0.7-2.7-1
		c-0.8-0.3-1.5-0.7-2-1.1s-1-0.8-1.2-1.2c-0.3-0.4-0.4-0.9-0.4-1.5c0-0.7,0.2-1.4,0.6-1.9c0.4-0.6,1-1,1.7-1.4
		c0.8-0.4,1.7-0.5,2.9-0.5c1.2,0,2.2,0.2,2.9,0.6c0.8,0.4,1.4,1,1.8,1.7c0.4,0.7,0.6,1.5,0.6,2.5h6.5c0-1.9-0.5-3.6-1.5-5.1
		c-1-1.5-2.3-2.6-4.1-3.5c-1.8-0.8-3.8-1.3-6.2-1.3c-1.7,0-3.3,0.2-4.8,0.6c-1.4,0.4-2.7,1-3.7,1.8c-1.1,0.8-1.9,1.7-2.5,2.8
		c-0.6,1.1-0.9,2.3-0.9,3.6c0,1.4,0.3,2.6,0.8,3.6c0.6,1,1.3,2,2.3,2.7c1,0.8,2.1,1.5,3.4,2c1.3,0.6,2.7,1.1,4.1,1.6
		c1.3,0.4,2.4,0.8,3.2,1.2c0.8,0.4,1.5,0.8,1.9,1.2c0.5,0.4,0.8,0.8,0.9,1.3c0.2,0.5,0.3,1,0.3,1.5c0,0.7-0.2,1.4-0.5,1.9
		c-0.4,0.6-0.9,1-1.6,1.3c-0.7,0.3-1.7,0.5-2.8,0.5c-0.9,0-1.8-0.1-2.6-0.3c-0.8-0.2-1.5-0.5-2-0.9c-0.6-0.4-1-1-1.3-1.7
		c-0.3-0.7-0.5-1.5-0.5-2.5h-6.6c0,1.8,0.4,3.4,1.1,4.7c0.7,1.3,1.7,2.4,3,3.3c1.3,0.8,2.7,1.5,4.2,1.9c1.5,0.4,3.1,0.6,4.7,0.6
		c1.8,0,3.3-0.2,4.8-0.6c1.4-0.4,2.6-1,3.7-1.7c1-0.8,1.8-1.7,2.4-2.8c0.5-1.1,0.8-2.3,0.8-3.7C897.7,54.3,897.4,53.1,897,52z"/>
	<path class="st1" d="M572.2,80.8c-0.8-0.9-1.7-1.6-2.8-2.1c-1.1-0.5-2.3-0.7-3.7-0.7c-1.3,0-2.5,0.2-3.6,0.7
		c-1.1,0.5-2,1.2-2.8,2.1c-0.8,0.9-1.4,2-1.8,3.3c-0.4,1.3-0.6,2.7-0.6,4.3v2.4c0,1.6,0.2,3,0.6,4.3c0.4,1.3,1,2.4,1.8,3.3
		c0.8,0.9,1.7,1.6,2.8,2.1c1.1,0.5,2.3,0.7,3.6,0.7c1.4,0,2.6-0.2,3.7-0.7c1.1-0.5,2-1.2,2.8-2.1c0.8-0.9,1.4-2,1.8-3.3
		c0.4-1.3,0.6-2.7,0.6-4.3v-2.4c0-1.6-0.2-3-0.6-4.3C573.6,82.8,573,81.7,572.2,80.8z M572.7,90.8c0,1.4-0.2,2.6-0.5,3.7
		c-0.3,1.1-0.8,2-1.3,2.8c-0.6,0.8-1.3,1.3-2.2,1.8c-0.9,0.4-1.8,0.6-3,0.6c-1.1,0-2-0.2-2.9-0.6c-0.9-0.4-1.6-1-2.2-1.8
		c-0.6-0.8-1.1-1.7-1.4-2.8c-0.3-1.1-0.5-2.3-0.5-3.7v-2.5c0-1.3,0.2-2.6,0.5-3.6c0.3-1.1,0.8-2,1.4-2.8c0.6-0.8,1.3-1.3,2.2-1.8
		c0.9-0.4,1.8-0.6,2.9-0.6c1.1,0,2.1,0.2,3,0.6c0.9,0.4,1.6,1,2.2,1.8c0.6,0.8,1.1,1.7,1.4,2.8c0.3,1.1,0.5,2.3,0.5,3.6V90.8z"/>
	<polygon class="st1" points="588,78.2 586.7,78.2 586.7,101 588.6,101 588.6,90.4 599.2,90.4 599.2,88.7 588.6,88.7 588.6,79.9 
		600.8,79.9 600.8,78.2 588.6,78.2 	"/>
	<path class="st1" d="M634.5,78.2h-1h-0.4l-8.6,22.8h2l2.3-6.4h10.3l2.4,6.4h2l-8.6-22.8H634.5z M629.5,93l4.6-12.4l4.6,12.4H629.5z
		"/>
	<path class="st1" d="M667.6,93.7c0,1.3-0.3,2.4-0.8,3.3c-0.5,0.9-1.2,1.6-2.2,2c-0.9,0.4-2,0.7-3.1,0.7c-1.2,0-2.2-0.2-3.2-0.7
		c-0.9-0.4-1.6-1.1-2.2-2c-0.5-0.9-0.8-2-0.8-3.3V78.2h-1.9v15.4c0,1.7,0.3,3.1,1,4.3c0.7,1.1,1.7,2,2.9,2.5
		c1.2,0.6,2.6,0.8,4.1,0.8c1.5,0,2.8-0.3,4-0.8c1.2-0.6,2.2-1.4,2.9-2.5c0.7-1.1,1.1-2.6,1.1-4.3V78.2h-1.9V93.7z"/>
	<path class="st1" d="M694.9,91.1c-0.6-0.5-1.4-1-2.4-1.4c-0.9-0.4-2-0.8-3.2-1.1c-1.1-0.3-2.1-0.6-2.9-1c-0.8-0.3-1.4-0.7-1.9-1.1
		c-0.5-0.4-0.8-0.8-1-1.3c-0.2-0.5-0.3-1-0.3-1.5c0-0.8,0.2-1.5,0.6-2.1c0.4-0.6,1.1-1.1,1.9-1.5c0.9-0.4,1.9-0.6,3.2-0.6
		s2.3,0.2,3.2,0.7c0.9,0.4,1.5,1,2,1.8c0.5,0.8,0.7,1.7,0.7,2.6h1.9c0-1.3-0.3-2.4-1-3.4c-0.6-1-1.5-1.8-2.7-2.5
		c-1.2-0.6-2.5-0.9-4.1-0.9c-1.1,0-2.1,0.1-3.1,0.4c-0.9,0.3-1.7,0.7-2.4,1.2c-0.7,0.5-1.2,1.1-1.6,1.9s-0.6,1.5-0.6,2.4
		c0,0.9,0.2,1.7,0.5,2.4c0.3,0.7,0.8,1.2,1.5,1.8c0.7,0.5,1.4,0.9,2.4,1.3c0.9,0.4,1.9,0.7,3.1,1.1c1.2,0.3,2.2,0.7,3,1
		c0.8,0.3,1.4,0.7,1.9,1.1c0.5,0.4,0.8,0.8,1,1.3c0.2,0.5,0.3,1,0.3,1.7c0,0.9-0.2,1.6-0.7,2.2c-0.5,0.6-1.2,1.1-2,1.5
		c-0.9,0.4-1.9,0.5-3.1,0.5c-0.8,0-1.6-0.1-2.3-0.3c-0.8-0.2-1.5-0.5-2.1-0.9c-0.6-0.4-1.1-0.9-1.5-1.6c-0.4-0.7-0.6-1.5-0.6-2.4
		h-1.9c0,1.2,0.2,2.2,0.7,3.1c0.5,0.9,1.2,1.6,2,2.1c0.8,0.5,1.8,0.9,2.8,1.2c1,0.3,2,0.4,3,0.4c1.1,0,2.2-0.1,3.1-0.4
		c1-0.3,1.8-0.7,2.5-1.2c0.7-0.5,1.3-1.1,1.6-1.9c0.4-0.7,0.6-1.6,0.6-2.5s-0.2-1.7-0.5-2.4C696.1,92.2,695.6,91.6,694.9,91.1z"/>
	<polygon class="st1" points="714,78.2 706.2,78.2 706.2,79.9 714,79.9 714,101 715.9,101 715.9,79.9 723.7,79.9 723.7,78.2 
		715.9,78.2 	"/>
	<path class="st1" d="M747.1,90.1c0.8-0.6,1.4-1.3,1.9-2.2c0.5-0.9,0.7-1.8,0.7-2.9c0-1.4-0.3-2.7-1-3.7c-0.6-1-1.5-1.8-2.7-2.3
		c-1.2-0.5-2.5-0.8-4.1-0.8h-7.4V101h1.9v-9.5h6.6l5.5,9.5h2v-0.2l-5.7-9.7C745.7,90.9,746.5,90.5,747.1,90.1z M736.5,89.9v-10h5.5
		c1.2,0,2.3,0.2,3.2,0.6c0.9,0.4,1.5,1,2,1.8c0.4,0.8,0.7,1.6,0.7,2.7c0,0.9-0.2,1.7-0.6,2.4c-0.4,0.8-1,1.4-1.8,1.8
		c-0.8,0.5-1.8,0.7-3,0.7H736.5z"/>
	<path class="st1" d="M769.7,78.2h-1h-0.4l-8.6,22.8h2l2.3-6.4h10.3l2.4,6.4h2l-8.6-22.8H769.7z M764.7,93l4.6-12.4l4.6,12.4H764.7z
		"/>
	<polygon class="st1" points="791.2,78.2 789.3,78.2 789.3,101 790.7,101 791.2,101 802.5,101 802.5,99.4 791.2,99.4 	"/>
	<rect x="813.8" y="78.2" class="st1" width="1.9" height="22.8"/>
	<path class="st1" d="M837,78.2h-1h-0.4L827,101h2l2.3-6.4h10.3l2.4,6.4h2l-8.6-22.8H837z M832,93l4.6-12.4l4.6,12.4H832z"/>
</g>
</svg>
