<?xml version="1.0" encoding="utf-8"?>
<!-- Generator: Adobe Illustrator 27.9.0, SVG Export Plug-In . SVG Version: 6.00 Build 0)  -->
<svg version="1.1" id="Layer_1" xmlns="http://www.w3.org/2000/svg" xmlns:xlink="http://www.w3.org/1999/xlink" x="0px" y="0px"
	 viewBox="0 0 1013 134" style="enable-background:new 0 0 1013 134;" xml:space="preserve">
<style type="text/css">
	.st0{fill:#FFFFFF;}
	.st1{fill-rule:evenodd;clip-rule:evenodd;fill:#FFFFFF;}
</style>
<g>
	<path class="st0" d="M902.4,92.3c-0.2-0.3-0.5-0.6-0.8-0.7c-0.3-0.2-0.7-0.3-1-0.3c-0.4,0-0.8,0.1-1.1,0.3
		c-0.3,0.2-0.6,0.4-0.8,0.7c-0.2,0.3-0.4,0.7-0.5,1.2c-0.1,0.5-0.1,1-0.1,1.7v0.5c0,0.6,0,1.2,0.1,1.7c0.1,0.5,0.3,0.9,0.5,1.2
		c0.2,0.3,0.5,0.6,0.8,0.8c0.3,0.2,0.7,0.3,1.1,0.3c0.4,0,0.7-0.1,1-0.3c0.3-0.2,0.6-0.4,0.8-0.8c0.2-0.3,0.4-0.7,0.5-1.2
		c0.1-0.5,0.2-1,0.2-1.7v-0.5c0-0.6-0.1-1.2-0.2-1.7C902.8,93.1,902.6,92.7,902.4,92.3z"/>
	<path class="st0" d="M998,78H873v21c0,7.7,6.3,14,14,14h125V92C1012,84.3,1005.7,78,998,78z M906.2,95.8c0,1-0.1,1.9-0.4,2.6
		c-0.3,0.8-0.7,1.4-1.2,2c-0.5,0.5-1.1,1-1.8,1.3c-0.7,0.3-1.4,0.4-2.2,0.4c-0.8,0-1.6-0.1-2.3-0.4c-0.7-0.3-1.3-0.7-1.8-1.3
		c-0.5-0.6-0.9-1.2-1.2-2c-0.3-0.8-0.4-1.7-0.4-2.6v-0.5c0-1,0.1-1.9,0.4-2.6c0.3-0.8,0.7-1.4,1.2-2c0.5-0.6,1.1-1,1.8-1.3
		c0.7-0.3,1.4-0.4,2.3-0.4c0.8,0,1.6,0.1,2.2,0.4c0.7,0.3,1.3,0.7,1.8,1.3c0.5,0.5,0.9,1.2,1.2,2c0.3,0.8,0.4,1.7,0.4,2.6V95.8z
		 M919.1,91.5h-5.5v2.9h5v2.4h-5v5.1h-3.1V89.1h2.2h0.9h5.5V91.5z M931.6,91.5h-5.5v2.9h5v2.4h-5v5.1H923V89.1h2.2h0.9h5.5V91.5z
		 M938.9,101.9h-3.1V89.1h3.1V101.9z M946.6,97.6c0.1,0.5,0.2,0.9,0.4,1.2c0.2,0.3,0.4,0.5,0.7,0.7c0.3,0.1,0.7,0.2,1.1,0.2
		c0.5,0,0.9-0.1,1.2-0.2c0.3-0.2,0.6-0.4,0.7-0.7c0.2-0.3,0.3-0.7,0.3-1.2h3.1c0,0.9-0.3,1.7-0.7,2.4c-0.4,0.7-1,1.2-1.8,1.6
		c-0.8,0.4-1.7,0.6-2.7,0.6c-0.9,0-1.6-0.1-2.3-0.4c-0.7-0.3-1.2-0.7-1.7-1.2c-0.5-0.5-0.8-1.2-1.1-2c-0.2-0.8-0.4-1.6-0.4-2.6v-0.7
		c0-1,0.1-1.8,0.4-2.6c0.3-0.8,0.6-1.4,1.1-2c0.5-0.5,1-1,1.7-1.2c0.7-0.3,1.4-0.4,2.2-0.4c1.1,0,2.1,0.2,2.8,0.6
		c0.8,0.4,1.4,0.9,1.8,1.6c0.4,0.7,0.7,1.5,0.7,2.4H951c0-0.5-0.1-0.9-0.2-1.2c-0.2-0.3-0.4-0.6-0.7-0.7c-0.3-0.2-0.8-0.2-1.3-0.2
		c-0.4,0-0.7,0.1-1,0.2c-0.3,0.1-0.5,0.4-0.7,0.7c-0.2,0.3-0.3,0.7-0.4,1.2c-0.1,0.5-0.1,1.1-0.1,1.7v0.7
		C946.5,96.5,946.5,97.1,946.6,97.6z M961.5,101.9h-3.1V89.1h3.1V101.9z M974.6,101.9l-0.7-2.4h-4.2l-0.7,2.4h-3.3l4.7-12.8h0.8h1.3
		h0.8l4.7,12.8H974.6z M990,101.9h-5.4h-1.1h-2V89.1h3.1v10.4h5.4V101.9z"/>
	<polygon class="st0" points="970.3,97.1 973.1,97.1 971.7,92.7 	"/>
</g>
<g>
	<path class="st0" d="M526.7,36.2c-1.3-1.3-2.8-2.4-4.6-3.1c-1.8-0.7-3.7-1.1-5.9-1.1h-3.3H509h-2.7v32h2.9h3.7h3.2
		c2.2,0,4.1-0.4,5.9-1.1c1.8-0.7,3.3-1.8,4.6-3.1c1.3-1.3,2.3-3,3-4.8c0.7-1.9,1.1-3.9,1.1-6.2v-1.5c0-2.3-0.4-4.4-1.1-6.2
		C529,39.2,528,37.6,526.7,36.2z M524.1,48.8c0,2.1-0.3,4-0.9,5.5c-0.6,1.5-1.5,2.7-2.7,3.4c-1.2,0.8-2.6,1.2-4.4,1.2h-3.2V37.2h3.3
		c1.3,0,2.4,0.2,3.4,0.7c1,0.4,1.8,1.1,2.5,1.9s1.2,1.9,1.5,3.1c0.4,1.2,0.5,2.7,0.5,4.3V48.8z"/>
	<rect x="542.7" y="32" class="st0" width="6.6" height="32"/>
	<path class="st0" d="M587.6,60V47.3H575V52h6v5.7c-0.2,0.2-0.6,0.5-1,0.7c-0.4,0.2-1,0.5-1.7,0.6c-0.7,0.2-1.6,0.3-2.6,0.3
		c-1.2,0-2.3-0.2-3.3-0.7c-0.9-0.4-1.7-1.1-2.4-2c-0.6-0.9-1.1-2-1.4-3.2c-0.3-1.3-0.5-2.8-0.5-4.4v-2c0-1.7,0.2-3.2,0.5-4.4
		c0.3-1.3,0.8-2.3,1.3-3.2s1.3-1.5,2.2-2c0.9-0.5,1.8-0.7,2.9-0.7c1.3,0,2.4,0.2,3.3,0.7c0.8,0.5,1.5,1.1,2,1.9
		c0.5,0.8,0.8,1.8,0.9,2.8h6.4c-0.2-2.1-0.8-3.9-1.8-5.4c-0.9-1.6-2.3-2.8-4.1-3.7c-1.8-0.9-4.1-1.4-6.9-1.4c-2,0-3.8,0.3-5.5,1
		c-1.6,0.7-3.1,1.7-4.2,3c-1.2,1.3-2.1,2.9-2.7,4.9c-0.6,1.9-0.9,4.1-0.9,6.6v2c0,2.5,0.3,4.7,1,6.6c0.7,1.9,1.6,3.5,2.8,4.8
		c1.2,1.3,2.7,2.3,4.4,3c1.7,0.7,3.6,1,5.6,1c2.3,0,4.3-0.2,6-0.7c1.6-0.5,3-1.1,4-1.8C586.3,61.2,587.1,60.6,587.6,60z"/>
	<rect x="600.1" y="32" class="st0" width="6.6" height="32"/>
	<polygon class="st0" points="626.7,64 633.2,64 633.2,37.2 643.1,37.2 643.1,32 633.2,32 626.7,32 617,32 617,37.2 626.7,37.2 	"/>
	<path class="st0" d="M664.9,32H662h-1.6l-11.9,32h7l2.2-6.7h11.5l2.2,6.7h7l-12-32H664.9z M659.4,52.1l4-12.3l4.1,12.3H659.4z"/>
	<polygon class="st0" points="694.8,64 708.8,64 708.8,58.9 694.8,58.9 694.8,32 688.2,32 688.2,64 692.7,64 	"/>
	<path class="st0" d="M764.5,64l-12-32h-1.7h-2.8h-1.6l-11.9,32h7l2.2-6.7h11.5l2.2,6.7H764.5z M745.5,52.1l4-12.3l4.1,12.3H745.5z"
		/>
	<polygon class="st0" points="795.7,37.2 795.7,32 785.8,32 779.3,32 769.6,32 769.6,37.2 779.3,37.2 779.3,64 785.8,64 785.8,37.2 
			"/>
	<polygon class="st0" points="812.8,32 806.2,32 806.2,64 810.6,64 812.8,64 826.7,64 826.7,58.9 812.8,58.9 	"/>
	<path class="st0" d="M851.4,32h-2.8h-1.6L835,64h7l2.2-6.7h11.5l2.2,6.7h7l-12-32H851.4z M845.9,52.1l4-12.3l4.1,12.3H845.9z"/>
	<path class="st0" d="M897.3,52c-0.5-1-1.1-2-2-2.8c-0.9-0.8-2-1.6-3.3-2.2c-1.3-0.7-2.8-1.3-4.6-1.8c-1-0.3-2-0.7-2.7-1
		c-0.8-0.3-1.5-0.7-2-1.1s-1-0.8-1.2-1.2c-0.3-0.4-0.4-0.9-0.4-1.5c0-0.7,0.2-1.4,0.6-1.9c0.4-0.6,1-1,1.7-1.4
		c0.8-0.4,1.7-0.5,2.9-0.5c1.2,0,2.2,0.2,2.9,0.6c0.8,0.4,1.4,1,1.8,1.7c0.4,0.7,0.6,1.5,0.6,2.5h6.5c0-1.9-0.5-3.6-1.5-5.1
		c-1-1.5-2.3-2.6-4.1-3.5c-1.8-0.8-3.8-1.3-6.2-1.3c-1.7,0-3.3,0.2-4.8,0.6c-1.4,0.4-2.7,1-3.7,1.8c-1.1,0.8-1.9,1.7-2.5,2.8
		c-0.6,1.1-0.9,2.3-0.9,3.6c0,1.4,0.3,2.6,0.8,3.6c0.6,1,1.3,2,2.3,2.7c1,0.8,2.1,1.5,3.4,2c1.3,0.6,2.7,1.1,4.1,1.6
		c1.3,0.4,2.4,0.8,3.2,1.2c0.8,0.4,1.5,0.8,1.9,1.2c0.5,0.4,0.8,0.8,0.9,1.3c0.2,0.5,0.3,1,0.3,1.5c0,0.7-0.2,1.4-0.5,1.9
		c-0.4,0.6-0.9,1-1.6,1.3c-0.7,0.3-1.7,0.5-2.8,0.5c-0.9,0-1.8-0.1-2.6-0.3c-0.8-0.2-1.5-0.5-2-0.9c-0.6-0.4-1-1-1.3-1.7
		c-0.3-0.7-0.5-1.5-0.5-2.5h-6.6c0,1.8,0.4,3.4,1.1,4.7c0.7,1.3,1.7,2.4,3,3.3c1.3,0.8,2.7,1.5,4.2,1.9c1.5,0.4,3.1,0.6,4.7,0.6
		c1.8,0,3.3-0.2,4.8-0.6c1.4-0.4,2.6-1,3.7-1.7c1-0.8,1.8-1.7,2.4-2.8c0.5-1.1,0.8-2.3,0.8-3.7C897.9,54.3,897.7,53.1,897.3,52z"/>
	<path class="st0" d="M572.5,80.8c-0.8-0.9-1.7-1.6-2.8-2.1c-1.1-0.5-2.3-0.7-3.7-0.7c-1.3,0-2.5,0.2-3.6,0.7
		c-1.1,0.5-2,1.2-2.8,2.1c-0.8,0.9-1.4,2-1.8,3.3c-0.4,1.3-0.6,2.7-0.6,4.3v2.4c0,1.6,0.2,3,0.6,4.3c0.4,1.3,1,2.4,1.8,3.3
		c0.8,0.9,1.7,1.6,2.8,2.1c1.1,0.5,2.3,0.7,3.6,0.7c1.4,0,2.6-0.2,3.7-0.7c1.1-0.5,2-1.2,2.8-2.1c0.8-0.9,1.4-2,1.8-3.3
		c0.4-1.3,0.6-2.7,0.6-4.3v-2.4c0-1.6-0.2-3-0.6-4.3C573.9,82.8,573.3,81.7,572.5,80.8z M573,90.8c0,1.4-0.2,2.6-0.5,3.7
		c-0.3,1.1-0.8,2-1.3,2.8c-0.6,0.8-1.3,1.3-2.2,1.8c-0.9,0.4-1.8,0.6-3,0.6c-1.1,0-2-0.2-2.9-0.6c-0.9-0.4-1.6-1-2.2-1.8
		c-0.6-0.8-1.1-1.7-1.4-2.8c-0.3-1.1-0.5-2.3-0.5-3.7v-2.5c0-1.3,0.2-2.6,0.5-3.6c0.3-1.1,0.8-2,1.4-2.8c0.6-0.8,1.3-1.3,2.2-1.8
		c0.9-0.4,1.8-0.6,2.9-0.6c1.1,0,2.1,0.2,3,0.6c0.9,0.4,1.6,1,2.2,1.8c0.6,0.8,1.1,1.7,1.4,2.8c0.3,1.1,0.5,2.3,0.5,3.6V90.8z"/>
	<polygon class="st0" points="588.2,78.2 587,78.2 587,101 588.9,101 588.9,90.4 599.5,90.4 599.5,88.7 588.9,88.7 588.9,79.9 
		601.1,79.9 601.1,78.2 588.9,78.2 	"/>
	<path class="st0" d="M634.8,78.2h-1h-0.4l-8.6,22.8h2l2.3-6.4h10.3l2.4,6.4h2l-8.6-22.8H634.8z M629.7,93l4.6-12.4l4.6,12.4H629.7z
		"/>
	<path class="st0" d="M667.8,93.7c0,1.3-0.3,2.4-0.8,3.3c-0.5,0.9-1.2,1.6-2.2,2c-0.9,0.4-2,0.7-3.1,0.7c-1.2,0-2.2-0.2-3.2-0.7
		c-0.9-0.4-1.6-1.1-2.2-2c-0.5-0.9-0.8-2-0.8-3.3V78.2h-1.9v15.4c0,1.7,0.3,3.1,1,4.3c0.7,1.1,1.7,2,2.9,2.5
		c1.2,0.6,2.6,0.8,4.1,0.8c1.5,0,2.8-0.3,4-0.8c1.2-0.6,2.2-1.4,2.9-2.5c0.7-1.1,1.1-2.6,1.1-4.3V78.2h-1.9V93.7z"/>
	<path class="st0" d="M695.2,91.1c-0.6-0.5-1.4-1-2.4-1.4c-0.9-0.4-2-0.8-3.2-1.1c-1.1-0.3-2.1-0.6-2.9-1c-0.8-0.3-1.4-0.7-1.9-1.1
		c-0.5-0.4-0.8-0.8-1-1.3c-0.2-0.5-0.3-1-0.3-1.5c0-0.8,0.2-1.5,0.6-2.1c0.4-0.6,1.1-1.1,1.9-1.5c0.9-0.4,1.9-0.6,3.2-0.6
		s2.3,0.2,3.2,0.7c0.9,0.4,1.5,1,2,1.8c0.5,0.8,0.7,1.7,0.7,2.6h1.9c0-1.3-0.3-2.4-1-3.4c-0.6-1-1.5-1.8-2.7-2.5
		c-1.2-0.6-2.5-0.9-4.1-0.9c-1.1,0-2.1,0.1-3.1,0.4c-0.9,0.3-1.7,0.7-2.4,1.2c-0.7,0.5-1.2,1.1-1.6,1.9s-0.6,1.5-0.6,2.4
		c0,0.9,0.2,1.7,0.5,2.4c0.3,0.7,0.8,1.2,1.5,1.8c0.7,0.5,1.4,0.9,2.4,1.3c0.9,0.4,1.9,0.7,3.1,1.1c1.2,0.3,2.2,0.7,3,1
		c0.8,0.3,1.4,0.7,1.9,1.1c0.5,0.4,0.8,0.8,1,1.3c0.2,0.5,0.3,1,0.3,1.7c0,0.9-0.2,1.6-0.7,2.2c-0.5,0.6-1.2,1.1-2,1.5
		c-0.9,0.4-1.9,0.5-3.1,0.5c-0.8,0-1.6-0.1-2.3-0.3c-0.8-0.2-1.5-0.5-2.1-0.9c-0.6-0.4-1.1-0.9-1.5-1.6c-0.4-0.7-0.6-1.5-0.6-2.4
		h-1.9c0,1.2,0.2,2.2,0.7,3.1c0.5,0.9,1.2,1.6,2,2.1c0.8,0.5,1.8,0.9,2.8,1.2c1,0.3,2,0.4,3,0.4c1.1,0,2.2-0.1,3.1-0.4
		c1-0.3,1.8-0.7,2.5-1.2c0.7-0.5,1.3-1.1,1.6-1.9c0.4-0.7,0.6-1.6,0.6-2.5s-0.2-1.7-0.5-2.4C696.3,92.2,695.8,91.6,695.2,91.1z"/>
	<polygon class="st0" points="714.2,78.2 706.5,78.2 706.5,79.9 714.2,79.9 714.2,101 716.1,101 716.1,79.9 723.9,79.9 723.9,78.2 
		716.1,78.2 	"/>
	<path class="st0" d="M747.4,90.1c0.8-0.6,1.4-1.3,1.9-2.2c0.5-0.9,0.7-1.8,0.7-2.9c0-1.4-0.3-2.7-1-3.7c-0.6-1-1.5-1.8-2.7-2.3
		c-1.2-0.5-2.5-0.8-4.1-0.8h-7.4V101h1.9v-9.5h6.6l5.5,9.5h2v-0.2l-5.7-9.7C746,90.9,746.7,90.5,747.4,90.1z M736.7,89.9v-10h5.5
		c1.2,0,2.3,0.2,3.2,0.6c0.9,0.4,1.5,1,2,1.8c0.4,0.8,0.7,1.6,0.7,2.7c0,0.9-0.2,1.7-0.6,2.4c-0.4,0.8-1,1.4-1.8,1.8
		c-0.8,0.5-1.8,0.7-3,0.7H736.7z"/>
	<path class="st0" d="M770,78.2h-1h-0.4L760,101h2l2.3-6.4h10.3l2.4,6.4h2l-8.6-22.8H770z M764.9,93l4.6-12.4l4.6,12.4H764.9z"/>
	<polygon class="st0" points="791.5,78.2 789.6,78.2 789.6,101 791,101 791.5,101 802.7,101 802.7,99.4 791.5,99.4 	"/>
	<rect x="814.1" y="78.2" class="st0" width="1.9" height="22.8"/>
	<path class="st0" d="M837.3,78.2h-1h-0.4l-8.6,22.8h2l2.3-6.4H842l2.4,6.4h2l-8.6-22.8H837.3z M832.2,93l4.6-12.4l4.6,12.4H832.2z"
		/>
</g>
<path class="st1" d="M10.8,124.4H4.6l-0.7,1.7c-0.2,0.4-0.3,0.9-0.4,1.4c0,0.2,0,0.4,0.1,0.6c0.1,0.2,0.3,0.3,0.5,0.5
	c0.5,0.2,1.1,0.3,1.7,0.3v0.5H0v-0.5c0.6-0.1,1.1-0.4,1.5-0.8c0.6-0.8,1.1-1.7,1.5-2.6l6.2-14h0.2l6.3,14.3c0.3,0.9,0.8,1.8,1.5,2.6
	c0.3,0.3,0.8,0.5,1.2,0.5v0.5h-8.4v-0.5h0.3c0.5,0,1-0.1,1.4-0.3c0.1-0.1,0.2-0.2,0.2-0.3c0-0.1,0.1-0.2,0.1-0.3
	c0-0.2,0-0.3-0.1-0.5c0-0.1-0.1-0.4-0.4-1L10.8,124.4L10.8,124.4z M10.3,123.4l-2.6-6l-2.7,6H10.3z"/>
<path class="st0" d="M24.1,117.3v1.6c0.5-0.6,1.1-1.1,1.8-1.4c0.6-0.3,1.2-0.5,1.8-0.5c0.7,0,1.4,0.2,2,0.7c0.5,0.4,0.8,1,1,1.6
	c0.2,0.9,0.2,1.9,0.2,2.8v4.7c-0.1,0.6,0,1.2,0.2,1.7c0.3,0.3,0.7,0.4,1.1,0.4v0.5h-6.1v-0.5c0.2,0,0.4-0.1,0.6-0.2
	c0.2-0.1,0.3-0.2,0.4-0.4c0.2-0.5,0.3-1.1,0.2-1.6v-5.4c0-0.6,0-1.3-0.1-1.9c-0.1-0.2-0.2-0.4-0.4-0.6c-0.2-0.1-0.4-0.2-0.6-0.2
	c-0.7,0-1.4,0.5-2.1,1.6v6.5c-0.1,0.6,0,1.2,0.2,1.7c0.1,0.1,0.3,0.2,0.4,0.3c0.2,0.1,0.3,0.1,0.5,0.1v0.5h-6.1v-0.5
	c0.2,0,0.4,0,0.6-0.1c0.2-0.1,0.4-0.2,0.5-0.4c0.2-0.5,0.3-1.1,0.2-1.7v-6.8c0.1-0.6,0-1.2-0.3-1.7c-0.3-0.3-0.7-0.4-1.1-0.4v-0.5
	H24.1z"/>
<path class="st1" d="M49.3,124.4h-6.2l-0.7,1.7c-0.2,0.4-0.3,0.9-0.4,1.4c0,0.2,0,0.4,0.1,0.6c0.1,0.2,0.3,0.3,0.5,0.5
	c0.5,0.2,1.1,0.3,1.7,0.3v0.5h-5.8v-0.5c0.6-0.1,1.1-0.4,1.5-0.8c0.6-0.8,1.1-1.7,1.5-2.6l6.2-14H48l6.3,14.3
	c0.3,0.9,0.8,1.8,1.5,2.6c0.3,0.3,0.8,0.5,1.2,0.5v0.5h-8.4v-0.5H49c0.5,0,1-0.1,1.4-0.3c0.1-0.1,0.2-0.2,0.2-0.3
	c0-0.1,0.1-0.2,0.1-0.3c0-0.2,0-0.3-0.1-0.5c0-0.1-0.1-0.4-0.4-1L49.3,124.4L49.3,124.4z M48.8,123.4l-2.6-6l-2.7,6H48.8z"/>
<path class="st0" d="M67.8,117.3v9.4c-0.1,0.6,0,1.2,0.2,1.7c0.3,0.3,0.6,0.4,1,0.4v0.5h-4.9v-1.6c-0.5,0.6-1.1,1.1-1.7,1.5
	c-0.6,0.3-1.3,0.5-1.9,0.5c-0.7,0-1.3-0.2-1.8-0.6c-0.5-0.4-0.9-0.9-1.1-1.5c-0.2-1-0.3-1.9-0.3-2.9v-4.8c0.1-0.6,0-1.2-0.3-1.7
	c-0.3-0.3-0.6-0.4-1-0.4v-0.5H61v8.2c0,0.6,0,1.1,0.1,1.7c0.1,0.2,0.2,0.4,0.4,0.6c0.2,0.1,0.4,0.2,0.6,0.2c0.3,0,0.6-0.1,0.8-0.2
	c0.5-0.4,0.9-0.8,1.2-1.4v-6.4c0.1-0.6,0-1.2-0.3-1.7c-0.3-0.3-0.6-0.4-1-0.4v-0.5H67.8z"/>
<path class="st0" d="M77.5,117l0.2,4.1h-0.4c-0.3-0.9-0.9-1.8-1.6-2.5c-0.5-0.4-1.1-0.6-1.7-0.7c-0.2,0-0.3,0-0.5,0.1
	c-0.2,0.1-0.3,0.2-0.4,0.3c-0.1,0.1-0.2,0.2-0.3,0.3c-0.1,0.1-0.1,0.3-0.1,0.4c0,0.1,0,0.3,0.1,0.4c0,0.1,0.1,0.3,0.2,0.4
	c0.7,0.7,1.5,1.3,2.3,1.8c1,0.6,1.8,1.3,2.5,2.2c0.4,0.6,0.6,1.3,0.6,2c0,0.7-0.2,1.4-0.5,2c-0.3,0.6-0.8,1.1-1.4,1.5
	c-0.6,0.3-1.3,0.5-2,0.5c-0.8,0-1.6-0.2-2.3-0.6c-0.2-0.1-0.3-0.1-0.5-0.1c-0.3,0-0.5,0.2-0.7,0.7h-0.4l-0.2-4.3h0.4
	c0.3,1,0.8,1.9,1.6,2.5c0.5,0.5,1.2,0.8,1.9,0.8c0.4,0,0.7-0.1,1-0.4c0.1-0.1,0.2-0.3,0.3-0.4c0.1-0.2,0.1-0.3,0.1-0.5
	c0-0.4-0.1-0.8-0.4-1.1c-0.5-0.5-1.1-1-1.8-1.4c-0.9-0.6-1.8-1.3-2.5-2.1c-0.6-0.7-0.9-1.5-0.8-2.3c0-0.9,0.4-1.8,1-2.5
	c0.3-0.4,0.8-0.7,1.3-0.9c0.5-0.2,1-0.3,1.5-0.3c0.7,0,1.3,0.2,1.9,0.5c0.2,0.1,0.4,0.2,0.6,0.2c0.1,0,0.3,0,0.4-0.1
	c0.2-0.2,0.3-0.3,0.5-0.6L77.5,117z"/>
<path class="st0" d="M83.9,112.9v4.4h2.9v1.3h-2.9v7.4c0,0.5,0,0.9,0.1,1.3c0.1,0.2,0.2,0.4,0.3,0.5c0.1,0.1,0.3,0.2,0.5,0.2
	c0.5,0,1.1-0.4,1.6-1.3l0.4,0.3c-0.2,0.7-0.7,1.3-1.3,1.8c-0.6,0.4-1.3,0.7-2.1,0.7c-0.7,0-1.4-0.2-2-0.6c-0.5-0.4-0.8-0.9-1-1.4
	c-0.1-0.8-0.2-1.6-0.1-2.4v-6.5h-1.5v-0.4c1-0.7,1.9-1.5,2.8-2.4c0.8-0.9,1.4-1.8,2-2.8H83.9z"/>
<path class="st0" d="M92.6,117.3v2.7c0.5-1,1.2-1.8,2.1-2.5c0.5-0.4,1.1-0.6,1.7-0.6c0.2,0,0.4,0,0.6,0.1c0.2,0.1,0.4,0.2,0.5,0.3
	c0.2,0.2,0.3,0.4,0.3,0.6c0.1,0.2,0.1,0.4,0.1,0.7c0,0.5-0.1,1-0.4,1.3c-0.1,0.1-0.3,0.3-0.4,0.4c-0.2,0.1-0.4,0.1-0.6,0.1
	c-0.4,0-0.9-0.1-1.2-0.4c-0.3-0.3-0.5-0.5-0.6-0.5c-0.1,0-0.2-0.1-0.3-0.1c-0.3,0-0.5,0.1-0.7,0.3c-0.4,0.3-0.7,0.8-0.8,1.2
	c-0.3,0.9-0.4,1.8-0.4,2.8v2.8v0.7c0,0.3,0,0.6,0.1,0.9c0.1,0.2,0.2,0.4,0.4,0.5c0.3,0.1,0.7,0.2,1,0.2v0.5h-6.5v-0.5
	c0.2,0,0.4,0,0.6-0.1c0.2-0.1,0.3-0.2,0.5-0.3c0.3-0.6,0.4-1.3,0.3-2v-6.7c0-0.4,0-0.9-0.1-1.3c-0.1-0.2-0.2-0.4-0.4-0.5
	c-0.3-0.1-0.6-0.2-0.9-0.2v-0.5L92.6,117.3z"/>
<path class="st1" d="M104.7,127.6c-1.1,1.1-2.5,1.8-4,1.9c-0.3,0-0.6,0-0.9-0.2c-0.3-0.1-0.6-0.3-0.8-0.5c-0.2-0.2-0.4-0.5-0.5-0.8
	c-0.1-0.3-0.2-0.6-0.2-0.9c0-0.5,0.1-0.9,0.3-1.4c0.2-0.4,0.5-0.8,0.9-1.1c1.6-1.2,3.3-2.2,5.2-2.9v-1.2c0-0.6,0-1.2-0.2-1.7
	c-0.1-0.3-0.3-0.5-0.6-0.6c-0.3-0.2-0.6-0.3-0.9-0.3c-0.5,0-1,0.1-1.4,0.4c-0.1,0.1-0.2,0.1-0.2,0.2c-0.1,0.1-0.1,0.2-0.1,0.3
	c0,0.3,0.2,0.5,0.4,0.7c0.3,0.3,0.5,0.7,0.5,1.1c0,0.2,0,0.4-0.1,0.6s-0.2,0.4-0.4,0.5c-0.3,0.3-0.8,0.5-1.2,0.4
	c-0.5,0-1-0.2-1.4-0.5c-0.2-0.1-0.3-0.3-0.4-0.5c-0.1-0.2-0.1-0.4-0.1-0.6c0-0.7,0.3-1.3,0.7-1.8c0.5-0.6,1.2-1,2-1.3
	c0.9-0.3,1.8-0.5,2.7-0.5c1-0.1,1.9,0.2,2.7,0.7c0.6,0.4,1,0.9,1.3,1.6c0.2,0.8,0.2,1.7,0.2,2.5v4.7c0,0.3,0,0.7,0.1,1
	c0,0.1,0.1,0.2,0.2,0.3c0.1,0.1,0.2,0.1,0.3,0.1c0.1,0,0.3-0.1,0.4-0.2c0.1-0.1,0.2-0.2,0.3-0.3l0.4,0.3c-0.3,0.5-0.8,1-1.3,1.4
	c-0.5,0.3-1,0.4-1.6,0.4c-0.6,0-1.1-0.1-1.6-0.5C104.9,128.6,104.6,128.1,104.7,127.6L104.7,127.6z M104.7,126.6v-4
	c-0.9,0.5-1.7,1.2-2.3,2c-0.3,0.4-0.5,0.9-0.5,1.4c0,0.4,0.2,0.7,0.4,1c0.1,0.1,0.3,0.2,0.4,0.3c0.2,0.1,0.3,0.1,0.5,0.1
	C103.8,127.3,104.3,127.1,104.7,126.6L104.7,126.6z"/>
<path class="st0" d="M115.2,111.9v15c-0.1,0.6,0,1.1,0.3,1.6c0.3,0.3,0.7,0.4,1.2,0.4v0.5h-6.5v-0.5c0.2,0,0.4,0,0.6-0.1
	c0.2-0.1,0.4-0.2,0.5-0.4c0.2-0.5,0.3-1,0.3-1.6v-12.5c0.1-0.6,0-1.1-0.3-1.6c-0.2-0.1-0.3-0.3-0.5-0.3c-0.2-0.1-0.4-0.1-0.6-0.1
	v-0.5H115.2z"/>
<path class="st1" d="M120.7,111.4c0.3,0,0.5,0,0.8,0.1c0.2,0.1,0.5,0.3,0.6,0.5c0.2,0.2,0.3,0.4,0.4,0.6c0.1,0.2,0.1,0.5,0.1,0.8
	c0,0.3,0,0.5-0.2,0.8c-0.1,0.2-0.3,0.5-0.4,0.6c-0.4,0.4-0.9,0.6-1.4,0.6c-0.5,0-1-0.2-1.4-0.6s-0.6-0.9-0.6-1.4s0.2-1,0.6-1.4
	S120.1,111.4,120.7,111.4L120.7,111.4z M122.5,117.3v9.6c-0.1,0.6,0,1.1,0.3,1.6c0.3,0.3,0.7,0.4,1.2,0.4v0.5h-6.5v-0.5
	c0.2,0,0.4,0,0.6-0.1c0.2-0.1,0.4-0.2,0.5-0.4c0.2-0.5,0.3-1,0.3-1.6v-7c0.1-0.6,0-1.1-0.3-1.6c-0.2-0.1-0.3-0.3-0.5-0.3
	c-0.2-0.1-0.4-0.1-0.6-0.1v-0.5L122.5,117.3z"/>
<path class="st1" d="M131,127.6c-1.1,1.1-2.5,1.8-4,1.9c-0.3,0-0.6,0-0.9-0.2c-0.3-0.1-0.6-0.3-0.8-0.5c-0.2-0.2-0.4-0.5-0.5-0.8
	c-0.1-0.3-0.2-0.6-0.2-0.9c0-0.5,0.1-0.9,0.3-1.4c0.2-0.4,0.5-0.8,0.9-1.1c1.6-1.2,3.3-2.2,5.2-2.9v-1.2c0-0.6,0-1.2-0.2-1.7
	c-0.1-0.3-0.3-0.5-0.6-0.6c-0.3-0.2-0.6-0.3-0.9-0.3c-0.5,0-1,0.1-1.4,0.4c-0.1,0.1-0.2,0.1-0.2,0.2c-0.1,0.1-0.1,0.2-0.1,0.3
	c0,0.3,0.2,0.5,0.4,0.7c0.3,0.3,0.5,0.7,0.5,1.1c0,0.2,0,0.4-0.1,0.6c-0.1,0.2-0.2,0.4-0.4,0.5c-0.3,0.3-0.8,0.5-1.2,0.4
	c-0.5,0-1-0.2-1.4-0.5c-0.2-0.1-0.3-0.3-0.4-0.5c-0.1-0.2-0.1-0.4-0.1-0.6c0-0.7,0.3-1.3,0.7-1.8c0.6-0.6,1.3-1.1,2-1.3
	c0.9-0.3,1.8-0.5,2.7-0.5c1-0.1,1.9,0.2,2.7,0.7c0.6,0.4,1,0.9,1.3,1.6c0.2,0.8,0.2,1.7,0.2,2.5v4.7c0,0.3,0,0.7,0.1,1
	c0,0.1,0.1,0.2,0.2,0.3c0.1,0.1,0.2,0.1,0.3,0.1c0.1,0,0.3-0.1,0.4-0.2c0.1-0.1,0.2-0.2,0.3-0.3l0.4,0.3c-0.3,0.5-0.8,1-1.3,1.4
	c-0.5,0.3-1,0.4-1.6,0.4c-0.6,0-1.1-0.1-1.6-0.5C131.2,128.6,131,128.1,131,127.6L131,127.6z M131,126.6v-4c-0.9,0.5-1.7,1.2-2.3,2
	c-0.3,0.4-0.5,0.9-0.5,1.4c0,0.4,0.2,0.7,0.4,1c0.1,0.1,0.3,0.2,0.4,0.3c0.2,0.1,0.3,0.1,0.5,0.1C130.1,127.3,130.6,127.1,131,126.6
	L131,126.6z"/>
<path class="st0" d="M141.4,117.3v1.6c0.5-0.6,1.1-1.1,1.8-1.4c0.6-0.3,1.2-0.5,1.8-0.5c0.7,0,1.4,0.2,1.9,0.7c0.5,0.4,0.8,1,1,1.6
	c0.2,0.9,0.2,1.9,0.2,2.8v4.7c-0.1,0.6,0,1.2,0.2,1.7c0.3,0.3,0.7,0.4,1.1,0.4v0.5h-6.1v-0.5c0.2,0,0.4-0.1,0.6-0.2
	c0.2-0.1,0.3-0.2,0.4-0.4c0.2-0.5,0.3-1.1,0.2-1.6v-5.4c0-0.6,0-1.3-0.1-1.9c-0.1-0.2-0.2-0.4-0.4-0.6c-0.2-0.1-0.4-0.2-0.6-0.2
	c-0.7,0-1.4,0.5-2.1,1.6v6.5c-0.1,0.6,0,1.2,0.2,1.7c0.1,0.1,0.3,0.2,0.4,0.3c0.2,0.1,0.3,0.1,0.5,0.1v0.5h-6.1v-0.5
	c0.2,0,0.4,0,0.6-0.1c0.2-0.1,0.4-0.2,0.5-0.4c0.2-0.5,0.3-1.1,0.2-1.7v-6.8c0.1-0.6,0-1.2-0.2-1.7c-0.3-0.3-0.7-0.4-1.1-0.4v-0.5
	H141.4z"/>
<path class="st0" d="M173.2,111.5v6.2h-0.5c-0.5-1.5-1.4-2.9-2.6-3.8c-1.1-0.9-2.4-1.3-3.8-1.3c-1.2,0-2.3,0.4-3.3,1.1
	c-0.9,0.8-1.6,1.9-1.8,3.1c-0.4,1.3-0.5,2.6-0.5,4c0,1.5,0.2,3,0.6,4.4c0.3,1.1,1,2.1,1.9,2.8c0.9,0.6,2,0.9,3.1,0.9
	c0.4,0,0.9,0,1.3-0.1c0.5-0.1,0.9-0.2,1.4-0.4v-3.6c0-0.4,0-0.9-0.1-1.3c-0.1-0.2-0.3-0.4-0.6-0.6c-0.3-0.2-0.7-0.3-1.1-0.2h-0.4
	V122h8.5v0.5c-0.5,0-0.9,0.1-1.4,0.3c-0.3,0.1-0.5,0.4-0.6,0.7c-0.1,0.4-0.1,0.8-0.1,1.2v3.6c-1.1,0.5-2.3,0.9-3.5,1.1
	c-1.2,0.3-2.5,0.4-3.8,0.4c-1.4,0-2.8-0.2-4.1-0.7c-1.1-0.4-2-1-2.9-1.8c-0.9-0.8-1.7-1.8-2.2-2.9c-0.5-1.1-0.7-2.3-0.7-3.6
	c0-1.2,0.2-2.5,0.7-3.6c0.5-1.1,1.2-2.2,2.1-3c0.9-0.9,2-1.6,3.2-2.1c1.2-0.5,2.5-0.7,3.8-0.6c0.8,0,1.6,0.1,2.3,0.2
	c0.6,0.1,1.2,0.3,1.8,0.6c0.5,0.2,1,0.4,1.5,0.5c0.2,0,0.5-0.1,0.7-0.3c0.3-0.3,0.5-0.6,0.6-1H173.2z"/>
<path class="st1" d="M181.6,116.9c1,0,2,0.3,2.9,0.8c0.9,0.6,1.6,1.4,2,2.3c0.5,1,0.7,2.1,0.7,3.3c0,1.5-0.4,3-1.3,4.3
	c-0.5,0.7-1.2,1.2-1.9,1.6s-1.6,0.5-2.4,0.5c-0.8,0-1.6-0.1-2.3-0.4s-1.4-0.8-1.9-1.5c-1-1.3-1.5-2.9-1.5-4.5c0-1.6,0.5-3.2,1.5-4.5
	c0.5-0.6,1.1-1.1,1.8-1.5S180.7,116.9,181.6,116.9L181.6,116.9z M181.6,117.8c-0.2,0-0.4,0-0.6,0.1c-0.2,0.1-0.4,0.2-0.5,0.4
	c-0.4,0.6-0.6,1.3-0.6,2c-0.1,1-0.1,2.3-0.1,4.1c0,0.9,0.1,1.7,0.2,2.6c0.1,0.5,0.3,1,0.6,1.4c0.1,0.1,0.3,0.3,0.5,0.4
	c0.2,0.1,0.4,0.1,0.6,0.1c0.4,0,0.7-0.1,1-0.3c0.4-0.3,0.6-0.8,0.7-1.2c0.2-1.7,0.3-3.3,0.3-5c0-1,0-2-0.2-3
	c-0.1-0.5-0.4-0.9-0.7-1.2C182.3,117.9,182,117.8,181.6,117.8L181.6,117.8z"/>
<path class="st0" d="M193,129.7l-4.1-9.3c-0.3-0.8-0.7-1.5-1.2-2.1c-0.2-0.2-0.5-0.4-0.9-0.4v-0.5h6.4v0.5c-0.3,0-0.6,0-0.8,0.2
	c-0.1,0.1-0.2,0.2-0.2,0.3c-0.1,0.1-0.1,0.2-0.1,0.4c0.1,0.6,0.3,1.2,0.6,1.8l2,4.5l1.6-3.9c0.4-0.7,0.6-1.5,0.7-2.4
	c0-0.1,0-0.2-0.1-0.4c0-0.1-0.1-0.2-0.2-0.3c-0.3-0.2-0.6-0.3-1-0.3v-0.5h3.9v0.5c-0.3,0-0.7,0.2-0.9,0.4c-0.5,0.6-0.8,1.3-1.1,2
	l-4,9.5L193,129.7z"/>
<path class="st1" d="M209.1,122.9h-6.6c0,1.4,0.5,2.7,1.3,3.8c0.3,0.3,0.6,0.6,0.9,0.8c0.4,0.2,0.8,0.3,1.2,0.3c0.5,0,1-0.1,1.4-0.4
	c0.5-0.4,1-1,1.3-1.6l0.4,0.3c-0.5,1.1-1.2,2.1-2.2,2.8c-0.8,0.6-1.8,0.8-2.7,0.8c-0.8,0-1.6-0.1-2.3-0.5c-0.7-0.4-1.3-0.9-1.8-1.6
	c-0.8-1.2-1.2-2.7-1.1-4.1c-0.1-1.7,0.5-3.5,1.6-4.8c0.5-0.6,1.1-1,1.7-1.3c0.7-0.3,1.4-0.5,2.1-0.5c0.6,0,1.2,0.1,1.8,0.4
	c0.5,0.3,1,0.6,1.4,1.1C208.6,119.7,209.1,121.3,209.1,122.9z M205.9,122c0-1,0-1.9-0.2-2.8c-0.1-0.4-0.3-0.9-0.7-1.2
	c-0.2-0.2-0.5-0.2-0.7-0.2c-0.2,0-0.4,0.1-0.6,0.2c-0.2,0.1-0.4,0.3-0.5,0.5c-0.6,0.9-0.8,2-0.8,3.1v0.4L205.9,122z"/>
<path class="st0" d="M214.8,117.3v2.7c0.5-1,1.2-1.8,2.1-2.5c0.5-0.4,1.1-0.6,1.7-0.6c0.2,0,0.4,0,0.6,0.1c0.2,0.1,0.4,0.2,0.5,0.3
	c0.2,0.2,0.3,0.4,0.3,0.6c0.1,0.2,0.1,0.4,0.1,0.7c0,0.5-0.1,1-0.4,1.3c-0.1,0.1-0.3,0.3-0.4,0.4s-0.4,0.1-0.6,0.1
	c-0.4,0-0.9-0.1-1.2-0.4c-0.3-0.3-0.5-0.5-0.6-0.5c-0.1,0-0.2-0.1-0.3-0.1c-0.3,0-0.5,0.1-0.7,0.3c-0.4,0.3-0.7,0.8-0.8,1.2
	c-0.3,0.9-0.4,1.8-0.4,2.8v3.5c0,0.3,0,0.6,0.1,0.9c0.1,0.2,0.2,0.4,0.4,0.5c0.3,0.1,0.7,0.2,1,0.2v0.5h-6.5v-0.5
	c0.2,0,0.4,0,0.6-0.1c0.2-0.1,0.3-0.2,0.5-0.3c0.3-0.6,0.4-1.3,0.3-2v-6.7c0-0.4,0-0.9-0.1-1.3c-0.1-0.2-0.2-0.4-0.4-0.5
	c-0.3-0.1-0.6-0.2-0.9-0.2v-0.5L214.8,117.3z"/>
<path class="st0" d="M225.9,117.3v1.6c0.5-0.6,1.1-1.1,1.8-1.4c0.6-0.3,1.2-0.5,1.8-0.5c0.7,0,1.4,0.2,1.9,0.7c0.5,0.4,0.8,1,1,1.6
	c0.2,0.9,0.2,1.9,0.2,2.8v4.7c-0.1,0.6,0,1.2,0.2,1.7c0.3,0.3,0.6,0.4,1,0.4v0.5h-6.1v-0.5c0.2,0,0.4-0.1,0.6-0.2
	c0.2-0.1,0.3-0.2,0.4-0.4c0.2-0.5,0.2-1.1,0.2-1.6v-5.4c0-0.6,0-1.3-0.1-1.9c-0.1-0.2-0.2-0.4-0.4-0.6c-0.2-0.1-0.4-0.2-0.6-0.2
	c-0.7,0-1.4,0.5-2.1,1.6v6.5c-0.1,0.6,0,1.2,0.2,1.7c0.1,0.1,0.3,0.2,0.4,0.3c0.2,0.1,0.3,0.1,0.5,0.1v0.5h-6v-0.5
	c0.2,0,0.4,0,0.6-0.1c0.2-0.1,0.4-0.2,0.5-0.4c0.2-0.5,0.3-1.1,0.2-1.7v-6.8c0.1-0.6,0-1.2-0.3-1.7c-0.3-0.3-0.6-0.4-1-0.4v-0.5
	H225.9z"/>
<path class="st0" d="M239.9,117.3v1.6c0.5-0.6,1.1-1.1,1.8-1.5c0.6-0.3,1.2-0.4,1.9-0.4c0.7,0,1.4,0.2,2,0.5c0.6,0.4,1,1,1.2,1.7
	c0.6-0.7,1.2-1.2,2-1.7c0.6-0.3,1.3-0.5,2-0.5c0.7,0,1.4,0.2,2,0.6c0.5,0.4,0.8,0.9,1,1.5c0.2,0.9,0.3,1.9,0.3,2.8v4.9
	c-0.1,0.6,0,1.2,0.2,1.7c0.3,0.3,0.7,0.4,1.1,0.4v0.5h-6.2v-0.5c0.2,0,0.4-0.1,0.6-0.2c0.2-0.1,0.3-0.2,0.5-0.4
	c0.2-0.5,0.3-1,0.2-1.6v-5.2c0-0.7,0-1.3-0.1-2c-0.1-0.3-0.2-0.5-0.4-0.6c-0.2-0.1-0.4-0.2-0.6-0.2c-0.4,0-0.8,0.2-1.1,0.4
	c-0.4,0.3-0.8,0.7-1.1,1.2v6.5c-0.1,0.6,0,1.1,0.2,1.6c0.1,0.2,0.3,0.3,0.5,0.4c0.2,0.1,0.4,0.1,0.6,0.1v0.5h-6.2v-0.5
	c0.3,0,0.6-0.1,0.8-0.2c0.2-0.1,0.3-0.3,0.4-0.5c0.1-0.5,0.1-0.9,0.1-1.4v-5.2c0-0.7,0-1.3-0.1-2c-0.1-0.3-0.2-0.5-0.4-0.6
	c-0.2-0.1-0.4-0.2-0.6-0.2c-0.4,0-0.7,0.1-1,0.3c-0.5,0.4-0.9,0.8-1.3,1.4v6.5c0,0.6,0,1.1,0.2,1.7c0.1,0.2,0.3,0.3,0.5,0.4
	c0.2,0.1,0.4,0.1,0.6,0.1v0.5H235V129c0.2,0,0.4,0,0.6-0.1c0.2-0.1,0.4-0.2,0.5-0.4c0.2-0.5,0.3-1.1,0.2-1.7v-6.9
	c0.1-0.6,0-1.2-0.3-1.7c-0.3-0.3-0.7-0.4-1.1-0.4v-0.5H239.9z"/>
<path class="st1" d="M266,122.9h-6.6c0,1.4,0.4,2.7,1.3,3.8c0.3,0.3,0.6,0.6,0.9,0.8c0.4,0.2,0.8,0.3,1.2,0.3c0.5,0,1-0.1,1.4-0.4
	c0.5-0.4,1-1,1.4-1.6l0.4,0.3c-0.5,1.1-1.2,2.1-2.2,2.8c-0.8,0.6-1.8,0.8-2.7,0.8c-0.8,0-1.6-0.1-2.3-0.5c-0.7-0.4-1.3-0.9-1.8-1.6
	c-0.8-1.2-1.2-2.7-1.1-4.1c-0.1-1.7,0.5-3.5,1.6-4.8c0.5-0.6,1.1-1,1.7-1.3c0.7-0.3,1.4-0.5,2.1-0.5c0.6,0,1.2,0.1,1.8,0.4
	c0.5,0.3,1,0.6,1.4,1.1C265.5,119.7,266.1,121.3,266,122.9z M262.8,122c0-1,0-1.9-0.2-2.8c-0.1-0.5-0.4-0.9-0.7-1.2
	c-0.2-0.2-0.5-0.2-0.7-0.2c-0.2,0-0.4,0.1-0.6,0.2c-0.2,0.1-0.4,0.3-0.5,0.5c-0.6,0.9-0.8,2-0.8,3.1v0.4L262.8,122z"/>
<path class="st0" d="M271.4,117.3v1.6c0.5-0.6,1.1-1.1,1.8-1.4c0.6-0.3,1.2-0.5,1.8-0.5c0.7,0,1.4,0.2,1.9,0.7c0.5,0.4,0.8,1,1,1.6
	c0.2,0.9,0.2,1.9,0.2,2.8v4.7c-0.1,0.6,0,1.2,0.2,1.7c0.3,0.3,0.7,0.4,1.1,0.4v0.5h-6.1v-0.5c0.2,0,0.4-0.1,0.6-0.2
	c0.2-0.1,0.3-0.2,0.4-0.4c0.2-0.5,0.3-1.1,0.2-1.6v-5.4c0-0.6,0-1.3-0.1-1.9c-0.1-0.2-0.2-0.4-0.4-0.6c-0.2-0.1-0.4-0.2-0.6-0.2
	c-0.7,0-1.4,0.5-2.1,1.6v6.5c-0.1,0.6,0,1.2,0.2,1.7c0.1,0.1,0.3,0.2,0.4,0.3c0.2,0.1,0.3,0.1,0.5,0.1v0.5h-6.1v-0.5
	c0.2,0,0.4,0,0.6-0.1c0.2-0.1,0.4-0.2,0.5-0.4c0.2-0.5,0.3-1.1,0.2-1.7v-6.8c0.1-0.6,0-1.2-0.3-1.7c-0.3-0.3-0.7-0.4-1-0.4v-0.5
	H271.4z"/>
<path class="st0" d="M284.6,112.9v4.4h2.9v1.3h-2.9v7.4c0,0.5,0,0.9,0.1,1.3c0.1,0.2,0.2,0.4,0.3,0.5c0.1,0.1,0.3,0.2,0.5,0.2
	c0.6,0,1.1-0.4,1.6-1.3l0.4,0.3c-0.2,0.7-0.7,1.3-1.3,1.8c-0.6,0.4-1.3,0.7-2.1,0.7c-0.7,0-1.4-0.2-2-0.6c-0.5-0.4-0.8-0.9-1-1.4
	c-0.1-0.8-0.2-1.6-0.1-2.4v-6.5h-1.6v-0.4c1-0.7,1.9-1.5,2.8-2.4c0.8-0.9,1.5-1.8,2-2.8H284.6z"/>
<path class="st0" d="M302.2,128.9v0.5H293v-0.5h0.6c0.4,0,0.8-0.1,1.2-0.3c0.2-0.1,0.4-0.4,0.5-0.6c0.1-0.5,0.2-1.1,0.1-1.6v-11.5
	c0-0.6,0-1.1-0.1-1.7c-0.1-0.3-0.3-0.5-0.6-0.6c-0.4-0.2-0.8-0.3-1.2-0.3H293v-0.5h9.1v0.5h-0.6c-0.4,0-0.9,0.1-1.2,0.3
	c-0.2,0.1-0.4,0.4-0.5,0.6c-0.1,0.5-0.2,1.1-0.1,1.6v11.5c0,0.6,0,1.1,0.1,1.7c0.1,0.2,0.3,0.5,0.6,0.6c0.4,0.2,0.8,0.3,1.2,0.2
	H302.2z"/>
<path class="st0" d="M308.1,117.3v1.6c0.5-0.6,1.1-1.1,1.8-1.4c0.6-0.3,1.2-0.5,1.8-0.5c0.7,0,1.4,0.2,1.9,0.7c0.5,0.4,0.8,1,1,1.6
	c0.2,0.9,0.2,1.9,0.2,2.8v4.7c-0.1,0.6,0,1.2,0.2,1.7c0.3,0.3,0.6,0.4,1,0.4v0.5H310v-0.5c0.2,0,0.4-0.1,0.6-0.2
	c0.2-0.1,0.3-0.2,0.4-0.4c0.2-0.5,0.2-1.1,0.2-1.6v-5.4c0-0.6,0-1.3-0.1-1.9c-0.1-0.2-0.2-0.4-0.4-0.6c-0.2-0.1-0.4-0.2-0.6-0.2
	c-0.7,0-1.4,0.5-2.1,1.6v6.5c-0.1,0.6,0,1.2,0.2,1.7c0.1,0.1,0.3,0.2,0.4,0.3c0.2,0.1,0.3,0.1,0.5,0.1v0.5h-6.1v-0.5
	c0.2,0,0.4,0,0.6-0.1s0.4-0.2,0.5-0.4c0.2-0.5,0.3-1.1,0.2-1.7v-6.8c0.1-0.6,0-1.2-0.3-1.7c-0.3-0.3-0.6-0.4-1-0.4v-0.5H308.1z"/>
<path class="st1" d="M320.2,111.4c0.5,0,1,0.2,1.4,0.6s0.6,0.9,0.6,1.4s-0.2,1-0.6,1.4s-0.9,0.6-1.4,0.6s-1-0.2-1.4-0.6
	s-0.6-0.9-0.6-1.4c0-0.3,0-0.5,0.1-0.8c0.1-0.2,0.2-0.5,0.4-0.6c0.2-0.2,0.4-0.3,0.6-0.4C319.7,111.5,319.9,111.4,320.2,111.4
	L320.2,111.4z M322,117.3v9.6c-0.1,0.6,0,1.1,0.3,1.6c0.3,0.3,0.7,0.4,1.2,0.4v0.5h-6.5v-0.5c0.2,0,0.4,0,0.6-0.1
	c0.2-0.1,0.4-0.2,0.5-0.4c0.2-0.5,0.3-1,0.2-1.6v-7c0.1-0.6,0-1.1-0.3-1.6c-0.2-0.1-0.3-0.3-0.5-0.3c-0.2-0.1-0.4-0.1-0.6-0.1v-0.5
	L322,117.3z"/>
<path class="st0" d="M328.9,112.9v4.4h2.9v1.3h-2.9v7.4c0,0.5,0,0.9,0.1,1.3c0.1,0.2,0.2,0.4,0.4,0.5c0.1,0.1,0.3,0.2,0.4,0.2
	c0.6,0,1.1-0.4,1.6-1.3l0.4,0.3c-0.2,0.7-0.7,1.3-1.3,1.8c-0.6,0.4-1.3,0.7-2.1,0.7c-0.7,0-1.4-0.2-2-0.6c-0.5-0.4-0.8-0.9-1-1.4
	c-0.1-0.8-0.2-1.6-0.1-2.4v-6.5h-1.5v-0.4c1-0.7,1.9-1.5,2.8-2.4c0.8-0.9,1.4-1.8,2-2.8H328.9z"/>
<path class="st1" d="M335.8,111.4c0.5,0,1,0.2,1.4,0.6s0.6,0.9,0.6,1.4s-0.2,1-0.6,1.4s-0.9,0.6-1.4,0.6s-1-0.2-1.4-0.6
	s-0.6-0.9-0.6-1.4c0-0.3,0-0.5,0.1-0.8c0.1-0.2,0.2-0.5,0.4-0.6c0.2-0.2,0.4-0.3,0.6-0.4C335.3,111.5,335.5,111.4,335.8,111.4
	L335.8,111.4z M337.6,117.3v9.6c-0.1,0.6,0,1.1,0.3,1.6c0.3,0.3,0.7,0.4,1.2,0.4v0.5h-6.5v-0.5c0.2,0,0.4,0,0.6-0.1
	c0.2-0.1,0.4-0.2,0.5-0.4c0.2-0.5,0.3-1,0.3-1.6v-7c0.1-0.6,0-1.1-0.3-1.6c-0.2-0.1-0.3-0.3-0.5-0.3c-0.2-0.1-0.4-0.1-0.6-0.1v-0.5
	L337.6,117.3z"/>
<path class="st1" d="M346.6,127.6c-1.1,1.1-2.5,1.8-4,1.9c-0.3,0-0.6,0-0.9-0.2c-0.3-0.1-0.6-0.3-0.8-0.5c-0.2-0.2-0.4-0.5-0.5-0.8
	c-0.1-0.3-0.2-0.6-0.2-0.9c0-0.5,0.1-0.9,0.3-1.4c0.2-0.4,0.5-0.8,0.9-1.1c1.6-1.2,3.3-2.2,5.2-2.9v-1.2c0-0.6,0-1.2-0.2-1.7
	c-0.1-0.3-0.3-0.5-0.6-0.6c-0.3-0.2-0.6-0.3-0.9-0.3c-0.5,0-1,0.1-1.4,0.4c-0.1,0.1-0.2,0.1-0.2,0.2c-0.1,0.1-0.1,0.2-0.1,0.3
	c0,0.3,0.2,0.5,0.4,0.7c0.3,0.3,0.5,0.7,0.5,1.1c0,0.2,0,0.4-0.1,0.6c-0.1,0.2-0.2,0.4-0.4,0.5c-0.3,0.3-0.8,0.5-1.2,0.4
	c-0.5,0-1-0.2-1.4-0.5c-0.2-0.1-0.3-0.3-0.4-0.5c-0.1-0.2-0.1-0.4-0.1-0.6c0-0.7,0.3-1.3,0.7-1.8c0.5-0.6,1.2-1,2-1.3
	c0.9-0.3,1.8-0.5,2.7-0.5c1-0.1,1.9,0.2,2.7,0.7c0.6,0.4,1,0.9,1.3,1.6c0.2,0.8,0.2,1.7,0.2,2.5v4.7c0,0.3,0,0.7,0.1,1
	c0,0.1,0.1,0.2,0.2,0.3c0.1,0.1,0.2,0.1,0.3,0.1c0.1,0,0.3-0.1,0.4-0.2c0.1-0.1,0.2-0.2,0.3-0.3l0.4,0.3c-0.3,0.5-0.8,1-1.3,1.4
	c-0.5,0.3-1,0.4-1.6,0.4c-0.6,0-1.1-0.1-1.6-0.5C346.8,128.6,346.6,128.1,346.6,127.6L346.6,127.6z M346.6,126.6v-4
	c-0.9,0.5-1.7,1.2-2.3,2c-0.3,0.4-0.5,0.9-0.5,1.4c0,0.4,0.2,0.7,0.4,1c0.1,0.1,0.3,0.2,0.4,0.3c0.2,0.1,0.3,0.1,0.5,0.1
	C345.7,127.3,346.2,127.1,346.6,126.6L346.6,126.6z"/>
<path class="st0" d="M356.9,112.9v4.4h2.9v1.3h-2.9v7.4c0,0.5,0,0.9,0.1,1.3c0.1,0.2,0.2,0.4,0.4,0.5c0.1,0.1,0.3,0.2,0.4,0.2
	c0.6,0,1.1-0.4,1.6-1.3l0.4,0.3c-0.2,0.7-0.7,1.3-1.3,1.8c-0.6,0.4-1.3,0.7-2.1,0.7c-0.7,0-1.4-0.2-1.9-0.6c-0.5-0.4-0.8-0.9-1-1.4
	c-0.1-0.8-0.2-1.6-0.1-2.4v-6.5h-1.6v-0.4c1-0.7,1.9-1.5,2.8-2.4c0.8-0.9,1.5-1.8,2-2.8H356.9z"/>
<path class="st1" d="M363.8,111.4c0.3,0,0.5,0,0.8,0.1c0.2,0.1,0.5,0.3,0.6,0.5c0.2,0.2,0.3,0.4,0.4,0.6c0.1,0.2,0.1,0.5,0.1,0.8
	c0,0.3,0,0.5-0.1,0.8c-0.1,0.2-0.3,0.5-0.4,0.6c-0.4,0.4-0.9,0.6-1.4,0.6c-0.5,0-1-0.2-1.4-0.6s-0.6-0.9-0.6-1.4s0.2-1,0.6-1.4
	S363.3,111.4,363.8,111.4L363.8,111.4z M365.6,117.3v9.6c-0.1,0.6,0,1.1,0.3,1.6c0.2,0.1,0.3,0.2,0.5,0.3c0.2,0.1,0.4,0.1,0.6,0.1
	v0.5h-6.5v-0.5c0.2,0,0.4,0,0.6-0.1c0.2-0.1,0.4-0.2,0.5-0.4c0.2-0.5,0.3-1,0.3-1.6v-7c0.1-0.6,0-1.1-0.3-1.6
	c-0.2-0.1-0.3-0.3-0.5-0.3c-0.2-0.1-0.4-0.1-0.6-0.1v-0.5L365.6,117.3z"/>
<path class="st0" d="M372.9,129.7l-4.1-9.3c-0.3-0.8-0.7-1.5-1.1-2.1c-0.2-0.2-0.5-0.4-0.9-0.4v-0.5h6.4v0.5c-0.3,0-0.6,0-0.8,0.2
	c-0.1,0.1-0.2,0.2-0.2,0.3c-0.1,0.1-0.1,0.2-0.1,0.4c0.1,0.6,0.3,1.2,0.6,1.8l2,4.5l1.6-3.9c0.4-0.7,0.6-1.5,0.7-2.4
	c0-0.1,0-0.2-0.1-0.4s-0.1-0.2-0.2-0.3c-0.3-0.2-0.6-0.3-1-0.3v-0.5h3.9v0.5c-0.3,0-0.7,0.2-0.9,0.4c-0.5,0.6-0.8,1.3-1.1,2l-4,9.5
	L372.9,129.7z"/>
<path class="st1" d="M388.7,122.9h-6.6c0,1.4,0.4,2.7,1.3,3.8c0.2,0.3,0.6,0.6,0.9,0.8c0.4,0.2,0.8,0.3,1.2,0.3c0.5,0,1-0.2,1.4-0.4
	c0.5-0.4,1-1,1.4-1.6l0.4,0.3c-0.5,1.1-1.2,2.1-2.2,2.8c-0.8,0.6-1.8,0.8-2.8,0.8c-0.8,0-1.6-0.1-2.3-0.5c-0.7-0.4-1.3-0.9-1.8-1.6
	c-0.8-1.2-1.2-2.7-1.1-4.1c-0.1-1.7,0.5-3.5,1.6-4.8c0.5-0.6,1.1-1,1.7-1.3c0.7-0.3,1.4-0.5,2.1-0.5c0.6,0,1.2,0.1,1.8,0.4
	c0.5,0.3,1,0.6,1.4,1.1C388.3,119.7,388.8,121.3,388.7,122.9z M385.6,122c0-1,0-1.9-0.2-2.8c-0.1-0.4-0.4-0.9-0.7-1.2
	c-0.2-0.2-0.5-0.2-0.7-0.2c-0.2,0-0.4,0.1-0.6,0.2c-0.2,0.1-0.3,0.3-0.5,0.5c-0.6,0.9-0.8,2-0.8,3.1v0.4L385.6,122z"/>
<path class="st0" d="M173.9,80.7c-0.1,0.1-0.2,0.3-0.3,0.3L173.9,80.7z"/>
<path class="st0" d="M177,57.1c0.2,0,0.3-0.1,0.4-0.2c0.1-0.1,0.2-0.3,0.2-0.4c0-0.1,0-0.2,0-0.2c0-0.1-0.1-0.1-0.1-0.2
	c-0.1-0.1-0.1-0.1-0.2-0.1c-0.1,0-0.2,0-0.2,0s-0.2,0-0.2,0c-0.1,0-0.1,0.1-0.2,0.1c-0.1,0.1-0.1,0.1-0.1,0.2s0,0.2,0,0.2
	c0,0.2,0.1,0.3,0.2,0.4C176.7,57.1,176.8,57.1,177,57.1z"/>
<path class="st0" d="M206.2,30.5h-22.8v18.4c0,1.8,0.8,3.3,1.8,3.8l8.8,5.2c0.1,0.1,0.2,0.2,0.4,0.3c0.1,0.1,0.3,0.1,0.4,0.1
	c0.3,0,0.5-0.1,0.7-0.3l8.9-5.3c1-0.5,1.8-2,1.8-3.8L206.2,30.5L206.2,30.5z M191,35.8h-2v-4.7h2V35.8z M189.6,37.4l0.3-0.3
	l-0.2-0.3h0.4l0.2-0.4l0.2,0.4h0.4l-0.2,0.3l0.3,0.3l-0.4,0.1v0.4l-0.3-0.2l-0.3,0.2v-0.4L189.6,37.4L189.6,37.4z M184.1,43.3v-4.5
	h2.4v4.5H184.1z M184.5,36.8h0.4l0.2-0.4l0.2,0.4h0.4l-0.2,0.3l0.3,0.3l-0.4,0.1v0.4l-0.3-0.2l-0.3,0.2v-0.4l-0.4-0.1l0.3-0.3
	L184.5,36.8L184.5,36.8z M187.2,41.4h0.4l0.2-0.4l0.2,0.4h0.4l-0.2,0.3l0.3,0.3l-0.4,0.1v0.4l-0.3-0.2l-0.3,0.2V42l-0.4-0.1l0.3-0.3
	L187.2,41.4L187.2,41.4z M188.8,37.8c0-0.1-0.2-0.2-0.2-0.2c-0.1,0-0.3,0.4-0.5,0.4c-0.2,0-0.2,0-0.2-0.1s0.3-0.2,0.4-0.3
	c-1.5,0-1.5,0.7-1.7,0.7c-0.4,0,0.3-0.7,0.5-0.9c-0.3,0-0.5-0.4-0.8-0.6c0.1-0.2,0.2-0.1,0.4,0c0-0.2,0.1-0.3,0.5-0.3
	c0.7,0,0.5,0.6,0.6,0.6c0.1,0,0-0.6,0.4-0.6c0.6,0,1.5,1.7,0.7,1.7C188.5,38,188.8,37.8,188.8,37.8L188.8,37.8z M187.1,32.8l0.3-0.3
	l-0.2-0.3h0.4l0.2-0.4l0.2,0.4h0.4l-0.2,0.3l0.3,0.3l-0.4,0.1v0.4l-0.3-0.2l-0.3,0.2v-0.4L187.1,32.8L187.1,32.8z M186.5,31.1v4.7
	h-2.4v-4.7H186.5z M191,55.4l-5.4-3.3c-0.5-0.4-0.8-0.8-1.1-1.3s-0.4-1.1-0.4-1.7v-5.2h6.9V55.4z M189,43.3v-4.5h2v4.5H189z
	 M198,55.7l-2.5,1.5h-0.1c-0.2,0.1-0.4,0.2-0.7,0.2c-0.2,0-0.5-0.1-0.7-0.2l-2.5-1.5V43.9h6.4V55.7z M198,43.3h-6.4V31.1h6.4V43.3z
	 M205.5,49.1c0,0.6-0.1,1.1-0.4,1.7s-0.6,1-1.1,1.3l-5.4,3.3V43.9h6.9V49.1z M205.5,43.3h-6.9V31.1h6.9V43.3z"/>
<path class="st0" d="M190.6,48.1c0-0.1-0.9,0.3-0.6,0.3c0.2-0.4,0.4-0.7,0.7-0.9c0-0.3-0.4,0-0.8,0.2c1.3-1.9,0.5-1.1-0.3-1
	c1.1-1.2,0.8-1.2,0-0.8c0.7-0.5,0.8-1.2,0.7-1.4c-0.6,0.8-1.2,0.7-1.2,1.5c0,0.6-0.1,1.1-0.4,1.6c-0.3,0.4-0.1-1.4-1-1.4
	c-0.3,0-1,0-1.2,0.3c0.2,0,0.4,0.5,0.4,0.6s0.2,0.7-0.1,0.7c-0.3,0-0.7-0.6-0.7-1c0-0.3,0-0.2,0-0.7c-0.1-0.4-0.3-0.8-0.6-1.1
	c-0.3-0.3-0.7-0.5-1.1-0.7c0,0.5,0.7,0.6,0.7,1.3c-0.3,0-0.7-0.5-0.7-0.2c0,0.3,0.4,0.4,0.4,0.7s-0.5-0.1-0.5,0.2
	c0,0.3,0.3,0.2,0.3,0.5c-0.2,0-0.4,0-0.4,0.1s0.1,0.2,0.2,0.3c-0.1,0.1-0.1,0.2-0.1,0.6c0,1.5,0.9,2.1,1.6,2.1
	c0.5,0,0.4-0.3,0.4-0.5c0,0.2,0.3-0.1,0.3,0.3s-0.5,0.2-0.5,0.6c0,0.4,0.7,0,0.7,0.6c0,0.3,0,0.7-0.1,1c0,0.2,0.8-0.3,0.7-0.3
	c0.2,0.1,0.2,0.6,0.5,0.6c0.3,0,0.3-0.6,0.4-0.6c-0.1,0,0.7,0.5,0.7,0.3c0-0.7-0.3-0.4-0.3-0.9c0-0.5,0.9-0.3,0.8-0.6
	c-0.1-0.2-0.2-0.1-0.3-0.4c0,0.1-0.7-1.1,0.2-0.5S190.6,48.2,190.6,48.1L190.6,48.1z"/>
<path class="st0" d="M214.9,52.9c0.1,0,0.2-0.1,0.3-0.2c0.1-0.1,0.2-0.2,0.2-0.3c0-0.1,0-0.3,0-0.4s-0.1-0.2-0.2-0.3
	c-0.1-0.1-0.2-0.1-0.3-0.2c-0.1,0-0.3,0-0.4,0.1c-0.1,0.1-0.2,0.1-0.3,0.2c-0.1,0.1-0.1,0.2-0.1,0.4c0,0.2,0.1,0.4,0.2,0.5
	C214.6,52.9,214.7,52.9,214.9,52.9z"/>
<path class="st0" d="M211.9,54.7c0.1,0,0.2-0.1,0.3-0.2c0.1-0.1,0.2-0.2,0.2-0.3c0-0.1,0-0.3,0-0.4c0-0.1-0.1-0.2-0.2-0.3
	c-0.1-0.1-0.2-0.1-0.3-0.2c-0.1,0-0.3,0-0.4,0.1c-0.1,0.1-0.2,0.1-0.3,0.2c-0.1,0.1-0.1,0.2-0.1,0.4c0,0.2,0.1,0.4,0.2,0.5
	S211.7,54.7,211.9,54.7z"/>
<path class="st0" d="M175.9,58.9c0.1,0,0.2-0.1,0.3-0.1c0.1-0.1,0.2-0.2,0.2-0.3c0-0.1,0-0.3,0-0.4c0-0.1-0.1-0.2-0.2-0.3
	c-0.1-0.1-0.2-0.1-0.3-0.2c-0.1,0-0.3,0-0.4,0c-0.1,0.1-0.2,0.1-0.3,0.2c-0.1,0.1-0.1,0.2-0.1,0.4c0,0.2,0.1,0.4,0.2,0.5
	C175.6,58.8,175.8,58.9,175.9,58.9z"/>
<path class="st0" d="M178.3,59.1c0.1,0,0.2-0.1,0.3-0.1c0.1-0.1,0.2-0.2,0.2-0.3c0-0.1,0-0.3,0-0.4c0-0.1-0.1-0.2-0.2-0.3
	c-0.1-0.1-0.2-0.1-0.3-0.2c-0.1,0-0.3,0-0.4,0c-0.1,0.1-0.2,0.1-0.3,0.2c-0.1,0.1-0.1,0.2-0.1,0.4c0,0.2,0.1,0.4,0.2,0.5
	C177.9,59,178.1,59.1,178.3,59.1z"/>
<path class="st0" d="M243,27.7c0.6,0.7,0.9,1.5,1,2.4c0.1,0.9-0.1,1.8-0.5,2.6c-0.4,0-0.4-0.6-0.4-0.9c-0.8-1.5-1.4-3.4-0.7-5
	C242.9,26.9,242.7,27.5,243,27.7L243,27.7z"/>
<path class="st0" d="M148,29.5c-0.2,1-0.2,2.1,0,3.2c-0.2,0.2-0.2-0.2-0.4-0.2c-1.5-1.1-0.8-3.3-1.2-4.9c0-0.1,0.1-0.1,0.2-0.1
	c0.1,0,0.1,0,0.2,0c0.3,0.2,0.6,0.5,0.8,0.9C147.8,28.7,148,29.1,148,29.5L148,29.5z"/>
<path class="st0" d="M246.4,29.6c0.2,0.4-0.2,0.9-0.5,1.1c-0.2,0-0.4,0-0.6-0.1c-0.2-0.1-0.3-0.2-0.4-0.4c0-0.2,0-0.4,0.1-0.6
	c0.1-0.2,0.2-0.3,0.4-0.4c0.2,0,0.4,0,0.6,0.1C246.1,29.4,246.2,29.5,246.4,29.6L246.4,29.6z"/>
<path class="st0" d="M145.6,31.4c0,0.2-0.1,0.3-0.2,0.5s-0.2,0.3-0.4,0.4c-0.2,0-0.6,0-0.8-0.2c-0.1-0.1-0.2-0.2-0.2-0.4
	c0-0.2,0-0.3,0.1-0.4c0.1-0.1,0.2-0.2,0.3-0.3c0.1-0.1,0.3-0.1,0.4-0.1C145.2,31,145.5,31,145.6,31.4z"/>
<path class="st0" d="M248,32c0.1,0.2,0.1,0.4,0,0.6c-0.1,0.2-0.3,0.3-0.5,0.4c-0.2,0.1-0.4,0.1-0.6,0c-0.2-0.2-0.4-0.4-0.4-0.7
	c0.1-0.2,0.1-0.3,0.3-0.4c0.1-0.1,0.3-0.2,0.4-0.3C247.5,31.7,247.8,31.8,248,32z"/>
<path class="st0" d="M245.7,32.1c0.3,0.2,0.1,0.6,0,0.8c-0.2,0.2-0.5,0.5-0.8,0.4c-0.2-0.2-0.4-0.2-0.5-0.5c0-0.2,0-0.4,0.1-0.6
	s0.2-0.3,0.4-0.4c0.1,0,0.3,0,0.4,0C245.4,31.9,245.5,32,245.7,32.1L245.7,32.1z"/>
<path class="st0" d="M242.8,32.7c0,0.4,0,1-0.5,1.1c-0.1,0-0.2,0-0.3,0c-0.1,0-0.2-0.1-0.3-0.1c-0.1-0.1-0.2-0.1-0.2-0.2
	c-0.1-0.1-0.1-0.2-0.1-0.3c0-0.2,0-0.4,0.1-0.6c0.1-0.2,0.3-0.3,0.5-0.4c0.2,0,0.3,0.1,0.4,0.1C242.6,32.4,242.7,32.5,242.8,32.7
	L242.8,32.7z"/>
<path class="st0" d="M149.9,32.9c0.1,0.4-0.3,0.6-0.5,0.8c-0.2,0-0.3,0-0.5-0.1c-0.1-0.1-0.3-0.2-0.3-0.3c-0.3-0.3,0.1-0.5,0.2-0.8
	c0.1-0.1,0.2-0.1,0.3-0.1c0.1,0,0.2,0,0.3,0c0.1,0,0.2,0.1,0.3,0.2C149.8,32.7,149.9,32.8,149.9,32.9z"/>
<path class="st0" d="M147.6,33c0,0.2,0,0.3-0.1,0.4c-0.1,0.1-0.2,0.2-0.3,0.3c-0.2,0-0.3,0-0.5,0s-0.3-0.2-0.3-0.3
	c0-0.1-0.1-0.2-0.1-0.3c0-0.1,0-0.2,0-0.3c0-0.1,0.1-0.2,0.1-0.2s0.1-0.1,0.2-0.2C147.1,32.3,147.4,32.7,147.6,33z"/>
<path class="st0" d="M233.2,33.2c0.4,0.9,0.7,1.8,0.8,2.8c-0.2,0.8,0.1,1.8-0.4,2.3c-0.6-0.2-0.6-0.9-1-1.2c-0.7-1.4-0.1-3,0.2-4.4
	C233,32.5,233,32.9,233.2,33.2L233.2,33.2z"/>
<path class="st0" d="M145.7,33.7c0.1,0.5-0.2,0.7-0.5,1c-0.5,0.1-0.8-0.2-1-0.6c0-0.2,0-0.4,0.1-0.6c0.1-0.2,0.2-0.3,0.4-0.4
	c0.2,0,0.4,0,0.6,0.1C145.4,33.3,145.6,33.4,145.7,33.7L145.7,33.7z"/>
<path class="st0" d="M239.5,34.8c0.5,1.2,0.6,2.6,0.2,3.8l-0.2,0.2c-0.7-1-1.2-2.1-1.6-3.2c0-0.8,0.2-1.6,0.5-2.3
	c0.3-0.2,0.4,0,0.6,0.3c0,0.2,0.1,0.5,0.2,0.7C239.1,34.5,239.3,34.7,239.5,34.8z"/>
<path class="st0" d="M244.5,34.1c0,0.2,0,0.4-0.2,0.6S244,35,243.9,35c-0.1,0-0.2,0-0.3,0c-0.1,0-0.2,0-0.3-0.1
	c-0.1,0-0.2-0.1-0.2-0.2c-0.1-0.1-0.1-0.2-0.1-0.3c-0.1-0.2,0-0.4,0-0.6s0.2-0.3,0.4-0.4C243.8,33.3,244.3,33.7,244.5,34.1
	L244.5,34.1z"/>
<path class="st0" d="M147.6,35.3c0,0.2-0.1,0.3-0.2,0.5c-0.1,0.1-0.2,0.2-0.4,0.3c-0.3,0.2-0.6-0.2-0.8-0.3
	c-0.1-0.1-0.1-0.3-0.1-0.5s0-0.3,0.1-0.5c0.1-0.2,0.4-0.2,0.6-0.3C147.2,34.8,147.5,34.9,147.6,35.3z"/>
<path class="st0" d="M149.3,35.1c0.2,0.4-0.3,0.6-0.4,0.8c-0.5,0.2-0.7-0.2-0.9-0.5c-0.2-0.3,0.2-0.6,0.4-0.9
	C148.9,34.5,149.1,34.8,149.3,35.1z"/>
<path class="st0" d="M245.6,35c0,0.5-0.8,1-0.9,1.6c-0.2,0.5-0.6,1-1,1.4c-0.4,0.4-0.9,0.7-1.5,0.9c-0.3,0.3-0.6,0.4-0.9,0.5
	c-0.1-0.8,0.6-1.5,1.1-2.2C243.2,36,244.3,35.3,245.6,35z"/>
<path class="st0" d="M146.8,36.7c0.5,0.7,1,1.3,1.6,1.9c0,0,0,0.1,0,0.1c0,0,0,0.1-0.1,0.1c0,0-0.1,0.1-0.1,0.1c0,0-0.1,0-0.1,0
	c-1.9-0.1-3.2-2.1-4.2-3.5c0.1-0.4,0.6-0.1,0.9-0.1C145.5,35.8,146.3,36,146.8,36.7z"/>
<path class="st0" d="M246.1,37.2c0,0.9-0.2,1.7-0.7,2.5c-0.4,0.8-1,1.4-1.8,1.8c-0.4,0.2-0.9,0.6-1.4,0.3c0.9-1.7,2.1-3.3,3.5-4.6
	H246.1z"/>
<path class="st0" d="M238.5,38.4c0.1,0.2,0,0.5-0.1,0.7c-0.1,0.2-0.3,0.4-0.6,0.4c-0.4,0-0.7-0.3-0.9-0.6c0-0.2,0-0.4,0.1-0.5
	c0.1-0.2,0.3-0.3,0.4-0.3c0.1,0,0.1-0.1,0.2-0.1c0.1,0,0.2,0,0.2,0C238.2,38,238.3,38.2,238.5,38.4z"/>
<path class="st0" d="M144.6,38.8c0.8,0.6,1.5,1.2,2.1,1.9c-0.5,0.4-1.1,0-1.8,0c-1.3-0.5-2.3-1.6-3.6-2c0-0.4,0.6-0.3,0.8-0.4
	C143,38.3,143.8,38.5,144.6,38.8z"/>
<path class="st0" d="M187.1,26.9c-2.2-0.9-3.7,1.4-6,1.1c-0.3,0.2-0.2,0.4-0.4,0.6c-0.2,0.2-0.3,0-0.4,0c-0.1-1-0.4-1.8-0.6-2.8
	c-0.2-0.4-0.1-1-0.3-1.4c-1.3-3.5,3.1-0.8,4-2.9c0.8-1.8-1.5-2-2.1-3.2V18c-0.6-0.6-1.3-0.8-1.7-1.7c0.3-1,0.4-2.1,0.1-3.1
	c0-0.2-0.2-0.6-0.6-0.4c-0.8,1-1.3,1.9-2,2.9c-0.7-0.6-1.5-1.2-2.3-1.8c-0.6-0.1-1.1-0.7-1.8-0.4c0,0.1-0.1,0.2,0,0.3
	c0,0.1,0.1,0.2,0.2,0.3c0.1,1.5,0.7,2.9,1.8,3.9l0.1,0.6c-0.7,1.6-0.5,3.5-0.7,5.3c-1.8,4.7-4.7,8.9-8.6,12.1c-2.3,2.6-5,5-5.3,8.5
	c-0.1,0.6,0.1,1.2-0.4,1.6c-1.3-0.5-2.6-1.1-3.7-2c-1.8-1.3-4.4-1.1-5.6-3.4c-0.5-0.9,0.1-1.8,0.5-2.5c1.4-1.3,1.2-3.6,0.4-5.1
	c-0.2,0-0.2,0.2-0.3,0.2c-0.1,2.3-2,4-1.3,6.6c0.2,0.8,0.6,1.2,0.8,2c-0.3,0-0.6-0.1-0.9-0.2c-0.9-0.2-1.8-0.4-2.7-0.4
	c-1.8,0.8-4.3-0.2-5.8,1.5c-0.2,0-0.6,0.1-0.5,0.4c0.9,0,1.7,0.2,2.6,0.2c1.4,0.2,2.3-0.9,3.2-1.4h0.2c0.4-0.4,1.1-0.2,1.6-0.2
	c2.5,0.3,4.4,1.5,6.5,2.7v0.2c-0.8,0.4-1.7,0.6-2.5,1c-1,0.6-1.8,1.6-2.2,2.7c-0.6,1,0.2,1.9,0.6,2.7c0,0.4,0.1,0.9,0.4,1
	c1.3-1.4,0.1-3,0.3-4.6c0.2-0.5,0.6-1,1-1.4c0.5-0.4,1-0.6,1.6-0.7c2.3-1,3.9,0.9,5.7,1.9c0.1,1.8,0,3.6-0.2,5.4
	c-0.6,0.2-1.2,0.3-1.9,0.3c-3.1,0.2-5.6,2-8.4,2.9c-1.3,0.4-2.8,0.4-4,0.9c1,0.1,2,0.1,3.1-0.1c3.9-0.6,6.9-3.6,11.1-3l0.1,0.1
	c-0.5,1-1.1,1.8-1.9,2.6c-0.1-0.4-0.2-0.8-0.6-1c-0.2-0.1-0.3-0.1-0.5,0c-0.2,0.1-0.3,0.2-0.4,0.3c-0.1,0.1-0.1,0.2-0.1,0.3
	s0,0.2,0.1,0.3c0.1,0.1,0.2,0.3,0.4,0.4c0.1,0.1,0.3,0.2,0.5,0.2c-0.1,0.4-0.5,0.5-0.8,0.8c-1.1,1.9-3.4,1.1-4.7,2.4
	c-0.2,0.3-0.9,0.4-0.6,0.9c1.4,0.2,2.9-0.2,4.1-1c1.5-1.6,3-3.2,4.5-4.8c0.1,0.6,0.1,1.3-0.1,1.9c-0.1,0.6-0.4,1.2-0.8,1.7
	c-0.3-0.2-0.7-0.4-1.1-0.6c-0.2,0.1-0.3,0.2-0.5,0.3c-0.1,0.1-0.2,0.3-0.2,0.5c0.1,0.3,0.3,0.6,0.6,0.8c-1.3,1-3.1,1-4.6,1.5
	c-2.9,0.4-5.8,0.6-8.6,0.6c-1.4-0.1-3,0.4-4.3,0c-1.5,0.3-3.1-0.2-4.4,0.6c-0.2,0.2,0,0.4,0,0.6c1.8,1.2,4.3,0.2,6.4,0.6h15.6
	c1.1,0.1,2.2-0.1,3.2-0.6c2-1.2,3.1-3.2,4.2-5.3c0.4-0.8,0.7-1.6,0.8-2.4c0.2-0.7,0.6-1.2,1.1-1.7c0.5-0.4,1.2-0.7,1.9-0.8
	c0.1,2-0.1,4.1-0.7,6.1c-0.2,1.3-1.1,2.5-0.6,3.9c0.1,0.6,0.8,0.6,1.3,0.7c4.8-0.1,9.6-0.3,14.7,0.1c0.9,0.2,1.8,0.4,2.7,0.4
	c0.1-0.1,0.4-0.2,0.2-0.4c-0.1-0.3-0.2-0.5-0.3-0.7c-0.2-0.2-0.4-0.3-0.6-0.4c-0.1-0.2-0.4-0.2-0.6-0.3c-2.5-1.4-5.6-0.7-8.6-0.6
	c-1.5,0.2-3.1,0.4-4.4-0.4c-0.6-0.7-0.2-3-0.2-3c0.6-2.6,1.5-5.2,2.5-7.7c0.2-0.6,0.2-1.2,0.2-1.8c0.2-0.9,0.3-1.8,0.2-2.7
	c0.3-1.3,0.7-2.5,1.2-3.7c0.2-0.6,0.4-1.2,0.7-1.8c0.1-0.7,0.4-1.4,0.8-2.1c1.3,0.8,2.6,0.8,3.2,2.3l0.6,3.3c0,0.2,0.2,0.6,0.4,0.4
	c1-0.7,0.7-2.2,0.7-3.2c0.2-1.2-0.6-1.8-1-2.9c-0.3-0.3-0.5-0.7-0.7-1.2c-0.2-0.9-2.1-1.5-1.6-2.6c0.1-0.5,0.2-0.9,0.4-1.3
	c0.2-0.4,0.5-0.7,0.9-1c0.1,0,0.1,0.1,0.1,0.1c0,0,0.1,0.1,0.1,0.2l0.5-0.3l0.1-3.3c1.3,0,3.2,0.2,4.5,0.2c0.4,0.1,0.6,0.4,1,0.4
	l0.3-0.4l3.2-0.6C189.2,28.6,188.4,27,187.1,26.9L187.1,26.9z"/>
<path class="st0" d="M190.6,28.4c0.1,0,0.2,0,0.3-0.1L190.6,28.4z"/>
<path class="st0" d="M156,39.5c0,0.2,0,0.4-0.1,0.6c-0.1,0.2-0.3,0.3-0.5,0.4c-0.3-0.1-0.6-0.2-0.8-0.5c-0.2-0.3,0.2-0.8,0.6-0.9
	C155.5,39.1,155.9,39.1,156,39.5z"/>
<path class="st0" d="M153.5,39.5c0.1,0.1,0.2,0.3,0.2,0.4c0,0.2,0,0.3-0.1,0.5c-0.3,0.2-0.7,0.4-1,0.1c-0.3-0.3-0.5-0.5-0.3-0.8
	S153.1,39.2,153.5,39.5L153.5,39.5z"/>
<path class="st0" d="M238.9,40.6c0.2,0.4-0.2,0.8-0.5,0.9c-0.4-0.1-0.9-0.2-0.9-0.7c0-0.1,0.1-0.3,0.2-0.4c0.1-0.1,0.2-0.2,0.4-0.2
	c0.2,0,0.3,0,0.5,0.1C238.7,40.3,238.8,40.5,238.9,40.6z"/>
<path class="st0" d="M241,40.5c0.1,0.2,0.4,0.5,0.1,0.7c-0.1,0.1-0.3,0.2-0.4,0.3c-0.2,0.1-0.4,0-0.6,0c-0.2-0.1-0.3-0.2-0.4-0.4
	c-0.1-0.4,0.3-0.6,0.6-0.8C240.6,40,240.8,40.4,241,40.5z"/>
<path class="st0" d="M143.5,41c0,0.1-0.1,0.2-0.2,0.3c-0.1,0.1-0.2,0.2-0.3,0.2c-0.1,0-0.2,0.1-0.3,0.1c-0.1,0-0.2,0-0.3-0.1
	c-0.1-0.2-0.2-0.3-0.3-0.5c0-0.1,0-0.3,0.1-0.4c0.1-0.1,0.2-0.2,0.3-0.3c0.2,0,0.4,0.1,0.6,0.2C143.3,40.6,143.4,40.8,143.5,41z"/>
<path class="st0" d="M156.9,41.7c-0.1,0.2-0.1,0.3-0.3,0.4c-0.1,0.1-0.3,0.2-0.4,0.3c-0.2,0-0.4-0.1-0.5-0.2s-0.3-0.2-0.4-0.4
	c0-0.2,0-0.3,0.1-0.5c0.1-0.1,0.2-0.3,0.4-0.3c0.2-0.1,0.5,0,0.7,0.1C156.7,41.3,156.8,41.5,156.9,41.7z"/>
<path class="st0" d="M154.5,41.4c0.1,0.1,0.1,0.2,0.2,0.3c0,0.1,0,0.2,0,0.3c-0.2,0.2-0.6,0.6-1,0.3c-0.2-0.2-0.5-0.4-0.4-0.8
	c0.2-0.2,0.4-0.4,0.6-0.5C154.1,41,154.3,41.2,154.5,41.4L154.5,41.4z"/>
<path class="st0" d="M247.1,41.9c0,0.2-0.1,0.3-0.2,0.4s-0.2,0.2-0.3,0.3c-0.1,0.1-0.3,0.1-0.5,0c-0.2,0-0.3-0.1-0.4-0.2
	c-0.2-0.1-0.2-0.4-0.2-0.6c0.2-0.3,0.4-0.4,0.8-0.5C246.6,41.4,246.9,41.6,247.1,41.9z"/>
<path class="st0" d="M249.6,42.2c0,0.2-0.1,0.3-0.3,0.5c-0.1,0.1-0.3,0.2-0.5,0.3c-0.2,0-0.7-0.1-0.6-0.5c0-0.2,0.1-0.3,0.2-0.4
	c0.1-0.1,0.2-0.2,0.4-0.2c0.2,0,0.3,0,0.5,0.1C249.4,42,249.6,42.1,249.6,42.2z"/>
<path class="st0" d="M148,42.8c0,0.1,0.1,0.2,0,0.3c0,0.1,0,0.2-0.1,0.3c0,0.1-0.1,0.2-0.2,0.2c-0.1,0.1-0.2,0.1-0.3,0.2
	c-0.3,0.2-0.6,0-0.8-0.2c-0.1-0.1-0.2-0.2-0.2-0.4c0-0.1,0-0.3,0-0.4c0.1-0.4,0.4-0.3,0.7-0.4c0.2,0,0.3,0.1,0.4,0.2
	C147.8,42.6,147.9,42.7,148,42.8L148,42.8z"/>
<path class="st0" d="M150,43.2c0.1,0.3-0.2,0.4-0.3,0.7c-0.1,0.1-0.2,0.1-0.3,0.1c-0.1,0-0.3,0-0.4-0.1c-0.3-0.2-0.6-0.6-0.3-1
	C149,42.4,149.8,42.7,150,43.2z"/>
<path class="st0" d="M244.7,43c0,0.4-0.3,0.7-0.6,0.9c-0.2,0-0.3,0-0.5-0.1c-0.1-0.1-0.3-0.2-0.3-0.4c0-0.2,0-0.3,0.1-0.4
	c0.1-0.1,0.2-0.2,0.3-0.3c0.2,0,0.3,0,0.5,0C244.5,42.8,244.6,42.9,244.7,43z"/>
<path class="st0" d="M248,43.6c-0.1,0.4,0,0.8-0.4,1c-0.2,0.1-0.3,0.1-0.5,0c-0.2,0-0.3-0.1-0.5-0.2c-0.1-0.1-0.2-0.2-0.2-0.4
	c0-0.2,0-0.3,0.1-0.4c0.1-0.2,0.2-0.3,0.4-0.4c0.2-0.1,0.4-0.1,0.6-0.1C247.6,43.3,247.7,43.5,248,43.6L248,43.6z"/>
<path class="st0" d="M146.5,44.4c0.2,0.3-0.2,0.4-0.3,0.6c-0.1,0.1-0.3,0.1-0.4,0.1c-0.1,0-0.3-0.1-0.4-0.1
	c-0.3-0.2-0.2-0.6-0.1-0.8C145.6,43.5,146.4,44,146.5,44.4z"/>
<path class="st0" d="M245.5,45.2c0.2,0,0.1,0.3,0,0.4c-0.5,0.3-1.1,0.4-1.6,0.4c-0.6,0-1.1-0.2-1.6-0.5c-0.5-0.3-1-0.6-1.6-0.9
	c0.2-0.5,0.9-0.5,1.4-0.6C243.3,44.1,244.2,45.2,245.5,45.2L245.5,45.2z"/>
<path class="st0" d="M148.4,44.8c0.1,0.3-0.2,0.4-0.2,0.7c-0.1,0.2-0.5,0.2-0.7,0.1c-0.1,0-0.2-0.1-0.3-0.2
	c-0.1-0.1-0.1-0.2-0.1-0.3c0-0.1,0-0.2,0-0.3c0-0.1,0.1-0.2,0.2-0.3c0.1-0.1,0.2-0.1,0.3-0.1c0.1,0,0.2,0,0.3,0
	c0.1,0,0.2,0.1,0.3,0.2C148.4,44.6,148.4,44.7,148.4,44.8z"/>
<path class="st0" d="M151.9,45.1c0.1,0.2,0,0.4,0,0.5c-0.1,0.2-0.2,0.3-0.4,0.4c-0.3,0.2-0.5-0.1-0.8-0.1c-0.2-0.3-0.6-0.6-0.2-0.9
	C150.9,44.3,151.6,44.6,151.9,45.1z"/>
<path class="st0" d="M197.8,46.8c-0.1,0.8-1.4-0.1-1.2,1c0.1,0.8,0.4,1.6,0.8,2.2c0.4,0.5,0.2,1.4,0.1,2c-0.4,0.6-0.9,1-1.5,1.3
	c-1.1-0.1-2.8,0.6-3.3-0.8c-0.3-0.6-0.5-1.2-0.6-1.9c0.1-0.1,0.3-0.1,0.4-0.2c0-0.3-0.3-0.4-0.3-0.7c1.3-0.2-0.5-1.4,0.6-1.4
	c0.9,0.9,2.4,0.6,3.2,1.7c0.2,0.2,0.4,0.4,0.6,0.5c-0.2-1-0.6-1.9-0.8-2.9c-0.1-0.2,0-0.5,0-0.7c0.1-0.2,0.2-0.4,0.4-0.6
	C196.8,45.6,197.4,46.4,197.8,46.8L197.8,46.8z"/>
<path class="st0" d="M155.4,46.5c0.1,0.4-0.2,0.6-0.4,0.8c-0.2,0.2-0.6-0.2-0.7-0.4c-0.1-0.4,0.2-0.6,0.4-0.8c0.2,0,0.3,0,0.4,0.1
	C155.2,46.3,155.3,46.4,155.4,46.5z"/>
<path class="st0" d="M179.9,46.9c0.2,0.7,0.3,1.5,0.2,2.3c-0.1,0.8-0.3,1.5-0.7,2.2c0,0.3,0.1,0.8-0.3,0.8c-1.1-1.5-0.3-3.5,0.2-5.1
	C179.3,46.7,179.8,46.5,179.9,46.9z"/>
<path class="st0" d="M213.8,47.7c0.3,0.6,0.4,1.2,0.4,1.8c0,0.6-0.1,1.3-0.4,1.9l-0.3,0.3c-0.5-0.9-0.8-1.8-0.9-2.8
	c0.2-0.7,0.4-1.4,0.5-2.1C213.7,46.6,213.7,47.3,213.8,47.7z"/>
<path class="st0" d="M158.5,48.1c-0.2,0.5-0.9,0.6-1.4,0.9c-1,0.7-2.3,0.9-3.5,0.7c0.5-0.7,1.2-1.3,2-1.6c0.8-0.3,1.7-0.4,2.6-0.2
	C158.2,48,158.4,47.9,158.5,48.1z"/>
<path class="st0" d="M142.2,49.5c1.5,1,1.9,2.5,2.7,3.9c0.1,0.2,0.5,0.2,0.3,0.5c-0.3,0.2-0.6-0.2-1.1-0.2c-0.8-0.4-1.4-1-1.8-1.7
	c-0.4-0.7-0.6-1.6-0.6-2.4C141.8,49.5,142,49.5,142.2,49.5z"/>
<path class="st0" d="M212.3,50.8c0,0.4,0,0.8-0.4,0.9c-0.1,0-0.2,0-0.3,0c-0.1,0-0.2,0-0.3-0.1c-0.1,0-0.2-0.1-0.2-0.2
	c-0.1-0.1-0.1-0.2-0.1-0.3c-0.1-0.3,0.1-0.4,0.2-0.6c0.1-0.1,0.2-0.1,0.3-0.1c0.1,0,0.2,0,0.3,0c0.1,0,0.2,0.1,0.3,0.1
	C212.2,50.6,212.2,50.7,212.3,50.8z"/>
<path class="st0" d="M229,52.9c0.1-0.7,0.1-1.5,0.3-2.2c0.1-0.3,0.2-0.6,0.2-0.8c1-1.3,2.9-0.9,4.4-0.8c0.6,0.2,1.3,0.4,2,0.4
	c0.3-0.2,0.7-0.3,1-0.2c1.3-0.7,0.4-2.2,0.5-3.3l-0.5-1.2c-0.1-0.3-0.2-0.5-0.3-0.8c-0.2-0.3-0.4-0.8-0.6-1.1
	c-0.7-1.8-2-2.8-3.1-4.2c-2-2.6-5.2-4.1-8.4-5.1c-3.2-1-6.3,0.3-9.1,1.3c-0.4-0.1-0.7-0.3-1-0.6c-0.3-0.3-0.5-0.7-0.5-1
	c-0.1-1.5,0.1-2.9,0.8-4.2c0.3-0.9,0.6-1.8,1.1-2.7c0.8-2.2,1.4-4.5,1.6-6.9c0-0.7-0.2-1.3-0.6-1.9c-0.4-0.6-0.9-1-1.5-1.3
	c-0.4-0.1-0.8-0.2-1.2-0.1c-0.4,0.1-0.7,0.3-1,0.5c-0.6,1-1.5,1.8-2.6,2.3c-0.1,0.7,0.8,0.2,1,0.5c0.9,0.2,1.9-0.1,2.6,0.4
	c-0.1,1.5-0.7,3-1.7,4.1c-1.4,1.9-2.6,4-3.6,6.2l-0.2-0.2l0.2,9.8c1.3,2.1,2.9,4.5,5.2,5.3c1.3,1,2.9,2.3,4.6,1.4
	c0.9-0.3,1,1,1.4,1.5c0.5,1.5-0.6,2.5-0.7,3.9l-1,2.2c-1.2,2.3-2.3,4.8-4.1,6.8c-0.6,0-1,0.6-1.5,0.7c-0.3,0.4-1,0.1-1.4,0.3
	c-1.2,0.5-3,0.2-3.8,1.4c0.1,0.1,0.2,0.2,0.3,0.2c2.4,0,5.1,0.2,7.7,0.1c0.2-0.1,0.3-0.2,0.4-0.3s0.2-0.3,0.2-0.5
	c-0.4-0.7,0.1-1.3,0.4-1.8c0.3-0.8,0.7-1.7,1.1-2.5c0.8-1.6,1.8-3.2,2.7-4.9l1.2-2c0.3-0.8,0.8-1.5,1.2-2.2c0.3-0.3,0.5-0.7,0.7-1.1
	c0-0.4-0.2-0.6-0.4-0.8c0.3-0.3,0.7-0.2,1.1-0.3c1.1,0.6,1.9,1.5,2.2,2.6l0.4,1l0.2,0.5l-0.1,1.3l0.2,1.2c0.1,1.9,0,3.9-0.4,5.8
	c-0.7,2.3-3.3,2.1-5.2,2.6c-0.5,0.3-1.4,0.2-1.4,1c2.3,0.5,5,0.2,7.5,0.2c0.4-0.2,0.5-0.5,0.7-0.9c0.1-0.5,0.6-1,0.4-1.5
	c-0.4-0.6,0-1.4-0.2-2.2c0.1-0.2,0.1-0.5,0-0.8c0.3-1.2,0.2-2.6,0.5-3.7L229,52.9z"/>
<path class="st0" d="M248.5,51.3c-1.3,1.8-2.6,3.8-4.8,4.5c-0.2,0-0.3,0.1-0.4-0.1c1.3-1.4,2.1-3.7,4.2-4.2c0.2-0.1,0.3-0.2,0.5-0.2
	C248.2,51.3,248.4,51.3,248.5,51.3z"/>
<path class="st0" d="M140.2,53.3c-0.2,0.2,0,0.5-0.4,0.6c-0.2,0.1-0.3,0.1-0.5,0c-0.2-0.1-0.3-0.2-0.3-0.4c0-0.1,0-0.2,0-0.3
	c0-0.1,0-0.2,0.1-0.3c0-0.1,0.1-0.2,0.2-0.2c0.1-0.1,0.2-0.1,0.3-0.1C139.9,52.8,140.2,52.9,140.2,53.3z"/>
<path class="st0" d="M151.7,53.9c0.1,0.4-0.3,0.4-0.5,0.4c-0.8,0.3-1.6,0.3-2.5,0.1c-0.8-0.2-1.5-0.6-2.1-1.3c0-0.2,0-0.3,0.2-0.4
	C148.4,53.2,150.3,52.9,151.7,53.9z"/>
<path class="st0" d="M142.4,53.3c0.1,0.2,0.1,0.4,0.1,0.6c-0.1,0.2-0.3,0.3-0.4,0.3c-0.2,0.1-0.4,0.1-0.6,0
	c-0.2-0.1-0.4-0.3-0.5-0.5c0-0.2,0.1-0.3,0.2-0.5c0.1-0.1,0.3-0.2,0.4-0.3C142,53,142.2,53.1,142.4,53.3L142.4,53.3z"/>
<path class="st0" d="M179.6,53.5c0.1,0.4-0.2,0.6-0.5,0.8c-0.2,0-0.3,0-0.5,0c-0.2-0.1-0.3-0.2-0.4-0.3c-0.1-0.1-0.1-0.3,0-0.4
	c0.1-0.1,0.2-0.3,0.3-0.3C178.9,53.1,179.5,53.2,179.6,53.5L179.6,53.5z"/>
<path class="st0" d="M250.1,53.7c0.1,0.4-0.2,0.6-0.5,0.8c-0.1,0-0.3,0-0.4,0c-0.1,0-0.3-0.1-0.4-0.1c0-0.2-0.3-0.4-0.2-0.6
	c0.1-0.2,0.2-0.3,0.4-0.4c0.2-0.1,0.4-0.1,0.5-0.1C249.7,53.4,249.9,53.6,250.1,53.7z"/>
<path class="st0" d="M252.7,53.5c0.2,0.4,0,0.6-0.2,0.9c-0.1,0.1-0.2,0.2-0.3,0.3c-0.1,0-0.3,0-0.4,0c-0.2-0.2-0.5-0.4-0.6-0.7
	c0-0.4,0.4-0.6,0.6-0.7C252.2,53.1,252.4,53.5,252.7,53.5z"/>
<path class="st0" d="M138.6,54.7c0,0.3-0.2,0.4-0.3,0.7c-0.2,0.1-0.4,0.2-0.6,0.2c-0.3-0.1-0.5-0.4-0.6-0.6c0-0.2,0-0.4,0.2-0.6
	c0.1-0.2,0.3-0.3,0.5-0.3c0.2,0,0.4,0,0.6,0.2C138.5,54.3,138.6,54.5,138.6,54.7z"/>
<path class="st0" d="M222.1,54.7c0,0.2,0,0.3,0,0.5c-0.2,0.3-0.5,0.6-0.9,0.4c-0.2-0.2-0.5-0.5-0.4-0.8c0.1-0.1,0.2-0.2,0.3-0.3
	c0.1-0.1,0.2-0.1,0.4-0.1c0.1,0,0.3,0,0.4,0.1C221.9,54.5,222,54.6,222.1,54.7L222.1,54.7z"/>
<path class="st0" d="M145,55.3c-0.1,0.3-0.2,0.6-0.6,0.6c-0.4,0-0.5-0.3-0.7-0.4c0-0.4,0-0.7,0.3-0.9c0.1,0,0.2,0,0.3,0
	c0.1,0,0.2,0.1,0.3,0.2s0.2,0.2,0.2,0.3C145,55.1,145,55.2,145,55.3z"/>
<path class="st0" d="M141.2,55.4c0,0.2,0,0.3-0.1,0.5c-0.1,0.2-0.2,0.3-0.3,0.4c-0.2,0-0.4,0-0.6-0.1c-0.2-0.1-0.3-0.3-0.4-0.5
	c0-0.2,0.1-0.4,0.2-0.6c0.1-0.2,0.3-0.3,0.5-0.4C140.8,54.8,141,55.2,141.2,55.4z"/>
<path class="st0" d="M224.7,55.3c0.1,0.2,0.1,0.4,0,0.6c-0.1,0.2-0.2,0.3-0.4,0.4c-0.5,0.2-0.9-0.2-1.1-0.6c0.2-0.3,0.2-0.8,0.7-0.8
	c0.2,0,0.3,0,0.5,0.1C224.5,55.1,224.7,55.2,224.7,55.3L224.7,55.3z"/>
<path class="st0" d="M143,55.5c0.1,0.3-0.1,0.4-0.2,0.6c-0.2,0-0.3,0.2-0.6,0.2c-0.2-0.1-0.5-0.3-0.5-0.6c0-0.3,0.2-0.6,0.5-0.8
	c0.2,0,0.3,0,0.5,0.1C142.9,55.1,143,55.3,143,55.5z"/>
<path class="st0" d="M247.9,55.8c-0.1,0.1-0.2,0.3-0.3,0.4c-0.1,0.1-0.3,0.2-0.4,0.3c-0.3,0.1-0.5-0.2-0.8-0.3
	c-0.2-0.1-0.1-0.5,0-0.7c0.1-0.1,0.2-0.3,0.4-0.3c0.2-0.1,0.3-0.1,0.5,0c0.2,0,0.3,0.1,0.4,0.3C247.8,55.4,247.9,55.6,247.9,55.8
	L247.9,55.8z"/>
<path class="st0" d="M250.9,55.9c-0.1,0.2-0.2,0.4-0.4,0.5c-0.2,0.1-0.4,0.2-0.6,0.2c-0.4-0.2-0.8-0.4-0.5-0.9
	c0.2-0.2,0.2-0.3,0.5-0.4c0.1,0,0.2,0,0.3,0c0.1,0,0.2,0.1,0.3,0.1c0.1,0.1,0.2,0.1,0.2,0.2C250.8,55.7,250.9,55.8,250.9,55.9z"/>
<path class="st0" d="M232,56.2c0.2,0.5-0.3,0.7-0.6,0.9c-0.3,0-0.5-0.2-0.8-0.3c0-0.2,0-0.4,0.1-0.6c0.1-0.2,0.3-0.3,0.5-0.4
	c0.2,0,0.3,0,0.4,0.1C231.8,56,231.9,56.1,232,56.2L232,56.2z"/>
<path class="st0" d="M221.1,56.7c0.2,0.1,0.1,0.4,0.1,0.5c-0.2,0.2-0.6,0.6-0.9,0.3c-0.1-0.1-0.3-0.2-0.3-0.3s-0.1-0.3-0.1-0.5
	c0.1-0.1,0.2-0.2,0.3-0.2c0.1-0.1,0.2-0.1,0.3-0.1s0.2,0,0.3,0.1C221,56.6,221.1,56.6,221.1,56.7L221.1,56.7z"/>
<path class="st0" d="M223.4,57c0,0.1,0,0.3,0,0.4c-0.1,0.1-0.2,0.2-0.3,0.3c-0.3,0.3-0.6,0-0.9-0.1c0-0.1-0.1-0.2-0.1-0.3
	c0-0.1,0-0.2,0.1-0.3c0.1-0.2,0.3-0.3,0.5-0.3C223,56.7,223.3,56.7,223.4,57L223.4,57z"/>
<path class="st0" d="M156,57c0.2,0.2,0,0.5-0.1,0.8c-0.1,0.1-0.3,0.3-0.5,0.3c-0.2,0-0.4,0-0.5-0.1c-0.4-0.2-0.4-0.7-0.3-1
	c0.2-0.1,0.2-0.4,0.6-0.4C155.5,56.6,155.8,56.8,156,57L156,57z"/>
<path class="st0" d="M236.3,57.2c0.1,0.4-0.3,0.6-0.6,0.6c-0.5,0.2-0.7-0.2-0.9-0.5c0-0.2,0.2-0.4,0.3-0.6
	C235.6,56.5,236,56.9,236.3,57.2z"/>
<path class="st0" d="M234.1,57.2c0.2,0.4-0.3,0.6-0.4,0.8c-0.1,0.1-0.3,0.1-0.5,0.1c-0.2,0-0.3-0.1-0.4-0.2
	c-0.2-0.1-0.2-0.4-0.2-0.6c0.2-0.2,0.4-0.4,0.6-0.5c0.2,0,0.3,0,0.5,0.1C233.9,56.9,234,57,234.1,57.2z"/>
<path class="st0" d="M252,57.7c0.1,0.6-0.6,0.3-0.9,0.4c-1.7,1-3.8,0.2-5.4-0.4c0.1-0.5,0.7-0.3,1-0.5c1.7-1.1,3.4,0.2,5.2,0.3
	L252,57.7L252,57.7z"/>
<path class="st0" d="M143.5,57.2l-0.2,0.3c-0.7,0.5-1.6,0.8-2.5,1c-0.9,0.2-1.8,0.1-2.7-0.1l-0.2-0.2c1.6-1,3.5-1.4,5.3-1.1
	L143.5,57.2z"/>
<path class="st0" d="M240.3,57.5c0,0.1,0,0.3-0.1,0.4c-0.1,0.1-0.2,0.2-0.3,0.3c-0.2,0.1-0.4,0.1-0.6,0c-0.2-0.1-0.3-0.2-0.4-0.4
	c-0.1-0.3,0.2-0.6,0.5-0.8C239.8,56.9,240.2,57,240.3,57.5L240.3,57.5z"/>
<path class="st0" d="M150.6,57.6c-0.2,0.3-0.1,0.6-0.5,0.8c-0.2,0-0.4,0-0.6-0.1c-0.2-0.1-0.3-0.3-0.4-0.4c-0.1-0.4,0.2-0.6,0.4-0.8
	C150,56.9,150.3,57.3,150.6,57.6L150.6,57.6z"/>
<path class="st0" d="M147.8,57.8c0.1,0.3-0.1,0.4-0.2,0.6c-0.1,0.1-0.2,0.2-0.4,0.2c-0.1,0-0.3,0-0.4-0.1c-0.2-0.1-0.3-0.2-0.4-0.4
	c-0.1-0.2-0.1-0.4-0.1-0.6c0.2-0.2,0.4-0.3,0.6-0.4C147.3,57.2,147.7,57.4,147.8,57.8L147.8,57.8z"/>
<path class="st0" d="M243.1,58.7c0,0.2-0.1,0.3-0.2,0.5c-0.1,0.1-0.3,0.2-0.4,0.3c-0.1,0-0.3,0-0.4-0.1c-0.1-0.1-0.2-0.2-0.3-0.3
	c-0.1-0.1-0.1-0.3-0.1-0.4c0-0.1,0.1-0.3,0.2-0.4c0.1-0.1,0.4-0.1,0.5-0.2c0.2,0,0.3,0.1,0.5,0.2C243,58.4,243.1,58.6,243.1,58.7z"
	/>
<path class="st0" d="M144.8,58.3c0.1,0.3-0.2,0.4-0.2,0.7c-0.2,0.6-0.5,1.2-0.9,1.7c-0.8,0.9-1.8,0.9-2.9,1.2l-0.2-0.3
	c1-1.4,2.4-2.6,4-3.3L144.8,58.3L144.8,58.3z"/>
<path class="st0" d="M241.1,59.2c0.1,0.5-0.3,0.6-0.6,0.8c-0.2,0-0.3,0-0.5-0.1c-0.1-0.1-0.3-0.2-0.3-0.4c-0.1-0.4,0.3-0.6,0.5-0.8
	c0.2,0,0.4,0,0.5,0.1C240.9,58.9,241.1,59,241.1,59.2z"/>
<path class="st0" d="M149.4,59.2c0,0.1,0,0.2,0.1,0.2c0,0.4-0.4,0.6-0.6,0.8c-0.2,0-0.3,0-0.5-0.1c-0.2-0.1-0.3-0.2-0.4-0.3
	c0-0.1-0.1-0.2-0.1-0.3c0-0.1,0-0.2,0.1-0.3c0-0.1,0.1-0.2,0.2-0.2s0.2-0.1,0.2-0.1C148.8,58.8,149.3,58.8,149.4,59.2z"/>
<path class="st0" d="M248.4,60.4c0.4,0,0.5-0.5,0.9-0.6c0.2,0,0.4,0,0.5,0.1c0.2,0.1,0.3,0.2,0.4,0.4c0.2,0.5-0.2,0.7-0.5,0.9
	c-0.3,0.2-0.9-0.2-0.8,0.3c0.1,0.1,0.3,0.2,0.4,0.3c0.1,0.1,0.2,0.3,0.2,0.5c-0.1,0.2-0.4,0.1-0.5,0c-1.2-0.4-2.3-1.3-2.9-2.5
	c-0.2-0.4-0.9-0.6-0.5-1c0.5,0,1.1,0.2,1.5,0.5C247.7,59.5,248.1,59.8,248.4,60.4L248.4,60.4z"/>
<path class="st0" d="M252.2,59.1c0.1,0.1,0.1,0.2,0.1,0.4s0,0.3-0.1,0.4c-0.2,0.4-0.8,0.2-1.1,0.2c-0.2-0.2-0.4-0.4-0.3-0.7
	c0.1-0.2,0.4-0.4,0.6-0.5c0.2,0,0.3,0,0.5,0C252,58.9,252.1,59,252.2,59.1L252.2,59.1z"/>
<path class="st0" d="M237.8,61.3c0.4,0.5,0.7,1,0.9,1.6c-0.1,0.1-0.3,0.1-0.3,0.1c-1.4-0.8-3.1-1.6-3.6-3.2
	c-0.1-0.2-0.4-0.4-0.4-0.6c1-0.2,2,0.6,2.7,1.1C237.4,60.7,237.7,60.8,237.8,61.3L237.8,61.3z"/>
<path class="st0" d="M147.2,59.8c0.2,0.4-0.2,0.6-0.4,0.8c-0.2,0-0.3,0-0.5,0c-0.2-0.1-0.3-0.2-0.4-0.3c-0.3-0.4,0.2-0.8,0.6-1
	S147,59.5,147.2,59.8L147.2,59.8z"/>
<path class="st0" d="M242.8,60.7c0,0.2-0.3,0.4-0.4,0.6c-0.3,0-0.6,0.2-0.9-0.1c-0.1-0.2-0.3-0.5,0-0.7
	C241.9,59.8,242.6,60.3,242.8,60.7L242.8,60.7z"/>
<path class="st0" d="M252.7,61.2c0,0.2,0,0.4-0.1,0.6c-0.1,0.2-0.3,0.3-0.4,0.4c-0.4,0.1-0.7-0.2-1-0.4s0-0.5,0-0.8
	c0.1-0.1,0.3-0.2,0.5-0.3s0.4,0,0.5,0C252.3,61,252.5,61.1,252.7,61.2L252.7,61.2z"/>
<path class="st0" d="M225.2,66.8c0,0.5-0.9,0.4-1.2,0.7c-1.3,0.5-2.8,0.8-4.2,0.6v-0.2c0.7-0.6,1.6-1,2.6-1.2
	C223.3,66.5,224.3,66.5,225.2,66.8z"/>
<path class="st0" d="M167.4,68.5c0,0.2,0,0.3-0.1,0.4c-0.1,0.1-0.2,0.2-0.4,0.2c-0.2,0-0.3,0-0.4-0.1c-0.1-0.1-0.2-0.2-0.3-0.3
	c-0.2-0.5,0.2-0.7,0.5-0.9c0.2,0,0.3,0.1,0.5,0.2C167.2,68.2,167.3,68.3,167.4,68.5z"/>
<path class="st0" d="M224.5,68.9c0,0.2,0,0.4-0.1,0.5c-0.1,0.2-0.2,0.3-0.4,0.4c-0.2,0.1-0.4,0.1-0.5,0c-0.2,0-0.3-0.2-0.4-0.3
	c-0.2-0.2-0.1-0.4-0.1-0.6c0.1-0.2,0.2-0.3,0.3-0.4c0.1-0.1,0.3-0.1,0.5-0.1s0.3,0.1,0.5,0.1C224.4,68.6,224.5,68.8,224.5,68.9z"/>
<path class="st0" d="M232.4,69.1c-1,0.8-2.2,1.3-3.4,1.4h-2.1l-0.2-0.2c1.3-1.6,3.7-1.6,5.8-1.4V69.1L232.4,69.1z"/>
<path class="st0" d="M156.5,70c0,0.2,0,0.3-0.1,0.5c-0.1,0.1-0.2,0.2-0.4,0.3c-0.2,0.1-0.3,0-0.5,0c-0.2-0.1-0.3-0.2-0.4-0.4
	c-0.1-0.2-0.1-0.3,0-0.5c0.1-0.2,0.2-0.3,0.3-0.4C155.9,69.2,156.3,69.7,156.5,70L156.5,70z"/>
<path class="st0" d="M158.5,70.4c0.1,0.2-0.1,0.3-0.2,0.5c-0.1,0.1-0.2,0.1-0.4,0.1s-0.3,0-0.4-0.1c-0.1,0-0.1-0.1-0.2-0.1
	c0,0-0.1-0.1-0.1-0.2c0-0.1,0-0.1,0-0.2c0-0.1,0-0.1,0.1-0.2c0.1-0.2,0.4-0.2,0.5-0.4C158.1,70,158.3,70.2,158.5,70.4z"/>
<path class="st0" d="M143.3,74.5c-0.4,0.5-1-0.1-1.5-0.4c-1.4-0.8-1.4-2.4-2.7-3.3c0.1-0.5,0.5,0,0.8,0c0.3,0.2,0.5,0.3,0.8,0.4
	C142,72,142.4,73.3,143.3,74.5L143.3,74.5z"/>
<path class="st0" d="M258.9,59c-0.3-0.5-0.7-1-1.3-1.3c-0.5-0.3-1.1-0.4-1.7-0.4c-0.5,0.1-0.9,0.2-1.3,0.5c-0.4,0.3-0.7,0.7-0.9,1.1
	c-0.1,0.4-0.1,0.8,0,1.2c0.1,0.4,0.4,0.7,0.7,1c0.1,0.1,0.3,0.1,0.4,0.1c0.1,0,0.3-0.1,0.4-0.3c0.2-0.5-0.4-0.5-0.4-0.9
	c-0.1-0.2-0.1-0.5,0-0.8c0.1-0.2,0.2-0.5,0.4-0.6c0.4-0.4,1.1-0.2,1.6-0.2c0.5,0.2,0.9,0.6,1.2,1.1c0.2,0.7,0.2,1.4,0,2.1
	c-0.2,0.5-0.6,0.9-1,1.3c-0.4,0.3-0.9,0.6-1.5,0.7c-3.3,0.5-39.4,0.3-39.4,0.3c-4.2,0.4-9.1-0.8-12.7,1.4c-1.7,0.8-2.5,2.6-2.9,4.3
	c-1.1,1-2.1,2-3.1,3.2l-0.1-0.1c0.2-1,0.6-1.8,0.8-2.8c0.6-0.8,0.6-1.9,1-2.8c1.5-2.4,2.9-4.9,5.3-6.6c1-1.3,2.7-1.1,4.2-1.1
	c1.7,0.8,3.6,1,5.5,0.8c0,0,0.1-0.1,0.1-0.1c0,0,0-0.1,0-0.2c-0.6-0.5-1.5-0.7-2.1-1.2c-1.6-0.8-3.1,0.2-4.8,0.1
	c-0.1-0.1-0.2-0.1-0.1-0.2c1.5-1.1,3.2-1.9,4.9-2.6c1.4-0.7,2.8-1.2,4.3-1.7c0.6,0,1.2-0.5,1.7-0.2l2.1-0.6c0.1,0,0.2,0.2,0.3,0.1
	c1.8-0.6,4,0,6.1-0.1l0.3,0.2l1.9,0.5c0.7,0.1,1,0.9,1.8,1c0.4-0.6-0.4-0.8-0.6-1.2c0.9-0.1,1.8,0,2.7,0.4l-0.4,0.4
	c-0.2,0.4,0.1,0.8,0.5,0.9s0.5-0.1,0.7-0.2c0.5-0.4,0-0.7,0.1-1c2.9,0.5,5.7,1.3,8.5,2.4c0.7,0.4,1.5,0.6,2.3,0.8
	c-0.9-0.7-1.9-1.2-3-1.6c-0.7-0.4-1.6-0.4-2.1-1c0.1-0.2,0.4-0.1,0.5-0.3c1.4-0.3,2.6-1.1,3.4-2.2c0.1-0.2,0.5-0.2,0.5-0.5
	c-0.3-0.4-1,0.1-1.4,0.1c-1.7,0.3-2.4,2.3-4,2.6c-2-0.5-4.1-1-6.1-1.5c-1-0.1-2-0.3-3-0.6l-2.2-0.2h-4c0-0.1-0.2-0.1-0.1-0.2
	c1.4-0.4,2.7-1.2,4.1-1.6l10.6-5c1.1-1,2.1-2.1,3-3.3c0-0.2,0-0.3-0.1-0.5s-0.2-0.2-0.3-0.3c-0.1-0.1-0.3-0.1-0.4-0.1
	c-0.1,0-0.3,0.1-0.4,0.2c-0.5,0.4,0,0.8,0,1.2c-0.5,0.7-1.1,1.2-1.8,1.6c-0.2,0-11,4.9-11,4.9c-1.6,0.7-3.2,1.3-4.8,1.8l-2.3,0.4
	c-0.1,0.2-0.2,0.4-0.4,0.6c-0.2,0.2-0.4,0.3-0.6,0.3c-0.6,0.2-1.2,0.4-1.8,0.5c-5.1,2-10.5,4.1-14.6,8.2c0.2-0.5,0.4-1.1,0.4-1.7
	c0-0.6-0.1-1.2-0.4-1.8c-0.1-0.2-0.4-0.9-0.3-1.1l-0.6,0.4c-0.5,1.1-0.6,2.3-0.3,3.4c0.1,0.7,0.7,1.6,0.2,2.2
	c-1.9,2.3-3,5.1-4.2,7.8c-0.5-0.1-0.7-0.5-0.9-1c1.4-1.7,2.4-3.7,2.8-5.8c0.3-0.2,0.1-0.7,0.4-1c-0.1-0.6,0.4-1.3,0-1.8
	c0.2-0.9-1.2-1.7-0.3-2.2l-0.7,0.4c-1.7,2.2,0.9,5.6-1.1,7.7v0.2c-0.4,0.7-0.9,1.4-1.6,1.9c-1-0.4-1.3-1.5-1.9-2.3
	c-0.4-0.5-0.6-1.2-0.7-1.8c-0.1-0.7,0.1-1.3,0.4-1.9c0.4-1.2-0.2-2.2-0.4-3.2l-0.4-0.2c-0.5,0.7-0.8,1.4-0.9,2.3
	c-0.1,0.8,0,1.7,0.4,2.4c0.4,0.7,0.4,1.7,1,2.3c0.4,1.1,1,2.1,1.7,3c0.2,0.4-0.2,0.5-0.4,0.7c-0.4-0.3-0.4-0.9-0.8-1.2
	c-1.3-2.7-3-5.1-5.1-7.3c-0.1-0.4-0.4-0.7-0.2-1.1c0.4-0.4,0.6-0.9,0.7-1.4c0.1-0.5,0-1.1-0.2-1.6c-0.1-0.2-0.3-0.4-0.3-0.6
	l-0.6-0.5c0.1,1.4-0.8,2.6-0.4,4.1v0.1c-4.1-3.1-8.5-5.8-13.2-8l-0.4,1c1.5,0.6,2.9,1.3,4.2,2.2c1.4,0.6,2.7,1.3,4,2.1
	c5.4,3,9,8,11.4,13.5c0,0.4,0.4,0.9,0.2,1.4c-0.9-1.1-1.9-2.1-3-3c-0.1-0.9-0.4-1.8-1-2.6c-0.5-0.8-1.2-1.4-2-1.8
	c-0.6-0.9-1.9-1-2.9-1.2l-14.4-0.1c-11.7-0.2-22.4,0.4-34.1,0.2c-1.6-0.2-3.6-0.7-4.1-2.4c-0.2-0.3-0.2-0.7-0.2-1.1
	c0-0.4,0.1-0.8,0.2-1.1c0.2-0.3,0.5-0.6,0.9-0.8c0.3-0.2,0.7-0.3,1.1-0.3c0.3,0.1,0.6,0.2,0.8,0.4c0.2,0.2,0.4,0.4,0.6,0.7
	c0,0.5-0.4,1-0.6,1.4c0,0.2,0.2,0.5,0.5,0.4c0.3-0.1,0.5-0.3,0.6-0.5c0.2-0.2,0.3-0.5,0.4-0.8c0-0.3,0.2-0.7-0.1-0.9
	c-0.1-0.4-0.4-0.8-0.7-1.1c-0.3-0.3-0.7-0.5-1.1-0.6c-0.5-0.1-1,0-1.5,0.2c-0.5,0.2-0.9,0.4-1.2,0.8c-0.9,0.8-0.9,2.2-0.6,3.4
	c0.4,0.9,1,1.6,1.7,2.2c0.8,0.6,1.6,0.9,2.6,1l38.6,0.2c3.8,0.2,8-0.4,11.8,0.3c0.7,0.2,1.4,0.6,2,1.1c0.6,0.5,1,1.2,1.2,1.9
	c0,0.1-0.2,0-0.3,0c-3.4-2-7.4-2.8-11.3-2.2c-1.5,0.1-3,0.4-4.4,0.9c-0.3,0.1-0.7,0-1-0.1c-0.3-0.1-0.6-0.3-0.9-0.5
	c-1.4-1.3-3.9-1.2-5.8-0.7c0,0.1,0,0.2,0,0.3c1.9-0.2,3.1,1.5,4.8,1.7c0.4,0.1,0.7-0.4,1.1,0c-1.8,1-3.6,1.8-5.5,2.5
	c-0.6-0.1-0.9-0.7-1.4-1c-0.8-0.8-2.2-0.5-3.2-0.6c-0.3,0.1-0.7-0.2-0.9,0c0.4,0.6,1,1.1,1.7,1.3c1,0.4,2.1,0,3.1,0.6
	c-0.3,0.2-0.5,0.4-0.8,0.6c-1.9,0.7-3.4,2.4-5.5,2.3c-1.1,0.1-2.1,0-3.2-0.3c-1-0.3-1.9-0.9-2.7-1.6c-0.3-0.8-0.9-1.4-1.6-1.8
	c-0.7-0.4-1.5-0.6-2.4-0.5c-0.1,0.1-0.3,0.1-0.2,0.3c0.9,0.5,1.5,1.6,2.4,2.2c0.6,0.7,1.6,0,2.1,0.8c0.8,0.5,1.7,0.9,2.6,1.1
	c0.7,0.3,1.4,0.4,2.1,0.6l-0.3,0.2c-3.6,1.2-7.8,1.3-11.8,1.2c-1.2,0-2.3-0.4-3.5-0.4c0.3,0.3,0.6,0.5,1,0.6
	c-0.3,0.2-0.7,0.3-1.1,0.3c-0.5,0.1-1,0.2-1.5,0.4c-0.6,0-1.2,0.1-1.7,0.4c-0.6,0.7-1.4,1.4-2.3,1.8c0,0.2,0,0.4,0.2,0.4
	c0.8-0.3,1.7-0.1,2.5-0.4c1.3-0.1,2.1-1.6,3.1-2.2c1.1-0.9,2.7-0.7,4.1-0.5c0.8,0.2-0.1,0.5,0.2,1c0.3,0.3,0.6,0.6,1,0.5
	c0.1-0.1,0.2-0.2,0.3-0.2c0.1-0.1,0.1-0.3,0.1-0.5c0-0.2-0.1-0.4-0.1-0.5c0.6-0.4,1.3,0,1.9-0.2c1.5,0,3-0.4,4.5-0.4
	c0.2,0,0.5-0.3,0.8,0c-0.1,0.3-0.5,0.4-0.4,0.8c0.2,0.4,0.5,0.5,0.8,0.6c0.4-0.2,0.8-0.4,0.6-1c-0.1-0.3-0.4-0.3-0.6-0.4
	c0.8-0.4,1.8-0.5,2.6-0.9c0.6-0.1,1.1-0.3,1.7-0.6c0.5,0,1-0.5,1.4-0.3c-0.2,0.7-0.5,1.3-0.8,1.9c-0.6,2.1-1.1,4.9,0,7
	c0.1,0,0.2,0,0.2-0.1c-0.8-2.1-0.4-4.6,0.3-6.6c0.6-3.4,4.1-4.4,6.6-5.7l0.1,0.2c-0.7,1.8-1.7,3.4-1.5,5.5c0.1,0.4-0.2,0.7,0,1
	c0.7-0.5,1.2-1.1,1.5-1.8c0.3-1.8-0.8-4,1.1-5.3c3.2-1.3,6.3-3,10.1-3c0.1,0.1,0.4-0.1,0.4,0.1c-0.8,0.9-1.9,1.7-2.3,2.8
	c-1.3,1.8-1.2,4.8-0.7,6.9c0.4,1.2-0.7,1.9-1.2,2.9c-0.2,0.3-0.3,0.9-0.6,1.3l0.8,0.1c0.8-0.7,1.2-1.6,1.4-2.6
	c0,0.2,0.1,0.4,0.3,0.5c0.1,0.1,0.3,0.2,0.5,0.3c0.3-0.4-0.2-0.8-0.3-1.2c0.6-0.4,0.9,0.4,1.4,0.6c0.8,0.3,1.6,0.5,2.4,0.6l0.3-0.3
	c-0.9-1.4-2.6-1.6-4.1-1.7c-0.7-1.4-0.9-3-0.7-4.5c0.1-0.9,0.4-1.7,0.8-2.5c0.3-0.6,0.7-1.1,1.1-1.5c0.7-0.7,1.6-1.1,2.5-1.4h0.1
	c0,0,0,0.1,0,0.1c-1.1,0.8-1.2,2-1.8,3c-0.4,0.5-0.6,1.1-0.7,1.7c-0.1,0.6,0,1.2,0.3,1.8c0.2,0.5,0.1,1.3,0.7,1.7
	c0.4-0.8,0.7-1.6,0.8-2.4c-0.1-1.3-0.9-2.6-0.2-3.8c0.2-0.4,0.5-0.8,0.9-1.1c0.4-0.3,0.8-0.5,1.3-0.6c2.2-0.2,4.1,0.9,6,1.8
	c0.4,0.3,1.1,0.5,1.2,1.1c0,0.5-0.2,1-0.4,1.5c-0.3,0.5-0.6,0.9-1.1,1.2c-0.5,0.3-1.2,0.5-1.8,0.5c-0.6,0-1.3-0.2-1.8-0.5
	c-0.3-0.3-0.5-0.7-0.6-1.1c-0.1-0.4-0.1-0.9,0-1.3c0.2-0.3,0.5-0.5,0.8-0.6c0.3-0.1,0.7-0.1,1,0c0.4,0.2,0.8,0.6,1.3,0.4
	c0.1-0.1,0.2-0.2,0.2-0.3c0-0.1,0-0.2,0-0.4c-0.4-0.2-0.6-0.8-1.2-0.9c-0.4-0.1-0.8-0.1-1.1,0c-0.4,0.1-0.7,0.2-1,0.5
	c-0.4,0.3-0.7,0.8-0.9,1.3c-0.2,0.5-0.2,1-0.1,1.5c0.1,0.6,0.4,1.2,0.9,1.6c0.4,0.5,1,0.8,1.6,0.9c0.9,0.2,1.8,0.2,2.7-0.1
	c0.9-0.3,1.6-0.9,2.2-1.6c0.4-0.5,0.7-1.1,0.9-1.7c1.9,1.3,3.3,3.1,4.1,5.3c0.1,0.7,0.1,1.3,0,2l1.4,0.1c-0.1-0.3,0-0.7,0.1-1
	c0.6-2.6,2.2-4.9,4.3-6.6c0.7-0.4,0.5,0.5,0.7,0.8c0.3,0.7,0.8,1.4,1.4,1.9c0.6,0.5,1.3,0.9,2.1,1.1c0.8,0.2,1.6,0.1,2.3-0.1
	c0.8-0.2,1.4-0.7,1.9-1.3c0.5-1,1.1-2.4,0.3-3.4c-0.3-0.3-0.6-0.6-1-0.8c-0.4-0.2-0.8-0.3-1.2-0.2c-0.5,0-0.9,0.2-1.3,0.5
	c-0.4,0.3-0.7,0.6-0.9,1c0,0.3,0,0.7,0.2,0.8c0.2,0,0.5,0,0.6-0.2c0.1-0.6,0.6-0.9,1.1-1.2c0.2-0.1,0.4-0.1,0.7-0.1
	c0.2,0,0.4,0.1,0.6,0.3c0.2,0.2,0.3,0.5,0.4,0.7s0.1,0.6,0.1,0.8c0,0.4-0.2,0.8-0.4,1.1c-0.2,0.3-0.5,0.6-0.9,0.8
	c-0.6,0.3-1.3,0.4-2,0.3c-0.7-0.1-1.3-0.3-1.9-0.7c-0.4-0.5-0.8-1.1-1.1-1.8c-0.2-0.6-0.2-1.2,0-1.8c1.7-1.1,3.7-1.8,5.7-2
	c0.8,0.2,1.6,0.7,2.1,1.3c1.8,1.9-0.4,4.6,0.9,6.6c0.5-0.1,0.5-0.7,0.7-1.1c0.6-1.4-0.2-3-0.5-4.4c-0.4-0.9-0.9-1.7-1.5-2.4
	c0.2-0.1,0.3-0.1,0.5-0.1c0.9,0.6,1.8,1.3,2.4,2.1c1.2,2,1.7,4.3,1.6,6.6c-0.3,1.2-1.6,1.8-2.6,2.2c-0.5,0.3-0.8,0.8-1.1,1.2
	c0.5,0.3,1.2,0,1.6-0.2c0.8-0.3,1.2-1.2,1.7-1.7c0.1,0,0,0.2,0.1,0.2c0,0.4-0.2,1,0.2,1.2c0.2-0.7,0.3-1.3,0.4-2
	c0.4,0.6,0.7,1.3,0.8,2c0.4,0.7,0.9,1.7,1.9,1.8c0.2-0.4,0-0.7-0.1-1c-0.1-1-1-1.5-1.5-2.2c-1.4-1.9-0.8-4.9-1.8-7.1
	c-0.5-1.1-1.2-2.2-2.1-3l0.2-0.2c1.8,0.1,3.6,0.5,5.4,1c2.2,1.1,5.4,0.8,6.4,3.7c0.4,1.6,1.2,3.1,2.3,4.3l0.1-0.1
	c0.1-0.2,0.2-0.5,0.2-0.7s-0.1-0.5-0.2-0.7c-0.2-2-2-2.5-2.9-4.2l0.1-0.2c1,0.3,2,0.6,2.9,0.9c1.6,0.5,2.9,1.5,4,2.8
	c1,1.3,1.7,2.8,1.8,4.5c0,2.4-0.5,4.7-1.5,6.8c-0.1,0.3-0.7,0.7-0.3,1c0.4-0.3,0.5-0.8,0.8-1.2c1.4-2.4,1.9-5.3,1.3-8
	c0-0.5-0.6-0.9-0.4-1.4c0.2,0.2,0.4,0.3,0.7,0.4c0.2-0.2,0.6-0.2,0.8-0.4c0.2-0.3,0.2-0.5,0-0.7c-0.1-0.1-0.3-0.3-0.5-0.3
	c-0.2,0-0.4,0-0.6,0c-0.2,0.2-0.4,0.5-0.5,0.9c-0.4-0.8-0.8-1.5-1.4-2.1l0.1-0.1c1.8,0.6,3.4,1.5,5.2,2c0.4,0.3,0.9,0.4,1.4,0.4
	c1.6,0.5,3.3,0.9,4.9,1.1c1.2-0.1,2.2,0.4,3.4,0.2v-0.1c-0.4-0.6-1.4,0-1.9-0.4c-2.7-0.3-5.3-1-7.8-1.9c0-0.1,0.2-0.1,0.3-0.1
	c0.2-0.1,0.4-0.2,0.5-0.4c0.1-0.2,0.2-0.4,0.2-0.6c-0.1-0.1-0.2-0.3-0.4-0.3c-0.2-0.1-0.3-0.1-0.5-0.1c-0.1,0.1-0.3,0.2-0.4,0.3
	c-0.1,0.1-0.2,0.3-0.2,0.4c0,0.2,0.1,0.3,0.2,0.5c0.1,0.1,0.2,0.2,0.4,0.3c-0.1,0.1-0.2,0-0.4,0c-1.2-0.6-2.4-1.1-3.6-1.6
	c-0.4-0.1-0.8-0.4-1.2-0.5c-0.9-0.4-1.8-0.9-2.7-1.2c-2.6-1.2-5.3-2.2-8.1-3l-1.7-0.5c-1-0.3-2-0.5-3-0.8c-3.4-0.8-7.9-0.9-10.8,0.9
	c-0.5-0.2-0.8,0.6-1,0.1c0.8-2.2,3.3-2.9,5.4-3c15.9-0.2,30.8-0.3,46.5-0.5c0.9,0.1,1.8-0.1,2.6-0.5c0.8-0.4,1.5-1,2-1.8
	c0.3-0.5,0.5-1.2,0.6-1.8c0-0.6-0.1-1.3-0.3-1.9L258.9,59z M195.8,73.7c-0.2,0.4-0.4,0.9-0.4,1.4l-0.2,0.1c0.1-0.6-0.5-1-0.3-1.6
	c-0.3-0.5-0.3-1.1-0.6-1.6c-0.3-0.5,0.3-0.9,0.6-1.4c0.6,0.2,0.8,0.8,1.1,1.2C196.3,72.6,195.8,73.1,195.8,73.7z"/>
<path class="st0" d="M238.9,71.2c0,0.1,0.2,0.2,0.2,0.4c-1.5,1.2-3.4,1.7-5.3,1.7c-0.2,0-0.3,0.2-0.5,0.1s-0.2-0.2-0.1-0.3
	c0.7-0.8,1.6-1.4,2.6-1.7C236.7,71,237.8,71,238.9,71.2z"/>
<path class="st0" d="M232.5,71.8c0.2,0.6-0.2,0.9-0.6,1.1c-0.2,0-0.4-0.1-0.5-0.2c-0.2-0.1-0.3-0.3-0.4-0.4
	c-0.1-0.3,0.2-0.5,0.3-0.7c0.1-0.1,0.2-0.2,0.3-0.2c0.1,0,0.2,0,0.4,0c0.1,0,0.2,0.1,0.3,0.2C232.4,71.6,232.4,71.7,232.5,71.8z"/>
<path class="st0" d="M157.1,71.9c0,0.1,0.1,0.3,0,0.4c0,0.1-0.1,0.3-0.2,0.4c-0.1,0.1-0.2,0.2-0.3,0.2c-0.1,0-0.3,0-0.4,0
	c-0.3,0-0.4-0.4-0.5-0.6c0-0.2,0.1-0.3,0.1-0.5c0.1-0.1,0.2-0.2,0.4-0.3C156.5,71.6,156.8,71.6,157.1,71.9z"/>
<path class="st0" d="M150,74.5v0.3c-0.4,0.1-0.9,0.1-1.4,0c-0.4-0.1-0.9-0.3-1.2-0.6c-0.5-0.9-1.2-1.5-2.1-2c0-0.1-0.2-0.3,0-0.4
	C147.3,71.8,148.5,73.4,150,74.5z"/>
<path class="st0" d="M244.9,71.9c-0.9,1.4-1.7,3-3.3,3.6c-0.3,0-0.5,0.4-0.8,0.1c0.7-1.7,1.9-3,3.5-3.8
	C244.5,71.8,244.7,71.8,244.9,71.9L244.9,71.9z"/>
<path class="st0" d="M159.4,72.4c0,0.4-0.3,0.5-0.5,0.8c-0.3,0-0.5-0.2-0.7-0.4c-0.2-0.4,0.2-0.6,0.4-0.8c0.2,0,0.3,0,0.5,0.1
	C159.2,72.1,159.3,72.2,159.4,72.4z"/>
<path class="st0" d="M249.9,72.6c-0.4,0.5-0.2,1.3-0.6,1.8c-0.8,0.9-1.5,2-2.7,2.1c-0.2-0.4,0.3-0.8,0.5-1.2
	c0.5-1.3,1.4-2.4,2.6-3.1L249.9,72.6z"/>
<path class="st0" d="M137.7,73c0.1,0.1,0.1,0.3,0.1,0.4c0,0.2,0,0.3-0.1,0.4c-0.1,0.1-0.3,0.2-0.4,0.2c-0.2,0-0.3,0-0.5,0
	c-0.2-0.1-0.3-0.3-0.4-0.4c-0.1-0.2,0-0.4,0-0.6C136.7,72.7,137.4,72.5,137.7,73L137.7,73z"/>
<path class="st0" d="M135.4,73.4c0,0.2,0.2,0.4,0.1,0.6c-0.1,0.1-0.1,0.2-0.2,0.3c-0.1,0.1-0.2,0.1-0.3,0.2c-0.2,0-0.4,0-0.5-0.1
	c-0.2-0.1-0.3-0.2-0.4-0.4c0-0.2,0-0.3,0.1-0.5c0.1-0.2,0.2-0.3,0.3-0.4c0.2-0.1,0.4-0.1,0.6,0C135.2,73.2,135.4,73.3,135.4,73.4
	L135.4,73.4z"/>
<path class="st0" d="M140.1,73.7c0.1,0.3,0.1,0.9-0.3,1c-0.6,0.2-0.9-0.2-1.2-0.5c0-0.2,0-0.3,0.1-0.5c0.1-0.1,0.2-0.3,0.4-0.3
	c0.2,0,0.4,0,0.5,0C139.8,73.5,139.9,73.6,140.1,73.7L140.1,73.7z"/>
<path class="st0" d="M146.6,74.2c0,0.3,0,0.7-0.3,0.8c-0.3,0.1-0.6,0.1-0.8,0.1c-0.1-0.2-0.5-0.4-0.3-0.7c0.2-0.2,0.3-0.3,0.6-0.4
	C146.1,74,146.4,73.9,146.6,74.2z"/>
<path class="st0" d="M253.7,74.5c-0.1,0.3-0.3,0.6-0.6,0.6c-0.2,0-0.4,0-0.5-0.1c-0.2-0.1-0.3-0.2-0.4-0.3c-0.2-0.4,0.2-0.7,0.5-0.8
	C253,73.8,253.6,74,253.7,74.5L253.7,74.5z"/>
<path class="st0" d="M246.4,74.7c0,0.3-0.3,0.6-0.5,0.7c-0.2,0.1-0.5,0.1-0.7-0.1c-0.2-0.1-0.4-0.3-0.5-0.5c0-0.2,0.1-0.3,0.2-0.5
	c0.1-0.1,0.3-0.2,0.4-0.3c0.2,0,0.4,0,0.6,0.2C246.2,74.3,246.3,74.5,246.4,74.7L246.4,74.7z"/>
<path class="st0" d="M251.4,74.6c0,0.1,0,0.3-0.1,0.4c-0.1,0.1-0.2,0.2-0.3,0.3c-0.2,0.1-0.3,0.1-0.5,0.1c-0.2,0-0.3-0.1-0.5-0.2
	c-0.4-0.3-0.1-0.6,0.2-0.8C250.4,74,251.2,74.1,251.4,74.6z"/>
<path class="st0" d="M136.6,75.3c0.1,0.2,0,0.4-0.1,0.6c-0.1,0.2-0.2,0.3-0.4,0.4c-0.2,0-0.4,0-0.5-0.1c-0.2-0.1-0.3-0.2-0.3-0.4
	c0-0.2,0-0.3,0.1-0.5c0.1-0.2,0.2-0.3,0.3-0.3c0.2,0,0.4,0,0.6,0C136.4,75,136.6,75.1,136.6,75.3L136.6,75.3z"/>
<path class="st0" d="M244.5,75.7c0,0.2,0,0.4-0.1,0.6c-0.1,0.2-0.3,0.3-0.5,0.4c-0.1,0-0.3,0-0.4,0c-0.1,0-0.2-0.1-0.3-0.2
	c-0.2-0.2-0.4-0.6,0-0.8c0.1-0.1,0.2-0.2,0.3-0.3c0.1-0.1,0.3-0.1,0.4-0.1c0.1,0,0.3,0.1,0.4,0.1C244.3,75.4,244.4,75.5,244.5,75.7
	L244.5,75.7z"/>
<path class="st0" d="M158,76.2c0.2,0.4-0.3,0.5-0.4,0.8c-0.2,0.1-0.5,0.1-0.6,0c-0.1-0.1-0.4-0.5-0.3-0.8c0.2-0.2,0.3-0.3,0.5-0.4
	C157.6,75.6,157.8,75.9,158,76.2L158,76.2z"/>
<path class="st0" d="M253,76.4c0.1,0.3-0.1,0.4-0.2,0.6c-0.1,0.1-0.3,0.2-0.4,0.2c-0.2,0-0.3,0-0.5,0c-0.4-0.2-0.4-0.5-0.4-0.9
	c0.2-0.2,0.3-0.4,0.6-0.4c0.2,0,0.4,0,0.5,0.1C252.8,76.1,252.9,76.3,253,76.4z"/>
<path class="st0" d="M250.5,76.6c0.1,0.5-0.3,0.7-0.6,0.8c-0.2,0-0.4-0.1-0.4,0.2c0.9,0.6,1.8,1.3,2.5,2.1V80
	c-0.7,0-1.5-0.1-2.2-0.3c-0.7-0.3-1.3-0.7-1.8-1.2c-0.3-0.2-0.8-0.2-1.1-0.5c0.5-0.5,1.5-0.3,2.2-0.4c0.5-0.6-0.6-1,0.1-1.4
	c0.2,0,0.4-0.3,0.7-0.2C250.2,76.1,250.4,76.3,250.5,76.6L250.5,76.6z"/>
<path class="st0" d="M234.3,76.6c0.1,0.2-0.2,0.4-0.2,0.6c-0.1,0.1-0.3,0.2-0.4,0.2c-0.2,0-0.3,0-0.5-0.1c-0.2-0.3-0.5-0.5-0.4-0.9
	c0.1-0.1,0.2-0.2,0.3-0.3c0.1-0.1,0.3-0.1,0.4-0.1c0.2,0,0.3,0.1,0.4,0.2C234.1,76.3,234.2,76.4,234.3,76.6z"/>
<path class="st0" d="M145.6,78c-0.1,0.4-0.3,0.6-0.7,0.6c-0.2,0-0.3,0-0.4-0.1c-0.1-0.1-0.2-0.2-0.3-0.3c0-0.3,0.2-0.4,0.2-0.6
	C144.9,77.2,145.6,77.4,145.6,78z"/>
<path class="st0" d="M148.8,77.5c0,0.6-0.6,0.9-0.8,1.4c-0.2,0.7-0.7,1.3-1.2,1.8c-0.6,0.5-1.2,0.8-1.9,0.9
	c-0.2-0.4,0.5-0.8,0.7-1.2c0.6-1.4,1.9-2.1,3.1-2.9H148.8z"/>
<path class="st0" d="M233.4,78c0,0.4-0.4,0.8-0.7,0.9c-0.3,0.2-0.6-0.2-0.8-0.3c-0.3-0.3-0.1-0.6,0-1C232.3,77.1,233,77.5,233.4,78
	L233.4,78z"/>
<path class="st0" d="M235.8,78.3c0,0.2-0.1,0.4-0.2,0.6c-0.1,0.2-0.3,0.3-0.5,0.3c-0.1-0.1-0.3,0-0.4-0.1c-0.1-0.1-0.3-0.2-0.4-0.3
	c-0.1-0.1-0.1-0.3-0.2-0.4c0.2-0.2,0.3-0.5,0.6-0.6S235.7,77.8,235.8,78.3z"/>
<path class="st0" d="M155,78.3c0,0.2-0.1,0.4-0.2,0.5s-0.3,0.3-0.4,0.3c-0.2,0-0.3,0-0.5-0.1s-0.2-0.2-0.3-0.4
	c-0.1-0.4,0.3-0.6,0.5-0.8C154.6,77.7,154.7,78,155,78.3z"/>
<path class="st0" d="M157.7,78.4c-0.1,0.2-0.2,0.3-0.3,0.4c-0.1,0.1-0.3,0.2-0.5,0.2c-0.3-0.1-0.6-0.2-0.7-0.5
	c-0.1-0.3,0.3-0.6,0.6-0.8c0.2,0,0.4,0,0.6,0.1C157.5,78.1,157.7,78.2,157.7,78.4z"/>
<path class="st0" d="M244.3,81.2c0.2,0.2,0.6,0.4,0.5,0.6c-0.6,0.3-1.1-0.4-1.7-0.6c-0.9-0.9-1.6-2-2.1-3.2c0.4-0.4,0.8,0.1,1.1,0.2
	C243.1,79.1,243.8,80.1,244.3,81.2z"/>
<path class="st0" d="M245.8,78.4c0.1,0.1,0.1,0.3,0.1,0.4c0,0.2-0.1,0.3-0.1,0.4c-0.2,0.4-0.8,0.3-1.1,0.2c-0.2-0.2-0.6-0.6-0.3-0.9
	c0.2-0.4,0.5-0.4,0.8-0.5S245.5,78.3,245.8,78.4z"/>
<path class="st0" d="M161.4,79.5c0,0.3,0.1,0.8-0.3,1c-0.1,0-0.2,0.1-0.3,0c-0.1,0-0.2,0-0.3-0.1s-0.2-0.1-0.2-0.2
	c-0.1-0.1-0.1-0.2-0.2-0.3c-0.2-0.5,0.2-0.6,0.5-0.8C160.9,79.1,161.1,79.3,161.4,79.5L161.4,79.5z"/>
<path class="st0" d="M235.7,82.1c0.6,0.8,0.9,1.8,1,2.8c-0.1,0.3,0.2,0.6,0,0.8h-0.2c-1.8-1.3-2.2-3.1-2.9-4.9
	c-0.1,0-0.1-0.1-0.2-0.2c0-0.1,0-0.2,0-0.2c0.4-0.4,0.7,0.4,1.1,0.5L235.7,82.1L235.7,82.1z"/>
<path class="st0" d="M166.5,80.7L166.5,80.7c-1.6,1.2-3.8,1.9-5.6,0.8c0-0.1,0-0.2,0-0.2c0-0.1,0.1-0.1,0.2-0.1
	c1.1-0.5,2.3-0.8,3.5-0.8L166.5,80.7L166.5,80.7z"/>
<path class="st0" d="M157.5,80.9c-1.4,0.8-2.6,2.5-4.2,2.9c-0.3,0.1-0.5,0.6-0.9,0.3c0.7-2.2,3.1-3.3,5.2-3.5V80.9z"/>
<path class="st0" d="M233.4,82.7c0.1,0.3,0,0.8-0.3,0.8c-0.1,0.1-0.2,0.2-0.4,0.2s-0.3-0.1-0.4-0.2c-0.4-0.2-0.4-0.5-0.4-0.8
	s0.4-0.3,0.6-0.4C232.9,82.4,233.1,82.4,233.4,82.7z"/>
<path class="st0" d="M230.1,82.9c-0.2,0.3-0.4,0.5-0.6,0.6s-0.5,0.3-0.8,0.4c-1.4,0.5-2.6-0.2-3.8-0.5c0-0.3,0.4-0.2,0.6-0.4
	c1.3-0.4,2.7-0.4,4-0.2c0.1-0.1,0.2-0.1,0.3-0.1C229.9,82.7,229.9,82.8,230.1,82.9L230.1,82.9z"/>
<path class="st0" d="M157.5,84.1c-0.1,0.2-0.2,0.5-0.5,0.6c-0.1,0-0.3,0.1-0.4,0c-0.1,0-0.3-0.1-0.4-0.2c-0.1-0.2-0.4-0.4-0.2-0.7
	c0.2-0.3,0.4-0.3,0.6-0.4c0.2,0,0.4,0.1,0.5,0.2C157.3,83.7,157.4,83.9,157.5,84.1z"/>
<path class="st0" d="M159.8,84.4c-0.1,0.3-0.3,0.6-0.6,0.8c-0.1,0-0.3,0-0.4,0c-0.1,0-0.3-0.1-0.4-0.2c-0.1-0.1-0.1-0.2-0.2-0.4
	c0-0.1,0-0.3,0-0.4c0.1-0.2,0.4-0.2,0.6-0.4C159.3,83.7,159.6,84.1,159.8,84.4z"/>
<path class="st0" d="M232.6,84.8c0,0.3-0.1,0.6-0.3,0.8c-0.1,0.1-0.2,0.2-0.4,0.2c-0.2,0-0.3,0-0.5-0.1c-0.3,0-0.4-0.4-0.5-0.6
	s0.2-0.5,0.3-0.8c0.1-0.1,0.2-0.1,0.4-0.2c0.1,0,0.3,0,0.4,0c0.1,0,0.3,0.1,0.4,0.2C232.5,84.6,232.6,84.7,232.6,84.8z"/>
<path class="st0" d="M234.3,84.7c0,0.2,0.2,0.4,0.1,0.6c-0.2,0.2-0.4,0.7-0.9,0.5c-0.2,0.1-0.4-0.2-0.5-0.3
	c-0.1-0.1-0.1-0.2-0.1-0.3c0-0.1,0-0.2,0.1-0.3c0-0.1,0.1-0.2,0.2-0.3s0.2-0.1,0.3-0.2C233.9,84.3,234.1,84.6,234.3,84.7z"/>
<path class="st0" d="M158.4,85.9c0,0.2,0,0.4,0,0.6c-0.1,0.2-0.2,0.4-0.4,0.5c-0.4,0.1-1,0.1-1.1-0.4c0-0.2,0-0.4,0.1-0.7
	c0.1-0.2,0.2-0.4,0.4-0.5c0.2,0,0.4,0,0.6,0.1C158.1,85.6,158.3,85.7,158.4,85.9L158.4,85.9z"/>
<path class="st0" d="M160.6,85.7c-0.1,1.1-0.3,2.5-1.4,3.1c-0.6,0.1-1.3,0.7-1.9,0.3V89C158.1,87.8,159.6,86.9,160.6,85.7
	L160.6,85.7z"/>
<path class="st0" d="M226.4,86.7c0.2,0.2-0.1,0.4-0.2,0.6c-0.1,0.2-0.7,0.2-1,0c-0.3-0.2-0.3-0.5-0.2-0.8c0.1-0.1,0.1-0.2,0.2-0.3
	c0.1-0.1,0.2-0.1,0.3-0.2C225.9,86.1,226.2,86.3,226.4,86.7L226.4,86.7z"/>
<path class="st0" d="M164.6,88.5c0.6,0.9,0.2,2.2,0.6,3.2c-0.7,0.1-0.9-0.7-1.4-1.1c-0.9-1.2-0.8-2.8-1.1-4.2c0,0,0.1-0.1,0.1-0.1
	c0.1,0,0.1,0,0.2,0c0.6,0.5,1.1,1.1,1.5,1.7C164.3,88.3,164.6,88.3,164.6,88.5L164.6,88.5z"/>
<path class="st0" d="M228.4,87c0,0.3-0.4,0.4-0.6,0.6c-0.3,0-0.5-0.2-0.8-0.4c-0.1-0.4,0.2-0.5,0.4-0.7c0.1,0,0.2-0.1,0.3-0.1
	c0.1,0,0.2,0,0.3,0.1c0.1,0,0.2,0.1,0.2,0.2C228.3,86.8,228.3,86.9,228.4,87z"/>
<path class="st0" d="M233.1,90.5c0,0.1,0,0.3-0.2,0.3h-0.2c-1.1-1-2.3-2.2-2.1-3.8h0.2C231.8,87.9,233,88.9,233.1,90.5L233.1,90.5z"
	/>
<path class="st0" d="M230.1,89.3c0,0.1,0,0.3-0.1,0.4c-0.1,0.1-0.2,0.2-0.3,0.3c-0.4,0.1-1.1,0.1-1.2-0.5c0-0.4,0.4-0.6,0.6-0.8
	c0.2,0,0.4,0,0.6,0.1C229.9,88.9,230,89.1,230.1,89.3z"/>
<path class="st0" d="M227.5,90.1c-0.6,1.5-2.1,2.2-3.1,3.3c-0.2-0.1-0.1-0.4-0.1-0.6c0.2-0.8,0.6-1.5,1.1-2.1
	c0.5-0.6,1.2-1.1,1.9-1.5C228,89.3,227.4,89.8,227.5,90.1z"/>
<path class="st0" d="M230.4,91.3c0,0.4-0.3,0.5-0.6,0.7c-0.2,0-0.3,0-0.5-0.1c-0.2-0.1-0.3-0.2-0.4-0.3c0-0.4,0.3-0.5,0.5-0.7
	c0.2,0,0.4,0,0.5,0.1C230.2,91,230.4,91.1,230.4,91.3z"/>
<path class="st0" d="M200.9,18.8c0.3,0,0.5,0.1,0.7,0.3c0.2,0.2,0.3,0.4,0.3,0.7s-0.1,0.5-0.3,0.7c-0.2,0.2-0.4,0.3-0.7,0.3h-11.8
	c-0.3,0-0.5-0.1-0.7-0.3c-0.2-0.2-0.3-0.4-0.3-0.7s0.1-0.5,0.3-0.7c0.2-0.2,0.4-0.3,0.7-0.3H200.9z M192.6,20.5
	c1.2,0,0.1-1.4-0.5-1.4h-1.2c-1.1,0-0.1,1.4,0.6,1.4H192.6z M197.4,20.5c1.1,0,0.1-1.4-0.6-1.4h-1.1c-1.2,0-0.1,1.4,0.5,1.4H197.4z
	 M201,19.1h-0.4c-1.2,0-0.2,1.4,0.4,1.4C201.8,20.5,201.8,19.1,201,19.1L201,19.1z"/>
<path class="st0" d="M199.9,32.3l2.2,0.9l2.2-0.9l-0.9,3.3l1.8-0.4l-0.6,2l0.6,1.9l-1.6-0.4l0.7,3.6l-2.2-0.9l-2.2,0.9l0.9-3.6
	l-1.8,0.5l0.5-2l-0.5-1.9l1.7,0.3L199.9,32.3L199.9,32.3z M203.2,38.3c0.5,0,0.6-0.7,0.6-1.3c0-1.4-1.1,0-1.6-1.3
	c-0.4,1.1-1.5,0.1-1.5,1.2c0,0.8,0,1.3,0.8,1.3H203.2z M201,37c0,0.5,0.7,0.2,1.2,0.2s1.2,0.4,1.2-0.2c0-0.7-0.7-0.5-1.2-0.5
	S201,36.3,201,37z"/>
<path class="st0" d="M194.6,37.1v-0.4l-0.4-0.1l0.3-0.3l-0.2-0.3l0.4,0l0.2-0.4l0.2,0.4l0.4,0l-0.2,0.3l0.3,0.3l-0.4,0.1v0.4
	l-0.4-0.3L194.6,37.1z"/>
<path class="st0" d="M192.9,39.4V39l-0.4-0.1l0.3-0.3l-0.2-0.3l0.4,0l0.2-0.4l0.2,0.4l0.4,0l-0.2,0.3l0.3,0.3l-0.4,0.1v0.4l-0.4-0.3
	L192.9,39.4z"/>
<path class="st0" d="M195.9,39.1v-0.4l-0.4-0.1l0.3-0.3l-0.2-0.3l0.4,0l0.2-0.4l0.2,0.4l0.4,0l-0.2,0.3l0.3,0.3l-0.4,0.1v0.4
	l-0.4-0.3L195.9,39.1z"/>
<path class="st0" d="M196.2,40.8v-0.2l-0.2,0l0.2-0.2l-0.1-0.2l0.2,0l0.1-0.2l0.1,0.2l0.2,0l-0.1,0.2l0.2,0.2l-0.2,0v0.2l-0.2-0.2
	L196.2,40.8z"/>
<path class="st0" d="M193.5,42.7V42l-0.6-0.1l0.5-0.5l-0.3-0.6l0.7,0.1l0.4-0.7l0.4,0.7l0.7-0.1l-0.3,0.6l0.5,0.5l-0.6,0.1v0.7
	l-0.6-0.5L193.5,42.7z"/>
<path class="st0" d="M194.9,5l1.4,3.4l3.5-1l-1.8,3.2l3,2.1l-3.6,0.6l0.2,3.7l-2.7-2.5l-2.7,2.5l0.2-3.7l-3.6-0.6l3-2.1l-1.8-3.2
	l3.5,1L194.9,5z"/>
<path class="st0" d="M182.1,82c-0.4,0.2-0.6,0.3-0.5,0.7l0.5,2.1c0.1,0.5,0.1,1-0.1,1.4c-0.4,0.4-0.9,0.7-1.4,0.9
	c-0.6,0.2-1.1,0.2-1.7,0c-0.2-0.1-0.4-0.2-0.6-0.4c-0.1-0.2-0.2-0.4-0.3-0.6l-0.5-2.2c-0.1-0.6-0.3-0.5-0.8-0.5v-0.2l2.7-0.6v0.2
	c-0.5,0.1-0.8,0.2-0.6,0.8l0.5,2.2c0.1,0.4,0.3,1.3,1.4,1c0.2,0,0.4-0.1,0.6-0.2c0.2-0.1,0.3-0.3,0.4-0.4c0.1-0.2,0.2-0.4,0.2-0.6
	c0-0.2,0-0.4-0.1-0.6l-0.5-2c-0.1-0.4-0.2-0.6-0.9-0.5v-0.2l1.7-0.4V82L182.1,82z"/>
<path class="st0" d="M186,82.5c-0.2-0.3-0.4-0.6-0.8-0.7s-0.7-0.2-1.1-0.1c-0.4,0.1-0.8,0.4-0.7,0.8s0.3,0.5,1,0.6l1.3,0.2
	c0.3,0,0.5,0.2,0.7,0.3s0.3,0.4,0.4,0.7c0.1,0.6-0.2,1.5-1.6,1.8c-0.5,0.1-0.9,0.1-1.4,0.1c-0.2,0-0.2,0.2-0.2,0.3h-0.2l-0.4-1.6
	h0.2c0.1,0.4,0.4,0.7,0.8,0.9c0.4,0.2,0.8,0.3,1.2,0.2c1-0.2,0.8-0.9,0.8-1c-0.1-0.4-0.5-0.5-1.1-0.6l-0.6-0.1
	c-1.5-0.2-1.6-0.8-1.7-1.1c-0.1-0.3,0-1.4,1.4-1.7c0.4-0.1,0.9-0.1,1.3-0.1c0.2,0,0.2-0.1,0.2-0.3h0.2l0.3,1.4L186,82.5L186,82.5z"
	/>
<path class="st0" d="M191.2,85.1l-2.9,0.3v-0.2c0.6-0.1,0.8-0.1,0.7-0.7l-0.4-3.5c-0.6,0.1-1.4,0.2-1.4,1.3h-0.2l-0.1-1.4l4.8-0.5
	l0.1,1.3h-0.2c-0.3-1.1-1.1-1-1.7-1l0.3,3.6c0.1,0.6,0.2,0.6,0.9,0.5L191.2,85.1L191.2,85.1z"/>
<path class="st0" d="M198,85.1h-1.7l-1.6-2.2h-0.2v1.3c0,0.5,0.2,0.6,0.7,0.6v0.2l-2.8-0.1v-0.2c0.6,0,0.7-0.1,0.7-0.6l0.1-3
	c0-0.6-0.2-0.6-0.7-0.6v-0.2h2.6c0.6,0,2.3,0.1,2.3,1.2c0,0.8-0.9,1-1.3,1.1l1.6,2c0,0,0.1,0.1,0.1,0.1c0.1,0,0.1,0,0.2,0L198,85.1
	L198,85.1z M194.5,82.7c1.1,0,1.5-0.1,1.5-1c0-0.1,0-0.3,0-0.4c0-0.1-0.1-0.3-0.2-0.4s-0.2-0.2-0.4-0.2c-0.1,0-0.3,0-0.4,0
	c-0.4,0-0.5,0.1-0.5,0.3V82.7L194.5,82.7z"/>
<path class="st0" d="M203.3,85.8l-2.6-0.3v-0.2c0.5,0,0.6,0,0.7-0.2c0-0.3-0.1-0.7-0.3-1l-1.8-0.2c-0.2,0.3-0.3,0.5-0.5,0.8
	c0,0.3,0.3,0.3,0.6,0.4v0.2l-1.6-0.2v-0.2c0.4,0,0.6-0.2,0.9-0.7l2.3-3.4h0.2l1.4,3.8c0.3,0.8,0.4,1,0.8,1L203.3,85.8L203.3,85.8z
	 M201,83.9l-0.6-1.7l-1,1.5L201,83.9L201,83.9z"/>
<path class="st0" d="M208,86.7l-4.6-0.8v-0.2c0.5,0,0.7,0.1,0.8-0.4l0.6-3.2c0.1-0.4-0.2-0.5-0.6-0.6v-0.2l2.8,0.5v0.2
	c-0.6-0.1-0.8-0.1-0.9,0.5l-0.6,3.2c-0.1,0.3,0.1,0.4,0.6,0.5c0.4,0.1,0.9,0.1,1.3-0.1c0.4-0.2,0.7-0.5,1-0.9l0.2,0.1L208,86.7
	L208,86.7z"/>
<path class="st0" d="M211,87.4l-2.8-0.6v-0.2c0.4,0,0.8,0.1,0.8-0.3l0.7-3.2c0.1-0.4-0.3-0.5-0.6-0.6v-0.2l2.8,0.6v0.2
	c-0.4-0.1-0.8-0.1-0.9,0.3l-0.7,3.2c-0.1,0.4,0.2,0.5,0.6,0.6V87.4z"/>
<path class="st0" d="M216.7,88.2l-2.6-0.3v-0.2c0.5,0,0.7,0,0.7-0.2c0-0.3-0.1-0.6-0.3-0.9l-1.8-0.2c-0.2,0.3-0.3,0.5-0.4,0.8
	c0,0.3,0.4,0.3,0.6,0.4v0.2l-1.6-0.2v-0.2c0.4,0,0.6-0.2,0.9-0.7l2.2-3.5h0.2l1.4,3.8c0.3,0.8,0.4,1,0.8,1L216.7,88.2L216.7,88.2z
	 M214.4,86.3l-0.6-1.7l-0.9,1.6L214.4,86.3z"/>
<path class="st0" d="M196,33.4c0-1.6-0.9-0.1-1.4-1.5c-0.4,1.2-1.5,0.2-1.5,1.4c0,0.2,0,0.3,0.1,0.5c0.1,0.2,0.2,0.3,0.3,0.4v0.5
	c0,0,0,0.1,0,0.1c0,0,0,0.1,0,0.1c0,0,0,0,0.1,0.1c0,0,0.1,0,0.1,0h1.7c0.1,0,0.1,0,0.2-0.1c0,0,0.1-0.1,0.1-0.2v-0.5
	c0.1-0.1,0.2-0.2,0.3-0.4C196,33.7,196,33.5,196,33.4z M194.6,33.7c-0.5,0-1.1,0.3-1.1-0.2c0-0.8,0.5-0.6,1-0.6
	c0.5,0,1.2-0.2,1.2,0.6C195.7,34,195,33.7,194.6,33.7L194.6,33.7z"/>
<path class="st0" d="M210.2,53.4c0.1,0,0.2-0.1,0.3-0.2c0.1-0.1,0.2-0.2,0.2-0.3c0-0.1,0-0.3,0-0.4c0-0.1-0.1-0.2-0.2-0.3
	c-0.1-0.1-0.2-0.1-0.3-0.2c-0.1,0-0.3,0-0.4,0.1c-0.1,0.1-0.2,0.1-0.3,0.2c-0.1,0.1-0.1,0.2-0.1,0.4c0,0.2,0.1,0.4,0.2,0.5
	C209.8,53.3,210,53.4,210.2,53.4z"/>
<path class="st0" d="M206.7,29.2c-0.1,0.2-0.3,0.5-0.4,0.7c0,0,0,0.1,0,0.1c0,0,0,0.1,0.1,0.1c0,0,0.1,0.1,0.1,0.1c0,0,0.1,0,0.1,0
	s0.1,0,0.1,0c0,0,0.1,0,0.1-0.1c0,0,0.1-0.1,0.1-0.1c0,0,0-0.1,0-0.1L206.7,29.2z"/>
<path class="st0" d="M182.7,29.2c-0.1,0.2-0.3,0.5-0.3,0.7c0,0.1,0,0.1,0,0.2c0,0.1,0,0.1,0.1,0.1c0,0,0.1,0.1,0.1,0.1
	c0,0,0.1,0,0.2,0s0.1,0,0.2,0c0,0,0.1-0.1,0.1-0.1c0,0,0.1-0.1,0.1-0.1c0-0.1,0-0.1,0-0.2L182.7,29.2z"/>
<path class="st0" d="M188.7,29.2c-0.1,0.2-0.3,0.5-0.4,0.7c0,0.1,0,0.1,0,0.2c0,0.1,0,0.1,0.1,0.1c0,0,0.1,0.1,0.1,0.1
	c0,0,0.1,0,0.2,0c0.1,0,0.1,0,0.2,0c0,0,0.1-0.1,0.1-0.1c0,0,0.1-0.1,0.1-0.1c0-0.1,0-0.1,0-0.2L188.7,29.2z"/>
<path class="st0" d="M194.7,29.2c-0.1,0.2-0.3,0.5-0.3,0.7c0,0.1,0,0.1,0,0.2c0,0.1,0,0.1,0.1,0.1c0,0,0.1,0.1,0.1,0.1
	c0,0,0.1,0,0.2,0s0.1,0,0.2,0c0,0,0.1-0.1,0.1-0.1c0,0,0.1-0.1,0.1-0.1c0-0.1,0-0.1,0-0.2L194.7,29.2z"/>
<path class="st0" d="M200.7,29.2c-0.1,0.2-0.3,0.5-0.3,0.7c0,0.1,0,0.1,0,0.2c0,0.1,0,0.1,0.1,0.1c0,0,0.1,0.1,0.1,0.1
	c0,0,0.1,0,0.2,0s0.1,0,0.2,0c0,0,0.1-0.1,0.1-0.1c0,0,0.1-0.1,0.1-0.1c0-0.1,0-0.1,0-0.2L200.7,29.2z"/>
<path class="st0" d="M182.7,37.4c0.1,0.2,0.3,0.5,0.3,0.7c0,0.1,0,0.1,0,0.2c0,0.1,0,0.1-0.1,0.1c0,0-0.1,0.1-0.1,0.1
	c0,0-0.1,0-0.2,0s-0.1,0-0.2,0c0,0-0.1-0.1-0.1-0.1c0,0-0.1-0.1-0.1-0.1c0-0.1,0-0.1,0-0.2L182.7,37.4z"/>
<path class="st0" d="M182.7,45.4c0.1,0.2,0.3,0.5,0.3,0.7c0,0.1,0,0.1,0,0.2c0,0.1,0,0.1-0.1,0.1c0,0-0.1,0.1-0.1,0.1
	c0,0-0.1,0-0.2,0s-0.1,0-0.2,0c0,0-0.1-0.1-0.1-0.1c0,0-0.1-0.1-0.1-0.1c0-0.1,0-0.1,0-0.2L182.7,45.4z"/>
<path class="st0" d="M183.7,51.8c0.1,0.2,0.3,0.5,0.4,0.7c0,0.1,0,0.1,0,0.2c0,0.1,0,0.1-0.1,0.1c0,0-0.1,0.1-0.1,0.1
	c0,0-0.1,0-0.2,0c-0.1,0-0.1,0-0.2,0c0,0-0.1-0.1-0.1-0.1c0,0-0.1-0.1-0.1-0.1c0-0.1,0-0.1,0-0.2L183.7,51.8z"/>
<path class="st0" d="M188.7,55.1c0.1,0.2,0.3,0.5,0.3,0.7c0,0.1,0,0.1,0,0.2c0,0.1,0,0.1-0.1,0.1c0,0-0.1,0.1-0.1,0.1
	c0,0-0.1,0-0.2,0s-0.1,0-0.2,0c0,0-0.1-0.1-0.1-0.1c0,0-0.1-0.1-0.1-0.1c0-0.1,0-0.1,0-0.2L188.7,55.1z"/>
<path class="st0" d="M207,37.4c-0.1,0.2-0.3,0.5-0.4,0.7c0,0.1,0,0.1,0,0.2c0,0.1,0,0.1,0.1,0.1c0,0,0.1,0.1,0.1,0.1
	c0,0,0.1,0,0.2,0s0.1,0,0.2,0c0,0,0.1-0.1,0.1-0.1c0,0,0.1-0.1,0.1-0.1c0-0.1,0-0.1,0-0.2L207,37.4z"/>
<path class="st0" d="M207,45.4c-0.1,0.2-0.3,0.5-0.4,0.7c0,0.1,0,0.1,0,0.2c0,0.1,0,0.1,0.1,0.1c0,0,0.1,0.1,0.1,0.1
	c0,0,0.1,0,0.2,0s0.1,0,0.2,0c0,0,0.1-0.1,0.1-0.1c0,0,0.1-0.1,0.1-0.1c0-0.1,0-0.1,0-0.2L207,45.4z"/>
<path class="st0" d="M206,51.8c-0.1,0.2-0.3,0.5-0.4,0.7c0,0.1,0,0.1,0,0.2c0,0.1,0,0.1,0.1,0.1c0,0,0.1,0.1,0.1,0.1
	c0,0,0.1,0,0.2,0s0.1,0,0.2,0c0,0,0.1-0.1,0.1-0.1c0,0,0.1-0.1,0.1-0.1c0-0.1,0-0.1,0-0.2L206,51.8z"/>
<path class="st0" d="M201,55.1c-0.1,0.2-0.3,0.5-0.4,0.7c0,0.1,0,0.1,0,0.2c0,0.1,0,0.1,0.1,0.1c0,0,0.1,0.1,0.1,0.1
	c0,0,0.1,0,0.2,0s0.1,0,0.2,0c0,0,0.1-0.1,0.1-0.1c0,0,0.1-0.1,0.1-0.1c0-0.1,0-0.1,0-0.2L201,55.1z"/>
<path class="st0" d="M194.9,58.7c-0.1,0.2-0.3,0.5-0.4,0.7c0,0.1,0,0.1,0,0.2c0,0.1,0,0.1,0.1,0.1c0,0,0.1,0.1,0.1,0.1
	c0,0,0.1,0,0.2,0s0.1,0,0.2,0c0,0,0.1-0.1,0.1-0.1c0,0,0.1-0.1,0.1-0.1c0-0.1,0-0.1,0-0.2L194.9,58.7z"/>
<path class="st0" d="M204.6,46.8c0.1,0.1,0.3,0.2,0.5,0.1l0.2-0.7c0,0-0.3-0.3-0.4-0.3c-0.6,0.2-1.3,0.2-1.7,0.8
	c0,0.2,0.1,0.4,0.2,0.6c0.1,0.2,0.3,0.3,0.4,0.4c0.2-0.1,0.3,0.2,0.4,0.3c0,0,0,0.1,0,0.1s0,0.1-0.1,0.1c0,0-0.1,0.1-0.1,0.1
	c0,0-0.1,0-0.1,0c-0.4-0.5-1.2,0.2-1.6-0.4c0.1-0.6,0.4-1.2,0-1.8c0-0.1,0.2-0.2,0.1-0.3c-0.2-0.5-0.8-0.1-1.1-0.1
	c-0.3,0-0.5,0-0.8,0.1c-0.2,0.1-0.4,0.3-0.6,0.5c0,0.2,0.1,0.4,0.3,0.6c0.1,0,0.2,0,0.3,0.2l-0.4,0.2c0.1,0.1,0.1,0.3,0.1,0.4
	c-0.3,0.1-0.5-0.3-0.6-0.5s0-0.8-0.4-0.9c-0.1,0-0.2,0.1-0.3,0.1c-0.1,0.2-0.2,0.4-0.2,0.6c0,0.2,0.1,0.5,0.1,0.7
	c0.5,0.4,1,0.9,1.4,1.4c-0.3,0.7-0.3,1.6-1.1,2c-0.1,0.1-0.2,0.2-0.2,0.3c0,0.1,0,0.2,0,0.3l0.2,0.2c0.5-0.3,1.4-0.3,1.3-1.2
	c0.2-0.4,0.4-0.7,0.7-1c0.2,0,0.3,0,0.5,0.1c0.2,0.1,0.3,0.2,0.4,0.4c-0.1,0.3-0.2,0.5-0.3,0.7c-0.2,0.2-0.4,0.4-0.7,0.4
	c-0.1,0.1,0,0.2,0,0.3c0.1,0.3,0.6,0.2,0.8,0.1c0.6-0.4,0.9-1.2,1.5-1.4c0.1,0.4-0.8,0.5-0.2,0.9c0.3-0.1,0.8,0,1-0.4
	c-0.3-0.6,0.9-1,0.2-1.5c0-0.6,0.6-0.8,0.6-1.4c-0.2-0.6-0.9-0.6-1.1-1.2c0.1-0.1,0.3-0.1,0.4-0.1C204.4,46.7,204.6,46.7,204.6,46.8
	L204.6,46.8z"/>
<path class="st0" d="M177.1,53.7c0.1,0,0.2,0,0.3,0c0.1,0,0.2-0.1,0.3-0.1c0.1-0.1,0.1-0.1,0.2-0.2c0-0.1,0.1-0.2,0.1-0.3
	c0-0.1,0-0.2-0.1-0.3c0-0.1-0.1-0.2-0.2-0.2c-0.1-0.1-0.2-0.1-0.3-0.1c-0.1,0-0.2,0-0.3,0c-0.2,0-0.3,0.1-0.5,0.2
	c-0.1,0.1-0.2,0.3-0.2,0.5c0,0.2,0.1,0.3,0.2,0.5C176.7,53.6,176.9,53.7,177.1,53.7z"/>
<path class="st0" d="M138.2,76.4c0.1,0,0.2,0,0.3-0.1c0.1,0,0.2-0.1,0.2-0.2c0.1-0.1,0.1-0.1,0.2-0.2c0-0.1,0.1-0.2,0.1-0.3
	c0-0.2-0.1-0.3-0.2-0.5c-0.1-0.1-0.3-0.2-0.5-0.2s-0.4,0.1-0.5,0.2c-0.1,0.1-0.2,0.3-0.2,0.5c0,0.2,0.1,0.4,0.2,0.5
	C137.9,76.3,138,76.4,138.2,76.4z"/>
<path class="st0" d="M163,81.9L163,81.9L163,81.9l-0.1-0.1v-0.1h0.1h0.1L163,81.9z"/>
<path class="st0" d="M163.1,81.8C163.1,81.8,163.1,81.8,163.1,81.8C163,81.8,163,81.8,163.1,81.8L163.1,81.8
	C163,81.8,163,81.8,163.1,81.8L163.1,81.8L163.1,81.8z"/>
<path class="st0" d="M163.3,81.7l-0.1,0.1L163.3,81.7L163.3,81.7L163.3,81.7L163.3,81.7L163.3,81.7L163.3,81.7z"/>
<path class="st0" d="M163.3,81.9C163.3,81.9,163.3,81.9,163.3,81.9C163.4,81.8,163.4,81.8,163.3,81.9l0.1-0.1c0,0,0.1,0,0.1,0.1
	C163.5,81.9,163.5,81.9,163.3,81.9L163.3,81.9z"/>
<path class="st0" d="M163.5,81.8C163.5,81.8,163.5,81.8,163.5,81.8L163.5,81.8L163.5,81.8L163.5,81.8L163.5,81.8z"/>
<path class="st0" d="M208.6,28.3H181v21.1c0,2.2,0.9,4,2.2,4.6l10.6,6.8c0.1,0.1,0.3,0.3,0.5,0.3c0.2,0.1,0.4,0.1,0.5,0.1
	c0.3,0,0.6-0.1,0.9-0.3l10.8-6.9c1.3-0.6,2.2-2.5,2.2-4.6L208.6,28.3L208.6,28.3z M207.9,49.7c0,0.7-0.2,1.4-0.5,2
	c-0.3,0.6-0.8,1.2-1.3,1.6L195.6,60h0c-0.2,0.2-0.5,0.3-0.8,0.3c-0.3,0-0.6-0.1-0.8-0.3l-10.4-6.6c-0.6-0.4-1-1-1.3-1.6
	c-0.3-0.6-0.5-1.3-0.5-2V29h26.1L207.9,49.7L207.9,49.7z"/>
<path class="st0" d="M198.5,59.1l0.3-0.2C198.8,58.9,198.6,59,198.5,59.1z"/>
<path class="st0" d="M177.7,87.9l-2.6,0.3v-0.2c0.5-0.1,0.6-0.1,0.6-0.3c-0.1-0.3-0.3-0.6-0.5-0.9l-1.8,0.2
	c-0.1,0.3-0.2,0.6-0.2,0.9c0,0.3,0.4,0.2,0.7,0.2v0.2l-1.6,0.2v-0.2c0.4-0.1,0.5-0.3,0.7-0.9l1.4-3.9h0.2l2.2,3.3
	c0.4,0.7,0.6,0.9,1,0.8L177.7,87.9L177.7,87.9z M175.1,86.6l-1-1.5l-0.6,1.7L175.1,86.6z"/>
<path class="st0" d="M223.5,78c-0.2-0.6-0.6-1.1-1.1-1.6c-0.5-0.4-1-0.7-1.6-0.9c-0.6-0.2-1.2-0.2-1.9,0s-1.2,0.5-1.6,0.9
	c-1.4,1.2-0.4,3.1-0.4,4.6c0,0.3,0,0.6-0.3,0.7c-5.8-0.5-11.1-2-16.8-2.6c-1.3-0.2-2.6-0.2-3.9-0.4l-1.6-0.2
	c-4.9,0-9.8,0.6-14.6,1.6c-1,0.3-2.1,0.4-3.1,0.8c-0.7-0.1-1.3,0.4-2,0.2l-1.3,0.3c-0.1,0-0.3,0-0.4,0c-0.6-1.6,1.3-2.6,0.7-4.2
	c-0.2-0.5-0.6-0.9-1.1-1.2c-0.5-0.3-1-0.4-1.6-0.4c-0.6-0.1-1.3,0.1-1.8,0.4c-0.6,0.3-1,0.7-1.4,1.3c-0.9,2,0.2,4.1,0.6,6
	c-0.1,0.6,0.6,1.3,0,1.9c-0.6-0.5-1.4-0.8-2.1-1c-0.8-0.2-1.6-0.1-2.3,0c-0.5,0.2-1.4-0.1-1.6,0.5c1.7,0.9,3.9,0.8,5.8,0.7
	c0.2-0.1,0.4-0.1,0.6,0c0.2,1-0.2,2.4,0.4,3.4c0.4,0.4,0.9,0.8,1.4,1c0.5,0.2,1.1,0.3,1.7,0.3c3.6-0.1,6.9-1.2,10.2-2
	c0.5,0,0.9-0.3,1.5-0.3c1.8-0.4,3.7-0.7,5.6-0.8c-0.8,1.1-1.4,2.3-1.7,3.6c-0.5,1.1,0.8,1.2,1.2,1.8c-1.2,0.4-2.1,1.2-3.2,1.7
	c-2.5-0.1-4.7,0.9-7.1,1.2c0,0.5,0.8,0.4,0.9,0.9c-0.1,0.4-0.5,0.4-0.8,0.6c0,0.2,0,0.3,0.2,0.3c0.2-0.3,0.8-0.1,1-0.4
	c0.8,0,1.5-0.2,2.2-0.3c0.7-0.2,1.4-0.4,2-0.8c0.8-0.2,1.4-0.8,2.2-1c1.2,0,2.3-0.4,3.4-0.5v0.2c-0.9,1.5-1.9,3-2.8,4.4
	c0,0.1,0,0.1-0.1,0.2c0,0.1,0,0.1,0,0.2c0,0.1,0.1,0.1,0.1,0.2c0,0,0.1,0.1,0.2,0.1c0.5,0.1,1.1,0,1.5-0.2c0.8-1.4,1.6-2.8,2.3-4.3
	c0.3-1.4,1.3-2.1,2.3-3c0.2-0.1,0.4-0.3,0.6-0.1c-0.7,0.9-1.4,1.8-1.9,2.8c-0.2,0.6-0.3,1.2-0.2,1.8c0.1,0.6,0.4,1.2,0.8,1.7
	c0.5,0.4,1.2,0.3,1.8,0.3c1.5-0.8,3.5,0.5,4.7-1c0.7-0.1,0.8,0.7,1.2,1.1c0.7,0.2,1.4,0.9,2.1,0.4c0-0.4-0.5-0.8-0.8-1.2
	c-0.5-0.8-1.1-1.5-1.5-2.3c-0.3-0.5-0.5-1-0.6-1.5c0.7,0.3,1.4,0.6,2.1,0.8c0.7,0.2,1.4,0.4,2.1,0.6c0.6,0.6,1.2,1.1,2,1.5
	c1,0.5,2.1,0.6,3.1,1c0.4,0,1,0.4,1.3,0c-0.2-0.2-0.4-0.3-0.6-0.4c-0.1-0.5,0.7-0.2,1-0.6c0-0.1-0.1-0.2-0.2-0.2
	c-0.1-0.1-0.2-0.1-0.3-0.1c-0.6-0.3-2-0.4-2.4-0.6c-0.5-0.1-0.9-0.3-1.4-0.4c-2.4,0-3.7-2.2-5.6-3c0.4-0.4,1.1-0.7,1.4-1.3
	c0.2-0.3,0.3-0.7,0.3-1s-0.1-0.7-0.2-1.1c-0.4-1.2-1.9-1.1-2.8-1.8l0.1-0.1c1.4,0,2.9,0.2,4.3,0.6c3.8,0.5,7.3,2,11.3,2
	c2.2,0,4.9,0.1,6-2c0.2-1.2,0.4-2.5,0.6-3.7C222.4,82.1,223.7,80.2,223.5,78L223.5,78z M180.6,96.2l-0.6-0.5
	c0.3-0.4,0.9-0.2,1.3-0.4c1.1-0.4,2.2-0.6,3.4-0.5C183.6,95.8,182,95.9,180.6,96.2z M205.4,95.6c1.4,0.5,2.8,0.8,4.2,1
	c-0.1,0.6-1.1,0-1,0.8c-1.2-0.5-2.7-0.7-3.6-1.7C205.1,95.7,205.2,95.6,205.4,95.6L205.4,95.6z M168.2,78.6c0-0.8,0.4-1.5,1-2
	c0.5-0.2,1-0.4,1.6-0.3s1.1,0.2,1.6,0.5c0.3,0.2,0.5,0.4,0.6,0.8c0.1,0.3,0.1,0.7,0,1c-0.1,0.3-0.3,0.6-0.6,0.8h-0.4
	c0-0.6,0-1.2,0.2-1.8c0-0.5-0.4-0.5-0.8-0.7c-0.3-0.1-0.6-0.1-0.9,0c-0.3,0.1-0.6,0.2-0.8,0.4c-0.2,0.2-0.4,0.5-0.5,0.8
	c-0.1,0.3-0.1,0.6,0,1c0.3,0.4,0,1,0.2,1.5l-0.1,0.2C168.7,80.1,168.1,79.5,168.2,78.6L168.2,78.6z M170,79.8
	c0.6,0.4,1.4,0.2,2.1,0.4c0.1,0.2,0.1,0.5,0.1,0.7c0,0.2-0.1,0.5-0.3,0.7c-0.7-0.2-1.6-0.1-1.9-0.7C170.1,80.5,169.9,80.1,170,79.8
	L170,79.8z M169.9,78.4c0.1-0.3,0-0.8,0.4-0.9c0.3-0.1,0.7-0.1,0.8,0.2c0,0.5-0.1,0.9-0.2,1.4c-0.2,0-0.5,0-0.7-0.2
	C170,78.9,169.9,78.7,169.9,78.4z M188.5,91.2c-0.1-0.7,0-1.3,0.2-1.9s0.6-1.2,1.1-1.6c0.6-0.2,1.2-0.2,1.7,0.1
	c-1,0.3-2.3,0.5-2.6,1.8c0,0.5-0.1,0.8,0.1,1.2c0.4,0.8,1.4,0.4,2,1c0,0.1,0,0.2-0.1,0.3c-0.1,0.1-0.2,0.1-0.3,0.2
	C189.9,92,189.2,91.6,188.5,91.2L188.5,91.2z M187.1,94c1-0.4,1.9-1.2,3-0.9C189.2,93.7,188.2,94,187.1,94z M190.9,94.4
	c-0.6,1.3-1.2,2.6-2,3.8c-0.1,0.2-0.4,0.2-0.6,0.3c0-0.6,0.6-1,0.8-1.5c0.8-1.1,1.1-2.2,2-3.3C191.3,93.9,190.8,94.1,190.9,94.4
	L190.9,94.4z M191.9,92.1v0.2h-0.1L191.9,92.1L191.9,92.1C191.9,92,191.8,92,191.9,92.1L191.9,92.1z M191.5,91
	c-0.6-0.1-1.3-0.2-1.9-0.5c-0.4-0.4,0-0.8,0-1.3c0.5-0.9,2.1-1.3,2.9-0.5C192.4,89.6,192.1,90.4,191.5,91z M192.4,91
	c0.1-0.6,0.3-1.1,0.6-1.7C193,89.9,192.7,90.5,192.4,91z M192.8,87.8c-0.5-0.1-0.8-0.7-1.3-0.7c0.5-0.1,1-0.2,1.5-0.1
	C193.2,87.3,192.9,87.5,192.8,87.8L192.8,87.8z M193.3,89v-0.4V89L193.3,89z M193.3,90.8c0-0.2,0.1-0.4,0.1-0.6
	c0.2-0.2,0.4,0.2,0.5,0.3c-0.1,0.1-0.1,0.2-0.3,0.2C193.5,90.8,193.4,90.8,193.3,90.8z M193.9,88.3c0.1-0.5,0.3-1,0.6-1.5
	c0.4,0,0.7,0,1.1,0.2c0.1,0.8,1.1,1.9,0,2.6c-0.4,0.2-0.9,0.5-1.3,0.2c-0.2-0.1-0.4-0.4-0.5-0.6C193.7,88.8,193.8,88.6,193.9,88.3z
	 M196.8,87.2c-0.1-0.4,0.4-0.1,0.5-0.2l1.2,0.1C197.9,87,197.1,88.4,196.8,87.2z M198.8,87.7c-0.5,0.2-0.8,0.7-1.3,0.8
	c0.1-0.2,0.3-0.4,0.5-0.6C198.2,87.8,198.5,87.7,198.8,87.7z M197.2,92.6c0,0.1,0,0.2-0.1,0.3l-0.9-0.7c0.2,0,0.4,0,0.6,0.1
	C196.9,92.3,197.1,92.5,197.2,92.6L197.2,92.6z M196.1,91.4c0.1,0,0.1-0.1,0.2-0.1c0.1,0,0.1,0,0.2,0.1H196.1z M195.6,90.8
	c0.2-0.2,0.4-0.6,0.6-0.6c0,0,0,0.1,0.1,0.1C196.1,90.5,195.8,90.7,195.6,90.8z M194.7,90.7h-0.2l0.2-0.2
	C194.9,90.6,194.7,90.7,194.7,90.7z M194.8,92.2c0.5-0.6,1,0.3,1.2,0.8c0.6,0.9,2.1,1.7,1.5,2.9c-0.8,0.7-1.9,0-2.8,0.6
	c-0.4,0-1.2,0.1-1.4-0.4C193.7,94.8,194.2,93.5,194.8,92.2z M193.7,93l0.2-0.3c-0.3,1-0.8,2-1.3,2.9C192.3,94.6,193.3,93.8,193.7,93
	z M195.4,97.8c-0.8,0-1.9,0.5-2.6-0.2c0-0.3-0.3-0.5-0.3-0.8c0.6-0.2,1.2,0.5,1.8,0c0.9-0.1,1.9,0,2.8,0.1c0.4,0.1,1.1-0.7,1.2,0.1
	C197.9,98.3,196.4,97.4,195.4,97.8L195.4,97.8z M197.7,92v-0.1h0.1L197.7,92L197.7,92z M197.9,94.5c0,0.4,0.4,0.6,0.2,0.9
	c-0.1-0.1-0.2-0.3-0.2-0.4C197.9,94.8,197.9,94.7,197.9,94.5z M199.1,96.9l-0.2,0.1c-0.2-0.2-0.1-0.6-0.1-0.8
	C199,96.4,199.2,96.6,199.1,96.9z M201.1,97.9c0,0.1-0.2,0.1-0.3,0c-1-1.5-1.9-3.1-2.5-4.8h0.2C199.4,94.7,200.1,96.4,201.1,97.9z
	 M202.5,94.2C202.5,94.3,202.5,94.3,202.5,94.2c-0.1,0.1-0.1,0.1-0.1,0.2c-1-0.1-2-0.5-2.8-1.2V93C200.7,93.2,201.7,93.6,202.5,94.2
	L202.5,94.2z M201.5,88.9c0.5,0.1,0.5,0.6,0.6,1c0,0.3-0.1,0.7-0.3,1c-0.2,0.3-0.4,0.6-0.7,0.8c-0.3,0.2-0.6,0.3-0.9,0.4
	c-0.3,0.1-0.7,0.1-1,0c0.5,0,1-0.1,1.4-0.3c0.4-0.2,0.8-0.6,1-1L201.5,88.9L201.5,88.9z M200.7,88.8c0.3,0.5,0.4,1.1,0.3,1.7
	c-0.4,0.8-1.2,0.8-1.9,0.9c-0.2,0-0.3,0-0.5,0c-0.2,0-0.3-0.1-0.4-0.2c0-0.1,0-0.1,0-0.2c0-0.1-0.1-0.1-0.1-0.2
	c0.1-0.5-0.9-1-0.2-1.5C198.5,88.7,200,87.3,200.7,88.8L200.7,88.8z M220.8,85.8c-0.3,0.4,0,1-0.4,1.4c0,0.7-0.6,1.1-1.1,1.4
	c-4.7,1-9.4-0.6-13.9-1.4c-6.7-1.6-13.6-1.7-20.3-0.3c-3.1,0.6-6,1.3-9,2.1c-1.8,0.4-3.7,0.4-5.6,0c-1.4-0.7-0.8-2.5-1.3-3.8
	c0-0.9-0.2-1.8-0.3-2.8c-0.1-0.3-0.2-0.7-0.1-1c0.6,0.1,1.2,0.5,1.8,0.7c3.3,0.6,6.3-0.4,9.4-1c3-0.7,6.1-1.1,9.2-1.4
	c3.5-0.2,7.1-0.1,10.6,0.4c1.1,0,2.1,0.3,3.1,0.4c2.2,0.3,4.3,0.9,6.5,1c0.4,0.1,0.8,0.2,1.2,0.2c3.6,0.6,7.6,1.6,11,0
	C221.4,83.1,221.2,84.5,220.8,85.8L220.8,85.8z M219.7,81c0,0.6-0.6,0.5-0.9,0.7h-0.9c-0.1-0.4-0.2-0.7-0.1-1.1
	C218.4,80.7,219,80.8,219.7,81z M219.2,80c0.4-0.4-0.1-3,1.1-1.3c0,0.3,0,0.8-0.3,1S219.6,80.2,219.2,80L219.2,80z M222.4,79.6
	c-0.1,0.4-0.4,0.7-0.7,0.9c-0.3,0.2-0.6,0.4-1,0.5c0-1,0.9-1.6,0.6-2.7c-0.3-0.4-0.7-0.6-1.1-0.8c-0.4-0.1-0.9-0.2-1.4,0
	c-0.4,0.2-0.2,0.6-0.3,1l-0.1,1.3c-0.8,0-0.8-0.7-1.1-1.3c0-0.4,0.1-0.8,0.3-1.2c0.2-0.4,0.5-0.7,0.9-0.9c0.4-0.2,0.8-0.2,1.2-0.2
	s0.8,0.1,1.1,0.3c0.3,0,0.5,0.1,0.7,0.3c0.2,0.1,0.4,0.3,0.6,0.6C222.7,77.9,222.6,78.9,222.4,79.6z"/>
<path class="st0" d="M445,0h2v134h-2V0z"/>
</svg>
