<?xml version="1.0" encoding="UTF-8"?>
<svg id="Layer_1" data-name="Layer 1" xmlns="http://www.w3.org/2000/svg" xmlns:xlink="http://www.w3.org/1999/xlink" viewBox="0 0 1280 990.05">
  <defs>
    <style>
      .cls-1 {
        fill: none;
      }

      .cls-2 {
        clip-path: url(#clippath);
      }

      .cls-3, .cls-4 {
        fill: #fff;
      }

      .cls-5 {
        clip-path: url(#clippath-1);
      }

      .cls-4 {
        fill-rule: evenodd;
      }
    </style>
    <clipPath id="clippath">
      <rect class="cls-1" x="121.88" y="152.03" width="1036.55" height="685.99"/>
    </clipPath>
    <clipPath id="clippath-1">
      <rect class="cls-1" x="121.88" y="152.03" width="1036.55" height="685.99"/>
    </clipPath>
  </defs>
  <path class="cls-4" d="m165.94,644.74l-10.83-25.04-11.15,25.04h21.98Zm1.82,3.97h-25.68l-3.06,7.07c-1,2.36-1.5,4.31-1.5,5.85,0,2.04.82,3.54,2.47,4.5.97.57,3.34,1,7.13,1.29v1.98h-24.18v-1.98c2.61-.4,4.76-1.46,6.43-3.21,1.68-1.79,3.75-5.45,6.22-10.99l26-58.01h1.02l26.22,59.62c2.5,5.64,4.56,9.2,6.16,10.67,1.21,1.11,2.93,1.75,5.15,1.93v1.98h-35.17v-1.98h1.45c2.82,0,4.8-.4,5.95-1.18.78-.57,1.18-1.39,1.18-2.47,0-.64-.11-1.3-.32-1.98-.07-.32-.61-1.66-1.61-4.02l-3.86-9.06h0Z"/>
  <path class="cls-3" d="m244.7,619.27v39.24c0,3.82.36,6.22,1.07,7.18.71.93,2.16,1.52,4.34,1.77v1.93h-20.42v-6.7c-2.4,2.86-4.79,4.95-7.18,6.28-2.4,1.29-5.08,1.93-8.04,1.93s-5.34-.86-7.56-2.57c-2.18-1.75-3.65-3.79-4.39-6.11-.75-2.32-1.13-6.38-1.13-12.17v-19.89c0-3.79-.36-6.15-1.07-7.08-.68-.93-2.13-1.53-4.34-1.82v-1.99h20.42v34.26c0,3.58.16,5.88.48,6.92.36,1.04.89,1.83,1.61,2.36.75.54,1.61.8,2.57.8,1.29,0,2.45-.34,3.48-1.02,1.43-.93,3.14-2.81,5.15-5.63v-26.8c0-3.79-.36-6.15-1.07-7.08-.68-.93-2.13-1.53-4.34-1.82v-1.99h20.42Z"/>
  <path class="cls-3" d="m285.19,617.88l.8,17.1h-1.82c-2.18-5.07-4.45-8.54-6.81-10.4-2.32-1.86-4.65-2.79-6.97-2.79-1.47,0-2.72.5-3.75,1.5-1.04.96-1.56,2.09-1.56,3.38,0,.96.36,1.89,1.07,2.79,1.15,1.47,4.34,3.98,9.6,7.56,5.26,3.54,8.7,6.56,10.35,9.06,1.68,2.47,2.52,5.24,2.52,8.31,0,2.79-.69,5.52-2.09,8.21-1.39,2.68-3.36,4.74-5.9,6.16-2.54,1.43-5.34,2.14-8.42,2.15-2.4,0-5.59-.75-9.6-2.25-1.07-.39-1.8-.59-2.2-.59-1.18,0-2.16.89-2.95,2.68h-1.77l-.86-18.01h1.82c1.61,4.72,3.81,8.26,6.6,10.62,2.82,2.35,5.48,3.54,7.98,3.54,1.72,0,3.11-.52,4.18-1.56,1.11-1.07,1.66-2.36,1.66-3.86,0-1.72-.54-3.2-1.61-4.45-1.07-1.25-3.47-3.14-7.18-5.68-5.47-3.79-9-6.68-10.61-8.69-2.36-2.93-3.54-6.16-3.54-9.7,0-3.86,1.32-7.34,3.96-10.46,2.68-3.14,6.54-4.71,11.58-4.71,2.71,0,5.34.66,7.88,1.98.97.54,1.75.81,2.36.81.64,0,1.16-.13,1.56-.37.39-.29,1.02-1.06,1.88-2.31h1.82Z"/>
  <path class="cls-3" d="m311.74,600.94v18.33h11.9v5.31h-11.9v30.93c0,2.89.12,4.77.37,5.63.28.83.77,1.51,1.45,2.04.68.5,1.3.75,1.88.75,2.32,0,4.52-1.77,6.6-5.31l1.61,1.18c-2.9,6.86-7.59,10.3-14.1,10.3-3.18,0-5.88-.88-8.09-2.63-2.18-1.79-3.57-3.77-4.18-5.95-.36-1.21-.54-4.5-.54-9.86v-27.07h-6.54v-1.88c4.5-3.18,8.33-6.52,11.47-10.02,3.18-3.51,5.95-7.42,8.31-11.74h1.77Z"/>
  <path class="cls-3" d="m348.11,619.27v11.37c3.33-5.18,6.24-8.61,8.74-10.29,2.5-1.71,4.91-2.57,7.24-2.57,2,0,3.59.62,4.77,1.88,1.21,1.21,1.82,2.95,1.82,5.2,0,2.4-.59,4.25-1.77,5.58-1.15,1.32-2.54,1.98-4.18,1.98-1.89,0-3.54-.6-4.93-1.82-1.39-1.21-2.22-1.89-2.47-2.04-.36-.21-.77-.32-1.23-.32-1.04,0-2.02.39-2.95,1.18-1.47,1.21-2.57,2.95-3.32,5.2-1.15,3.47-1.72,7.29-1.72,11.47v11.53l.05,3c0,2.04.13,3.34.38,3.92.43.96,1.05,1.68,1.88,2.14.86.43,2.29.7,4.29.81v1.93h-27.07v-1.93c2.18-.18,3.64-.77,4.39-1.77.79-1.04,1.18-3.73,1.18-8.09v-27.71c0-2.86-.15-4.68-.43-5.47-.36-1-.88-1.73-1.56-2.2-.68-.46-1.88-.79-3.59-.96v-1.99h20.48Z"/>
  <path class="cls-4" d="m398.21,658.09v-16.78c-4.33,2.54-7.54,5.25-9.65,8.15-1.39,1.93-2.09,3.88-2.09,5.84,0,1.65.59,3.09,1.77,4.34.89.96,2.14,1.45,3.75,1.45,1.79,0,3.86-1,6.22-3h0Zm0,3.91c-6.11,5.4-11.6,8.09-16.46,8.1-2.86,0-5.24-.93-7.13-2.79-1.89-1.89-2.84-4.25-2.84-7.07,0-3.82,1.64-7.26,4.93-10.29,3.29-3.07,10.45-7.15,21.5-12.22v-5.04c0-3.79-.22-6.17-.64-7.13-.39-1-1.17-1.86-2.31-2.57-1.15-.75-2.43-1.13-3.86-1.13-2.32,0-4.24.52-5.74,1.56-.93.64-1.39,1.39-1.39,2.25,0,.75.5,1.68,1.5,2.79,1.36,1.54,2.03,3.02,2.03,4.45,0,1.75-.66,3.26-1.98,4.5-1.29,1.21-2.98,1.83-5.09,1.83-2.25,0-4.15-.68-5.68-2.04-1.5-1.36-2.25-2.95-2.25-4.77,0-2.57,1.02-5.02,3.06-7.34,2.03-2.36,4.88-4.16,8.52-5.41,3.64-1.25,7.43-1.88,11.36-1.88,4.75,0,8.5,1.01,11.26,3.05,2.79,2,4.59,4.18,5.41,6.54.5,1.51.75,4.95.75,10.35v19.46c0,2.29.09,3.73.27,4.34.18.57.45,1,.8,1.29.36.28.77.42,1.23.42.93,0,1.87-.66,2.84-1.98l1.61,1.29c-1.79,2.65-3.64,4.57-5.58,5.79-1.89,1.18-4.06,1.77-6.49,1.77-2.86,0-5.09-.67-6.7-1.99-1.61-1.36-2.59-3.39-2.95-6.11h0Z"/>
  <path class="cls-3" d="m441.78,596.7v62.29c0,3.54.41,5.81,1.23,6.81.82.96,2.43,1.52,4.82,1.66v1.93h-27.07v-1.93c2.21-.07,3.86-.72,4.93-1.93.71-.82,1.07-3,1.07-6.54v-51.89c0-3.5-.41-5.74-1.23-6.7-.82-1-2.41-1.57-4.77-1.72v-1.98h21.01Z"/>
  <path class="cls-4" d="m472.23,619.27v39.72c0,3.54.41,5.81,1.23,6.81.82.96,2.43,1.52,4.83,1.66v1.93h-27.07v-1.93c2.22-.07,3.86-.72,4.93-1.93.71-.82,1.07-3,1.07-6.54v-29.27c0-3.54-.41-5.79-1.23-6.75-.82-1-2.41-1.57-4.77-1.71v-1.99h21.02Zm-7.51-24.28c2.32,0,4.28.82,5.9,2.47,1.61,1.61,2.41,3.55,2.41,5.84s-.82,4.23-2.47,5.84c-1.61,1.61-3.56,2.42-5.84,2.42s-4.24-.81-5.84-2.42c-1.61-1.61-2.41-3.55-2.41-5.84s.8-4.23,2.41-5.84c1.61-1.65,3.55-2.47,5.84-2.47h0Z"/>
  <path class="cls-4" d="m507.53,658.09v-16.78c-4.33,2.54-7.54,5.25-9.65,8.15-1.4,1.93-2.09,3.88-2.09,5.84,0,1.65.59,3.09,1.77,4.34.89.96,2.14,1.45,3.75,1.45,1.79,0,3.86-1,6.22-3h0Zm0,3.91c-6.11,5.4-11.6,8.09-16.46,8.1-2.86,0-5.24-.93-7.13-2.79-1.9-1.89-2.84-4.25-2.84-7.07,0-3.82,1.64-7.26,4.93-10.29,3.29-3.07,10.45-7.15,21.5-12.22v-5.04c0-3.79-.22-6.17-.65-7.13-.39-1-1.16-1.86-2.3-2.57-1.15-.75-2.43-1.13-3.86-1.13-2.32,0-4.24.52-5.73,1.56-.93.64-1.39,1.39-1.39,2.25,0,.75.5,1.68,1.5,2.79,1.36,1.54,2.03,3.02,2.04,4.45,0,1.75-.66,3.26-1.99,4.5-1.28,1.21-2.99,1.83-5.09,1.83-2.25,0-4.14-.68-5.68-2.04-1.5-1.36-2.25-2.95-2.25-4.77,0-2.57,1.02-5.02,3.05-7.34,2.04-2.36,4.88-4.16,8.52-5.41,3.65-1.25,7.43-1.88,11.36-1.88,4.76,0,8.5,1.01,11.26,3.05,2.79,2,4.59,4.18,5.42,6.54.5,1.51.75,4.95.75,10.35v19.46c0,2.29.09,3.73.27,4.34.18.57.45,1,.8,1.29.36.28.77.42,1.23.42.93,0,1.88-.66,2.84-1.98l1.61,1.29c-1.79,2.65-3.65,4.57-5.58,5.79-1.9,1.18-4.06,1.77-6.49,1.77-2.86,0-5.09-.67-6.7-1.99-1.61-1.36-2.59-3.39-2.95-6.11h0Z"/>
  <path class="cls-3" d="m550.85,619.27v6.49c2.57-2.79,5.04-4.81,7.4-6.06,2.36-1.29,4.89-1.93,7.61-1.93,3.26,0,5.95.91,8.1,2.73,2.14,1.79,3.57,4.02,4.29,6.7.57,2.03.86,5.95.86,11.74v19.51c0,3.86.34,6.28,1.02,7.24.71.93,2.18,1.52,4.4,1.77v1.93h-25.36v-1.93c1.9-.25,3.25-1.04,4.08-2.36.57-.89.86-3.11.86-6.65v-22.3c0-4.11-.16-6.7-.48-7.78-.32-1.07-.88-1.89-1.66-2.46-.75-.61-1.59-.91-2.52-.91-3.07,0-5.93,2.2-8.58,6.59v26.86c0,3.75.34,6.13,1.02,7.13.72,1,2.02,1.62,3.91,1.88v1.93h-25.36v-1.93c2.11-.22,3.61-.89,4.5-2.04.61-.79.91-3.11.91-6.97v-28.3c0-3.79-.36-6.15-1.07-7.08-.68-.93-2.12-1.53-4.34-1.82v-1.99h20.42Z"/>
  <path class="cls-3" d="m683.25,595.04v25.62h-1.99c-2.4-7-5.98-12.33-10.77-15.97-4.79-3.65-10.03-5.47-15.71-5.47s-9.95,1.54-13.56,4.61c-3.61,3.04-6.16,7.29-7.66,12.75-1.5,5.47-2.25,11.08-2.25,16.83,0,6.97.82,13.08,2.46,18.33,1.64,5.26,4.29,9.12,7.94,11.59,3.68,2.46,8.03,3.69,13.08,3.69,1.76,0,3.54-.17,5.36-.54,1.86-.39,3.76-.94,5.69-1.66v-15.12c0-2.86-.2-4.7-.59-5.52-.39-.86-1.21-1.63-2.47-2.3-1.21-.68-2.69-1.02-4.45-1.02h-1.88v-1.98h35.32v1.98c-2.68.18-4.56.55-5.63,1.13-1.04.54-1.84,1.44-2.41,2.73-.32.68-.48,2.34-.48,4.99v15.12c-4.65,2.08-9.49,3.63-14.53,4.67-5,1.07-10.2,1.61-15.6,1.61-6.9,0-12.63-.93-17.21-2.79-4.54-1.89-8.56-4.36-12.06-7.39-3.47-3.08-6.19-6.53-8.15-10.35-2.5-4.93-3.75-10.45-3.75-16.56,0-10.94,3.84-20.17,11.53-27.71,7.68-7.54,17.35-11.31,29-11.31,3.61,0,6.86.28,9.76.86,1.57.29,4.11,1.11,7.61,2.47,3.54,1.32,5.63,1.98,6.27,1.98,1,0,1.93-.35,2.79-1.07.86-.75,1.64-2.15,2.36-4.18h1.99Z"/>
  <path class="cls-4" d="m718.26,621.58c-1.83,0-3.4.69-4.72,2.09-1.29,1.36-2.15,4.07-2.57,8.15-.4,4.03-.59,9.67-.59,16.88,0,3.83.25,7.4.75,10.72.39,2.54,1.23,4.47,2.52,5.79,1.29,1.32,2.75,1.98,4.4,1.98s2.95-.45,4.02-1.34c1.4-1.21,2.32-2.91,2.79-5.09.72-3.4,1.07-10.26,1.07-20.59,0-6.08-.34-10.24-1.02-12.49-.68-2.29-1.68-3.95-3-4.99-.93-.75-2.15-1.12-3.65-1.12h0Zm-.22-3.81c4.36,0,8.42,1.12,12.17,3.37,3.75,2.25,6.59,5.45,8.53,9.6,1.96,4.15,2.94,8.68,2.95,13.62,0,7.11-1.81,13.06-5.42,17.85-4.36,5.79-10.38,8.69-18.07,8.69s-13.35-2.64-17.42-7.93c-4.08-5.29-6.11-11.42-6.11-18.39s2.07-13.44,6.22-18.76c4.18-5.36,9.9-8.04,17.16-8.04h0Z"/>
  <path class="cls-3" d="m765.33,670.9l-16.88-38.87c-2.04-4.68-3.63-7.65-4.77-8.9-.82-.93-2.03-1.56-3.64-1.88v-1.99h26.64v1.99c-1.68,0-2.82.3-3.43.91-.86.79-1.28,1.71-1.28,2.79,0,1.33.78,3.81,2.35,7.45l8.26,18.82,6.6-16.24c1.89-4.65,2.84-7.93,2.84-9.86,0-1.11-.41-2-1.23-2.68-.79-.72-2.2-1.11-4.23-1.18v-1.99h16.41v1.99c-1.58.21-2.87.8-3.86,1.76-1,.97-2.5,3.81-4.5,8.53l-16.72,39.35h-2.52Z"/>
  <path class="cls-4" d="m819.19,638.95c0-5.75-.32-9.7-.96-11.85-.61-2.15-1.57-3.77-2.89-4.88-.75-.64-1.75-.96-3.01-.96-1.86,0-3.38.91-4.56,2.73-2.11,3.18-3.16,7.54-3.16,13.08v1.88h14.58Zm13.19,3.59h-27.5c.32,6.65,2.09,11.9,5.31,15.76,2.47,2.97,5.44,4.45,8.9,4.45,2.15,0,4.09-.59,5.84-1.77,1.75-1.21,3.63-3.37,5.63-6.48l1.82,1.18c-2.72,5.54-5.72,9.47-9,11.79-3.29,2.29-7.09,3.43-11.42,3.43-7.44,0-13.06-2.86-16.88-8.58-3.08-4.61-4.61-10.33-4.61-17.16,0-8.36,2.25-15.01,6.75-19.95,4.54-4.97,9.84-7.45,15.92-7.45,5.08,0,9.47,2.09,13.19,6.27,3.75,4.15,5.77,10.31,6.06,18.5h0Z"/>
  <path class="cls-3" d="m856.16,619.27v11.37c3.33-5.18,6.23-8.61,8.74-10.29,2.5-1.71,4.91-2.57,7.24-2.57,2,0,3.58.62,4.77,1.88,1.21,1.21,1.82,2.95,1.82,5.2,0,2.4-.59,4.25-1.77,5.58-1.14,1.32-2.54,1.98-4.18,1.98-1.89,0-3.54-.6-4.93-1.82-1.39-1.21-2.22-1.89-2.47-2.04-.36-.21-.77-.32-1.24-.32-1.04,0-2.02.39-2.95,1.18-1.47,1.21-2.57,2.95-3.32,5.2-1.14,3.47-1.72,7.29-1.72,11.47v11.53l.05,3c0,2.04.12,3.34.38,3.92.42.96,1.05,1.68,1.88,2.14.86.43,2.29.7,4.29.81v1.93h-27.07v-1.93c2.18-.18,3.64-.77,4.4-1.77.79-1.04,1.18-3.73,1.18-8.09v-27.71c0-2.86-.15-4.68-.43-5.47-.35-1-.87-1.73-1.56-2.2-.68-.46-1.88-.79-3.59-.96v-1.99h20.48Z"/>
  <path class="cls-3" d="m902.37,619.27v6.49c2.57-2.79,5.04-4.81,7.4-6.06,2.35-1.29,4.89-1.93,7.61-1.93,3.25,0,5.95.91,8.1,2.73,2.15,1.79,3.57,4.02,4.29,6.7.57,2.03.85,5.95.86,11.74v19.51c0,3.86.34,6.28,1.02,7.24.71.93,2.18,1.52,4.4,1.77v1.93h-25.36v-1.93c1.89-.25,3.26-1.04,4.08-2.36.57-.89.85-3.11.85-6.65v-22.3c0-4.11-.16-6.7-.48-7.78-.32-1.07-.88-1.89-1.66-2.46-.75-.61-1.59-.91-2.52-.91-3.07,0-5.93,2.2-8.58,6.59v26.86c0,3.75.34,6.13,1.02,7.13.72,1,2.02,1.62,3.92,1.88v1.93h-25.36v-1.93c2.11-.22,3.61-.89,4.5-2.04.61-.79.91-3.11.91-6.97v-28.3c0-3.79-.36-6.15-1.07-7.08-.68-.93-2.13-1.53-4.34-1.82v-1.99h20.42Z"/>
  <path class="cls-3" d="m960.46,619.27v6.6c2.75-3,5.29-5.09,7.61-6.28,2.36-1.21,4.93-1.82,7.72-1.82,3.21,0,5.91.74,8.09,2.25,2.18,1.5,3.86,3.79,5.04,6.86,2.85-3.21,5.59-5.54,8.2-6.97,2.65-1.43,5.4-2.14,8.26-2.14,3.46,0,6.22.8,8.26,2.41,2.07,1.57,3.5,3.59,4.29,6.06.82,2.43,1.23,6.33,1.23,11.69v20.53c0,3.86.34,6.26,1.02,7.18.72.93,2.18,1.54,4.4,1.83v1.93h-25.9v-1.93c2.04-.18,3.54-.96,4.51-2.36.64-.96.96-3.18.96-6.65v-21.55c0-4.47-.18-7.31-.54-8.53-.36-1.21-.93-2.1-1.71-2.68-.75-.61-1.65-.91-2.68-.91-1.54,0-3.09.57-4.66,1.71-1.58,1.11-3.16,2.79-4.77,5.04v26.91c0,3.61.3,5.88.91,6.81.82,1.32,2.4,2.05,4.72,2.2v1.93h-25.95v-1.93c1.39-.07,2.48-.41,3.27-1.02.82-.64,1.36-1.39,1.61-2.25.28-.89.42-2.81.43-5.74v-21.55c0-4.54-.17-7.38-.53-8.53-.36-1.14-.97-2.03-1.83-2.68-.82-.64-1.71-.96-2.68-.96-1.43,0-2.74.37-3.92,1.13-1.68,1.11-3.47,3-5.36,5.68v26.91c0,3.54.34,5.88,1.02,7.02.72,1.11,2.18,1.77,4.4,1.98v1.93h-25.84v-1.93c2.11-.22,3.61-.89,4.5-2.04.6-.79.91-3.11.91-6.97v-28.3c0-3.79-.36-6.15-1.07-7.08-.68-.93-2.13-1.53-4.34-1.82v-1.99h20.42Z"/>
  <path class="cls-4" d="m1056,638.95c0-5.75-.32-9.7-.97-11.85-.6-2.15-1.57-3.77-2.89-4.88-.75-.64-1.76-.96-3.01-.96-1.86,0-3.37.91-4.55,2.73-2.11,3.18-3.16,7.54-3.16,13.08v1.88h14.58Zm13.19,3.59h-27.5c.32,6.65,2.09,11.9,5.31,15.76,2.47,2.97,5.43,4.45,8.9,4.45,2.15,0,4.09-.59,5.84-1.77,1.75-1.21,3.63-3.37,5.63-6.48l1.83,1.18c-2.72,5.54-5.72,9.47-9,11.79-3.29,2.29-7.09,3.43-11.42,3.43-7.44,0-13.07-2.86-16.89-8.58-3.07-4.61-4.61-10.33-4.61-17.16,0-8.36,2.25-15.01,6.75-19.95,4.53-4.97,9.84-7.45,15.92-7.45,5.07,0,9.47,2.09,13.19,6.27,3.75,4.15,5.77,10.31,6.06,18.5h0Z"/>
  <g class="cls-2">
    <path class="cls-3" d="m1091.55,619.27v6.49c2.57-2.79,5.04-4.81,7.39-6.06,2.36-1.29,4.9-1.93,7.61-1.93,3.25,0,5.95.91,8.09,2.73,2.15,1.79,3.58,4.02,4.29,6.7.57,2.03.86,5.95.86,11.74v19.51c0,3.86.34,6.28,1.02,7.24.72.93,2.18,1.52,4.39,1.77v1.93h-25.35v-1.93c1.89-.25,3.25-1.04,4.07-2.36.57-.89.86-3.11.86-6.65v-22.3c0-4.11-.16-6.7-.48-7.78-.32-1.07-.87-1.89-1.66-2.46-.75-.61-1.59-.91-2.52-.91-3.07,0-5.93,2.2-8.58,6.59v26.86c0,3.75.34,6.13,1.02,7.13.71,1,2.02,1.62,3.91,1.88v1.93h-25.36v-1.93c2.11-.22,3.61-.89,4.5-2.04.61-.79.91-3.11.91-6.97v-28.3c0-3.79-.36-6.15-1.07-7.08-.68-.93-2.13-1.53-4.34-1.82v-1.99h20.43Z"/>
    <path class="cls-3" d="m1146.53,600.94v18.33h11.9v5.31h-11.9v30.93c0,2.89.13,4.77.37,5.63.29.83.77,1.51,1.45,2.04.68.5,1.3.75,1.88.75,2.32,0,4.52-1.77,6.59-5.31l1.61,1.18c-2.89,6.86-7.6,10.3-14.1,10.3-3.19,0-5.88-.88-8.09-2.63-2.18-1.79-3.58-3.77-4.18-5.95-.36-1.21-.54-4.5-.54-9.86v-27.07h-6.54v-1.88c4.5-3.18,8.33-6.52,11.47-10.02,3.18-3.51,5.95-7.42,8.31-11.74h1.77Z"/>
  </g>
  <path class="cls-3" d="m553.94,467.02c-.35.6-.79,1.08-1.38,1.38"/>
  <path class="cls-3" d="m566.49,368.86c1.45,0,2.62-1.18,2.62-2.64s-1.18-2.65-2.62-2.65-2.62,1.19-2.62,2.65,1.17,2.64,2.62,2.64h0Z"/>
  <path class="cls-3" d="m685.46,311.24h-28.77v-50.71h28.77v50.71h0Zm0,24.09c-.49,5.47-2.35,10.02-6.13,12.6l-22.64,13.52v-47.62h28.77v21.5h0Zm-31.34-24.09h-26.57v-50.71h26.57v50.71h0Zm0,51.75l-10.45,6.25h-.19c-.76.59-1.7.97-2.75.97s-2.03-.39-2.79-1.01l-10.39-6.21v-49.16h26.57v49.16h0Zm-37.33-51.75v-18.56h8.18v18.56h-8.18Zm8.18,50.21l-22.63-13.52c-3.78-2.58-5.64-7.12-6.14-12.6v-21.5h28.77v47.62h0Zm-18.84-100.92v19.56h-9.94v-19.56h9.94Zm2.48,7.35l1.16-1.22-.72-1.33,1.53.16.92-1.62.9,1.59,1.55-.13-.72,1.33,1.16,1.22-1.48.28v1.65l-1.41-1.05-1.4,1.05v-1.65l-1.48-.28h0Zm7.03,20.44c-.07-.5-.72-.63-1-.63-.88,0-1.24,1.47-1.98,1.5-.55.03-.94.08-.94-.59,0-.49,1.12-.88,1.56-1.31-6.13,0-6.25,2.81-7.21,2.81-1.61,0,1.34-2.95,2.2-3.81-1.24-.2-1.96-1.73-3.32-2.5.64-.92,1-.52,1.8.12,0-.65.49-1.4,1.91-1.4,2.74,0,1.98,2.65,2.42,2.65s-.03-2.65,1.81-2.65c2.71,0,6.12,6.99,3.04,6.99-1.33,0-.26-1-.28-1.18h0Zm-6.6,14.93l1.53.16.92-1.61.9,1.59,1.55-.14-.72,1.34,1.16,1.21-1.48.28v1.66l-1.41-1.05-1.4,1.05v-1.66l-1.48-.28,1.16-1.21-.72-1.34h0Zm-11.21-18.88l1.53.16.92-1.62.9,1.6,1.55-.14-.72,1.33,1.16,1.21-1.48.28v1.65l-1.41-1.05-1.41,1.05v-1.65l-1.48-.28,1.16-1.21-.72-1.33h0Zm-1.64,26.88v-18.56h9.94v18.56h-9.94Zm22.83-24.33l1.17-1.21-.73-1.33,1.53.16.91-1.62.91,1.6,1.55-.14-.72,1.33,1.16,1.21-1.48.28v1.65l-1.41-1.05-1.4,1.05v-1.65l-1.49-.28h0Zm5.94-6.82h-8.18v-19.56h8.18v19.56h0Zm63.15-22.11v-.05h-94.58v.05h-.02l.07,76.38c0,7.37,3.12,13.82,7.43,15.8l36.38,21.73c.8.91,1.99,1.49,3.31,1.49,1.16,0,2.18-.45,2.96-1.15l36.94-22.07c4.31-1.98,7.44-8.43,7.44-15.8l.07-76.38h-.01Z"/>
  <path class="cls-3" d="m623.44,331.33c-.14-.3-3.61,1.15-2.62,1.06.1-1.02,2.02-3.11,2.88-3.88-.16-1.21-1.71-.11-3.32.73,5.39-7.72,1.93-4.55-1.08-4,4.81-5.18,3.54-5.09,0-3.48,2.79-2.21,3.38-4.84,2.95-5.6-2.61,3.48-5.02,2.94-5.02,6.17,0,2.12-.77,5.61-1.85,6.79-1.41,1.52-.33-5.7-4.02-5.7-1.18,0-3.97-.09-4.81,1.35.75,0,1.88,1.92,1.88,2.68s.7,2.86-.57,2.86-2.72-2.66-2.72-3.93-.09-.97-.09-2.8c0-3.05-4.97-7.35-7-7.35,0,2.13,2.78,2.64,2.78,5.35-1.18,0-2.86-2.21-2.86-.84s1.77,1.61,1.77,2.8-2.03-.43-2.03.85c0,1.12,1.11.93,1.38,2.03-.82-.23-1.56-.13-1.71.29-.13.37.25.85.86,1.19-.28.26-.53.89-.53,2.68,0,6.03,3.78,8.83,6.56,8.83,1.97,0,1.67-1.38,1.91-2.04.08,1.02,1.06-.51,1.06,1.28s-1.92,1.05-1.92,2.66c0,2.16,3.03-.08,3.03,2.31,0,2.89-.36,2.83-.36,3.93,0,.76,3.18-1.06,2.98-1.38.76.27.73,2.52,2.14,2.46.91-.04,1.11-2.3,1.83-2.49-.42.11,2.87,2.15,2.87,1.12,0-2.81-1.16-1.62-1.16-3.55,0-1.78,3.9-1.43,3.28-2.35-.52-.76-.87-.3-1.28-1.62.07.25-3.07-4.47.65-2.04,3.9,2.55,4.35-5.93,4.14-6.38h0Z"/>
  <path class="cls-3" d="m724.34,351.31c1.72,0,3.11-1.23,3.11-2.74s-1.39-2.74-3.11-2.74-3.11,1.23-3.11,2.74,1.39,2.74,3.11,2.74h0Z"/>
  <path class="cls-3" d="m711.76,358.78c1.72,0,3.11-1.23,3.11-2.74s-1.39-2.74-3.11-2.74-3.11,1.23-3.11,2.74,1.39,2.74,3.11,2.74h0Z"/>
  <path class="cls-3" d="m562.26,376.02c1.71,0,3.11-1.23,3.11-2.74s-1.4-2.74-3.11-2.74-3.11,1.23-3.11,2.74,1.4,2.74,3.11,2.74h0Z"/>
  <path class="cls-3" d="m571.95,376.86c1.72,0,3.11-1.23,3.11-2.75s-1.39-2.74-3.11-2.74-3.11,1.23-3.11,2.74,1.39,2.75,3.11,2.75h0Z"/>
  <path class="cls-3" d="m841.09,246.41c4.62,5.48,5.61,14.29,2.31,20.6-1.81-.17-1.48-2.49-1.81-3.82-3.3-6.15-5.94-13.95-2.97-20.93,2.15.33,1.32,2.99,2.48,4.15h0Z"/>
  <path class="cls-3" d="m446.17,253.88c-.99,3.99-.99,9.47,0,13.13-.82.83-.66-.83-1.48-.67-6.43-4.65-3.46-13.79-5.11-20.27.33-.5,1.15-.66,1.64-.33,2.97,2,4.29,4.82,4.95,8.14h0Z"/>
  <path class="cls-3" d="m855.28,254.38c.98,1.83-.83,3.66-2.15,4.48-1.48.33-3.13-.5-4.13-1.83-.49-1.82.49-3.49,1.99-4.32,1.64-.16,3.29.17,4.29,1.67h0Z"/>
  <path class="cls-3" d="m436.11,261.69c-.33,1.49-.82,2.99-2.14,3.65-.99,0-2.48,0-3.14-.82-.99-.83-1.16-2.33-.67-3.49.67-1.16,1.98-1.33,3.14-1.49,1.16.5,2.31.83,2.81,2.16h0Z"/>
  <path class="cls-3" d="m861.71,264.52c.32,1,.32,1.66,0,2.66-1.15,1.49-2.81,2.16-4.45,1.49-1.16-.66-1.49-1.83-1.81-2.83.32-1.32,1.65-2.49,2.8-2.99,1.48,0,2.47.83,3.46,1.67h0Z"/>
  <path class="cls-3" d="m852.3,264.69c1.32.66.33,2.32.17,3.32-.82.83-1.97,2.16-3.46,1.66-.83-.83-1.81-.83-2.14-1.99,0-1.66.66-3.32,2.3-3.82,1.33-.33,2.15.33,3.13.84h0Z"/>
  <path class="cls-3" d="m840.27,267.18c0,1.83.16,4.15-1.98,4.49-1.98.66-3.3-1-3.79-2.33-.17-1.67.82-3.33,2.47-3.99,1.32,0,2.48.83,3.3,1.83h0Z"/>
  <path class="cls-3" d="m454.09,268.01c.5,1.66-1.15,2.66-2.14,3.49-1.16.33-2.64-.67-3.31-1.83-1.15-1.16.33-2.16.66-3.16,1.65-1.5,4.12-.33,4.78,1.5h0Z"/>
  <path class="cls-3" d="m444.19,268.51c0,1.32-.66,2.66-1.81,3.16-1.32.5-2.64-.5-3.31-1.5-.82-1.66.17-3.16,1.49-3.82,1.82-.67,2.97,1,3.63,2.16h0Z"/>
  <path class="cls-3" d="m800.35,269.17c1.65,3.49,2.97,7.64,3.3,11.96-.66,3.16.49,7.31-1.82,9.47-2.31-.83-2.47-3.66-3.96-5.15-2.97-5.82-.33-12.63.67-18.28,1.32-.5,1.32,1.17,1.81,1.99h0Z"/>
  <path class="cls-3" d="m436.44,271.17c.49,1.99-.99,2.99-2.14,4.15-1.98.5-3.3-.99-4.13-2.33-.17-1.66.83-3.32,2.15-3.98,1.65-.17,3.3.66,4.12,2.16h0Z"/>
  <path class="cls-3" d="m826.41,275.98c2.14,4.82,2.3,10.64.82,15.95l-.99.83c-2.31-4.49-5.61-8.64-6.76-13.46,0-3.49.66-6.64,1.98-9.48,1.16-.82,1.82.17,2.31,1.17.16,1.83.99,3.99,2.64,4.98h0Z"/>
  <path class="cls-3" d="m847.2,272.99c-.17,1.66-.82,3.49-2.48,3.99-1.65.34-3.29-.17-3.79-1.99-.49-1.66.5-3.15,1.81-3.99,1.82-1,3.64.67,4.46,1.99h0Z"/>
  <path class="cls-3" d="m444.36,278.14c0,1.33-1.15,2.82-2.48,3.16-1.32,1-2.3-.67-3.46-1.16-.5-1.33-.83-2.49,0-3.82.5-1,1.65-1,2.64-1.33,1.49.83,2.96,1.5,3.3,3.16h0Z"/>
  <path class="cls-3" d="m451.62,277.31c.66,1.66-1.16,2.49-1.82,3.32-1.98.67-2.97-.83-3.79-1.99-.33-1.67.66-2.66,1.82-3.66,1.98-.5,2.97.83,3.79,2.33h0Z"/>
  <path class="cls-3" d="m851.81,276.81c-.17,2.16-3.47,4.32-3.8,6.48-1.81,4.48-5.77,7.81-10.22,9.3-.99.83-2.31,1.99-3.8,2.16-.33-3.32,2.64-6.31,4.45-9.3,3.46-4.49,8.26-7.31,13.36-8.65h0Z"/>
  <path class="cls-3" d="m441.06,283.79c2.47,2.82,3.79,5.32,6.76,7.81.17.67-.33,1.66-1.16,1.66-8.08-.5-13.52-8.8-17.48-14.62.5-1.83,2.64-.33,3.8-.5,2.8,2.16,5.94,2.82,8.08,5.65h0Z"/>
  <path class="cls-3" d="m854.12,286.11c-.33,7.14-3.79,14.45-10.23,17.95-1.82.66-3.8,2.49-5.61,1.33,3.46-7.14,8.75-12.96,14.52-19.28h1.32Z"/>
  <path class="cls-3" d="m822.45,290.94c.49,2.49-.83,3.99-2.8,4.82-1.82.16-2.97-1.33-3.8-2.66-.16-1.66.83-3.16,2.31-3.66.49-.5,1.32-.5,1.98-.5.99.33,1.48,1.16,2.31,1.99h0Z"/>
  <path class="cls-3" d="m431.98,292.43c3.14,2.16,5.94,5.15,8.91,7.81-2.14,1.5-4.78.17-7.26.17-5.6-1.99-9.4-6.81-15.17-8.47.16-1.83,2.31-1.16,3.46-1.66,3.63-.33,6.6,1.33,10.06,2.16h0Z"/>
  <path class="cls-3" d="m608.65,243.25c-9.23-3.66-15.34,5.98-24.74,4.82-1.15.67-.82,1.83-1.48,2.66-.49.5-1.33.17-1.82-.17-.49-3.99-1.81-7.64-2.31-11.47-.99-1.66-.49-3.98-1.32-5.65-5.27-14.45,12.87-3.49,16.49-11.96,3.14-7.31-6.1-8.14-8.9-13.29v-2.17c-2.64-2.66-5.44-3.48-7.1-6.98,1.16-4.15,1.66-8.64.49-12.79-.16-1-.82-2.33-2.3-1.83-3.14,4.32-5.45,7.81-8.42,11.96-3.14-2.33-6.1-5.32-9.73-7.31-2.47-.33-4.78-2.82-7.59-1.83-.49,1,0,1.83.49,2.49.16,6.48,3.46,11.64,8.08,16.29l.5,2.49c-2.97,6.81-2.15,14.62-2.97,21.93-7.43,18.94-19.47,37.21-35.8,50.34-9.4,10.64-20.62,20.94-22.11,35.56-.49,2.33.34,5.15-1.48,6.81-5.45-1.99-10.89-4.65-15.34-8.14-7.59-5.32-18.47-4.65-23.43-14.29-1.98-3.82.5-7.64,2.31-10.47,5.6-5.32,4.78-14.79,1.82-21.26-.66-.17-.83.66-1.32.82-.5,9.81-8.25,16.62-5.28,27.42.66,3.15,2.31,5.15,3.14,8.14-1.16-.33-2.8-.33-3.8-.83-3.63-.5-7.26-1.99-11.05-1.5-7.59,3.49-17.98-.83-24.08,6.15-.99.17-2.31.33-1.98,1.83,3.63,0,7.09.99,10.72.83,5.77.99,9.56-3.83,13.52-5.98h.99c1.65-1.67,4.46-.67,6.61-1,10.39,1.17,18.47,6.15,27.05,11.3v.66c-3.3,1.5-7.09,2.49-10.39,4.32-3.79,2.83-8.08,6.48-9.24,11.14-2.64,4.15.83,7.81,2.48,11.29.16,1.66.33,3.66,1.81,4.32,5.28-5.65.33-12.63,1.16-19.11,1.32-4.98,5.94-7.31,10.73-8.64,9.4-3.99,16.17,3.66,23.75,7.98-.16,7.64.83,14.95-.82,22.43-2.31.83-5.28,1.33-7.76,1.17-13.03.99-23.26,8.14-34.97,12.13-5.28,1.83-11.55,1.66-16.83,3.66,4.12,1.16,8.41-.33,12.7-.5,16.16-2.33,28.53-14.79,46.02-12.63l.32.5c-1.97,4.15-4.61,7.64-7.75,10.8-.5-1.83-.66-3.32-2.31-4.32-1.32-.66-2.81,0-3.79,1.33-.5.83-.5,1.82,0,2.49.82,1.49,2.14,1.83,3.63,2.33-.33,1.49-2.15,2.16-3.14,3.49-4.62,7.81-14.02,4.65-19.47,10.13-.82,1.17-3.79,1.83-2.47,3.66,6.27.66,12.37-1,16.99-4.33,6.11-6.81,12.54-13.29,18.64-19.77.99,5.32-.5,10.8-3.63,15.12-1.49-.83-2.64-1.99-4.46-2.49-1.65.34-2.8,2-2.97,3.33.66,1.16,1.32,2.49,2.47,3.33-5.6,3.98-12.7,4.32-19.13,6.14-12.04,1.49-23.75,2.49-35.96,2.66-5.77-.33-12.37,1.66-17.81,0-6.27,1.17-13.03-.83-18.15,2.66-.66.83.16,1.66.16,2.49,7.59,4.99,17.99,1,26.57,2.5h64.99c4.79-.17,9.57-.33,13.36-2.5,8.42-4.82,13.03-13.46,17.33-21.93,1.65-2.99,2.81-6.48,3.46-9.97,1.64-5.65,6.76-9.64,12.37-10.14.83,8.64-.82,17.28-2.8,25.26-.99,5.32-4.46,10.47-2.31,16.12.5,2.66,3.31,2.66,5.45,2.99,19.96-.33,39.92-1.17,61.04.33,3.8.66,7.1,1.82,11.22,1.66.33-.5,1.48-.67.99-1.66-.49-1.84-1.81-4.15-3.96-4.66-.33-.99-1.81-.66-2.31-1.33-10.55-5.98-23.26-2.82-35.63-2.66-6.43.66-12.87,1.82-18.31-1.83-2.47-2.99-.66-12.46-.66-12.46,0-3.76,9.08-29.91,10.23-32.07.32-2.49,1.32-4.82.99-7.64,1.31-3.32.99-7.64.99-11.29.66-5.32,3.3-10.3,5.11-15.45.99-2.49,1.82-5.15,2.8-7.64.99-3.16,1.33-6.15,3.3-8.64,5.38,3.41,10.65,3.31,13.23,9.42l2.27,13.84c0,.83.66,2.49,1.81,1.5,4.29-2.83,2.97-9.14,2.97-13.46.99-5.15-2.64-7.64-4.12-12.13-1.16-.83-3.05-4.79-3.05-4.79-.67-3.66-8.66-6.17-6.85-10.66.99-3.82,1.98-7.31,5.61-9.47.53.37.76.77.82,1.18l1.98-1.38.21-13.9c5.34-.02,13.32.67,18.76.67,1.49.5,2.65,1.66,4.29,1.83l1.32-1.83,13.37-2.6c-5.68.63-9.13-5.89-14.53-5.89h0Z"/>
  <path class="cls-3" d="m623.18,249.14c.4-.04.81-.12,1.23-.24l-1.23.24h0Z"/>
  <path class="cls-3" d="m479.5,295.42c.16,1.99-1,3.16-2.48,3.82-1.32-.5-2.3-.66-3.13-1.99-.66-1.83.99-3.16,2.3-3.83,1.32.33,2.97.5,3.31,2h0Z"/>
  <path class="cls-3" d="m468.78,295.42c.99.99,1.15,2.66.66,3.82-1.15.99-2.97,1.83-3.96.5-.99-1-1.97-2.16-1.15-3.49,1.15-1.17,3.14-2.16,4.46-.83h0Z"/>
  <path class="cls-3" d="m698.4,297.25c.05.08.1.16.15.24"/>
  <path class="cls-3" d="m824.09,300.07c.67,1.83-.82,3.16-2.14,3.82-1.65-.5-3.79-.83-3.79-2.99.17-1.33,1.32-2.16,2.47-2.49,1.48-.5,2.8.67,3.46,1.66h0Z"/>
  <path class="cls-3" d="m832.85,299.74c.49.83,1.65,2.16.32,2.99-.66.5-1.16.66-1.66,1.33-1.81.33-3.46-.33-3.96-1.99-.33-1.83,1.15-2.66,2.47-3.49,1.15-.33,1.98.5,2.81,1.16h0Z"/>
  <path class="cls-3" d="m427.36,301.73c-.65,1.99-2.31,2.83-4.45,2.16-.5-.5-.99-1.33-1.32-2.16.16-1.17.5-2.33,1.82-2.83,1.98.17,3.46,1,3.95,2.83h0Z"/>
  <path class="cls-3" d="m482.96,304.56c-.17,1.33-1.65,2.49-2.8,3.16-1.66.16-2.81-1.17-3.64-2.33,0-1.33.66-2.99,1.98-3.32,1.82-.67,3.8.67,4.46,2.49h0Z"/>
  <path class="cls-3" d="m473.23,303.4c.5.5.99,1.83.5,2.66-.99.83-2.48,2.32-4.12,1.33-1-.83-2.15-1.49-1.82-3.16.66-.66,1.49-1.66,2.48-1.99,1.32-.33,1.98.5,2.97,1.16h0Z"/>
  <path class="cls-3" d="m858.08,305.39c0,1.33-1.32,2.66-2.15,3.16-1.32.5-2.8.17-3.63-.83-.99-.33-.66-1.66-.66-2.49.82-1.16,1.98-1.83,3.14-2.16,1.48.33,2.47,1.33,3.3,2.33h0Z"/>
  <path class="cls-3" d="m868.63,306.88c-.49,1.49-1.65,2.82-3.13,2.99-.99-.17-2.81-.5-2.47-2,0-1.16.66-2.32,1.48-2.66,1.65-.83,3.63,0,4.12,1.66h0Z"/>
  <path class="cls-3" d="m446.17,309.21c.33,1.99-.32,3.32-1.98,3.99-1.15.66-2.31-.17-3.13-.83-.83-.83-1.48-2.16-.83-3.32.33-1.49,1.82-1.17,2.81-1.83,1.48.17,2.31.83,3.13,1.99h0Z"/>
  <path class="cls-3" d="m454.26,310.71c.49,1.33-.99,1.83-1.32,2.82-.82.5-1.98,1-2.97.33-1.16-1-2.48-2.49-1.32-3.98,1.32-2.49,4.78-1.17,5.61.83h0Z"/>
  <path class="cls-3" d="m848.34,309.88c.17,1.66-1.31,2.82-2.31,3.82-1.48.33-2.97-.67-3.3-1.99-.16-1.33.67-2.33,1.82-3.16,1.48-.17,2.97,0,3.79,1.33h0Z"/>
  <path class="cls-3" d="m861.88,312.53c-.34,1.49-.17,3.16-1.82,4.15-1.33.33-2.97.17-3.96-.66-.99-.83-1.16-2.32-.66-3.49.82-1.33,2.31-2.33,3.95-1.99,1.16.67,1.49,1.49,2.48,1.99h0Z"/>
  <path class="cls-3" d="m439.91,316.02c.65,1.33-.83,1.66-1.32,2.33-1.15.67-2.31.17-3.3-.33-1.16-.67-.66-2.32-.5-3.16,1.48-2.83,4.46-.83,5.12,1.16h0Z"/>
  <path class="cls-3" d="m851.48,319.18c.66.17.33,1.17.17,1.49-3.96,2-9.9,2.49-13.36-.66-1.98-1.66-4.45-2.33-6.6-3.66.82-2.16,3.79-1.99,5.94-2.49,4.78.67,8.58,5.15,13.85,5.32h0Z"/>
  <path class="cls-3" d="m447.82,317.68c.33,1.33-.66,1.83-.99,2.83-.66,1-1.98.66-2.81.33-1.48-1-2.14-2.83-1.16-4.16,1.82-1.82,3.96-.82,4.95,1h0Z"/>
  <path class="cls-3" d="m462.34,318.68c.66,1.49-.33,2.82-1.65,3.65-1.16.67-2.14-.33-3.14-.5-.82-1.17-2.31-2.49-.82-3.82,1.49-2.49,4.45-1.17,5.61.67h0Z"/>
  <path class="cls-3" d="m653.06,325.71c-.31,3.31-5.79-.47-5.02,3.95.79,3.16,1.41,6.94,3.29,9.31,1.56,2.21.78,5.69.62,8.37-1.41,2.37-3.76,4.11-6.26,5.37-4.7-.47-11.6,2.36-13.8-3.47-.94-2.53-2.67-5.05-2.67-7.89.47-.32,1.1-.32,1.57-.79,0-1.1-1.25-1.74-1.1-2.84,5.33-.95-2.19-5.68,2.35-6,3.76,3.94,9.87,2.68,13.17,6.94.79.63,1.41,1.58,2.35,2.05-.63-3.95-2.51-7.89-3.13-12.16-.47-2.2.31-4.26,1.88-5.52,2.82-2.21,5.17.95,6.74,2.68h0Z"/>
  <path class="cls-3" d="m476.86,324.66c.5,1.66-.82,2.66-1.82,3.49-1.48.66-2.31-1-2.97-1.83-.5-1.66.66-2.49,1.65-3.32,1.15,0,2.47.5,3.14,1.67h0Z"/>
  <path class="cls-3" d="m578.64,326.32c1.98,6.49,1.32,13.13-1.98,18.61-.16,1.32.33,3.48-1.48,3.32-4.45-6.14-1.16-14.79.66-21.27.33-1.66,2.31-2.32,2.8-.67h0Z"/>
  <path class="cls-3" d="m719.84,329.48c2.3,4.65,2.47,10.8.33,15.46l-1.33,1.32c-1.81-3.82-3.3-7.64-3.79-11.79.83-2.99,1.81-5.65,1.98-8.8,2.31-.5,2.14,2.49,2.8,3.82h0Z"/>
  <path class="cls-3" d="m489.72,331.31c-.99,1.99-3.79,2.49-5.61,3.82-3.95,2.99-9.73,3.66-14.68,2.83,4.29-5.98,10.88-9.47,18.8-7.81.33.66,1.16.33,1.49,1.16h0Z"/>
  <path class="cls-3" d="m421.92,337.29c6.1,4.32,7.75,10.3,11.38,16.28.49.67,2.14.83,1.49,2.16-1.32,1-2.64-1-4.46-.67-6.27-2.82-10.23-9.8-10.06-17.11,0-.66.99-.66,1.65-.66h0Z"/>
  <path class="cls-3" d="m713.41,342.44c.17,1.66-.17,3.32-1.49,3.82-1.81.5-3.3-.5-3.79-1.99-.49-1.16.49-1.83.83-2.66,1.31-1.33,3.62-.67,4.45.83h0Z"/>
  <path class="cls-3" d="m783.03,351.25c0-3.16.82-6.15,1.15-9.14.5-1,.83-2.16.67-3.49,3.96-5.32,12.04-3.66,18.31-3.16,2.48,1.33,5.61,1.17,8.25,1.83,1.16-.83,2.8-1,4.13-.83,5.27-2.83,1.81-8.97,2.14-13.79l-1.98-4.99c-.5-1-1-2.16-1.33-3.32-.99-1.16-1.64-3.32-2.64-4.48-2.8-7.31-8.25-11.47-12.87-17.28-8.41-10.97-21.61-17.11-34.81-21.43-13.03-4.49-26.23,1.33-37.94,5.48-3.63-1-5.44-3.82-6.43-6.98-.67-6.31.66-12.46,3.14-17.61.49-4.15,3.29-7.31,4.45-11.13,2.97-9.3,6.1-18.44,6.76-28.58.33-6.15-4.29-10.47-8.91-13.13-3.14-.83-6.77-.66-9.07,1.83-2.15,4.48-6.77,7.48-10.73,9.64-.33,2.82,3.13.99,4.29,1.99,3.63.66,7.76-.5,10.73,1.83.33,6.64-3.47,12.13-6.93,17.11-5.61,8.31-11.55,16.78-15.01,25.92l-.66-.67.8,40.61c5.26,8.75,11.82,18.73,21.63,22.03,5.27,4.32,11.87,9.47,18.96,5.65,3.79-1.16,4.13,4.15,5.94,6.32,1.98,6.15-2.47,10.47-2.8,16.11l-4.29,9.14c-4.94,9.64-9.4,19.94-16.99,28.08-2.47,0-3.96,2.65-6.43,2.82-1.32,1.83-3.96.5-5.61,1.16-5.12,2.16-12.38.83-15.84,5.65.33.5.82.67,1.32.83,10.06.16,21.28.83,32,.33,1.32-.5,2.48-1.67,2.64-3.16-1.48-2.83.5-5.32,1.82-7.48.82-3.99,3.46-6.48,4.62-10.3,3.46-6.81,7.42-13.45,11.22-20.27l5.12-8.31c1.16-2.83,3.13-6.32,5.11-9.3,1.32-1.33,1.98-2.83,2.97-4.48.17-1.67-.66-2.33-1.65-3.49,1.16-1.17,2.97-.83,4.46-1.17,4.13,2.49,8.42,6.48,9.24,10.97l1.48,4.32.66,2-.33,5.48.67,5.15c.82,7.98-.67,16.12-1.49,24.1-2.81,9.63-13.86,8.64-21.78,10.8-1.98,1.33-5.76.67-5.76,3.99,9.56,2,20.78.83,31.01.67,1.65-.67,1.98-2.16,2.8-3.66.33-2.16,2.47-3.99,1.81-6.31-1.81-2.33-.16-5.98-.66-9.14.33-.83.33-1.99,0-3.16,1.32-4.82.99-10.63,1.98-15.29l.66-6.31h0Z"/>
  <path class="cls-3" d="m864.18,344.77c-5.28,7.47-10.89,15.95-20.12,18.6-.67,0-1.33.33-1.66-.5,5.61-5.98,8.59-15.29,17.33-17.44,1.32-.66,3.14-1.33,4.45-.66h0Z"/>
  <path class="cls-3" d="m413.84,352.91c-.82.66-.16,2.16-1.65,2.33-1.32.67-2.8-.17-3.46-1.5-.67-1.66.82-3.32,2.14-3.66,1.32.67,2.64,1.17,2.96,2.83h0Z"/>
  <path class="cls-3" d="m461.35,355.23c.49,1.49-1.16,1.49-1.98,1.83-6.93,2.49-14.02.16-18.97-4.82,0-.66,0-1.33.66-1.49,6.76,1.66,14.68.33,20.29,4.49h0Z"/>
  <path class="cls-3" d="m422.92,353.07c.33.66.5,1.83.33,2.49-.99,1.5-2.48,1.83-4.12,1.5-.99-.5-1.49-1.16-2.15-2.16.17-1.66,1.49-2.66,2.8-3.16,1.32.16,2.32.5,3.14,1.33h0Z"/>
  <path class="cls-3" d="m577.48,353.91c.33,1.49-.99,2.49-1.97,3.16-1.49.33-2.81-.33-3.46-1.33-.49-1.16,0-2.82,1.15-3.16,1.48-.33,3.79-.16,4.28,1.34h0Z"/>
  <path class="cls-3" d="m870.45,354.57c.5,1.66-.99,2.49-2.14,3.48-.99.5-2.15,0-3.14-.5-.16-.83-1.15-1.49-.82-2.66.66-1.49,2.14-2.16,3.79-1.99.82.66,1.48.83,2.31,1.67h0Z"/>
  <path class="cls-3" d="m881.34,353.91c.99,1.49.16,2.66-.66,3.82-.66,1.16-1.98,1.49-2.97,1-.99-1-2.31-1.5-2.47-2.99,0-1.33,1.48-2.32,2.47-2.82,1.65-.67,2.31,1,3.63,1h0Z"/>
  <path class="cls-3" d="m406.91,358.72c.17,1.16-.82,1.83-1.15,2.82-.82.33-1.65,1-2.64.67-1.16-.5-1.98-1.49-2.47-2.66.33-1.49,1.31-2.82,2.96-3.32,1.32.33,2.81.99,3.3,2.49h0Z"/>
  <path class="cls-3" d="m754.32,358.72c.33.67.17,1.49.17,2.16-.99,1.33-2.31,2.49-3.96,1.66-.99-1-2.15-1.99-1.65-3.49,1.33-1.83,4.13-2.49,5.44-.33h0Z"/>
  <path class="cls-3" d="m433.47,361.22c-.33,1.16-.82,2.32-2.31,2.49-1.48.17-1.98-1.16-2.8-1.82,0-1.49-.17-2.99,1.32-3.82,1.98-.67,3.79,1,3.79,3.16h0Z"/>
  <path class="cls-3" d="m417.64,361.55c.49,1.67-.66,2.82-1.65,3.66-1.98.67-3.63-.83-4.45-2.33.16-1.49,1.32-3.32,2.96-3.82,1.49,0,2.32,1.67,3.14,2.49h0Z"/>
  <path class="cls-3" d="m765.21,361.22c.33,1.66-.17,3.32-1.82,3.98-1.98.67-3.63-1-4.45-2.33.82-1.33.99-3.16,2.97-3.48,1.48,0,2.48.66,3.3,1.83h0Z"/>
  <path class="cls-3" d="m425.39,361.88c.5,1.16-.49,1.66-.83,2.49-.82,0-1.31,1-2.3.67-.66-.83-1.98-1.16-2.14-2.32-.16-1.67.99-2.49,2.14-3.16,1.65-.16,2.64,1,3.14,2.33h0Z"/>
  <path class="cls-3" d="m861.38,363.21c-.49,1.32-1.48,1.99-2.8,2.66-1.32.33-2.15-.83-3.13-1.33-.83-.66-.5-2.16-.16-2.99,1.65-2.82,6.1-1.49,6.1,1.67h0Z"/>
  <path class="cls-3" d="m873.92,363.87c-.5,1.83-2.31,2.66-3.96,2.82-1.48-.66-3.14-1.82-1.98-3.82.66-.66.99-1.33,1.98-1.49,1.98-.66,3.46.83,3.96,2.49h0Z"/>
  <path class="cls-3" d="m795.56,365.03c.83,2.16-1.15,2.83-2.47,3.82-1.16-.17-2.15-.66-3.14-1.33-.33-1.83.49-3.49,2.32-4.32,1.48,0,2.3.66,3.29,1.82h0Z"/>
  <path class="cls-3" d="m750.2,367.03c.82.33.49,1.49.32,1.99-.99.67-2.3,2.33-3.79,1.33-1.16-.66-1.98-1.66-1.65-3.16.83-1.83,4.29-1.99,5.12-.17h0Z"/>
  <path class="cls-3" d="m759.43,368.19c.17,1.32-.16,1.99-1.32,2.66-1.16,1.16-2.47-.17-3.63-.5-.33-.66-.66-1.66-.17-2.49.49-.67,1.32-1.17,2.14-1.33,1.16.34,2.48.34,2.97,1.67h0Z"/>
  <path class="cls-3" d="m479.5,368.36c.98.99-.17,2.16-.33,3.16-.83.99-2.64,1.82-4.13.83-1.65-.66-1.48-2.83-1.15-4.15.99-.33.99-1.5,2.3-1.5,1.49.17,2.31.83,3.31,1.66h0Z"/>
  <path class="cls-3" d="m813.21,369.02c.33,1.66-1.32,2.33-2.47,2.66-1.98.66-2.97-.83-3.79-2.16,0-1,.99-1.66,1.32-2.49,2.31-1,3.8.67,4.95,1.99h0Z"/>
  <path class="cls-3" d="m804.3,369.02c.66,1.66-1.16,2.49-1.81,3.32-1.16.5-2.64.33-3.63-.66-.83-.5-.83-1.49-.83-2.49.99-.83,1.49-1.83,2.65-2.16,1.48,0,2.97.83,3.62,1.99h0Z"/>
  <path class="cls-3" d="m878.7,371.02c.32,2.32-2.64,1.16-3.79,1.83-6.93,4.15-15.84,1-22.44-1.49.49-2.16,2.97-1.33,4.3-2.16,7.09-4.49,14.35,1,21.43,1.33l.5.5h0Z"/>
  <path class="cls-3" d="m427.2,369.02l-.66,1.17c-6.1,3.65-14.02,6.15-21.28,3.82l-.66-1c6.1-4.49,14.18-5.65,22.11-4.49l.49.5h0Z"/>
  <path class="cls-3" d="m830.04,370.19c0,1.33-.66,2.49-1.66,3.15-1.64.5-3.79,0-4.29-1.82-.49-1.33.83-2.66,2.15-3.16,1.16,0,3.14.17,3.8,1.83h0Z"/>
  <path class="cls-3" d="m456.73,370.85c-.66,1.33-.33,2.66-1.98,3.32-1.65.67-3.63-.83-4.12-2.16-.5-1.82.82-2.32,1.65-3.16,1.98-.99,3.46.5,4.45,1.99h0Z"/>
  <path class="cls-3" d="m445.02,371.68c.49,1.16-.5,1.83-.83,2.66-.83,1-2.31.83-3.3.5-1.15-1-2.31-2.16-1.82-3.99.99-.83,1.49-1.33,2.64-1.83,1.49.33,2.97,1,3.3,2.66h0Z"/>
  <path class="cls-3" d="m841.59,375.5c-.16,1.49-1.32,2.66-2.64,2.99-1.32.17-2.47-.83-3.14-1.66-.5-1-.33-2.33.66-3.16.33-.5,1.48-.5,2.14-.83,1.48.17,2.64,1.33,2.97,2.66h0Z"/>
  <path class="cls-3" d="m432.81,373.68c.49,1.33-.66,1.82-.83,2.82-.5,2.83-2.31,4.65-3.63,7.14-3.14,3.82-7.59,3.82-12.04,4.98l-.66-1.33c4.78-6.15,9.9-10.97,16.66-13.96l.5.34h0Z"/>
  <path class="cls-3" d="m833.34,377.33c.33,1.99-1.33,2.33-2.47,3.15-1.48,0-2.64-.82-3.3-1.99-.49-1.83,1.15-2.49,2.15-3.32,1.65-.33,3.14.83,3.63,2.16h0Z"/>
  <path class="cls-3" d="m451.78,377.33c-.16.33.17.66.5.83-.17,1.83-1.49,2.32-2.48,3.16-1.49,0-2.64-.5-3.63-1.66-.66-1.5,0-3.33,1.65-3.83,1.48-.17,3.46,0,3.96,1.5h0Z"/>
  <path class="cls-3" d="m863.69,382.32c1.64-.17,1.97-2.16,3.79-2.49,1.65-.33,3.13.66,3.96,1.83.66,1.99-.83,2.99-2.15,3.82-1.16.83-3.63-.99-3.47,1.16,1.16.83,2.15,1.99,2.32,3.33-.33.66-1.48.5-1.98.17-4.79-1.99-9.9-5.32-11.88-10.3-.66-1.5-3.79-2.66-1.98-3.99,4.79-.33,8.75,3.49,11.39,6.48h0Z"/>
  <path class="cls-3" d="m879.53,377.17c.82.82.49,2.33-.17,3.16-.83,1.66-3.3,1-4.78.83-.83-.83-1.66-1.66-1.33-2.99.66-.99,1.33-1.66,2.48-2.16,1.48-.33,2.64.33,3.79,1.17h0Z"/>
  <path class="cls-3" d="m819.65,386.14c1.48,1.83,2.97,4.65,3.63,6.64-.33.5-1.16.33-1.48.33-5.6-3.16-12.86-6.64-15.01-13.29-.49-.67-1.82-1.5-1.65-2.66,4.29-.83,8.41,2.33,11.38,4.65,1.15,1.67,2.47,2.49,3.14,4.32h0Z"/>
  <path class="cls-3" d="m442.55,379.83c.66,1.49-.67,2.66-1.49,3.32-1.82.34-2.81-.33-3.8-1.33-1.15-1.82.99-3.32,2.32-3.99,1.32-.17,2.14,1.17,2.97,2h0Z"/>
  <path class="cls-3" d="m840.27,383.64c.16,1-1.16,1.66-1.66,2.33-1.31.17-2.64.66-3.79-.5-.32-.83-1.15-2.16-.16-2.99,1.81-2.33,4.45-.5,5.61,1.16h0Z"/>
  <path class="cls-3" d="m881.34,385.97c.49,1.99-1,3.32-2.32,4.15-1.64.5-2.97-.67-3.96-1.5-.82-.99-.16-1.99,0-3.16,1.16-.99,2.64-1.83,4.29-1.16.66.5,1.32.83,1.98,1.66h0Z"/>
  <path class="cls-3" d="m767.18,408.9c0,1.99-3.63,1.5-5.11,2.99-5.12,2.66-11.22,2.66-17.32,2.49v-1c5.94-4.98,14.52-6.81,22.43-4.49h0Z"/>
  <path class="cls-3" d="m526.51,416.04c-.17,1.5-1,2.33-2.48,2.83-1.16,0-2.31-.67-2.81-1.66-.66-1.99.99-2.82,2.14-3.66,1.49.17,2.81,1.33,3.14,2.49h0Z"/>
  <path class="cls-3" d="m764.39,417.87c-.33,1.5-.83,3.16-2.48,3.83-1.48.33-2.47-.5-3.63-1.17-.82-.66-.32-1.83-.49-2.66,1.15-2.99,5.44-2.99,6.6,0h0Z"/>
  <path class="cls-3" d="m797.21,418.53c-4.12,2.66-8.74,5.82-14.19,5.82l-8.91-.17-.83-.66c5.45-6.65,15.35-6.65,23.93-5.98v.99h0Z"/>
  <path class="cls-3" d="m481.31,422.52c0,1.5-.66,2.66-2.14,3.16-1.65.33-2.81-.33-3.46-1.49-.66-1.49,0-2.99,1.32-3.82,1.82-1.17,3.63.83,4.29,2.16h0Z"/>
  <path class="cls-3" d="m489.55,424.18c.5.83-.32,1.33-.66,2.16-.99.49-2.3.83-3.13,0-1.16-.67-1.49-1.83-.99-2.83.5-1,1.49-.83,1.98-1.5,1.15.5,2.31,1,2.8,2.16h0Z"/>
  <path class="cls-3" d="m426.38,440.97c-1.66,1.99-4.29-.5-6.11-1.5-5.78-3.32-5.6-9.8-11.38-13.62.66-1.99,2.14.17,3.3-.17.99.67,2.31,1.33,3.47,1.83,5.6,3.16,6.92,8.47,10.72,13.46h0Z"/>
  <path class="cls-3" d="m644.95,437.81c-.66,2-1.98,3.66-1.81,5.82l-.66.33c.49-2.49-1.98-3.98-1.32-6.64-1.32-1.99-1.32-4.49-2.47-6.64-1.48-2.66,1.31-3.83,2.47-5.65,2.31,1,3.14,3.16,4.78,5.15.99,2.82-1.15,4.98-.99,7.64h0Zm262.29-61.31c-2.64-4.82-7.09-6.81-12.37-6.81-4.29.33-7.42,3.16-9.24,6.81-.99,3.66.33,6.98,3.14,9.14,1.16.5,2.64.33,3.3-.83.83-2.16-1.48-2.16-1.81-3.83-.66-2.32.17-4.32,1.81-5.81,1.65-1.66,4.45-.83,6.43-.83,1.98,1.33,3.96,2.49,4.94,4.82.99,2.82.99,5.98,0,8.8-1.81,4.15-5.93,7.47-10.22,8.31-13.69,1.99-163.97,1.32-163.97,1.32-17.65,1.67-37.77-3.32-52.95,5.98-6.93,3.32-10.4,10.97-12.21,17.78-4.45,3.99-9.24,8.64-12.87,13.13l-.49-.5c.82-3.99,2.64-7.48,3.47-11.47,2.47-3.33,2.47-7.81,4.29-11.46,6.27-10.13,12.2-20.44,21.93-27.58,4.13-5.49,11.39-4.49,17.65-4.49,6.76,3.16,14.69,4.15,22.93,3.32.33-.33.49-.66.49-1.17-2.31-2.16-6.11-2.99-8.74-5.15-6.6-3.16-12.87.99-19.8.5-.33-.33-.66-.5-.49-1,6.28-4.65,13.36-7.97,20.46-10.97,5.77-3.16,11.87-4.82,17.98-7.14,2.47,0,4.79-2.16,7.09-.66l8.75-2.33c.33.17.66.66,1.32.5,7.42-2.49,16.83-.17,25.23-.33l1.16.99,7.91,1.99c2.97.33,4.29,3.82,7.42,3.99,1.66-2.33-1.81-3.32-2.64-4.82,3.63-.83,7.76.16,11.05,1.66l-1.64,1.83c-1,1.83.49,3.16,1.98,3.82,1.15.33,1.98-.5,2.79-.82,2.15-1.5-.16-2.99.5-4.32,12.21,2.16,23.92,5.15,35.14,9.97,3.13,1,6.11,3.32,9.57,3.16-3.46-3.16-8.25-4.82-12.54-6.64-2.81-1.66-6.77-1.83-8.91-4.15.49-.83,1.65-.5,2.14-1.17,5.62-.66,10.4-4.82,14.36-9.3.33-.99,2.14-.67,1.98-1.99-1.49-1.67-3.97.5-5.94.34-6.93,1.32-9.9,9.47-16.83,10.96-8.4-1.99-16.99-3.99-25.4-6.14-4.13-.67-8.58-1-12.37-2.66l-9.24-.83h-16.83c-.17-.33-.66-.5-.5-.99,5.94-1.49,11.06-4.99,17-6.48l44.21-20.27c4.62-4.15,8.75-8.81,12.54-13.63.16-1.33-.66-2.66-1.83-3.16-1.15-.5-2.47-.33-3.29.66-1.98,1.49,0,3.33,0,5.15-1.98,2.66-5.12,4.98-7.59,6.48-.66-.17-45.53,20.44-45.53,20.44-6.6,2.82-13.2,5.98-20.12,7.48l-9.57,1.49c-.66,2-2.3,3.16-4.13,3.82-2.63.5-4.78,2.16-7.58,2.16-21.45,8.31-43.72,17.11-60.71,34.06.99-1.99,1.49-4.49,1.65-6.98-.33-2.49-.16-5.31-1.82-7.31-.39-.91-1.6-3.59-1.21-4.55l-2.42,1.56c-1.48,3.66-2.81,10.3-1.32,14.13.49,2.98,2.97,6.48.66,9.13-7.91,9.64-12.38,21.27-17.65,32.23-1.98-.33-2.97-2.16-3.8-3.99,5.61-7.14,10.06-15.12,11.71-24.26,1.15-.83.33-2.99,1.48-3.99-.33-2.66,1.48-5.31.17-7.47,1.06-3.63-4.82-6.97-1.06-9.3l-3.11,1.49c-7.09,9.3,3.68,23.26-4.4,32.23v.66c-2.31,3-3.46,5.99-6.6,7.98-3.96-1.66-5.44-6.14-7.76-9.47-3.63-3.49-3.63-10.64-1.48-15.45,1.48-4.82-.99-8.97-1.49-13.29l-1.65-.99c-3.96,5.15-5.44,13.29-2.31,19.43,1.65,2.99,1.81,7.15,4.29,9.64,1.48,4.82,4.45,7.97,7.09,12.29.66,1.67-.99,1.99-1.81,2.83-1.81-1.16-1.49-3.82-3.14-4.99-5.45-11.63-12.54-20.93-21.11-30.4-.33-1.49-1.82-2.82-1-4.48,3.14-2.99,3.8-8.81,2.15-12.63-.32-.83-1.31-1.83-1.15-2.66l-2.47-1.99c.33,5.82-3.46,10.96-1.82,17.11v.33c-16.99-12.79-35.77-24.22-54.91-33.19l-1.52,4.22c4.84,1.22,17.67,9.02,17.67,9.02,5.78,2.16,11.05,5.65,16.5,8.81,22.43,12.46,37.28,33.07,47.34,56,.17,1.83,1.82,3.82.66,5.65-3.46-5.32-8.41-8.31-12.53-12.63-1.16-7.81-5.78-15.28-12.54-18.44-2.47-3.65-7.75-3.98-11.87-5.15l-60.05-.33c-48.83-.67-93.37,1.5-141.86.66-6.77-.66-15.01-2.99-16.99-10.13-1.32-2.49-1.32-6.81,0-9.13,1.81-3.16,5.11-4.16,8.41-4.49,2.64.33,4.46,2.82,5.61,4.65,0,2.16-1.82,4.15-2.65,5.98.17.66.83,1.99,1.99,1.49,2.14-.83,3.79-3.15,4.29-5.31.16-1.17.65-2.82-.5-3.66-.99-3.49-4.62-5.98-7.75-6.81-4.13-.33-8.42.83-11.22,3.82-3.96,3.33-3.79,9.31-2.64,13.96,2.64,7.31,10.39,12.3,17.82,13.29l160.51.67c15.67.83,33.32-1.83,49.16,1.33,5.78,1.83,11.88,6.14,13.36,12.63-.17.33-.66.17-1.15.17-13.04-8.47-30.19-11.63-46.86-9.64-6.6-.33-12.53,2.16-18.47,3.82-3.14.67-6.11-.84-8.09-2.66-5.94-5.32-16.33-4.99-23.92-3,0,.5-.16,1,.16,1.17,8.09-.67,12.87,6.31,20.13,7.14,1.65.33,2.97-1.5,4.45-.17-7.58,3.65-14.85,7.97-22.93,10.3-2.48-.5-3.8-2.82-5.77-4.15-3.14-3.49-8.91-1.99-13.2-2.32-1.49.33-2.8-.67-3.8,0,1.32,2.66,4.29,4.15,7.1,5.48,4.12,1.82,8.9-.17,12.7,2.32-1,1.17-2.31,1.5-3.46,2.33-7.76,2.99-14.19,9.97-22.77,9.47-9.07.99-18.31-1.66-24.41-7.98-2.64-6.48-9.4-9.97-16.66-9.63-.49.33-1.16.33-.99,1.16,3.63,2.16,6.43,6.47,10.06,8.97,2.32,2.82,6.77,0,8.91,3.16,3.14,2.16,7.1,3.99,10.73,4.65,2.64,1.16,5.61,1.66,8.58,2.32l-1.15.67c-15.01,4.98-32.33,5.48-49.16,4.82-4.95-.17-9.73-1.66-14.68-1.49.82,1,2.47,1.83,3.96,2.33-1.31.83-2.8,1.16-4.45,1.33-1.98.5-4.29.67-6.27,1.66-2.64-.17-4.95.83-7.09,1.66-2.81,2.99-6.1,6.15-9.4,7.64,0,.67-.17,1.67.66,1.67,3.14-1.33,7.09-.34,10.23-1.67,5.44-.5,8.58-6.48,12.87-8.97,4.61-3.66,11.21-2.82,16.82-1.99,3.3.83-.33,2.16.66,4.32,1.32,1.16,2.47,2.49,4.29,1.99.33-.33.66-.66,1.15-.83.99-1.33.82-2.83.16-4.15,2.31-1.5,5.45.17,7.92-.83,6.27-.17,12.54-1.5,18.64-1.67.99-.16,2.14-1.16,3.13-.16-.49,1.33-2.14,1.5-1.48,3.32.33,1.49,1.98,2.16,3.3,2.49,1.65-.66,3.13-1.83,2.47-3.98-.32-1.17-1.64-1.33-2.47-1.83,3.46-1.67,7.42-2.16,10.89-3.82,2.47-.5,4.78-1.33,6.93-2.33,2.14-.17,3.96-2.16,5.94-1.33-.83,2.82-1.98,5.48-3.47,7.98-2.63,8.81-4.61,20.44,0,28.91.5.16.67-.17,1-.33-3.46-8.8-1.49-18.94,1.48-27.25,2.31-14.12,16.83-18.28,27.22-23.6l.49.67c-2.81,7.31-6.92,14.29-6.27,23.09.33,1.49-.66,2.98,0,3.99,2.8-1.5,4.62-4.83,6.1-7.65,1.16-7.47-3.12-16.78,4.46-22.26,13.52-5.32,26.23-12.29,41.9-12.46.49.5,1.65-.33,1.81.66-3.3,3.66-8.08,7.15-9.57,11.64-5.27,7.31-5.11,19.77-2.8,28.74,1.49,5.15-2.97,7.98-5.11,11.96-1.03,1.41-1.32,3.83-2.27,5.45l3.25.36c2.81-2.99,5.45-6.65,5.61-10.97.33,1.67,1.81,2.99,3.13,3.33,1.15-1.83-.99-3.16-1.16-4.99,2.64-1.49,3.8,1.83,5.94,2.49,3.46.83,6.43,2.32,10.06,2.32l1.16-1.16c-3.63-5.65-10.89-6.65-17.16-6.98-3.3-5.48-3.3-12.29-2.97-18.94.66-3.49,1.32-7.14,3.3-10.3.83-2.33,3.14-4.48,4.62-6.31,2.97-2.83,6.76-4.82,10.39-5.65h.49c0,.33.16.5.16.5-4.45,3.48-4.94,8.31-7.58,12.62-2.81,4.16-4.13,9.8-1.48,14.45.99,2.16.49,5.48,2.8,6.98,2.14-2.99,2.31-6.81,3.46-10.14-.49-5.48-3.79-10.63-.66-15.95,1.66-4.15,5.12-5.82,8.91-7.31,9.07-.83,16.99,3.82,24.9,7.31,1.66,1.16,4.45,2.16,4.79,4.48-.17,4.49-2.63,8.98-6.1,11.13-4.46,2.66-10.89,2.99-15.02-.16-2.47-2.49-3.46-6.81-2.63-10.14,1.81-1.99,4.29-3.66,7.26-2.66,1.65.83,3.13,2.49,5.28,1.49.82-.5,1.16-1.83.66-2.66-1.81-.99-2.47-3.49-4.95-3.82-3.13-.5-6.93-.34-9.07,1.83-3.46,2.99-4.79,7.48-3.79,11.63,1.16,5.32,5.12,9.14,10.22,10.63,7.59,1.83,15.52-.5,20.29-6.98,1.98-2.16,2.47-4.48,3.63-7.15,7.91,4.82,13.85,13.3,16.99,21.94,0,2.82.83,5.81.17,8.31l5.77.5c-.49-1.32,0-2.82.5-3.98,2.15-10.97,8.91-20.11,16.98-27.25,2.81-1.66,2.15,2.16,2.81,3.32,2.47,6.32,8.25,10.8,14.35,12.63,6.92,1.16,13.53-.5,17.82-5.82,2.15-3.99,4.78-9.81,1.15-13.96-2.31-2.82-5.44-4.32-9.07-4.32-4.29,0-6.93,2.99-9.07,6.15,0,1.32-.17,2.82.99,3.49.66,0,1.98.16,2.47-.83.33-2.49,2.47-3.66,4.45-4.99,1.82-1,3.8,0,5.28,1,1.81,1.49,2.15,3.99,2.31,6.48-.33,3.16-2.47,6.48-5.44,7.81-4.79,2.49-11.72,1.33-15.85-1.5-1.98-2.16-3.13-4.65-4.62-7.31-.33-2.66-1.32-4.98,0-7.64,7.26-4.32,14.85-7.48,23.59-8.31,3.46.67,6.44,2.99,8.75,5.48,7.59,7.81-1.65,18.95,3.63,27.58,1.98-.33,1.98-2.98,2.8-4.65,2.48-5.98-.66-12.46-2.14-18.28-1.99-3.66-3.14-6.81-6.28-9.8.83-.33,1.16-.33,1.98-.33,3.46,2.32,7.26,4.98,10.06,8.64,4.78,7.81,7.27,17.11,6.43,27.25-1.31,4.98-6.6,7.31-10.72,9.13-1.65,1.34-3.63,3.33-4.45,5.32,1.98,1.16,4.78,0,6.76-.83,3.14-1.17,4.95-5.15,7.1-6.98.32.16.16.66.32,1,.17,1.82-.82,4.31.82,4.81.83-2.32,1-5.65,1.49-8.47,2.14,2.33,2.47,5.32,3.14,8.31,1.48,2.99,3.96,6.98,7.91,7.48.99-1.5-.16-2.99-.49-4.32-.49-4.15-3.96-6.32-6.27-9.31-5.78-7.98-3.14-20.43-7.59-29.4-1.65-4.82-5.12-8.31-8.91-12.3l.66-.66c8.09-.17,14.85,2.49,22.27,3.99,9.07,4.48,22.27,3.49,26.56,15.29,1.81,6.64,4.78,12.79,9.4,17.94l.49-.33c.99-1.66.99-4.49,0-6.15-.99-8.31-8.25-10.3-12.04-17.28l.49-.66c3.96,1.17,8.09,2.16,12.05,3.82,13.2,3.66,22.43,16.61,24.09,30.07,0,10.63-1.98,19.43-6.11,28.41-.49,1.33-2.8,2.83-1.32,3.99,1.82-1.32,2.15-3.49,3.14-4.98,5.44-9.13,8.24-21.76,5.44-33.39-.17-2.16-2.64-3.82-1.49-5.98.83.99,1.82,1.16,2.8,1.49,1-.67,2.48-.67,3.14-1.83.17-1,.82-2.16,0-2.99-.99-1.49-3.14-1.49-4.78-1.16-.82,1-1.82,2.32-1.98,3.65-1.64-2.82-3.3-6.47-5.93-8.8l.33-.5c7.43,2.49,14.19,6.14,21.78,8.14,1.65,1,3.46,1.83,5.78,1.83,6.43,2.49,13.52,3.48,20.29,5.15,4.95-.5,9.07,1.83,14.03.67v-.33l-.17.17c-1.82-2.33-5.77-.17-7.92-1.83-11.38-1.17-22.27-4.15-32.49-8.14.16-.5.82-.33,1.32-.33,1.65-.83,2.81-2.33,2.64-4.15-.82-1.16-2.15-1.83-3.79-1.83-.99.5-2.31,1.66-2.47,2.82.17,1.33,1.32,2.83,2.47,3.16-.32.33-.99.17-1.48.17-5.11-2.33-10.06-4.49-15.01-6.82-1.81-.33-3.3-1.83-5.11-2.16-3.79-1.82-7.59-3.66-11.39-5.15-10.55-5.49-22.26-8.48-33.48-12.46-2.47-.66-4.79-1.33-7.09-1.99-4.12-1.17-8.24-2.16-12.37-3.33-14.02-3.49-32.83-3.82-45.04,3.82-1.98-.67-3.14,2.49-4.13.5,3.47-9.14,13.52-12.13,22.59-12.46,66.15-.67,128.18-1.17,193.34-2.16,7.59,0,15.02-2.66,18.97-9.47,2.81-3.99,3.3-10.8,1.15-15.29h0Z"/>
  <path class="cls-3" d="m823.93,427.34c0,.49.99.66.66,1.49-5.77,5.15-13.85,6.65-22.1,6.98-.66.16-1.32.66-2.14.5-.49-.33-.66-.83-.33-1.16,5.94-6.48,15-9.8,23.91-7.81h0Z"/>
  <path class="cls-3" d="m797.38,430c.65,2.32-.82,3.66-2.64,4.48-1.82-.16-2.8-1.33-3.63-2.66-.49-1.32.66-1.99,1.16-2.82,1.31-1.34,4.45-1.34,5.11,1h0Z"/>
  <path class="cls-3" d="m483.79,430.33c.33,1.16.16,2.66-.82,3.49-.66.83-2.14,1-2.97.83-1.16-.17-1.82-1.49-2.14-2.49,0-1.49.82-2.33,2.14-3.16,1.32,0,2.8-.17,3.8,1.33h0Z"/>
  <path class="cls-3" d="m454.26,441.13v1.17c-3.96.83-7.75-.17-10.72-2.49-2.31-3.33-4.95-6.65-8.74-8.31,0-.5-1-1.16,0-1.49,8.25,0,13.2,6.64,19.47,11.13h0Z"/>
  <path class="cls-3" d="m849,430.17c-3.8,5.65-7.09,12.63-13.85,15.12-1.16,0-2.14,1.66-3.14.5,2.65-6.32,8.26-13.12,14.69-15.78.65,0,1.64-.17,2.3.17h0Z"/>
  <path class="cls-3" d="m493.35,432.16c.17,1.83-1.15,2.16-2.31,3.16-1.32.17-1.98-.83-2.81-1.83-.66-1.67.83-2.32,1.65-3.16,1.32-.33,2.81.66,3.46,1.83h0Z"/>
  <path class="cls-3" d="m869.79,433.16c-1.48,2.16-.82,5.32-2.3,7.65-3.3,3.82-6.11,8.13-11.39,8.97-.82-1.66,1.16-3.32,1.98-4.82,2.31-4.98,5.61-10.63,10.88-12.79l.82.99h0Z"/>
  <path class="cls-3" d="m403.12,434.65c.5,1.17.99,2.33,0,3.66-.99.83-2.47,1.16-3.79.66-1.48-.83-1.98-2.66-1.32-3.99.99-1.49,3.95-2.32,5.11-.33h0Z"/>
  <path class="cls-3" d="m393.72,436.64c.16.83.65,1.5.49,2.33-.49.83-1.32,1.83-2.31,1.99-1.82.33-2.96-.67-3.79-2.16-.17-1.49.33-2.83,1.64-3.49,1.49-.67,3.14.17,3.97,1.33h0Z"/>
  <path class="cls-3" d="m413.18,437.64c.34,1.33.66,3.66-1.32,3.98-2.31,1-3.63-.66-4.95-1.99,0-1.49.83-2.66,1.98-3.32,1.65-.16,3.14,0,4.28,1.33h0Z"/>
  <path class="cls-3" d="m440.23,439.8c-.16,1.16.17,2.83-1.16,3.16-.82.83-2.31.5-3.13.33-.33-1-2.15-1.83-1.15-2.99.66-.83,1.32-1.33,2.31-1.82.99.5,2.48,0,3.13,1.33h0Z"/>
  <path class="cls-3" d="m885.63,440.97c-.49,1.16-1.15,2.66-2.47,2.66-1.48-.17-2.97-.33-3.79-1.84-.66-1.82.82-2.82,2.15-3.31,1.65,0,3.8.66,4.12,2.49h0Z"/>
  <path class="cls-3" d="m855.44,441.79c.16,1.34-1.32,2.33-1.98,2.83-2.31.99-4.29-.67-5.12-2.49.33-1.49,1.49-2.49,2.81-2.99,2.14-.17,3.3,1,4.29,2.65h0Z"/>
  <path class="cls-3" d="m875.9,441.46c0,1.17-.66,2.33-1.48,2.83-1.32.5-2.97.33-3.96-.66-1.48-1.33-.33-2.5.66-3.49,1.48-.83,4.28-.67,4.78,1.33h0Z"/>
  <path class="cls-3" d="m398.83,444.29c.33,1.83-.32,3.48-1.98,4.15-1.48,0-3.13-.83-3.63-2.33-.17-1.49.32-2.99,1.65-3.48,1.64-.5,2.97.5,3.96,1.66h0Z"/>
  <path class="cls-3" d="m847.2,446.12c.49,1.83-.49,3.49-2.31,4.32-1.31.33-2.15-.33-3.14-1.17-.66-.83-1.48-2.66-.16-3.49,1.32-2.49,4.62-1.49,5.61.33h0Z"/>
  <path class="cls-3" d="m487.58,447.94c.66,1.83-1.32,2.16-1.81,3.16-.66.33-1.98.5-2.47-.17-.83-1-1.82-1.99-1.32-3.49.82-.67,1.15-1.33,2.14-1.66,1.82-.5,2.48,1.16,3.46,2.16h0Z"/>
  <path class="cls-3" d="m882.66,449.1c.33,1.17-.66,1.66-.82,2.49-.99.83-2.64,1-3.79.67-1.49-.84-1.49-2.16-1.49-3.66.99-.67,1.16-1.49,2.31-1.83,1.48,0,3.3.67,3.79,2.33h0Z"/>
  <path class="cls-3" d="m872.44,449.6c.66,1.99-1.16,2.99-2.48,3.49-.66.16-1.65-.33-1.81.67,4.29,2.16,6.92,5.65,10.23,8.81v1.33c-5.93-.17-12.05-1.66-16.34-6.31-1.15-.83-3.13-.83-4.45-1.99,2.14-2.16,6.11-1.33,9.07-1.49,2.15-2.33-2.47-3.99.33-5.98.99-.17,1.65-1.17,2.97-.84,1.16.5,1.81,1.33,2.48,2.33h0Z"/>
  <path class="cls-3" d="m804.96,449.77c.33.83-.66,1.82-.82,2.66-.99,1-2.47,1.17-3.63.67-.82-1.16-2.15-2.16-1.65-3.82,1.32-2.49,5.61-1.99,6.1.5h0Z"/>
  <path class="cls-3" d="m436.11,455.59c-.5,1.49-1.16,2.49-2.81,2.66-1.32-.17-2.47-.66-2.97-1.99-.17-1.17.66-1.83.82-2.66,1.82-1.49,5.11-.5,4.95,1.99h0Z"/>
  <path class="cls-3" d="m449.48,453.43c0,2.32-2.48,3.66-3.31,5.98-2.47,5.48-6.92,10.47-13.19,10.97-.66-1.5,2.14-3.33,2.8-4.82,2.64-5.65,7.92-8.64,12.7-12.13h.99Z"/>
  <path class="cls-3" d="m801,455.75c.17,1.83-1.48,3.16-2.8,3.83-1.48.5-2.64-.67-3.46-1.33-1.32-1.33-.49-2.66.17-3.99,1.98-1.99,4.78-.33,6.1,1.49h0Z"/>
  <path class="cls-3" d="m811.23,456.91c-.17,1.82-1.32,3.16-2.97,3.66-.33-.5-1.15-.17-1.65-.34-1.15-.66-2.15-1.66-2.15-2.99.83-.84,1.16-2.16,2.31-2.33,1.48-.16,3.96,0,4.45,1.99h0Z"/>
  <path class="cls-3" d="m475.04,456.75c.17,1.83-1.15,2.83-2.47,3.49-1.49.17-2.48-.83-3.14-1.99-.33-1.49,1.15-2.49,1.98-3.32,1.98-.67,2.48.83,3.63,1.83h0Z"/>
  <path class="cls-3" d="m486.43,457.41c-.5,1.49-1.49,2.49-3.14,2.82-1.16-.33-2.47-.66-2.97-1.99-.16-1.66,1.16-2.49,2.31-3.32,1.65,0,3.47.67,3.8,2.49h0Z"/>
  <path class="cls-3" d="m846.7,469.05c.82.66,2.3,1.49,1.97,2.66-2.64,1.16-4.78-1.83-7.25-2.33-3.96-3.99-6.93-8.31-8.58-13.3,1.48-1.49,3.13.33,4.45.83,3.79,3.16,7.42,7.31,9.41,12.13h0Z"/>
  <path class="cls-3" d="m852.8,457.41c.49,1.16.33,2.49-.33,3.66-.99,1.66-3.14,1.33-4.61.99-.83-.99-2.32-2.32-1.32-3.82.49-1.33,1.98-1.66,3.13-2.16,1.15-.16,1.98.83,3.14,1.33h0Z"/>
  <path class="cls-3" d="m501.6,461.73c.17,1.32.5,3.32-1.15,4.15-1.49.33-3.46-.16-3.96-1.99-.82-1.99.99-2.33,1.98-3.32,1.32-.34,2.14.33,3.13,1.16h0Z"/>
  <path class="cls-3" d="m810.74,472.53c2.31,3.33,3.96,7.48,4.29,11.8-.5,1.17.83,2.33-.17,3.16h-.66c-7.42-5.31-9.07-12.79-11.87-20.27-.66-.33-.83-1-.66-1.66,1.65-1.5,2.8,1.49,4.45,1.99l4.62,4.98h0Z"/>
  <path class="cls-3" d="m523.04,466.88c-.17.16,0,.33.16.33-6.59,4.65-15.83,7.47-23.42,2.99-.17-.5.17-1.33.82-1.49,4.79-1.49,9.4-3.82,14.52-3.16l7.92,1.33h0Z"/>
  <path class="cls-3" d="m485.43,467.71c-5.6,3.49-10.72,10.3-17.65,11.96-1.32.5-2.14,2.32-3.79,1.33,2.97-8.98,12.7-13.79,21.44-14.62v1.33h0Z"/>
  <path class="cls-3" d="m801,475.19c.49,1.34,0,3.16-1.31,3.49-.83.83-2.47.83-3.13,0-1.48-.67-1.48-2.16-1.48-3.32.49-1.16,1.64-1.33,2.47-1.82,1.48.33,2.64.33,3.46,1.65h0Z"/>
  <path class="cls-3" d="m787.31,476.02c-.99,2.33-3.79,3.66-5.93,4.32-5.61,1.99-10.73-.66-15.67-1.99.16-1.33,1.81-.83,2.64-1.67,5.44-1.16,11.05-2.33,16.83-.83.49-.33,1.65-.5,2.15.17h0Z"/>
  <path class="cls-3" d="m485.43,480.84c-.49.67-.66,2.16-1.98,2.66-1.15.5-2.3,0-3.29-.66-.33-1-1.49-1.83-.66-3,.33-1.16,1.65-1.49,2.64-1.83,1.65.17,2.97,1.17,3.3,2.83h0Z"/>
  <path class="cls-3" d="m495.17,482.33c-.5,1-.99,2.49-2.31,3.16-1.32.33-2.32-.33-3.31-1.17-.49-1-.99-2.16-.49-3.32.33-.83,1.48-1,2.31-1.5,1.65-.16,3.14,1.5,3.79,2.83h0Z"/>
  <path class="cls-3" d="m797.87,484c.16,1.33-.49,2.16-1.16,3.16-.82,1.16-2.47,1.32-3.62.67-1.16-.17-1.48-1.5-1.98-2.33-.99-1.33.66-2.16,1.16-3.32,1.8-1.5,4.78-.67,5.6,1.82h0Z"/>
  <path class="cls-3" d="m805.13,483.67c.16.83.66,1.66.33,2.32-1,.83-1.66,2.99-3.63,2.16-.99.33-1.48-1-1.98-1.33-.66-1.66-.17-4.15,1.98-4.49,1.48-.5,2.47.83,3.3,1.33h0Z"/>
  <path class="cls-3" d="m489.23,488.48c.32,1.84-.34,3.49-1.66,4.49-1.81.33-4.13.33-4.78-1.83-.17-1.67,0-3.82,1.98-4.82,1.65-.17,3.63.17,4.46,2.16h0Z"/>
  <path class="cls-3" d="m498.63,487.82c-.32,4.65-1.32,10.3-5.93,12.96-2.64.5-5.28,2.99-7.92,1.33v-.83c3.46-4.99,9.74-8.81,13.85-13.46h0Z"/>
  <path class="cls-3" d="m771.97,491.64c.65,1-.49,1.83-.99,2.66-.99,1.16-2.81.66-3.96.17-1.16-.5-1.32-2.16-.83-3.32.33-1,1.32-1.49,2.15-1.83,1.49-.16,2.81,1.17,3.63,2.33h0Z"/>
  <path class="cls-3" d="m515.13,499.28c2.3,3.82.99,8.98,2.3,13.13-2.8.33-3.96-2.83-5.77-4.48-3.63-4.99-3.14-11.63-4.78-17.45.33-.5.82-.5,1.16-.33,2.47,1.66,4.28,4.82,6.26,6.98-.33,1.16.99,1.16.83,2.16h0Z"/>
  <path class="cls-3" d="m780.22,492.97c0,1.33-1.48,1.66-2.31,2.49-1.16-.16-2.15-.66-3.13-1.49-.49-1.66.82-2.16,1.65-2.99,1.65-.67,3.3.16,3.79,1.99h0Z"/>
  <path class="cls-3" d="m799.85,507.76c0,.5-.17,1.49-.99,1.16h-.66c-4.78-4.32-9.57-9.13-8.9-15.78l.99-.16c4.46,3.82,9.41,7.97,9.57,14.79h0Z"/>
  <path class="cls-3" d="m787.47,502.44c.16,1.33-.66,2.33-1.48,3.16-1.82.5-4.61.33-4.95-2.16-.16-1.66,1.65-2.49,2.48-3.32,1.98-.5,3.3.83,3.95,2.32h0Z"/>
  <path class="cls-3" d="m776.59,505.93c-2.3,6.15-8.58,9.3-12.87,13.96-.82-.5-.49-1.83-.33-2.49,1.65-6.31,6.6-12.46,12.7-14.95,2.64.33,0,2.16.49,3.49h0Z"/>
  <path class="cls-3" d="m788.96,510.91c0,1.49-1.49,2.16-2.31,2.99-1.32-.16-2.64-.5-3.63-1.83-.17-1.66,1.15-2.16,2.14-2.99,1.65-.33,3.14.5,3.8,1.83h0Z"/>
  <path class="cls-3" d="m666.44,210.58h-1.82c-4.78,0-.72,5.8,1.85,5.8,3.19,0,3.39-5.8-.03-5.8h0Zm-14.78,5.8c4.78,0,.27-5.8-2.31-5.8h-4.77c-4.78,0-.26,5.8,2.31,5.8h4.77Zm-20.04,0c4.78,0,.25-5.8-2.31-5.8h-4.77c-4.78,0-.26,5.8,2.3,5.8h4.79Zm34.58-7.11c2.26,0,4.08,1.84,4.08,4.11s-1.82,4.11-4.08,4.11h-48.92c-2.25,0-4.08-1.84-4.08-4.11s1.83-4.11,4.08-4.11h48.92Z"/>
  <path class="cls-3" d="m666.56,285.11c0,2.16,2.89.72,5.05.72s5.05,1.45,5.05-.72c0-3.07-2.89-2-5.05-2s-5.05-1.07-5.05,2h0Zm9.16,5.1c2.1,0,2.28-2.89,2.28-5.39,0-5.67-4.49,0-6.79-5.34-1.68,4.5-6.29.33-6.29,5.17,0,3.33-.02,5.56,3.29,5.56h7.5Zm-13.79-24.81l9.35,3.59,9.19-3.59-3.64,13.76,7.28-1.51-2.49,8.34,2.49,8-6.46-1.75,2.82,14.84-9.19-3.58-9.35,3.58,3.81-14.84-7.45,2.08,1.99-8.34-1.99-8,7.12,1.17-3.48-13.76h0Z"/>
  <polygon class="cls-3" points="640.05 285.64 640.05 283.89 638.48 283.59 639.71 282.32 638.95 280.92 640.55 281.09 641.52 279.38 642.47 281.06 644.1 280.92 643.34 282.32 644.57 283.59 643 283.89 643 285.64 641.52 284.53 640.05 285.64 640.05 285.64 640.05 285.64"/>
  <polygon class="cls-3" points="632.8 294.98 632.8 293.23 631.23 292.94 632.46 291.66 631.69 290.26 633.3 290.43 634.27 288.72 635.22 290.4 636.85 290.26 636.09 291.66 637.31 292.94 635.75 293.23 635.75 294.98 634.27 293.87 632.8 294.98 632.8 294.98 632.8 294.98"/>
  <polygon class="cls-3" points="645.1 293.79 645.1 292.04 643.54 291.75 644.77 290.47 644 289.06 645.61 289.24 646.58 287.54 647.53 289.21 649.16 289.06 648.4 290.47 649.62 291.75 648.06 292.04 648.06 293.79 646.58 292.68 645.1 293.79 645.1 293.79 645.1 293.79"/>
  <polygon class="cls-3" points="646.56 300.77 646.56 299.78 645.67 299.61 646.37 298.9 645.93 298.1 646.84 298.19 647.39 297.23 647.93 298.18 648.84 298.1 648.42 298.9 649.11 299.61 648.23 299.78 648.23 300.77 647.39 300.14 646.56 300.77 646.56 300.77 646.56 300.77"/>
  <polygon class="cls-3" points="635.13 308.75 635.13 305.76 632.44 305.25 634.54 303.06 633.24 300.66 635.99 300.95 637.66 298.03 639.28 300.91 642.07 300.66 640.77 303.06 642.87 305.25 640.19 305.76 640.19 308.75 637.66 306.85 635.13 308.75 635.13 308.75 635.13 308.75"/>
  <polygon class="cls-3" points="640.94 152.03 646.75 166.31 661.47 161.98 654 175.46 666.53 184.35 651.42 186.88 652.33 202.29 640.94 191.96 629.55 202.29 630.47 186.88 615.35 184.35 627.89 175.46 620.42 161.98 635.13 166.31 640.94 152.03 640.94 152.03 640.94 152.03"/>
  <path class="cls-3" d="m587.72,472.44c-1.75.65-2.43,1.14-2,2.95l2.07,8.75c.39,1.62.5,4.18-.58,5.74-1.29,1.88-4.01,3.08-5.97,3.55-1.44.35-4.55.93-7.05-.13-1.65-.7-2.72-1.46-3.43-4.43l-2.17-9.17c-.55-2.31-1.41-2.16-3.28-1.88l-.16-.69,11.06-2.65.17.68c-2.15.61-3.15.87-2.58,3.29l2.17,9.17c.37,1.57,1.27,5.36,5.98,4.22,5.75-1.38,4.83-5.6,4.41-7.36l-1.98-8.37c-.39-1.68-1.01-2.52-3.85-1.94l-.16-.69,7.19-1.73.16.69h0Z"/>
  <path class="cls-3" d="m604.11,474.27c-1.01-1.8-3.68-4.53-7.56-3.66-1.71.38-3.34,1.61-2.94,3.4.32,1.49,1.09,1.95,4.1,2.49l5.27.94c1.21.22,4.07,1.26,4.73,4.26.53,2.42-.84,6.23-6.88,7.57-3.11.7-4.81.09-5.82.32-.69.15-.74.69-.77,1.16l-.96.21-1.49-6.81.94-.22c1.27,2.64,3.87,5.33,8.03,4.4,3.95-.88,3.51-3.65,3.42-4-.4-1.85-2.09-2.16-4.41-2.54l-2.4-.39c-6.11-1-6.63-3.37-6.91-4.64-.37-1.68-.18-5.65,6.06-7.05,2.63-.59,4.38-.02,5.33-.23.75-.17.83-.62.88-1.18l.99-.22,1.32,5.97-.92.21h0Z"/>
  <path class="cls-3" d="m625.88,485.15l-11.96,1.15-.07-.7c2.43-.41,3.23-.54,3.01-2.9l-1.41-14.82c-2.32.34-5.77.81-6.01,5.38l-.98.09-.43-5.66,20.1-1.93.59,5.64-.96.09c-1.1-4.43-4.56-4.25-6.88-4.13l1.41,14.82c.23,2.39,1.04,2.37,3.53,2.27l.07.71h0Z"/>
  <path class="cls-3" d="m639.29,475.12c4.4.05,6.16-.54,6.23-4.2.05-2.85-1.29-4.1-3.99-4.15-1.85-.03-1.92.28-2.1,1.14l-.14,7.21h0Zm14.57,10.03l-6.9-.13-6.79-8.98-.91-.02-.11,5.54c-.05,2.26.69,2.36,2.91,2.66l-.02.71-11.37-.22v-.71c2.31-.18,2.98-.26,3.02-2.54l.25-12.48c.05-2.43-.99-2.51-2.9-2.66v-.71s10.85.21,10.85.21c2.35.04,9.47.41,9.37,5.16-.06,3.47-3.54,4.28-5.37,4.73l6.6,8.18c.46.52.96.56,1.36.56v.7h-.01Z"/>
  <path class="cls-3" d="m666.57,480.1l-2.53-7.23-3.98,6.41,6.51.81h0Zm9.36,7.89l-10.81-1.36.09-.7c2.08.12,2.69.16,2.8-.76.1-.76-.72-2.96-1.07-3.92l-7.51-.94c-1.18,1.9-1.86,2.98-1.92,3.43-.13,1.07,1.46,1.35,2.59,1.55l-.08.7-6.78-.85.09-.7c1.83,0,2.42-.89,3.67-2.87l9.32-14.42.94.11,5.61,15.67c1.13,3.19,1.55,4.21,3.16,4.35l-.1.7h0Z"/>
  <path class="cls-3" d="m695.52,491.98l-19.14-3.52.13-.69c1.89.14,2.89.24,3.2-1.45l2.44-13.45c.32-1.84-1.01-2.14-2.49-2.5l.12-.69,11.55,2.12-.12.69c-2.33-.34-3.37-.5-3.81,1.95l-2.37,13.11c-.24,1.33.45,1.69,2.66,2.1,4.99.92,7.27-1.04,9.36-3.9l.96.17-2.5,6.06h0Z"/>
  <path class="cls-3" d="m708.22,494.82l-11.52-2.42.15-.69c1.8.24,3.11.4,3.46-1.32l2.77-13.37c.38-1.83-1.16-2.2-2.66-2.61l.15-.69,11.52,2.42-.15.69c-1.56-.27-3.14-.57-3.53,1.31l-2.77,13.37c-.37,1.77.93,2.13,2.72,2.62l-.14.69h0Z"/>
  <path class="cls-3" d="m722.08,490.12l-2.69-7.18-3.85,6.5,6.53.68h0Zm9.54,7.69l-10.85-1.12.07-.7c2.09.08,2.69.11,2.79-.82.07-.76-.79-2.95-1.16-3.9l-7.54-.78c-1.14,1.92-1.8,3.02-1.84,3.47-.11,1.06,1.49,1.32,2.62,1.49l-.07.7-6.8-.7.07-.71c1.83-.04,2.4-.94,3.61-2.94l9-14.62.94.09,5.96,15.55c1.2,3.16,1.64,4.17,3.25,4.28l-.07.7h0Z"/>
  <path class="cls-3" d="m639.71,271.27c-1.98,0-4.65,1.36-4.65-.99,0-3.33,2.25-2.58,4.23-2.58s5.05-.74,5.05,2.58c0,2.35-2.66.99-4.64.99h0Zm5.88-1.3c0-6.79-3.8-.43-5.91-6.2-1.54,4.88-6.11.77-6.11,6.02,0,2,.52,3.16,1.49,3.8v2c0,.52.42.94.93.94h7.2c.52,0,.94-.42.94-.94v-2.17c.87-.74,1.46-1.92,1.46-3.46h0Z"/>
  <path class="cls-3" d="m704.61,353.21c1.73,0,3.11-1.23,3.11-2.74s-1.38-2.74-3.11-2.74-3.11,1.23-3.11,2.74,1.39,2.74,3.11,2.74h0Z"/>
  <path class="cls-3" d="m689.99,252.73s-1.46,2.46-1.46,2.92c0,.9.67,1.62,1.48,1.62s1.48-.73,1.48-1.62c0-.05-1.5-2.92-1.5-2.92h0Z"/>
  <path class="cls-3" d="m590.35,252.73s-1.46,2.46-1.46,2.92c0,.9.67,1.62,1.48,1.62s1.48-.73,1.48-1.62c0-.05-1.5-2.92-1.5-2.92h0Z"/>
  <path class="cls-3" d="m615.26,252.73s-1.45,2.46-1.45,2.92c0,.9.66,1.62,1.47,1.62s1.48-.73,1.48-1.62c0-.05-1.5-2.92-1.5-2.92h0Z"/>
  <path class="cls-3" d="m640.17,252.73s-1.46,2.46-1.46,2.92c0,.9.66,1.62,1.48,1.62s1.48-.73,1.48-1.62c0-.05-1.51-2.92-1.51-2.92h0Z"/>
  <path class="cls-3" d="m665.08,252.73s-1.46,2.46-1.46,2.92c0,.9.66,1.62,1.48,1.62s1.48-.73,1.48-1.62c0-.05-1.5-2.92-1.5-2.92h0Z"/>
  <path class="cls-3" d="m590.4,286.93s1.45,2.46,1.45,2.92c0,.9-.66,1.62-1.48,1.62s-1.48-.73-1.48-1.62c0-.05,1.51-2.92,1.51-2.92h0Z"/>
  <path class="cls-3" d="m590.4,320.16s1.45,2.46,1.45,2.92c0,.9-.66,1.62-1.48,1.62s-1.48-.72-1.48-1.62c0-.05,1.51-2.92,1.51-2.92h0Z"/>
  <path class="cls-3" d="m594.39,346.47s1.46,2.46,1.46,2.92c0,.89-.67,1.62-1.48,1.62s-1.48-.73-1.48-1.62c0-.05,1.51-2.92,1.51-2.92h0Z"/>
  <path class="cls-3" d="m615.28,360.45s1.46,2.46,1.46,2.92c0,.9-.67,1.62-1.48,1.62s-1.48-.73-1.48-1.62c0-.05,1.5-2.92,1.5-2.92h0Z"/>
  <path class="cls-3" d="m691.25,286.93s-1.45,2.46-1.45,2.92c0,.9.66,1.62,1.48,1.62s1.48-.73,1.48-1.62c0-.05-1.5-2.92-1.5-2.92h0Z"/>
  <path class="cls-3" d="m691.25,320.16s-1.45,2.46-1.45,2.92c0,.9.66,1.62,1.48,1.62s1.48-.72,1.48-1.62c0-.05-1.5-2.92-1.5-2.92h0Z"/>
  <path class="cls-3" d="m687.27,346.47s-1.46,2.46-1.46,2.92c0,.89.66,1.62,1.48,1.62s1.48-.73,1.48-1.62c0-.05-1.5-2.92-1.5-2.92h0Z"/>
  <path class="cls-3" d="m666.37,360.45s-1.45,2.46-1.45,2.92c0,.9.66,1.62,1.47,1.62s1.48-.73,1.48-1.62c0-.05-1.51-2.92-1.51-2.92h0Z"/>
  <path class="cls-3" d="m640.94,375.27s-1.46,2.46-1.46,2.92c0,.89.66,1.63,1.48,1.63s1.48-.74,1.48-1.63c0-.05-1.5-2.92-1.5-2.92h0Z"/>
  <path class="cls-3" d="m681.48,325.7c.31.47,1.09.63,2.08.29l.95-2.68c.07-.18-1.09-1.25-1.78-1.08-2.67.63-5.48.95-7.05,3.47,0,1.73,1.25,3.31,2.5,4.1.94-.31,1.1.63,1.73,1.1.15.79-.32,1.43-1.1,1.43-1.88-1.9-5.17.63-6.58-1.74.63-2.36,1.89-5.05-.16-7.26.16-.47.94-.95.47-1.42-.79-2.21-3.14-.48-4.55-.48-2.35-.32-4.23.95-5.64,2.84.16.79.47,1.58,1.25,2.37.63-.16.94,0,1.1.63l-1.57.95c.47.47.47,1.1.62,1.73-1.09.47-2.19-1.1-2.66-1.89,0-1.26.16-3.47-1.57-3.79-.31,0-1.36.46-1.36.46-.38.48-.65,1.46-.65,2.61s.62,2.82.62,2.82c0,0,4.83,3.58,5.93,5.79-1.41,2.84-1.41,6.79-4.7,8.36-.94.63-.94,1.58-.94,2.53l.79.63c2.04-1.1,5.95-1.42,5.64-4.89.78-1.43,1.56-3,2.97-4.11,1.57-.32,2.98.47,3.61,1.73-.47,2.37-2.04,3.95-4.23,4.73-.31.32-.15.79-.15,1.27.63,1.11,2.35.63,3.29.48,2.67-1.74,3.77-4.9,6.11-5.84.31,1.58-3.14,2.06-.94,3.63,1.41-.31,3.29.16,4.23-1.73-1.1-2.68,3.76-3.95.79-6.32,0-2.36,2.5-3.31,2.35-5.84-.94-2.52-3.92-2.52-4.7-4.89.94-.63,2.35-.48,3.29,0h0Z"/>
  <path class="cls-3" d="m567.01,354.42c1.71,0,3.11-1.23,3.11-2.74s-1.4-2.74-3.11-2.74-3.11,1.23-3.11,2.74,1.39,2.74,3.11,2.74h0Z"/>
  <path class="cls-3" d="m405.45,448.8c1.69,0,3.06-1.32,3.06-2.94s-1.37-2.94-3.06-2.94-3.06,1.32-3.06,2.94,1.37,2.94,3.06,2.94h0Z"/>
  <path class="cls-3" d="m507.84,471.44c.13,0,.18-.02.18-.13,0-.08-.04-.12-.12-.12-.06,0-.06.01-.06.04v.21h0Zm.43.28h-.2l-.2-.26h-.02v.16c0,.07.02.07.08.08v.02h-.33v-.02c.07,0,.09-.01.09-.08v-.36c0-.07-.03-.07-.09-.08v-.02h.31c.07,0,.28,0,.28.15,0,.1-.1.13-.15.14l.2.24s.03.02.04.02v.02h0Z"/>
  <path class="cls-3" d="m508.7,471.33c-.02-.06-.08-.15-.2-.15-.05,0-.1.03-.1.08,0,.04.02.06.1.1l.14.06s.11.06.11.15c0,.08-.06.17-.24.17-.09,0-.14-.03-.16-.03s-.03.02-.03.03h-.03v-.2h.03c.02.08.07.17.2.17.12,0,.13-.08.13-.09,0-.06-.05-.07-.11-.1l-.07-.02c-.17-.07-.17-.14-.17-.18,0-.05.03-.16.22-.16.08,0,.13.03.15.03s.03-.02.04-.03h.03v.18h-.03Z"/>
  <path class="cls-3" d="m509.73,471.19s-.05.02-.06.05l-.2.5h-.03l-.16-.39h0l-.19.39h-.02l-.21-.5s-.03-.05-.07-.05v-.02h.29v.02s-.06,0-.06.04c0,0,0,.02,0,.03l.11.3h0l.11-.25-.03-.08s-.02-.02-.08-.03v-.02h.31v.02s-.07,0-.07.03c0,0,0,.03.02.04l.1.28h0l.11-.28s0-.02,0-.03c0-.03-.04-.03-.07-.04v-.02h.18v.02h0Z"/>
  <path class="cls-3" d="m509.99,471.48s.04,0,.04-.01c0-.02,0-.06,0-.07,0-.16-.02-.22-.08-.22-.06,0-.06.05-.06.12,0,.11.02.18.09.18h0Zm-.23.23c.1-.01.22-.06.26-.21-.02,0-.02,0-.04.01-.02,0-.03,0-.05,0-.07,0-.18-.03-.18-.17,0-.04.04-.19.21-.19.09,0,.23.05.23.25,0,.15-.14.31-.44.33v-.02h0Z"/>
  <path class="cls-3" d="m510.33,471.34c.09,0,.15,0,.21.04.05.02.11.07.11.15,0,.11-.11.2-.28.2-.07,0-.14-.02-.14-.07,0-.02.02-.05.06-.05.07,0,.12.07.19.07.03,0,.1-.02.1-.09,0-.05-.06-.09-.11-.11-.06-.02-.14-.03-.21-.03l.1-.28h.31l-.04.11h-.27l-.02.06h0Z"/>
  <path class="cls-3" d="m695.02,337.82c-.6,6.65-2.86,12.19-7.46,15.32l-43.33,27.56h-.24c-.91.73-2.07,1.18-3.33,1.18s-2.47-.47-3.4-1.22l-43.26-27.51c-4.6-3.13-6.86-8.67-7.47-15.32v-85.94h108.49v85.94h0Zm3.24-89.03v-.06h-114.96v.06h-.02l.09,87.85c0,8.96,3.8,16.79,9.04,19.21l44.22,28.07c.97,1.11,2.42,1.82,4.03,1.82,1.4,0,2.65-.55,3.6-1.41l44.89-28.49c5.25-2.41,9.04-10.25,9.04-19.21l.09-87.85h-.02Z"/>
  <path class="cls-3" d="m656.26,376.84l1.4-.67c-.58.21-1.02.43-1.4.67h0Z"/>
  <path class="cls-3" d="m558.58,491.48l-4.16-6.42-2.36,7.18,6.52-.76h0Zm10.95,5.44l-10.83,1.26-.08-.7c2.06-.38,2.66-.47,2.55-1.4-.09-.76-1.4-2.71-1.97-3.55l-7.52.87c-.71,2.13-1.11,3.34-1.06,3.79.12,1.06,1.74.96,2.88.89l.08.7-6.79.78-.08-.69c1.78-.43,2.13-1.45,2.9-3.66l5.65-16.23.94-.11,9.15,13.89c1.85,2.83,2.5,3.72,4.1,3.48l.07.69h0Z"/>
  <path class="cls-3" d="m755.64,462.06c-1.48,2.99-3.79,5.15-7.09,5.65.16-3.99,3.79-6.81,2.47-11.3-2.15-3.16-6.44-4.15-10.39-3.32-1.49,1-.83,2.66-1.33,4.16l-.66,5.47c-3.3,0-3.46-2.99-4.45-5.31.16-3.49,1.65-6.98,5.11-8.64,2.64-1.33,6.93-1.16,9.57.33,2.15.5,4.62,1.49,5.44,3.49,2.47,2.32,1.82,6.48,1.32,9.47h0Zm-13.36,1.66c1.82-1.83-.49-12.3,4.62-5.48,0,1.33.17,3.32-1.16,4.32-.82.67-2.14,1.99-3.46,1.16h0Zm1.82,4.16c.16,2.66-2.31,1.99-3.63,2.99h-3.96c-.82-1.33-.49-3.32-.49-4.65,2.64.5,5.61.5,8.08,1.66h0Zm4.62,20.27c-1.32,1.66-.16,4.32-1.81,5.82,0,2.99-2.48,4.49-4.62,5.65-19.63,4.32-38.93-2.33-57.9-5.65-26.56-5.82-57.57-7.48-84.63-1.33-12.71,2.32-25.07,5.32-37.28,8.81-7.59.99-15.84,2.16-23.1-.16-5.93-2.83-3.46-10.47-5.28-15.79.33-4.15-1.15-7.48-1.31-11.47-.5-1.33-.83-2.99-.66-4.33,2.47.34,4.95,2.16,7.59,2.83,13.86,2.66,26.23-1.83,39.1-4.15,12.37-2.66,25.07-4.82,38.11-5.82,14.84-.17,30.02-1,44.21,1.49,4.62.17,8.58,1.33,13.03,1.67,9.25,1.16,17.82,3.66,27.22,4.32,1.48.5,3.3.5,4.95.83,14.84,2.32,31.5,6.48,45.69,0,0,5.98-2.47,11.46-3.3,17.28h0Zm-83.8,12.13c.82,2.33,2.3,4.49,1.48,7.31-1.64,3.16-4.94,3.16-7.91,3.82-1.49.17-2.64-.33-3.8-1.17.17-.67-.17-1.17-.66-1.66.49-2.16-3.8-4.32-.83-6.15,2.64-2.49,8.9-8.14,11.72-2.16h0Zm3.62.67c1.98.5,2.14,2.66,2.31,4.32-.17,3.66-2.14,6.82-5.61,8.15-1.82,1-4.62,1.33-6.44.66,3.96-.17,8.25-1.66,9.9-5.65l-.17-7.48h0Zm4.29,22.1c-.33.17-.33.5-.33.67-4.78.17-7.92-2.66-11.54-5.15l-.17-.83c4.46.33,8.08,3.16,12.04,5.32h0Zm-6.1,15.29c-.17.5-.99.5-1.32.17-4.95-6.32-7.26-12.96-10.39-19.94l.66-.17c3.96,6.48,7.09,13.62,11.05,19.94h0Zm-8.25-3.99l-.83.33c-.83-.67-.5-2.49-.33-3.49.99.83,1.82,1.99,1.16,3.16h0Zm-4.62-9.97c.17,1.67,1.82,2.33.83,3.82-.33-.66-1.32-2.16-.83-3.82h0Zm-.99-10.47v-.5h.33v.5h-.33Zm-9.57,23.93c-3.14.17-7.92,1.99-10.89-.67.16-1.33-1.32-1.99-1.15-3.32,2.64-1,4.94,2.16,7.42-.17,3.8.17,7.75-.5,11.54.33,1.82.5,4.62-2.99,4.95.5-1.32,5.48-7.91,1.66-11.87,3.32h0Zm-7.26-19.77l.83-1.33c-1.32,3.99-3.3,8.14-5.45,11.96-.99-3.98,3.14-7.14,4.62-10.63h0Zm4.62-3.16c2.14-2.32,4.13,1.33,4.95,3.16,2.47,3.65,8.9,6.98,6.43,11.96-3.14,2.83-8.08.17-11.55,2.33-1.82-.17-4.95.33-5.94-1.49,1.81-5.32,3.46-11.3,6.1-15.95h0Zm-.49-6.31h-.66l.99-.99c.49.33-.17.67-.33.99h0Zm3.8.33c.66-.99,1.48-2.49,2.63-2.49,0,.17.17.34.33.5-.99.83-1.81,1.66-2.97,1.99h0Zm2.31,2.5c.32-.33,1.16-.33,1.49,0h-1.49Zm4.45,5.15c-.16.33.16.83-.33,1.16l-3.8-2.99c1.82-.33,3.14.5,4.13,1.83h0Zm-.33-10.14v.5h-.17v-.5h.17Zm6.93-10.3c-1.98.67-3.46,2.99-5.44,3.49.99-1.83,3.46-3.66,5.44-3.49h0Zm-8.25-2.16c-.33-1.5,1.49-.33,2.15-.99l5.12.33c-2.64-.33-5.94,5.82-7.26.66h0Zm-12.04,4.65c.82-2.32.99-4.32,2.47-6.15,1.65,0,3.13,0,4.45.67.33,3.33,4.45,7.81,0,10.64-1.48.67-3.63,2.16-5.28.67-2.15-1.83-2.48-3.49-1.65-5.82h0Zm-2.47,10.3c-.17-.66.32-1.49.49-2.32.82-.83,1.65.67,1.98,1.17-.5.83-1.49,1.32-2.47,1.16h0Zm-.17-7.64h-.16v-1.83h.16v1.83h0Zm-1.98-4.99c-2.14-.5-3.3-2.99-5.61-2.99,1.98-.67,3.96-.5,6.26-.17.83,1.17-.49,2.16-.66,3.16h0Zm-1.82,13.46c.5-2.16,1.48-4.98,2.64-6.98-.16,2.16-1.15,5.15-2.64,6.98h0Zm-3.62,0c-2.81-.33-5.45-1.16-7.92-1.99-1.65-1.66,0-3.49,0-5.32,2.31-3.65,8.9-5.48,12.04-2.16-.5,3.66-1.82,6.82-4.12,9.47h0Zm1.48,4.49v.66h-.33v-.83h.66c-.16,0-.49,0-.66.17h.33Zm-4.12,9.64c-2.31,5.32-4.96,10.47-8.08,15.62-.33.83-1.66,1-2.64,1.17,0-2.33,2.3-4.15,3.3-6.15,3.46-4.49,4.45-9.3,8.41-13.62.99.99-.99,1.66-.99,2.99h0Zm-15.68-1.67c3.96-1.66,8.09-5.15,12.54-3.65-3.14,2.49-8.25,3.48-12.54,3.65h0Zm5.94-11.46c-.82-5.82,1.49-10.8,5.29-14.95,2.3-.5,4.95-1,7.09.33-4.29,1.16-9.74,2.16-10.73,7.64.17,2.16-.5,3.32.49,5.15,1.81,3.16,5.94,1.83,8.25,4.33,0,.83-.66,1.82-1.48,1.99-2.81-1.66-6.27-2.32-8.91-4.48h0Zm-77.36-53.33c.5-1.33,0-3.32,1.82-3.66,1.15-.33,2.97-.33,3.13,1-.16,1.99-.32,3.98-.82,5.82-2.31.16-3.47-1.17-4.13-3.16h0Zm.5,5.58c2.47,1.82,5.93.99,8.91,1.49.49,1.83.49,4.15-.83,5.65-2.8-.67-6.43-.33-7.92-2.99.33-1.17-.49-2.83-.16-4.15h0Zm-7.75-4.75c.49-2.99,1.15-6.14,3.95-8.31,3.96-2.16,9.41-1.66,13.04.5,1.16.66,1.98,1.66,2.65,3.16.82,2.82-.5,5.82-2.48,7.48h-1.64c0-2.66,0-5.32.98-7.48-.16-2-1.81-2.16-3.13-2.99-2.81-.83-5.28.5-7.43,1.67-1.65,1.99-3.13,4.48-2.14,7.31,1.15,1.83.16,4.32.82,6.31l-.5.67c-1.97-2.16-4.61-4.49-4.11-8.31h0Zm154.78,70.62c3.94,1.78,11.88,3.52,17.59,4.17-.51,2.25-4.54.14-4.07,3.31-5.11-1.99-11.05-2.99-14.84-6.98.32-.17.66-.67,1.32-.5h0Zm-102.99,2.65l-2.3-2.16c1.15-1.49,3.63-.67,5.44-1.67,4.29-1.33,9.24-2.99,14.02-1.99-4.94,3.99-11.38,4.48-17.16,5.82h0Zm178.16-75.77c-1.98-5.15-6.1-8.63-11.22-10.3-5.28-1.16-10.89-.33-14.35,3.66-5.94,4.82-1.81,12.79-1.65,19.28,0,1.32.17,2.32-1.16,2.99-23.92-2.16-46.18-8.14-69.94-10.63-5.46-.94-10.93-.69-16.12-1.8l-6.64-.7c-20.62.67-41.24,1.83-60.54,6.81-4.12,1.33-8.74,1.66-12.86,3.16-2.97-.5-5.44,1.66-8.25.83l-5.43,1.27c-.52.09-1.11.06-1.83-.11-2.64-6.81,5.28-10.97,2.8-17.61-2.15-3.83-6.43-7.48-11.38-6.82-5.61-.67-10.56,2.49-13.2,6.82-3.79,8.31,1,16.94,2.48,25.09-.33,2.66,2.64,5.65,0,7.81-5.28-3.66-12.21-5.65-18.64-3.83-1.98,1-5.6-.33-6.59,2,7.09,3.82,16.16,3.32,24.08,2.99.99-.33,1.65-.5,2.47.17.67,4.32-.82,10.13,1.82,13.95,2.96,3.99,7.92,4.98,12.69,5.48,15.19-.5,28.71-4.98,42.57-8.47,2.15-.17,3.79-1.33,6.1-1.33,7.42-1.66,15.51-2.99,23.43-3.16-3.47,4.48-5.44,9.47-6.93,14.95-1.98,4.48,3.46,5.15,5.12,7.64-5.12,1.49-8.75,4.99-13.53,6.98-10.56-.33-19.47,3.66-29.37,4.82-.17,2.16,3.46,1.5,3.8,3.66-.49,1.49-1.98,1.66-3.14,2.49-.17,1,0,1.17.99,1.33.99-1.17,3.13-.33,4.12-1.5,3.3,0,6.11-1,9.24-1.16,2.8-1.16,5.93-1.33,8.41-3.32,3.46-1,5.61-3.32,9.07-4.32,4.94,0,9.4-1.66,14.02-1.99v1c-3.8,6.14-7.75,12.46-11.72,18.28-.66,1.16.17,2.33,1.16,2.66,2.31.67,4.61,0,6.43-1,3.46-5.98,6.59-11.63,9.4-17.78,1.16-5.65,5.28-8.64,9.41-12.46.66-.33,1.65-1.33,2.31-.33-3.3,3.82-5.44,7.48-7.92,11.63-1.32,4.65-1.66,10.63,2.47,14.45,1.98,1.67,4.95,1.17,7.59,1.33,6.43-3.32,14.68,1.99,19.63-4.32,2.96-.5,3.46,2.99,5.11,4.65,2.81.83,5.77,3.65,8.58,1.66-.17-1.83-2.15-3.49-3.14-5.15-1.98-3.49-4.45-6.31-6.27-9.47-.83-2.32-2.31-3.82-2.64-6.15,2.97,1,5.61,2.99,8.91,3.49,2.81,1.16,6.27,1,8.91,2.66,2.14,2.83,5.44,4.49,8.24,6.32,4.12,1.99,8.75,2.33,13.03,3.99,1.65.17,4.13,1.49,5.28,0-.67-.83-1.48-1.33-2.47-1.83-.5-2.16,2.97-1,4.13-2.66-.41-.82-1.13-1.15-1.92-1.26-2.36-1.27-8.24-1.71-9.8-2.57-1.98-.33-3.79-1.16-5.77-1.83-9.9,0-15.35-8.97-23.26-12.29,1.81-1.66,4.61-2.99,5.77-5.48,1.48-2.33,1.98-6.14.49-8.81-1.48-5.15-8.08-4.49-11.88-7.31l.5-.5c6.43-.33,12.04,1.16,17.81,2.33,15.83,2.16,30.52,8.14,47.02,8.47,9.07,0,20.45.5,24.91-8.31.82-5.15,1.81-10.3,2.63-15.45,1.98-8.31,7.42-15.95,6.6-25.09h0Z"/>
  <g class="cls-5">
    <polygon class="cls-3" points="1157.48 724.8 121.89 724.8 121.89 719.5 1157.48 719.5 1157.48 724.8 1157.48 724.8"/>
    <path class="cls-3" d="m278.79,768.87v23.29h-1.8c-2.18-6.37-5.44-11.21-9.8-14.52-4.35-3.31-9.11-4.97-14.28-4.97s-9.05,1.4-12.33,4.19c-3.28,2.76-5.6,6.62-6.97,11.6-1.36,4.97-2.05,10.07-2.05,15.3,0,6.34.75,11.89,2.24,16.67,1.49,4.78,3.9,8.28,7.21,10.53,3.35,2.24,7.31,3.36,11.89,3.36,1.59,0,3.22-.16,4.87-.49,1.69-.36,3.41-.86,5.17-1.51v-13.74c0-2.6-.18-4.28-.54-5.02-.36-.78-1.1-1.48-2.24-2.1-1.1-.62-2.45-.93-4.04-.93h-1.71v-1.8h32.12v1.8c-2.44.16-4.14.5-5.12,1.02-.94.49-1.67,1.32-2.19,2.49-.29.62-.44,2.13-.44,4.53v13.74c-4.22,1.89-8.63,3.3-13.21,4.24-4.55.97-9.28,1.46-14.18,1.46-6.27,0-11.49-.85-15.64-2.54-4.13-1.72-7.78-3.96-10.97-6.72-3.15-2.79-5.62-5.93-7.41-9.41-2.27-4.48-3.41-9.5-3.41-15.06,0-9.94,3.49-18.34,10.48-25.19,6.99-6.86,15.77-10.28,26.37-10.28,3.28,0,6.24.26,8.87.78,1.43.26,3.74,1.01,6.92,2.25,3.22,1.2,5.12,1.8,5.7,1.8.91,0,1.75-.32,2.53-.97.78-.68,1.49-1.95,2.14-3.8h1.8Z"/>
  </g>
  <path class="cls-4" d="m315.54,808.78c0-5.23-.29-8.82-.88-10.77-.55-1.95-1.43-3.43-2.63-4.43-.68-.59-1.59-.88-2.73-.88-1.69,0-3.07.83-4.14,2.49-1.92,2.89-2.88,6.85-2.88,11.89v1.71h13.26Zm11.99,3.26h-25c.29,6.05,1.9,10.82,4.82,14.33,2.24,2.7,4.94,4.04,8.09,4.04,1.95,0,3.72-.53,5.31-1.61,1.59-1.11,3.3-3.07,5.12-5.9l1.66,1.07c-2.47,5.04-5.2,8.61-8.19,10.72-2.99,2.08-6.45,3.12-10.38,3.12-6.76,0-11.88-2.6-15.35-7.8-2.79-4.19-4.19-9.39-4.19-15.6,0-7.6,2.05-13.65,6.14-18.13,4.13-4.52,8.95-6.77,14.47-6.77,4.61,0,8.61,1.9,11.99,5.71,3.41,3.77,5.25,9.37,5.51,16.81h0Z"/>
  <path class="cls-4" d="m354.92,792.99c-1.66,0-3.09.64-4.29,1.9-1.17,1.24-1.95,3.71-2.34,7.41-.36,3.67-.54,8.79-.54,15.35,0,3.48.23,6.72.68,9.75.36,2.31,1.12,4.06,2.29,5.26,1.17,1.2,2.5,1.8,4,1.8s2.68-.41,3.66-1.22c1.27-1.1,2.11-2.65,2.53-4.63.65-3.09.97-9.32.97-18.71,0-5.52-.31-9.31-.93-11.36-.62-2.08-1.53-3.59-2.73-4.53-.84-.69-1.95-1.03-3.31-1.03h0Zm-.19-3.46c3.96,0,7.65,1.03,11.06,3.07,3.41,2.05,5.99,4.95,7.75,8.72,1.79,3.77,2.68,7.9,2.68,12.38,0,6.47-1.64,11.87-4.92,16.23-3.96,5.27-9.44,7.9-16.42,7.9s-12.13-2.4-15.84-7.22c-3.7-4.81-5.56-10.38-5.56-16.71s1.88-12.22,5.65-17.06c3.8-4.87,9-7.31,15.6-7.31h0Z"/>
  <path class="cls-3" d="m410.94,789.63l.73,15.55h-1.66c-1.99-4.61-4.05-7.76-6.19-9.45-2.11-1.69-4.23-2.54-6.34-2.54-1.33,0-2.47.46-3.41,1.36-.94.88-1.41,1.9-1.41,3.07,0,.88.32,1.72.97,2.53,1.04,1.33,3.94,3.62,8.72,6.87,4.78,3.22,7.91,5.96,9.41,8.24,1.52,2.24,2.29,4.76,2.29,7.55,0,2.54-.63,5.02-1.9,7.46-1.27,2.44-3.06,4.3-5.36,5.61-2.31,1.3-4.86,1.95-7.65,1.95-2.18,0-5.08-.68-8.72-2.05-.97-.36-1.64-.54-2-.54-1.07,0-1.97.81-2.68,2.44h-1.61l-.78-16.38h1.66c1.46,4.29,3.46,7.51,5.99,9.65,2.57,2.15,4.98,3.22,7.26,3.22,1.56,0,2.83-.47,3.8-1.41,1.01-.97,1.51-2.15,1.51-3.51,0-1.56-.49-2.91-1.46-4.04-.97-1.14-3.16-2.86-6.53-5.17-4.97-3.44-8.19-6.08-9.65-7.89-2.14-2.67-3.22-5.61-3.22-8.82,0-3.51,1.2-6.68,3.61-9.5,2.44-2.86,5.95-4.29,10.53-4.29,2.47,0,4.86.6,7.16,1.81.88.49,1.59.73,2.14.73.58,0,1.06-.12,1.41-.34.35-.26.92-.96,1.71-2.1h1.66Z"/>
  <path class="cls-3" d="m456.17,824.72l1.51,1.17c-2.14,4.03-4.82,7.03-8.04,9.02-3.19,1.95-6.58,2.92-10.19,2.92-6.08,0-10.94-2.29-14.57-6.87-3.64-4.58-5.46-10.09-5.46-16.52s1.66-11.67,4.97-16.38c4-5.69,9.5-8.53,16.52-8.53,4.71,0,8.44,1.19,11.21,3.56,2.79,2.37,4.19,5.02,4.19,7.94,0,1.85-.57,3.33-1.71,4.43-1.11,1.11-2.57,1.66-4.39,1.66-1.92,0-3.51-.63-4.78-1.9-1.24-1.27-2-3.53-2.29-6.77-.2-2.05-.67-3.48-1.41-4.29-.75-.82-1.63-1.22-2.63-1.22-1.56,0-2.9.83-4,2.48-1.69,2.5-2.53,6.34-2.53,11.5,0,4.29.68,8.4,2.05,12.33,1.36,3.9,3.23,6.81,5.6,8.73,1.78,1.39,3.89,2.09,6.34,2.09,1.59,0,3.1-.37,4.53-1.12,1.43-.75,3.12-2.16,5.07-4.24h0Z"/>
  <path class="cls-4" d="m480.08,790.9v36.11c0,3.22.37,5.28,1.12,6.19.75.88,2.21,1.38,4.39,1.51v1.76h-24.61v-1.76c2.01-.07,3.51-.65,4.48-1.76.65-.75.97-2.73.97-5.95v-26.61c0-3.22-.37-5.27-1.12-6.14-.75-.91-2.19-1.43-4.34-1.56v-1.8h19.1Zm-6.82-22.08c2.11,0,3.9.75,5.36,2.24,1.46,1.46,2.19,3.23,2.19,5.31s-.75,3.85-2.24,5.31c-1.46,1.46-3.23,2.19-5.31,2.19s-3.85-.73-5.31-2.19c-1.46-1.46-2.19-3.24-2.19-5.31s.73-3.85,2.19-5.31c1.46-1.49,3.23-2.24,5.31-2.24h0Z"/>
  <path class="cls-4" d="m513.64,808.78c0-5.23-.29-8.82-.88-10.77-.55-1.95-1.43-3.43-2.63-4.43-.68-.59-1.59-.88-2.73-.88-1.69,0-3.07.83-4.14,2.49-1.92,2.89-2.88,6.85-2.88,11.89v1.71h13.26Zm11.99,3.26h-25c.29,6.05,1.9,10.82,4.82,14.33,2.24,2.7,4.94,4.04,8.09,4.04,1.95,0,3.72-.53,5.31-1.61,1.59-1.11,3.3-3.07,5.12-5.9l1.66,1.07c-2.47,5.04-5.2,8.61-8.19,10.72-2.99,2.08-6.45,3.12-10.38,3.12-6.76,0-11.87-2.6-15.35-7.8-2.79-4.19-4.19-9.39-4.19-15.6,0-7.6,2.05-13.65,6.14-18.13,4.13-4.52,8.95-6.77,14.47-6.77,4.61,0,8.61,1.9,11.99,5.71,3.41,3.77,5.25,9.37,5.51,16.81h0Z"/>
  <path class="cls-3" d="m546.95,790.9v5.9c2.34-2.54,4.58-4.37,6.73-5.51,2.14-1.17,4.45-1.76,6.92-1.76,2.96,0,5.41.83,7.36,2.49,1.95,1.63,3.25,3.66,3.9,6.09.52,1.85.78,5.41.78,10.67v17.74c0,3.51.31,5.7.93,6.58.65.84,1.98,1.38,4,1.61v1.76h-23.05v-1.76c1.72-.23,2.96-.94,3.7-2.15.52-.81.78-2.83.78-6.04v-20.27c0-3.73-.15-6.09-.44-7.07-.29-.98-.79-1.72-1.51-2.24-.68-.55-1.44-.83-2.29-.83-2.79,0-5.39,2-7.8,6v24.42c0,3.41.31,5.57.93,6.48.65.91,1.83,1.48,3.56,1.7v1.76h-23.05v-1.76c1.92-.2,3.28-.82,4.09-1.85.55-.71.83-2.82.83-6.33v-25.73c0-3.44-.33-5.59-.97-6.43-.62-.85-1.93-1.4-3.95-1.66v-1.8h18.57Z"/>
  <path class="cls-3" d="m618.04,824.72l1.51,1.17c-2.14,4.03-4.82,7.03-8.04,9.02-3.19,1.95-6.58,2.92-10.18,2.92-6.08,0-10.93-2.29-14.57-6.87-3.64-4.58-5.46-10.09-5.46-16.52s1.66-11.67,4.97-16.38c4-5.69,9.5-8.53,16.52-8.53,4.71,0,8.45,1.19,11.21,3.56,2.79,2.37,4.19,5.02,4.19,7.94,0,1.85-.57,3.33-1.71,4.43-1.1,1.11-2.57,1.66-4.38,1.66-1.92,0-3.51-.63-4.78-1.9-1.24-1.27-2-3.53-2.29-6.77-.2-2.05-.67-3.48-1.41-4.29-.74-.82-1.62-1.22-2.63-1.22-1.56,0-2.89.83-4,2.48-1.69,2.5-2.54,6.34-2.54,11.5,0,4.29.68,8.4,2.05,12.33,1.36,3.9,3.23,6.81,5.6,8.73,1.79,1.39,3.9,2.09,6.34,2.09,1.59,0,3.1-.37,4.53-1.12,1.43-.75,3.12-2.16,5.07-4.24h0Z"/>
  <path class="cls-4" d="m650.77,808.78c0-5.23-.29-8.82-.88-10.77-.55-1.95-1.43-3.43-2.63-4.43-.69-.59-1.59-.88-2.73-.88-1.69,0-3.07.83-4.14,2.49-1.92,2.89-2.87,6.85-2.87,11.89v1.71h13.25Zm11.99,3.26h-25c.3,6.05,1.9,10.82,4.83,14.33,2.24,2.7,4.94,4.04,8.09,4.04,1.95,0,3.72-.53,5.31-1.61,1.59-1.11,3.3-3.07,5.12-5.9l1.66,1.07c-2.47,5.04-5.2,8.61-8.19,10.72-2.99,2.08-6.45,3.12-10.38,3.12-6.76,0-11.88-2.6-15.35-7.8-2.79-4.19-4.19-9.39-4.19-15.6,0-7.6,2.05-13.65,6.14-18.13,4.13-4.52,8.95-6.77,14.47-6.77,4.61,0,8.61,1.9,11.99,5.71,3.41,3.77,5.25,9.37,5.51,16.81h0Z"/>
  <path class="cls-4" d="m724.92,814.05l-9.84-22.76-10.13,22.76h19.98Zm1.66,3.61h-23.34l-2.78,6.43c-.91,2.15-1.37,3.91-1.37,5.31,0,1.85.75,3.22,2.24,4.1.88.52,3.04.91,6.48,1.17v1.8h-21.98v-1.8c2.37-.36,4.32-1.33,5.85-2.92,1.53-1.63,3.41-4.96,5.66-9.99l23.63-52.73h.93l23.83,54.19c2.27,5.13,4.14,8.37,5.61,9.7,1.11,1.01,2.67,1.59,4.68,1.76v1.8h-31.97v-1.8h1.32c2.57,0,4.37-.36,5.41-1.07.71-.52,1.07-1.27,1.07-2.24,0-.59-.1-1.19-.29-1.8-.07-.3-.55-1.51-1.46-3.66l-3.51-8.24h0Z"/>
  <path class="cls-3" d="m798.52,790.9v35.67c0,3.48.32,5.65.97,6.53.65.84,1.97,1.38,3.95,1.61v1.76h-18.57v-6.09c-2.18,2.6-4.35,4.5-6.53,5.7-2.18,1.17-4.61,1.76-7.31,1.76s-4.86-.78-6.87-2.34c-1.98-1.59-3.31-3.44-4-5.56-.68-2.11-1.02-5.8-1.02-11.06v-18.08c0-3.44-.32-5.59-.97-6.43-.62-.85-1.93-1.4-3.95-1.66v-1.8h18.57v31.14c0,3.25.15,5.34.44,6.29.32.94.81,1.66,1.46,2.14.68.49,1.46.73,2.34.73,1.17,0,2.22-.31,3.16-.93,1.3-.84,2.86-2.55,4.68-5.12v-24.37c0-3.44-.32-5.59-.97-6.43-.62-.85-1.93-1.4-3.95-1.66v-1.8h18.57Z"/>
  <path class="cls-3" d="m837.33,789.63l.73,15.55h-1.66c-1.99-4.61-4.05-7.76-6.19-9.45-2.11-1.69-4.23-2.54-6.34-2.54-1.33,0-2.47.46-3.41,1.36-.94.88-1.41,1.9-1.41,3.07,0,.88.32,1.72.98,2.53,1.04,1.33,3.94,3.62,8.72,6.87,4.78,3.22,7.91,5.96,9.41,8.24,1.52,2.24,2.29,4.76,2.29,7.55,0,2.54-.64,5.02-1.9,7.46-1.27,2.44-3.06,4.3-5.36,5.61-2.31,1.3-4.86,1.95-7.65,1.95-2.18,0-5.09-.68-8.73-2.05-.97-.36-1.64-.54-2-.54-1.07,0-1.97.81-2.68,2.44h-1.61l-.78-16.38h1.66c1.46,4.29,3.46,7.51,6,9.65,2.57,2.15,4.98,3.22,7.26,3.22,1.56,0,2.82-.47,3.8-1.41,1.01-.97,1.51-2.15,1.51-3.51,0-1.56-.49-2.91-1.46-4.04-.98-1.14-3.16-2.86-6.53-5.17-4.97-3.44-8.18-6.08-9.65-7.89-2.15-2.67-3.21-5.61-3.21-8.82,0-3.51,1.2-6.68,3.61-9.5,2.44-2.86,5.94-4.29,10.53-4.29,2.47,0,4.86.6,7.17,1.81.88.49,1.59.73,2.14.73.59,0,1.06-.12,1.41-.34.35-.26.92-.96,1.71-2.1h1.66Z"/>
  <path class="cls-3" d="m863.46,774.23v16.67h10.82v4.82h-10.82v28.12c0,2.63.11,4.34.34,5.12.26.75.7,1.36,1.31,1.85.62.46,1.19.68,1.71.68,2.11,0,4.11-1.61,5.99-4.82l1.46,1.07c-2.63,6.24-6.9,9.36-12.82,9.36-2.89,0-5.34-.79-7.36-2.39-1.98-1.63-3.25-3.43-3.8-5.41-.32-1.11-.49-4.09-.49-8.97v-24.61h-5.95v-1.7c4.09-2.89,7.57-5.93,10.43-9.12,2.89-3.18,5.41-6.74,7.55-10.67h1.61Z"/>
  <path class="cls-3" d="m898.52,790.9v10.33c3.02-4.71,5.67-7.83,7.94-9.36,2.27-1.56,4.47-2.34,6.58-2.34,1.82,0,3.26.57,4.34,1.71,1.1,1.1,1.66,2.68,1.66,4.72,0,2.18-.54,3.87-1.61,5.07-1.04,1.2-2.3,1.8-3.8,1.8-1.72,0-3.21-.55-4.48-1.66-1.26-1.1-2.01-1.72-2.24-1.85-.32-.2-.7-.29-1.12-.29-.94,0-1.84.36-2.68,1.07-1.33,1.11-2.34,2.68-3.02,4.73-1.04,3.15-1.56,6.63-1.56,10.43v10.48l.05,2.73c0,1.85.12,3.04.34,3.56.39.88.96,1.53,1.71,1.95.78.39,2.08.63,3.9.73v1.76h-24.61v-1.76c1.98-.16,3.31-.7,4-1.61.72-.94,1.07-3.39,1.07-7.36v-25.19c0-2.6-.13-4.26-.39-4.97-.32-.91-.79-1.58-1.41-2-.62-.42-1.71-.72-3.26-.88v-1.8h18.62Z"/>
  <path class="cls-4" d="m946.07,826.18v-15.25c-3.93,2.31-6.86,4.77-8.77,7.41-1.27,1.76-1.9,3.53-1.9,5.32,0,1.49.54,2.81,1.61,3.95.81.88,1.95,1.31,3.41,1.31,1.62,0,3.51-.91,5.65-2.73h0Zm0,3.56c-5.56,4.91-10.55,7.36-14.96,7.36-2.6,0-4.76-.84-6.48-2.53-1.73-1.73-2.58-3.87-2.58-6.43,0-3.48,1.49-6.6,4.48-9.36,2.99-2.79,9.5-6.5,19.54-11.11v-4.58c0-3.44-.2-5.6-.58-6.48-.36-.91-1.06-1.69-2.1-2.34-1.04-.68-2.22-1.02-3.51-1.02-2.12,0-3.85.47-5.22,1.41-.85.59-1.27,1.27-1.27,2.05,0,.68.45,1.53,1.36,2.53,1.23,1.4,1.85,2.75,1.85,4.05,0,1.59-.61,2.96-1.8,4.09-1.17,1.11-2.72,1.66-4.63,1.66-2.05,0-3.77-.62-5.17-1.85-1.36-1.24-2.05-2.68-2.05-4.34,0-2.34.93-4.57,2.78-6.68,1.85-2.14,4.44-3.78,7.75-4.92,3.31-1.14,6.75-1.71,10.33-1.71,4.32,0,7.73.93,10.23,2.78,2.53,1.82,4.17,3.8,4.92,5.95.45,1.36.68,4.5.68,9.41v17.69c0,2.08.07,3.39.24,3.95.16.52.4.91.73,1.17.32.26.69.39,1.12.39.84,0,1.7-.6,2.58-1.8l1.46,1.17c-1.63,2.4-3.31,4.16-5.07,5.26-1.73,1.07-3.69,1.61-5.89,1.61-2.6,0-4.63-.6-6.09-1.8-1.46-1.24-2.36-3.09-2.68-5.56h0Z"/>
  <path class="cls-3" d="m987.67,770.38v56.63c0,3.22.37,5.28,1.12,6.19.74.88,2.21,1.38,4.38,1.51v1.76h-24.61v-1.76c2.02-.07,3.51-.65,4.48-1.76.65-.75.98-2.73.98-5.95v-47.18c0-3.18-.37-5.22-1.12-6.09-.74-.91-2.19-1.43-4.34-1.56v-1.8h19.11Z"/>
  <path class="cls-4" d="m1016.35,790.9v36.11c0,3.22.37,5.28,1.12,6.19.75.88,2.21,1.38,4.39,1.51v1.76h-24.61v-1.76c2.01-.07,3.51-.65,4.48-1.76.65-.75.97-2.73.97-5.95v-26.61c0-3.22-.37-5.27-1.12-6.14-.75-.91-2.2-1.43-4.34-1.56v-1.8h19.11Zm-6.82-22.08c2.11,0,3.9.75,5.36,2.24,1.46,1.46,2.19,3.23,2.19,5.31s-.74,3.85-2.24,5.31c-1.46,1.46-3.23,2.19-5.31,2.19s-3.85-.73-5.31-2.19c-1.46-1.46-2.2-3.24-2.2-5.31s.73-3.85,2.2-5.31c1.46-1.49,3.23-2.24,5.31-2.24h0Z"/>
  <path class="cls-4" d="m1050.44,826.18v-15.25c-3.93,2.31-6.86,4.77-8.78,7.41-1.26,1.76-1.9,3.53-1.9,5.32,0,1.49.54,2.81,1.61,3.95.81.88,1.95,1.31,3.41,1.31,1.63,0,3.51-.91,5.66-2.73h0Zm0,3.56c-5.56,4.91-10.54,7.36-14.96,7.36-2.6,0-4.76-.84-6.48-2.53-1.72-1.73-2.58-3.87-2.58-6.43,0-3.48,1.49-6.6,4.48-9.36,2.99-2.79,9.5-6.5,19.54-11.11v-4.58c0-3.44-.2-5.6-.59-6.48-.36-.91-1.06-1.69-2.1-2.34-1.04-.68-2.21-1.02-3.51-1.02-2.11,0-3.85.47-5.22,1.41-.84.59-1.27,1.27-1.27,2.05,0,.68.45,1.53,1.36,2.53,1.24,1.4,1.85,2.75,1.85,4.05,0,1.59-.6,2.96-1.8,4.09-1.17,1.11-2.72,1.66-4.63,1.66-2.05,0-3.77-.62-5.17-1.85-1.36-1.24-2.05-2.68-2.05-4.34,0-2.34.93-4.57,2.78-6.68,1.85-2.14,4.44-3.78,7.75-4.92,3.31-1.14,6.76-1.71,10.33-1.71,4.32,0,7.73.93,10.23,2.78,2.53,1.82,4.18,3.8,4.92,5.95.46,1.36.68,4.5.68,9.41v17.69c0,2.08.08,3.39.25,3.95.16.52.41.91.73,1.17.32.26.7.39,1.12.39.84,0,1.7-.6,2.58-1.8l1.46,1.17c-1.63,2.4-3.31,4.16-5.07,5.26-1.72,1.07-3.69,1.61-5.9,1.61-2.6,0-4.63-.6-6.09-1.8-1.46-1.24-2.35-3.09-2.68-5.56h0Z"/>
</svg>