<svg width="6976" height="1936" viewBox="0 0 6976 1936" fill="none" xmlns="http://www.w3.org/2000/svg">
<g clip-path="url(#clip0_1592_9305)">
<g clip-path="url(#clip1_1592_9305)">
<path opacity="0.5" d="M5426.89 -39.5441C5439.73 5.05578 5448.95 50.9048 5461.38 95.6446C5466.84 115.289 5473.67 134.095 5482.12 152.296C5518.02 229.708 5556.4 305.264 5602.3 375.407C5635.88 426.738 5673.23 474.124 5713.24 518.783C5750.94 560.868 5777.43 611.25 5793.55 668.921C5806.93 716.775 5820.42 764.564 5834.28 812.234C5857.23 891.208 5896.02 958.214 5945.86 1017.27C5994.46 1074.86 6038.59 1136.85 6080.37 1201.18C6114.24 1253.33 6136.17 1311.82 6150.48 1374.6C6162.78 1428.56 6174.04 1482.87 6189.36 1535.83C6208.21 1601.06 6230.89 1664.42 6258.15 1725.51C6262.22 1734.63 6266.61 1743.6 6271.34 1752.29C6293.75 1793.34 6324.01 1823.23 6363.91 1839.39C6381.54 1846.52 6399.35 1853.1 6416.34 1862.21C6448.95 1879.68 6476.91 1904.7 6502.6 1933.43C6512.4 1944.39 6522.1 1955.49 6531.99 1966.34C6553.23 1989.68 6578.82 1999.35 6607.72 1997.08C6633.88 1995.03 6658.82 2000.47 6683.15 2010.93C6687.91 2012.97 6692.67 2014.99 6697.33 2017.28C6715.7 2026.27 6734.78 2027.6 6754.27 2024.34C6774.6 2020.94 6781.38 2010.42 6777.96 1987.29C6775.34 1969.55 6772.27 1951.9 6769.55 1934.17C6766.21 1912.39 6764.34 1890.43 6765.16 1868.3C6766.05 1844.53 6757.03 1826.57 6741.96 1811.88C6735.38 1805.47 6727.96 1800.51 6720.23 1796.23C6711.38 1791.33 6702.47 1786.53 6693.46 1782.05C6652.49 1761.72 6621.18 1728.59 6597.55 1685.19C6577.06 1647.56 6563.41 1606.44 6553.52 1563.76C6526.71 1448 6536.93 1337.19 6589.74 1232.84C6604.79 1203.08 6624.16 1177.28 6647.04 1155.09C6679.05 1124.06 6712.49 1095.53 6750.65 1075.29C6782.93 1058.17 6816.49 1048.82 6852.24 1052.98C6877.22 1055.89 6900.41 1065.18 6922.3 1079.07C6943.67 1092.63 6963.91 1108.37 6984.84 1122.79L6984.7 1138.25C6983.1 1134.83 6980.15 1133.22 6977.49 1131.32C6959.18 1118.19 6941.02 1104.76 6922.45 1092.15C6891.64 1071.25 6858.48 1060.6 6822.47 1063.95C6797.82 1066.24 6774.54 1074.47 6752.38 1086.89C6707.07 1112.28 6666.59 1145.99 6631.68 1187.81C6593.17 1233.96 6570.61 1290.48 6558.42 1352.6C6542.3 1434.82 6547.5 1515.47 6572.01 1594.63C6583.08 1630.4 6596.15 1664.88 6615.64 1695.7C6635.92 1727.75 6661.27 1752.51 6692.58 1768.99C6705.54 1775.82 6718.56 1782.58 6731.2 1790.14C6747.61 1799.95 6760.95 1813.69 6769.05 1833.46C6772.79 1842.57 6775.18 1852.01 6774.87 1862.15C6773.75 1899.6 6779.02 1936.15 6785.67 1972.54C6787.24 1981.16 6788.64 1989.81 6788.58 1998.72C6788.47 2014.54 6781.74 2025.13 6769.59 2031.33C6766.15 2033.09 6762.4 2034.32 6758.68 2035.01C6735.68 2039.29 6713.22 2037.62 6691.53 2026.92C6672.2 2017.37 6652.27 2010.44 6631.16 2008.5C6624.49 2007.88 6617.86 2007.84 6611.2 2008.39C6576.33 2011.35 6546.36 1999.1 6521.33 1970.51C6507.8 1955.05 6494.43 1939.39 6480.15 1924.81C6451.03 1895.09 6418.5 1872.3 6381.41 1858.5C6374.79 1856.03 6368.3 1853.06 6361.71 1850.45C6319.22 1833.59 6286.87 1802.06 6263.1 1758.35C6247.52 1729.69 6235.57 1698.85 6223.45 1668.11C6190.84 1585.32 6167.31 1498.95 6148.49 1410.71C6142.86 1384.33 6136.57 1358.16 6129.13 1332.38C6115.11 1283.79 6093.69 1239.95 6067 1199.31C6025.69 1136.42 5981.68 1076.28 5934.3 1019.38C5890.36 966.606 5854.17 907.681 5832.3 837.967C5824.61 813.462 5816.77 789.032 5809.8 764.246C5801.56 734.929 5793.47 705.535 5785.4 676.152C5769.4 617.952 5743.11 567.008 5704.85 525.006C5627.62 440.223 5564.44 342.869 5511.35 236.334C5495.35 204.216 5479.76 171.825 5465.1 138.858C5456.94 120.504 5452.35 100.514 5447.15 80.8828C5436.93 42.2746 5428.87 2.92356 5417.63 -35.3402C5417.24 -36.6589 5417.44 -38.2154 5417.36 -39.6638C5420.53 -39.635 5423.7 -39.6062 5426.88 -39.5773L5426.89 -39.5441Z" fill="#F2541A"/>
<path d="M6986.28 963.843C6978.25 954.542 6970.99 944.43 6962.63 935.435C6941.65 912.832 6916.68 901.034 6888.62 896.546C6840.71 888.894 6795.28 899.842 6751.22 921.159C6705.07 943.484 6664.07 975.382 6626.25 1012.97C6579.4 1059.52 6538.57 1112.28 6506.12 1173.3C6488.57 1206.32 6476.72 1242.57 6463.76 1278.16C6454.25 1304.29 6445.43 1330.65 6440.1 1358.46C6426.78 1427.96 6433.52 1495.16 6456.5 1560.55C6475.08 1613.43 6501.81 1660.56 6532.06 1705.23C6555.56 1739.94 6581.13 1772.54 6607.23 1804.62C6616.17 1815.62 6625.99 1825.43 6636.61 1834.17C6644.65 1840.79 6652.3 1847.96 6658.13 1857.29C6663.9 1866.51 6667.35 1876.58 6664.87 1888.3C6660.59 1908.41 6645.74 1919.36 6628.11 1915.49C6620.26 1913.77 6612.84 1910.61 6605.82 1906.34C6599.38 1902.42 6592.99 1898.31 6586.88 1893.76C6501.29 1830.32 6426.73 1752.85 6362.51 1661.39C6312.97 1590.83 6273.65 1513.17 6237.64 1432.86C6205.78 1361.81 6177.35 1288.82 6147.96 1216.37C6128.68 1168.84 6108.73 1121.7 6088.01 1075.01C6069.8 1033.97 6046.36 996.99 6021.93 960.794C5996.55 923.198 5969.98 886.663 5946.48 847.381C5939.81 836.225 5933.64 824.653 5927.17 813.321C5904.39 773.35 5892.96 728.465 5884.73 682.094C5878.35 646.118 5873.14 609.832 5864.88 574.336C5859.77 552.33 5852.89 531.336 5843.58 510.96C5824.6 469.443 5796.87 437.207 5767.14 406.645C5742.98 381.791 5718.14 357.826 5694.49 332.258C5660.88 295.913 5636.32 252.047 5614.82 205.511C5588.88 149.365 5568.86 90.2333 5549.84 30.6132C5542.48 7.5256 5535.12 -15.551 5527.77 -38.6274C5531.58 -38.5928 5535.39 -38.5582 5539.2 -38.5236C5539.09 -33.1645 5541.57 -28.6881 5543.07 -23.9223C5560.56 31.6169 5577.76 87.3081 5598.6 141.319C5612.2 176.576 5627.85 210.526 5645.02 243.627C5666.38 284.812 5694.86 318.48 5725.68 349.893C5750.65 375.351 5776.19 400.04 5800.21 426.794C5842.46 473.871 5868.71 530.684 5879.9 597.272C5885.34 629.726 5891.76 661.956 5897.13 694.43C5905.85 747.093 5925.74 793.714 5952.13 837.166C5974.04 873.25 5998.01 907.452 6021.62 942.004C6048.4 981.204 6074.54 1020.93 6094.65 1065.41C6112.3 1104.44 6129.02 1144.02 6145.41 1183.79C6179.14 1265.65 6211.02 1348.53 6246.98 1429.13C6271.46 1483.99 6297.48 1537.8 6327.47 1588.88C6346.75 1621.71 6368.57 1652.31 6390.9 1682.39C6433.6 1739.95 6480.24 1792.69 6533.61 1836.99C6552.4 1852.59 6571.5 1867.72 6590.51 1882.94C6597.56 1888.58 6605.05 1893.39 6612.77 1897.66C6619.09 1901.15 6625.66 1903.86 6632.67 1904.65C6640.49 1905.51 6647.09 1902.85 6651.68 1895.01C6656.33 1887.05 6657.39 1878.7 6653.35 1870.04C6651.86 1866.84 6650.15 1863.66 6648.07 1860.94C6645.13 1857.12 6642.13 1853.13 6638.54 1850.25C6606.61 1824.66 6582.06 1790.34 6556.66 1757.11C6524.25 1714.69 6494.54 1669.85 6470.58 1620.23C6450.02 1577.65 6434.5 1532.87 6427.48 1484.41C6418.84 1424.61 6424.12 1366.33 6442.44 1309.67C6454.81 1271.42 6468.49 1233.76 6483.81 1196.94C6500.35 1157.18 6522.93 1122.04 6547.51 1088.62C6593.24 1026.46 6645.52 973.224 6707.29 933.292C6742.73 910.383 6780.07 893.294 6820.35 886.145C6850.09 880.867 6879.71 881.335 6909.12 889.582C6934.15 896.595 6955.36 911.055 6973.57 931.866C6977.8 936.689 6981.34 942.336 6986.43 946.107L6986.27 963.766L6986.28 963.843Z" fill="#F2541A"/>
<path d="M5763.78 -36.483C5762.91 -34.3137 5764.35 -33.0739 5765.31 -31.7611C5793.39 6.81036 5816.73 49.2842 5840.3 91.5281C5867.48 140.248 5894.91 188.815 5918.69 239.958C5935.74 276.617 5950.09 314.533 5958.06 355.375C5966.29 397.435 5966.09 440.016 5963.69 482.742C5962.09 511.385 5960.03 540.078 5963.74 568.659C5969.59 613.759 5984.04 654.295 6012.26 686.999C6062.02 744.689 6109.61 804.712 6156.1 865.919C6173.49 888.81 6190.25 912.271 6206.3 936.454C6246.22 996.617 6269.34 1064.96 6280.41 1139.36C6284.89 1169.45 6287.23 1199.87 6290.95 1230.06C6292.06 1239.16 6293.24 1248.29 6296.49 1256.77C6300.43 1266.99 6305.63 1268.94 6313.93 1263.23C6322.03 1257.64 6327.95 1249.36 6333.17 1240.53C6353.61 1206.02 6370.32 1169.28 6379.38 1128.57C6394.86 1059.05 6394.22 989.497 6378.55 920.148C6375.9 908.42 6373.27 896.682 6371.06 884.836C6362.48 838.96 6376.14 802.205 6410.75 777.343C6427.28 765.469 6445.05 756.612 6463.11 748.532C6510.13 727.497 6557.03 706.074 6605.54 689.937C6664.52 670.314 6724.4 664.459 6785.38 672.274C6855.98 681.326 6922.13 705.457 6983.19 747.665C6984.73 748.729 6986.02 750.763 6988.22 749.656L6988.1 762.906C6984.49 763.647 6982.38 760.323 6979.81 758.532C6924.01 719.465 6863.56 695.939 6799.05 685.694C6761.19 679.68 6723.23 678.451 6685.22 683.09C6653.94 686.906 6623.35 694.895 6593.36 705.973C6542.3 724.827 6492.15 746.552 6442.78 770.716C6433.72 775.154 6424.99 780.434 6416.61 786.415C6384.69 809.167 6372.95 840.89 6380.78 883.167C6385.24 907.223 6391.76 930.712 6395.11 955.068C6408.92 1055.43 6396.31 1149.88 6347.63 1236.23C6341.54 1247.05 6334.99 1257.44 6326.68 1266.18C6322.65 1270.42 6318.35 1274.09 6313.11 1276.12C6303.61 1279.8 6295.49 1276.64 6290.04 1266.85C6286.2 1259.95 6284.47 1252.11 6283.11 1244.15C6278.89 1219.6 6277.46 1194.61 6274.54 1169.86C6267.51 1110.47 6254.91 1053.07 6230.15 999.986C6213.49 964.248 6192.33 932.149 6169.58 901.495C6122.67 838.295 6074.82 776.092 6023.87 717.177C6019.61 712.253 6015.5 707.121 6011.2 702.263C5968.39 653.954 5950.68 594.158 5952.01 525.904C5952.48 502.014 5954.13 478.146 5955.2 454.262C5958.35 384.455 5943.85 319.56 5915.93 258.113C5894.49 210.926 5870.02 165.9 5845.15 121.147C5822.84 81.0251 5801.1 40.4445 5776.16 2.38784C5769.07 -8.42991 5761.46 -18.7771 5754.22 -29.4526C5752.74 -31.6211 5750.04 -33.0713 5750.47 -36.6371L5763.8 -36.516L5763.78 -36.483Z" fill="#F2541A"/>
<path d="M5093.8 -42.5707C5094.58 -37.5019 5092.11 -33.3247 5090.83 -28.8825C5075.92 22.8699 5063.83 75.4437 5058.43 129.736C5046.31 251.471 5067.87 364.428 5124.29 468.086C5157.56 529.217 5199.63 581.322 5246.08 629.056C5276.92 660.757 5309.96 689.305 5341.67 719.764C5407.38 782.914 5468.44 851.725 5526.33 924.396C5555.79 961.367 5584.91 998.677 5611.01 1038.98C5653.42 1104.47 5689.76 1173.96 5714.83 1250.94C5733.74 1309 5745.88 1368.82 5750.83 1430.73C5754.5 1476.67 5754.89 1522.56 5750.75 1568.44C5744.71 1635.3 5728.88 1698.85 5702.71 1759.09C5653.07 1873.28 5580.6 1963.7 5490.35 2035.9C5464.99 2056.19 5438.52 2074.37 5411.78 2092.1C5403.2 2097.78 5394.9 2099.16 5384.29 2097.24C5388.47 2092.77 5392.8 2090.85 5396.77 2088.39C5440.25 2061.47 5481.87 2031.17 5520.76 1995.95C5594.75 1928.98 5653.78 1847.79 5695.62 1750.04C5722.23 1687.87 5737.36 1622.19 5741.95 1553.21C5752.94 1387.99 5715.24 1238.14 5636.86 1101.05C5603.83 1043.29 5565.7 990.434 5525.2 939.637C5470.53 871.051 5413.42 805.437 5352.14 744.77C5333.1 725.931 5313.46 707.959 5293.84 689.943C5246.84 646.768 5201.77 601.168 5162.88 547.921C5114.56 481.746 5078.14 408.142 5059.27 323.558C5044.56 257.534 5041.92 190.669 5049.24 123.176C5055.3 67.4752 5067.74 13.5011 5083.71 -39.4353C5084.01 -40.4603 5084.09 -41.5758 5084.28 -42.6572C5087.45 -42.6284 5090.62 -42.5996 5093.8 -42.5707Z" fill="#F2541A"/>
<path opacity="0.5" d="M5209.9 -41.5158C5210.24 -38.6282 5208.49 -36.7101 5207.38 -34.565C5181.26 16.2014 5165.69 71.1859 5160.53 129.724C5153.52 209.189 5158.42 287.767 5177.88 364.543C5194.4 429.7 5225.1 484.198 5270.08 528.118C5349.1 605.258 5426.69 684.276 5501.21 767.277C5559.28 831.971 5615.33 898.868 5665.07 972.527C5718.61 1051.8 5759.24 1139.6 5792.19 1232.4C5816.04 1299.56 5833.56 1368.88 5842.57 1440.93C5847.18 1477.75 5849.81 1514.73 5848.63 1552C5847.39 1590.59 5839.19 1627.64 5829.36 1664.23C5806.92 1747.67 5771.12 1823.2 5727.03 1893.71C5680.54 1968.05 5626.16 2033.89 5566.21 2093.69C5563.9 2096 5560.94 2097.66 5559.72 2101.26L5546.39 2101.13C5547.28 2095.96 5551.12 2093.67 5554.16 2090.68C5611.81 2034.08 5664.29 1971.74 5709.79 1901.7C5754.58 1832.76 5791.42 1758.76 5815.53 1676.78C5825.58 1642.6 5833.66 1607.85 5837.52 1571.93C5839.84 1550.29 5839.55 1528.59 5838.51 1506.91C5833.85 1409.63 5811.98 1317.24 5780.07 1227.68C5734.81 1100.63 5671.14 987.635 5589.95 887.509C5517.81 798.561 5440.95 715.461 5361.96 634.905C5329.13 601.43 5296.07 568.262 5262.64 535.621C5216.43 490.496 5185.67 433.919 5168.19 367.207C5156.06 320.856 5150.58 273.196 5148.76 224.949C5147.78 199.256 5146.97 173.532 5148.85 147.754C5153.51 83.851 5167.96 23.4077 5195.1 -32.7646C5196.46 -35.5705 5198.72 -38.0034 5198.48 -41.6527L5209.9 -41.5489L5209.9 -41.5158Z" fill="#F2541A"/>
<path d="M5689.15 2102.45C5690.1 2100.26 5690.56 2097.94 5692.36 2096.09C5727.17 2060.48 5754.84 2017.81 5781.44 1974.13C5807.08 1932.02 5832.29 1889.6 5860.22 1849.38C5879.51 1821.61 5891.24 1788.64 5901.09 1755.07C5915 1707.62 5924.34 1658.72 5933.46 1609.87C5940.43 1572.56 5936.82 1535.15 5929.75 1498.24C5922.87 1462.29 5912.16 1427.71 5901.99 1392.93C5891.29 1356.4 5881.01 1319.69 5876.67 1281.22C5874.36 1260.75 5873.95 1240.14 5877.91 1219.75C5878.81 1215.12 5880.05 1210.49 5881.69 1206.14C5889.17 1186.29 5904.15 1177 5922.48 1180.18C5938.49 1182.97 5951.57 1192.04 5963.08 1204.7C5982.2 1225.7 5995.97 1251.21 6008.33 1277.8C6025.18 1314.09 6038.3 1352.27 6050.54 1390.93C6081.22 1487.8 6112.4 1584.45 6143.13 1681.3C6155.59 1720.58 6167.45 1760.13 6179.51 1799.58C6186.2 1821.45 6193.67 1842.85 6204.83 1862.28C6210.47 1872.1 6216.87 1881.17 6224.1 1889.47C6242.11 1910.14 6263.64 1921.1 6288.97 1924.61C6323.89 1929.45 6353.31 1948.01 6377.01 1978.24C6383.82 1986.93 6390.37 1995.93 6396.77 2005.04C6429.5 2051.58 6471.11 2083.08 6519.65 2102.92C6522.25 2103.98 6524.85 2105.07 6528.05 2106.41C6518.45 2109.58 6505.21 2108.93 6497.53 2105.17C6454.11 2083.92 6417.21 2052.57 6387.52 2009.97C6381.15 2000.84 6374.57 1991.85 6367.63 1983.31C6345.28 1955.81 6317.76 1939.36 6285.38 1935.4C6246.63 1930.66 6219.38 1906.09 6197.96 1870.63C6186.98 1852.46 6179.14 1832.38 6172.91 1811.47C6133.38 1678.85 6089.27 1548.2 6048 1416.33C6036 1377.99 6024.07 1339.65 6008.55 1303C5998.61 1279.56 5987.64 1256.81 5974.04 1235.91C5967.13 1225.32 5959.47 1215.55 5950.63 1207.1C5941.64 1198.51 5931.57 1192.84 5919.79 1191.41C5905.7 1189.7 5895.83 1196.19 5890.34 1211.48C5887 1220.75 5885.75 1230.56 5885.22 1240.53C5883.56 1271.07 5888.57 1300.56 5895.33 1329.78C5903.14 1363.51 5913.61 1396.24 5923.02 1429.38C5932.23 1461.86 5940.55 1494.61 5944.41 1528.67C5948.05 1560.67 5947.79 1592.43 5941.03 1624C5931.63 1667.89 5923.84 1712.27 5911.32 1755.23C5903.49 1782.13 5894.13 1808.25 5881.6 1832.74C5875.43 1844.8 5868.51 1856.18 5860.78 1867.01C5836.01 1901.65 5814.62 1939.16 5792.33 1975.89C5770.93 2011.15 5748.85 2045.77 5723.34 2077.29C5716.46 2085.79 5708.23 2092.8 5702.48 2102.57L5689.16 2102.45L5689.15 2102.45Z" fill="#F2541A"/>
<path d="M6089.27 -33.5255C6096.93 -19.5086 6106.82 -7.59339 6116.53 4.36446C6156.75 53.877 6198.9 100.931 6247.16 140.095C6255.97 147.248 6264.47 154.94 6272.46 163.324C6285.67 177.181 6293.33 194.005 6295.12 214.975C6297.13 238.468 6294.51 261.221 6289.35 283.731C6282.93 311.722 6279.88 340.219 6281.72 368.959C6285.98 435.595 6312.93 484.943 6366.22 512.968C6378.7 519.536 6392.13 522.443 6405.79 523.683C6434.4 526.275 6462.83 523.207 6491.15 519.088C6563.73 508.519 6636.35 504.835 6709.32 512.693C6803.26 522.808 6894.15 547.052 6981.64 587.998C6984.19 589.193 6986.57 591.524 6989.68 590.713L6989.56 603.962C6921.59 570.842 6851.07 547.821 6778.32 534.13C6707.38 520.787 6636 516.425 6564.16 522.205C6529.99 524.955 6496.08 530.582 6461.98 533.986C6436.02 536.579 6409.94 538.519 6384.37 531.391C6337.47 518.321 6304.81 484.925 6285.02 434.371C6276.28 412.055 6271.95 388.465 6271.6 363.838C6271.21 336.106 6273.48 308.774 6279.64 281.908C6284.55 260.435 6287.09 238.774 6285.33 216.412C6284.04 199.822 6278.59 186.002 6268.44 174.538C6260.47 165.547 6251.65 157.752 6242.6 150.332C6189.31 106.624 6142.53 54.6319 6098.93 -1.38763C6090.89 -11.7278 6083.59 -22.8679 6075.95 -33.6354C6080.39 -33.595 6084.83 -33.5547 6089.28 -33.5143L6089.27 -33.5255Z" fill="#F2541A"/>
<path d="M6983.65 1253.07C6975.27 1248.67 6968.28 1241.73 6960.76 1235.82C6931.16 1212.51 6901.81 1188.82 6872.15 1165.64C6840.4 1140.82 6805.86 1135.77 6770.85 1153.36C6716.24 1180.79 6687.03 1230.72 6681.45 1299.22C6680.7 1308.44 6682.74 1317.55 6684.71 1326.42C6689.66 1348.65 6689.4 1370.52 6683.82 1392.76C6677.17 1419.23 6671.16 1445.91 6666.51 1473C6656.83 1529.43 6665.24 1581.1 6695.12 1627.52C6704.63 1642.29 6715.23 1655.92 6726.92 1668.32C6746.56 1689.17 6767.17 1708.61 6789.62 1725.33C6804.81 1736.66 6819.63 1748.56 6832.36 1763.64C6846.8 1780.76 6854.43 1800.43 6852.86 1825.14C6848.32 1896.79 6860.22 1965.6 6880.51 2032.81C6885 2047.71 6889.46 2062.63 6893.52 2077.69C6896.65 2089.3 6898.44 2101.21 6895.88 2113.43L6886.36 2113.34C6888.42 2099.13 6885.77 2085.64 6881.89 2072.29C6874.42 2046.54 6866.28 2021.06 6859.9 1994.87C6846.15 1938.54 6839.19 1881.3 6843.17 1822.65C6844.49 1803.2 6838.17 1787.51 6827.19 1773.74C6816.36 1760.15 6803.49 1749.43 6790.2 1739.41C6758.22 1715.29 6728.27 1688.28 6702.4 1655.63C6681.77 1629.58 6666.19 1599.89 6657.93 1565.62C6650.23 1533.76 6652.03 1501.55 6657.19 1469.39C6661.66 1441.5 6668.38 1414.26 6674.93 1386.98C6679.02 1369.9 6680 1352.87 6676.31 1335.76C6663.18 1274.88 6682.3 1225.29 6717.25 1181.84C6738.18 1155.82 6764.1 1139.39 6794.74 1133.92C6824.32 1128.66 6851.56 1135.99 6876.19 1155.19C6910.87 1182.23 6945.2 1209.88 6979.7 1237.25C6980.97 1238.25 6982.41 1238.99 6983.76 1239.84L6983.64 1253.09L6983.65 1253.07Z" fill="#F2541A"/>
<path opacity="0.5" d="M6340.51 -31.2427C6339.69 -26.7743 6343.06 -24.8759 6344.88 -22.2511C6360.23 -0.262378 6374.74 22.3819 6387.25 46.743C6409.03 89.1585 6421.12 135 6424.15 184.23C6425.07 199.247 6426.66 214.181 6429.23 228.981C6434.75 260.716 6449.65 284.569 6473.33 301.339C6494.51 316.341 6518.02 323.396 6542.13 328.367C6572.37 334.61 6602.97 338.159 6633.34 343.408C6679.11 351.306 6724.12 363.342 6768.94 376.392C6840.49 397.212 6911 421.923 6980.26 451.364C6983.82 452.877 6987.35 454.479 6990.89 456.036L6990.77 469.286C6987.17 465.374 6982.37 464.402 6977.98 462.55C6876.13 419.429 6772.03 385.516 6665.62 361.141C6637.03 354.593 6608.03 350.892 6579.15 346.342C6550.91 341.886 6522.58 337.771 6495.67 326.099C6489.46 323.401 6483.3 320.439 6477.38 316.97C6443.63 297.157 6423.43 265.708 6418.15 222.05C6415.77 202.412 6414.36 182.605 6412.24 162.925C6407.08 115.245 6391.09 72.4953 6368.22 32.9212C6357.1 13.6786 6344.78 -4.50297 6332.1 -22.3673C6330.17 -25.0814 6327.13 -27.1094 6327.16 -31.3309L6340.49 -31.2098L6340.51 -31.2427Z" fill="#F2541A"/>
<path d="M6184.02 2106.95C6183.77 2103.92 6181.46 2102.94 6179.77 2101.52C6151.39 2077.7 6130.54 2046.69 6116.21 2009.92C6091.55 1946.63 6070.38 1881.85 6057.21 1813.84C6054.3 1798.82 6051.59 1783.7 6046.12 1769.51C6041.72 1758.11 6034.39 1751.79 6023.53 1750.61C6017.71 1749.97 6013.01 1751.78 6008.86 1756.48C6003.77 1762.23 6000.25 1769.2 5997.08 1776.42C5988.17 1796.79 5981.68 1818.33 5975.06 1839.78C5959.68 1889.61 5944.37 1939.46 5925.07 1987.53C5910.18 2024.59 5893.43 2060.41 5874.02 2094.58C5872.36 2097.49 5869.51 2099.9 5869.96 2104.09L5858.54 2103.98C5858.46 2100.44 5860.3 2097.9 5861.87 2095.19C5895.56 2037.66 5921.16 1975.4 5942.28 1910.54C5954.92 1871.7 5967 1832.62 5979.58 1793.74C5983.59 1781.36 5988.45 1769.34 5994.92 1758.34C6011.07 1730.89 6040.6 1732.87 6053.94 1762.35C6059.59 1774.82 6062.4 1788.45 6064.9 1802.08C6077.16 1868.83 6097.75 1932.27 6120.82 1994.75C6136.76 2037.94 6160.22 2074.06 6194.64 2099.79C6196.96 2101.52 6199.71 2102.95 6199.24 2107.08L6184.01 2106.94L6184.02 2106.95Z" fill="#F2541A"/>
<path d="M6496.58 -29.8244C6496.71 -28.7622 6496.61 -27.5475 6497.02 -26.6486C6517.18 17.1448 6539.09 59.5836 6565.82 98.5737C6596.55 143.425 6636.09 174.043 6680.66 197.16C6728.56 221.997 6778.5 239.161 6829.79 251.309C6879.83 263.158 6930.38 270.646 6981.42 273.586C6985.12 273.796 6988.97 275.356 6992.56 272.769L6992.44 286.019C6951.94 283.518 6911.62 279.074 6871.57 271.637C6804.19 259.111 6738.74 239.098 6675.98 207.351C6617.05 177.551 6570.43 131.771 6535.07 69.803C6517.77 39.4746 6501.84 8.26344 6487.17 -23.8536C6486.3 -25.7513 6485.81 -27.8998 6485.16 -29.9282C6488.96 -29.8936 6492.77 -29.859 6496.58 -29.8244Z" fill="#F2541A"/>
<path d="M6982.16 1416.45C6972.03 1406.01 6962.03 1395.4 6951.74 1385.17C6940.41 1373.92 6928.19 1364.1 6914.43 1357.16C6903.58 1351.69 6892.29 1348.1 6880.29 1349.88C6864.88 1352.17 6853.3 1362.02 6844.11 1375.94C6823.85 1406.62 6820.31 1440.07 6832.38 1475.75C6839.47 1496.72 6851.33 1513.62 6865.77 1528.47C6893.94 1557.44 6922.05 1586.52 6947.66 1618.64C6959.47 1633.44 6970.13 1649.28 6979.9 1665.95L6979.72 1685.81C6971.03 1672 6963.33 1657.41 6953.89 1644.19C6931.62 1613 6905.85 1585.92 6880.22 1558.64C6872.54 1550.46 6864.58 1542.62 6856.88 1534.46C6833.62 1509.85 6818.27 1480.33 6816 1443.09C6813.99 1410.24 6824.4 1382.47 6843.9 1359.37C6861.52 1338.5 6883.05 1333.75 6906.91 1341.94C6922.94 1347.45 6936.75 1357.58 6950.02 1369C6961.41 1378.82 6971.33 1390.62 6982.3 1401L6982.16 1416.46L6982.16 1416.45Z" fill="#F2541A"/>
<path d="M6812.55 -26.9535C6835.58 -10.9291 6860.19 1.05349 6885.58 10.9765C6921 24.8368 6957.5 32.7278 6994.7 36.5251L6994.6 47.5648C6923.55 41.526 6857.32 17.7265 6795.98 -24.1753C6794.92 -24.9033 6793.66 -25.3899 6793.51 -27.1265L6812.54 -26.9536L6812.55 -26.9535Z" fill="#F2541A"/>
<path d="M5756.12 817.337C5755.77 829.889 5752.48 844.005 5745.82 856.853C5736.54 874.75 5722.03 878.674 5706.86 867.606C5697.93 861.093 5690.4 852.625 5683.66 843.347C5657.96 807.958 5632.52 772.306 5606.84 736.906C5585.01 706.835 5563.06 676.895 5537.43 650.956C5512.11 625.329 5484.22 605.215 5451.58 594.143C5410.7 580.289 5376.56 552.161 5343.26 522.726C5318.68 501.007 5297.1 475.779 5279.66 446.013C5247.44 390.992 5233.55 329.938 5234.97 263.64C5236.88 174.614 5261.94 95.2028 5308.23 24.4061C5311.88 18.825 5315.66 13.3666 5320.27 8.78889C5332.83 -3.67389 5344.05 -1.85894 5352.81 14.2126C5358.62 24.8529 5362.29 36.6342 5365.23 48.6631C5370.84 71.6465 5377.33 94.251 5385.25 116.327C5409.82 184.784 5433.37 253.772 5460.36 320.991C5490.92 397.051 5532.48 463.971 5585.62 521.248C5637.19 576.821 5680.82 640.002 5716.96 710.155C5726.06 727.799 5735.93 744.92 5743.81 763.381C5750.74 779.602 5756.42 796.286 5756.14 817.337L5756.12 817.337ZM5244.86 269.599C5244.81 282.451 5245.02 295.273 5246.23 308.126C5252.86 379.039 5279.06 438.559 5323.13 487.775C5346.29 513.636 5372.66 534.587 5399.74 554.417C5416.95 567.017 5435.44 576.458 5454.85 583.574C5467.22 588.108 5479.43 593.147 5491.04 600.006C5516.7 615.181 5538.81 635.883 5559.29 659.034C5582.93 685.729 5603.93 715.185 5625.08 744.465C5647.25 775.147 5669.29 805.95 5691.52 836.588C5697.44 844.754 5704.1 852.164 5711.93 857.893C5722.31 865.492 5730.8 863.701 5737 851.667C5744.5 837.103 5748.08 821.254 5745.73 804.113C5743.3 786.353 5736.51 770.565 5728.95 755.245C5687.84 671.917 5639.97 594.617 5578.77 529.254C5525.93 472.819 5483.63 406.975 5454.03 331.234C5417.71 238.346 5380.86 145.574 5354.75 47.7943C5351.94 37.2696 5348.74 26.8298 5343 17.8478C5338.79 11.2448 5335.14 10.5928 5329.2 15.0258C5324.03 18.8911 5320.36 24.5384 5316.72 30.0864C5270.31 100.904 5245.07 180.236 5244.85 269.588L5244.86 269.599Z" fill="#F2541A"/>
<path d="M5408.04 412.853C5407.72 417.746 5407.76 420.719 5407.32 423.589C5405.21 437.097 5396.62 443.373 5385.04 440.107C5380.07 438.703 5375.5 436.318 5371.13 433.35C5351 419.706 5335.65 400.646 5324.08 377.332C5321.71 372.547 5319.9 367.436 5318.82 362.077C5315.64 346.244 5321.98 334.51 5335.59 330.611C5343.52 328.34 5351.3 329.372 5358.97 332.061C5365.68 334.41 5371.91 338.036 5377.33 343.18C5396.83 361.659 5406 386.144 5408.06 412.864L5408.04 412.853ZM5398.36 413.019C5396.27 389.869 5388.46 368.092 5371.15 351.976C5364.66 345.927 5357.16 341.969 5348.69 341.24C5341.68 340.646 5334.16 339.881 5329.63 347.642C5325.3 355.041 5328.56 362.663 5331.65 369.444C5342.4 393.015 5357.58 411.764 5377.84 424.647C5380.86 426.564 5384.15 428.086 5387.47 429.111C5393.28 430.899 5396.51 428.397 5397.73 421.578C5398.11 419.438 5398.06 417.194 5398.35 413.03L5398.36 413.019Z" fill="#F2541A"/>
</g>
</g>
<defs>
<clipPath id="clip0_1592_9305">
<rect width="6976" height="1936" fill="white"/>
</clipPath>
<clipPath id="clip1_1592_9305">
<rect width="1947.9" height="2139.53" fill="white" transform="translate(5047.44 -42.9919) rotate(0.520598)"/>
</clipPath>
</defs>
</svg>
